<?xml version="1.0" encoding="utf-8"?>
<!-- Generator: Adobe Illustrator 25.4.1, SVG Export Plug-In . SVG Version: 6.00 Build 0)  -->
<svg version="1.1" id="Layer_1" xmlns="http://www.w3.org/2000/svg" xmlns:xlink="http://www.w3.org/1999/xlink" x="0px" y="0px"
	 viewBox="0 0 100 100" style="enable-background:new 0 0 100 100;" xml:space="preserve">
<g>
	<path d="M80.2,59.8C80.2,44,67.9,31,52.4,29.8l8.8-8.2c0.8-0.7,1.2-1.7,1.3-2.7c0-0.1,0-0.1,0-0.2c0,0,0-0.1,0-0.1
		c0-0.8-0.2-1.6-0.7-2.3l-2.7-4.2c-0.8-1.2-2.1-1.9-3.5-1.9H44.1c-1.5,0-2.8,0.8-3.6,2L38,16.2c-1,1.7-0.7,3.9,0.7,5.2l8.9,8.3
		C32.1,31,19.8,44,19.8,59.8C19.8,76.5,33.4,90,50,90S80.2,76.5,80.2,59.8z M53.2,19.6L50,27.9l-3.2-8.3H53.2z M47.1,17.6l2.8-4.6
		l2.9,4.6H47.1z M52.5,26.9l2.8-7.3h4.9c-0.1,0.2-0.2,0.3-0.4,0.4L52.5,26.9z M57.5,13l2.7,4.2c0.1,0.1,0.1,0.2,0.2,0.4h-5.2
		L51.6,12h4C56.4,12,57.1,12.4,57.5,13z M42.2,13.1c0.4-0.7,1.1-1.1,1.9-1.1h4l-3.4,5.6h-5.2c0-0.1,0.1-0.2,0.2-0.4L42.2,13.1z
		 M39.8,19.6h4.9l2.8,7.3L40.1,20C40,19.9,39.9,19.8,39.8,19.6z M50,88c-15.5,0-28.2-12.6-28.2-28.2c0-15.5,12.6-28.2,28.2-28.2
		c15.5,0,28.2,12.6,28.2,28.2C78.2,75.4,65.5,88,50,88z"/>
	<path d="M66.8,43.1c-9.2-9.2-24.3-9.2-33.5,0c-9.2,9.2-9.2,24.3,0,33.5c4.5,4.5,10.4,6.9,16.8,6.9s12.3-2.5,16.8-6.9
		c4.5-4.5,6.9-10.4,6.9-16.8S71.2,47.5,66.8,43.1z M65.4,75.2c-4.1,4.1-9.6,6.4-15.4,6.4s-11.3-2.3-15.4-6.4
		c-8.5-8.5-8.5-22.2,0-30.7c4.2-4.2,9.8-6.3,15.4-6.3c5.6,0,11.1,2.1,15.4,6.3c4.1,4.1,6.4,9.6,6.4,15.4S69.5,71.1,65.4,75.2z"/>
	<path d="M27.3,18.6c0,0.6,0.4,1,1,1h5c0.6,0,1-0.4,1-1s-0.4-1-1-1h-5C27.8,17.6,27.3,18,27.3,18.6z"/>
	<path d="M36.1,14.2L33,10.4c-0.3-0.4-1-0.5-1.4-0.1c-0.4,0.3-0.5,1-0.1,1.4l3.1,3.8c0.2,0.2,0.5,0.4,0.8,0.4c0.2,0,0.4-0.1,0.6-0.2
		C36.3,15.2,36.4,14.6,36.1,14.2z"/>
	<path d="M34.5,21.7l-3.1,3.8c-0.3,0.4-0.3,1.1,0.1,1.4c0.2,0.2,0.4,0.2,0.6,0.2c0.3,0,0.6-0.1,0.8-0.4l3.1-3.8
		c0.3-0.4,0.3-1.1-0.1-1.4C35.5,21.2,34.9,21.3,34.5,21.7z"/>
	<path d="M65.7,18.6c0,0.6,0.4,1,1,1h5c0.6,0,1-0.4,1-1s-0.4-1-1-1h-5C66.1,17.6,65.7,18,65.7,18.6z"/>
	<path d="M63.9,22.9l3.1,3.8c0.2,0.2,0.5,0.4,0.8,0.4c0.2,0,0.4-0.1,0.6-0.2c0.4-0.3,0.5-1,0.1-1.4l-3.1-3.8c-0.3-0.4-1-0.5-1.4-0.1
		C63.7,21.9,63.6,22.5,63.9,22.9z"/>
	<path d="M67,10.4l-3.1,3.8c-0.3,0.4-0.3,1.1,0.1,1.4c0.2,0.2,0.4,0.2,0.6,0.2c0.3,0,0.6-0.1,0.8-0.4l3.1-3.8
		c0.3-0.4,0.3-1.1-0.1-1.4C68,9.9,67.4,10,67,10.4z"/>
</g>
</svg>
