<?xml version="1.0" encoding="utf-8"?>
<!-- Generator: Adobe Illustrator 25.4.1, SVG Export Plug-In . SVG Version: 6.00 Build 0)  -->
<svg version="1.1" id="Layer_1" xmlns="http://www.w3.org/2000/svg" xmlns:xlink="http://www.w3.org/1999/xlink" x="0px" y="0px"
	 viewBox="0 0 100 100" style="enable-background:new 0 0 100 100;" xml:space="preserve">
<path d="M54.2,19.6c0.2,0,0.5-0.1,0.7-0.3l3.6-3.5c0.4-0.4,0.4-1,0-1.4c-0.4-0.4-1-0.4-1.4,0l-3.6,3.5c-0.4,0.4-0.4,1,0,1.4
	C53.7,19.5,54,19.6,54.2,19.6z"/>
<path d="M44.9,19.3c0.2,0.2,0.4,0.3,0.7,0.3c0.3,0,0.5-0.1,0.7-0.3c0.4-0.4,0.4-1,0-1.4l-3.6-3.5c-0.4-0.4-1-0.4-1.4,0
	c-0.4,0.4-0.4,1,0,1.4L44.9,19.3z"/>
<path d="M10.7,85.6L25.3,90c0.1,0,0.2,0,0.3,0c0.4,0,0.8-0.3,1-0.7c0.2-0.5-0.1-1.1-0.7-1.2l-6.4-1.9l6.8-22.9
	c0.2,0,0.5,0.1,0.7,0.1c2.7,0,5.8-1.8,8.7-5.3c3.4-4,6.3-9.7,8.2-16.1c1.2-3.9,3.6-13.8,4-17.9c0-0.5-0.3-0.9-0.7-1L29,17.6
	c-0.5-0.1-0.9,0.1-1.2,0.5c-1.9,3.6-5.3,13.2-6.5,17.1c-3.9,13-2.5,24.7,3.1,27.5l-6.8,22.9l-6.4-1.9c-0.5-0.2-1.1,0.1-1.2,0.7
	C9.9,84.9,10.2,85.4,10.7,85.6z M29.2,19.7l16.6,5c-0.2,1.9-0.8,4.7-1.4,7.5L26.3,27C27.3,24.2,28.4,21.5,29.2,19.7z M23.3,35.8
	c0.5-1.6,1.3-4.2,2.3-6.9l18.3,5.3c-0.7,2.9-1.4,5.6-1.9,7.2c-1.8,6.1-4.6,11.6-7.8,15.4c-3,3.5-6,5.1-8.3,4.4
	C20.9,59.6,19.7,48,23.3,35.8z"/>
<path d="M27.1,54.1c0.1,0,0.2,0,0.3-0.1c0.5-0.2,0.8-0.8,0.6-1.3c-0.7-2-0.7-8.5,1.6-16.1c0.2-0.5-0.1-1.1-0.7-1.2
	c-0.5-0.2-1.1,0.1-1.2,0.7c-2.3,7.6-2.5,14.6-1.5,17.3C26.3,53.9,26.7,54.1,27.1,54.1z"/>
<path d="M88.7,83.7l-6.4,1.9l-6.8-22.9c5.6-2.8,6.9-14.4,3.1-27.5c-1.2-3.9-4.5-13.6-6.5-17.1c-0.2-0.4-0.7-0.6-1.2-0.5L52.8,23
	c-0.5,0.1-0.7,0.6-0.7,1c0.3,4.1,2.8,14,4,17.9c1.9,6.4,4.8,12.1,8.2,16.1c2.9,3.4,6,5.3,8.7,5.3c0.2,0,0.5,0,0.7-0.1l6.8,22.9
	L74.1,88c-0.5,0.2-0.8,0.7-0.7,1.2c0.1,0.4,0.5,0.7,1,0.7c0.1,0,0.2,0,0.3,0l14.6-4.4c0.5-0.2,0.8-0.7,0.7-1.2
	C89.8,83.8,89.2,83.5,88.7,83.7z M70.8,19.7c0.9,1.8,1.9,4.5,3,7.2l-18.1,5.2c-0.6-2.8-1.2-5.6-1.4-7.5L70.8,19.7z M65.7,56.7
	c-3.2-3.8-5.9-9.2-7.8-15.4c-0.5-1.7-1.2-4.4-1.9-7.2l18.3-5.3c1,2.7,1.8,5.3,2.3,6.9C80.3,48,79.1,59.6,74,61.1c0,0,0,0,0,0
	c0,0,0,0,0,0c0,0,0,0,0,0C71.7,61.8,68.7,60.2,65.7,56.7z"/>
<path d="M72.3,36.1c-0.2-0.5-0.7-0.8-1.2-0.7c-0.5,0.2-0.8,0.7-0.7,1.2c2.3,7.6,2.3,14.1,1.6,16.1c-0.2,0.5,0.1,1.1,0.6,1.3
	c0.1,0,0.2,0.1,0.3,0.1c0.4,0,0.8-0.3,0.9-0.7C74.8,50.7,74.6,43.7,72.3,36.1z"/>
<path d="M50,16.4c0.6,0,1-0.4,1-1V11c0-0.6-0.4-1-1-1s-1,0.4-1,1v4.4C49,15.9,49.4,16.4,50,16.4z"/>
</svg>
