<?xml version="1.0" encoding="utf-8"?>
<!-- Generator: Adobe Illustrator 25.4.1, SVG Export Plug-In . SVG Version: 6.00 Build 0)  -->
<svg version="1.1" id="Layer_1" xmlns="http://www.w3.org/2000/svg" xmlns:xlink="http://www.w3.org/1999/xlink" x="0px" y="0px"
	 viewBox="0 0 100 100" style="enable-background:new 0 0 100 100;" xml:space="preserve">
<g>
	<path d="M49.9,64.3c0.1,0,0.3,0,0.4-0.1c0.6-0.2,14.3-5.8,16.8-16.6c1.5-6.3-2.1-11-6-12.6c-3.6-1.5-7.4-0.7-10.1,2V11
		c0-0.6-0.4-1-1-1s-1,0.4-1,1v26c-2.8-2.7-6.5-3.5-10.1-2c-3.9,1.6-7.5,6.3-6,12.6C35.3,58.4,49,63.9,49.6,64.2
		C49.7,64.2,49.8,64.3,49.9,64.3z M34.7,47.1c-1.2-5.2,1.6-9,4.8-10.3c0.9-0.4,1.9-0.6,2.9-0.6c2.3,0,4.8,1.1,6.6,4.1
		c0.2,0.3,0.5,0.5,0.8,0.5s0.7-0.2,0.8-0.5c2.7-4.4,6.7-4.7,9.5-3.5c3.2,1.3,6,5.1,4.8,10.3c-2.1,8.8-13,14.1-15.2,15
		C47.8,61.2,36.8,56,34.7,47.1z"/>
	<path d="M87.5,68.4l-7.2-1.1c-0.3,0-0.6-0.2-0.7-0.5l-3.2-6.5c-0.3-0.7-0.9-1.2-1.6-1.5V11c0-0.6-0.4-1-1-1s-1,0.4-1,1v47.8
		c-0.7,0.3-1.3,0.8-1.6,1.5l-3.2,6.5c-0.1,0.3-0.4,0.5-0.7,0.5l-7.2,1.1c-1.1,0.2-2,0.9-2.4,2c-0.3,1.1-0.1,2.2,0.7,3l5.2,5.1
		c0.2,0.2,0.3,0.5,0.3,0.8l-1.2,7.2c-0.2,1.1,0.3,2.2,1.2,2.9c0.5,0.4,1.1,0.6,1.7,0.6c0.5,0,0.9-0.1,1.4-0.3l6.5-3.4l0,0
		c0.3-0.1,0.6-0.1,0.9,0l6.5,3.4c1,0.5,2.2,0.4,3.1-0.2c0.9-0.7,1.4-1.8,1.2-2.9l-1.2-7.2c-0.1-0.3,0-0.6,0.3-0.8l5.2-5.1
		c0.8-0.8,1.1-1.9,0.7-3C89.5,69.3,88.6,68.6,87.5,68.4z M87.7,72l-5.2,5.1c-0.7,0.7-1,1.6-0.8,2.6l1.2,7.2c0.1,0.4-0.1,0.7-0.4,0.9
		c-0.3,0.2-0.7,0.2-1,0.1l-6.5-3.4c-0.9-0.5-1.9-0.5-2.7,0l-6.5,3.4c-0.3,0.2-0.7,0.1-1-0.1c-0.3-0.2-0.4-0.6-0.4-0.9l1.2-7.2
		c0.2-1-0.2-1.9-0.8-2.6L59.6,72c-0.3-0.3-0.4-0.6-0.2-1c0.1-0.3,0.4-0.6,0.8-0.6l7.2-1.1c1-0.1,1.8-0.7,2.2-1.6l3.2-6.5
		c0.2-0.3,0.5-0.5,0.8-0.5s0.7,0.2,0.8,0.5l3.2,6.5c0.4,0.9,1.3,1.5,2.2,1.6l7.2,1.1c0.4,0.1,0.6,0.3,0.8,0.6
		C88.1,71.4,88,71.7,87.7,72z"/>
	<path d="M41.7,73.4c0.8-0.8,1.1-1.9,0.7-3c-0.3-1.1-1.3-1.8-2.4-2l-7.2-1.1c-0.3,0-0.6-0.2-0.7-0.5L29,60.3
		c-0.3-0.7-0.9-1.2-1.6-1.5V11c0-0.6-0.4-1-1-1s-1,0.4-1,1v47.8c-0.7,0.3-1.3,0.8-1.6,1.5l-3.2,6.5c-0.1,0.3-0.4,0.5-0.7,0.5
		l-7.2,1.1c-1.1,0.2-2,0.9-2.4,2c-0.3,1.1-0.1,2.2,0.7,3l5.2,5.1c0.2,0.2,0.3,0.5,0.3,0.8l-1.2,7.2c-0.2,1.1,0.3,2.2,1.2,2.9
		c0.5,0.4,1.1,0.6,1.7,0.6c0.5,0,0.9-0.1,1.4-0.3l6.5-3.4l0,0c0.3-0.1,0.6-0.1,0.9,0l6.5,3.4c1,0.5,2.2,0.4,3.1-0.2
		c0.9-0.7,1.4-1.8,1.2-2.9l-1.2-7.2c-0.1-0.3,0-0.6,0.3-0.8L41.7,73.4z M34.3,79.7l1.2,7.2c0.1,0.4-0.1,0.7-0.4,0.9
		c-0.3,0.2-0.7,0.2-1,0.1l-6.5-3.4c-0.9-0.5-1.9-0.5-2.7,0l-6.5,3.4c-0.3,0.2-0.7,0.1-1-0.1c-0.3-0.2-0.4-0.6-0.4-0.9l1.2-7.2
		c0.2-1-0.2-1.9-0.8-2.6L12.3,72c-0.3-0.3-0.4-0.6-0.2-1c0.1-0.3,0.4-0.6,0.8-0.6l7.2-1.1c1-0.1,1.8-0.7,2.2-1.6l3.2-6.5
		c0.2-0.3,0.5-0.5,0.8-0.5c0.4,0,0.7,0.2,0.8,0.5l3.2,6.5c0.4,0.9,1.3,1.5,2.2,1.6l7.2,1.1c0.4,0.1,0.6,0.3,0.8,0.6
		c0.1,0.3,0,0.7-0.2,1l-5.2,5.1C34.4,77.8,34.1,78.7,34.3,79.7z"/>
</g>
</svg>
