<?xml version="1.0" encoding="utf-8"?>
<!-- Generator: Adobe Illustrator 25.4.1, SVG Export Plug-In . SVG Version: 6.00 Build 0)  -->
<svg version="1.1" id="Layer_1" xmlns="http://www.w3.org/2000/svg" xmlns:xlink="http://www.w3.org/1999/xlink" x="0px" y="0px"
	 viewBox="0 0 100 100" style="enable-background:new 0 0 100 100;" xml:space="preserve">
<path d="M22.9,62.8c0,1.2,0.9,2.1,2.1,2.1h1.7v8.4c-3.7,0.3-6.7,3.5-6.7,7.4c0,4.1,3.3,7.4,7.2,7.4c1.9,0,3.7-0.8,5.1-2.1
	c1.3,1.3,3.2,2.1,5.1,2.1c4,0,7.2-3.3,7.2-7.4c0-3.9-3-7.1-6.7-7.4v-8.4h1.6c1.2,0,2.2-1,2.2-2.4c0-4.7,2.1-9.4,5.7-12.8
	c5.3-5,7.9-12,7.1-19.4c-1.1-10.5-9.4-19-19.7-20.1c-6.4-0.7-12.5,1.2-17.3,5.5C12.8,20,10,26.3,10,32.9c0,6.3,2.6,12.4,7.1,16.7
	C20.8,53.2,22.9,57.9,22.9,62.8z M36.3,75c0.2,0.2,0.5,0.3,0.8,0.3c0.1,0,0.2,0,0.3,0c2.9,0,5.2,2.4,5.2,5.4S40.3,86,37.4,86
	c-1.7,0-3.3-0.8-4.2-2.2c-0.4-0.5-1.3-0.5-1.6,0c-1,1.4-2.6,2.2-4.2,2.2c-2.9,0-5.2-2.4-5.2-5.4s2.4-5.4,5.2-5.4c0.1,0,0.2,0,0.4,0
	c0.3,0,0.5-0.1,0.8-0.3c0.2-0.2,0.3-0.5,0.3-0.7v-9.4H36v9.4C36,74.6,36.1,74.8,36.3,75z M19,17.1c3.8-3.4,8.4-5.1,13.4-5.1
	c0.8,0,1.6,0,2.3,0.1c9.3,1.1,16.9,8.8,17.9,18.4c0.7,6.7-1.6,13.2-6.4,17.7c-4,3.8-6.3,9-6.3,14.4c0,0.2-0.1,0.3-0.2,0.3H25
	c0,0-0.1,0-0.1-0.1c0-5.5-2.3-10.7-6.5-14.7c-4.1-3.9-6.5-9.5-6.5-15.2C12,26.8,14.5,21.1,19,17.1z"/>
<path d="M67.6,14.1c-1.3-1.3-3.2-2.1-5.1-2.1c-4,0-7.2,3.3-7.2,7.4c0,3.9,3,7.1,6.7,7.4v8.4h-1.6c-1.2,0-2.2,1-2.2,2.4
	c0,4.7-2.1,9.4-5.7,12.8c-5.3,5-7.9,12-7.1,19.4c1.1,10.5,9.4,19,19.7,20.1c0.9,0.1,1.7,0.1,2.6,0.1c5.4,0,10.6-2,14.7-5.6
	C87.2,80,90,73.7,90,67.1c0-6.3-2.6-12.4-7.1-16.7c-3.8-3.6-5.8-8.3-5.8-13.2c0-1.2-0.9-2.1-2.1-2.1h-1.7v-8.4
	c3.7-0.3,6.7-3.5,6.7-7.4c0-4.1-3.3-7.4-7.2-7.4C70.8,12,69,12.7,67.6,14.1z M75.1,37.2c0,5.5,2.3,10.7,6.5,14.7
	c4.1,3.9,6.5,9.5,6.5,15.2c0,6-2.5,11.8-7,15.7c-4.3,3.9-9.9,5.7-15.7,5c-9.3-1.1-16.9-8.8-17.9-18.4c-0.7-6.7,1.6-13.2,6.4-17.7
	c4-3.8,6.3-9,6.3-14.4c0-0.2,0.1-0.3,0.2-0.3H75C75,37.1,75.1,37.2,75.1,37.2z M77.9,19.3c0,3-2.4,5.4-5.2,5.4c-0.1,0-0.2,0-0.4,0
	c-0.3,0-0.5,0.1-0.8,0.3c-0.2,0.2-0.3,0.5-0.3,0.7v9.4H64v-9.4c0-0.3-0.1-0.5-0.3-0.7c-0.2-0.2-0.5-0.3-0.8-0.3c-0.1,0-0.2,0-0.3,0
	c-2.9,0-5.2-2.4-5.2-5.4s2.4-5.4,5.2-5.4c1.7,0,3.3,0.8,4.2,2.2c0.4,0.5,1.3,0.5,1.6,0c1-1.4,2.6-2.2,4.2-2.2
	C75.6,14,77.9,16.4,77.9,19.3z"/>
</svg>
