<?xml version="1.0" encoding="utf-8"?>
<!-- Generator: Adobe Illustrator 25.4.1, SVG Export Plug-In . SVG Version: 6.00 Build 0)  -->
<svg version="1.1" id="Layer_1" xmlns="http://www.w3.org/2000/svg" xmlns:xlink="http://www.w3.org/1999/xlink" x="0px" y="0px"
	 viewBox="0 0 100 100" style="enable-background:new 0 0 100 100;" xml:space="preserve">
<style type="text/css">
	.st0{fill:#FFFFFF;}
</style>
<g>
	<g>
		<path class="st0" d="M76.4,69.4H23.6c-3.6,0-6.6-2.9-6.6-6.6V37.1c0-3.6,2.9-6.6,6.6-6.6h52.7c3.6,0,6.6,2.9,6.6,6.6v25.7
			C82.9,66.5,80,69.4,76.4,69.4z M23.6,33.6c-2,0-3.6,1.6-3.6,3.6v25.7c0,2,1.6,3.6,3.6,3.6h52.7c2,0,3.6-1.6,3.6-3.6V37.1
			c0-2-1.6-3.6-3.6-3.6C76.4,33.6,23.6,33.6,23.6,33.6z"/>
	</g>
	<g>
		<path class="st0" d="M27,54.9c-2.7,0-4.9-2.2-4.9-4.9c0-2.7,2.2-4.9,4.9-4.9s4.9,2.2,4.9,4.9C31.9,52.7,29.7,54.9,27,54.9z
			 M27,48.1c-1,0-1.9,0.9-1.9,1.9c0,1,0.9,1.9,1.9,1.9s1.9-0.9,1.9-1.9C28.9,49,28,48.1,27,48.1z"/>
	</g>
	<g>
		<g>
			<path class="st0" d="M75.1,53.2c-0.8,0-1.5-0.7-1.5-1.5v-8c0-0.8,0.7-1.5,1.5-1.5s1.5,0.7,1.5,1.5v8
				C76.6,52.5,75.9,53.2,75.1,53.2z"/>
		</g>
		<g>
			<path class="st0" d="M75.1,57.8c-0.8,0-1.5-0.7-1.5-1.5v-0.5c0-0.8,0.7-1.5,1.5-1.5s1.5,0.7,1.5,1.5v0.5
				C76.6,57.1,75.9,57.8,75.1,57.8z"/>
		</g>
	</g>
</g>
<g>
	<g>
		<path class="st0" d="M67.5,24.1c-0.3,0-0.6-0.1-0.9-0.3C61.8,20.3,56,18.5,50,18.5c-5.9,0-11.5,1.8-16.4,5.1
			C33,24,32,23.9,31.6,23.2c-0.5-0.7-0.3-1.6,0.4-2.1c5.3-3.7,11.6-5.6,18.1-5.6c6.6,0,13,2,18.4,5.8c0.7,0.5,0.8,1.4,0.4,2.1
			C68.5,23.9,68,24.1,67.5,24.1z"/>
	</g>
	<g>
		<path class="st0" d="M60.7,25.4c-0.7,0-1.3-0.5-1.5-1.2c-0.2-0.8,0.4-1.6,1.2-1.8l6.8-1.3c0.8-0.2,1.6,0.4,1.8,1.2
			c0.2,0.8-0.4,1.6-1.2,1.8L61,25.4C60.9,25.4,60.8,25.4,60.7,25.4z"/>
	</g>
	<g>
		<path class="st0" d="M67.5,24.1c-0.7,0-1.3-0.5-1.5-1.2l-1.5-6.6c-0.2-0.8,0.3-1.6,1.1-1.8c0.8-0.2,1.6,0.3,1.8,1.1l1.5,6.7
			c0.2,0.8-0.3,1.6-1.1,1.8C67.8,24.1,67.6,24.1,67.5,24.1z"/>
	</g>
</g>
<g>
	<g>
		<path class="st0" d="M49.8,84.3c-6.6,0-13-2-18.4-5.8c-0.7-0.5-0.8-1.4-0.4-2.1c0.5-0.7,1.4-0.8,2.1-0.4
			c4.9,3.5,10.7,5.3,16.7,5.3c5.9,0,11.5-1.8,16.4-5.1c0.7-0.5,1.6-0.3,2.1,0.4c0.5,0.7,0.3,1.6-0.4,2.1
			C62.6,82.4,56.3,84.3,49.8,84.3z"/>
	</g>
	<g>
		<path class="st0" d="M32.3,78.7c-0.7,0-1.3-0.5-1.5-1.2c-0.2-0.8,0.4-1.6,1.2-1.8l6.8-1.3c0.8-0.2,1.6,0.4,1.8,1.2
			c0.2,0.8-0.4,1.6-1.2,1.8l-6.8,1.3C32.5,78.7,32.4,78.7,32.3,78.7z"/>
	</g>
	<g>
		<path class="st0" d="M33.8,85.4c-0.7,0-1.3-0.5-1.5-1.2l-1.5-6.7c-0.2-0.8,0.3-1.6,1.1-1.8c0.8-0.2,1.6,0.3,1.8,1.1l1.5,6.7
			c0.2,0.8-0.3,1.6-1.1,1.8C34.1,85.4,33.9,85.4,33.8,85.4z"/>
	</g>
</g>
</svg>
