<?xml version="1.0" encoding="utf-8"?>
<!-- Generator: Adobe Illustrator 25.4.1, SVG Export Plug-In . SVG Version: 6.00 Build 0)  -->
<svg version="1.1" id="Layer_1" xmlns="http://www.w3.org/2000/svg" xmlns:xlink="http://www.w3.org/1999/xlink" x="0px" y="0px"
	 viewBox="0 0 122.4 122.4" style="enable-background:new 0 0 122.4 122.4;" xml:space="preserve">
<style type="text/css">
	.st0{fill:none;stroke:#FFFFFF;stroke-width:1.7778;stroke-linecap:round;stroke-linejoin:round;stroke-miterlimit:10;}
	.st1{fill:#FFFFFF;}
</style>
<g>
	<path class="st0" d="M110.3,61.2c6.4-3.3,10.9-10,10.9-17.8c0-11-9-20-20-20c-0.8,0-1.6,0.1-2.4,0.2c0.1-0.8,0.2-1.6,0.2-2.4
		c0-11-9-20-20-20c-7.8,0-14.5,4.4-17.8,10.9c-3.3-6.4-10-10.9-17.8-10.9c-11,0-20,9-20,20c0,0.8,0.1,1.6,0.2,2.4
		c-0.8-0.1-1.6-0.2-2.4-0.2c-11,0-20,9-20,20c0,7.8,4.4,14.5,10.9,17.8C5.6,64.5,1.2,71.2,1.2,79c0,11,9,20,20,20
		c0.8,0,1.6-0.1,2.4-0.2c-0.1,0.8-0.2,1.6-0.2,2.4c0,11,9,20,20,20c7.8,0,14.5-4.4,17.8-10.9c3.3,6.4,10,10.9,17.8,10.9
		c11,0,20-9,20-20c0-0.8-0.1-1.6-0.2-2.4c0.8,0.1,1.6,0.2,2.4,0.2c11,0,20-9,20-20C121.2,71.2,116.8,64.5,110.3,61.2z"/>
	<g>
		<path class="st1" d="M100.3,27.9L100.3,27.9C100.3,27.9,100.3,27.9,100.3,27.9c-2.8,0.1-5.2,0.6-7.1,1.4c0.7-1.7,1.2-4,1.4-7.1
			c0,0,0,0,0,0h0c0-9.1-7.4-16.4-16.4-16.4S61.6,13,61.6,22.1c0,7.6,6.2,13.9,13.9,13.9s13.9-6.2,13.9-13.9
			c0-6.2-5.1-11.3-11.3-11.3s-11.3,5.1-11.3,11.3c0,4.8,3.9,8.7,8.7,8.7c4.8,0,8.7-3.9,8.7-8.7c0-3.3-2.7-6.1-6.1-6.1
			S72,18.7,72,22.1c0,1.9,1.6,3.5,3.5,3.5c1.9,0,3.5-1.6,3.5-3.5c0-0.5-0.4-0.9-0.9-0.9s-0.9,0.4-0.9,0.9c0,0.9-0.8,1.7-1.7,1.7
			c-0.9,0-1.7-0.8-1.7-1.7c0-2.4,1.9-4.3,4.3-4.3s4.3,1.9,4.3,4.3c0,3.8-3.1,6.9-6.9,6.9c-3.8,0-6.9-3.1-6.9-6.9
			c0-5.2,4.3-9.5,9.5-9.5s9.5,4.3,9.5,9.5c0,6.7-5.4,12.1-12.1,12.1c-6.7,0-12.1-5.4-12.1-12.1C63.4,14,70,7.4,78.1,7.4
			c8.1,0,14.7,6.6,14.7,14.7c-0.2,4.7-1.4,7.4-2.5,8.9c-0.6,0.5-1.2,1-1.6,1.6c-0.1,0.1-0.1,0.2-0.1,0.3c-0.1,0.1-0.1,0.2-0.1,0.3
			c0,0.1,0,0.3,0.1,0.4c0,0.1,0,0.1,0,0.2c0,0,0,0,0,0c0,0,0,0,0,0.1c0,0,0.1,0,0.1,0c0.2,0.1,0.3,0.2,0.5,0.3c0,0,0,0,0.1,0
			c0,0,0.1,0,0.1,0c0.1,0,0.3,0,0.4-0.1c0.4-0.2,1.1-0.8,1.9-1.9c1.6-1.1,4.2-2.3,8.7-2.4c8.1,0,14.7,6.6,14.7,14.7
			c0,8.1-6.6,14.7-14.7,14.7c-6.7,0-12.1-5.4-12.1-12.1c0-6.7,5.4-12.1,12.1-12.1c5.2,0,9.5,4.3,9.5,9.5s-4.3,9.5-9.5,9.5
			c-3.8,0-6.9-3.1-6.9-6.9s3.1-6.9,6.9-6.9c2.4,0,4.3,1.9,4.3,4.3s-1.9,4.3-4.3,4.3c-0.9,0-1.7-0.8-1.7-1.7s0.8-1.7,1.7-1.7
			c0.5,0,0.9-0.4,0.9-0.9c0-0.5-0.4-0.9-0.9-0.9c-1.9,0-3.5,1.6-3.5,3.5s1.6,3.5,3.5,3.5c3.3,0,6.1-2.7,6.1-6.1s-2.7-6.1-6.1-6.1
			c-4.8,0-8.7,3.9-8.7,8.7s3.9,8.7,8.7,8.7c6.2,0,11.3-5.1,11.3-11.3s-5.1-11.3-11.3-11.3c-7.6,0-13.9,6.2-13.9,13.9
			c0,7.6,6.2,13.9,13.9,13.9c9.1,0,16.4-7.4,16.4-16.4S109.4,27.9,100.3,27.9z"/>
		<path class="st1" d="M22.1,27.9L22.1,27.9C22.1,27.9,22.1,27.9,22.1,27.9c2.8,0.1,5.2,0.6,7.1,1.4c-0.7-1.7-1.2-4-1.4-7.1
			c0,0,0,0,0,0h0c0-9.1,7.4-16.4,16.4-16.4S60.8,13,60.8,22.1c0,7.6-6.2,13.9-13.9,13.9s-13.9-6.2-13.9-13.9
			c0-6.2,5.1-11.3,11.3-11.3s11.3,5.1,11.3,11.3c0,4.8-3.9,8.7-8.7,8.7s-8.7-3.9-8.7-8.7c0-3.3,2.7-6.1,6.1-6.1
			c3.3,0,6.1,2.7,6.1,6.1c0,1.9-1.6,3.5-3.5,3.5s-3.5-1.6-3.5-3.5c0-0.5,0.4-0.9,0.9-0.9s0.9,0.4,0.9,0.9c0,0.9,0.8,1.7,1.7,1.7
			c0.9,0,1.7-0.8,1.7-1.7c0-2.4-1.9-4.3-4.3-4.3S40,19.7,40,22.1c0,3.8,3.1,6.9,6.9,6.9s6.9-3.1,6.9-6.9c0-5.2-4.3-9.5-9.5-9.5
			s-9.5,4.3-9.5,9.5c0,6.7,5.4,12.1,12.1,12.1c6.7,0,12.1-5.4,12.1-12.1C59,14,52.4,7.4,44.3,7.4c-8.1,0-14.7,6.6-14.7,14.7
			c0.2,4.7,1.4,7.4,2.5,8.9c0.6,0.5,1.2,1,1.6,1.6c0.1,0.1,0.1,0.2,0.1,0.3c0.1,0.1,0.1,0.2,0.1,0.3c0,0.1,0,0.3-0.1,0.4
			c0,0.1,0,0.1,0,0.2c0,0,0,0,0,0c0,0,0,0,0,0.1c0,0-0.1,0-0.1,0c-0.2,0.1-0.3,0.2-0.5,0.3c0,0,0,0-0.1,0c0,0-0.1,0-0.1,0
			c-0.1,0-0.3,0-0.4-0.1c-0.4-0.2-1.1-0.8-1.9-1.9c-1.6-1.1-4.2-2.3-8.7-2.4c-8.1,0-14.7,6.6-14.7,14.7C7.4,52.4,14,59,22.1,59
			c6.7,0,12.1-5.4,12.1-12.1c0-6.7-5.4-12.1-12.1-12.1c-5.2,0-9.5,4.3-9.5,9.5s4.3,9.5,9.5,9.5c3.8,0,6.9-3.1,6.9-6.9
			S25.9,40,22.1,40c-2.4,0-4.3,1.9-4.3,4.3s1.9,4.3,4.3,4.3c0.9,0,1.7-0.8,1.7-1.7s-0.8-1.7-1.7-1.7c-0.5,0-0.9-0.4-0.9-0.9
			c0-0.5,0.4-0.9,0.9-0.9c1.9,0,3.5,1.6,3.5,3.5s-1.6,3.5-3.5,3.5c-3.3,0-6.1-2.7-6.1-6.1s2.7-6.1,6.1-6.1c4.8,0,8.7,3.9,8.7,8.7
			s-3.9,8.7-8.7,8.7c-6.2,0-11.3-5.1-11.3-11.3s5.1-11.3,11.3-11.3c7.6,0,13.9,6.2,13.9,13.9c0,7.6-6.2,13.9-13.9,13.9
			c-9.1,0-16.4-7.4-16.4-16.4S13,27.9,22.1,27.9z"/>
		<path class="st1" d="M22.1,94.5L22.1,94.5C22.1,94.5,22.1,94.5,22.1,94.5c2.8-0.1,5.2-0.6,7.1-1.4c-0.7,1.7-1.2,4-1.4,7.1
			c0,0,0,0,0,0h0c0,9.1,7.4,16.4,16.4,16.4s16.4-7.4,16.4-16.4c0-7.6-6.2-13.9-13.9-13.9s-13.9,6.2-13.9,13.9
			c0,6.2,5.1,11.3,11.3,11.3s11.3-5.1,11.3-11.3c0-4.8-3.9-8.7-8.7-8.7s-8.7,3.9-8.7,8.7c0,3.3,2.7,6.1,6.1,6.1
			c3.3,0,6.1-2.7,6.1-6.1c0-1.9-1.6-3.5-3.5-3.5s-3.5,1.6-3.5,3.5c0,0.5,0.4,0.9,0.9,0.9s0.9-0.4,0.9-0.9c0-0.9,0.8-1.7,1.7-1.7
			c0.9,0,1.7,0.8,1.7,1.7c0,2.4-1.9,4.3-4.3,4.3s-4.3-1.9-4.3-4.3c0-3.8,3.1-6.9,6.9-6.9s6.9,3.1,6.9,6.9c0,5.2-4.3,9.5-9.5,9.5
			s-9.5-4.3-9.5-9.5c0-6.7,5.4-12.1,12.1-12.1c6.7,0,12.1,5.4,12.1,12.1c0,8.1-6.6,14.7-14.7,14.7c-8.1,0-14.7-6.6-14.7-14.7
			c0.2-4.7,1.4-7.4,2.5-8.9c0.6-0.5,1.2-1,1.6-1.6c0.1-0.1,0.1-0.2,0.1-0.3c0.1-0.1,0.1-0.2,0.1-0.3c0-0.1,0-0.3-0.1-0.4
			c0-0.1,0-0.1,0-0.2c0,0,0,0,0,0c0,0,0,0,0-0.1c0,0-0.1,0-0.1,0c-0.2-0.1-0.3-0.2-0.5-0.3c0,0,0,0-0.1,0c0,0-0.1,0-0.1,0
			c-0.1,0-0.3,0-0.4,0.1c-0.4,0.2-1.1,0.8-1.9,1.9c-1.6,1.1-4.2,2.3-8.7,2.4c-8.1,0-14.7-6.6-14.7-14.7c0-8.1,6.6-14.7,14.7-14.7
			c6.7,0,12.1,5.4,12.1,12.1c0,6.7-5.4,12.1-12.1,12.1c-5.2,0-9.5-4.3-9.5-9.5s4.3-9.5,9.5-9.5c3.8,0,6.9,3.1,6.9,6.9
			c0,3.8-3.1,6.9-6.9,6.9c-2.4,0-4.3-1.9-4.3-4.3s1.9-4.3,4.3-4.3c0.9,0,1.7,0.8,1.7,1.7c0,0.9-0.8,1.7-1.7,1.7
			c-0.5,0-0.9,0.4-0.9,0.9s0.4,0.9,0.9,0.9c1.9,0,3.5-1.6,3.5-3.5c0-1.9-1.6-3.5-3.5-3.5c-3.3,0-6.1,2.7-6.1,6.1s2.7,6.1,6.1,6.1
			c4.8,0,8.7-3.9,8.7-8.7c0-4.8-3.9-8.7-8.7-8.7c-6.2,0-11.3,5.1-11.3,11.3s5.1,11.3,11.3,11.3c7.6,0,13.9-6.2,13.9-13.9
			c0-7.6-6.2-13.9-13.9-13.9C13,61.6,5.6,69,5.6,78.1S13,94.5,22.1,94.5z"/>
		<path class="st1" d="M100.3,94.5L100.3,94.5C100.3,94.5,100.3,94.5,100.3,94.5c-2.8-0.1-5.2-0.6-7.1-1.4c0.7,1.7,1.2,4,1.4,7.1
			c0,0,0,0,0,0h0c0,9.1-7.4,16.4-16.4,16.4s-16.4-7.4-16.4-16.4c0-7.6,6.2-13.9,13.9-13.9s13.9,6.2,13.9,13.9
			c0,6.2-5.1,11.3-11.3,11.3s-11.3-5.1-11.3-11.3c0-4.8,3.9-8.7,8.7-8.7c4.8,0,8.7,3.9,8.7,8.7c0,3.3-2.7,6.1-6.1,6.1
			s-6.1-2.7-6.1-6.1c0-1.9,1.6-3.5,3.5-3.5c1.9,0,3.5,1.6,3.5,3.5c0,0.5-0.4,0.9-0.9,0.9s-0.9-0.4-0.9-0.9c0-0.9-0.8-1.7-1.7-1.7
			c-0.9,0-1.7,0.8-1.7,1.7c0,2.4,1.9,4.3,4.3,4.3s4.3-1.9,4.3-4.3c0-3.8-3.1-6.9-6.9-6.9c-3.8,0-6.9,3.1-6.9,6.9
			c0,5.2,4.3,9.5,9.5,9.5s9.5-4.3,9.5-9.5c0-6.7-5.4-12.1-12.1-12.1c-6.7,0-12.1,5.4-12.1,12.1c0,8.1,6.6,14.7,14.7,14.7
			c8.1,0,14.7-6.6,14.7-14.7c-0.2-4.7-1.4-7.4-2.5-8.9c-0.6-0.5-1.2-1-1.6-1.6c-0.1-0.1-0.1-0.2-0.1-0.3c-0.1-0.1-0.1-0.2-0.1-0.3
			c0-0.1,0-0.3,0.1-0.4c0-0.1,0-0.1,0-0.2c0,0,0,0,0,0c0,0,0,0,0-0.1c0,0,0.1,0,0.1,0c0.2-0.1,0.3-0.2,0.5-0.3c0,0,0,0,0.1,0
			c0,0,0.1,0,0.1,0c0.1,0,0.3,0,0.4,0.1c0.4,0.2,1.1,0.8,1.9,1.9c1.6,1.1,4.2,2.3,8.7,2.4c8.1,0,14.7-6.6,14.7-14.7
			c0-8.1-6.6-14.7-14.7-14.7c-6.7,0-12.1,5.4-12.1,12.1c0,6.7,5.4,12.1,12.1,12.1c5.2,0,9.5-4.3,9.5-9.5s-4.3-9.5-9.5-9.5
			c-3.8,0-6.9,3.1-6.9,6.9c0,3.8,3.1,6.9,6.9,6.9c2.4,0,4.3-1.9,4.3-4.3s-1.9-4.3-4.3-4.3c-0.9,0-1.7,0.8-1.7,1.7
			c0,0.9,0.8,1.7,1.7,1.7c0.5,0,0.9,0.4,0.9,0.9s-0.4,0.9-0.9,0.9c-1.9,0-3.5-1.6-3.5-3.5c0-1.9,1.6-3.5,3.5-3.5
			c3.3,0,6.1,2.7,6.1,6.1s-2.7,6.1-6.1,6.1c-4.8,0-8.7-3.9-8.7-8.7c0-4.8,3.9-8.7,8.7-8.7c6.2,0,11.3,5.1,11.3,11.3
			s-5.1,11.3-11.3,11.3c-7.6,0-13.9-6.2-13.9-13.9c0-7.6,6.2-13.9,13.9-13.9c9.1,0,16.4,7.4,16.4,16.4S109.4,94.5,100.3,94.5z"/>
	</g>
	<path class="st1" d="M79.4,53.3v-3.6h-7.3v-1.2H77v-3.6h-4.8v-2.4h-4.8v2.4h-4.8v3.6h4.8v1.2H55.1v-1.2H60v-3.6h-4.8v-2.4h-4.8v2.4
		h-4.8v3.6h4.8v1.2H43v3.6h7.3v2.4h-4.8V63h4.8v1.2H43v3.6h7.3v3.6h-4.8V80H60v-8.5h-4.8v-3.6h12.1v3.6h-4.8V80H77v-8.5h-4.8v-3.6
		h7.3v-3.6h-7.3V63H77v-7.3h-4.8v-2.4H79.4z M56.4,73.9v2.4h-7.3v-2.4H56.4z M73.3,73.9v2.4H66v-2.4H73.3z M49.1,60.6v-2.4h7.3v2.4
		H49.1z M73.3,60.6H66v-2.4h7.3V60.6z M67.3,55.7h-4.8V63h4.8v1.2H55.1V63H60v-7.3h-4.8v-2.4h12.1V55.7z"/>
</g>
</svg>
