<svg width="800" height="800" viewBox="0 0 800 800" fill="none" xmlns="http://www.w3.org/2000/svg">
<rect width="800" height="800" fill="#1F1F1F"/>
<path d="M430.42 232C432.557 232 434.295 233.739 434.296 235.876V564.124C434.295 566.261 432.557 568 430.42 568H320.13C317.993 568 316.254 566.261 316.254 564.124V349.751H222.345C221.168 349.751 220.205 348.789 220.205 347.611V234.188C220.205 233.011 221.168 232.049 222.345 232.049H319.758L319.834 232.043C319.927 232.036 320.008 232.026 320.068 232.018C320.098 232.013 320.125 232.009 320.145 232.006C320.165 232.003 320.176 232.002 320.187 232H430.42ZM521.211 232C553.567 232 579.795 258.228 579.795 290.584C579.795 322.94 553.567 349.168 521.211 349.168C488.854 349.168 462.627 322.94 462.627 290.584C462.627 258.228 488.855 232 521.211 232ZM521.211 264.314C506.702 264.315 494.941 276.076 494.941 290.584C494.941 305.092 506.702 316.854 521.211 316.854C535.719 316.854 547.481 305.092 547.481 290.584C547.481 276.076 535.719 264.314 521.211 264.314Z" stroke="white" stroke-width="4"/>
</svg>
