<svg width="800" height="800" viewBox="0 0 800 800" fill="none" xmlns="http://www.w3.org/2000/svg">
<rect width="800" height="800" fill="#1F1F1F"/>
<g filter="url(#filter0_d_3_64)">
<path d="M267.609 398.418V230H335.936V434.955H304.146V430.955H331.936V234H271.609V398.418C271.609 416.373 286.191 430.955 304.146 430.955V434.955L303.204 434.942C283.787 434.45 268.113 418.777 267.621 399.36L267.609 398.418Z" fill="white"/>
</g>
<g filter="url(#filter1_d_3_64)">
<path d="M404.263 298.314V366.627H267.622V298.314H404.263ZM271.622 362.627H400.263V302.314H271.622V362.627Z" fill="white"/>
</g>
<g filter="url(#filter2_d_3_64)">
<path d="M314.87 366.236C314.87 356.149 316.948 346.552 320.666 337.832C292.532 344.715 271.635 370.149 271.635 400.537C271.635 436.226 300.446 465.124 335.948 465.125V469.125C298.516 469.124 268.113 438.898 267.641 401.422L267.635 400.537C267.635 365.438 293.894 336.551 327.763 332.484C322.127 342.449 318.87 353.957 318.87 366.236L318.876 367.122C319.345 404.302 349.275 434.347 386.302 434.818L387.185 434.824H387.198C389.97 434.824 392.69 434.615 395.384 434.288C383.641 455.08 361.448 469.125 335.948 469.125V465.125C357.177 465.125 375.982 454.78 387.698 438.819C387.532 438.82 387.365 438.824 387.198 438.824H387.185C347.234 438.824 314.871 406.314 314.87 366.236Z" fill="white"/>
</g>
<g filter="url(#filter3_d_3_64)">
<path d="M314.318 438.695H310.318V419.014H314.318V438.695ZM340.735 465.112H400.263V404.785H328.547C320.689 404.785 314.318 411.165 314.318 419.014H310.318L310.324 418.543C310.57 408.86 318.382 401.036 328.077 400.791L328.547 400.785H404.263V469.112H340.735L339.95 469.102C323.782 468.692 310.738 455.647 310.328 439.479L310.318 438.695H314.318C314.318 453.276 326.154 465.112 340.735 465.112Z" fill="white"/>
</g>
<g filter="url(#filter4_d_3_64)">
<path d="M605.231 392.258C605.231 342.578 564.966 302.314 515.286 302.314C465.619 302.314 425.341 342.579 425.341 392.258C425.341 441.938 465.606 482.203 515.286 482.204V486.204L514.072 486.196C462.742 485.546 421.341 443.742 421.341 392.258C421.341 340.369 463.41 298.314 515.286 298.314C567.175 298.314 609.231 340.369 609.231 392.258L609.223 393.473C608.573 444.802 566.769 486.204 515.286 486.204V482.204C564.966 482.204 605.231 441.938 605.231 392.258ZM540.904 392.258C540.904 378.33 529.791 367 515.948 366.649L515.286 366.641C501.137 366.641 489.669 378.109 489.668 392.258L489.676 392.919C490.021 406.543 501.001 417.522 514.625 417.868L515.286 417.876C529.435 417.876 540.904 406.408 540.904 392.258ZM544.904 392.258C544.904 408.617 531.644 421.876 515.286 421.876C498.927 421.876 485.668 408.617 485.668 392.258C485.669 375.9 498.928 362.641 515.286 362.641C531.644 362.641 544.904 375.9 544.904 392.258Z" fill="white"/>
</g>
<g filter="url(#filter5_d_3_64)">
<path d="M425.354 566H485.681V370.641H446.41C434.796 370.641 425.354 380.072 425.354 391.697V566ZM489.681 568.287L489.673 568.461C489.59 569.265 488.946 569.909 488.142 569.992L487.969 570H423.067L422.894 569.992C422.09 569.909 421.446 569.265 421.363 568.461L421.354 568.287V391.697C421.354 378.078 432.239 366.992 445.764 366.649L446.41 366.641H486.896L487.179 366.656C488.578 366.798 489.681 367.98 489.681 369.426V568.287Z" fill="white"/>
</g>
<g filter="url(#filter6_d_3_64)">
<path d="M249.929 332.484L190.769 366.641V298.314L249.929 332.484ZM194.769 359.712L241.929 332.484L218.349 318.87L218.348 318.869L194.769 305.245V359.712Z" fill="white"/>
</g>
<defs>
<filter id="filter0_d_3_64" x="263.609" y="230" width="76.3271" height="212.955" filterUnits="userSpaceOnUse" color-interpolation-filters="sRGB">
<feFlood flood-opacity="0" result="BackgroundImageFix"/>
<feColorMatrix in="SourceAlpha" type="matrix" values="0 0 0 0 0 0 0 0 0 0 0 0 0 0 0 0 0 0 127 0" result="hardAlpha"/>
<feOffset dy="4"/>
<feGaussianBlur stdDeviation="2"/>
<feComposite in2="hardAlpha" operator="out"/>
<feColorMatrix type="matrix" values="0 0 0 0 0 0 0 0 0 0 0 0 0 0 0 0 0 0 0.25 0"/>
<feBlend mode="normal" in2="BackgroundImageFix" result="effect1_dropShadow_3_64"/>
<feBlend mode="normal" in="SourceGraphic" in2="effect1_dropShadow_3_64" result="shape"/>
</filter>
<filter id="filter1_d_3_64" x="263.622" y="298.314" width="144.641" height="76.3135" filterUnits="userSpaceOnUse" color-interpolation-filters="sRGB">
<feFlood flood-opacity="0" result="BackgroundImageFix"/>
<feColorMatrix in="SourceAlpha" type="matrix" values="0 0 0 0 0 0 0 0 0 0 0 0 0 0 0 0 0 0 127 0" result="hardAlpha"/>
<feOffset dy="4"/>
<feGaussianBlur stdDeviation="2"/>
<feComposite in2="hardAlpha" operator="out"/>
<feColorMatrix type="matrix" values="0 0 0 0 0 0 0 0 0 0 0 0 0 0 0 0 0 0 0.25 0"/>
<feBlend mode="normal" in2="BackgroundImageFix" result="effect1_dropShadow_3_64"/>
<feBlend mode="normal" in="SourceGraphic" in2="effect1_dropShadow_3_64" result="shape"/>
</filter>
<filter id="filter2_d_3_64" x="263.635" y="332.484" width="135.749" height="144.641" filterUnits="userSpaceOnUse" color-interpolation-filters="sRGB">
<feFlood flood-opacity="0" result="BackgroundImageFix"/>
<feColorMatrix in="SourceAlpha" type="matrix" values="0 0 0 0 0 0 0 0 0 0 0 0 0 0 0 0 0 0 127 0" result="hardAlpha"/>
<feOffset dy="4"/>
<feGaussianBlur stdDeviation="2"/>
<feComposite in2="hardAlpha" operator="out"/>
<feColorMatrix type="matrix" values="0 0 0 0 0 0 0 0 0 0 0 0 0 0 0 0 0 0 0.25 0"/>
<feBlend mode="normal" in2="BackgroundImageFix" result="effect1_dropShadow_3_64"/>
<feBlend mode="normal" in="SourceGraphic" in2="effect1_dropShadow_3_64" result="shape"/>
</filter>
<filter id="filter3_d_3_64" x="306.318" y="400.785" width="101.944" height="76.3271" filterUnits="userSpaceOnUse" color-interpolation-filters="sRGB">
<feFlood flood-opacity="0" result="BackgroundImageFix"/>
<feColorMatrix in="SourceAlpha" type="matrix" values="0 0 0 0 0 0 0 0 0 0 0 0 0 0 0 0 0 0 127 0" result="hardAlpha"/>
<feOffset dy="4"/>
<feGaussianBlur stdDeviation="2"/>
<feComposite in2="hardAlpha" operator="out"/>
<feColorMatrix type="matrix" values="0 0 0 0 0 0 0 0 0 0 0 0 0 0 0 0 0 0 0.25 0"/>
<feBlend mode="normal" in2="BackgroundImageFix" result="effect1_dropShadow_3_64"/>
<feBlend mode="normal" in="SourceGraphic" in2="effect1_dropShadow_3_64" result="shape"/>
</filter>
<filter id="filter4_d_3_64" x="417.341" y="298.314" width="195.89" height="195.89" filterUnits="userSpaceOnUse" color-interpolation-filters="sRGB">
<feFlood flood-opacity="0" result="BackgroundImageFix"/>
<feColorMatrix in="SourceAlpha" type="matrix" values="0 0 0 0 0 0 0 0 0 0 0 0 0 0 0 0 0 0 127 0" result="hardAlpha"/>
<feOffset dy="4"/>
<feGaussianBlur stdDeviation="2"/>
<feComposite in2="hardAlpha" operator="out"/>
<feColorMatrix type="matrix" values="0 0 0 0 0 0 0 0 0 0 0 0 0 0 0 0 0 0 0.25 0"/>
<feBlend mode="normal" in2="BackgroundImageFix" result="effect1_dropShadow_3_64"/>
<feBlend mode="normal" in="SourceGraphic" in2="effect1_dropShadow_3_64" result="shape"/>
</filter>
<filter id="filter5_d_3_64" x="417.354" y="366.641" width="76.3269" height="211.359" filterUnits="userSpaceOnUse" color-interpolation-filters="sRGB">
<feFlood flood-opacity="0" result="BackgroundImageFix"/>
<feColorMatrix in="SourceAlpha" type="matrix" values="0 0 0 0 0 0 0 0 0 0 0 0 0 0 0 0 0 0 127 0" result="hardAlpha"/>
<feOffset dy="4"/>
<feGaussianBlur stdDeviation="2"/>
<feComposite in2="hardAlpha" operator="out"/>
<feColorMatrix type="matrix" values="0 0 0 0 0 0 0 0 0 0 0 0 0 0 0 0 0 0 0.25 0"/>
<feBlend mode="normal" in2="BackgroundImageFix" result="effect1_dropShadow_3_64"/>
<feBlend mode="normal" in="SourceGraphic" in2="effect1_dropShadow_3_64" result="shape"/>
</filter>
<filter id="filter6_d_3_64" x="186.769" y="298.314" width="67.1599" height="76.3271" filterUnits="userSpaceOnUse" color-interpolation-filters="sRGB">
<feFlood flood-opacity="0" result="BackgroundImageFix"/>
<feColorMatrix in="SourceAlpha" type="matrix" values="0 0 0 0 0 0 0 0 0 0 0 0 0 0 0 0 0 0 127 0" result="hardAlpha"/>
<feOffset dy="4"/>
<feGaussianBlur stdDeviation="2"/>
<feComposite in2="hardAlpha" operator="out"/>
<feColorMatrix type="matrix" values="0 0 0 0 0 0 0 0 0 0 0 0 0 0 0 0 0 0 0.25 0"/>
<feBlend mode="normal" in2="BackgroundImageFix" result="effect1_dropShadow_3_64"/>
<feBlend mode="normal" in="SourceGraphic" in2="effect1_dropShadow_3_64" result="shape"/>
</filter>
</defs>
</svg>
