<svg width="376" height="375" viewBox="0 0 376 375" fill="none" xmlns="http://www.w3.org/2000/svg">
<g clip-path="url(#clip0_61_27639)">
<rect width="375" height="375" transform="translate(0.945312)" fill="#101010"/>
<rect x="0.945312" width="375" height="365" rx="8" fill="white"/>
<path d="M23.0889 36.333H19.793V34.4346H23.0889C23.6279 34.4346 24.0645 34.3467 24.3984 34.1709C24.7383 33.9893 24.9873 33.7432 25.1455 33.4326C25.3037 33.1162 25.3828 32.7559 25.3828 32.3516C25.3828 31.959 25.3037 31.5928 25.1455 31.2529C24.9873 30.9131 24.7383 30.6377 24.3984 30.4268C24.0645 30.2158 23.6279 30.1104 23.0889 30.1104H20.584V41H18.167V28.2031H23.0889C24.085 28.2031 24.9346 28.3818 25.6377 28.7393C26.3467 29.0908 26.8857 29.5801 27.2549 30.207C27.6299 30.8281 27.8174 31.5371 27.8174 32.334C27.8174 33.1602 27.6299 33.8721 27.2549 34.4697C26.8857 35.0674 26.3467 35.5273 25.6377 35.8496C24.9346 36.1719 24.085 36.333 23.0889 36.333ZM31.9064 27.5V41H29.5773V27.5H31.9064ZM31.5373 35.9023H30.8517C30.8517 35.2402 30.9396 34.6309 31.1154 34.0742C31.2912 33.5176 31.5402 33.0342 31.8625 32.624C32.1847 32.208 32.5685 31.8857 33.0138 31.6572C33.465 31.4287 33.963 31.3145 34.508 31.3145C34.9767 31.3145 35.4015 31.3818 35.7824 31.5166C36.1691 31.6455 36.5002 31.8535 36.7755 32.1406C37.0509 32.4277 37.2619 32.8027 37.4084 33.2656C37.5607 33.7227 37.6369 34.2793 37.6369 34.9355V41H35.299V34.918C35.299 34.4785 35.2345 34.1328 35.1056 33.8809C34.9767 33.623 34.7921 33.4385 34.5519 33.3271C34.3175 33.2158 34.0275 33.1602 33.6818 33.1602C33.3068 33.1602 32.9845 33.2334 32.715 33.3799C32.4455 33.5205 32.2228 33.7168 32.047 33.9688C31.8771 34.2207 31.7482 34.5107 31.6603 34.8389C31.5783 35.167 31.5373 35.5215 31.5373 35.9023ZM39.3616 36.3418V36.1572C39.3616 35.46 39.4613 34.8184 39.6605 34.2324C39.8597 33.6406 40.1497 33.1279 40.5306 32.6943C40.9114 32.2607 41.3773 31.9238 41.928 31.6836C42.4788 31.4375 43.1058 31.3145 43.8089 31.3145C44.5238 31.3145 45.1566 31.4375 45.7073 31.6836C46.264 31.9238 46.7327 32.2607 47.1136 32.6943C47.4945 33.1279 47.7845 33.6406 47.9837 34.2324C48.1829 34.8184 48.2825 35.46 48.2825 36.1572V36.3418C48.2825 37.0332 48.1829 37.6748 47.9837 38.2666C47.7845 38.8525 47.4945 39.3652 47.1136 39.8047C46.7327 40.2383 46.2669 40.5752 45.7161 40.8154C45.1654 41.0557 44.5355 41.1758 43.8265 41.1758C43.1234 41.1758 42.4935 41.0557 41.9368 40.8154C41.3802 40.5752 40.9114 40.2383 40.5306 39.8047C40.1497 39.3652 39.8597 38.8525 39.6605 38.2666C39.4613 37.6748 39.3616 37.0332 39.3616 36.3418ZM41.682 36.1572V36.3418C41.682 36.7578 41.723 37.1475 41.805 37.5107C41.887 37.874 42.013 38.1934 42.1829 38.4688C42.3529 38.7441 42.5726 38.9609 42.8421 39.1191C43.1175 39.2715 43.4456 39.3477 43.8265 39.3477C44.2015 39.3477 44.5238 39.2715 44.7933 39.1191C45.0628 38.9609 45.2825 38.7441 45.4525 38.4688C45.6282 38.1934 45.7571 37.874 45.8392 37.5107C45.9212 37.1475 45.9622 36.7578 45.9622 36.3418V36.1572C45.9622 35.7471 45.9212 35.3633 45.8392 35.0059C45.7571 34.6426 45.6282 34.3232 45.4525 34.0479C45.2825 33.7666 45.0599 33.5469 44.7845 33.3887C44.515 33.2246 44.1898 33.1426 43.8089 33.1426C43.4339 33.1426 43.1116 33.2246 42.8421 33.3887C42.5726 33.5469 42.3529 33.7666 42.1829 34.0479C42.013 34.3232 41.887 34.6426 41.805 35.0059C41.723 35.3633 41.682 35.7471 41.682 36.1572ZM54.56 31.4902V33.1602H49.1108V31.4902H54.56ZM50.5698 29.1523H52.8989V38.2578C52.8989 38.5391 52.937 38.7559 53.0132 38.9082C53.0893 39.0605 53.2036 39.1631 53.3559 39.2158C53.5083 39.2686 53.6899 39.2949 53.9009 39.2949C54.0532 39.2949 54.1938 39.2861 54.3227 39.2686C54.4516 39.251 54.56 39.2334 54.6479 39.2158L54.6567 40.9561C54.4634 41.0205 54.2436 41.0732 53.9975 41.1143C53.7573 41.1553 53.4848 41.1758 53.1802 41.1758C52.6587 41.1758 52.2016 41.0879 51.8091 40.9121C51.4165 40.7305 51.1118 40.4404 50.895 40.042C50.6782 39.6377 50.5698 39.1045 50.5698 38.4424V29.1523ZM55.5553 36.3418V36.1572C55.5553 35.46 55.6549 34.8184 55.8541 34.2324C56.0534 33.6406 56.3434 33.1279 56.7243 32.6943C57.1051 32.2607 57.5709 31.9238 58.1217 31.6836C58.6725 31.4375 59.2995 31.3145 60.0026 31.3145C60.7174 31.3145 61.3502 31.4375 61.901 31.6836C62.4577 31.9238 62.9264 32.2607 63.3073 32.6943C63.6881 33.1279 63.9782 33.6406 64.1774 34.2324C64.3766 34.8184 64.4762 35.46 64.4762 36.1572V36.3418C64.4762 37.0332 64.3766 37.6748 64.1774 38.2666C63.9782 38.8525 63.6881 39.3652 63.3073 39.8047C62.9264 40.2383 62.4606 40.5752 61.9098 40.8154C61.359 41.0557 60.7291 41.1758 60.0202 41.1758C59.317 41.1758 58.6871 41.0557 58.1305 40.8154C57.5739 40.5752 57.1051 40.2383 56.7243 39.8047C56.3434 39.3652 56.0534 38.8525 55.8541 38.2666C55.6549 37.6748 55.5553 37.0332 55.5553 36.3418ZM57.8756 36.1572V36.3418C57.8756 36.7578 57.9166 37.1475 57.9987 37.5107C58.0807 37.874 58.2067 38.1934 58.3766 38.4688C58.5465 38.7441 58.7663 38.9609 59.0358 39.1191C59.3112 39.2715 59.6393 39.3477 60.0202 39.3477C60.3952 39.3477 60.7174 39.2715 60.987 39.1191C61.2565 38.9609 61.4762 38.7441 61.6461 38.4688C61.8219 38.1934 61.9508 37.874 62.0329 37.5107C62.1149 37.1475 62.1559 36.7578 62.1559 36.3418V36.1572C62.1559 35.7471 62.1149 35.3633 62.0329 35.0059C61.9508 34.6426 61.8219 34.3232 61.6461 34.0479C61.4762 33.7666 61.2536 33.5469 60.9782 33.3887C60.7086 33.2246 60.3834 33.1426 60.0026 33.1426C59.6276 33.1426 59.3053 33.2246 59.0358 33.3887C58.7663 33.5469 58.5465 33.7666 58.3766 34.0479C58.2067 34.3232 58.0807 34.6426 57.9987 35.0059C57.9166 35.3633 57.8756 35.7471 57.8756 36.1572ZM70.413 36.3418V36.1572C70.413 35.46 70.5127 34.8184 70.7119 34.2324C70.9111 33.6406 71.2011 33.1279 71.582 32.6943C71.9629 32.2607 72.4287 31.9238 72.9795 31.6836C73.5302 31.4375 74.1572 31.3145 74.8603 31.3145C75.5752 31.3145 76.208 31.4375 76.7588 31.6836C77.3154 31.9238 77.7841 32.2607 78.165 32.6943C78.5459 33.1279 78.8359 33.6406 79.0351 34.2324C79.2343 34.8184 79.3339 35.46 79.3339 36.1572V36.3418C79.3339 37.0332 79.2343 37.6748 79.0351 38.2666C78.8359 38.8525 78.5459 39.3652 78.165 39.8047C77.7841 40.2383 77.3183 40.5752 76.7675 40.8154C76.2168 41.0557 75.5869 41.1758 74.8779 41.1758C74.1748 41.1758 73.5449 41.0557 72.9882 40.8154C72.4316 40.5752 71.9629 40.2383 71.582 39.8047C71.2011 39.3652 70.9111 38.8525 70.7119 38.2666C70.5127 37.6748 70.413 37.0332 70.413 36.3418ZM72.7334 36.1572V36.3418C72.7334 36.7578 72.7744 37.1475 72.8564 37.5107C72.9384 37.874 73.0644 38.1934 73.2343 38.4688C73.4043 38.7441 73.624 38.9609 73.8935 39.1191C74.1689 39.2715 74.497 39.3477 74.8779 39.3477C75.2529 39.3477 75.5752 39.2715 75.8447 39.1191C76.1142 38.9609 76.3339 38.7441 76.5039 38.4688C76.6796 38.1934 76.8086 37.874 76.8906 37.5107C76.9726 37.1475 77.0136 36.7578 77.0136 36.3418V36.1572C77.0136 35.7471 76.9726 35.3633 76.8906 35.0059C76.8086 34.6426 76.6796 34.3232 76.5039 34.0479C76.3339 33.7666 76.1113 33.5469 75.8359 33.3887C75.5664 33.2246 75.2412 33.1426 74.8603 33.1426C74.4853 33.1426 74.163 33.2246 73.8935 33.3887C73.624 33.5469 73.4043 33.7666 73.2343 34.0479C73.0644 34.3232 72.9384 34.6426 72.8564 35.0059C72.7744 35.3633 72.7334 35.7471 72.7334 36.1572ZM83.4318 33.3184V44.6562H81.1027V31.4902H83.256L83.4318 33.3184ZM89.5402 36.1484V36.333C89.5402 37.0244 89.4581 37.666 89.2941 38.2578C89.1359 38.8438 88.9015 39.3564 88.5909 39.7959C88.2804 40.2295 87.8937 40.5693 87.4308 40.8154C86.9738 41.0557 86.4464 41.1758 85.8488 41.1758C85.2628 41.1758 84.753 41.0645 84.3195 40.8418C83.8859 40.6133 83.5196 40.291 83.2208 39.875C82.922 39.459 82.6818 38.9756 82.5001 38.4248C82.3243 37.8682 82.1925 37.2617 82.1046 36.6055V36.0166C82.1925 35.3193 82.3243 34.6865 82.5001 34.1182C82.6818 33.5439 82.922 33.0488 83.2208 32.6328C83.5196 32.2109 83.8829 31.8857 84.3107 31.6572C84.7443 31.4287 85.2511 31.3145 85.8312 31.3145C86.4347 31.3145 86.965 31.4287 87.422 31.6572C87.8849 31.8857 88.2745 32.2139 88.5909 32.6416C88.9073 33.0693 89.1446 33.5791 89.3029 34.1709C89.4611 34.7627 89.5402 35.4219 89.5402 36.1484ZM87.2111 36.333V36.1484C87.2111 35.7266 87.173 35.3369 87.0968 34.9795C87.0206 34.6162 86.9034 34.2998 86.7452 34.0303C86.587 33.7549 86.382 33.541 86.13 33.3887C85.878 33.2363 85.5734 33.1602 85.2159 33.1602C84.8585 33.1602 84.5509 33.2188 84.2931 33.3359C84.0353 33.4531 83.8243 33.6201 83.6603 33.8369C83.4962 34.0537 83.3673 34.3115 83.2736 34.6104C83.1857 34.9033 83.1271 35.2285 83.0978 35.5859V37.0449C83.1505 37.4785 83.253 37.8682 83.4054 38.2139C83.5577 38.5596 83.7804 38.835 84.0734 39.04C84.3722 39.2451 84.7589 39.3477 85.2335 39.3477C85.5909 39.3477 85.8956 39.2686 86.1476 39.1104C86.3995 38.9521 86.6046 38.7354 86.7628 38.46C86.921 38.1787 87.0353 37.8564 87.1056 37.4932C87.1759 37.1299 87.2111 36.7432 87.2111 36.333ZM95.8264 31.4902V33.1602H90.3772V31.4902H95.8264ZM91.8362 29.1523H94.1653V38.2578C94.1653 38.5391 94.2034 38.7559 94.2796 38.9082C94.3557 39.0605 94.47 39.1631 94.6223 39.2158C94.7747 39.2686 94.9563 39.2949 95.1673 39.2949C95.3196 39.2949 95.4602 39.2861 95.5891 39.2686C95.718 39.251 95.8264 39.2334 95.9143 39.2158L95.9231 40.9561C95.7298 41.0205 95.51 41.0732 95.2639 41.1143C95.0237 41.1553 94.7513 41.1758 94.4466 41.1758C93.9251 41.1758 93.468 41.0879 93.0755 40.9121C92.6829 40.7305 92.3782 40.4404 92.1614 40.042C91.9446 39.6377 91.8362 39.1045 91.8362 38.4424V29.1523ZM99.9243 31.4902V41H97.5952V31.4902H99.9243ZM97.437 29.0029C97.437 28.6572 97.5541 28.3701 97.7885 28.1416C98.0287 27.9131 98.351 27.7988 98.7553 27.7988C99.1596 27.7988 99.4789 27.9131 99.7133 28.1416C99.9536 28.3701 100.074 28.6572 100.074 29.0029C100.074 29.3428 99.9536 29.627 99.7133 29.8555C99.4789 30.084 99.1596 30.1982 98.7553 30.1982C98.351 30.1982 98.0287 30.084 97.7885 29.8555C97.5541 29.627 97.437 29.3428 97.437 29.0029ZM101.816 36.3418V36.1572C101.816 35.46 101.916 34.8184 102.115 34.2324C102.314 33.6406 102.604 33.1279 102.985 32.6943C103.366 32.2607 103.832 31.9238 104.382 31.6836C104.933 31.4375 105.56 31.3145 106.263 31.3145C106.978 31.3145 107.611 31.4375 108.162 31.6836C108.718 31.9238 109.187 32.2607 109.568 32.6943C109.949 33.1279 110.239 33.6406 110.438 34.2324C110.637 34.8184 110.737 35.46 110.737 36.1572V36.3418C110.737 37.0332 110.637 37.6748 110.438 38.2666C110.239 38.8525 109.949 39.3652 109.568 39.8047C109.187 40.2383 108.721 40.5752 108.171 40.8154C107.62 41.0557 106.99 41.1758 106.281 41.1758C105.578 41.1758 104.948 41.0557 104.391 40.8154C103.835 40.5752 103.366 40.2383 102.985 39.8047C102.604 39.3652 102.314 38.8525 102.115 38.2666C101.916 37.6748 101.816 37.0332 101.816 36.3418ZM104.136 36.1572V36.3418C104.136 36.7578 104.177 37.1475 104.259 37.5107C104.341 37.874 104.467 38.1934 104.637 38.4688C104.807 38.7441 105.027 38.9609 105.296 39.1191C105.572 39.2715 105.9 39.3477 106.281 39.3477C106.656 39.3477 106.978 39.2715 107.248 39.1191C107.517 38.9609 107.737 38.7441 107.907 38.4688C108.083 38.1934 108.212 37.874 108.294 37.5107C108.376 37.1475 108.417 36.7578 108.417 36.3418V36.1572C108.417 35.7471 108.376 35.3633 108.294 35.0059C108.212 34.6426 108.083 34.3232 107.907 34.0479C107.737 33.7666 107.514 33.5469 107.239 33.3887C106.969 33.2246 106.644 33.1426 106.263 33.1426C105.888 33.1426 105.566 33.2246 105.296 33.3887C105.027 33.5469 104.807 33.7666 104.637 34.0479C104.467 34.3232 104.341 34.6426 104.259 35.0059C104.177 35.3633 104.136 35.7471 104.136 36.1572ZM114.791 33.5205V41H112.47V31.4902H114.65L114.791 33.5205ZM114.422 35.9023H113.736C113.742 35.2109 113.836 34.584 114.017 34.0215C114.199 33.459 114.454 32.9756 114.782 32.5713C115.116 32.167 115.511 31.8564 115.969 31.6396C116.426 31.4229 116.935 31.3145 117.498 31.3145C117.955 31.3145 118.368 31.3789 118.737 31.5078C119.106 31.6367 119.423 31.8418 119.686 32.123C119.956 32.4043 120.161 32.7734 120.302 33.2305C120.448 33.6816 120.521 34.2383 120.521 34.9004V41H118.183V34.8828C118.183 34.4492 118.119 34.1064 117.99 33.8545C117.867 33.6025 117.685 33.4238 117.445 33.3184C117.211 33.2129 116.921 33.1602 116.575 33.1602C116.218 33.1602 115.904 33.2334 115.635 33.3799C115.371 33.5205 115.148 33.7168 114.967 33.9688C114.791 34.2207 114.656 34.5107 114.562 34.8389C114.469 35.167 114.422 35.5215 114.422 35.9023ZM127.889 38.3984C127.889 38.1992 127.836 38.0205 127.73 37.8623C127.625 37.7041 127.426 37.5605 127.133 37.4316C126.846 37.2969 126.424 37.1709 125.867 37.0537C125.375 36.9482 124.921 36.8164 124.505 36.6582C124.089 36.5 123.731 36.3096 123.433 36.0869C123.134 35.8584 122.899 35.5918 122.729 35.2871C122.565 34.9766 122.483 34.6191 122.483 34.2148C122.483 33.8223 122.568 33.4531 122.738 33.1074C122.908 32.7559 123.154 32.4482 123.476 32.1846C123.799 31.915 124.191 31.7041 124.654 31.5518C125.117 31.3936 125.639 31.3145 126.219 31.3145C127.027 31.3145 127.722 31.4463 128.302 31.71C128.888 31.9736 129.336 32.3369 129.646 32.7998C129.957 33.2568 130.112 33.7725 130.112 34.3467H127.792C127.792 34.0947 127.733 33.8662 127.616 33.6611C127.505 33.4561 127.332 33.292 127.098 33.1689C126.863 33.04 126.567 32.9756 126.21 32.9756C125.888 32.9756 125.615 33.0283 125.393 33.1338C125.176 33.2393 125.012 33.377 124.9 33.5469C124.789 33.7168 124.733 33.9043 124.733 34.1094C124.733 34.2617 124.763 34.3994 124.821 34.5225C124.886 34.6396 124.988 34.748 125.129 34.8477C125.269 34.9473 125.46 35.0381 125.7 35.1201C125.946 35.2021 126.248 35.2812 126.605 35.3574C127.314 35.498 127.933 35.6855 128.46 35.9199C128.993 36.1484 129.409 36.4531 129.708 36.834C130.007 37.2148 130.156 37.7012 130.156 38.293C130.156 38.7148 130.065 39.1016 129.884 39.4531C129.702 39.7988 129.438 40.1006 129.093 40.3584C128.747 40.6162 128.334 40.8184 127.853 40.9648C127.373 41.1055 126.831 41.1758 126.227 41.1758C125.354 41.1758 124.616 41.0205 124.013 40.71C123.409 40.3936 122.952 39.9951 122.642 39.5146C122.331 39.0283 122.176 38.5244 122.176 38.0029H124.399C124.417 38.3721 124.517 38.668 124.698 38.8906C124.88 39.1133 125.108 39.2744 125.384 39.374C125.665 39.4678 125.961 39.5146 126.271 39.5146C126.623 39.5146 126.919 39.4678 127.159 39.374C127.399 39.2744 127.581 39.1426 127.704 38.9785C127.827 38.8086 127.889 38.6152 127.889 38.3984Z" fill="#333333"/>
<rect x="17.4453" y="69.5" width="343" height="55" rx="7.5" stroke="#7237FF"/>
<path d="M69.945 103.667C69.6783 103.667 69.4117 103.467 69.345 103.2L68.0783 99.3335C68.0783 99.2668 68.0117 99.1335 67.945 99.0668C67.8783 99.0002 67.8117 98.9335 67.6783 98.9335L63.8117 97.6668C63.4783 97.5335 63.2783 97.2668 63.2783 97.0002C63.2783 96.7335 63.4783 96.4668 63.745 96.4002L67.6117 95.1335C67.6783 95.1335 67.8117 95.0668 67.8783 95.0002C67.945 94.8668 68.0117 94.7335 68.0117 94.6668L69.2783 90.8002C69.4117 90.5335 69.6783 90.3335 69.945 90.3335C70.2117 90.3335 70.4783 90.5335 70.545 90.8002L71.8117 94.6668C71.8117 94.7335 71.8783 94.8668 71.945 94.9335C72.0117 95.0002 72.0783 95.0668 72.2117 95.0668L76.0783 96.3335C76.345 96.4002 76.545 96.6668 76.545 96.9335C76.545 97.2002 76.345 97.4668 76.0783 97.5335L72.2117 98.8002C72.145 98.8002 72.0117 98.8668 71.945 98.9335C71.8783 99.0002 71.8117 99.0668 71.8117 99.2002L70.545 103.067C70.4783 103.467 70.2117 103.667 69.945 103.667ZM66.0783 97.0002L68.0117 97.6668C68.2783 97.7335 68.6117 97.9335 68.8117 98.1335C69.0117 98.3335 69.2117 98.6002 69.2783 98.9335L69.945 100.867L70.6117 98.9335C70.6783 98.6668 70.8783 98.3335 71.0783 98.1335C71.2783 97.9335 71.545 97.7335 71.8783 97.6668L73.8117 97.0002L71.8783 96.3335C71.6117 96.2668 71.2783 96.0668 71.0783 95.8668C70.8783 95.6668 70.6783 95.4002 70.6117 95.0668L69.945 93.1335L69.2783 95.0668C69.2117 95.3335 69.0117 95.6668 68.8117 95.8668C68.6117 96.0668 68.345 96.2668 68.0117 96.3335L66.0783 97.0002Z" fill="#7237FF"/>
<path d="M65.2783 94.3335C64.8783 94.3335 64.6117 94.0668 64.6117 93.6668V91.0002C64.6117 90.6002 64.8783 90.3335 65.2783 90.3335C65.6783 90.3335 65.945 90.6002 65.945 91.0002V93.6668C65.945 94.0668 65.6783 94.3335 65.2783 94.3335Z" fill="#7237FF"/>
<path d="M74.6117 103.667C74.2117 103.667 73.945 103.4 73.945 103V100.333C73.945 99.9335 74.2117 99.6668 74.6117 99.6668C75.0117 99.6668 75.2783 99.9335 75.2783 100.333V103C75.2783 103.4 75.0117 103.667 74.6117 103.667Z" fill="#7237FF"/>
<path d="M66.6117 93.0002H63.945C63.545 93.0002 63.2783 92.7335 63.2783 92.3335C63.2783 91.9335 63.545 91.6668 63.945 91.6668H66.6117C67.0117 91.6668 67.2783 91.9335 67.2783 92.3335C67.2783 92.7335 67.0117 93.0002 66.6117 93.0002Z" fill="#7237FF"/>
<path d="M75.945 102.333H73.2783C72.8783 102.333 72.6117 102.067 72.6117 101.667C72.6117 101.267 72.8783 101 73.2783 101H75.945C76.345 101 76.6117 101.267 76.6117 101.667C76.6117 102.067 76.345 102.333 75.945 102.333Z" fill="#7237FF"/>
<path d="M95.8516 96.1875V100.531C95.6901 100.745 95.4375 100.979 95.0938 101.234C94.7552 101.484 94.3047 101.701 93.7422 101.883C93.1797 102.065 92.4792 102.156 91.6406 102.156C90.9271 102.156 90.2734 102.036 89.6797 101.797C89.0859 101.552 88.5729 101.195 88.1406 100.727C87.7135 100.258 87.3828 99.6875 87.1484 99.0156C86.9141 98.3385 86.7969 97.5677 86.7969 96.7031V95.9141C86.7969 95.0547 86.9036 94.2891 87.1172 93.6172C87.3359 92.9401 87.6484 92.3672 88.0547 91.8984C88.4609 91.4297 88.9505 91.0755 89.5234 90.8359C90.1016 90.5911 90.7552 90.4688 91.4844 90.4688C92.4167 90.4688 93.1875 90.625 93.7969 90.9375C94.4115 91.2448 94.8854 91.6719 95.2188 92.2188C95.5521 92.7656 95.763 93.3906 95.8516 94.0938H93.9297C93.8672 93.6979 93.7448 93.3438 93.5625 93.0312C93.3854 92.7188 93.1302 92.474 92.7969 92.2969C92.4688 92.1146 92.0417 92.0234 91.5156 92.0234C91.0625 92.0234 90.6641 92.1094 90.3203 92.2812C89.9766 92.4531 89.6901 92.7057 89.4609 93.0391C89.237 93.3724 89.0677 93.7786 88.9531 94.2578C88.8385 94.737 88.7812 95.2839 88.7812 95.8984V96.7031C88.7812 97.3281 88.8464 97.8828 88.9766 98.3672C89.112 98.8516 89.3047 99.2604 89.5547 99.5938C89.8099 99.9271 90.1198 100.18 90.4844 100.352C90.849 100.518 91.2604 100.602 91.7188 100.602C92.1667 100.602 92.5339 100.565 92.8203 100.492C93.1068 100.414 93.3333 100.323 93.5 100.219C93.6719 100.109 93.8047 100.005 93.8984 99.9062V97.6484H91.5312V96.1875H95.8516ZM101.562 102.156C100.938 102.156 100.372 102.055 99.8672 101.852C99.3672 101.643 98.9401 101.354 98.5859 100.984C98.237 100.615 97.9688 100.18 97.7812 99.6797C97.5938 99.1797 97.5 98.6406 97.5 98.0625V97.75C97.5 97.0885 97.5964 96.4896 97.7891 95.9531C97.9818 95.4167 98.25 94.9583 98.5938 94.5781C98.9375 94.1927 99.3438 93.8984 99.8125 93.6953C100.281 93.4922 100.789 93.3906 101.336 93.3906C101.94 93.3906 102.469 93.4922 102.922 93.6953C103.375 93.8984 103.75 94.1849 104.047 94.5547C104.349 94.9193 104.573 95.3542 104.719 95.8594C104.87 96.3646 104.945 96.9219 104.945 97.5312V98.3359H98.4141V96.9844H103.086V96.8359C103.076 96.4974 103.008 96.1797 102.883 95.8828C102.763 95.5859 102.578 95.3464 102.328 95.1641C102.078 94.9818 101.745 94.8906 101.328 94.8906C101.016 94.8906 100.737 94.9583 100.492 95.0938C100.253 95.224 100.052 95.4141 99.8906 95.6641C99.7292 95.9141 99.6042 96.2161 99.5156 96.5703C99.4323 96.9193 99.3906 97.3125 99.3906 97.75V98.0625C99.3906 98.4323 99.4401 98.776 99.5391 99.0938C99.6432 99.4062 99.7943 99.6797 99.9922 99.9141C100.19 100.148 100.43 100.333 100.711 100.469C100.992 100.599 101.312 100.664 101.672 100.664C102.125 100.664 102.529 100.573 102.883 100.391C103.237 100.208 103.544 99.9505 103.805 99.6172L104.797 100.578C104.615 100.844 104.378 101.099 104.086 101.344C103.794 101.583 103.438 101.779 103.016 101.93C102.599 102.081 102.115 102.156 101.562 102.156ZM108.281 95.3516V102H106.398V93.5469H108.172L108.281 95.3516ZM107.945 97.4609L107.336 97.4531C107.341 96.8542 107.424 96.3047 107.586 95.8047C107.753 95.3047 107.982 94.875 108.273 94.5156C108.57 94.1562 108.924 93.8802 109.336 93.6875C109.747 93.4896 110.206 93.3906 110.711 93.3906C111.117 93.3906 111.484 93.4479 111.812 93.5625C112.146 93.6719 112.43 93.8516 112.664 94.1016C112.904 94.3516 113.086 94.6771 113.211 95.0781C113.336 95.474 113.398 95.9609 113.398 96.5391V102H111.508V96.5312C111.508 96.125 111.448 95.8047 111.328 95.5703C111.214 95.3307 111.044 95.1615 110.82 95.0625C110.602 94.9583 110.328 94.9062 110 94.9062C109.677 94.9062 109.388 94.974 109.133 95.1094C108.878 95.2448 108.661 95.4297 108.484 95.6641C108.312 95.8984 108.18 96.1693 108.086 96.4766C107.992 96.7839 107.945 97.112 107.945 97.4609ZM119.047 102.156C118.422 102.156 117.857 102.055 117.352 101.852C116.852 101.643 116.424 101.354 116.07 100.984C115.721 100.615 115.453 100.18 115.266 99.6797C115.078 99.1797 114.984 98.6406 114.984 98.0625V97.75C114.984 97.0885 115.081 96.4896 115.273 95.9531C115.466 95.4167 115.734 94.9583 116.078 94.5781C116.422 94.1927 116.828 93.8984 117.297 93.6953C117.766 93.4922 118.273 93.3906 118.82 93.3906C119.424 93.3906 119.953 93.4922 120.406 93.6953C120.859 93.8984 121.234 94.1849 121.531 94.5547C121.833 94.9193 122.057 95.3542 122.203 95.8594C122.354 96.3646 122.43 96.9219 122.43 97.5312V98.3359H115.898V96.9844H120.57V96.8359C120.56 96.4974 120.492 96.1797 120.367 95.8828C120.247 95.5859 120.062 95.3464 119.812 95.1641C119.562 94.9818 119.229 94.8906 118.812 94.8906C118.5 94.8906 118.221 94.9583 117.977 95.0938C117.737 95.224 117.536 95.4141 117.375 95.6641C117.214 95.9141 117.089 96.2161 117 96.5703C116.917 96.9193 116.875 97.3125 116.875 97.75V98.0625C116.875 98.4323 116.924 98.776 117.023 99.0938C117.128 99.4062 117.279 99.6797 117.477 99.9141C117.674 100.148 117.914 100.333 118.195 100.469C118.477 100.599 118.797 100.664 119.156 100.664C119.609 100.664 120.013 100.573 120.367 100.391C120.721 100.208 121.029 99.9505 121.289 99.6172L122.281 100.578C122.099 100.844 121.862 101.099 121.57 101.344C121.279 101.583 120.922 101.779 120.5 101.93C120.083 102.081 119.599 102.156 119.047 102.156ZM125.789 95.1562V102H123.906V93.5469H125.703L125.789 95.1562ZM128.375 93.4922L128.359 95.2422C128.245 95.2214 128.12 95.2057 127.984 95.1953C127.854 95.1849 127.724 95.1797 127.594 95.1797C127.271 95.1797 126.987 95.2266 126.742 95.3203C126.497 95.4089 126.292 95.5391 126.125 95.7109C125.964 95.8776 125.839 96.0807 125.75 96.3203C125.661 96.5599 125.609 96.8281 125.594 97.125L125.164 97.1562C125.164 96.625 125.216 96.1328 125.32 95.6797C125.424 95.2266 125.581 94.8281 125.789 94.4844C126.003 94.1406 126.268 93.8724 126.586 93.6797C126.909 93.487 127.281 93.3906 127.703 93.3906C127.818 93.3906 127.94 93.401 128.07 93.4219C128.206 93.4427 128.307 93.4661 128.375 93.4922ZM134.039 100.305V96.2734C134.039 95.9714 133.984 95.7109 133.875 95.4922C133.766 95.2734 133.599 95.1042 133.375 94.9844C133.156 94.8646 132.88 94.8047 132.547 94.8047C132.24 94.8047 131.974 94.8568 131.75 94.9609C131.526 95.0651 131.352 95.2057 131.227 95.3828C131.102 95.5599 131.039 95.7604 131.039 95.9844H129.164C129.164 95.651 129.245 95.3281 129.406 95.0156C129.568 94.7031 129.802 94.4245 130.109 94.1797C130.417 93.9349 130.784 93.7422 131.211 93.6016C131.638 93.4609 132.117 93.3906 132.648 93.3906C133.284 93.3906 133.846 93.4974 134.336 93.7109C134.831 93.9245 135.219 94.2474 135.5 94.6797C135.786 95.1068 135.93 95.6432 135.93 96.2891V100.047C135.93 100.432 135.956 100.779 136.008 101.086C136.065 101.388 136.146 101.651 136.25 101.875V102H134.32C134.232 101.797 134.161 101.539 134.109 101.227C134.062 100.909 134.039 100.602 134.039 100.305ZM134.312 96.8594L134.328 98.0234H132.977C132.628 98.0234 132.32 98.0573 132.055 98.125C131.789 98.1875 131.568 98.2812 131.391 98.4062C131.214 98.5312 131.081 98.6823 130.992 98.8594C130.904 99.0365 130.859 99.237 130.859 99.4609C130.859 99.6849 130.911 99.8906 131.016 100.078C131.12 100.26 131.271 100.404 131.469 100.508C131.672 100.612 131.917 100.664 132.203 100.664C132.589 100.664 132.924 100.586 133.211 100.43C133.503 100.268 133.732 100.073 133.898 99.8438C134.065 99.6094 134.154 99.388 134.164 99.1797L134.773 100.016C134.711 100.229 134.604 100.458 134.453 100.703C134.302 100.948 134.104 101.182 133.859 101.406C133.62 101.625 133.331 101.805 132.992 101.945C132.659 102.086 132.273 102.156 131.836 102.156C131.284 102.156 130.792 102.047 130.359 101.828C129.927 101.604 129.589 101.305 129.344 100.93C129.099 100.549 128.977 100.12 128.977 99.6406C128.977 99.1927 129.06 98.7969 129.227 98.4531C129.398 98.1042 129.648 97.8125 129.977 97.5781C130.31 97.3438 130.716 97.1667 131.195 97.0469C131.674 96.9219 132.221 96.8594 132.836 96.8594H134.312ZM141.773 93.5469V94.9219H137.008V93.5469H141.773ZM138.383 91.4766H140.266V99.6641C140.266 99.9245 140.302 100.125 140.375 100.266C140.453 100.401 140.56 100.492 140.695 100.539C140.831 100.586 140.99 100.609 141.172 100.609C141.302 100.609 141.427 100.602 141.547 100.586C141.667 100.57 141.763 100.555 141.836 100.539L141.844 101.977C141.688 102.023 141.505 102.065 141.297 102.102C141.094 102.138 140.859 102.156 140.594 102.156C140.161 102.156 139.779 102.081 139.445 101.93C139.112 101.773 138.852 101.521 138.664 101.172C138.477 100.823 138.383 100.359 138.383 99.7812V91.4766ZM146.953 102.156C146.328 102.156 145.763 102.055 145.258 101.852C144.758 101.643 144.331 101.354 143.977 100.984C143.628 100.615 143.359 100.18 143.172 99.6797C142.984 99.1797 142.891 98.6406 142.891 98.0625V97.75C142.891 97.0885 142.987 96.4896 143.18 95.9531C143.372 95.4167 143.641 94.9583 143.984 94.5781C144.328 94.1927 144.734 93.8984 145.203 93.6953C145.672 93.4922 146.18 93.3906 146.727 93.3906C147.331 93.3906 147.859 93.4922 148.312 93.6953C148.766 93.8984 149.141 94.1849 149.438 94.5547C149.74 94.9193 149.964 95.3542 150.109 95.8594C150.26 96.3646 150.336 96.9219 150.336 97.5312V98.3359H143.805V96.9844H148.477V96.8359C148.466 96.4974 148.398 96.1797 148.273 95.8828C148.154 95.5859 147.969 95.3464 147.719 95.1641C147.469 94.9818 147.135 94.8906 146.719 94.8906C146.406 94.8906 146.128 94.9583 145.883 95.0938C145.643 95.224 145.443 95.4141 145.281 95.6641C145.12 95.9141 144.995 96.2161 144.906 96.5703C144.823 96.9193 144.781 97.3125 144.781 97.75V98.0625C144.781 98.4323 144.831 98.776 144.93 99.0938C145.034 99.4062 145.185 99.6797 145.383 99.9141C145.581 100.148 145.82 100.333 146.102 100.469C146.383 100.599 146.703 100.664 147.062 100.664C147.516 100.664 147.919 100.573 148.273 100.391C148.628 100.208 148.935 99.9505 149.195 99.6172L150.188 100.578C150.005 100.844 149.768 101.099 149.477 101.344C149.185 101.583 148.828 101.779 148.406 101.93C147.99 102.081 147.505 102.156 146.953 102.156ZM158.086 100.125L160.039 93.5469H161.242L160.914 95.5156L158.945 102H157.867L158.086 100.125ZM156.938 93.5469L158.461 100.156L158.586 102H157.383L155.094 93.5469H156.938ZM163.07 100.078L164.547 93.5469H166.383L164.102 102H162.898L163.07 100.078ZM161.445 93.5469L163.375 100.047L163.617 102H162.539L160.547 95.5078L160.219 93.5469H161.445ZM169.68 93.5469V102H167.789V93.5469H169.68ZM167.664 91.3281C167.664 91.0417 167.758 90.8047 167.945 90.6172C168.138 90.4245 168.404 90.3281 168.742 90.3281C169.076 90.3281 169.339 90.4245 169.531 90.6172C169.724 90.8047 169.82 91.0417 169.82 91.3281C169.82 91.6094 169.724 91.8438 169.531 92.0312C169.339 92.2188 169.076 92.3125 168.742 92.3125C168.404 92.3125 168.138 92.2188 167.945 92.0312C167.758 91.8438 167.664 91.6094 167.664 91.3281ZM175.617 93.5469V94.9219H170.852V93.5469H175.617ZM172.227 91.4766H174.109V99.6641C174.109 99.9245 174.146 100.125 174.219 100.266C174.297 100.401 174.404 100.492 174.539 100.539C174.674 100.586 174.833 100.609 175.016 100.609C175.146 100.609 175.271 100.602 175.391 100.586C175.51 100.57 175.607 100.555 175.68 100.539L175.688 101.977C175.531 102.023 175.349 102.065 175.141 102.102C174.938 102.138 174.703 102.156 174.438 102.156C174.005 102.156 173.622 102.081 173.289 101.93C172.956 101.773 172.695 101.521 172.508 101.172C172.32 100.823 172.227 100.359 172.227 99.7812V91.4766ZM178.93 90V102H177.055V90H178.93ZM178.602 97.4609L177.992 97.4531C177.997 96.8698 178.078 96.3307 178.234 95.8359C178.396 95.3411 178.62 94.9115 178.906 94.5469C179.198 94.1771 179.547 93.8932 179.953 93.6953C180.359 93.4922 180.81 93.3906 181.305 93.3906C181.721 93.3906 182.096 93.4479 182.43 93.5625C182.768 93.6771 183.06 93.862 183.305 94.1172C183.549 94.3672 183.734 94.6953 183.859 95.1016C183.99 95.5026 184.055 95.9922 184.055 96.5703V102H182.164V96.5547C182.164 96.1484 182.104 95.8255 181.984 95.5859C181.87 95.3464 181.701 95.1745 181.477 95.0703C181.253 94.9609 180.979 94.9062 180.656 94.9062C180.318 94.9062 180.018 94.974 179.758 95.1094C179.503 95.2448 179.289 95.4297 179.117 95.6641C178.945 95.8984 178.815 96.1693 178.727 96.4766C178.643 96.7839 178.602 97.112 178.602 97.4609ZM197.648 95.375V96.9297H191.609V95.375H197.648ZM192.094 90.625V102H190.133V90.625H192.094ZM199.156 90.625V102H197.203V90.625H199.156ZM205.031 102.156C204.406 102.156 203.841 102.055 203.336 101.852C202.836 101.643 202.409 101.354 202.055 100.984C201.706 100.615 201.438 100.18 201.25 99.6797C201.062 99.1797 200.969 98.6406 200.969 98.0625V97.75C200.969 97.0885 201.065 96.4896 201.258 95.9531C201.451 95.4167 201.719 94.9583 202.062 94.5781C202.406 94.1927 202.812 93.8984 203.281 93.6953C203.75 93.4922 204.258 93.3906 204.805 93.3906C205.409 93.3906 205.938 93.4922 206.391 93.6953C206.844 93.8984 207.219 94.1849 207.516 94.5547C207.818 94.9193 208.042 95.3542 208.188 95.8594C208.339 96.3646 208.414 96.9219 208.414 97.5312V98.3359H201.883V96.9844H206.555V96.8359C206.544 96.4974 206.477 96.1797 206.352 95.8828C206.232 95.5859 206.047 95.3464 205.797 95.1641C205.547 94.9818 205.214 94.8906 204.797 94.8906C204.484 94.8906 204.206 94.9583 203.961 95.0938C203.721 95.224 203.521 95.4141 203.359 95.6641C203.198 95.9141 203.073 96.2161 202.984 96.5703C202.901 96.9193 202.859 97.3125 202.859 97.75V98.0625C202.859 98.4323 202.909 98.776 203.008 99.0938C203.112 99.4062 203.263 99.6797 203.461 99.9141C203.659 100.148 203.898 100.333 204.18 100.469C204.461 100.599 204.781 100.664 205.141 100.664C205.594 100.664 205.997 100.573 206.352 100.391C206.706 100.208 207.013 99.9505 207.273 99.6172L208.266 100.578C208.083 100.844 207.846 101.099 207.555 101.344C207.263 101.583 206.906 101.779 206.484 101.93C206.068 102.081 205.583 102.156 205.031 102.156ZM212.227 101.078L214.523 93.5469H216.539L213.148 103.289C213.07 103.497 212.969 103.724 212.844 103.969C212.719 104.214 212.555 104.445 212.352 104.664C212.154 104.888 211.906 105.068 211.609 105.203C211.312 105.344 210.953 105.414 210.531 105.414C210.365 105.414 210.203 105.398 210.047 105.367C209.896 105.341 209.753 105.312 209.617 105.281L209.609 103.844C209.661 103.849 209.724 103.854 209.797 103.859C209.875 103.865 209.938 103.867 209.984 103.867C210.297 103.867 210.557 103.828 210.766 103.75C210.974 103.677 211.143 103.557 211.273 103.391C211.409 103.224 211.523 103 211.617 102.719L212.227 101.078ZM210.93 93.5469L212.938 99.875L213.273 101.859L211.969 102.195L208.898 93.5469H210.93ZM219.633 90V102H217.742V90H219.633ZM221.336 97.8672V97.6875C221.336 97.0781 221.424 96.513 221.602 95.9922C221.779 95.4661 222.034 95.0104 222.367 94.625C222.706 94.2344 223.117 93.9323 223.602 93.7188C224.091 93.5 224.643 93.3906 225.258 93.3906C225.878 93.3906 226.43 93.5 226.914 93.7188C227.404 93.9323 227.818 94.2344 228.156 94.625C228.495 95.0104 228.753 95.4661 228.93 95.9922C229.107 96.513 229.195 97.0781 229.195 97.6875V97.8672C229.195 98.4766 229.107 99.0417 228.93 99.5625C228.753 100.083 228.495 100.539 228.156 100.93C227.818 101.315 227.406 101.617 226.922 101.836C226.438 102.049 225.888 102.156 225.273 102.156C224.654 102.156 224.099 102.049 223.609 101.836C223.125 101.617 222.714 101.315 222.375 100.93C222.036 100.539 221.779 100.083 221.602 99.5625C221.424 99.0417 221.336 98.4766 221.336 97.8672ZM223.219 97.6875V97.8672C223.219 98.2474 223.258 98.6068 223.336 98.9453C223.414 99.2839 223.536 99.5807 223.703 99.8359C223.87 100.091 224.083 100.292 224.344 100.438C224.604 100.583 224.914 100.656 225.273 100.656C225.622 100.656 225.924 100.583 226.18 100.438C226.44 100.292 226.654 100.091 226.82 99.8359C226.987 99.5807 227.109 99.2839 227.188 98.9453C227.271 98.6068 227.312 98.2474 227.312 97.8672V97.6875C227.312 97.3125 227.271 96.9583 227.188 96.625C227.109 96.2865 226.984 95.987 226.812 95.7266C226.646 95.4661 226.432 95.263 226.172 95.1172C225.917 94.9661 225.612 94.8906 225.258 94.8906C224.904 94.8906 224.596 94.9661 224.336 95.1172C224.081 95.263 223.87 95.4661 223.703 95.7266C223.536 95.987 223.414 96.2865 223.336 96.625C223.258 96.9583 223.219 97.3125 223.219 97.6875ZM239.375 92.1406L235.977 102H233.922L238.203 90.625H239.516L239.375 92.1406ZM242.219 102L238.812 92.1406L238.664 90.625H239.984L244.281 102H242.219ZM242.055 97.7812V99.3359H235.867V97.7812H242.055ZM247.648 90.625V102H245.688V90.625H247.648Z" fill="#7237FF"/>
<rect x="256.945" y="85" width="59" height="24" rx="12" fill="url(#paint0_linear_61_27639)"/>
<g clip-path="url(#clip1_61_27639)">
<path fill-rule="evenodd" clip-rule="evenodd" d="M264.873 98.8675C265.173 98.6151 265.555 98.4823 265.947 98.4944C266.339 98.5065 266.712 98.6628 266.996 98.9334L267.002 98.9393C267.596 99.526 267.588 100.468 267.078 101.072C266.856 101.336 266.551 101.529 266.258 101.672C265.959 101.818 265.636 101.929 265.347 102.012C265.055 102.095 264.786 102.153 264.591 102.191C264.492 102.209 264.412 102.223 264.355 102.232C264.327 102.236 264.304 102.24 264.288 102.242L264.27 102.245L264.264 102.245L264.263 102.246L264.262 102.246C264.262 102.246 264.262 102.246 264.195 101.75C263.7 101.684 263.7 101.684 263.7 101.684L263.7 101.683L263.7 101.681L263.701 101.676L263.703 101.657C263.706 101.641 263.709 101.619 263.714 101.59C263.723 101.533 263.736 101.453 263.755 101.355C263.792 101.159 263.85 100.89 263.933 100.599C264.016 100.309 264.127 99.9862 264.273 99.6871C264.417 99.3938 264.61 99.0889 264.873 98.8675ZM264.195 101.75L263.7 101.684C263.679 101.838 263.732 101.994 263.842 102.104C263.952 102.214 264.108 102.266 264.262 102.246L264.195 101.75ZM264.831 101.115C264.908 101.096 264.989 101.074 265.072 101.051C265.328 100.977 265.591 100.885 265.819 100.774C266.054 100.659 266.219 100.54 266.312 100.429L266.313 100.427C266.511 100.193 266.495 99.8475 266.302 99.6538C266.197 99.5553 266.06 99.4983 265.916 99.4939C265.771 99.4894 265.629 99.5387 265.518 99.6325L265.517 99.633C265.405 99.7266 265.286 99.8915 265.172 100.126C265.06 100.355 264.968 100.618 264.895 100.874C264.871 100.957 264.85 101.037 264.831 101.115Z" fill="white"/>
<path fill-rule="evenodd" clip-rule="evenodd" d="M273.425 92.5195C272.591 92.5871 271.779 92.8303 271.043 93.2353C270.155 93.7236 269.407 94.4311 268.869 95.2903L268.866 95.2947C268.544 95.7987 268.265 96.3292 268.033 96.8804L269.066 97.914C269.624 97.6824 270.161 97.4038 270.672 97.0811C272.785 95.662 273.323 93.8065 273.425 92.5195ZM270.561 92.3591C271.598 91.7885 272.764 91.4928 273.948 91.5001C274.223 91.5018 274.445 91.7252 274.445 92.0001C274.445 93.4582 274.021 96.04 271.224 97.9154C271.22 97.9179 271.216 97.9203 271.213 97.9227C270.553 98.34 269.853 98.69 269.123 98.9675C268.939 99.0375 268.731 98.9929 268.592 98.8537L267.092 97.3537C266.952 97.2139 266.908 97.0048 266.979 96.8203C267.257 96.0994 267.606 95.4084 268.023 94.7577C268.651 93.7549 269.524 92.9292 270.561 92.3591Z" fill="white"/>
<path fill-rule="evenodd" clip-rule="evenodd" d="M266.724 95.2702C266.496 95.2913 266.33 95.3444 266.223 95.4159C266.006 95.5616 265.8 95.9212 265.643 96.3525C265.625 96.4027 265.608 96.4521 265.593 96.5001H267.445C267.721 96.5001 267.945 96.724 267.945 97.0001C267.945 97.2763 267.721 97.5001 267.445 97.5001H264.945C264.797 97.5001 264.656 97.4343 264.561 97.3206C264.466 97.2068 264.427 97.0567 264.453 96.9108L264.945 97.0001C264.453 96.9108 264.453 96.9109 264.453 96.9108L264.454 96.9098L264.454 96.9081L264.455 96.9033L264.458 96.8871C264.46 96.8736 264.464 96.8547 264.469 96.8309C264.479 96.7835 264.494 96.7166 264.514 96.6355C264.554 96.4739 264.616 96.2518 264.703 96.0115C264.866 95.5643 265.16 94.924 265.667 94.5845L265.668 94.5841C265.965 94.3858 266.314 94.3039 266.631 94.2745C266.953 94.2446 267.279 94.2652 267.563 94.3017C267.849 94.3385 268.104 94.3934 268.288 94.4387C268.381 94.4615 268.456 94.4821 268.509 94.4974C268.536 94.505 268.557 94.5113 268.572 94.5158L268.589 94.5213L268.595 94.5229L268.596 94.5235L268.597 94.5237C268.597 94.5237 268.597 94.5238 268.445 95.0001L268.597 94.5238C268.861 94.6079 269.006 94.8893 268.922 95.1523C268.838 95.4152 268.556 95.5603 268.294 95.4766L268.293 95.4764L268.292 95.4759L268.281 95.4726C268.27 95.4695 268.254 95.4647 268.233 95.4586C268.191 95.4464 268.128 95.4291 268.049 95.4096C267.89 95.3706 267.673 95.3242 267.435 95.2935C267.195 95.2626 266.947 95.2494 266.724 95.2702ZM265.437 97.0899C265.437 97.09 265.437 97.09 265.437 97.0899Z" fill="white"/>
<path fill-rule="evenodd" clip-rule="evenodd" d="M270.793 97.0238C271.056 96.9398 271.338 97.0849 271.422 97.3479L270.945 97.5001C271.422 97.3479 271.422 97.3478 271.422 97.3479L271.422 97.3491L271.422 97.3508L271.424 97.3561L271.43 97.3739C271.434 97.3888 271.44 97.4099 271.448 97.4364C271.463 97.4895 271.484 97.5648 271.507 97.6571C271.552 97.841 271.607 98.0968 271.644 98.3825C271.68 98.6662 271.701 98.9927 271.671 99.3141C271.641 99.6311 271.56 99.98 271.361 100.277L271.361 100.278C271.021 100.786 270.381 101.08 269.934 101.242C269.694 101.329 269.472 101.391 269.31 101.431C269.229 101.451 269.162 101.466 269.115 101.476C269.091 101.481 269.072 101.485 269.058 101.488L269.042 101.491L269.037 101.492L269.036 101.492L269.035 101.492C269.035 101.492 269.035 101.492 268.945 101L269.035 101.492C268.889 101.518 268.739 101.479 268.625 101.384C268.511 101.289 268.445 101.148 268.445 101V98.5001C268.445 98.224 268.669 98.0001 268.945 98.0001C269.221 98.0001 269.445 98.224 269.445 98.5001V100.353C269.493 100.337 269.543 100.32 269.593 100.302C270.024 100.146 270.384 99.9399 270.529 99.7225C270.601 99.6149 270.654 99.4489 270.675 99.2215C270.696 98.9982 270.683 98.7503 270.652 98.5103C270.621 98.2722 270.575 98.0549 270.536 97.8965C270.516 97.8178 270.499 97.7547 270.487 97.7122C270.481 97.691 270.476 97.6749 270.473 97.6647L270.47 97.6539L270.469 97.6523C270.385 97.3893 270.53 97.1079 270.793 97.0238Z" fill="white"/>
</g>
<path d="M288.58 92.4688V101H287.109L283.283 94.8887V101H281.812V92.4688H283.283L287.121 98.5918V92.4688H288.58ZM296.096 99.834V101H291.567V99.834H296.096ZM291.983 92.4688V101H290.512V92.4688H291.983ZM295.504 96.0312V97.1797H291.567V96.0312H295.504ZM296.067 92.4688V93.6406H291.567V92.4688H296.067ZM299.616 99.084L301.315 92.4688H302.206L302.106 94.1738L300.29 101H299.364L299.616 99.084ZM298.344 92.4688L299.721 99.0312L299.844 101H298.86L296.885 92.4688H298.344ZM304.133 99.0137L305.493 92.4688H306.958L304.983 101H303.999L304.133 99.0137ZM302.551 92.4688L304.233 99.1016L304.479 101H303.553L301.766 94.1738L301.672 92.4688H302.551Z" fill="white"/>
<rect x="17.4453" y="141.5" width="343" height="55" rx="7.5" stroke="#7237FF"/>
<g clip-path="url(#clip2_61_27639)">
<path d="M148.845 164.933C148.512 164.533 147.979 164.333 147.445 164.333H145.112L143.979 162.6C143.845 162.467 143.645 162.333 143.445 162.333H139.445C139.245 162.333 139.045 162.467 138.912 162.6L137.779 164.333H135.445C134.912 164.333 134.379 164.533 134.045 164.933C133.645 165.267 133.445 165.8 133.445 166.333V173.667C133.445 174.2 133.645 174.733 134.045 175.067C134.379 175.467 134.912 175.667 135.445 175.667H147.445C147.979 175.667 148.512 175.467 148.845 175.067C149.179 174.667 149.445 174.2 149.445 173.667V166.333C149.445 165.8 149.245 165.267 148.845 164.933ZM148.112 173.667C148.112 173.867 148.045 174 147.912 174.133C147.779 174.267 147.645 174.333 147.445 174.333H135.445C135.245 174.333 135.112 174.267 134.979 174.133C134.845 174 134.779 173.867 134.779 173.667V166.333C134.779 166.133 134.845 166 134.979 165.867C135.112 165.733 135.245 165.667 135.445 165.667H138.112C138.312 165.667 138.512 165.533 138.645 165.4L139.779 163.667H143.045L144.179 165.4C144.379 165.533 144.579 165.667 144.779 165.667H147.445C147.645 165.667 147.779 165.733 147.912 165.867C148.045 166 148.112 166.133 148.112 166.333V173.667Z" fill="#7237FF"/>
<path d="M141.445 166.333C139.579 166.333 138.112 167.8 138.112 169.667C138.112 171.533 139.579 173 141.445 173C143.312 173 144.779 171.533 144.779 169.667C144.779 167.8 143.312 166.333 141.445 166.333ZM141.445 171.667C140.312 171.667 139.445 170.8 139.445 169.667C139.445 168.533 140.312 167.667 141.445 167.667C142.579 167.667 143.445 168.533 143.445 169.667C143.445 170.8 142.579 171.667 141.445 171.667Z" fill="#7237FF"/>
</g>
<path d="M165.055 162.625H167.008V170.227C167.008 171.091 166.82 171.815 166.445 172.398C166.07 172.982 165.56 173.422 164.914 173.719C164.273 174.01 163.557 174.156 162.766 174.156C161.948 174.156 161.219 174.01 160.578 173.719C159.938 173.422 159.432 172.982 159.062 172.398C158.698 171.815 158.516 171.091 158.516 170.227V162.625H160.469V170.227C160.469 170.773 160.562 171.224 160.75 171.578C160.938 171.927 161.203 172.185 161.547 172.352C161.891 172.518 162.297 172.602 162.766 172.602C163.234 172.602 163.638 172.518 163.977 172.352C164.32 172.185 164.586 171.927 164.773 171.578C164.961 171.224 165.055 170.773 165.055 170.227V162.625ZM173.695 171.711C173.695 171.523 173.648 171.354 173.555 171.203C173.461 171.047 173.281 170.906 173.016 170.781C172.755 170.656 172.37 170.542 171.859 170.438C171.411 170.339 171 170.221 170.625 170.086C170.255 169.945 169.938 169.776 169.672 169.578C169.406 169.38 169.201 169.146 169.055 168.875C168.909 168.604 168.836 168.292 168.836 167.938C168.836 167.594 168.911 167.268 169.062 166.961C169.214 166.654 169.43 166.383 169.711 166.148C169.992 165.914 170.333 165.729 170.734 165.594C171.141 165.458 171.594 165.391 172.094 165.391C172.802 165.391 173.409 165.51 173.914 165.75C174.424 165.984 174.815 166.305 175.086 166.711C175.357 167.112 175.492 167.565 175.492 168.07H173.609C173.609 167.846 173.552 167.638 173.438 167.445C173.328 167.247 173.161 167.089 172.938 166.969C172.714 166.844 172.432 166.781 172.094 166.781C171.771 166.781 171.503 166.833 171.289 166.938C171.081 167.036 170.924 167.167 170.82 167.328C170.721 167.49 170.672 167.667 170.672 167.859C170.672 168 170.698 168.128 170.75 168.242C170.807 168.352 170.901 168.453 171.031 168.547C171.161 168.635 171.339 168.719 171.562 168.797C171.792 168.875 172.078 168.951 172.422 169.023C173.068 169.159 173.622 169.333 174.086 169.547C174.555 169.755 174.914 170.026 175.164 170.359C175.414 170.688 175.539 171.104 175.539 171.609C175.539 171.984 175.458 172.328 175.297 172.641C175.141 172.948 174.911 173.216 174.609 173.445C174.307 173.669 173.945 173.844 173.523 173.969C173.107 174.094 172.638 174.156 172.117 174.156C171.352 174.156 170.703 174.021 170.172 173.75C169.641 173.474 169.237 173.122 168.961 172.695C168.69 172.263 168.555 171.815 168.555 171.352H170.375C170.396 171.701 170.492 171.979 170.664 172.188C170.841 172.391 171.06 172.539 171.32 172.633C171.586 172.721 171.859 172.766 172.141 172.766C172.479 172.766 172.763 172.721 172.992 172.633C173.221 172.539 173.396 172.414 173.516 172.258C173.635 172.096 173.695 171.914 173.695 171.711ZM180.914 174.156C180.289 174.156 179.724 174.055 179.219 173.852C178.719 173.643 178.292 173.354 177.938 172.984C177.589 172.615 177.32 172.18 177.133 171.68C176.945 171.18 176.852 170.641 176.852 170.062V169.75C176.852 169.089 176.948 168.49 177.141 167.953C177.333 167.417 177.602 166.958 177.945 166.578C178.289 166.193 178.695 165.898 179.164 165.695C179.633 165.492 180.141 165.391 180.688 165.391C181.292 165.391 181.82 165.492 182.273 165.695C182.727 165.898 183.102 166.185 183.398 166.555C183.701 166.919 183.924 167.354 184.07 167.859C184.221 168.365 184.297 168.922 184.297 169.531V170.336H177.766V168.984H182.438V168.836C182.427 168.497 182.359 168.18 182.234 167.883C182.115 167.586 181.93 167.346 181.68 167.164C181.43 166.982 181.096 166.891 180.68 166.891C180.367 166.891 180.089 166.958 179.844 167.094C179.604 167.224 179.404 167.414 179.242 167.664C179.081 167.914 178.956 168.216 178.867 168.57C178.784 168.919 178.742 169.312 178.742 169.75V170.062C178.742 170.432 178.792 170.776 178.891 171.094C178.995 171.406 179.146 171.68 179.344 171.914C179.542 172.148 179.781 172.333 180.062 172.469C180.344 172.599 180.664 172.664 181.023 172.664C181.477 172.664 181.88 172.573 182.234 172.391C182.589 172.208 182.896 171.951 183.156 171.617L184.148 172.578C183.966 172.844 183.729 173.099 183.438 173.344C183.146 173.583 182.789 173.779 182.367 173.93C181.951 174.081 181.466 174.156 180.914 174.156ZM196.656 170.297H198.609C198.547 171.042 198.339 171.706 197.984 172.289C197.63 172.867 197.133 173.323 196.492 173.656C195.852 173.99 195.073 174.156 194.156 174.156C193.453 174.156 192.82 174.031 192.258 173.781C191.695 173.526 191.214 173.167 190.812 172.703C190.411 172.234 190.104 171.669 189.891 171.008C189.682 170.346 189.578 169.607 189.578 168.789V167.844C189.578 167.026 189.685 166.286 189.898 165.625C190.117 164.964 190.43 164.398 190.836 163.93C191.242 163.456 191.729 163.094 192.297 162.844C192.87 162.594 193.513 162.469 194.227 162.469C195.133 162.469 195.898 162.635 196.523 162.969C197.148 163.302 197.633 163.763 197.977 164.352C198.326 164.94 198.539 165.615 198.617 166.375H196.664C196.612 165.885 196.497 165.466 196.32 165.117C196.148 164.768 195.893 164.503 195.555 164.32C195.216 164.133 194.773 164.039 194.227 164.039C193.779 164.039 193.388 164.122 193.055 164.289C192.721 164.456 192.443 164.701 192.219 165.023C191.995 165.346 191.826 165.745 191.711 166.219C191.602 166.688 191.547 167.224 191.547 167.828V168.789C191.547 169.362 191.596 169.883 191.695 170.352C191.799 170.815 191.956 171.214 192.164 171.547C192.378 171.88 192.648 172.138 192.977 172.32C193.305 172.503 193.698 172.594 194.156 172.594C194.714 172.594 195.164 172.505 195.508 172.328C195.857 172.151 196.12 171.893 196.297 171.555C196.479 171.211 196.599 170.792 196.656 170.297ZM204.969 172.305V168.273C204.969 167.971 204.914 167.711 204.805 167.492C204.695 167.273 204.529 167.104 204.305 166.984C204.086 166.865 203.81 166.805 203.477 166.805C203.169 166.805 202.904 166.857 202.68 166.961C202.456 167.065 202.281 167.206 202.156 167.383C202.031 167.56 201.969 167.76 201.969 167.984H200.094C200.094 167.651 200.174 167.328 200.336 167.016C200.497 166.703 200.732 166.424 201.039 166.18C201.346 165.935 201.714 165.742 202.141 165.602C202.568 165.461 203.047 165.391 203.578 165.391C204.214 165.391 204.776 165.497 205.266 165.711C205.76 165.924 206.148 166.247 206.43 166.68C206.716 167.107 206.859 167.643 206.859 168.289V172.047C206.859 172.432 206.885 172.779 206.938 173.086C206.995 173.388 207.076 173.651 207.18 173.875V174H205.25C205.161 173.797 205.091 173.539 205.039 173.227C204.992 172.909 204.969 172.602 204.969 172.305ZM205.242 168.859L205.258 170.023H203.906C203.557 170.023 203.25 170.057 202.984 170.125C202.719 170.188 202.497 170.281 202.32 170.406C202.143 170.531 202.01 170.682 201.922 170.859C201.833 171.036 201.789 171.237 201.789 171.461C201.789 171.685 201.841 171.891 201.945 172.078C202.049 172.26 202.201 172.404 202.398 172.508C202.602 172.612 202.846 172.664 203.133 172.664C203.518 172.664 203.854 172.586 204.141 172.43C204.432 172.268 204.661 172.073 204.828 171.844C204.995 171.609 205.083 171.388 205.094 171.18L205.703 172.016C205.641 172.229 205.534 172.458 205.383 172.703C205.232 172.948 205.034 173.182 204.789 173.406C204.549 173.625 204.26 173.805 203.922 173.945C203.589 174.086 203.203 174.156 202.766 174.156C202.214 174.156 201.721 174.047 201.289 173.828C200.857 173.604 200.518 173.305 200.273 172.93C200.029 172.549 199.906 172.12 199.906 171.641C199.906 171.193 199.99 170.797 200.156 170.453C200.328 170.104 200.578 169.812 200.906 169.578C201.24 169.344 201.646 169.167 202.125 169.047C202.604 168.922 203.151 168.859 203.766 168.859H205.242ZM210.711 167.266V174H208.828V165.547H210.602L210.711 167.266ZM210.406 169.461L209.766 169.453C209.766 168.87 209.839 168.331 209.984 167.836C210.13 167.341 210.344 166.911 210.625 166.547C210.906 166.177 211.255 165.893 211.672 165.695C212.094 165.492 212.581 165.391 213.133 165.391C213.518 165.391 213.87 165.448 214.188 165.562C214.51 165.672 214.789 165.846 215.023 166.086C215.263 166.326 215.445 166.633 215.57 167.008C215.701 167.383 215.766 167.836 215.766 168.367V174H213.883V168.531C213.883 168.12 213.82 167.797 213.695 167.562C213.576 167.328 213.401 167.161 213.172 167.062C212.948 166.958 212.68 166.906 212.367 166.906C212.013 166.906 211.711 166.974 211.461 167.109C211.216 167.245 211.016 167.43 210.859 167.664C210.703 167.898 210.589 168.169 210.516 168.477C210.443 168.784 210.406 169.112 210.406 169.461ZM215.648 168.961L214.766 169.156C214.766 168.646 214.836 168.164 214.977 167.711C215.122 167.253 215.333 166.852 215.609 166.508C215.891 166.159 216.237 165.885 216.648 165.688C217.06 165.49 217.531 165.391 218.062 165.391C218.495 165.391 218.88 165.451 219.219 165.57C219.562 165.685 219.854 165.867 220.094 166.117C220.333 166.367 220.516 166.693 220.641 167.094C220.766 167.49 220.828 167.969 220.828 168.531V174H218.938V168.523C218.938 168.096 218.875 167.766 218.75 167.531C218.63 167.297 218.458 167.135 218.234 167.047C218.01 166.953 217.742 166.906 217.43 166.906C217.138 166.906 216.88 166.961 216.656 167.07C216.438 167.174 216.253 167.323 216.102 167.516C215.951 167.703 215.836 167.919 215.758 168.164C215.685 168.409 215.648 168.674 215.648 168.961ZM226.492 174.156C225.867 174.156 225.302 174.055 224.797 173.852C224.297 173.643 223.87 173.354 223.516 172.984C223.167 172.615 222.898 172.18 222.711 171.68C222.523 171.18 222.43 170.641 222.43 170.062V169.75C222.43 169.089 222.526 168.49 222.719 167.953C222.911 167.417 223.18 166.958 223.523 166.578C223.867 166.193 224.273 165.898 224.742 165.695C225.211 165.492 225.719 165.391 226.266 165.391C226.87 165.391 227.398 165.492 227.852 165.695C228.305 165.898 228.68 166.185 228.977 166.555C229.279 166.919 229.503 167.354 229.648 167.859C229.799 168.365 229.875 168.922 229.875 169.531V170.336H223.344V168.984H228.016V168.836C228.005 168.497 227.938 168.18 227.812 167.883C227.693 167.586 227.508 167.346 227.258 167.164C227.008 166.982 226.674 166.891 226.258 166.891C225.945 166.891 225.667 166.958 225.422 167.094C225.182 167.224 224.982 167.414 224.82 167.664C224.659 167.914 224.534 168.216 224.445 168.57C224.362 168.919 224.32 169.312 224.32 169.75V170.062C224.32 170.432 224.37 170.776 224.469 171.094C224.573 171.406 224.724 171.68 224.922 171.914C225.12 172.148 225.359 172.333 225.641 172.469C225.922 172.599 226.242 172.664 226.602 172.664C227.055 172.664 227.458 172.573 227.812 172.391C228.167 172.208 228.474 171.951 228.734 171.617L229.727 172.578C229.544 172.844 229.307 173.099 229.016 173.344C228.724 173.583 228.367 173.779 227.945 173.93C227.529 174.081 227.044 174.156 226.492 174.156ZM233.234 167.156V174H231.352V165.547H233.148L233.234 167.156ZM235.82 165.492L235.805 167.242C235.69 167.221 235.565 167.206 235.43 167.195C235.299 167.185 235.169 167.18 235.039 167.18C234.716 167.18 234.432 167.227 234.188 167.32C233.943 167.409 233.737 167.539 233.57 167.711C233.409 167.878 233.284 168.081 233.195 168.32C233.107 168.56 233.055 168.828 233.039 169.125L232.609 169.156C232.609 168.625 232.661 168.133 232.766 167.68C232.87 167.227 233.026 166.828 233.234 166.484C233.448 166.141 233.714 165.872 234.031 165.68C234.354 165.487 234.727 165.391 235.148 165.391C235.263 165.391 235.385 165.401 235.516 165.422C235.651 165.443 235.753 165.466 235.82 165.492ZM241.484 172.305V168.273C241.484 167.971 241.43 167.711 241.32 167.492C241.211 167.273 241.044 167.104 240.82 166.984C240.602 166.865 240.326 166.805 239.992 166.805C239.685 166.805 239.419 166.857 239.195 166.961C238.971 167.065 238.797 167.206 238.672 167.383C238.547 167.56 238.484 167.76 238.484 167.984H236.609C236.609 167.651 236.69 167.328 236.852 167.016C237.013 166.703 237.247 166.424 237.555 166.18C237.862 165.935 238.229 165.742 238.656 165.602C239.083 165.461 239.562 165.391 240.094 165.391C240.729 165.391 241.292 165.497 241.781 165.711C242.276 165.924 242.664 166.247 242.945 166.68C243.232 167.107 243.375 167.643 243.375 168.289V172.047C243.375 172.432 243.401 172.779 243.453 173.086C243.51 173.388 243.591 173.651 243.695 173.875V174H241.766C241.677 173.797 241.607 173.539 241.555 173.227C241.508 172.909 241.484 172.602 241.484 172.305ZM241.758 168.859L241.773 170.023H240.422C240.073 170.023 239.766 170.057 239.5 170.125C239.234 170.188 239.013 170.281 238.836 170.406C238.659 170.531 238.526 170.682 238.438 170.859C238.349 171.036 238.305 171.237 238.305 171.461C238.305 171.685 238.357 171.891 238.461 172.078C238.565 172.26 238.716 172.404 238.914 172.508C239.117 172.612 239.362 172.664 239.648 172.664C240.034 172.664 240.37 172.586 240.656 172.43C240.948 172.268 241.177 172.073 241.344 171.844C241.51 171.609 241.599 171.388 241.609 171.18L242.219 172.016C242.156 172.229 242.049 172.458 241.898 172.703C241.747 172.948 241.549 173.182 241.305 173.406C241.065 173.625 240.776 173.805 240.438 173.945C240.104 174.086 239.719 174.156 239.281 174.156C238.729 174.156 238.237 174.047 237.805 173.828C237.372 173.604 237.034 173.305 236.789 172.93C236.544 172.549 236.422 172.12 236.422 171.641C236.422 171.193 236.505 170.797 236.672 170.453C236.844 170.104 237.094 169.812 237.422 169.578C237.755 169.344 238.161 169.167 238.641 169.047C239.12 168.922 239.667 168.859 240.281 168.859H241.758Z" fill="#7237FF"/>
<rect x="17.4453" y="213.5" width="343" height="55" rx="7.5" stroke="#7237FF"/>
<path fill-rule="evenodd" clip-rule="evenodd" d="M135.974 234.529C136.234 234.268 136.656 234.268 136.916 234.529L140.25 237.862C140.51 238.122 140.51 238.545 140.25 238.805C139.989 239.065 139.567 239.065 139.307 238.805L137.112 236.61V243C137.112 243.368 136.813 243.667 136.445 243.667C136.077 243.667 135.778 243.368 135.778 243V236.61L133.583 238.805C133.323 239.065 132.901 239.065 132.64 238.805C132.38 238.545 132.38 238.122 132.64 237.862L135.974 234.529ZM130.445 242.333C130.813 242.333 131.112 242.632 131.112 243V245.667C131.112 245.844 131.182 246.013 131.307 246.138C131.432 246.263 131.602 246.333 131.778 246.333H141.112C141.288 246.333 141.458 246.263 141.583 246.138C141.708 246.013 141.778 245.844 141.778 245.667V243C141.778 242.632 142.077 242.333 142.445 242.333C142.813 242.333 143.112 242.632 143.112 243V245.667C143.112 246.197 142.901 246.706 142.526 247.081C142.151 247.456 141.642 247.667 141.112 247.667H131.778C131.248 247.667 130.739 247.456 130.364 247.081C129.989 246.706 129.778 246.197 129.778 245.667V243C129.778 242.632 130.077 242.333 130.445 242.333Z" fill="#7237FF"/>
<path d="M160.156 234.625H162.109V242.227C162.109 243.091 161.922 243.815 161.547 244.398C161.172 244.982 160.661 245.422 160.016 245.719C159.375 246.01 158.659 246.156 157.867 246.156C157.049 246.156 156.32 246.01 155.68 245.719C155.039 245.422 154.534 244.982 154.164 244.398C153.799 243.815 153.617 243.091 153.617 242.227V234.625H155.57V242.227C155.57 242.773 155.664 243.224 155.852 243.578C156.039 243.927 156.305 244.185 156.648 244.352C156.992 244.518 157.398 244.602 157.867 244.602C158.336 244.602 158.74 244.518 159.078 244.352C159.422 244.185 159.688 243.927 159.875 243.578C160.062 243.224 160.156 242.773 160.156 242.227V234.625ZM165.945 239.172V249.25H164.062V237.547H165.797L165.945 239.172ZM171.453 241.695V241.859C171.453 242.474 171.38 243.044 171.234 243.57C171.094 244.091 170.883 244.547 170.602 244.938C170.326 245.323 169.984 245.622 169.578 245.836C169.172 246.049 168.703 246.156 168.172 246.156C167.646 246.156 167.185 246.06 166.789 245.867C166.398 245.669 166.068 245.391 165.797 245.031C165.526 244.672 165.307 244.25 165.141 243.766C164.979 243.276 164.865 242.74 164.797 242.156V241.523C164.865 240.904 164.979 240.341 165.141 239.836C165.307 239.331 165.526 238.896 165.797 238.531C166.068 238.167 166.398 237.885 166.789 237.688C167.18 237.49 167.635 237.391 168.156 237.391C168.688 237.391 169.159 237.495 169.57 237.703C169.982 237.906 170.328 238.198 170.609 238.578C170.891 238.953 171.102 239.406 171.242 239.938C171.383 240.464 171.453 241.049 171.453 241.695ZM169.57 241.859V241.695C169.57 241.305 169.534 240.943 169.461 240.609C169.388 240.271 169.273 239.974 169.117 239.719C168.961 239.464 168.76 239.266 168.516 239.125C168.276 238.979 167.987 238.906 167.648 238.906C167.315 238.906 167.029 238.964 166.789 239.078C166.549 239.188 166.349 239.341 166.188 239.539C166.026 239.737 165.901 239.969 165.812 240.234C165.724 240.495 165.661 240.779 165.625 241.086V242.602C165.688 242.977 165.794 243.32 165.945 243.633C166.096 243.945 166.31 244.195 166.586 244.383C166.867 244.565 167.227 244.656 167.664 244.656C168.003 244.656 168.292 244.583 168.531 244.438C168.771 244.292 168.966 244.091 169.117 243.836C169.273 243.576 169.388 243.276 169.461 242.938C169.534 242.599 169.57 242.24 169.57 241.859ZM175.07 234V246H173.18V234H175.07ZM176.773 241.867V241.688C176.773 241.078 176.862 240.513 177.039 239.992C177.216 239.466 177.471 239.01 177.805 238.625C178.143 238.234 178.555 237.932 179.039 237.719C179.529 237.5 180.081 237.391 180.695 237.391C181.315 237.391 181.867 237.5 182.352 237.719C182.841 237.932 183.255 238.234 183.594 238.625C183.932 239.01 184.19 239.466 184.367 239.992C184.544 240.513 184.633 241.078 184.633 241.688V241.867C184.633 242.477 184.544 243.042 184.367 243.562C184.19 244.083 183.932 244.539 183.594 244.93C183.255 245.315 182.844 245.617 182.359 245.836C181.875 246.049 181.326 246.156 180.711 246.156C180.091 246.156 179.536 246.049 179.047 245.836C178.562 245.617 178.151 245.315 177.812 244.93C177.474 244.539 177.216 244.083 177.039 243.562C176.862 243.042 176.773 242.477 176.773 241.867ZM178.656 241.688V241.867C178.656 242.247 178.695 242.607 178.773 242.945C178.852 243.284 178.974 243.581 179.141 243.836C179.307 244.091 179.521 244.292 179.781 244.438C180.042 244.583 180.352 244.656 180.711 244.656C181.06 244.656 181.362 244.583 181.617 244.438C181.878 244.292 182.091 244.091 182.258 243.836C182.424 243.581 182.547 243.284 182.625 242.945C182.708 242.607 182.75 242.247 182.75 241.867V241.688C182.75 241.312 182.708 240.958 182.625 240.625C182.547 240.286 182.422 239.987 182.25 239.727C182.083 239.466 181.87 239.263 181.609 239.117C181.354 238.966 181.049 238.891 180.695 238.891C180.341 238.891 180.034 238.966 179.773 239.117C179.518 239.263 179.307 239.466 179.141 239.727C178.974 239.987 178.852 240.286 178.773 240.625C178.695 240.958 178.656 241.312 178.656 241.688ZM190.977 244.305V240.273C190.977 239.971 190.922 239.711 190.812 239.492C190.703 239.273 190.536 239.104 190.312 238.984C190.094 238.865 189.818 238.805 189.484 238.805C189.177 238.805 188.911 238.857 188.688 238.961C188.464 239.065 188.289 239.206 188.164 239.383C188.039 239.56 187.977 239.76 187.977 239.984H186.102C186.102 239.651 186.182 239.328 186.344 239.016C186.505 238.703 186.74 238.424 187.047 238.18C187.354 237.935 187.721 237.742 188.148 237.602C188.576 237.461 189.055 237.391 189.586 237.391C190.221 237.391 190.784 237.497 191.273 237.711C191.768 237.924 192.156 238.247 192.438 238.68C192.724 239.107 192.867 239.643 192.867 240.289V244.047C192.867 244.432 192.893 244.779 192.945 245.086C193.003 245.388 193.083 245.651 193.188 245.875V246H191.258C191.169 245.797 191.099 245.539 191.047 245.227C191 244.909 190.977 244.602 190.977 244.305ZM191.25 240.859L191.266 242.023H189.914C189.565 242.023 189.258 242.057 188.992 242.125C188.727 242.188 188.505 242.281 188.328 242.406C188.151 242.531 188.018 242.682 187.93 242.859C187.841 243.036 187.797 243.237 187.797 243.461C187.797 243.685 187.849 243.891 187.953 244.078C188.057 244.26 188.208 244.404 188.406 244.508C188.609 244.612 188.854 244.664 189.141 244.664C189.526 244.664 189.862 244.586 190.148 244.43C190.44 244.268 190.669 244.073 190.836 243.844C191.003 243.609 191.091 243.388 191.102 243.18L191.711 244.016C191.648 244.229 191.542 244.458 191.391 244.703C191.24 244.948 191.042 245.182 190.797 245.406C190.557 245.625 190.268 245.805 189.93 245.945C189.596 246.086 189.211 246.156 188.773 246.156C188.221 246.156 187.729 246.047 187.297 245.828C186.865 245.604 186.526 245.305 186.281 244.93C186.036 244.549 185.914 244.12 185.914 243.641C185.914 243.193 185.997 242.797 186.164 242.453C186.336 242.104 186.586 241.812 186.914 241.578C187.247 241.344 187.654 241.167 188.133 241.047C188.612 240.922 189.159 240.859 189.773 240.859H191.25ZM199.992 244.25V234H201.883V246H200.172L199.992 244.25ZM194.492 241.867V241.703C194.492 241.062 194.568 240.479 194.719 239.953C194.87 239.422 195.089 238.966 195.375 238.586C195.661 238.201 196.01 237.906 196.422 237.703C196.833 237.495 197.297 237.391 197.812 237.391C198.323 237.391 198.771 237.49 199.156 237.688C199.542 237.885 199.87 238.169 200.141 238.539C200.411 238.904 200.628 239.341 200.789 239.852C200.951 240.357 201.065 240.919 201.133 241.539V242.062C201.065 242.667 200.951 243.219 200.789 243.719C200.628 244.219 200.411 244.651 200.141 245.016C199.87 245.38 199.539 245.661 199.148 245.859C198.763 246.057 198.312 246.156 197.797 246.156C197.286 246.156 196.826 246.049 196.414 245.836C196.008 245.622 195.661 245.323 195.375 244.938C195.089 244.552 194.87 244.099 194.719 243.578C194.568 243.052 194.492 242.482 194.492 241.867ZM196.375 241.703V241.867C196.375 242.253 196.409 242.612 196.477 242.945C196.549 243.279 196.661 243.573 196.812 243.828C196.964 244.078 197.159 244.276 197.398 244.422C197.643 244.562 197.935 244.633 198.273 244.633C198.701 244.633 199.052 244.539 199.328 244.352C199.604 244.164 199.82 243.911 199.977 243.594C200.138 243.271 200.247 242.911 200.305 242.516V241.102C200.273 240.794 200.208 240.508 200.109 240.242C200.016 239.977 199.888 239.745 199.727 239.547C199.565 239.344 199.365 239.188 199.125 239.078C198.891 238.964 198.612 238.906 198.289 238.906C197.945 238.906 197.654 238.979 197.414 239.125C197.174 239.271 196.977 239.471 196.82 239.727C196.669 239.982 196.557 240.279 196.484 240.617C196.411 240.956 196.375 241.318 196.375 241.703ZM212.344 241.758H209.383V240.203H212.344C212.859 240.203 213.276 240.12 213.594 239.953C213.911 239.786 214.143 239.557 214.289 239.266C214.44 238.969 214.516 238.63 214.516 238.25C214.516 237.891 214.44 237.555 214.289 237.242C214.143 236.924 213.911 236.669 213.594 236.477C213.276 236.284 212.859 236.188 212.344 236.188H209.984V246H208.023V234.625H212.344C213.224 234.625 213.971 234.781 214.586 235.094C215.206 235.401 215.677 235.828 216 236.375C216.323 236.917 216.484 237.536 216.484 238.234C216.484 238.969 216.323 239.599 216 240.125C215.677 240.651 215.206 241.055 214.586 241.336C213.971 241.617 213.224 241.758 212.344 241.758ZM219.914 234V246H218.039V234H219.914ZM219.586 241.461L218.977 241.453C218.982 240.87 219.062 240.331 219.219 239.836C219.38 239.341 219.604 238.911 219.891 238.547C220.182 238.177 220.531 237.893 220.938 237.695C221.344 237.492 221.794 237.391 222.289 237.391C222.706 237.391 223.081 237.448 223.414 237.562C223.753 237.677 224.044 237.862 224.289 238.117C224.534 238.367 224.719 238.695 224.844 239.102C224.974 239.503 225.039 239.992 225.039 240.57V246H223.148V240.555C223.148 240.148 223.089 239.826 222.969 239.586C222.854 239.346 222.685 239.174 222.461 239.07C222.237 238.961 221.964 238.906 221.641 238.906C221.302 238.906 221.003 238.974 220.742 239.109C220.487 239.245 220.273 239.43 220.102 239.664C219.93 239.898 219.799 240.169 219.711 240.477C219.628 240.784 219.586 241.112 219.586 241.461ZM226.586 241.867V241.688C226.586 241.078 226.674 240.513 226.852 239.992C227.029 239.466 227.284 239.01 227.617 238.625C227.956 238.234 228.367 237.932 228.852 237.719C229.341 237.5 229.893 237.391 230.508 237.391C231.128 237.391 231.68 237.5 232.164 237.719C232.654 237.932 233.068 238.234 233.406 238.625C233.745 239.01 234.003 239.466 234.18 239.992C234.357 240.513 234.445 241.078 234.445 241.688V241.867C234.445 242.477 234.357 243.042 234.18 243.562C234.003 244.083 233.745 244.539 233.406 244.93C233.068 245.315 232.656 245.617 232.172 245.836C231.688 246.049 231.138 246.156 230.523 246.156C229.904 246.156 229.349 246.049 228.859 245.836C228.375 245.617 227.964 245.315 227.625 244.93C227.286 244.539 227.029 244.083 226.852 243.562C226.674 243.042 226.586 242.477 226.586 241.867ZM228.469 241.688V241.867C228.469 242.247 228.508 242.607 228.586 242.945C228.664 243.284 228.786 243.581 228.953 243.836C229.12 244.091 229.333 244.292 229.594 244.438C229.854 244.583 230.164 244.656 230.523 244.656C230.872 244.656 231.174 244.583 231.43 244.438C231.69 244.292 231.904 244.091 232.07 243.836C232.237 243.581 232.359 243.284 232.438 242.945C232.521 242.607 232.562 242.247 232.562 241.867V241.688C232.562 241.312 232.521 240.958 232.438 240.625C232.359 240.286 232.234 239.987 232.062 239.727C231.896 239.466 231.682 239.263 231.422 239.117C231.167 238.966 230.862 238.891 230.508 238.891C230.154 238.891 229.846 238.966 229.586 239.117C229.331 239.263 229.12 239.466 228.953 239.727C228.786 239.987 228.664 240.286 228.586 240.625C228.508 240.958 228.469 241.312 228.469 241.688ZM239.898 237.547V238.922H235.133V237.547H239.898ZM236.508 235.477H238.391V243.664C238.391 243.924 238.427 244.125 238.5 244.266C238.578 244.401 238.685 244.492 238.82 244.539C238.956 244.586 239.115 244.609 239.297 244.609C239.427 244.609 239.552 244.602 239.672 244.586C239.792 244.57 239.888 244.555 239.961 244.539L239.969 245.977C239.812 246.023 239.63 246.065 239.422 246.102C239.219 246.138 238.984 246.156 238.719 246.156C238.286 246.156 237.904 246.081 237.57 245.93C237.237 245.773 236.977 245.521 236.789 245.172C236.602 244.823 236.508 244.359 236.508 243.781V235.477ZM240.805 241.867V241.688C240.805 241.078 240.893 240.513 241.07 239.992C241.247 239.466 241.503 239.01 241.836 238.625C242.174 238.234 242.586 237.932 243.07 237.719C243.56 237.5 244.112 237.391 244.727 237.391C245.346 237.391 245.898 237.5 246.383 237.719C246.872 237.932 247.286 238.234 247.625 238.625C247.964 239.01 248.221 239.466 248.398 239.992C248.576 240.513 248.664 241.078 248.664 241.688V241.867C248.664 242.477 248.576 243.042 248.398 243.562C248.221 244.083 247.964 244.539 247.625 244.93C247.286 245.315 246.875 245.617 246.391 245.836C245.906 246.049 245.357 246.156 244.742 246.156C244.122 246.156 243.568 246.049 243.078 245.836C242.594 245.617 242.182 245.315 241.844 244.93C241.505 244.539 241.247 244.083 241.07 243.562C240.893 243.042 240.805 242.477 240.805 241.867ZM242.688 241.688V241.867C242.688 242.247 242.727 242.607 242.805 242.945C242.883 243.284 243.005 243.581 243.172 243.836C243.339 244.091 243.552 244.292 243.812 244.438C244.073 244.583 244.383 244.656 244.742 244.656C245.091 244.656 245.393 244.583 245.648 244.438C245.909 244.292 246.122 244.091 246.289 243.836C246.456 243.581 246.578 243.284 246.656 242.945C246.74 242.607 246.781 242.247 246.781 241.867V241.688C246.781 241.312 246.74 240.958 246.656 240.625C246.578 240.286 246.453 239.987 246.281 239.727C246.115 239.466 245.901 239.263 245.641 239.117C245.385 238.966 245.081 238.891 244.727 238.891C244.372 238.891 244.065 238.966 243.805 239.117C243.549 239.263 243.339 239.466 243.172 239.727C243.005 239.987 242.883 240.286 242.805 240.625C242.727 240.958 242.688 241.312 242.688 241.688Z" fill="#7237FF"/>
<rect x="17.4453" y="285.5" width="343" height="55" rx="7.5" stroke="#7237FF"/>
<path fill-rule="evenodd" clip-rule="evenodd" d="M119.778 307.667C119.41 307.667 119.112 307.965 119.112 308.333V317.667C119.112 318.035 119.41 318.333 119.778 318.333H120.169L126.031 312.471C126.406 312.096 126.915 311.886 127.445 311.886C127.975 311.886 128.484 312.096 128.859 312.471L129.778 313.391V308.333C129.778 307.965 129.48 307.667 129.112 307.667H119.778ZM131.112 315V308.333C131.112 307.229 130.216 306.333 129.112 306.333H119.778C118.674 306.333 117.778 307.229 117.778 308.333V317.667C117.778 318.771 118.674 319.667 119.778 319.667H120.444C120.445 319.667 120.445 319.667 120.446 319.667H129.112C130.216 319.667 131.112 318.771 131.112 317.667V315.001C131.112 315 131.112 315 131.112 315ZM129.778 315.276L127.916 313.414C127.916 313.414 127.916 313.414 127.916 313.414C127.791 313.289 127.622 313.219 127.445 313.219C127.268 313.219 127.099 313.289 126.974 313.414C126.974 313.414 126.974 313.414 126.974 313.414L122.054 318.333H129.112C129.48 318.333 129.778 318.035 129.778 317.667V315.276ZM122.445 310.333C122.077 310.333 121.778 310.632 121.778 311C121.778 311.368 122.077 311.667 122.445 311.667C122.813 311.667 123.112 311.368 123.112 311C123.112 310.632 122.813 310.333 122.445 310.333ZM120.445 311C120.445 309.896 121.34 309 122.445 309C123.55 309 124.445 309.896 124.445 311C124.445 312.105 123.55 313 122.445 313C121.34 313 120.445 312.105 120.445 311Z" fill="#7237FF"/>
<path d="M146.422 308.141L143.023 318H140.969L145.25 306.625H146.562L146.422 308.141ZM149.266 318L145.859 308.141L145.711 306.625H147.031L151.328 318H149.266ZM149.102 313.781V315.336H142.914V313.781H149.102ZM157.57 316.25V306H159.461V318H157.75L157.57 316.25ZM152.07 313.867V313.703C152.07 313.062 152.146 312.479 152.297 311.953C152.448 311.422 152.667 310.966 152.953 310.586C153.24 310.201 153.589 309.906 154 309.703C154.411 309.495 154.875 309.391 155.391 309.391C155.901 309.391 156.349 309.49 156.734 309.688C157.12 309.885 157.448 310.169 157.719 310.539C157.99 310.904 158.206 311.341 158.367 311.852C158.529 312.357 158.643 312.919 158.711 313.539V314.062C158.643 314.667 158.529 315.219 158.367 315.719C158.206 316.219 157.99 316.651 157.719 317.016C157.448 317.38 157.117 317.661 156.727 317.859C156.341 318.057 155.891 318.156 155.375 318.156C154.865 318.156 154.404 318.049 153.992 317.836C153.586 317.622 153.24 317.323 152.953 316.938C152.667 316.552 152.448 316.099 152.297 315.578C152.146 315.052 152.07 314.482 152.07 313.867ZM153.953 313.703V313.867C153.953 314.253 153.987 314.612 154.055 314.945C154.128 315.279 154.24 315.573 154.391 315.828C154.542 316.078 154.737 316.276 154.977 316.422C155.221 316.562 155.513 316.633 155.852 316.633C156.279 316.633 156.63 316.539 156.906 316.352C157.182 316.164 157.398 315.911 157.555 315.594C157.716 315.271 157.826 314.911 157.883 314.516V313.102C157.852 312.794 157.786 312.508 157.688 312.242C157.594 311.977 157.466 311.745 157.305 311.547C157.143 311.344 156.943 311.188 156.703 311.078C156.469 310.964 156.19 310.906 155.867 310.906C155.523 310.906 155.232 310.979 154.992 311.125C154.753 311.271 154.555 311.471 154.398 311.727C154.247 311.982 154.135 312.279 154.062 312.617C153.99 312.956 153.953 313.318 153.953 313.703ZM166.586 316.25V306H168.477V318H166.766L166.586 316.25ZM161.086 313.867V313.703C161.086 313.062 161.161 312.479 161.312 311.953C161.464 311.422 161.682 310.966 161.969 310.586C162.255 310.201 162.604 309.906 163.016 309.703C163.427 309.495 163.891 309.391 164.406 309.391C164.917 309.391 165.365 309.49 165.75 309.688C166.135 309.885 166.464 310.169 166.734 310.539C167.005 310.904 167.221 311.341 167.383 311.852C167.544 312.357 167.659 312.919 167.727 313.539V314.062C167.659 314.667 167.544 315.219 167.383 315.719C167.221 316.219 167.005 316.651 166.734 317.016C166.464 317.38 166.133 317.661 165.742 317.859C165.357 318.057 164.906 318.156 164.391 318.156C163.88 318.156 163.419 318.049 163.008 317.836C162.602 317.622 162.255 317.323 161.969 316.938C161.682 316.552 161.464 316.099 161.312 315.578C161.161 315.052 161.086 314.482 161.086 313.867ZM162.969 313.703V313.867C162.969 314.253 163.003 314.612 163.07 314.945C163.143 315.279 163.255 315.573 163.406 315.828C163.557 316.078 163.753 316.276 163.992 316.422C164.237 316.562 164.529 316.633 164.867 316.633C165.294 316.633 165.646 316.539 165.922 316.352C166.198 316.164 166.414 315.911 166.57 315.594C166.732 315.271 166.841 314.911 166.898 314.516V313.102C166.867 312.794 166.802 312.508 166.703 312.242C166.609 311.977 166.482 311.745 166.32 311.547C166.159 311.344 165.958 311.188 165.719 311.078C165.484 310.964 165.206 310.906 164.883 310.906C164.539 310.906 164.247 310.979 164.008 311.125C163.768 311.271 163.57 311.471 163.414 311.727C163.263 311.982 163.151 312.279 163.078 312.617C163.005 312.956 162.969 313.318 162.969 313.703ZM176.578 306.625V318H174.617V306.625H176.578ZM181.219 311.602V313.156H176.078V311.602H181.219ZM181.867 306.625V308.188H176.078V306.625H181.867ZM184.93 311.156V318H183.047V309.547H184.844L184.93 311.156ZM187.516 309.492L187.5 311.242C187.385 311.221 187.26 311.206 187.125 311.195C186.995 311.185 186.865 311.18 186.734 311.18C186.411 311.18 186.128 311.227 185.883 311.32C185.638 311.409 185.432 311.539 185.266 311.711C185.104 311.878 184.979 312.081 184.891 312.32C184.802 312.56 184.75 312.828 184.734 313.125L184.305 313.156C184.305 312.625 184.357 312.133 184.461 311.68C184.565 311.227 184.721 310.828 184.93 310.484C185.143 310.141 185.409 309.872 185.727 309.68C186.049 309.487 186.422 309.391 186.844 309.391C186.958 309.391 187.081 309.401 187.211 309.422C187.346 309.443 187.448 309.466 187.516 309.492ZM188.133 313.867V313.688C188.133 313.078 188.221 312.513 188.398 311.992C188.576 311.466 188.831 311.01 189.164 310.625C189.503 310.234 189.914 309.932 190.398 309.719C190.888 309.5 191.44 309.391 192.055 309.391C192.674 309.391 193.227 309.5 193.711 309.719C194.201 309.932 194.615 310.234 194.953 310.625C195.292 311.01 195.549 311.466 195.727 311.992C195.904 312.513 195.992 313.078 195.992 313.688V313.867C195.992 314.477 195.904 315.042 195.727 315.562C195.549 316.083 195.292 316.539 194.953 316.93C194.615 317.315 194.203 317.617 193.719 317.836C193.234 318.049 192.685 318.156 192.07 318.156C191.451 318.156 190.896 318.049 190.406 317.836C189.922 317.617 189.51 317.315 189.172 316.93C188.833 316.539 188.576 316.083 188.398 315.562C188.221 315.042 188.133 314.477 188.133 313.867ZM190.016 313.688V313.867C190.016 314.247 190.055 314.607 190.133 314.945C190.211 315.284 190.333 315.581 190.5 315.836C190.667 316.091 190.88 316.292 191.141 316.438C191.401 316.583 191.711 316.656 192.07 316.656C192.419 316.656 192.721 316.583 192.977 316.438C193.237 316.292 193.451 316.091 193.617 315.836C193.784 315.581 193.906 315.284 193.984 314.945C194.068 314.607 194.109 314.247 194.109 313.867V313.688C194.109 313.312 194.068 312.958 193.984 312.625C193.906 312.286 193.781 311.987 193.609 311.727C193.443 311.466 193.229 311.263 192.969 311.117C192.714 310.966 192.409 310.891 192.055 310.891C191.701 310.891 191.393 310.966 191.133 311.117C190.878 311.263 190.667 311.466 190.5 311.727C190.333 311.987 190.211 312.286 190.133 312.625C190.055 312.958 190.016 313.312 190.016 313.688ZM199.453 311.266V318H197.57V309.547H199.344L199.453 311.266ZM199.148 313.461L198.508 313.453C198.508 312.87 198.581 312.331 198.727 311.836C198.872 311.341 199.086 310.911 199.367 310.547C199.648 310.177 199.997 309.893 200.414 309.695C200.836 309.492 201.323 309.391 201.875 309.391C202.26 309.391 202.612 309.448 202.93 309.562C203.253 309.672 203.531 309.846 203.766 310.086C204.005 310.326 204.188 310.633 204.312 311.008C204.443 311.383 204.508 311.836 204.508 312.367V318H202.625V312.531C202.625 312.12 202.562 311.797 202.438 311.562C202.318 311.328 202.143 311.161 201.914 311.062C201.69 310.958 201.422 310.906 201.109 310.906C200.755 310.906 200.453 310.974 200.203 311.109C199.958 311.245 199.758 311.43 199.602 311.664C199.445 311.898 199.331 312.169 199.258 312.477C199.185 312.784 199.148 313.112 199.148 313.461ZM204.391 312.961L203.508 313.156C203.508 312.646 203.578 312.164 203.719 311.711C203.865 311.253 204.076 310.852 204.352 310.508C204.633 310.159 204.979 309.885 205.391 309.688C205.802 309.49 206.273 309.391 206.805 309.391C207.237 309.391 207.622 309.451 207.961 309.57C208.305 309.685 208.596 309.867 208.836 310.117C209.076 310.367 209.258 310.693 209.383 311.094C209.508 311.49 209.57 311.969 209.57 312.531V318H207.68V312.523C207.68 312.096 207.617 311.766 207.492 311.531C207.372 311.297 207.201 311.135 206.977 311.047C206.753 310.953 206.484 310.906 206.172 310.906C205.88 310.906 205.622 310.961 205.398 311.07C205.18 311.174 204.995 311.323 204.844 311.516C204.693 311.703 204.578 311.919 204.5 312.164C204.427 312.409 204.391 312.674 204.391 312.961ZM220.109 308.141L216.711 318H214.656L218.938 306.625H220.25L220.109 308.141ZM222.953 318L219.547 308.141L219.398 306.625H220.719L225.016 318H222.953ZM222.789 313.781V315.336H216.602V313.781H222.789ZM228.117 306V318H226.227V306H228.117ZM230.188 306H232.07V316.195L231.891 318H230.188V306ZM237.586 313.695V313.859C237.586 314.484 237.516 315.06 237.375 315.586C237.24 316.107 237.031 316.56 236.75 316.945C236.474 317.331 236.13 317.63 235.719 317.844C235.312 318.052 234.841 318.156 234.305 318.156C233.779 318.156 233.32 318.057 232.93 317.859C232.539 317.661 232.211 317.38 231.945 317.016C231.685 316.651 231.474 316.216 231.312 315.711C231.151 315.206 231.036 314.648 230.969 314.039V313.516C231.036 312.901 231.151 312.344 231.312 311.844C231.474 311.339 231.685 310.904 231.945 310.539C232.211 310.169 232.536 309.885 232.922 309.688C233.312 309.49 233.768 309.391 234.289 309.391C234.831 309.391 235.307 309.495 235.719 309.703C236.135 309.911 236.482 310.208 236.758 310.594C237.034 310.974 237.24 311.427 237.375 311.953C237.516 312.479 237.586 313.06 237.586 313.695ZM235.703 313.859V313.695C235.703 313.315 235.672 312.958 235.609 312.625C235.547 312.286 235.443 311.99 235.297 311.734C235.156 311.479 234.964 311.279 234.719 311.133C234.479 310.982 234.18 310.906 233.82 310.906C233.487 310.906 233.201 310.964 232.961 311.078C232.721 311.193 232.521 311.349 232.359 311.547C232.198 311.745 232.07 311.974 231.977 312.234C231.888 312.495 231.828 312.776 231.797 313.078V314.492C231.844 314.883 231.943 315.242 232.094 315.57C232.25 315.893 232.469 316.154 232.75 316.352C233.031 316.544 233.393 316.641 233.836 316.641C234.185 316.641 234.479 316.57 234.719 316.43C234.958 316.289 235.148 316.094 235.289 315.844C235.435 315.589 235.539 315.292 235.602 314.953C235.669 314.615 235.703 314.25 235.703 313.859ZM244.266 316.008V309.547H246.156V318H244.375L244.266 316.008ZM244.531 314.25L245.164 314.234C245.164 314.802 245.102 315.326 244.977 315.805C244.852 316.279 244.659 316.693 244.398 317.047C244.138 317.396 243.805 317.669 243.398 317.867C242.992 318.06 242.505 318.156 241.938 318.156C241.526 318.156 241.148 318.096 240.805 317.977C240.461 317.857 240.164 317.672 239.914 317.422C239.669 317.172 239.479 316.846 239.344 316.445C239.208 316.044 239.141 315.565 239.141 315.008V309.547H241.023V315.023C241.023 315.331 241.06 315.589 241.133 315.797C241.206 316 241.305 316.164 241.43 316.289C241.555 316.414 241.701 316.503 241.867 316.555C242.034 316.607 242.211 316.633 242.398 316.633C242.935 316.633 243.357 316.529 243.664 316.32C243.977 316.107 244.198 315.82 244.328 315.461C244.464 315.102 244.531 314.698 244.531 314.25ZM249.969 311.266V318H248.086V309.547H249.859L249.969 311.266ZM249.664 313.461L249.023 313.453C249.023 312.87 249.096 312.331 249.242 311.836C249.388 311.341 249.602 310.911 249.883 310.547C250.164 310.177 250.513 309.893 250.93 309.695C251.352 309.492 251.839 309.391 252.391 309.391C252.776 309.391 253.128 309.448 253.445 309.562C253.768 309.672 254.047 309.846 254.281 310.086C254.521 310.326 254.703 310.633 254.828 311.008C254.958 311.383 255.023 311.836 255.023 312.367V318H253.141V312.531C253.141 312.12 253.078 311.797 252.953 311.562C252.833 311.328 252.659 311.161 252.43 311.062C252.206 310.958 251.938 310.906 251.625 310.906C251.271 310.906 250.969 310.974 250.719 311.109C250.474 311.245 250.273 311.43 250.117 311.664C249.961 311.898 249.846 312.169 249.773 312.477C249.701 312.784 249.664 313.112 249.664 313.461ZM254.906 312.961L254.023 313.156C254.023 312.646 254.094 312.164 254.234 311.711C254.38 311.253 254.591 310.852 254.867 310.508C255.148 310.159 255.495 309.885 255.906 309.688C256.318 309.49 256.789 309.391 257.32 309.391C257.753 309.391 258.138 309.451 258.477 309.57C258.82 309.685 259.112 309.867 259.352 310.117C259.591 310.367 259.773 310.693 259.898 311.094C260.023 311.49 260.086 311.969 260.086 312.531V318H258.195V312.523C258.195 312.096 258.133 311.766 258.008 311.531C257.888 311.297 257.716 311.135 257.492 311.047C257.268 310.953 257 310.906 256.688 310.906C256.396 310.906 256.138 310.961 255.914 311.07C255.695 311.174 255.51 311.323 255.359 311.516C255.208 311.703 255.094 311.919 255.016 312.164C254.943 312.409 254.906 312.674 254.906 312.961Z" fill="#7237FF"/>
</g>
<defs>
<linearGradient id="paint0_linear_61_27639" x1="256.378" y1="84.7692" x2="273.35" y2="126.294" gradientUnits="userSpaceOnUse">
<stop stop-color="#7237FF"/>
<stop offset="1" stop-color="#31C783"/>
</linearGradient>
<clipPath id="clip0_61_27639">
<rect width="375" height="375" fill="white" transform="translate(0.945312)"/>
</clipPath>
<clipPath id="clip1_61_27639">
<rect width="12" height="12" fill="white" transform="translate(262.945 91)"/>
</clipPath>
<clipPath id="clip2_61_27639">
<rect width="16" height="16" fill="white" transform="translate(133.445 161)"/>
</clipPath>
</defs>
</svg>
