<svg width="800" height="800" viewBox="0 0 800 800" fill="none" xmlns="http://www.w3.org/2000/svg">
<rect width="800" height="800" fill="#1F1F1F"/>
<rect x="100" y="323.2" width="600" height="153.6" rx="8" fill="white"/>
<path d="M190.4 367.2C190.406 369.312 189.912 371.395 188.96 373.28C187.831 375.539 186.096 377.439 183.948 378.767C181.8 380.095 179.325 380.799 176.8 380.8C174.688 380.805 172.605 380.312 170.72 379.36L161.6 382.4L164.64 373.28C163.688 371.395 163.195 369.312 163.2 367.2C163.201 364.675 163.905 362.2 165.233 360.052C166.561 357.904 168.461 356.169 170.72 355.04C172.605 354.088 174.688 353.594 176.8 353.6H177.6C180.935 353.784 184.085 355.192 186.447 357.553C188.808 359.915 190.216 363.065 190.4 366.4V367.2Z" stroke="#333333" stroke-width="3.2" stroke-linecap="round" stroke-linejoin="round"/>
<path d="M153.839 399.35V413H151.505V399.35H153.839ZM158.124 399.35V401.225H147.258V399.35H158.124ZM158.243 408.041V407.825C158.243 407.094 158.349 406.416 158.562 405.791C158.774 405.159 159.08 404.612 159.48 404.15C159.887 403.681 160.38 403.319 160.962 403.062C161.549 402.8 162.212 402.669 162.949 402.669C163.693 402.669 164.355 402.8 164.937 403.062C165.524 403.319 166.021 403.681 166.427 404.15C166.833 404.612 167.143 405.159 167.355 405.791C167.568 406.416 167.674 407.094 167.674 407.825V408.041C167.674 408.772 167.568 409.45 167.355 410.075C167.143 410.7 166.833 411.247 166.427 411.716C166.021 412.178 165.527 412.541 164.946 412.803C164.365 413.059 163.705 413.188 162.968 413.188C162.224 413.188 161.558 413.059 160.971 412.803C160.39 412.541 159.896 412.178 159.49 411.716C159.083 411.247 158.774 410.7 158.562 410.075C158.349 409.45 158.243 408.772 158.243 408.041ZM160.502 407.825V408.041C160.502 408.497 160.549 408.928 160.643 409.334C160.737 409.741 160.883 410.097 161.083 410.403C161.283 410.709 161.54 410.95 161.852 411.125C162.165 411.3 162.537 411.387 162.968 411.387C163.387 411.387 163.749 411.3 164.055 411.125C164.368 410.95 164.624 410.709 164.824 410.403C165.024 410.097 165.171 409.741 165.265 409.334C165.365 408.928 165.415 408.497 165.415 408.041V407.825C165.415 407.375 165.365 406.95 165.265 406.55C165.171 406.144 165.021 405.784 164.815 405.472C164.615 405.159 164.358 404.916 164.046 404.741C163.74 404.559 163.374 404.469 162.949 404.469C162.524 404.469 162.155 404.559 161.843 404.741C161.537 404.916 161.283 405.159 161.083 405.472C160.883 405.784 160.737 406.144 160.643 406.55C160.549 406.95 160.502 407.375 160.502 407.825ZM172.125 404.806V416.9H169.865V402.856H171.946L172.125 404.806ZM178.734 407.834V408.031C178.734 408.769 178.646 409.453 178.471 410.084C178.303 410.709 178.05 411.256 177.712 411.725C177.381 412.187 176.971 412.547 176.484 412.803C175.996 413.059 175.434 413.188 174.796 413.188C174.165 413.188 173.612 413.072 173.137 412.841C172.668 412.603 172.271 412.269 171.946 411.837C171.621 411.406 171.359 410.9 171.159 410.319C170.965 409.731 170.828 409.087 170.746 408.387V407.628C170.828 406.884 170.965 406.209 171.159 405.603C171.359 404.997 171.621 404.475 171.946 404.037C172.271 403.6 172.668 403.262 173.137 403.025C173.606 402.787 174.153 402.669 174.778 402.669C175.415 402.669 175.981 402.794 176.475 403.044C176.968 403.287 177.384 403.637 177.721 404.094C178.059 404.544 178.312 405.087 178.481 405.725C178.65 406.356 178.734 407.059 178.734 407.834ZM176.475 408.031V407.834C176.475 407.366 176.431 406.931 176.343 406.531C176.256 406.125 176.118 405.769 175.931 405.462C175.743 405.156 175.503 404.919 175.209 404.75C174.921 404.575 174.575 404.487 174.168 404.487C173.768 404.487 173.425 404.556 173.137 404.694C172.85 404.825 172.609 405.009 172.415 405.247C172.221 405.484 172.071 405.762 171.965 406.081C171.859 406.394 171.784 406.734 171.74 407.103V408.922C171.815 409.372 171.943 409.784 172.125 410.159C172.306 410.534 172.562 410.834 172.893 411.059C173.231 411.278 173.662 411.387 174.187 411.387C174.593 411.387 174.94 411.3 175.228 411.125C175.515 410.95 175.75 410.709 175.931 410.403C176.118 410.091 176.256 409.731 176.343 409.325C176.431 408.919 176.475 408.487 176.475 408.031ZM183.363 402.856V413H181.094V402.856H183.363ZM180.944 400.194C180.944 399.85 181.056 399.566 181.281 399.341C181.513 399.109 181.831 398.994 182.238 398.994C182.638 398.994 182.953 399.109 183.184 399.341C183.416 399.566 183.531 399.85 183.531 400.194C183.531 400.531 183.416 400.812 183.184 401.037C182.953 401.262 182.638 401.375 182.238 401.375C181.831 401.375 181.513 401.262 181.281 401.037C181.056 400.812 180.944 400.531 180.944 400.194ZM190.269 411.387C190.638 411.387 190.969 411.316 191.263 411.172C191.563 411.022 191.804 410.816 191.985 410.553C192.172 410.291 192.276 409.987 192.294 409.644H194.422C194.41 410.3 194.216 410.897 193.841 411.434C193.466 411.972 192.969 412.4 192.351 412.719C191.732 413.031 191.047 413.188 190.297 413.188C189.522 413.188 188.847 413.056 188.272 412.794C187.697 412.525 187.219 412.156 186.838 411.687C186.457 411.219 186.169 410.678 185.976 410.066C185.788 409.453 185.694 408.797 185.694 408.097V407.769C185.694 407.069 185.788 406.412 185.976 405.8C186.169 405.181 186.457 404.637 186.838 404.169C187.219 403.7 187.697 403.334 188.272 403.072C188.847 402.803 189.519 402.669 190.288 402.669C191.101 402.669 191.813 402.831 192.426 403.156C193.038 403.475 193.519 403.922 193.869 404.497C194.226 405.066 194.41 405.728 194.422 406.484H192.294C192.276 406.109 192.182 405.772 192.013 405.472C191.851 405.166 191.619 404.922 191.319 404.741C191.026 404.559 190.672 404.469 190.26 404.469C189.804 404.469 189.426 404.562 189.126 404.75C188.826 404.931 188.591 405.181 188.422 405.5C188.254 405.812 188.132 406.166 188.057 406.559C187.988 406.947 187.954 407.35 187.954 407.769V408.097C187.954 408.516 187.988 408.922 188.057 409.316C188.126 409.709 188.244 410.062 188.413 410.375C188.588 410.681 188.826 410.928 189.126 411.116C189.426 411.297 189.807 411.387 190.269 411.387ZM202.135 410.253C202.135 410.028 202.079 409.825 201.967 409.644C201.854 409.456 201.639 409.287 201.32 409.137C201.007 408.987 200.545 408.85 199.932 408.725C199.395 408.606 198.901 408.466 198.451 408.303C198.007 408.134 197.626 407.931 197.307 407.694C196.989 407.456 196.742 407.175 196.567 406.85C196.392 406.525 196.304 406.15 196.304 405.725C196.304 405.312 196.395 404.922 196.576 404.553C196.757 404.184 197.017 403.859 197.354 403.578C197.692 403.297 198.101 403.075 198.582 402.912C199.07 402.75 199.614 402.669 200.214 402.669C201.064 402.669 201.792 402.812 202.398 403.1C203.01 403.381 203.479 403.766 203.804 404.253C204.129 404.734 204.292 405.278 204.292 405.884H202.032C202.032 405.616 201.964 405.366 201.826 405.134C201.695 404.897 201.495 404.706 201.226 404.562C200.957 404.412 200.62 404.337 200.214 404.337C199.826 404.337 199.504 404.4 199.248 404.525C198.998 404.644 198.81 404.8 198.685 404.994C198.567 405.187 198.507 405.4 198.507 405.631C198.507 405.8 198.539 405.953 198.601 406.091C198.67 406.222 198.782 406.344 198.939 406.456C199.095 406.562 199.307 406.662 199.576 406.756C199.851 406.85 200.195 406.941 200.607 407.028C201.382 407.191 202.048 407.4 202.604 407.656C203.167 407.906 203.598 408.231 203.898 408.631C204.198 409.025 204.348 409.525 204.348 410.131C204.348 410.581 204.251 410.994 204.057 411.369C203.87 411.737 203.595 412.059 203.232 412.334C202.87 412.603 202.435 412.812 201.929 412.962C201.429 413.113 200.867 413.188 200.242 413.188C199.323 413.188 198.545 413.025 197.907 412.7C197.27 412.369 196.785 411.947 196.454 411.434C196.129 410.916 195.967 410.378 195.967 409.822H198.151C198.176 410.241 198.292 410.575 198.498 410.825C198.71 411.069 198.973 411.247 199.285 411.359C199.604 411.466 199.932 411.519 200.27 411.519C200.676 411.519 201.017 411.466 201.292 411.359C201.567 411.247 201.776 411.097 201.92 410.909C202.064 410.716 202.135 410.497 202.135 410.253Z" fill="#333333"/>
<path d="M299.2 355.2H276.8C275.033 355.2 273.6 356.633 273.6 358.4V380.8C273.6 382.567 275.033 384 276.8 384H299.2C300.967 384 302.4 382.567 302.4 380.8V358.4C302.4 356.633 300.967 355.2 299.2 355.2Z" stroke="#999999" stroke-width="3.2" stroke-linecap="round" stroke-linejoin="round"/>
<path d="M294.4 352V358.4" stroke="#999999" stroke-width="3.2" stroke-linecap="round" stroke-linejoin="round"/>
<path d="M281.6 352V358.4" stroke="#999999" stroke-width="3.2" stroke-linecap="round" stroke-linejoin="round"/>
<path d="M273.6 364.8H302.4" stroke="#999999" stroke-width="3.2" stroke-linecap="round" stroke-linejoin="round"/>
<path d="M268.97 411.134V413H261.724V411.134H268.97ZM262.389 399.35V413H260.036V399.35H262.389ZM268.024 405.05V406.887H261.724V405.05H268.024ZM268.924 399.35V401.225H261.724V399.35H268.924ZM274.012 411.209L276.496 402.856H278.84L275.315 413H273.852L274.012 411.209ZM272.108 402.856L274.64 411.247L274.762 413H273.299L269.755 402.856H272.108ZM284.865 413.188C284.115 413.188 283.437 413.066 282.831 412.822C282.231 412.572 281.718 412.225 281.293 411.781C280.875 411.337 280.553 410.816 280.328 410.216C280.103 409.616 279.99 408.969 279.99 408.275V407.9C279.99 407.106 280.106 406.387 280.337 405.744C280.568 405.1 280.89 404.55 281.303 404.094C281.715 403.631 282.203 403.278 282.765 403.034C283.328 402.791 283.937 402.669 284.593 402.669C285.318 402.669 285.953 402.791 286.496 403.034C287.04 403.278 287.49 403.622 287.846 404.066C288.209 404.503 288.478 405.025 288.653 405.631C288.834 406.237 288.925 406.906 288.925 407.637V408.603H281.087V406.981H286.693V406.803C286.681 406.397 286.6 406.016 286.45 405.659C286.306 405.303 286.084 405.016 285.784 404.797C285.484 404.578 285.084 404.469 284.584 404.469C284.209 404.469 283.875 404.55 283.581 404.712C283.293 404.869 283.053 405.097 282.859 405.397C282.665 405.697 282.515 406.059 282.409 406.484C282.309 406.903 282.259 407.375 282.259 407.9V408.275C282.259 408.719 282.318 409.131 282.437 409.512C282.562 409.887 282.743 410.216 282.981 410.497C283.218 410.778 283.506 411 283.843 411.162C284.181 411.319 284.565 411.397 284.996 411.397C285.54 411.397 286.025 411.287 286.45 411.069C286.875 410.85 287.243 410.541 287.556 410.141L288.746 411.294C288.528 411.612 288.243 411.919 287.893 412.212C287.543 412.5 287.115 412.734 286.609 412.916C286.109 413.097 285.528 413.188 284.865 413.188ZM293.216 405.022V413H290.956V402.856H293.084L293.216 405.022ZM292.813 407.553L292.081 407.544C292.088 406.825 292.188 406.166 292.381 405.566C292.581 404.966 292.856 404.45 293.206 404.019C293.563 403.587 293.988 403.256 294.481 403.025C294.975 402.787 295.525 402.669 296.131 402.669C296.619 402.669 297.059 402.737 297.453 402.875C297.853 403.006 298.194 403.222 298.475 403.522C298.763 403.822 298.981 404.212 299.131 404.694C299.281 405.169 299.356 405.753 299.356 406.447V413H297.088V406.437C297.088 405.95 297.016 405.566 296.872 405.284C296.734 404.997 296.531 404.794 296.263 404.675C296 404.55 295.672 404.487 295.278 404.487C294.891 404.487 294.544 404.569 294.238 404.731C293.931 404.894 293.672 405.116 293.459 405.397C293.253 405.678 293.094 406.003 292.981 406.372C292.869 406.741 292.813 407.134 292.813 407.553ZM306.601 402.856V404.506H300.882V402.856H306.601ZM302.532 400.372H304.791V410.197C304.791 410.509 304.835 410.75 304.922 410.919C305.016 411.081 305.144 411.191 305.307 411.247C305.469 411.303 305.66 411.331 305.879 411.331C306.035 411.331 306.185 411.322 306.329 411.303C306.472 411.284 306.588 411.266 306.676 411.247L306.685 412.972C306.497 413.028 306.279 413.078 306.029 413.122C305.785 413.166 305.504 413.188 305.185 413.188C304.666 413.188 304.207 413.097 303.807 412.916C303.407 412.728 303.094 412.425 302.869 412.006C302.644 411.587 302.532 411.031 302.532 410.337V400.372ZM314.323 410.253C314.323 410.028 314.267 409.825 314.154 409.644C314.042 409.456 313.826 409.287 313.507 409.137C313.195 408.987 312.732 408.85 312.12 408.725C311.582 408.606 311.089 408.466 310.639 408.303C310.195 408.134 309.814 407.931 309.495 407.694C309.176 407.456 308.929 407.175 308.754 406.85C308.579 406.525 308.492 406.15 308.492 405.725C308.492 405.312 308.582 404.922 308.764 404.553C308.945 404.184 309.204 403.859 309.542 403.578C309.879 403.297 310.289 403.075 310.77 402.912C311.257 402.75 311.801 402.669 312.401 402.669C313.251 402.669 313.979 402.812 314.585 403.1C315.198 403.381 315.667 403.766 315.992 404.253C316.317 404.734 316.479 405.278 316.479 405.884H314.22C314.22 405.616 314.151 405.366 314.014 405.134C313.882 404.897 313.682 404.706 313.414 404.562C313.145 404.412 312.807 404.337 312.401 404.337C312.014 404.337 311.692 404.4 311.435 404.525C311.185 404.644 310.998 404.8 310.873 404.994C310.754 405.187 310.695 405.4 310.695 405.631C310.695 405.8 310.726 405.953 310.789 406.091C310.857 406.222 310.97 406.344 311.126 406.456C311.282 406.562 311.495 406.662 311.764 406.756C312.039 406.85 312.382 406.941 312.795 407.028C313.57 407.191 314.235 407.4 314.792 407.656C315.354 407.906 315.785 408.231 316.085 408.631C316.385 409.025 316.535 409.525 316.535 410.131C316.535 410.581 316.439 410.994 316.245 411.369C316.057 411.737 315.782 412.059 315.42 412.334C315.057 412.603 314.623 412.812 314.117 412.962C313.617 413.113 313.054 413.188 312.429 413.188C311.51 413.188 310.732 413.025 310.095 412.7C309.457 412.369 308.973 411.947 308.642 411.434C308.317 410.916 308.154 410.378 308.154 409.822H310.339C310.364 410.241 310.479 410.575 310.685 410.825C310.898 411.069 311.16 411.247 311.473 411.359C311.792 411.466 312.12 411.519 312.457 411.519C312.864 411.519 313.204 411.466 313.479 411.359C313.754 411.247 313.964 411.097 314.107 410.909C314.251 410.716 314.323 410.497 314.323 410.253Z" fill="#999999"/>
<g clip-path="url(#clip0_55_25407)">
<path d="M408 382.4V379.2C408 377.503 407.326 375.875 406.125 374.675C404.925 373.474 403.297 372.8 401.6 372.8H388.8C387.103 372.8 385.475 373.474 384.274 374.675C383.074 375.875 382.4 377.503 382.4 379.2V382.4" stroke="#999999" stroke-width="3.2" stroke-linecap="round" stroke-linejoin="round"/>
<path d="M395.2 366.4C398.734 366.4 401.6 363.534 401.6 360C401.6 356.465 398.734 353.6 395.2 353.6C391.665 353.6 388.8 356.465 388.8 360C388.8 363.534 391.665 366.4 395.2 366.4Z" stroke="#999999" stroke-width="3.2" stroke-linecap="round" stroke-linejoin="round"/>
<path d="M417.6 382.4V379.2C417.599 377.782 417.127 376.404 416.258 375.284C415.389 374.163 414.173 373.362 412.8 373.008" stroke="#999999" stroke-width="3.2" stroke-linecap="round" stroke-linejoin="round"/>
<path d="M406.4 353.808C407.777 354.16 408.997 354.961 409.868 356.084C410.739 357.206 411.212 358.587 411.212 360.008C411.212 361.429 410.739 362.81 409.868 363.932C408.997 365.055 407.777 365.855 406.4 366.208" stroke="#999999" stroke-width="3.2" stroke-linecap="round" stroke-linejoin="round"/>
</g>
<path d="M360.689 399.35H362.789L366.736 409.878L370.673 399.35H372.773L367.561 413H365.892L360.689 399.35ZM359.733 399.35H361.73L362.076 408.462V413H359.733V399.35ZM371.733 399.35H373.739V413H371.386V408.462L371.733 399.35ZM381.068 413.188C380.318 413.188 379.639 413.066 379.033 412.822C378.433 412.572 377.921 412.225 377.496 411.781C377.077 411.337 376.755 410.816 376.53 410.216C376.305 409.616 376.193 408.969 376.193 408.275V407.9C376.193 407.106 376.308 406.387 376.539 405.744C376.771 405.1 377.093 404.55 377.505 404.094C377.918 403.631 378.405 403.278 378.968 403.034C379.53 402.791 380.139 402.669 380.796 402.669C381.521 402.669 382.155 402.791 382.699 403.034C383.243 403.278 383.693 403.622 384.049 404.066C384.411 404.503 384.68 405.025 384.855 405.631C385.036 406.237 385.127 406.906 385.127 407.637V408.603H377.289V406.981H382.896V406.803C382.883 406.397 382.802 406.016 382.652 405.659C382.508 405.303 382.286 405.016 381.986 404.797C381.686 404.578 381.286 404.469 380.786 404.469C380.411 404.469 380.077 404.55 379.783 404.712C379.496 404.869 379.255 405.097 379.061 405.397C378.868 405.697 378.718 406.059 378.611 406.484C378.511 406.903 378.461 407.375 378.461 407.9V408.275C378.461 408.719 378.521 409.131 378.639 409.512C378.764 409.887 378.946 410.216 379.183 410.497C379.421 410.778 379.708 411 380.046 411.162C380.383 411.319 380.768 411.397 381.199 411.397C381.743 411.397 382.227 411.287 382.652 411.069C383.077 410.85 383.446 410.541 383.758 410.141L384.949 411.294C384.73 411.612 384.446 411.919 384.096 412.212C383.746 412.5 383.318 412.734 382.811 412.916C382.311 413.097 381.73 413.188 381.068 413.188ZM389.437 404.919V413H387.177V402.856H389.306L389.437 404.919ZM389.071 407.553L388.302 407.544C388.302 406.844 388.39 406.197 388.565 405.603C388.74 405.009 388.996 404.494 389.334 404.056C389.671 403.612 390.09 403.272 390.59 403.034C391.096 402.791 391.681 402.669 392.343 402.669C392.806 402.669 393.227 402.737 393.609 402.875C393.996 403.006 394.331 403.216 394.612 403.503C394.899 403.791 395.118 404.159 395.268 404.609C395.424 405.059 395.502 405.603 395.502 406.241V413H393.243V406.437C393.243 405.944 393.168 405.556 393.018 405.275C392.874 404.994 392.665 404.794 392.39 404.675C392.121 404.55 391.799 404.487 391.424 404.487C390.999 404.487 390.637 404.569 390.337 404.731C390.043 404.894 389.802 405.116 389.615 405.397C389.427 405.678 389.29 406.003 389.202 406.372C389.115 406.741 389.071 407.134 389.071 407.553ZM395.362 406.953L394.302 407.187C394.302 406.575 394.387 405.997 394.556 405.453C394.731 404.903 394.984 404.422 395.315 404.009C395.652 403.591 396.068 403.262 396.562 403.025C397.056 402.787 397.621 402.669 398.259 402.669C398.777 402.669 399.24 402.741 399.646 402.884C400.059 403.022 400.409 403.241 400.696 403.541C400.984 403.841 401.202 404.231 401.352 404.712C401.502 405.187 401.577 405.762 401.577 406.437V413H399.309V406.428C399.309 405.916 399.234 405.519 399.084 405.237C398.94 404.956 398.734 404.762 398.465 404.656C398.196 404.544 397.874 404.487 397.499 404.487C397.149 404.487 396.84 404.553 396.571 404.684C396.309 404.809 396.087 404.987 395.906 405.219C395.724 405.444 395.587 405.703 395.493 405.997C395.406 406.291 395.362 406.609 395.362 406.953ZM404.2 398.6H406.459V410.834L406.244 413H404.2V398.6ZM413.078 407.834V408.031C413.078 408.781 412.994 409.472 412.825 410.103C412.662 410.728 412.412 411.272 412.075 411.734C411.744 412.197 411.331 412.556 410.837 412.812C410.35 413.063 409.784 413.188 409.14 413.188C408.509 413.188 407.959 413.069 407.49 412.831C407.022 412.594 406.628 412.256 406.309 411.819C405.997 411.381 405.744 410.859 405.55 410.253C405.356 409.647 405.219 408.978 405.137 408.247V407.619C405.219 406.881 405.356 406.212 405.55 405.612C405.744 405.006 405.997 404.484 406.309 404.047C406.628 403.603 407.019 403.262 407.481 403.025C407.95 402.787 408.497 402.669 409.122 402.669C409.772 402.669 410.344 402.794 410.837 403.044C411.337 403.294 411.753 403.65 412.084 404.112C412.415 404.569 412.662 405.112 412.825 405.744C412.994 406.375 413.078 407.072 413.078 407.834ZM410.819 408.031V407.834C410.819 407.378 410.781 406.95 410.706 406.55C410.631 406.144 410.506 405.787 410.331 405.481C410.162 405.175 409.931 404.934 409.637 404.759C409.35 404.578 408.99 404.487 408.559 404.487C408.159 404.487 407.815 404.556 407.528 404.694C407.24 404.831 407 405.019 406.806 405.256C406.612 405.494 406.459 405.769 406.347 406.081C406.24 406.394 406.169 406.731 406.131 407.094V408.791C406.187 409.259 406.306 409.691 406.487 410.084C406.675 410.472 406.937 410.784 407.275 411.022C407.612 411.253 408.047 411.369 408.578 411.369C408.997 411.369 409.35 411.284 409.637 411.116C409.925 410.947 410.153 410.712 410.322 410.412C410.497 410.106 410.622 409.75 410.697 409.344C410.778 408.937 410.819 408.5 410.819 408.031ZM419.75 413.188C419 413.188 418.322 413.066 417.716 412.822C417.116 412.572 416.603 412.225 416.178 411.781C415.76 411.337 415.438 410.816 415.213 410.216C414.988 409.616 414.875 408.969 414.875 408.275V407.9C414.875 407.106 414.991 406.387 415.222 405.744C415.453 405.1 415.775 404.55 416.188 404.094C416.6 403.631 417.088 403.278 417.65 403.034C418.213 402.791 418.822 402.669 419.478 402.669C420.203 402.669 420.838 402.791 421.382 403.034C421.925 403.278 422.375 403.622 422.732 404.066C423.094 404.503 423.363 405.025 423.538 405.631C423.719 406.237 423.81 406.906 423.81 407.637V408.603H415.972V406.981H421.578V406.803C421.566 406.397 421.485 406.016 421.335 405.659C421.191 405.303 420.969 405.016 420.669 404.797C420.369 404.578 419.969 404.469 419.469 404.469C419.094 404.469 418.76 404.55 418.466 404.712C418.178 404.869 417.938 405.097 417.744 405.397C417.55 405.697 417.4 406.059 417.294 406.484C417.194 406.903 417.144 407.375 417.144 407.9V408.275C417.144 408.719 417.203 409.131 417.322 409.512C417.447 409.887 417.628 410.216 417.866 410.497C418.103 410.778 418.391 411 418.728 411.162C419.066 411.319 419.45 411.397 419.882 411.397C420.425 411.397 420.91 411.287 421.335 411.069C421.76 410.85 422.128 410.541 422.441 410.141L423.632 411.294C423.413 411.612 423.128 411.919 422.778 412.212C422.428 412.5 422 412.734 421.494 412.916C420.994 413.097 420.413 413.188 419.75 413.188ZM428.129 404.787V413H425.87V402.856H428.026L428.129 404.787ZM431.232 402.791L431.213 404.891C431.076 404.866 430.926 404.847 430.763 404.834C430.607 404.822 430.451 404.816 430.295 404.816C429.907 404.816 429.566 404.872 429.273 404.984C428.979 405.091 428.732 405.247 428.532 405.453C428.338 405.653 428.188 405.897 428.082 406.184C427.976 406.472 427.913 406.794 427.895 407.15L427.379 407.187C427.379 406.55 427.441 405.959 427.566 405.416C427.691 404.872 427.879 404.394 428.129 403.981C428.385 403.569 428.704 403.247 429.085 403.016C429.473 402.784 429.92 402.669 430.426 402.669C430.563 402.669 430.71 402.681 430.866 402.706C431.029 402.731 431.151 402.759 431.232 402.791ZM438.626 410.253C438.626 410.028 438.57 409.825 438.458 409.644C438.345 409.456 438.129 409.287 437.811 409.137C437.498 408.987 437.036 408.85 436.423 408.725C435.886 408.606 435.392 408.466 434.942 408.303C434.498 408.134 434.117 407.931 433.798 407.694C433.479 407.456 433.233 407.175 433.058 406.85C432.883 406.525 432.795 406.15 432.795 405.725C432.795 405.312 432.886 404.922 433.067 404.553C433.248 404.184 433.508 403.859 433.845 403.578C434.183 403.297 434.592 403.075 435.073 402.912C435.561 402.75 436.104 402.669 436.704 402.669C437.554 402.669 438.283 402.812 438.889 403.1C439.501 403.381 439.97 403.766 440.295 404.253C440.62 404.734 440.783 405.278 440.783 405.884H438.523C438.523 405.616 438.454 405.366 438.317 405.134C438.186 404.897 437.986 404.706 437.717 404.562C437.448 404.412 437.111 404.337 436.704 404.337C436.317 404.337 435.995 404.4 435.739 404.525C435.489 404.644 435.301 404.8 435.176 404.994C435.058 405.187 434.998 405.4 434.998 405.631C434.998 405.8 435.029 405.953 435.092 406.091C435.161 406.222 435.273 406.344 435.429 406.456C435.586 406.562 435.798 406.662 436.067 406.756C436.342 406.85 436.686 406.941 437.098 407.028C437.873 407.191 438.539 407.4 439.095 407.656C439.658 407.906 440.089 408.231 440.389 408.631C440.689 409.025 440.839 409.525 440.839 410.131C440.839 410.581 440.742 410.994 440.548 411.369C440.361 411.737 440.086 412.059 439.723 412.334C439.361 412.603 438.926 412.812 438.42 412.962C437.92 413.113 437.358 413.188 436.733 413.188C435.814 413.188 435.036 413.025 434.398 412.7C433.761 412.369 433.276 411.947 432.945 411.434C432.62 410.916 432.458 410.378 432.458 409.822H434.642C434.667 410.241 434.783 410.575 434.989 410.825C435.201 411.069 435.464 411.247 435.776 411.359C436.095 411.466 436.423 411.519 436.761 411.519C437.167 411.519 437.508 411.466 437.783 411.359C438.058 411.247 438.267 411.097 438.411 410.909C438.554 410.716 438.626 410.497 438.626 410.253Z" fill="#999999"/>
<path d="M508.8 353.6H497.6V364.8H508.8V353.6Z" stroke="#999999" stroke-width="3.2" stroke-linecap="round" stroke-linejoin="round"/>
<path d="M526.4 353.6H515.2V364.8H526.4V353.6Z" stroke="#999999" stroke-width="3.2" stroke-linecap="round" stroke-linejoin="round"/>
<path d="M526.4 371.2H515.2V382.4H526.4V371.2Z" stroke="#999999" stroke-width="3.2" stroke-linecap="round" stroke-linejoin="round"/>
<path d="M508.8 371.2H497.6V382.4H508.8V371.2Z" stroke="#999999" stroke-width="3.2" stroke-linecap="round" stroke-linejoin="round"/>
<path d="M486.639 408.556H488.983C488.908 409.45 488.658 410.247 488.233 410.947C487.808 411.641 487.211 412.187 486.442 412.587C485.673 412.987 484.739 413.188 483.639 413.188C482.795 413.188 482.036 413.038 481.361 412.737C480.686 412.431 480.108 412 479.626 411.444C479.145 410.881 478.776 410.203 478.52 409.409C478.27 408.616 478.145 407.728 478.145 406.747V405.612C478.145 404.631 478.273 403.744 478.53 402.95C478.792 402.156 479.167 401.478 479.655 400.916C480.142 400.347 480.726 399.912 481.408 399.612C482.095 399.312 482.867 399.162 483.723 399.162C484.811 399.162 485.73 399.362 486.48 399.762C487.23 400.162 487.811 400.716 488.223 401.422C488.642 402.128 488.898 402.937 488.992 403.85H486.648C486.586 403.262 486.448 402.759 486.236 402.341C486.03 401.922 485.723 401.603 485.317 401.384C484.911 401.159 484.38 401.047 483.723 401.047C483.186 401.047 482.717 401.147 482.317 401.347C481.917 401.547 481.583 401.841 481.314 402.228C481.045 402.616 480.842 403.094 480.705 403.662C480.573 404.225 480.508 404.869 480.508 405.594V406.747C480.508 407.434 480.567 408.059 480.686 408.622C480.811 409.178 480.998 409.656 481.248 410.056C481.505 410.456 481.83 410.766 482.223 410.984C482.617 411.203 483.089 411.312 483.639 411.312C484.308 411.312 484.848 411.206 485.261 410.994C485.68 410.781 485.995 410.472 486.208 410.066C486.426 409.653 486.57 409.15 486.639 408.556ZM490.752 408.041V407.825C490.752 407.094 490.858 406.416 491.071 405.791C491.283 405.159 491.589 404.612 491.989 404.15C492.396 403.681 492.889 403.319 493.471 403.062C494.058 402.8 494.721 402.669 495.458 402.669C496.202 402.669 496.864 402.8 497.446 403.062C498.033 403.319 498.53 403.681 498.936 404.15C499.343 404.612 499.652 405.159 499.864 405.791C500.077 406.416 500.183 407.094 500.183 407.825V408.041C500.183 408.772 500.077 409.45 499.864 410.075C499.652 410.7 499.343 411.247 498.936 411.716C498.53 412.178 498.036 412.541 497.455 412.803C496.874 413.059 496.214 413.188 495.477 413.188C494.733 413.188 494.068 413.059 493.48 412.803C492.899 412.541 492.405 412.178 491.999 411.716C491.593 411.247 491.283 410.7 491.071 410.075C490.858 409.45 490.752 408.772 490.752 408.041ZM493.011 407.825V408.041C493.011 408.497 493.058 408.928 493.152 409.334C493.246 409.741 493.393 410.097 493.593 410.403C493.793 410.709 494.049 410.95 494.361 411.125C494.674 411.3 495.046 411.387 495.477 411.387C495.896 411.387 496.258 411.3 496.564 411.125C496.877 410.95 497.133 410.709 497.333 410.403C497.533 410.097 497.68 409.741 497.774 409.334C497.874 408.928 497.924 408.497 497.924 408.041V407.825C497.924 407.375 497.874 406.95 497.774 406.55C497.68 406.144 497.53 405.784 497.324 405.472C497.124 405.159 496.868 404.916 496.555 404.741C496.249 404.559 495.883 404.469 495.458 404.469C495.033 404.469 494.664 404.559 494.352 404.741C494.046 404.916 493.793 405.159 493.593 405.472C493.393 405.784 493.246 406.144 493.152 406.55C493.058 406.95 493.011 407.375 493.011 407.825ZM504.606 405.022V413H502.346V402.856H504.474L504.606 405.022ZM504.202 407.553L503.471 407.544C503.477 406.825 503.577 406.166 503.771 405.566C503.971 404.966 504.246 404.45 504.596 404.019C504.952 403.587 505.377 403.256 505.871 403.025C506.365 402.787 506.915 402.669 507.521 402.669C508.009 402.669 508.449 402.737 508.843 402.875C509.243 403.006 509.584 403.222 509.865 403.522C510.152 403.822 510.371 404.212 510.521 404.694C510.671 405.169 510.746 405.753 510.746 406.447V413H508.477V406.437C508.477 405.95 508.406 405.566 508.262 405.284C508.124 404.997 507.921 404.794 507.652 404.675C507.39 404.55 507.062 404.487 506.668 404.487C506.281 404.487 505.934 404.569 505.627 404.731C505.321 404.894 505.062 405.116 504.849 405.397C504.643 405.678 504.484 406.003 504.371 406.372C504.259 406.741 504.202 407.134 504.202 407.553ZM517.99 402.856V404.506H512.272V402.856H517.99ZM513.922 400.372H516.181V410.197C516.181 410.509 516.225 410.75 516.312 410.919C516.406 411.081 516.534 411.191 516.697 411.247C516.859 411.303 517.05 411.331 517.269 411.331C517.425 411.331 517.575 411.322 517.719 411.303C517.862 411.284 517.978 411.266 518.065 411.247L518.075 412.972C517.887 413.028 517.669 413.078 517.419 413.122C517.175 413.166 516.894 413.188 516.575 413.188C516.056 413.188 515.597 413.097 515.197 412.916C514.797 412.728 514.484 412.425 514.259 412.006C514.034 411.587 513.922 411.031 513.922 410.337V400.372ZM524.494 413.188C523.744 413.188 523.066 413.066 522.46 412.822C521.86 412.572 521.347 412.225 520.922 411.781C520.503 411.337 520.182 410.816 519.957 410.216C519.732 409.616 519.619 408.969 519.619 408.275V407.9C519.619 407.106 519.735 406.387 519.966 405.744C520.197 405.1 520.519 404.55 520.932 404.094C521.344 403.631 521.832 403.278 522.394 403.034C522.957 402.791 523.566 402.669 524.222 402.669C524.947 402.669 525.582 402.791 526.125 403.034C526.669 403.278 527.119 403.622 527.475 404.066C527.838 404.503 528.107 405.025 528.282 405.631C528.463 406.237 528.553 406.906 528.553 407.637V408.603H520.716V406.981H526.322V406.803C526.31 406.397 526.228 406.016 526.078 405.659C525.935 405.303 525.713 405.016 525.413 404.797C525.113 404.578 524.713 404.469 524.213 404.469C523.838 404.469 523.503 404.55 523.21 404.712C522.922 404.869 522.682 405.097 522.488 405.397C522.294 405.697 522.144 406.059 522.038 406.484C521.938 406.903 521.888 407.375 521.888 407.9V408.275C521.888 408.719 521.947 409.131 522.066 409.512C522.191 409.887 522.372 410.216 522.61 410.497C522.847 410.778 523.135 411 523.472 411.162C523.81 411.319 524.194 411.397 524.625 411.397C525.169 411.397 525.653 411.287 526.078 411.069C526.503 410.85 526.872 410.541 527.185 410.141L528.375 411.294C528.157 411.612 527.872 411.919 527.522 412.212C527.172 412.5 526.744 412.734 526.238 412.916C525.738 413.097 525.157 413.188 524.494 413.188ZM532.845 405.022V413H530.585V402.856H532.713L532.845 405.022ZM532.441 407.553L531.71 407.544C531.716 406.825 531.816 406.166 532.01 405.566C532.21 404.966 532.485 404.45 532.835 404.019C533.191 403.587 533.616 403.256 534.11 403.025C534.604 402.787 535.154 402.669 535.76 402.669C536.248 402.669 536.688 402.737 537.082 402.875C537.482 403.006 537.823 403.222 538.104 403.522C538.391 403.822 538.61 404.212 538.76 404.694C538.91 405.169 538.985 405.753 538.985 406.447V413H536.716V406.437C536.716 405.95 536.645 405.566 536.501 405.284C536.363 404.997 536.16 404.794 535.891 404.675C535.629 404.55 535.301 404.487 534.907 404.487C534.52 404.487 534.173 404.569 533.866 404.731C533.56 404.894 533.301 405.116 533.088 405.397C532.882 405.678 532.723 406.003 532.61 406.372C532.498 406.741 532.441 407.134 532.441 407.553ZM546.229 402.856V404.506H540.511V402.856H546.229ZM542.161 400.372H544.42V410.197C544.42 410.509 544.464 410.75 544.551 410.919C544.645 411.081 544.773 411.191 544.936 411.247C545.098 411.303 545.289 411.331 545.508 411.331C545.664 411.331 545.814 411.322 545.958 411.303C546.101 411.284 546.217 411.266 546.304 411.247L546.314 412.972C546.126 413.028 545.908 413.078 545.658 413.122C545.414 413.166 545.133 413.188 544.814 413.188C544.295 413.188 543.836 413.097 543.436 412.916C543.036 412.728 542.723 412.425 542.498 412.006C542.273 411.587 542.161 411.031 542.161 410.337V400.372Z" fill="#999999"/>
<g clip-path="url(#clip1_55_25407)">
<path d="M624 372.8C626.651 372.8 628.8 370.651 628.8 368C628.8 365.349 626.651 363.2 624 363.2C621.349 363.2 619.2 365.349 619.2 368C619.2 370.651 621.349 372.8 624 372.8Z" stroke="#999999" stroke-width="3.2" stroke-linecap="round" stroke-linejoin="round"/>
<path d="M635.84 372.8C635.627 373.282 635.563 373.818 635.657 374.337C635.752 374.856 635.999 375.335 636.368 375.712L636.464 375.808C636.761 376.105 636.997 376.458 637.158 376.846C637.32 377.235 637.402 377.651 637.402 378.072C637.402 378.492 637.32 378.909 637.158 379.297C636.997 379.686 636.761 380.039 636.464 380.336C636.167 380.633 635.814 380.869 635.425 381.03C635.037 381.192 634.62 381.274 634.2 381.274C633.779 381.274 633.363 381.192 632.974 381.03C632.586 380.869 632.233 380.633 631.936 380.336L631.84 380.24C631.463 379.871 630.984 379.624 630.465 379.529C629.946 379.435 629.41 379.499 628.928 379.712C628.455 379.915 628.051 380.251 627.767 380.681C627.483 381.11 627.33 381.613 627.328 382.128V382.4C627.328 383.249 626.991 384.063 626.391 384.663C625.791 385.263 624.977 385.6 624.128 385.6C623.279 385.6 622.465 385.263 621.865 384.663C621.265 384.063 620.928 383.249 620.928 382.4V382.256C620.916 381.726 620.744 381.213 620.436 380.782C620.128 380.351 619.697 380.023 619.2 379.84C618.717 379.627 618.182 379.563 617.663 379.657C617.144 379.752 616.665 379.999 616.288 380.368L616.192 380.464C615.895 380.761 615.542 380.997 615.153 381.158C614.765 381.32 614.348 381.402 613.928 381.402C613.507 381.402 613.091 381.32 612.702 381.158C612.314 380.997 611.961 380.761 611.664 380.464C611.366 380.167 611.13 379.814 610.969 379.425C610.808 379.037 610.725 378.62 610.725 378.2C610.725 377.779 610.808 377.363 610.969 376.974C611.13 376.586 611.366 376.233 611.664 375.936L611.76 375.84C612.129 375.463 612.376 374.984 612.47 374.465C612.564 373.946 612.501 373.41 612.288 372.928C612.085 372.455 611.748 372.051 611.319 371.767C610.89 371.483 610.387 371.33 609.872 371.328H609.6C608.751 371.328 607.937 370.991 607.337 370.391C606.737 369.791 606.4 368.977 606.4 368.128C606.4 367.279 606.737 366.465 607.337 365.865C607.937 365.265 608.751 364.928 609.6 364.928H609.744C610.273 364.916 610.787 364.744 611.218 364.436C611.649 364.128 611.977 363.697 612.16 363.2C612.373 362.717 612.436 362.182 612.342 361.663C612.248 361.144 612.001 360.665 611.632 360.288L611.536 360.192C611.238 359.895 611.002 359.542 610.841 359.153C610.68 358.765 610.597 358.348 610.597 357.928C610.597 357.507 610.68 357.091 610.841 356.702C611.002 356.314 611.238 355.961 611.536 355.664C611.833 355.366 612.186 355.13 612.574 354.969C612.963 354.808 613.379 354.725 613.8 354.725C614.22 354.725 614.637 354.808 615.025 354.969C615.414 355.13 615.767 355.366 616.064 355.664L616.16 355.76C616.537 356.129 617.016 356.376 617.535 356.47C618.054 356.564 618.589 356.501 619.072 356.288H619.2C619.673 356.085 620.077 355.748 620.361 355.319C620.645 354.89 620.798 354.387 620.8 353.872V353.6C620.8 352.751 621.137 351.937 621.737 351.337C622.337 350.737 623.151 350.4 624 350.4C624.849 350.4 625.663 350.737 626.263 351.337C626.863 351.937 627.2 352.751 627.2 353.6V353.744C627.202 354.259 627.355 354.762 627.639 355.191C627.923 355.62 628.327 355.957 628.8 356.16C629.282 356.373 629.818 356.436 630.337 356.342C630.856 356.248 631.335 356.001 631.712 355.632L631.808 355.536C632.105 355.238 632.458 355.002 632.846 354.841C633.235 354.68 633.651 354.597 634.072 354.597C634.492 354.597 634.909 354.68 635.297 354.841C635.686 355.002 636.039 355.238 636.336 355.536C636.633 355.833 636.869 356.186 637.03 356.574C637.192 356.963 637.274 357.379 637.274 357.8C637.274 358.22 637.192 358.637 637.03 359.025C636.869 359.414 636.633 359.767 636.336 360.064L636.24 360.16C635.871 360.537 635.624 361.016 635.529 361.535C635.435 362.054 635.499 362.589 635.712 363.072V363.2C635.915 363.673 636.251 364.077 636.681 364.361C637.11 364.645 637.613 364.798 638.128 364.8H638.4C639.249 364.8 640.063 365.137 640.663 365.737C641.263 366.337 641.6 367.151 641.6 368C641.6 368.849 641.263 369.663 640.663 370.263C640.063 370.863 639.249 371.2 638.4 371.2H638.256C637.741 371.202 637.238 371.355 636.809 371.639C636.379 371.923 636.043 372.327 635.84 372.8V372.8Z" stroke="#999999" stroke-width="3.2" stroke-linecap="round" stroke-linejoin="round"/>
</g>
<path d="M609.286 406.025V411.237C609.093 411.494 608.789 411.775 608.377 412.081C607.971 412.381 607.43 412.641 606.755 412.859C606.08 413.078 605.239 413.188 604.233 413.188C603.377 413.188 602.593 413.044 601.88 412.756C601.168 412.462 600.552 412.034 600.033 411.472C599.521 410.909 599.124 410.225 598.843 409.419C598.561 408.606 598.421 407.681 598.421 406.644V405.697C598.421 404.666 598.549 403.747 598.805 402.941C599.068 402.128 599.443 401.441 599.93 400.878C600.418 400.316 601.005 399.891 601.693 399.603C602.386 399.309 603.171 399.162 604.046 399.162C605.164 399.162 606.089 399.35 606.821 399.725C607.558 400.094 608.127 400.606 608.527 401.262C608.927 401.919 609.18 402.669 609.286 403.512H606.98C606.905 403.037 606.758 402.612 606.539 402.237C606.327 401.862 606.021 401.569 605.621 401.356C605.227 401.137 604.714 401.028 604.083 401.028C603.539 401.028 603.061 401.131 602.649 401.337C602.236 401.544 601.893 401.847 601.618 402.247C601.349 402.647 601.146 403.134 601.008 403.709C600.871 404.284 600.802 404.941 600.802 405.678V406.644C600.802 407.394 600.88 408.059 601.036 408.641C601.199 409.222 601.43 409.712 601.73 410.112C602.036 410.512 602.408 410.816 602.846 411.022C603.283 411.222 603.777 411.322 604.327 411.322C604.864 411.322 605.305 411.278 605.649 411.191C605.993 411.097 606.264 410.987 606.464 410.862C606.671 410.731 606.83 410.606 606.943 410.487V407.778H604.102V406.025H609.286ZM614.224 404.787V413H611.965V402.856H614.121L614.224 404.787ZM617.327 402.791L617.309 404.891C617.171 404.866 617.021 404.847 616.859 404.834C616.702 404.822 616.546 404.816 616.39 404.816C616.002 404.816 615.662 404.872 615.368 404.984C615.074 405.091 614.827 405.247 614.627 405.453C614.434 405.653 614.284 405.897 614.177 406.184C614.071 406.472 614.009 406.794 613.99 407.15L613.474 407.187C613.474 406.55 613.537 405.959 613.662 405.416C613.787 404.872 613.974 404.394 614.224 403.981C614.481 403.569 614.799 403.247 615.181 403.016C615.568 402.784 616.015 402.669 616.521 402.669C616.659 402.669 616.806 402.681 616.962 402.706C617.124 402.731 617.246 402.759 617.327 402.791ZM618.356 408.041V407.825C618.356 407.094 618.462 406.416 618.675 405.791C618.887 405.159 619.194 404.612 619.594 404.15C620 403.681 620.494 403.319 621.075 403.062C621.662 402.8 622.325 402.669 623.062 402.669C623.806 402.669 624.469 402.8 625.05 403.062C625.637 403.319 626.134 403.681 626.54 404.15C626.947 404.612 627.256 405.159 627.469 405.791C627.681 406.416 627.787 407.094 627.787 407.825V408.041C627.787 408.772 627.681 409.45 627.469 410.075C627.256 410.7 626.947 411.247 626.54 411.716C626.134 412.178 625.64 412.541 625.059 412.803C624.478 413.059 623.819 413.188 623.081 413.188C622.337 413.188 621.672 413.059 621.084 412.803C620.503 412.541 620.009 412.178 619.603 411.716C619.197 411.247 618.887 410.7 618.675 410.075C618.462 409.45 618.356 408.772 618.356 408.041ZM620.615 407.825V408.041C620.615 408.497 620.662 408.928 620.756 409.334C620.85 409.741 620.997 410.097 621.197 410.403C621.397 410.709 621.653 410.95 621.965 411.125C622.278 411.3 622.65 411.387 623.081 411.387C623.5 411.387 623.862 411.3 624.169 411.125C624.481 410.95 624.737 410.709 624.937 410.403C625.137 410.097 625.284 409.741 625.378 409.334C625.478 408.928 625.528 408.497 625.528 408.041V407.825C625.528 407.375 625.478 406.95 625.378 406.55C625.284 406.144 625.134 405.784 624.928 405.472C624.728 405.159 624.472 404.916 624.159 404.741C623.853 404.559 623.487 404.469 623.062 404.469C622.637 404.469 622.269 404.559 621.956 404.741C621.65 404.916 621.397 405.159 621.197 405.472C620.997 405.784 620.85 406.144 620.756 406.55C620.662 406.95 620.615 407.375 620.615 407.825ZM636.072 410.609V402.856H638.341V413H636.203L636.072 410.609ZM636.391 408.5L637.15 408.481C637.15 409.162 637.075 409.791 636.925 410.366C636.775 410.934 636.544 411.431 636.232 411.856C635.919 412.275 635.519 412.603 635.032 412.841C634.544 413.072 633.96 413.188 633.278 413.188C632.785 413.188 632.332 413.116 631.919 412.972C631.507 412.828 631.15 412.606 630.85 412.306C630.557 412.006 630.328 411.616 630.166 411.134C630.003 410.653 629.922 410.078 629.922 409.409V402.856H632.182V409.428C632.182 409.797 632.225 410.106 632.313 410.356C632.4 410.6 632.519 410.797 632.669 410.947C632.819 411.097 632.994 411.203 633.194 411.266C633.394 411.328 633.607 411.359 633.832 411.359C634.475 411.359 634.982 411.234 635.35 410.984C635.725 410.728 635.991 410.384 636.147 409.953C636.31 409.522 636.391 409.037 636.391 408.5ZM643.213 404.806V416.9H640.954V402.856H643.035L643.213 404.806ZM649.823 407.834V408.031C649.823 408.769 649.735 409.453 649.56 410.084C649.391 410.709 649.138 411.256 648.801 411.725C648.47 412.187 648.06 412.547 647.573 412.803C647.085 413.059 646.523 413.188 645.885 413.188C645.254 413.188 644.701 413.072 644.226 412.841C643.757 412.603 643.36 412.269 643.035 411.837C642.71 411.406 642.448 410.9 642.248 410.319C642.054 409.731 641.916 409.087 641.835 408.387V407.628C641.916 406.884 642.054 406.209 642.248 405.603C642.448 404.997 642.71 404.475 643.035 404.037C643.36 403.6 643.757 403.262 644.226 403.025C644.695 402.787 645.241 402.669 645.866 402.669C646.504 402.669 647.07 402.794 647.563 403.044C648.057 403.287 648.473 403.637 648.81 404.094C649.148 404.544 649.401 405.087 649.57 405.725C649.738 406.356 649.823 407.059 649.823 407.834ZM647.563 408.031V407.834C647.563 407.366 647.52 406.931 647.432 406.531C647.345 406.125 647.207 405.769 647.02 405.462C646.832 405.156 646.591 404.919 646.298 404.75C646.01 404.575 645.663 404.487 645.257 404.487C644.857 404.487 644.513 404.556 644.226 404.694C643.938 404.825 643.698 405.009 643.504 405.247C643.31 405.484 643.16 405.762 643.054 406.081C642.948 406.394 642.873 406.734 642.829 407.103V408.922C642.904 409.372 643.032 409.784 643.213 410.159C643.395 410.534 643.651 410.834 643.982 411.059C644.32 411.278 644.751 411.387 645.276 411.387C645.682 411.387 646.029 411.3 646.316 411.125C646.604 410.95 646.838 410.709 647.02 410.403C647.207 410.091 647.345 409.731 647.432 409.325C647.52 408.919 647.563 408.487 647.563 408.031Z" fill="#999999"/>
<rect x="295.2" y="456" width="211.579" height="7.89474" rx="3.94737" fill="black"/>
<defs>
<clipPath id="clip0_55_25407">
<rect width="38.4" height="38.4" fill="white" transform="translate(380.8 348.8)"/>
</clipPath>
<clipPath id="clip1_55_25407">
<rect width="38.4" height="38.4" fill="white" transform="translate(604.8 348.8)"/>
</clipPath>
</defs>
</svg>
