<svg width="800" height="800" viewBox="0 0 800 800" fill="none" xmlns="http://www.w3.org/2000/svg">
<rect width="800" height="800" fill="#1F1F1F"/>
<rect x="100" y="273.926" width="600" height="252.149" rx="8" fill="white"/>
<path d="M133.209 323.736L137.99 308.879H141.449L134.932 327.057H132.597L133.209 323.736ZM128.789 308.879L133.533 323.736L134.182 327.057H131.835L125.343 308.879H128.789ZM146.405 313.548V327.057H143.384V313.548H146.405ZM143.184 310.002C143.184 309.544 143.334 309.166 143.634 308.866C143.942 308.558 144.366 308.404 144.907 308.404C145.44 308.404 145.86 308.558 146.168 308.866C146.476 309.166 146.63 309.544 146.63 310.002C146.63 310.452 146.476 310.826 146.168 311.126C145.86 311.425 145.44 311.575 144.907 311.575C144.366 311.575 143.942 311.425 143.634 311.126C143.334 310.826 143.184 310.452 143.184 310.002ZM157.28 323.399C157.28 323.099 157.205 322.828 157.055 322.587C156.905 322.337 156.618 322.113 156.193 321.913C155.777 321.713 155.161 321.53 154.346 321.363C153.63 321.205 152.972 321.018 152.373 320.802C151.782 320.577 151.274 320.306 150.85 319.99C150.425 319.674 150.097 319.299 149.864 318.867C149.631 318.434 149.514 317.934 149.514 317.368C149.514 316.819 149.635 316.299 149.876 315.808C150.117 315.317 150.463 314.884 150.912 314.509C151.362 314.135 151.907 313.839 152.548 313.623C153.197 313.406 153.921 313.298 154.72 313.298C155.852 313.298 156.822 313.49 157.629 313.873C158.445 314.247 159.069 314.759 159.502 315.408C159.935 316.049 160.151 316.773 160.151 317.581H157.142C157.142 317.223 157.051 316.89 156.868 316.582C156.693 316.265 156.427 316.012 156.069 315.82C155.711 315.62 155.261 315.521 154.72 315.521C154.204 315.521 153.776 315.604 153.434 315.77C153.101 315.928 152.852 316.136 152.685 316.394C152.527 316.652 152.448 316.935 152.448 317.243C152.448 317.468 152.49 317.672 152.573 317.855C152.664 318.03 152.814 318.192 153.022 318.342C153.23 318.484 153.513 318.617 153.871 318.742C154.237 318.867 154.695 318.987 155.245 319.104C156.277 319.32 157.163 319.599 157.904 319.94C158.653 320.273 159.227 320.706 159.627 321.239C160.026 321.763 160.226 322.429 160.226 323.236C160.226 323.836 160.097 324.385 159.839 324.884C159.589 325.375 159.223 325.804 158.74 326.17C158.258 326.528 157.679 326.807 157.005 327.007C156.339 327.206 155.59 327.306 154.758 327.306C153.534 327.306 152.498 327.09 151.649 326.657C150.8 326.216 150.155 325.654 149.714 324.972C149.281 324.281 149.065 323.565 149.065 322.824H151.974C152.007 323.382 152.161 323.827 152.435 324.16C152.718 324.485 153.068 324.722 153.484 324.872C153.909 325.013 154.346 325.084 154.795 325.084C155.336 325.084 155.79 325.013 156.156 324.872C156.522 324.722 156.801 324.522 156.993 324.272C157.184 324.014 157.28 323.723 157.28 323.399ZM166.082 313.548V327.057H163.06V313.548H166.082ZM162.86 310.002C162.86 309.544 163.01 309.166 163.31 308.866C163.618 308.558 164.042 308.404 164.583 308.404C165.116 308.404 165.536 308.558 165.844 308.866C166.152 309.166 166.306 309.544 166.306 310.002C166.306 310.452 166.152 310.826 165.844 311.126C165.536 311.425 165.116 311.575 164.583 311.575C164.042 311.575 163.618 311.425 163.31 311.126C163.01 310.826 162.86 310.452 162.86 310.002ZM169.39 307.88H172.399V324.173L172.112 327.057H169.39V307.88ZM181.213 320.177V320.44C181.213 321.438 181.101 322.358 180.876 323.199C180.66 324.031 180.327 324.755 179.877 325.371C179.436 325.987 178.887 326.466 178.229 326.807C177.58 327.14 176.827 327.306 175.97 327.306C175.129 327.306 174.397 327.148 173.772 326.832C173.148 326.516 172.624 326.066 172.199 325.484C171.783 324.901 171.446 324.206 171.188 323.399C170.93 322.591 170.747 321.701 170.639 320.727V319.89C170.747 318.908 170.93 318.018 171.188 317.218C171.446 316.411 171.783 315.716 172.199 315.133C172.624 314.543 173.144 314.089 173.76 313.773C174.384 313.456 175.112 313.298 175.945 313.298C176.81 313.298 177.572 313.465 178.229 313.798C178.895 314.131 179.449 314.605 179.89 315.221C180.331 315.828 180.66 316.553 180.876 317.393C181.101 318.234 181.213 319.162 181.213 320.177ZM178.204 320.44V320.177C178.204 319.57 178.155 319 178.055 318.467C177.955 317.926 177.788 317.452 177.555 317.044C177.331 316.636 177.023 316.315 176.631 316.082C176.248 315.841 175.77 315.72 175.196 315.72C174.663 315.72 174.205 315.812 173.822 315.995C173.439 316.178 173.119 316.428 172.861 316.744C172.603 317.06 172.399 317.427 172.249 317.843C172.108 318.259 172.012 318.708 171.962 319.191V321.451C172.037 322.075 172.195 322.649 172.436 323.174C172.686 323.69 173.036 324.106 173.485 324.422C173.935 324.73 174.513 324.884 175.221 324.884C175.778 324.884 176.248 324.772 176.631 324.547C177.014 324.322 177.318 324.01 177.543 323.611C177.776 323.203 177.942 322.729 178.042 322.188C178.15 321.646 178.204 321.064 178.204 320.44ZM186.981 313.548V327.057H183.96V313.548H186.981ZM183.76 310.002C183.76 309.544 183.91 309.166 184.21 308.866C184.518 308.558 184.942 308.404 185.483 308.404C186.016 308.404 186.436 308.558 186.744 308.866C187.052 309.166 187.206 309.544 187.206 310.002C187.206 310.452 187.052 310.826 186.744 311.126C186.436 311.425 186.016 311.575 185.483 311.575C184.942 311.575 184.518 311.425 184.21 311.126C183.91 310.826 183.76 310.452 183.76 310.002ZM193.499 307.88V327.057H190.477V307.88H193.499ZM200.016 313.548V327.057H196.994V313.548H200.016ZM196.795 310.002C196.795 309.544 196.944 309.166 197.244 308.866C197.552 308.558 197.976 308.404 198.518 308.404C199.05 308.404 199.471 308.558 199.778 308.866C200.086 309.166 200.24 309.544 200.24 310.002C200.24 310.452 200.086 310.826 199.778 311.126C199.471 311.425 199.05 311.575 198.518 311.575C197.976 311.575 197.552 311.425 197.244 311.126C196.944 310.826 196.795 310.452 196.795 310.002ZM209.504 313.548V315.745H201.888V313.548H209.504ZM204.086 310.239H207.095V323.324C207.095 323.74 207.153 324.06 207.269 324.285C207.394 324.501 207.565 324.647 207.781 324.722C207.998 324.797 208.252 324.834 208.543 324.834C208.751 324.834 208.951 324.822 209.142 324.797C209.334 324.772 209.488 324.747 209.604 324.722L209.617 327.019C209.367 327.094 209.076 327.161 208.743 327.219C208.418 327.277 208.044 327.306 207.619 327.306C206.928 327.306 206.316 327.186 205.784 326.944C205.251 326.695 204.835 326.291 204.535 325.733C204.236 325.176 204.086 324.435 204.086 323.511V310.239ZM215.747 325.583L219.417 313.548H222.638L217.22 329.117C217.095 329.45 216.933 329.812 216.733 330.203C216.533 330.594 216.271 330.964 215.947 331.314C215.63 331.672 215.235 331.959 214.76 332.175C214.286 332.4 213.712 332.513 213.038 332.513C212.771 332.513 212.513 332.488 212.263 332.438C212.022 332.396 211.793 332.35 211.577 332.3L211.564 330.003C211.648 330.011 211.747 330.02 211.864 330.028C211.989 330.036 212.089 330.041 212.164 330.041C212.663 330.041 213.079 329.978 213.412 329.853C213.745 329.737 214.016 329.545 214.224 329.279C214.44 329.013 214.623 328.655 214.773 328.205L215.747 325.583ZM213.674 313.548L216.883 323.661L217.42 326.832L215.335 327.369L210.428 313.548H213.674Z" fill="#333333"/>
<path d="M132.112 354.996L136.798 341.505H139.081L133.193 357.41H131.565L132.112 354.996ZM127.731 341.505L132.374 354.996L132.953 357.41H131.325L125.448 341.505H127.731ZM143.112 345.59V357.41H141.08V345.59H143.112ZM140.927 342.455C140.927 342.127 141.026 341.85 141.222 341.625C141.426 341.399 141.725 341.286 142.118 341.286C142.504 341.286 142.799 341.399 143.003 341.625C143.214 341.85 143.32 342.127 143.32 342.455C143.32 342.768 143.214 343.038 143.003 343.263C142.799 343.482 142.504 343.591 142.118 343.591C141.725 343.591 141.426 343.482 141.222 343.263C141.026 343.038 140.927 342.768 140.927 342.455ZM153.239 354.275C153.239 353.984 153.174 353.714 153.043 353.467C152.919 353.212 152.66 352.982 152.267 352.778C151.881 352.567 151.298 352.385 150.519 352.232C149.864 352.094 149.27 351.93 148.738 351.741C148.214 351.551 147.766 351.322 147.395 351.052C147.031 350.783 146.75 350.466 146.554 350.102C146.357 349.738 146.259 349.312 146.259 348.824C146.259 348.358 146.361 347.917 146.564 347.502C146.776 347.087 147.071 346.719 147.449 346.399C147.835 346.078 148.298 345.827 148.837 345.645C149.376 345.463 149.976 345.372 150.639 345.372C151.586 345.372 152.394 345.539 153.064 345.874C153.734 346.209 154.248 346.657 154.605 347.218C154.962 347.771 155.14 348.387 155.14 349.064H153.119C153.119 348.736 153.021 348.42 152.824 348.114C152.635 347.801 152.354 347.542 151.983 347.338C151.619 347.134 151.171 347.032 150.639 347.032C150.078 347.032 149.623 347.12 149.274 347.294C148.931 347.462 148.68 347.677 148.52 347.939C148.367 348.201 148.29 348.478 148.29 348.769C148.29 348.988 148.327 349.184 148.4 349.359C148.48 349.527 148.618 349.683 148.815 349.829C149.011 349.967 149.288 350.098 149.645 350.222C150.002 350.346 150.457 350.47 151.011 350.594C151.979 350.812 152.777 351.074 153.403 351.38C154.029 351.686 154.496 352.061 154.801 352.505C155.107 352.95 155.26 353.489 155.26 354.122C155.26 354.639 155.151 355.113 154.932 355.542C154.721 355.972 154.412 356.343 154.004 356.657C153.603 356.963 153.123 357.203 152.562 357.378C152.008 357.545 151.386 357.629 150.694 357.629C149.652 357.629 148.771 357.443 148.05 357.072C147.329 356.7 146.783 356.22 146.411 355.63C146.04 355.04 145.854 354.417 145.854 353.762H147.886C147.915 354.315 148.076 354.756 148.367 355.084C148.658 355.404 149.015 355.633 149.438 355.772C149.86 355.903 150.279 355.968 150.694 355.968C151.247 355.968 151.71 355.896 152.081 355.75C152.46 355.604 152.748 355.404 152.944 355.149C153.141 354.894 153.239 354.603 153.239 354.275ZM160.111 345.59V357.41H158.079V345.59H160.111ZM157.926 342.455C157.926 342.127 158.024 341.85 158.221 341.625C158.425 341.399 158.723 341.286 159.117 341.286C159.503 341.286 159.797 341.399 160.001 341.625C160.213 341.85 160.318 342.127 160.318 342.455C160.318 342.768 160.213 343.038 160.001 343.263C159.797 343.482 159.503 343.591 159.117 343.591C158.723 343.591 158.425 343.482 158.221 343.263C158.024 343.038 157.926 342.768 157.926 342.455ZM163.344 340.631H165.376V355.116L165.201 357.41H163.344V340.631ZM173.362 351.402V351.631C173.362 352.491 173.26 353.288 173.056 354.024C172.852 354.752 172.553 355.386 172.16 355.925C171.767 356.464 171.286 356.882 170.718 357.181C170.15 357.48 169.498 357.629 168.763 357.629C168.013 357.629 167.353 357.501 166.785 357.247C166.225 356.984 165.751 356.609 165.365 356.121C164.979 355.633 164.67 355.043 164.437 354.352C164.211 353.66 164.054 352.88 163.967 352.014V351.009C164.054 350.135 164.211 349.352 164.437 348.66C164.67 347.968 164.979 347.378 165.365 346.89C165.751 346.395 166.225 346.02 166.785 345.765C167.346 345.503 167.998 345.372 168.741 345.372C169.484 345.372 170.143 345.517 170.718 345.809C171.294 346.093 171.774 346.501 172.16 347.032C172.553 347.564 172.852 348.201 173.056 348.944C173.26 349.68 173.362 350.499 173.362 351.402ZM171.33 351.631V351.402C171.33 350.812 171.275 350.259 171.166 349.742C171.057 349.217 170.882 348.758 170.642 348.365C170.401 347.964 170.085 347.651 169.691 347.426C169.298 347.192 168.814 347.076 168.238 347.076C167.729 347.076 167.284 347.163 166.906 347.338C166.534 347.513 166.217 347.75 165.955 348.048C165.693 348.34 165.478 348.675 165.311 349.053C165.15 349.425 165.03 349.811 164.95 350.211V352.844C165.067 353.354 165.256 353.845 165.518 354.319C165.788 354.785 166.145 355.167 166.589 355.466C167.04 355.764 167.597 355.914 168.26 355.914C168.806 355.914 169.273 355.805 169.659 355.586C170.052 355.36 170.369 355.051 170.609 354.657C170.857 354.264 171.039 353.809 171.155 353.292C171.272 352.775 171.33 352.221 171.33 351.631ZM178.114 340.631V357.41H176.082V340.631H178.114ZM186.264 357.629C185.441 357.629 184.694 357.491 184.024 357.214C183.361 356.93 182.79 356.533 182.309 356.023C181.836 355.513 181.471 354.909 181.216 354.21C180.962 353.51 180.834 352.746 180.834 351.915V351.457C180.834 350.495 180.976 349.64 181.26 348.889C181.544 348.132 181.93 347.491 182.418 346.967C182.906 346.442 183.46 346.045 184.079 345.776C184.698 345.507 185.339 345.372 186.001 345.372C186.846 345.372 187.574 345.517 188.186 345.809C188.805 346.1 189.311 346.508 189.705 347.032C190.098 347.549 190.389 348.161 190.579 348.868C190.768 349.567 190.863 350.331 190.863 351.162V352.068H182.036V350.419H188.842V350.266C188.813 349.742 188.703 349.232 188.514 348.736C188.332 348.241 188.041 347.833 187.64 347.513C187.239 347.192 186.693 347.032 186.001 347.032C185.543 347.032 185.12 347.131 184.734 347.327C184.348 347.517 184.017 347.801 183.74 348.179C183.463 348.558 183.248 349.021 183.095 349.567C182.943 350.113 182.866 350.743 182.866 351.457V351.915C182.866 352.476 182.943 353.004 183.095 353.499C183.256 353.987 183.485 354.417 183.784 354.789C184.09 355.16 184.457 355.451 184.887 355.663C185.324 355.874 185.819 355.979 186.373 355.979C187.086 355.979 187.691 355.834 188.186 355.542C188.681 355.251 189.115 354.861 189.486 354.373L190.71 355.346C190.455 355.732 190.131 356.099 189.737 356.449C189.344 356.799 188.86 357.083 188.285 357.301C187.716 357.52 187.043 357.629 186.264 357.629ZM203.721 345.59V347.142H197.33V345.59H203.721ZM199.493 342.717H201.514V354.483C201.514 354.883 201.576 355.185 201.7 355.389C201.823 355.593 201.984 355.728 202.18 355.794C202.377 355.859 202.588 355.892 202.814 355.892C202.981 355.892 203.156 355.877 203.338 355.848C203.528 355.812 203.67 355.783 203.764 355.761L203.775 357.41C203.615 357.461 203.404 357.509 203.142 357.552C202.887 357.603 202.577 357.629 202.213 357.629C201.718 357.629 201.263 357.531 200.848 357.334C200.432 357.137 200.101 356.81 199.853 356.351C199.613 355.885 199.493 355.258 199.493 354.472V342.717ZM205.337 351.631V351.38C205.337 350.528 205.461 349.738 205.709 349.01C205.956 348.274 206.313 347.637 206.779 347.098C207.246 346.552 207.81 346.129 208.473 345.831C209.135 345.525 209.878 345.372 210.701 345.372C211.532 345.372 212.278 345.525 212.941 345.831C213.611 346.129 214.179 346.552 214.645 347.098C215.118 347.637 215.479 348.274 215.726 349.01C215.974 349.738 216.098 350.528 216.098 351.38V351.631C216.098 352.484 215.974 353.274 215.726 354.002C215.479 354.73 215.118 355.368 214.645 355.914C214.179 356.453 213.614 356.875 212.952 357.181C212.296 357.48 211.553 357.629 210.723 357.629C209.893 357.629 209.146 357.48 208.484 357.181C207.821 356.875 207.253 356.453 206.779 355.914C206.313 355.368 205.956 354.73 205.709 354.002C205.461 353.274 205.337 352.484 205.337 351.631ZM207.358 351.38V351.631C207.358 352.221 207.428 352.778 207.566 353.303C207.704 353.82 207.912 354.279 208.189 354.679C208.473 355.08 208.826 355.397 209.248 355.63C209.671 355.856 210.162 355.968 210.723 355.968C211.277 355.968 211.761 355.856 212.176 355.63C212.598 355.397 212.948 355.08 213.225 354.679C213.502 354.279 213.709 353.82 213.847 353.303C213.993 352.778 214.066 352.221 214.066 351.631V351.38C214.066 350.798 213.993 350.248 213.847 349.731C213.709 349.206 213.498 348.744 213.214 348.343C212.937 347.935 212.588 347.615 212.165 347.382C211.75 347.149 211.262 347.032 210.701 347.032C210.148 347.032 209.66 347.149 209.237 347.382C208.822 347.615 208.473 347.935 208.189 348.343C207.912 348.744 207.704 349.206 207.566 349.731C207.428 350.248 207.358 350.798 207.358 351.38ZM231.152 355.389V349.305C231.152 348.838 231.057 348.434 230.868 348.092C230.686 347.742 230.409 347.473 230.037 347.284C229.666 347.094 229.207 346.999 228.661 346.999C228.151 346.999 227.703 347.087 227.317 347.262C226.939 347.436 226.64 347.666 226.421 347.95C226.21 348.234 226.105 348.54 226.105 348.868H224.084C224.084 348.445 224.193 348.026 224.411 347.611C224.63 347.196 224.943 346.821 225.351 346.486C225.766 346.144 226.261 345.874 226.837 345.678C227.419 345.474 228.067 345.372 228.781 345.372C229.64 345.372 230.398 345.517 231.053 345.809C231.716 346.1 232.233 346.541 232.605 347.131C232.983 347.713 233.173 348.445 233.173 349.326V354.832C233.173 355.226 233.205 355.644 233.271 356.089C233.344 356.533 233.449 356.915 233.588 357.236V357.41H231.479C231.377 357.177 231.297 356.868 231.239 356.482C231.181 356.089 231.152 355.724 231.152 355.389ZM231.501 350.244L231.523 351.664H229.48C228.905 351.664 228.391 351.712 227.94 351.806C227.488 351.894 227.11 352.028 226.804 352.21C226.498 352.392 226.265 352.622 226.105 352.899C225.944 353.168 225.864 353.485 225.864 353.849C225.864 354.22 225.948 354.559 226.116 354.865C226.283 355.171 226.534 355.415 226.869 355.597C227.212 355.772 227.63 355.859 228.126 355.859C228.745 355.859 229.291 355.728 229.764 355.466C230.238 355.204 230.613 354.883 230.889 354.505C231.174 354.126 231.326 353.758 231.348 353.401L232.211 354.373C232.16 354.679 232.022 355.018 231.796 355.389C231.57 355.761 231.268 356.118 230.889 356.46C230.518 356.795 230.074 357.075 229.557 357.301C229.047 357.52 228.472 357.629 227.831 357.629C227.03 357.629 226.327 357.472 225.722 357.159C225.125 356.846 224.659 356.427 224.324 355.903C223.996 355.371 223.832 354.778 223.832 354.122C223.832 353.489 223.956 352.931 224.204 352.451C224.451 351.963 224.808 351.559 225.274 351.238C225.74 350.91 226.301 350.663 226.957 350.495C227.612 350.328 228.344 350.244 229.153 350.244H231.501ZM238.547 340.631V357.41H236.516V340.631H238.547ZM243.988 340.631V357.41H241.956V340.631H243.988ZM254.792 347.939V357.41H252.76V345.59H254.683L254.792 347.939ZM254.377 351.052L253.437 351.02C253.445 350.211 253.55 349.465 253.754 348.78C253.958 348.088 254.26 347.487 254.661 346.978C255.061 346.468 255.56 346.075 256.157 345.798C256.755 345.514 257.447 345.372 258.233 345.372C258.787 345.372 259.296 345.452 259.763 345.612C260.229 345.765 260.633 346.009 260.975 346.344C261.317 346.679 261.583 347.109 261.773 347.633C261.962 348.157 262.057 348.791 262.057 349.534V357.41H260.036V349.632C260.036 349.013 259.93 348.518 259.719 348.147C259.515 347.775 259.224 347.506 258.845 347.338C258.466 347.163 258.022 347.076 257.512 347.076C256.915 347.076 256.416 347.182 256.015 347.393C255.615 347.604 255.294 347.895 255.054 348.267C254.814 348.638 254.639 349.064 254.53 349.545C254.428 350.018 254.377 350.521 254.377 351.052ZM262.035 349.938L260.68 350.353C260.687 349.705 260.793 349.082 260.997 348.485C261.208 347.888 261.51 347.356 261.904 346.89C262.304 346.424 262.796 346.056 263.378 345.787C263.961 345.51 264.628 345.372 265.378 345.372C266.011 345.372 266.572 345.456 267.06 345.623C267.555 345.791 267.97 346.049 268.305 346.399C268.648 346.741 268.906 347.182 269.081 347.721C269.256 348.259 269.343 348.9 269.343 349.643V357.41H267.311V349.621C267.311 348.959 267.206 348.445 266.994 348.081C266.791 347.71 266.499 347.451 266.121 347.305C265.749 347.152 265.305 347.076 264.788 347.076C264.343 347.076 263.95 347.152 263.608 347.305C263.266 347.458 262.978 347.67 262.745 347.939C262.512 348.201 262.333 348.503 262.21 348.846C262.093 349.188 262.035 349.552 262.035 349.938ZM277.307 357.629C276.484 357.629 275.738 357.491 275.068 357.214C274.405 356.93 273.833 356.533 273.352 356.023C272.879 355.513 272.515 354.909 272.26 354.21C272.005 353.51 271.878 352.746 271.878 351.915V351.457C271.878 350.495 272.02 349.64 272.304 348.889C272.588 348.132 272.974 347.491 273.462 346.967C273.95 346.442 274.503 346.045 275.122 345.776C275.741 345.507 276.382 345.372 277.045 345.372C277.89 345.372 278.618 345.517 279.23 345.809C279.849 346.1 280.355 346.508 280.748 347.032C281.141 347.549 281.433 348.161 281.622 348.868C281.812 349.567 281.906 350.331 281.906 351.162V352.068H273.079V350.419H279.885V350.266C279.856 349.742 279.747 349.232 279.557 348.736C279.375 348.241 279.084 347.833 278.683 347.513C278.283 347.192 277.737 347.032 277.045 347.032C276.586 347.032 276.164 347.131 275.778 347.327C275.392 347.517 275.06 347.801 274.784 348.179C274.507 348.558 274.292 349.021 274.139 349.567C273.986 350.113 273.91 350.743 273.91 351.457V351.915C273.91 352.476 273.986 353.004 274.139 353.499C274.299 353.987 274.529 354.417 274.827 354.789C275.133 355.16 275.501 355.451 275.931 355.663C276.368 355.874 276.863 355.979 277.416 355.979C278.13 355.979 278.734 355.834 279.23 355.542C279.725 355.251 280.158 354.861 280.53 354.373L281.753 355.346C281.498 355.732 281.174 356.099 280.781 356.449C280.388 356.799 279.903 357.083 279.328 357.301C278.76 357.52 278.086 357.629 277.307 357.629ZM286.276 347.939V357.41H284.244V345.59H286.167L286.276 347.939ZM285.861 351.052L284.921 351.02C284.929 350.211 285.034 349.465 285.238 348.78C285.442 348.088 285.744 347.487 286.145 346.978C286.545 346.468 287.044 346.075 287.641 345.798C288.239 345.514 288.931 345.372 289.717 345.372C290.271 345.372 290.78 345.452 291.247 345.612C291.713 345.765 292.117 346.009 292.459 346.344C292.801 346.679 293.067 347.109 293.257 347.633C293.446 348.157 293.541 348.791 293.541 349.534V357.41H291.52V349.632C291.52 349.013 291.414 348.518 291.203 348.147C290.999 347.775 290.708 347.506 290.329 347.338C289.95 347.163 289.506 347.076 288.996 347.076C288.399 347.076 287.9 347.182 287.499 347.393C287.099 347.604 286.778 347.895 286.538 348.267C286.298 348.638 286.123 349.064 286.014 349.545C285.912 350.018 285.861 350.521 285.861 351.052ZM293.519 349.938L292.164 350.353C292.171 349.705 292.277 349.082 292.481 348.485C292.692 347.888 292.994 347.356 293.388 346.89C293.788 346.424 294.28 346.056 294.862 345.787C295.445 345.51 296.111 345.372 296.862 345.372C297.495 345.372 298.056 345.456 298.544 345.623C299.039 345.791 299.454 346.049 299.789 346.399C300.132 346.741 300.39 347.182 300.565 347.721C300.74 348.259 300.827 348.9 300.827 349.643V357.41H298.795V349.621C298.795 348.959 298.69 348.445 298.478 348.081C298.274 347.71 297.983 347.451 297.604 347.305C297.233 347.152 296.789 347.076 296.272 347.076C295.827 347.076 295.434 347.152 295.092 347.305C294.75 347.458 294.462 347.67 294.229 347.939C293.996 348.201 293.817 348.503 293.694 348.846C293.577 349.188 293.519 349.552 293.519 349.938ZM303.875 340.631H305.907V355.116L305.732 357.41H303.875V340.631ZM313.893 351.402V351.631C313.893 352.491 313.791 353.288 313.587 354.024C313.383 354.752 313.084 355.386 312.691 355.925C312.298 356.464 311.817 356.882 311.249 357.181C310.681 357.48 310.029 357.629 309.294 357.629C308.543 357.629 307.884 357.501 307.316 357.247C306.755 356.984 306.282 356.609 305.896 356.121C305.51 355.633 305.201 355.043 304.967 354.352C304.742 353.66 304.585 352.88 304.498 352.014V351.009C304.585 350.135 304.742 349.352 304.967 348.66C305.201 347.968 305.51 347.378 305.896 346.89C306.282 346.395 306.755 346.02 307.316 345.765C307.877 345.503 308.529 345.372 309.272 345.372C310.015 345.372 310.674 345.517 311.249 345.809C311.824 346.093 312.305 346.501 312.691 347.032C313.084 347.564 313.383 348.201 313.587 348.944C313.791 349.68 313.893 350.499 313.893 351.402ZM311.861 351.631V351.402C311.861 350.812 311.806 350.259 311.697 349.742C311.588 349.217 311.413 348.758 311.173 348.365C310.932 347.964 310.615 347.651 310.222 347.426C309.829 347.192 309.345 347.076 308.769 347.076C308.259 347.076 307.815 347.163 307.436 347.338C307.065 347.513 306.748 347.75 306.486 348.048C306.224 348.34 306.009 348.675 305.841 349.053C305.681 349.425 305.561 349.811 305.481 350.211V352.844C305.597 353.354 305.787 353.845 306.049 354.319C306.318 354.785 306.675 355.167 307.12 355.466C307.571 355.764 308.128 355.914 308.791 355.914C309.337 355.914 309.803 355.805 310.189 355.586C310.583 355.36 310.899 355.051 311.14 354.657C311.387 354.264 311.569 353.809 311.686 353.292C311.802 352.775 311.861 352.221 311.861 351.631ZM321.354 357.629C320.531 357.629 319.785 357.491 319.115 357.214C318.452 356.93 317.88 356.533 317.399 356.023C316.926 355.513 316.562 354.909 316.307 354.21C316.052 353.51 315.925 352.746 315.925 351.915V351.457C315.925 350.495 316.067 349.64 316.351 348.889C316.635 348.132 317.021 347.491 317.509 346.967C317.997 346.442 318.55 346.045 319.169 345.776C319.788 345.507 320.429 345.372 321.092 345.372C321.937 345.372 322.665 345.517 323.277 345.809C323.896 346.1 324.402 346.508 324.795 347.032C325.188 347.549 325.48 348.161 325.669 348.868C325.858 349.567 325.953 350.331 325.953 351.162V352.068H317.126V350.419H323.932V350.266C323.903 349.742 323.794 349.232 323.604 348.736C323.422 348.241 323.131 347.833 322.73 347.513C322.33 347.192 321.784 347.032 321.092 347.032C320.633 347.032 320.211 347.131 319.825 347.327C319.439 347.517 319.107 347.801 318.83 348.179C318.554 348.558 318.339 349.021 318.186 349.567C318.033 350.113 317.957 350.743 317.957 351.457V351.915C317.957 352.476 318.033 353.004 318.186 353.499C318.346 353.987 318.576 354.417 318.874 354.789C319.18 355.16 319.548 355.451 319.978 355.663C320.415 355.874 320.91 355.979 321.463 355.979C322.177 355.979 322.781 355.834 323.277 355.542C323.772 355.251 324.205 354.861 324.577 354.373L325.8 355.346C325.545 355.732 325.221 356.099 324.828 356.449C324.435 356.799 323.95 357.083 323.375 357.301C322.807 357.52 322.133 357.629 321.354 357.629ZM330.334 347.447V357.41H328.313V345.59H330.279L330.334 347.447ZM334.026 345.525L334.015 347.404C333.848 347.367 333.688 347.345 333.535 347.338C333.389 347.324 333.221 347.316 333.032 347.316C332.566 347.316 332.155 347.389 331.798 347.535C331.441 347.68 331.139 347.884 330.891 348.147C330.643 348.409 330.447 348.722 330.301 349.086C330.163 349.443 330.072 349.836 330.028 350.266L329.46 350.594C329.46 349.88 329.529 349.21 329.667 348.584C329.813 347.957 330.035 347.404 330.334 346.923C330.632 346.435 331.011 346.056 331.47 345.787C331.936 345.51 332.49 345.372 333.13 345.372C333.276 345.372 333.444 345.39 333.633 345.426C333.822 345.456 333.953 345.488 334.026 345.525ZM342.777 354.275C342.777 353.984 342.711 353.714 342.58 353.467C342.456 353.212 342.198 352.982 341.804 352.778C341.418 352.567 340.836 352.385 340.056 352.232C339.401 352.094 338.807 351.93 338.276 351.741C337.751 351.551 337.304 351.322 336.932 351.052C336.568 350.783 336.288 350.466 336.091 350.102C335.894 349.738 335.796 349.312 335.796 348.824C335.796 348.358 335.898 347.917 336.102 347.502C336.313 347.087 336.608 346.719 336.987 346.399C337.373 346.078 337.835 345.827 338.374 345.645C338.913 345.463 339.514 345.372 340.177 345.372C341.123 345.372 341.932 345.539 342.602 345.874C343.272 346.209 343.785 346.657 344.142 347.218C344.499 347.771 344.677 348.387 344.677 349.064H342.656C342.656 348.736 342.558 348.42 342.362 348.114C342.172 347.801 341.892 347.542 341.52 347.338C341.156 347.134 340.708 347.032 340.177 347.032C339.616 347.032 339.161 347.12 338.811 347.294C338.469 347.462 338.218 347.677 338.057 347.939C337.904 348.201 337.828 348.478 337.828 348.769C337.828 348.988 337.864 349.184 337.937 349.359C338.017 349.527 338.156 349.683 338.352 349.829C338.549 349.967 338.826 350.098 339.183 350.222C339.539 350.346 339.995 350.47 340.548 350.594C341.517 350.812 342.314 351.074 342.941 351.38C343.567 351.686 344.033 352.061 344.339 352.505C344.645 352.95 344.798 353.489 344.798 354.122C344.798 354.639 344.688 355.113 344.47 355.542C344.259 355.972 343.949 356.343 343.541 356.657C343.141 356.963 342.66 357.203 342.099 357.378C341.546 357.545 340.923 357.629 340.231 357.629C339.19 357.629 338.309 357.443 337.588 357.072C336.867 356.7 336.32 356.22 335.949 355.63C335.578 355.04 335.392 354.417 335.392 353.762H337.424C337.453 354.315 337.613 354.756 337.904 355.084C338.196 355.404 338.553 355.633 338.975 355.772C339.397 355.903 339.816 355.968 340.231 355.968C340.785 355.968 341.247 355.896 341.619 355.75C341.997 355.604 342.285 355.404 342.482 355.149C342.678 354.894 342.777 354.603 342.777 354.275Z" fill="#595959"/>
<rect x="585.377" y="305.449" width="89.4923" height="51.1384" rx="25.5692" fill="#7237FF"/>
<circle cx="649.3" cy="331.018" r="19.1769" fill="white"/>
<path d="M138.877 426.848V429.333H129.226V426.848H138.877ZM130.112 411.155V429.333H126.979V411.155H130.112ZM137.616 418.746V421.193H129.226V418.746H137.616ZM138.814 411.155V413.652H129.226V411.155H138.814ZM145.207 426.948L148.515 415.824H151.636L146.942 429.333H144.994L145.207 426.948ZM142.672 415.824L146.043 426.998L146.205 429.333H144.258L139.539 415.824H142.672ZM159.277 429.583C158.278 429.583 157.375 429.42 156.568 429.096C155.769 428.763 155.086 428.301 154.52 427.71C153.963 427.119 153.534 426.424 153.235 425.625C152.935 424.826 152.785 423.964 152.785 423.041V422.541C152.785 421.484 152.939 420.527 153.247 419.67C153.555 418.812 153.984 418.08 154.533 417.472C155.082 416.856 155.732 416.386 156.481 416.061C157.23 415.737 158.041 415.575 158.915 415.575C159.881 415.575 160.726 415.737 161.45 416.061C162.174 416.386 162.773 416.844 163.247 417.435C163.73 418.017 164.088 418.712 164.321 419.52C164.563 420.327 164.683 421.218 164.683 422.192V423.478H154.246V421.318H161.712V421.08C161.695 420.539 161.587 420.032 161.387 419.557C161.196 419.083 160.9 418.7 160.501 418.409C160.101 418.117 159.569 417.972 158.903 417.972C158.403 417.972 157.958 418.08 157.567 418.296C157.184 418.504 156.863 418.808 156.605 419.208C156.347 419.607 156.148 420.09 156.006 420.656C155.873 421.214 155.806 421.842 155.806 422.541V423.041C155.806 423.632 155.886 424.181 156.044 424.689C156.21 425.188 156.451 425.625 156.768 426C157.084 426.374 157.467 426.67 157.916 426.886C158.366 427.094 158.878 427.198 159.452 427.198C160.176 427.198 160.821 427.052 161.387 426.761C161.953 426.47 162.444 426.058 162.86 425.525L164.446 427.061C164.155 427.485 163.776 427.893 163.31 428.284C162.844 428.667 162.274 428.979 161.599 429.221C160.934 429.462 160.16 429.583 159.277 429.583ZM170.014 418.708V429.333H167.005V415.824H169.84L170.014 418.708ZM169.477 422.079L168.504 422.067C168.512 421.11 168.645 420.231 168.903 419.432C169.17 418.633 169.536 417.947 170.002 417.372C170.476 416.798 171.042 416.357 171.7 416.049C172.357 415.733 173.09 415.575 173.897 415.575C174.546 415.575 175.133 415.666 175.658 415.849C176.19 416.024 176.644 416.311 177.018 416.711C177.401 417.11 177.693 417.63 177.892 418.271C178.092 418.904 178.192 419.682 178.192 420.606V429.333H175.171V420.594C175.171 419.944 175.075 419.432 174.883 419.058C174.7 418.675 174.43 418.404 174.072 418.246C173.722 418.08 173.285 417.997 172.761 417.997C172.245 417.997 171.783 418.105 171.375 418.321C170.967 418.538 170.622 418.833 170.339 419.208C170.064 419.582 169.852 420.015 169.702 420.506C169.552 420.997 169.477 421.522 169.477 422.079ZM187.456 415.824V418.022H179.84V415.824H187.456ZM182.037 412.516H185.046V425.6C185.046 426.016 185.104 426.337 185.221 426.561C185.346 426.778 185.516 426.923 185.733 426.998C185.949 427.073 186.203 427.111 186.494 427.111C186.703 427.111 186.902 427.098 187.094 427.073C187.285 427.048 187.439 427.023 187.556 426.998L187.568 429.296C187.318 429.37 187.027 429.437 186.694 429.495C186.37 429.554 185.995 429.583 185.571 429.583C184.88 429.583 184.268 429.462 183.735 429.221C183.203 428.971 182.786 428.567 182.487 428.01C182.187 427.452 182.037 426.711 182.037 425.787V412.516ZM201.726 429.333H197.843L197.868 426.848H201.726C202.85 426.848 203.79 426.603 204.548 426.112C205.313 425.621 205.888 424.917 206.271 424.002C206.662 423.086 206.857 421.996 206.857 420.731V419.745C206.857 418.762 206.745 417.893 206.52 417.135C206.304 416.378 205.979 415.741 205.547 415.225C205.122 414.709 204.598 414.318 203.973 414.051C203.358 413.785 202.646 413.652 201.839 413.652H197.768V411.155H201.839C203.045 411.155 204.148 411.359 205.147 411.767C206.146 412.166 207.007 412.745 207.731 413.502C208.464 414.259 209.026 415.167 209.417 416.224C209.808 417.281 210.004 418.463 210.004 419.77V420.731C210.004 422.038 209.808 423.22 209.417 424.277C209.026 425.334 208.464 426.241 207.731 426.998C206.999 427.747 206.125 428.326 205.11 428.734C204.102 429.133 202.975 429.333 201.726 429.333ZM199.579 411.155V429.333H196.445V411.155H199.579ZM216.071 415.824V429.333H213.05V415.824H216.071ZM212.85 412.279C212.85 411.821 213 411.442 213.3 411.142C213.608 410.834 214.032 410.68 214.573 410.68C215.106 410.68 215.526 410.834 215.834 411.142C216.142 411.442 216.296 411.821 216.296 412.279C216.296 412.728 216.142 413.103 215.834 413.402C215.526 413.702 215.106 413.852 214.573 413.852C214.032 413.852 213.608 413.702 213.3 413.402C213 413.103 212.85 412.728 212.85 412.279ZM226.946 425.675C226.946 425.375 226.871 425.105 226.721 424.863C226.571 424.614 226.284 424.389 225.86 424.189C225.443 423.989 224.828 423.806 224.012 423.64C223.296 423.482 222.638 423.294 222.039 423.078C221.448 422.853 220.941 422.583 220.516 422.267C220.092 421.95 219.763 421.576 219.53 421.143C219.297 420.71 219.18 420.211 219.18 419.645C219.18 419.095 219.301 418.575 219.542 418.084C219.784 417.593 220.129 417.16 220.578 416.786C221.028 416.411 221.573 416.116 222.214 415.899C222.863 415.683 223.587 415.575 224.386 415.575C225.518 415.575 226.488 415.766 227.295 416.149C228.111 416.523 228.735 417.035 229.168 417.685C229.601 418.325 229.817 419.05 229.817 419.857H226.808C226.808 419.499 226.717 419.166 226.534 418.858C226.359 418.542 226.093 418.288 225.735 418.097C225.377 417.897 224.927 417.797 224.386 417.797C223.87 417.797 223.442 417.88 223.1 418.047C222.767 418.205 222.518 418.413 222.351 418.671C222.193 418.929 222.114 419.212 222.114 419.52C222.114 419.745 222.156 419.948 222.239 420.132C222.331 420.306 222.48 420.469 222.688 420.618C222.896 420.76 223.179 420.893 223.537 421.018C223.904 421.143 224.361 421.264 224.911 421.38C225.943 421.596 226.829 421.875 227.57 422.217C228.319 422.55 228.893 422.982 229.293 423.515C229.692 424.039 229.892 424.705 229.892 425.513C229.892 426.112 229.763 426.661 229.505 427.161C229.256 427.652 228.889 428.08 228.407 428.447C227.924 428.804 227.345 429.083 226.671 429.283C226.005 429.483 225.256 429.583 224.424 429.583C223.2 429.583 222.164 429.366 221.315 428.933C220.466 428.492 219.821 427.931 219.38 427.248C218.947 426.557 218.731 425.841 218.731 425.101H221.64C221.673 425.658 221.827 426.104 222.102 426.436C222.385 426.761 222.734 426.998 223.15 427.148C223.575 427.29 224.012 427.36 224.461 427.36C225.002 427.36 225.456 427.29 225.822 427.148C226.188 426.998 226.467 426.799 226.659 426.549C226.85 426.291 226.946 426 226.946 425.675ZM238.045 427.186C238.536 427.186 238.977 427.09 239.368 426.898C239.768 426.699 240.088 426.424 240.33 426.074C240.579 425.725 240.717 425.321 240.742 424.863H243.576C243.559 425.737 243.301 426.532 242.802 427.248C242.302 427.964 241.641 428.534 240.817 428.958C239.993 429.375 239.081 429.583 238.082 429.583C237.05 429.583 236.151 429.408 235.386 429.058C234.62 428.7 233.983 428.209 233.475 427.585C232.968 426.961 232.585 426.241 232.327 425.425C232.077 424.61 231.952 423.736 231.952 422.803V422.366C231.952 421.434 232.077 420.56 232.327 419.745C232.585 418.921 232.968 418.196 233.475 417.572C233.983 416.948 234.62 416.461 235.386 416.111C236.151 415.754 237.046 415.575 238.07 415.575C239.152 415.575 240.101 415.791 240.916 416.224C241.732 416.648 242.373 417.243 242.839 418.009C243.314 418.767 243.559 419.649 243.576 420.656H240.742C240.717 420.157 240.592 419.707 240.367 419.308C240.151 418.9 239.843 418.575 239.443 418.334C239.052 418.092 238.582 417.972 238.032 417.972C237.425 417.972 236.921 418.097 236.522 418.346C236.122 418.588 235.81 418.921 235.585 419.345C235.361 419.761 235.198 420.231 235.098 420.756C235.007 421.272 234.961 421.809 234.961 422.366V422.803C234.961 423.361 235.007 423.902 235.098 424.426C235.19 424.951 235.348 425.421 235.573 425.837C235.806 426.245 236.122 426.574 236.522 426.824C236.921 427.065 237.429 427.186 238.045 427.186ZM245.311 422.728V422.441C245.311 421.467 245.453 420.564 245.736 419.732C246.019 418.891 246.427 418.163 246.959 417.547C247.5 416.923 248.158 416.44 248.932 416.099C249.714 415.749 250.596 415.575 251.579 415.575C252.569 415.575 253.451 415.749 254.225 416.099C255.008 416.44 255.67 416.923 256.211 417.547C256.752 418.163 257.164 418.891 257.447 419.732C257.73 420.564 257.871 421.467 257.871 422.441V422.728C257.871 423.702 257.73 424.605 257.447 425.438C257.164 426.27 256.752 426.998 256.211 427.623C255.67 428.238 255.012 428.721 254.238 429.071C253.464 429.412 252.586 429.583 251.604 429.583C250.613 429.583 249.727 429.412 248.944 429.071C248.17 428.721 247.513 428.238 246.972 427.623C246.431 426.998 246.019 426.27 245.736 425.438C245.453 424.605 245.311 423.702 245.311 422.728ZM248.32 422.441V422.728C248.32 423.336 248.382 423.91 248.507 424.451C248.632 424.992 248.828 425.467 249.094 425.875C249.36 426.283 249.702 426.603 250.118 426.836C250.534 427.069 251.029 427.186 251.604 427.186C252.161 427.186 252.644 427.069 253.052 426.836C253.468 426.603 253.809 426.283 254.076 425.875C254.342 425.467 254.538 424.992 254.662 424.451C254.796 423.91 254.862 423.336 254.862 422.728V422.441C254.862 421.842 254.796 421.276 254.662 420.743C254.538 420.202 254.338 419.724 254.063 419.308C253.797 418.891 253.456 418.567 253.039 418.334C252.632 418.092 252.145 417.972 251.579 417.972C251.013 417.972 250.522 418.092 250.105 418.334C249.698 418.567 249.36 418.891 249.094 419.308C248.828 419.724 248.632 420.202 248.507 420.743C248.382 421.276 248.32 421.842 248.32 422.441ZM268.521 426.149V415.824H271.542V429.333H268.696L268.521 426.149ZM268.945 423.34L269.957 423.315C269.957 424.222 269.857 425.059 269.657 425.825C269.457 426.582 269.149 427.244 268.733 427.81C268.317 428.368 267.784 428.804 267.135 429.121C266.486 429.429 265.707 429.583 264.8 429.583C264.143 429.583 263.539 429.487 262.99 429.296C262.441 429.104 261.966 428.809 261.567 428.409C261.175 428.01 260.872 427.489 260.655 426.848C260.439 426.208 260.331 425.442 260.331 424.551V415.824H263.339V424.576C263.339 425.067 263.398 425.479 263.514 425.812C263.631 426.137 263.789 426.399 263.989 426.599C264.188 426.799 264.421 426.94 264.688 427.023C264.954 427.107 265.237 427.148 265.537 427.148C266.394 427.148 267.068 426.982 267.559 426.649C268.059 426.307 268.413 425.85 268.621 425.275C268.837 424.701 268.945 424.056 268.945 423.34ZM277.61 418.708V429.333H274.601V415.824H277.435L277.61 418.708ZM277.073 422.079L276.099 422.067C276.107 421.11 276.241 420.231 276.499 419.432C276.765 418.633 277.131 417.947 277.597 417.372C278.072 416.798 278.638 416.357 279.295 416.049C279.953 415.733 280.685 415.575 281.493 415.575C282.142 415.575 282.729 415.666 283.253 415.849C283.786 416.024 284.239 416.311 284.614 416.711C284.997 417.11 285.288 417.63 285.488 418.271C285.688 418.904 285.787 419.682 285.787 420.606V429.333H282.766V420.594C282.766 419.944 282.67 419.432 282.479 419.058C282.296 418.675 282.025 418.404 281.667 418.246C281.318 418.08 280.881 417.997 280.356 417.997C279.84 417.997 279.378 418.105 278.971 418.321C278.563 418.538 278.217 418.833 277.934 419.208C277.66 419.582 277.447 420.015 277.298 420.506C277.148 420.997 277.073 421.522 277.073 422.079ZM295.051 415.824V418.022H287.435V415.824H295.051ZM289.633 412.516H292.642V425.6C292.642 426.016 292.7 426.337 292.816 426.561C292.941 426.778 293.112 426.923 293.328 426.998C293.545 427.073 293.799 427.111 294.09 427.111C294.298 427.111 294.498 427.098 294.689 427.073C294.881 427.048 295.035 427.023 295.151 426.998L295.164 429.296C294.914 429.37 294.623 429.437 294.29 429.495C293.965 429.554 293.591 429.583 293.166 429.583C292.475 429.583 291.863 429.462 291.331 429.221C290.798 428.971 290.382 428.567 290.082 428.01C289.783 427.452 289.633 426.711 289.633 425.787V412.516Z" fill="#595959"/>
<path d="M126.977 446.781H132.243C133.437 446.781 134.446 446.963 135.269 447.327C136.099 447.691 136.729 448.23 137.159 448.944C137.596 449.65 137.814 450.521 137.814 451.555C137.814 452.283 137.665 452.95 137.366 453.554C137.075 454.151 136.652 454.661 136.099 455.083C135.553 455.499 134.897 455.808 134.133 456.012L133.543 456.241H128.594L128.572 454.526H132.308C133.066 454.526 133.696 454.395 134.198 454.133C134.701 453.864 135.079 453.503 135.334 453.051C135.589 452.6 135.717 452.101 135.717 451.555C135.717 450.943 135.596 450.408 135.356 449.949C135.116 449.49 134.737 449.137 134.22 448.889C133.71 448.634 133.051 448.507 132.243 448.507H129.085V462.687H126.977V446.781ZM136.274 462.687L132.406 455.477L134.602 455.466L138.524 462.556V462.687H136.274ZM139.922 456.908V456.657C139.922 455.804 140.046 455.014 140.294 454.286C140.541 453.55 140.898 452.913 141.364 452.374C141.831 451.828 142.395 451.406 143.058 451.107C143.72 450.801 144.463 450.648 145.286 450.648C146.117 450.648 146.863 450.801 147.526 451.107C148.196 451.406 148.764 451.828 149.23 452.374C149.703 452.913 150.064 453.55 150.311 454.286C150.559 455.014 150.683 455.804 150.683 456.657V456.908C150.683 457.76 150.559 458.55 150.311 459.278C150.064 460.007 149.703 460.644 149.23 461.19C148.764 461.729 148.199 462.151 147.537 462.457C146.881 462.756 146.138 462.905 145.308 462.905C144.478 462.905 143.731 462.756 143.069 462.457C142.406 462.151 141.838 461.729 141.364 461.19C140.898 460.644 140.541 460.007 140.294 459.278C140.046 458.55 139.922 457.76 139.922 456.908ZM141.943 456.657V456.908C141.943 457.498 142.013 458.055 142.151 458.579C142.289 459.096 142.497 459.555 142.774 459.956C143.058 460.356 143.411 460.673 143.833 460.906C144.256 461.132 144.747 461.245 145.308 461.245C145.862 461.245 146.346 461.132 146.761 460.906C147.183 460.673 147.533 460.356 147.81 459.956C148.087 459.555 148.294 459.096 148.432 458.579C148.578 458.055 148.651 457.498 148.651 456.908V456.657C148.651 456.074 148.578 455.524 148.432 455.007C148.294 454.483 148.083 454.02 147.799 453.62C147.522 453.212 147.173 452.891 146.75 452.658C146.335 452.425 145.847 452.309 145.286 452.309C144.733 452.309 144.245 452.425 143.822 452.658C143.407 452.891 143.058 453.212 142.774 453.62C142.497 454.02 142.289 454.483 142.151 455.007C142.013 455.524 141.943 456.074 141.943 456.657ZM155.413 445.907V462.687H153.381V445.907H155.413ZM163.563 462.905C162.74 462.905 161.993 462.767 161.323 462.49C160.66 462.206 160.089 461.809 159.608 461.299C159.135 460.79 158.771 460.185 158.516 459.486C158.261 458.787 158.133 458.022 158.133 457.192V456.733C158.133 455.772 158.275 454.916 158.559 454.166C158.843 453.408 159.229 452.767 159.717 452.243C160.205 451.719 160.759 451.322 161.378 451.052C161.997 450.783 162.638 450.648 163.301 450.648C164.145 450.648 164.874 450.794 165.485 451.085C166.104 451.376 166.611 451.784 167.004 452.309C167.397 452.826 167.688 453.437 167.878 454.144C168.067 454.843 168.162 455.608 168.162 456.438V457.345H159.335V455.695H166.141V455.542C166.112 455.018 166.002 454.508 165.813 454.013C165.631 453.518 165.34 453.11 164.939 452.789C164.539 452.469 163.992 452.309 163.301 452.309C162.842 452.309 162.419 452.407 162.033 452.604C161.647 452.793 161.316 453.077 161.039 453.456C160.762 453.834 160.548 454.297 160.395 454.843C160.242 455.389 160.165 456.019 160.165 456.733V457.192C160.165 457.753 160.242 458.281 160.395 458.776C160.555 459.264 160.784 459.693 161.083 460.065C161.389 460.436 161.757 460.728 162.186 460.939C162.623 461.15 163.118 461.256 163.672 461.256C164.386 461.256 164.99 461.11 165.485 460.819C165.981 460.527 166.414 460.138 166.785 459.65L168.009 460.622C167.754 461.008 167.43 461.376 167.037 461.725C166.643 462.075 166.159 462.359 165.584 462.578C165.016 462.796 164.342 462.905 163.563 462.905ZM178.081 453.215V462.687H176.049V450.867H177.972L178.081 453.215ZM177.666 456.329L176.727 456.296C176.734 455.488 176.839 454.741 177.043 454.057C177.247 453.365 177.55 452.764 177.95 452.254C178.351 451.744 178.85 451.351 179.447 451.074C180.044 450.79 180.736 450.648 181.522 450.648C182.076 450.648 182.586 450.728 183.052 450.888C183.518 451.041 183.922 451.285 184.264 451.62C184.607 451.955 184.872 452.385 185.062 452.909C185.251 453.434 185.346 454.067 185.346 454.81V462.687H183.325V454.909C183.325 454.29 183.219 453.794 183.008 453.423C182.804 453.051 182.513 452.782 182.134 452.615C181.755 452.44 181.311 452.352 180.801 452.352C180.204 452.352 179.705 452.458 179.305 452.669C178.904 452.88 178.584 453.172 178.343 453.543C178.103 453.915 177.928 454.341 177.819 454.821C177.717 455.295 177.666 455.797 177.666 456.329ZM185.324 455.215L183.969 455.63C183.977 454.981 184.082 454.359 184.286 453.762C184.497 453.164 184.8 452.633 185.193 452.167C185.593 451.701 186.085 451.333 186.668 451.063C187.25 450.787 187.917 450.648 188.667 450.648C189.3 450.648 189.861 450.732 190.349 450.899C190.844 451.067 191.26 451.325 191.595 451.675C191.937 452.017 192.195 452.458 192.37 452.997C192.545 453.536 192.632 454.177 192.632 454.92V462.687H190.6V454.898C190.6 454.235 190.495 453.722 190.284 453.357C190.08 452.986 189.788 452.727 189.41 452.582C189.038 452.429 188.594 452.352 188.077 452.352C187.633 452.352 187.239 452.429 186.897 452.582C186.555 452.735 186.267 452.946 186.034 453.215C185.801 453.478 185.623 453.78 185.499 454.122C185.382 454.464 185.324 454.829 185.324 455.215ZM200.596 462.905C199.773 462.905 199.027 462.767 198.357 462.49C197.694 462.206 197.122 461.809 196.642 461.299C196.168 460.79 195.804 460.185 195.549 459.486C195.294 458.787 195.167 458.022 195.167 457.192V456.733C195.167 455.772 195.309 454.916 195.593 454.166C195.877 453.408 196.263 452.767 196.751 452.243C197.239 451.719 197.792 451.322 198.411 451.052C199.03 450.783 199.671 450.648 200.334 450.648C201.179 450.648 201.907 450.794 202.519 451.085C203.138 451.376 203.644 451.784 204.037 452.309C204.431 452.826 204.722 453.437 204.911 454.144C205.101 454.843 205.195 455.608 205.195 456.438V457.345H196.369V455.695H203.174V455.542C203.145 455.018 203.036 454.508 202.847 454.013C202.665 453.518 202.373 453.11 201.973 452.789C201.572 452.469 201.026 452.309 200.334 452.309C199.875 452.309 199.453 452.407 199.067 452.604C198.681 452.793 198.349 453.077 198.073 453.456C197.796 453.834 197.581 454.297 197.428 454.843C197.275 455.389 197.199 456.019 197.199 456.733V457.192C197.199 457.753 197.275 458.281 197.428 458.776C197.588 459.264 197.818 459.693 198.116 460.065C198.422 460.436 198.79 460.728 199.22 460.939C199.657 461.15 200.152 461.256 200.706 461.256C201.419 461.256 202.024 461.11 202.519 460.819C203.014 460.527 203.448 460.138 203.819 459.65L205.042 460.622C204.788 461.008 204.463 461.376 204.07 461.725C203.677 462.075 203.193 462.359 202.617 462.578C202.049 462.796 201.376 462.905 200.596 462.905ZM209.565 453.215V462.687H207.533V450.867H209.456L209.565 453.215ZM209.15 456.329L208.211 456.296C208.218 455.488 208.323 454.741 208.527 454.057C208.731 453.365 209.034 452.764 209.434 452.254C209.835 451.744 210.333 451.351 210.931 451.074C211.528 450.79 212.22 450.648 213.006 450.648C213.56 450.648 214.07 450.728 214.536 450.888C215.002 451.041 215.406 451.285 215.748 451.62C216.091 451.955 216.356 452.385 216.546 452.909C216.735 453.434 216.83 454.067 216.83 454.81V462.687H214.809V454.909C214.809 454.29 214.703 453.794 214.492 453.423C214.288 453.051 213.997 452.782 213.618 452.615C213.239 452.44 212.795 452.352 212.285 452.352C211.688 452.352 211.189 452.458 210.789 452.669C210.388 452.88 210.068 453.172 209.827 453.543C209.587 453.915 209.412 454.341 209.303 454.821C209.201 455.295 209.15 455.797 209.15 456.329ZM216.808 455.215L215.453 455.63C215.461 454.981 215.566 454.359 215.77 453.762C215.981 453.164 216.284 452.633 216.677 452.167C217.077 451.701 217.569 451.333 218.152 451.063C218.734 450.787 219.401 450.648 220.151 450.648C220.784 450.648 221.345 450.732 221.833 450.899C222.328 451.067 222.744 451.325 223.079 451.675C223.421 452.017 223.679 452.458 223.854 452.997C224.029 453.536 224.116 454.177 224.116 454.92V462.687H222.084V454.898C222.084 454.235 221.979 453.722 221.768 453.357C221.564 452.986 221.272 452.727 220.894 452.582C220.522 452.429 220.078 452.352 219.561 452.352C219.117 452.352 218.723 452.429 218.381 452.582C218.039 452.735 217.751 452.946 217.518 453.215C217.285 453.478 217.107 453.78 216.983 454.122C216.866 454.464 216.808 454.829 216.808 455.215ZM227.164 445.907H229.196V460.393L229.021 462.687H227.164V445.907ZM237.182 456.678V456.908C237.182 457.767 237.08 458.565 236.876 459.3C236.672 460.029 236.373 460.662 235.98 461.201C235.587 461.74 235.106 462.159 234.538 462.457C233.97 462.756 233.318 462.905 232.583 462.905C231.833 462.905 231.174 462.778 230.605 462.523C230.045 462.261 229.571 461.886 229.185 461.398C228.799 460.91 228.49 460.32 228.257 459.628C228.031 458.936 227.874 458.157 227.787 457.29V456.285C227.874 455.411 228.031 454.628 228.257 453.936C228.49 453.244 228.799 452.655 229.185 452.167C229.571 451.671 230.045 451.296 230.605 451.041C231.166 450.779 231.818 450.648 232.561 450.648C233.304 450.648 233.963 450.794 234.538 451.085C235.114 451.369 235.594 451.777 235.98 452.309C236.373 452.84 236.672 453.478 236.876 454.22C237.08 454.956 237.182 455.775 237.182 456.678ZM235.15 456.908V456.678C235.15 456.088 235.095 455.535 234.986 455.018C234.877 454.494 234.702 454.035 234.462 453.641C234.221 453.241 233.905 452.928 233.511 452.702C233.118 452.469 232.634 452.352 232.058 452.352C231.549 452.352 231.104 452.44 230.726 452.615C230.354 452.789 230.037 453.026 229.775 453.325C229.513 453.616 229.298 453.951 229.131 454.33C228.97 454.701 228.85 455.087 228.77 455.488V458.12C228.887 458.63 229.076 459.122 229.338 459.595C229.608 460.061 229.965 460.444 230.409 460.742C230.86 461.041 231.417 461.19 232.08 461.19C232.626 461.19 233.093 461.081 233.479 460.862C233.872 460.637 234.189 460.327 234.429 459.934C234.677 459.541 234.859 459.085 234.975 458.568C235.092 458.051 235.15 457.498 235.15 456.908ZM244.643 462.905C243.82 462.905 243.074 462.767 242.404 462.49C241.741 462.206 241.169 461.809 240.689 461.299C240.215 460.79 239.851 460.185 239.596 459.486C239.341 458.787 239.214 458.022 239.214 457.192V456.733C239.214 455.772 239.356 454.916 239.64 454.166C239.924 453.408 240.31 452.767 240.798 452.243C241.286 451.719 241.839 451.322 242.458 451.052C243.077 450.783 243.718 450.648 244.381 450.648C245.226 450.648 245.954 450.794 246.566 451.085C247.185 451.376 247.691 451.784 248.084 452.309C248.478 452.826 248.769 453.437 248.958 454.144C249.148 454.843 249.242 455.608 249.242 456.438V457.345H240.416V455.695H247.221V455.542C247.192 455.018 247.083 454.508 246.894 454.013C246.712 453.518 246.42 453.11 246.02 452.789C245.619 452.469 245.073 452.309 244.381 452.309C243.922 452.309 243.5 452.407 243.114 452.604C242.728 452.793 242.396 453.077 242.12 453.456C241.843 453.834 241.628 454.297 241.475 454.843C241.322 455.389 241.246 456.019 241.246 456.733V457.192C241.246 457.753 241.322 458.281 241.475 458.776C241.635 459.264 241.865 459.693 242.163 460.065C242.469 460.436 242.837 460.728 243.267 460.939C243.704 461.15 244.199 461.256 244.752 461.256C245.466 461.256 246.071 461.11 246.566 460.819C247.061 460.527 247.494 460.138 247.866 459.65L249.089 460.622C248.835 461.008 248.51 461.376 248.117 461.725C247.724 462.075 247.24 462.359 246.664 462.578C246.096 462.796 245.423 462.905 244.643 462.905ZM253.623 452.724V462.687H251.602V450.867H253.568L253.623 452.724ZM257.315 450.801L257.305 452.68C257.137 452.644 256.977 452.622 256.824 452.615C256.678 452.6 256.511 452.593 256.321 452.593C255.855 452.593 255.444 452.665 255.087 452.811C254.73 452.957 254.428 453.161 254.18 453.423C253.933 453.685 253.736 453.998 253.59 454.362C253.452 454.719 253.361 455.113 253.317 455.542L252.749 455.87C252.749 455.156 252.818 454.486 252.957 453.86C253.102 453.234 253.324 452.68 253.623 452.199C253.922 451.711 254.3 451.333 254.759 451.063C255.225 450.787 255.779 450.648 256.42 450.648C256.565 450.648 256.733 450.666 256.922 450.703C257.112 450.732 257.243 450.765 257.315 450.801ZM266.066 459.551C266.066 459.26 266 458.991 265.869 458.743C265.745 458.488 265.487 458.259 265.094 458.055C264.708 457.844 264.125 457.662 263.346 457.509C262.69 457.37 262.097 457.206 261.565 457.017C261.041 456.828 260.593 456.598 260.221 456.329C259.857 456.059 259.577 455.743 259.38 455.378C259.184 455.014 259.085 454.588 259.085 454.1C259.085 453.634 259.187 453.194 259.391 452.778C259.602 452.363 259.897 451.995 260.276 451.675C260.662 451.355 261.124 451.103 261.663 450.921C262.202 450.739 262.803 450.648 263.466 450.648C264.413 450.648 265.221 450.816 265.891 451.151C266.561 451.486 267.075 451.934 267.431 452.494C267.788 453.048 267.967 453.663 267.967 454.341H265.946C265.946 454.013 265.847 453.696 265.651 453.39C265.461 453.077 265.181 452.818 264.81 452.615C264.445 452.411 263.998 452.309 263.466 452.309C262.905 452.309 262.45 452.396 262.1 452.571C261.758 452.738 261.507 452.953 261.347 453.215C261.194 453.478 261.117 453.754 261.117 454.046C261.117 454.264 261.154 454.461 261.226 454.636C261.307 454.803 261.445 454.96 261.642 455.105C261.838 455.244 262.115 455.375 262.472 455.499C262.829 455.622 263.284 455.746 263.837 455.87C264.806 456.088 265.603 456.351 266.23 456.657C266.856 456.962 267.322 457.337 267.628 457.782C267.934 458.226 268.087 458.765 268.087 459.399C268.087 459.916 267.978 460.389 267.759 460.819C267.548 461.248 267.238 461.62 266.831 461.933C266.43 462.239 265.949 462.479 265.389 462.654C264.835 462.822 264.212 462.905 263.521 462.905C262.479 462.905 261.598 462.72 260.877 462.348C260.156 461.977 259.61 461.496 259.238 460.906C258.867 460.316 258.681 459.693 258.681 459.038H260.713C260.742 459.592 260.902 460.032 261.194 460.36C261.485 460.68 261.842 460.91 262.264 461.048C262.687 461.179 263.105 461.245 263.521 461.245C264.074 461.245 264.536 461.172 264.908 461.026C265.287 460.881 265.574 460.68 265.771 460.425C265.968 460.171 266.066 459.879 266.066 459.551ZM279.284 460.589L282.321 450.867H283.654L283.392 452.8L280.3 462.687H279L279.284 460.589ZM277.241 450.867L279.831 460.699L280.016 462.687H278.651L275.22 450.867H277.241ZM286.56 460.622L289.029 450.867H291.039L287.609 462.687H286.254L286.56 460.622ZM283.949 450.867L286.92 460.425L287.259 462.687H285.97L282.791 452.778L282.529 450.867H283.949ZM295.31 450.867V462.687H293.278V450.867H295.31ZM293.125 447.731C293.125 447.404 293.224 447.127 293.42 446.901C293.624 446.675 293.923 446.562 294.316 446.562C294.702 446.562 294.997 446.675 295.201 446.901C295.412 447.127 295.518 447.404 295.518 447.731C295.518 448.044 295.412 448.314 295.201 448.54C294.997 448.758 294.702 448.867 294.316 448.867C293.923 448.867 293.624 448.758 293.42 448.54C293.224 448.314 293.125 448.044 293.125 447.731ZM300.751 445.907V462.687H298.719V445.907H300.751ZM306.191 445.907V462.687H304.159V445.907H306.191ZM317.006 452.724V462.687H314.985V450.867H316.951L317.006 452.724ZM320.699 450.801L320.688 452.68C320.52 452.644 320.36 452.622 320.207 452.615C320.061 452.6 319.894 452.593 319.704 452.593C319.238 452.593 318.827 452.665 318.47 452.811C318.113 452.957 317.811 453.161 317.563 453.423C317.316 453.685 317.119 453.998 316.973 454.362C316.835 454.719 316.744 455.113 316.7 455.542L316.132 455.87C316.132 455.156 316.201 454.486 316.34 453.86C316.485 453.234 316.708 452.68 317.006 452.199C317.305 451.711 317.683 451.333 318.142 451.063C318.608 450.787 319.162 450.648 319.803 450.648C319.948 450.648 320.116 450.666 320.305 450.703C320.495 450.732 320.626 450.765 320.699 450.801ZM327.253 462.905C326.43 462.905 325.684 462.767 325.014 462.49C324.351 462.206 323.779 461.809 323.299 461.299C322.825 460.79 322.461 460.185 322.206 459.486C321.951 458.787 321.824 458.022 321.824 457.192V456.733C321.824 455.772 321.966 454.916 322.25 454.166C322.534 453.408 322.92 452.767 323.408 452.243C323.896 451.719 324.449 451.322 325.068 451.052C325.687 450.783 326.328 450.648 326.991 450.648C327.836 450.648 328.564 450.794 329.176 451.085C329.795 451.376 330.301 451.784 330.694 452.309C331.088 452.826 331.379 453.437 331.568 454.144C331.758 454.843 331.852 455.608 331.852 456.438V457.345H323.025V455.695H329.831V455.542C329.802 455.018 329.693 454.508 329.504 454.013C329.322 453.518 329.03 453.11 328.63 452.789C328.229 452.469 327.683 452.309 326.991 452.309C326.532 452.309 326.11 452.407 325.724 452.604C325.338 452.793 325.006 453.077 324.73 453.456C324.453 453.834 324.238 454.297 324.085 454.843C323.932 455.389 323.856 456.019 323.856 456.733V457.192C323.856 457.753 323.932 458.281 324.085 458.776C324.245 459.264 324.475 459.693 324.773 460.065C325.079 460.436 325.447 460.728 325.877 460.939C326.314 461.15 326.809 461.256 327.362 461.256C328.076 461.256 328.681 461.11 329.176 460.819C329.671 460.527 330.104 460.138 330.476 459.65L331.699 460.622C331.444 461.008 331.12 461.376 330.727 461.725C330.334 462.075 329.85 462.359 329.274 462.578C328.706 462.796 328.032 462.905 327.253 462.905ZM338.942 461.245C339.423 461.245 339.867 461.146 340.275 460.95C340.683 460.753 341.018 460.484 341.28 460.141C341.542 459.792 341.692 459.395 341.728 458.951H343.651C343.614 459.65 343.377 460.302 342.941 460.906C342.511 461.503 341.946 461.988 341.247 462.359C340.548 462.723 339.78 462.905 338.942 462.905C338.054 462.905 337.278 462.749 336.615 462.436C335.96 462.122 335.414 461.693 334.977 461.146C334.547 460.6 334.223 459.974 334.004 459.267C333.793 458.554 333.688 457.8 333.688 457.006V456.547C333.688 455.753 333.793 455.003 334.004 454.297C334.223 453.583 334.547 452.953 334.977 452.407C335.414 451.861 335.96 451.431 336.615 451.118C337.278 450.805 338.054 450.648 338.942 450.648C339.867 450.648 340.676 450.837 341.367 451.216C342.059 451.588 342.602 452.097 342.995 452.746C343.396 453.387 343.614 454.115 343.651 454.93H341.728C341.692 454.443 341.553 454.002 341.313 453.609C341.08 453.215 340.759 452.902 340.351 452.669C339.951 452.429 339.481 452.309 338.942 452.309C338.323 452.309 337.802 452.432 337.38 452.68C336.965 452.92 336.634 453.248 336.386 453.663C336.146 454.071 335.971 454.526 335.862 455.029C335.76 455.524 335.709 456.03 335.709 456.547V457.006C335.709 457.523 335.76 458.033 335.862 458.536C335.964 459.038 336.135 459.493 336.375 459.901C336.623 460.309 336.954 460.637 337.369 460.884C337.792 461.125 338.316 461.245 338.942 461.245ZM350.828 462.905C350.005 462.905 349.258 462.767 348.588 462.49C347.926 462.206 347.354 461.809 346.873 461.299C346.4 460.79 346.036 460.185 345.781 459.486C345.526 458.787 345.399 458.022 345.399 457.192V456.733C345.399 455.772 345.541 454.916 345.825 454.166C346.109 453.408 346.495 452.767 346.983 452.243C347.47 451.719 348.024 451.322 348.643 451.052C349.262 450.783 349.903 450.648 350.566 450.648C351.411 450.648 352.139 450.794 352.751 451.085C353.37 451.376 353.876 451.784 354.269 452.309C354.662 452.826 354.954 453.437 355.143 454.144C355.332 454.843 355.427 455.608 355.427 456.438V457.345H346.6V455.695H353.406V455.542C353.377 455.018 353.268 454.508 353.078 454.013C352.896 453.518 352.605 453.11 352.204 452.789C351.804 452.469 351.258 452.309 350.566 452.309C350.107 452.309 349.684 452.407 349.298 452.604C348.913 452.793 348.581 453.077 348.304 453.456C348.028 453.834 347.813 454.297 347.66 454.843C347.507 455.389 347.43 456.019 347.43 456.733V457.192C347.43 457.753 347.507 458.281 347.66 458.776C347.82 459.264 348.049 459.693 348.348 460.065C348.654 460.436 349.022 460.728 349.451 460.939C349.888 461.15 350.384 461.256 350.937 461.256C351.651 461.256 352.255 461.11 352.751 460.819C353.246 460.527 353.679 460.138 354.051 459.65L355.274 460.622C355.019 461.008 354.695 461.376 354.302 461.725C353.909 462.075 353.424 462.359 352.849 462.578C352.281 462.796 351.607 462.905 350.828 462.905ZM359.983 450.867V462.687H357.951V450.867H359.983ZM357.798 447.731C357.798 447.404 357.896 447.127 358.093 446.901C358.297 446.675 358.595 446.562 358.988 446.562C359.374 446.562 359.669 446.675 359.873 446.901C360.084 447.127 360.19 447.404 360.19 447.731C360.19 448.044 360.084 448.314 359.873 448.54C359.669 448.758 359.374 448.867 358.988 448.867C358.595 448.867 358.297 448.758 358.093 448.54C357.896 448.314 357.798 448.044 357.798 447.731ZM366.821 460.862L370.055 450.867H372.119L367.87 462.687H366.515L366.821 460.862ZM364.123 450.867L367.455 460.917L367.684 462.687H366.33L362.047 450.867H364.123ZM378.816 462.905C377.993 462.905 377.247 462.767 376.577 462.49C375.914 462.206 375.342 461.809 374.861 461.299C374.388 460.79 374.024 460.185 373.769 459.486C373.514 458.787 373.387 458.022 373.387 457.192V456.733C373.387 455.772 373.529 454.916 373.813 454.166C374.097 453.408 374.483 452.767 374.971 452.243C375.459 451.719 376.012 451.322 376.631 451.052C377.25 450.783 377.891 450.648 378.554 450.648C379.399 450.648 380.127 450.794 380.739 451.085C381.358 451.376 381.864 451.784 382.257 452.309C382.651 452.826 382.942 453.437 383.131 454.144C383.321 454.843 383.415 455.608 383.415 456.438V457.345H374.588V455.695H381.394V455.542C381.365 455.018 381.256 454.508 381.067 454.013C380.884 453.518 380.593 453.11 380.193 452.789C379.792 452.469 379.246 452.309 378.554 452.309C378.095 452.309 377.673 452.407 377.287 452.604C376.901 452.793 376.569 453.077 376.293 453.456C376.016 453.834 375.801 454.297 375.648 454.843C375.495 455.389 375.419 456.019 375.419 456.733V457.192C375.419 457.753 375.495 458.281 375.648 458.776C375.808 459.264 376.038 459.693 376.336 460.065C376.642 460.436 377.01 460.728 377.44 460.939C377.877 461.15 378.372 461.256 378.925 461.256C379.639 461.256 380.244 461.11 380.739 460.819C381.234 460.527 381.667 460.138 382.039 459.65L383.262 460.622C383.007 461.008 382.683 461.376 382.29 461.725C381.897 462.075 381.412 462.359 380.837 462.578C380.269 462.796 379.595 462.905 378.816 462.905ZM396.273 450.867V452.418H389.882V450.867H396.273ZM392.045 447.994H394.066V459.759C394.066 460.16 394.128 460.462 394.252 460.666C394.376 460.87 394.536 461.004 394.733 461.07C394.929 461.136 395.141 461.168 395.366 461.168C395.534 461.168 395.709 461.154 395.891 461.125C396.08 461.088 396.222 461.059 396.317 461.037L396.328 462.687C396.168 462.738 395.956 462.785 395.694 462.829C395.439 462.88 395.13 462.905 394.766 462.905C394.27 462.905 393.815 462.807 393.4 462.61C392.985 462.414 392.654 462.086 392.406 461.627C392.166 461.161 392.045 460.535 392.045 459.748V447.994ZM400.665 445.907V462.687H398.644V445.907H400.665ZM400.184 456.329L399.343 456.296C399.35 455.488 399.47 454.741 399.703 454.057C399.937 453.365 400.264 452.764 400.687 452.254C401.109 451.744 401.612 451.351 402.194 451.074C402.784 450.79 403.436 450.648 404.15 450.648C404.732 450.648 405.257 450.728 405.723 450.888C406.189 451.041 406.586 451.289 406.914 451.631C407.249 451.974 407.503 452.418 407.678 452.964C407.853 453.503 407.94 454.162 407.94 454.941V462.687H405.908V454.92C405.908 454.301 405.817 453.805 405.635 453.434C405.453 453.055 405.187 452.782 404.838 452.615C404.488 452.44 404.059 452.352 403.549 452.352C403.046 452.352 402.587 452.458 402.172 452.669C401.765 452.88 401.411 453.172 401.113 453.543C400.821 453.915 400.592 454.341 400.424 454.821C400.264 455.295 400.184 455.797 400.184 456.329ZM415.871 462.905C415.049 462.905 414.302 462.767 413.632 462.49C412.969 462.206 412.398 461.809 411.917 461.299C411.443 460.79 411.079 460.185 410.824 459.486C410.57 458.787 410.442 458.022 410.442 457.192V456.733C410.442 455.772 410.584 454.916 410.868 454.166C411.152 453.408 411.538 452.767 412.026 452.243C412.514 451.719 413.068 451.322 413.687 451.052C414.306 450.783 414.947 450.648 415.609 450.648C416.454 450.648 417.182 450.794 417.794 451.085C418.413 451.376 418.919 451.784 419.313 452.309C419.706 452.826 419.997 453.437 420.187 454.144C420.376 454.843 420.471 455.608 420.471 456.438V457.345H411.644V455.695H418.45V455.542C418.42 455.018 418.311 454.508 418.122 454.013C417.94 453.518 417.649 453.11 417.248 452.789C416.847 452.469 416.301 452.309 415.609 452.309C415.15 452.309 414.728 452.407 414.342 452.604C413.956 452.793 413.625 453.077 413.348 453.456C413.071 453.834 412.856 454.297 412.703 454.843C412.55 455.389 412.474 456.019 412.474 456.733V457.192C412.474 457.753 412.55 458.281 412.703 458.776C412.864 459.264 413.093 459.693 413.392 460.065C413.698 460.436 414.065 460.728 414.495 460.939C414.932 461.15 415.427 461.256 415.981 461.256C416.694 461.256 417.299 461.11 417.794 460.819C418.289 460.527 418.723 460.138 419.094 459.65L420.318 460.622C420.063 461.008 419.739 461.376 419.345 461.725C418.952 462.075 418.468 462.359 417.892 462.578C417.324 462.796 416.651 462.905 415.871 462.905ZM435.83 460.393V445.907H437.862V462.687H436.005L435.83 460.393ZM427.877 456.908V456.678C427.877 455.775 427.987 454.956 428.205 454.22C428.431 453.478 428.748 452.84 429.156 452.309C429.571 451.777 430.062 451.369 430.63 451.085C431.206 450.794 431.847 450.648 432.553 450.648C433.296 450.648 433.944 450.779 434.498 451.041C435.058 451.296 435.532 451.671 435.918 452.167C436.311 452.655 436.62 453.244 436.846 453.936C437.072 454.628 437.229 455.411 437.316 456.285V457.29C437.236 458.157 437.079 458.936 436.846 459.628C436.62 460.32 436.311 460.91 435.918 461.398C435.532 461.886 435.058 462.261 434.498 462.523C433.937 462.778 433.281 462.905 432.531 462.905C431.839 462.905 431.206 462.756 430.63 462.457C430.062 462.159 429.571 461.74 429.156 461.201C428.748 460.662 428.431 460.029 428.205 459.3C427.987 458.565 427.877 457.767 427.877 456.908ZM429.909 456.678V456.908C429.909 457.498 429.968 458.051 430.084 458.568C430.208 459.085 430.397 459.541 430.652 459.934C430.907 460.327 431.231 460.637 431.624 460.862C432.018 461.081 432.487 461.19 433.034 461.19C433.704 461.19 434.254 461.048 434.683 460.764C435.12 460.48 435.47 460.105 435.732 459.639C435.994 459.173 436.198 458.667 436.344 458.12V455.488C436.256 455.087 436.129 454.701 435.961 454.33C435.801 453.951 435.59 453.616 435.328 453.325C435.073 453.026 434.756 452.789 434.377 452.615C434.006 452.44 433.565 452.352 433.055 452.352C432.502 452.352 432.025 452.469 431.624 452.702C431.231 452.928 430.907 453.241 430.652 453.641C430.397 454.035 430.208 454.494 430.084 455.018C429.968 455.535 429.909 456.088 429.909 456.678ZM443.204 450.867V462.687H441.172V450.867H443.204ZM441.019 447.731C441.019 447.404 441.118 447.127 441.314 446.901C441.518 446.675 441.817 446.562 442.21 446.562C442.596 446.562 442.891 446.675 443.095 446.901C443.306 447.127 443.412 447.404 443.412 447.731C443.412 448.044 443.306 448.314 443.095 448.54C442.891 448.758 442.596 448.867 442.21 448.867C441.817 448.867 441.518 448.758 441.314 448.54C441.118 448.314 441.019 448.044 441.019 447.731ZM453.331 459.551C453.331 459.26 453.266 458.991 453.134 458.743C453.011 458.488 452.752 458.259 452.359 458.055C451.973 457.844 451.39 457.662 450.611 457.509C449.955 457.37 449.362 457.206 448.83 457.017C448.306 456.828 447.858 456.598 447.487 456.329C447.122 456.059 446.842 455.743 446.645 455.378C446.449 455.014 446.35 454.588 446.35 454.1C446.35 453.634 446.452 453.194 446.656 452.778C446.867 452.363 447.162 451.995 447.541 451.675C447.927 451.355 448.39 451.103 448.929 450.921C449.467 450.739 450.068 450.648 450.731 450.648C451.678 450.648 452.486 450.816 453.156 451.151C453.826 451.486 454.34 451.934 454.697 452.494C455.053 453.048 455.232 453.663 455.232 454.341H453.211C453.211 454.013 453.113 453.696 452.916 453.39C452.727 453.077 452.446 452.818 452.075 452.615C451.711 452.411 451.263 452.309 450.731 452.309C450.17 452.309 449.715 452.396 449.366 452.571C449.023 452.738 448.772 452.953 448.612 453.215C448.459 453.478 448.382 453.754 448.382 454.046C448.382 454.264 448.419 454.461 448.492 454.636C448.572 454.803 448.71 454.96 448.907 455.105C449.103 455.244 449.38 455.375 449.737 455.499C450.094 455.622 450.549 455.746 451.102 455.87C452.071 456.088 452.869 456.351 453.495 456.657C454.121 456.962 454.587 457.337 454.893 457.782C455.199 458.226 455.352 458.765 455.352 459.399C455.352 459.916 455.243 460.389 455.024 460.819C454.813 461.248 454.504 461.62 454.096 461.933C453.695 462.239 453.215 462.479 452.654 462.654C452.1 462.822 451.478 462.905 450.786 462.905C449.744 462.905 448.863 462.72 448.142 462.348C447.421 461.977 446.875 461.496 446.503 460.906C446.132 460.316 445.946 459.693 445.946 459.038H447.978C448.007 459.592 448.167 460.032 448.459 460.36C448.75 460.68 449.107 460.91 449.529 461.048C449.952 461.179 450.371 461.245 450.786 461.245C451.339 461.245 451.802 461.172 452.173 461.026C452.552 460.881 452.839 460.68 453.036 460.425C453.233 460.171 453.331 459.879 453.331 459.551ZM462.737 461.245C463.218 461.245 463.662 461.146 464.07 460.95C464.478 460.753 464.813 460.484 465.075 460.141C465.337 459.792 465.486 459.395 465.523 458.951H467.445C467.409 459.65 467.172 460.302 466.735 460.906C466.306 461.503 465.741 461.988 465.042 462.359C464.343 462.723 463.574 462.905 462.737 462.905C461.848 462.905 461.073 462.749 460.41 462.436C459.755 462.122 459.208 461.693 458.771 461.146C458.342 460.6 458.018 459.974 457.799 459.267C457.588 458.554 457.482 457.8 457.482 457.006V456.547C457.482 455.753 457.588 455.003 457.799 454.297C458.018 453.583 458.342 452.953 458.771 452.407C459.208 451.861 459.755 451.431 460.41 451.118C461.073 450.805 461.848 450.648 462.737 450.648C463.662 450.648 464.47 450.837 465.162 451.216C465.854 451.588 466.397 452.097 466.79 452.746C467.19 453.387 467.409 454.115 467.445 454.93H465.523C465.486 454.443 465.348 454.002 465.108 453.609C464.874 453.215 464.554 452.902 464.146 452.669C463.746 452.429 463.276 452.309 462.737 452.309C462.118 452.309 461.597 452.432 461.175 452.68C460.76 452.92 460.428 453.248 460.181 453.663C459.94 454.071 459.766 454.526 459.656 455.029C459.554 455.524 459.503 456.03 459.503 456.547V457.006C459.503 457.523 459.554 458.033 459.656 458.536C459.758 459.038 459.929 459.493 460.17 459.901C460.417 460.309 460.749 460.637 461.164 460.884C461.586 461.125 462.111 461.245 462.737 461.245ZM469.182 456.908V456.657C469.182 455.804 469.306 455.014 469.554 454.286C469.801 453.55 470.158 452.913 470.624 452.374C471.09 451.828 471.655 451.406 472.318 451.107C472.98 450.801 473.723 450.648 474.546 450.648C475.376 450.648 476.123 450.801 476.786 451.107C477.456 451.406 478.024 451.828 478.49 452.374C478.963 452.913 479.324 453.55 479.571 454.286C479.819 455.014 479.943 455.804 479.943 456.657V456.908C479.943 457.76 479.819 458.55 479.571 459.278C479.324 460.007 478.963 460.644 478.49 461.19C478.024 461.729 477.459 462.151 476.797 462.457C476.141 462.756 475.398 462.905 474.568 462.905C473.738 462.905 472.991 462.756 472.328 462.457C471.666 462.151 471.098 461.729 470.624 461.19C470.158 460.644 469.801 460.007 469.554 459.278C469.306 458.55 469.182 457.76 469.182 456.908ZM471.203 456.657V456.908C471.203 457.498 471.272 458.055 471.411 458.579C471.549 459.096 471.757 459.555 472.034 459.956C472.318 460.356 472.671 460.673 473.093 460.906C473.516 461.132 474.007 461.245 474.568 461.245C475.121 461.245 475.606 461.132 476.021 460.906C476.443 460.673 476.793 460.356 477.07 459.956C477.346 459.555 477.554 459.096 477.692 458.579C477.838 458.055 477.911 457.498 477.911 456.908V456.657C477.911 456.074 477.838 455.524 477.692 455.007C477.554 454.483 477.343 454.02 477.059 453.62C476.782 453.212 476.432 452.891 476.01 452.658C475.595 452.425 475.107 452.309 474.546 452.309C473.993 452.309 473.505 452.425 473.082 452.658C472.667 452.891 472.318 453.212 472.034 453.62C471.757 454.02 471.549 454.483 471.411 455.007C471.272 455.524 471.203 456.074 471.203 456.657ZM489.709 459.956V450.867H491.741V462.687H489.807L489.709 459.956ZM490.091 457.465L490.933 457.443C490.933 458.23 490.849 458.958 490.681 459.628C490.521 460.291 490.259 460.866 489.895 461.354C489.531 461.842 489.054 462.224 488.464 462.501C487.874 462.771 487.156 462.905 486.312 462.905C485.736 462.905 485.208 462.822 484.728 462.654C484.254 462.486 483.846 462.228 483.504 461.878C483.162 461.529 482.896 461.074 482.707 460.513C482.525 459.952 482.434 459.278 482.434 458.492V450.867H484.455V458.514C484.455 459.045 484.513 459.486 484.629 459.836C484.753 460.178 484.917 460.451 485.121 460.655C485.332 460.851 485.565 460.99 485.82 461.07C486.082 461.15 486.352 461.19 486.628 461.19C487.488 461.19 488.169 461.026 488.671 460.699C489.174 460.364 489.534 459.916 489.753 459.355C489.979 458.787 490.091 458.157 490.091 457.465ZM496.843 453.39V462.687H494.822V450.867H496.733L496.843 453.39ZM496.362 456.329L495.521 456.296C495.528 455.488 495.648 454.741 495.881 454.057C496.114 453.365 496.442 452.764 496.865 452.254C497.287 451.744 497.79 451.351 498.372 451.074C498.962 450.79 499.614 450.648 500.328 450.648C500.91 450.648 501.435 450.728 501.901 450.888C502.367 451.041 502.764 451.289 503.091 451.631C503.426 451.974 503.681 452.418 503.856 452.964C504.031 453.503 504.118 454.162 504.118 454.941V462.687H502.086V454.92C502.086 454.301 501.995 453.805 501.813 453.434C501.631 453.055 501.365 452.782 501.016 452.615C500.666 452.44 500.237 452.352 499.727 452.352C499.224 452.352 498.765 452.458 498.35 452.669C497.942 452.88 497.589 453.172 497.291 453.543C496.999 453.915 496.77 454.341 496.602 454.821C496.442 455.295 496.362 455.797 496.362 456.329ZM512.137 450.867V452.418H505.746V450.867H512.137ZM507.909 447.994H509.93V459.759C509.93 460.16 509.992 460.462 510.116 460.666C510.24 460.87 510.4 461.004 510.596 461.07C510.793 461.136 511.004 461.168 511.23 461.168C511.398 461.168 511.572 461.154 511.754 461.125C511.944 461.088 512.086 461.059 512.181 461.037L512.191 462.687C512.031 462.738 511.82 462.785 511.558 462.829C511.303 462.88 510.993 462.905 510.629 462.905C510.134 462.905 509.679 462.807 509.264 462.61C508.849 462.414 508.517 462.086 508.27 461.627C508.029 461.161 507.909 460.535 507.909 459.748V447.994ZM128.692 483.139V497.231H126.66V480.867H128.517L128.692 483.139ZM136.656 486.678V486.908C136.656 487.767 136.554 488.565 136.35 489.3C136.146 490.029 135.848 490.662 135.454 491.201C135.068 491.74 134.591 492.159 134.023 492.457C133.455 492.756 132.803 492.905 132.068 492.905C131.318 492.905 130.655 492.781 130.08 492.534C129.504 492.286 129.016 491.926 128.616 491.452C128.215 490.979 127.895 490.411 127.654 489.748C127.421 489.085 127.261 488.339 127.174 487.509V486.285C127.261 485.411 127.425 484.628 127.665 483.936C127.906 483.244 128.222 482.655 128.616 482.167C129.016 481.671 129.501 481.296 130.069 481.041C130.637 480.779 131.292 480.648 132.035 480.648C132.778 480.648 133.437 480.794 134.012 481.085C134.588 481.369 135.072 481.777 135.465 482.309C135.859 482.84 136.154 483.478 136.35 484.22C136.554 484.956 136.656 485.775 136.656 486.678ZM134.624 486.908V486.678C134.624 486.088 134.562 485.535 134.438 485.018C134.315 484.494 134.122 484.035 133.859 483.641C133.605 483.241 133.277 482.928 132.876 482.702C132.476 482.469 131.999 482.352 131.445 482.352C130.935 482.352 130.491 482.44 130.112 482.615C129.741 482.789 129.424 483.026 129.162 483.325C128.9 483.616 128.685 483.951 128.517 484.33C128.357 484.701 128.237 485.087 128.157 485.488V488.317C128.303 488.827 128.506 489.308 128.769 489.759C129.031 490.203 129.38 490.564 129.817 490.841C130.254 491.11 130.804 491.245 131.467 491.245C132.013 491.245 132.483 491.132 132.876 490.906C133.277 490.673 133.605 490.356 133.859 489.956C134.122 489.555 134.315 489.096 134.438 488.579C134.562 488.055 134.624 487.498 134.624 486.908ZM144.139 492.905C143.316 492.905 142.57 492.767 141.9 492.49C141.237 492.206 140.665 491.809 140.185 491.299C139.711 490.79 139.347 490.185 139.092 489.486C138.837 488.787 138.71 488.022 138.71 487.192V486.733C138.71 485.772 138.852 484.916 139.136 484.166C139.42 483.408 139.806 482.767 140.294 482.243C140.782 481.719 141.335 481.322 141.954 481.052C142.573 480.783 143.214 480.648 143.877 480.648C144.722 480.648 145.45 480.794 146.062 481.085C146.681 481.376 147.187 481.784 147.58 482.309C147.974 482.826 148.265 483.437 148.454 484.144C148.644 484.843 148.738 485.608 148.738 486.438V487.345H139.912V485.695H146.717V485.542C146.688 485.018 146.579 484.508 146.39 484.013C146.208 483.518 145.916 483.11 145.516 482.789C145.115 482.469 144.569 482.309 143.877 482.309C143.418 482.309 142.996 482.407 142.61 482.604C142.224 482.793 141.892 483.077 141.616 483.456C141.339 483.834 141.124 484.297 140.971 484.843C140.818 485.389 140.742 486.019 140.742 486.733V487.192C140.742 487.753 140.818 488.281 140.971 488.776C141.131 489.264 141.361 489.693 141.659 490.065C141.965 490.436 142.333 490.728 142.763 490.939C143.2 491.15 143.695 491.256 144.248 491.256C144.962 491.256 145.567 491.11 146.062 490.819C146.557 490.527 146.99 490.138 147.362 489.65L148.585 490.622C148.331 491.008 148.006 491.376 147.613 491.725C147.22 492.075 146.736 492.359 146.16 492.578C145.592 492.796 144.918 492.905 144.139 492.905ZM153.119 482.724V492.687H151.098V480.867H153.064L153.119 482.724ZM156.811 480.801L156.801 482.68C156.633 482.644 156.473 482.622 156.32 482.615C156.174 482.6 156.007 482.593 155.817 482.593C155.351 482.593 154.94 482.665 154.583 482.811C154.226 482.957 153.924 483.161 153.676 483.423C153.429 483.685 153.232 483.998 153.086 484.362C152.948 484.719 152.857 485.113 152.813 485.542L152.245 485.87C152.245 485.156 152.314 484.486 152.453 483.86C152.598 483.234 152.82 482.68 153.119 482.199C153.418 481.711 153.796 481.333 154.255 481.063C154.721 480.787 155.275 480.648 155.916 480.648C156.061 480.648 156.229 480.666 156.418 480.703C156.608 480.732 156.739 480.765 156.811 480.801ZM163.191 491.245C163.672 491.245 164.116 491.146 164.524 490.95C164.932 490.753 165.267 490.484 165.529 490.141C165.791 489.792 165.941 489.395 165.977 488.951H167.9C167.863 489.65 167.627 490.302 167.19 490.906C166.76 491.503 166.195 491.988 165.496 492.359C164.797 492.723 164.029 492.905 163.191 492.905C162.303 492.905 161.527 492.749 160.864 492.436C160.209 492.122 159.663 491.693 159.226 491.146C158.796 490.6 158.472 489.974 158.253 489.267C158.042 488.554 157.937 487.8 157.937 487.006V486.547C157.937 485.753 158.042 485.003 158.253 484.297C158.472 483.583 158.796 482.953 159.226 482.407C159.663 481.861 160.209 481.431 160.864 481.118C161.527 480.805 162.303 480.648 163.191 480.648C164.116 480.648 164.925 480.837 165.616 481.216C166.308 481.588 166.851 482.097 167.244 482.746C167.645 483.387 167.863 484.115 167.9 484.93H165.977C165.941 484.443 165.802 484.002 165.562 483.609C165.329 483.215 165.008 482.902 164.601 482.669C164.2 482.429 163.73 482.309 163.191 482.309C162.572 482.309 162.052 482.432 161.629 482.68C161.214 482.92 160.883 483.248 160.635 483.663C160.395 484.071 160.22 484.526 160.111 485.029C160.009 485.524 159.958 486.03 159.958 486.547V487.006C159.958 487.523 160.009 488.033 160.111 488.536C160.213 489.038 160.384 489.493 160.624 489.901C160.872 490.309 161.203 490.637 161.618 490.884C162.041 491.125 162.565 491.245 163.191 491.245ZM175.077 492.905C174.254 492.905 173.508 492.767 172.837 492.49C172.175 492.206 171.603 491.809 171.122 491.299C170.649 490.79 170.285 490.185 170.03 489.486C169.775 488.787 169.648 488.022 169.648 487.192V486.733C169.648 485.772 169.79 484.916 170.074 484.166C170.358 483.408 170.744 482.767 171.232 482.243C171.72 481.719 172.273 481.322 172.892 481.052C173.511 480.783 174.152 480.648 174.815 480.648C175.66 480.648 176.388 480.794 177 481.085C177.619 481.376 178.125 481.784 178.518 482.309C178.911 482.826 179.203 483.437 179.392 484.144C179.581 484.843 179.676 485.608 179.676 486.438V487.345H170.849V485.695H177.655V485.542C177.626 485.018 177.517 484.508 177.327 484.013C177.145 483.518 176.854 483.11 176.453 482.789C176.053 482.469 175.507 482.309 174.815 482.309C174.356 482.309 173.934 482.407 173.548 482.604C173.162 482.793 172.83 483.077 172.553 483.456C172.277 483.834 172.062 484.297 171.909 484.843C171.756 485.389 171.68 486.019 171.68 486.733V487.192C171.68 487.753 171.756 488.281 171.909 488.776C172.069 489.264 172.299 489.693 172.597 490.065C172.903 490.436 173.271 490.728 173.701 490.939C174.137 491.15 174.633 491.256 175.186 491.256C175.9 491.256 176.504 491.11 177 490.819C177.495 490.527 177.928 490.138 178.3 489.65L179.523 490.622C179.268 491.008 178.944 491.376 178.551 491.725C178.158 492.075 177.673 492.359 177.098 492.578C176.53 492.796 175.856 492.905 175.077 492.905ZM184.057 483.39V492.687H182.036V480.867H183.948L184.057 483.39ZM183.576 486.329L182.735 486.296C182.742 485.488 182.862 484.741 183.095 484.057C183.329 483.365 183.656 482.764 184.079 482.254C184.501 481.744 185.004 481.351 185.586 481.074C186.176 480.79 186.828 480.648 187.542 480.648C188.124 480.648 188.649 480.728 189.115 480.888C189.581 481.041 189.978 481.289 190.306 481.631C190.641 481.974 190.895 482.418 191.07 482.964C191.245 483.503 191.332 484.162 191.332 484.941V492.687H189.3V484.92C189.3 484.301 189.209 483.805 189.027 483.434C188.845 483.055 188.579 482.782 188.23 482.615C187.88 482.44 187.451 482.352 186.941 482.352C186.438 482.352 185.979 482.458 185.564 482.669C185.157 482.88 184.803 483.172 184.505 483.543C184.213 483.915 183.984 484.341 183.816 484.821C183.656 485.295 183.576 485.797 183.576 486.329ZM199.351 480.867V482.418H192.96V480.867H199.351ZM195.123 477.994H197.144V489.759C197.144 490.16 197.206 490.462 197.33 490.666C197.454 490.87 197.614 491.004 197.811 491.07C198.007 491.136 198.218 491.168 198.444 491.168C198.612 491.168 198.786 491.154 198.969 491.125C199.158 491.088 199.3 491.059 199.395 491.037L199.406 492.687C199.245 492.738 199.034 492.785 198.772 492.829C198.517 492.88 198.207 492.905 197.843 492.905C197.348 492.905 196.893 492.807 196.478 492.61C196.063 492.414 195.731 492.086 195.484 491.627C195.243 491.161 195.123 490.535 195.123 489.748V477.994ZM208.691 490.666V484.581C208.691 484.115 208.597 483.711 208.407 483.368C208.225 483.019 207.948 482.749 207.577 482.56C207.205 482.371 206.747 482.276 206.2 482.276C205.691 482.276 205.243 482.363 204.857 482.538C204.478 482.713 204.179 482.942 203.961 483.226C203.75 483.51 203.644 483.816 203.644 484.144H201.623C201.623 483.722 201.732 483.303 201.951 482.888C202.169 482.473 202.483 482.097 202.89 481.762C203.306 481.42 203.801 481.151 204.376 480.954C204.959 480.75 205.607 480.648 206.321 480.648C207.18 480.648 207.937 480.794 208.593 481.085C209.256 481.376 209.773 481.817 210.144 482.407C210.523 482.99 210.712 483.722 210.712 484.603V490.109C210.712 490.502 210.745 490.921 210.811 491.365C210.883 491.809 210.989 492.192 211.127 492.512V492.687H209.019C208.917 492.454 208.837 492.144 208.779 491.758C208.72 491.365 208.691 491.001 208.691 490.666ZM209.041 485.52L209.063 486.941H207.02C206.444 486.941 205.931 486.988 205.479 487.083C205.028 487.17 204.649 487.305 204.343 487.487C204.037 487.669 203.804 487.898 203.644 488.175C203.484 488.444 203.404 488.761 203.404 489.125C203.404 489.497 203.488 489.836 203.655 490.141C203.823 490.447 204.074 490.691 204.409 490.873C204.751 491.048 205.17 491.136 205.665 491.136C206.284 491.136 206.83 491.004 207.304 490.742C207.777 490.48 208.152 490.16 208.429 489.781C208.713 489.402 208.866 489.034 208.888 488.678L209.751 489.65C209.7 489.956 209.562 490.294 209.336 490.666C209.11 491.037 208.808 491.394 208.429 491.736C208.058 492.071 207.613 492.352 207.096 492.578C206.586 492.796 206.011 492.905 205.37 492.905C204.569 492.905 203.866 492.749 203.262 492.436C202.665 492.122 202.199 491.704 201.863 491.179C201.536 490.648 201.372 490.054 201.372 489.399C201.372 488.765 201.496 488.208 201.743 487.727C201.991 487.239 202.348 486.835 202.814 486.515C203.28 486.187 203.841 485.939 204.496 485.772C205.152 485.604 205.884 485.52 206.692 485.52H209.041ZM221.549 480.867H223.384V492.436C223.384 493.477 223.173 494.365 222.751 495.101C222.328 495.837 221.739 496.394 220.981 496.772C220.231 497.158 219.364 497.351 218.381 497.351C217.973 497.351 217.493 497.286 216.939 497.155C216.393 497.031 215.854 496.816 215.322 496.51C214.798 496.212 214.357 495.807 214 495.298L215.06 494.096C215.555 494.693 216.072 495.108 216.611 495.341C217.158 495.574 217.697 495.691 218.228 495.691C218.869 495.691 219.423 495.571 219.889 495.33C220.355 495.09 220.715 494.733 220.97 494.26C221.232 493.794 221.363 493.218 221.363 492.534V483.467L221.549 480.867ZM213.411 486.908V486.678C213.411 485.775 213.516 484.956 213.727 484.22C213.946 483.478 214.255 482.84 214.656 482.309C215.064 481.777 215.555 481.369 216.131 481.085C216.706 480.794 217.354 480.648 218.075 480.648C218.818 480.648 219.466 480.779 220.02 481.041C220.581 481.296 221.054 481.671 221.44 482.167C221.833 482.655 222.143 483.244 222.368 483.936C222.594 484.628 222.751 485.411 222.838 486.285V487.29C222.758 488.157 222.602 488.936 222.368 489.628C222.143 490.32 221.833 490.91 221.44 491.398C221.054 491.886 220.581 492.261 220.02 492.523C219.459 492.778 218.804 492.905 218.053 492.905C217.347 492.905 216.706 492.756 216.131 492.457C215.563 492.159 215.075 491.74 214.667 491.201C214.259 490.662 213.946 490.029 213.727 489.3C213.516 488.565 213.411 487.767 213.411 486.908ZM215.432 486.678V486.908C215.432 487.498 215.49 488.051 215.606 488.568C215.73 489.085 215.916 489.541 216.163 489.934C216.418 490.327 216.742 490.637 217.136 490.862C217.529 491.081 217.999 491.19 218.545 491.19C219.215 491.19 219.768 491.048 220.205 490.764C220.642 490.48 220.988 490.105 221.243 489.639C221.505 489.173 221.709 488.667 221.855 488.12V485.488C221.775 485.087 221.651 484.701 221.484 484.33C221.323 483.951 221.112 483.616 220.85 483.325C220.595 483.026 220.278 482.789 219.9 482.615C219.521 482.44 219.077 482.352 218.567 482.352C218.013 482.352 217.536 482.469 217.136 482.702C216.742 482.928 216.418 483.241 216.163 483.641C215.916 484.035 215.73 484.494 215.606 485.018C215.49 485.535 215.432 486.088 215.432 486.678ZM231.359 492.905C230.536 492.905 229.79 492.767 229.12 492.49C228.457 492.206 227.885 491.809 227.405 491.299C226.931 490.79 226.567 490.185 226.312 489.486C226.057 488.787 225.93 488.022 225.93 487.192V486.733C225.93 485.772 226.072 484.916 226.356 484.166C226.64 483.408 227.026 482.767 227.514 482.243C228.002 481.719 228.555 481.322 229.174 481.052C229.793 480.783 230.434 480.648 231.097 480.648C231.942 480.648 232.67 480.794 233.282 481.085C233.901 481.376 234.407 481.784 234.8 482.309C235.194 482.826 235.485 483.437 235.674 484.144C235.864 484.843 235.958 485.608 235.958 486.438V487.345H227.131V485.695H233.937V485.542C233.908 485.018 233.799 484.508 233.61 484.013C233.428 483.518 233.136 483.11 232.736 482.789C232.335 482.469 231.789 482.309 231.097 482.309C230.638 482.309 230.216 482.407 229.83 482.604C229.444 482.793 229.112 483.077 228.836 483.456C228.559 483.834 228.344 484.297 228.191 484.843C228.038 485.389 227.962 486.019 227.962 486.733V487.192C227.962 487.753 228.038 488.281 228.191 488.776C228.351 489.264 228.581 489.693 228.879 490.065C229.185 490.436 229.553 490.728 229.983 490.939C230.42 491.15 230.915 491.256 231.468 491.256C232.182 491.256 232.787 491.11 233.282 490.819C233.777 490.527 234.21 490.138 234.582 489.65L235.805 490.622C235.551 491.008 235.226 491.376 234.833 491.725C234.44 492.075 233.956 492.359 233.38 492.578C232.812 492.796 232.138 492.905 231.359 492.905ZM243.857 475.907H245.889V490.393L245.714 492.687H243.857V475.907ZM253.874 486.678V486.908C253.874 487.767 253.772 488.565 253.568 489.3C253.365 490.029 253.066 490.662 252.673 491.201C252.279 491.74 251.799 492.159 251.231 492.457C250.663 492.756 250.011 492.905 249.275 492.905C248.525 492.905 247.866 492.778 247.298 492.523C246.737 492.261 246.264 491.886 245.878 491.398C245.492 490.91 245.182 490.32 244.949 489.628C244.723 488.936 244.567 488.157 244.479 487.29V486.285C244.567 485.411 244.723 484.628 244.949 483.936C245.182 483.244 245.492 482.655 245.878 482.167C246.264 481.671 246.737 481.296 247.298 481.041C247.859 480.779 248.51 480.648 249.253 480.648C249.996 480.648 250.655 480.794 251.231 481.085C251.806 481.369 252.287 481.777 252.673 482.309C253.066 482.84 253.365 483.478 253.568 484.22C253.772 484.956 253.874 485.775 253.874 486.678ZM251.842 486.908V486.678C251.842 486.088 251.788 485.535 251.679 485.018C251.569 484.494 251.394 484.035 251.154 483.641C250.914 483.241 250.597 482.928 250.204 482.702C249.81 482.469 249.326 482.352 248.751 482.352C248.241 482.352 247.797 482.44 247.418 482.615C247.047 482.789 246.73 483.026 246.468 483.325C246.205 483.616 245.991 483.951 245.823 484.33C245.663 484.701 245.543 485.087 245.463 485.488V488.12C245.579 488.63 245.768 489.122 246.031 489.595C246.3 490.061 246.657 490.444 247.101 490.742C247.553 491.041 248.11 491.19 248.773 491.19C249.319 491.19 249.785 491.081 250.171 490.862C250.564 490.637 250.881 490.327 251.121 489.934C251.369 489.541 251.551 489.085 251.668 488.568C251.784 488.051 251.842 487.498 251.842 486.908ZM261.336 492.905C260.513 492.905 259.766 492.767 259.096 492.49C258.433 492.206 257.862 491.809 257.381 491.299C256.908 490.79 256.543 490.185 256.289 489.486C256.034 488.787 255.906 488.022 255.906 487.192V486.733C255.906 485.772 256.048 484.916 256.332 484.166C256.616 483.408 257.002 482.767 257.49 482.243C257.978 481.719 258.532 481.322 259.151 481.052C259.77 480.783 260.411 480.648 261.073 480.648C261.918 480.648 262.647 480.794 263.258 481.085C263.877 481.376 264.384 481.784 264.777 482.309C265.17 482.826 265.461 483.437 265.651 484.144C265.84 484.843 265.935 485.608 265.935 486.438V487.345H257.108V485.695H263.914V485.542C263.885 485.018 263.775 484.508 263.586 484.013C263.404 483.518 263.113 483.11 262.712 482.789C262.312 482.469 261.765 482.309 261.073 482.309C260.615 482.309 260.192 482.407 259.806 482.604C259.42 482.793 259.089 483.077 258.812 483.456C258.535 483.834 258.321 484.297 258.168 484.843C258.015 485.389 257.938 486.019 257.938 486.733V487.192C257.938 487.753 258.015 488.281 258.168 488.776C258.328 489.264 258.557 489.693 258.856 490.065C259.162 490.436 259.529 490.728 259.959 490.939C260.396 491.15 260.891 491.256 261.445 491.256C262.159 491.256 262.763 491.11 263.258 490.819C263.754 490.527 264.187 490.138 264.558 489.65L265.782 490.622C265.527 491.008 265.203 491.376 264.81 491.725C264.416 492.075 263.932 492.359 263.357 492.578C262.789 492.796 262.115 492.905 261.336 492.905ZM270.49 475.907V492.687H268.458V475.907H270.49ZM273.199 486.908V486.657C273.199 485.804 273.323 485.014 273.571 484.286C273.819 483.55 274.175 482.913 274.641 482.374C275.108 481.828 275.672 481.406 276.335 481.107C276.998 480.801 277.74 480.648 278.563 480.648C279.394 480.648 280.14 480.801 280.803 481.107C281.473 481.406 282.041 481.828 282.507 482.374C282.98 482.913 283.341 483.55 283.589 484.286C283.836 485.014 283.96 485.804 283.96 486.657V486.908C283.96 487.76 283.836 488.55 283.589 489.278C283.341 490.007 282.98 490.644 282.507 491.19C282.041 491.729 281.476 492.151 280.814 492.457C280.158 492.756 279.415 492.905 278.585 492.905C277.755 492.905 277.008 492.756 276.346 492.457C275.683 492.151 275.115 491.729 274.641 491.19C274.175 490.644 273.819 490.007 273.571 489.278C273.323 488.55 273.199 487.76 273.199 486.908ZM275.22 486.657V486.908C275.22 487.498 275.29 488.055 275.428 488.579C275.566 489.096 275.774 489.555 276.051 489.956C276.335 490.356 276.688 490.673 277.11 490.906C277.533 491.132 278.024 491.245 278.585 491.245C279.139 491.245 279.623 491.132 280.038 490.906C280.461 490.673 280.81 490.356 281.087 489.956C281.364 489.555 281.571 489.096 281.71 488.579C281.855 488.055 281.928 487.498 281.928 486.908V486.657C281.928 486.074 281.855 485.524 281.71 485.007C281.571 484.483 281.36 484.02 281.076 483.62C280.799 483.212 280.45 482.891 280.027 482.658C279.612 482.425 279.124 482.309 278.563 482.309C278.01 482.309 277.522 482.425 277.099 482.658C276.684 482.891 276.335 483.212 276.051 483.62C275.774 484.02 275.566 484.483 275.428 485.007C275.29 485.524 275.22 486.074 275.22 486.657ZM289.488 490.589L292.525 480.867H293.857L293.595 482.8L290.504 492.687H289.204L289.488 490.589ZM287.445 480.867L290.034 490.699L290.22 492.687H288.854L285.424 480.867H287.445ZM296.763 490.622L299.232 480.867H301.242L297.812 492.687H296.457L296.763 490.622ZM294.152 480.867L297.124 490.425L297.462 492.687H296.173L292.994 482.778L292.732 480.867H294.152Z" fill="#595959"/>
<rect x="585.377" y="424.941" width="89.4923" height="51.1384" rx="25.5692" fill="#333333"/>
<circle cx="610.946" cy="450.51" r="19.1769" fill="white"/>
</svg>
