<svg width="800" height="800" viewBox="0 0 800 800" fill="none" xmlns="http://www.w3.org/2000/svg">
<rect width="800" height="800" fill="#1F1F1F"/>
<g clip-path="url(#clip0_53_24403)">
<rect width="600" height="430.8" transform="translate(100 159.125)" fill="white"/>
<path d="M125.6 226.541H154.4V197.741H125.6V226.541ZM166.205 204.05L170.705 213.599L175.233 204.05H179.48L172.674 217.03V224.525H168.751V217.03L161.93 204.05H166.205ZM179.807 217.072V216.777C179.807 215.661 179.966 214.635 180.285 213.697C180.604 212.75 181.068 211.93 181.677 211.236C182.287 210.542 183.032 210.003 183.913 209.619C184.795 209.225 185.798 209.028 186.923 209.028C188.066 209.028 189.079 209.225 189.96 209.619C190.851 210.003 191.601 210.542 192.21 211.236C192.82 211.93 193.284 212.75 193.602 213.697C193.921 214.635 194.081 215.661 194.081 216.777V217.072C194.081 218.178 193.921 219.205 193.602 220.152C193.284 221.089 192.82 221.91 192.21 222.613C191.601 223.306 190.856 223.845 189.974 224.23C189.093 224.614 188.085 224.806 186.951 224.806C185.826 224.806 184.818 224.614 183.927 224.23C183.037 223.845 182.287 223.306 181.677 222.613C181.068 221.91 180.604 221.089 180.285 220.152C179.966 219.205 179.807 218.178 179.807 217.072ZM183.52 216.777V217.072C183.52 217.738 183.585 218.361 183.716 218.942C183.848 219.524 184.049 220.035 184.321 220.475C184.593 220.916 184.945 221.263 185.376 221.516C185.816 221.76 186.341 221.881 186.951 221.881C187.551 221.881 188.066 221.76 188.498 221.516C188.929 221.263 189.281 220.916 189.552 220.475C189.834 220.035 190.04 219.524 190.171 218.942C190.302 218.361 190.368 217.738 190.368 217.072V216.777C190.368 216.12 190.302 215.506 190.171 214.935C190.04 214.353 189.834 213.842 189.552 213.402C189.281 212.952 188.924 212.6 188.484 212.347C188.052 212.085 187.532 211.953 186.923 211.953C186.323 211.953 185.807 212.085 185.376 212.347C184.945 212.6 184.593 212.952 184.321 213.402C184.049 213.842 183.848 214.353 183.716 214.935C183.585 215.506 183.52 216.12 183.52 216.777ZM205.981 220.911V209.31H209.721V224.525H206.206L205.981 220.911ZM206.459 217.761L207.612 217.733C207.612 218.755 207.5 219.697 207.275 220.56C207.05 221.422 206.698 222.172 206.22 222.81C205.751 223.438 205.156 223.93 204.434 224.286C203.712 224.633 202.859 224.806 201.875 224.806C201.125 224.806 200.44 224.703 199.821 224.497C199.203 224.281 198.668 223.949 198.218 223.499C197.778 223.039 197.435 222.453 197.192 221.741C196.948 221.019 196.826 220.152 196.826 219.139V209.31H200.539V219.167C200.539 219.674 200.595 220.095 200.707 220.433C200.829 220.77 200.993 221.047 201.2 221.263C201.415 221.469 201.664 221.619 201.945 221.713C202.235 221.797 202.545 221.839 202.873 221.839C203.773 221.839 204.481 221.661 204.996 221.305C205.521 220.939 205.896 220.452 206.121 219.842C206.346 219.224 206.459 218.53 206.459 217.761ZM215.279 202.925V204.852L214.886 210.364H212.509V205.063V202.925H215.279ZM221.738 212.417V224.525H218.025V209.31H221.541L221.738 212.417ZM226.364 209.211L226.308 212.67C226.102 212.633 225.867 212.605 225.605 212.586C225.352 212.567 225.113 212.558 224.888 212.558C224.316 212.558 223.814 212.638 223.383 212.797C222.952 212.947 222.591 213.167 222.3 213.458C222.019 213.749 221.803 214.105 221.653 214.527C221.503 214.939 221.419 215.408 221.4 215.933L220.598 215.835C220.598 214.869 220.697 213.974 220.894 213.149C221.091 212.324 221.377 211.602 221.752 210.983C222.127 210.364 222.595 209.886 223.158 209.549C223.73 209.202 224.386 209.028 225.127 209.028C225.333 209.028 225.553 209.047 225.788 209.085C226.031 209.113 226.223 209.155 226.364 209.211ZM235.1 224.806C233.947 224.806 232.911 224.619 231.992 224.244C231.074 223.869 230.291 223.349 229.644 222.683C229.007 222.008 228.514 221.225 228.167 220.335C227.83 219.435 227.661 218.469 227.661 217.438V216.875C227.661 215.703 227.83 214.639 228.167 213.683C228.505 212.717 228.983 211.888 229.602 211.194C230.221 210.5 230.961 209.966 231.824 209.591C232.686 209.216 233.638 209.028 234.678 209.028C235.757 209.028 236.708 209.211 237.533 209.577C238.358 209.933 239.047 210.439 239.6 211.095C240.153 211.752 240.571 212.539 240.852 213.458C241.133 214.367 241.274 215.375 241.274 216.481V218.042H229.349V215.483H237.617V215.202C237.599 214.611 237.486 214.072 237.28 213.585C237.074 213.088 236.755 212.694 236.324 212.403C235.892 212.103 235.335 211.953 234.65 211.953C234.097 211.953 233.614 212.075 233.202 212.319C232.799 212.553 232.461 212.891 232.189 213.331C231.927 213.763 231.73 214.278 231.599 214.878C231.467 215.478 231.402 216.144 231.402 216.875V217.438C231.402 218.075 231.486 218.666 231.655 219.21C231.833 219.753 232.091 220.227 232.428 220.63C232.775 221.024 233.188 221.333 233.666 221.558C234.153 221.774 234.707 221.881 235.325 221.881C236.103 221.881 236.807 221.731 237.435 221.431C238.072 221.122 238.625 220.667 239.094 220.067L240.964 222.008C240.646 222.477 240.214 222.927 239.671 223.358C239.136 223.789 238.489 224.141 237.73 224.413C236.971 224.675 236.094 224.806 235.1 224.806ZM254.935 212.417V224.525H251.223V209.31H254.738L254.935 212.417ZM259.562 209.211L259.505 212.67C259.299 212.633 259.065 212.605 258.802 212.586C258.549 212.567 258.31 212.558 258.085 212.558C257.513 212.558 257.012 212.638 256.58 212.797C256.149 212.947 255.788 213.167 255.498 213.458C255.216 213.749 255.001 214.105 254.851 214.527C254.701 214.939 254.616 215.408 254.598 215.933L253.796 215.835C253.796 214.869 253.895 213.974 254.091 213.149C254.288 212.324 254.574 211.602 254.949 210.983C255.324 210.364 255.793 209.886 256.355 209.549C256.927 209.202 257.584 209.028 258.324 209.028C258.53 209.028 258.751 209.047 258.985 209.085C259.229 209.113 259.421 209.155 259.562 209.211ZM268.298 224.806C267.145 224.806 266.109 224.619 265.19 224.244C264.271 223.869 263.489 223.349 262.842 222.683C262.204 222.008 261.712 221.225 261.365 220.335C261.028 219.435 260.859 218.469 260.859 217.438V216.875C260.859 215.703 261.028 214.639 261.365 213.683C261.703 212.717 262.181 211.888 262.799 211.194C263.418 210.5 264.159 209.966 265.021 209.591C265.884 209.216 266.835 209.028 267.876 209.028C268.954 209.028 269.906 209.211 270.731 209.577C271.556 209.933 272.245 210.439 272.798 211.095C273.351 211.752 273.768 212.539 274.049 213.458C274.331 214.367 274.471 215.375 274.471 216.481V218.042H262.546V215.483H270.815V215.202C270.796 214.611 270.684 214.072 270.478 213.585C270.271 213.088 269.953 212.694 269.521 212.403C269.09 212.103 268.532 211.953 267.848 211.953C267.295 211.953 266.812 212.075 266.399 212.319C265.996 212.553 265.659 212.891 265.387 213.331C265.124 213.763 264.928 214.278 264.796 214.878C264.665 215.478 264.599 216.144 264.599 216.875V217.438C264.599 218.075 264.684 218.666 264.853 219.21C265.031 219.753 265.289 220.227 265.626 220.63C265.973 221.024 266.385 221.333 266.864 221.558C267.351 221.774 267.904 221.881 268.523 221.881C269.301 221.881 270.004 221.731 270.632 221.431C271.27 221.122 271.823 220.667 272.292 220.067L274.162 222.008C273.843 222.477 273.412 222.927 272.868 223.358C272.334 223.789 271.687 224.141 270.928 224.413C270.168 224.675 269.292 224.806 268.298 224.806ZM286.779 209.31H290.154V224.061C290.154 225.439 289.854 226.606 289.254 227.563C288.664 228.528 287.834 229.26 286.765 229.756C285.697 230.263 284.454 230.516 283.039 230.516C282.429 230.516 281.768 230.431 281.056 230.263C280.353 230.094 279.673 229.827 279.017 229.461C278.37 229.105 277.831 228.641 277.4 228.069L279.073 225.875C279.579 226.466 280.151 226.911 280.789 227.211C281.426 227.52 282.115 227.675 282.856 227.675C283.606 227.675 284.243 227.535 284.768 227.253C285.303 226.981 285.711 226.578 285.992 226.044C286.283 225.519 286.428 224.872 286.428 224.103V212.783L286.779 209.31ZM276.5 217.1V216.805C276.5 215.642 276.64 214.588 276.922 213.641C277.203 212.685 277.606 211.864 278.131 211.18C278.665 210.495 279.308 209.966 280.058 209.591C280.817 209.216 281.67 209.028 282.617 209.028C283.62 209.028 284.464 209.211 285.148 209.577C285.842 209.942 286.414 210.463 286.864 211.138C287.323 211.813 287.679 212.614 287.933 213.542C288.195 214.461 288.397 215.474 288.537 216.58V217.381C288.406 218.46 288.195 219.449 287.904 220.349C287.623 221.249 287.248 222.036 286.779 222.711C286.311 223.377 285.729 223.892 285.036 224.258C284.342 224.624 283.526 224.806 282.589 224.806C281.651 224.806 280.808 224.614 280.058 224.23C279.308 223.845 278.665 223.306 278.131 222.613C277.606 221.919 277.203 221.103 276.922 220.166C276.64 219.228 276.5 218.206 276.5 217.1ZM280.212 216.805V217.1C280.212 217.756 280.278 218.37 280.409 218.942C280.54 219.514 280.742 220.02 281.014 220.461C281.286 220.892 281.628 221.23 282.04 221.474C282.453 221.717 282.945 221.839 283.517 221.839C284.286 221.839 284.914 221.68 285.401 221.361C285.898 221.033 286.273 220.588 286.526 220.025C286.789 219.453 286.958 218.811 287.033 218.099V215.891C286.986 215.328 286.883 214.808 286.723 214.33C286.573 213.852 286.362 213.439 286.09 213.092C285.818 212.745 285.472 212.474 285.05 212.277C284.628 212.08 284.126 211.981 283.545 211.981C282.983 211.981 282.49 212.108 282.068 212.361C281.647 212.605 281.3 212.947 281.028 213.388C280.756 213.828 280.55 214.339 280.409 214.92C280.278 215.502 280.212 216.13 280.212 216.805ZM297.583 209.31V224.525H293.856V209.31H297.583ZM293.603 205.33C293.603 204.777 293.791 204.317 294.166 203.952C294.55 203.586 295.066 203.403 295.712 203.403C296.359 203.403 296.87 203.586 297.245 203.952C297.63 204.317 297.822 204.777 297.822 205.33C297.822 205.874 297.63 206.328 297.245 206.694C296.87 207.06 296.359 207.242 295.712 207.242C295.066 207.242 294.55 207.06 294.166 206.694C293.791 206.328 293.603 205.874 293.603 205.33ZM309.638 220.363C309.638 220.044 309.553 219.758 309.385 219.505C309.216 219.252 308.897 219.022 308.428 218.816C307.969 218.6 307.294 218.399 306.403 218.211C305.616 218.042 304.889 217.831 304.224 217.578C303.558 217.325 302.986 217.02 302.508 216.664C302.03 216.299 301.655 215.872 301.383 215.385C301.121 214.888 300.989 214.316 300.989 213.669C300.989 213.041 301.125 212.45 301.397 211.897C301.669 211.335 302.063 210.842 302.578 210.42C303.094 209.989 303.722 209.652 304.463 209.408C305.203 209.155 306.038 209.028 306.966 209.028C308.26 209.028 309.371 209.239 310.299 209.661C311.236 210.083 311.953 210.664 312.45 211.405C312.947 212.136 313.196 212.961 313.196 213.88H309.483C309.483 213.477 309.389 213.111 309.202 212.783C309.024 212.455 308.747 212.192 308.372 211.995C307.997 211.789 307.524 211.686 306.952 211.686C306.436 211.686 306 211.77 305.644 211.939C305.297 212.108 305.035 212.328 304.856 212.6C304.678 212.872 304.589 213.172 304.589 213.5C304.589 213.744 304.636 213.964 304.73 214.161C304.833 214.349 304.997 214.522 305.222 214.681C305.447 214.841 305.752 214.986 306.136 215.117C306.53 215.249 307.013 215.375 307.585 215.497C308.719 215.722 309.708 216.022 310.552 216.397C311.405 216.763 312.071 217.25 312.549 217.86C313.027 218.469 313.266 219.247 313.266 220.194C313.266 220.869 313.121 221.488 312.83 222.05C312.539 222.603 312.117 223.086 311.564 223.499C311.011 223.911 310.35 224.235 309.581 224.469C308.813 224.694 307.946 224.806 306.98 224.806C305.583 224.806 304.402 224.558 303.436 224.061C302.471 223.555 301.739 222.917 301.242 222.149C300.746 221.37 300.497 220.564 300.497 219.73H304.055C304.083 220.32 304.242 220.794 304.533 221.15C304.824 221.506 305.189 221.764 305.63 221.924C306.08 222.074 306.553 222.149 307.05 222.149C307.613 222.149 308.086 222.074 308.471 221.924C308.855 221.764 309.146 221.553 309.342 221.291C309.539 221.019 309.638 220.71 309.638 220.363ZM323.436 209.31V211.981H314.718V209.31H323.436ZM317.052 205.569H320.779V220.138C320.779 220.588 320.84 220.935 320.961 221.178C321.083 221.422 321.266 221.586 321.51 221.67C321.754 221.755 322.044 221.797 322.382 221.797C322.625 221.797 322.85 221.783 323.057 221.755C323.263 221.727 323.436 221.699 323.577 221.67L323.591 224.455C323.282 224.558 322.93 224.642 322.536 224.708C322.152 224.774 321.716 224.806 321.229 224.806C320.394 224.806 319.663 224.666 319.035 224.385C318.407 224.094 317.919 223.63 317.572 222.992C317.225 222.345 317.052 221.492 317.052 220.433V205.569ZM332.89 224.806C331.737 224.806 330.701 224.619 329.782 224.244C328.863 223.869 328.08 223.349 327.434 222.683C326.796 222.008 326.304 221.225 325.957 220.335C325.619 219.435 325.451 218.469 325.451 217.438V216.875C325.451 215.703 325.619 214.639 325.957 213.683C326.294 212.717 326.773 211.888 327.391 211.194C328.01 210.5 328.751 209.966 329.613 209.591C330.476 209.216 331.427 209.028 332.468 209.028C333.546 209.028 334.498 209.211 335.323 209.577C336.148 209.933 336.837 210.439 337.39 211.095C337.943 211.752 338.36 212.539 338.641 213.458C338.923 214.367 339.063 215.375 339.063 216.481V218.042H327.138V215.483H335.407V215.202C335.388 214.611 335.276 214.072 335.069 213.585C334.863 213.088 334.544 212.694 334.113 212.403C333.682 212.103 333.124 211.953 332.44 211.953C331.887 211.953 331.404 212.075 330.991 212.319C330.588 212.553 330.251 212.891 329.979 213.331C329.716 213.763 329.519 214.278 329.388 214.878C329.257 215.478 329.191 216.144 329.191 216.875V217.438C329.191 218.075 329.276 218.666 329.444 219.21C329.623 219.753 329.88 220.227 330.218 220.63C330.565 221.024 330.977 221.333 331.455 221.558C331.943 221.774 332.496 221.881 333.115 221.881C333.893 221.881 334.596 221.731 335.224 221.431C335.862 221.122 336.415 220.667 336.884 220.067L338.754 222.008C338.435 222.477 338.004 222.927 337.46 223.358C336.926 223.789 336.279 224.141 335.519 224.413C334.76 224.675 333.884 224.806 332.89 224.806ZM345.409 212.417V224.525H341.696V209.31H345.212L345.409 212.417ZM350.035 209.211L349.979 212.67C349.773 212.633 349.538 212.605 349.276 212.586C349.023 212.567 348.784 212.558 348.559 212.558C347.987 212.558 347.485 212.638 347.054 212.797C346.623 212.947 346.262 213.167 345.971 213.458C345.69 213.749 345.474 214.105 345.324 214.527C345.174 214.939 345.09 215.408 345.071 215.933L344.27 215.835C344.27 214.869 344.368 213.974 344.565 213.149C344.762 212.324 345.048 211.602 345.423 210.983C345.798 210.364 346.267 209.886 346.829 209.549C347.401 209.202 348.057 209.028 348.798 209.028C349.004 209.028 349.224 209.047 349.459 209.085C349.703 209.113 349.895 209.155 350.035 209.211ZM358.772 224.806C357.618 224.806 356.582 224.619 355.664 224.244C354.745 223.869 353.962 223.349 353.315 222.683C352.678 222.008 352.186 221.225 351.839 220.335C351.501 219.435 351.332 218.469 351.332 217.438V216.875C351.332 215.703 351.501 214.639 351.839 213.683C352.176 212.717 352.654 211.888 353.273 211.194C353.892 210.5 354.632 209.966 355.495 209.591C356.357 209.216 357.309 209.028 358.35 209.028C359.428 209.028 360.379 209.211 361.204 209.577C362.029 209.933 362.718 210.439 363.272 211.095C363.825 211.752 364.242 212.539 364.523 213.458C364.804 214.367 364.945 215.375 364.945 216.481V218.042H353.02V215.483H361.289V215.202C361.27 214.611 361.157 214.072 360.951 213.585C360.745 213.088 360.426 212.694 359.995 212.403C359.564 212.103 359.006 211.953 358.322 211.953C357.768 211.953 357.286 212.075 356.873 212.319C356.47 212.553 356.132 212.891 355.861 213.331C355.598 213.763 355.401 214.278 355.27 214.878C355.139 215.478 355.073 216.144 355.073 216.875V217.438C355.073 218.075 355.157 218.666 355.326 219.21C355.504 219.753 355.762 220.227 356.1 220.63C356.447 221.024 356.859 221.333 357.337 221.558C357.825 221.774 358.378 221.881 358.997 221.881C359.775 221.881 360.478 221.731 361.106 221.431C361.743 221.122 362.297 220.667 362.765 220.067L364.636 222.008C364.317 222.477 363.886 222.927 363.342 223.358C362.807 223.789 362.161 224.141 361.401 224.413C360.642 224.675 359.765 224.806 358.772 224.806ZM376.705 221.291V202.925H380.445V224.525H377.07L376.705 221.291ZM366.931 217.1V216.805C366.931 215.642 367.062 214.588 367.325 213.641C367.597 212.685 367.991 211.864 368.506 211.18C369.022 210.495 369.645 209.966 370.376 209.591C371.117 209.216 371.956 209.028 372.894 209.028C373.803 209.028 374.595 209.211 375.27 209.577C375.955 209.942 376.536 210.463 377.014 211.138C377.501 211.813 377.891 212.614 378.181 213.542C378.472 214.461 378.683 215.474 378.814 216.58V217.381C378.683 218.46 378.472 219.449 378.181 220.349C377.891 221.249 377.501 222.036 377.014 222.711C376.536 223.377 375.955 223.892 375.27 224.258C374.586 224.624 373.784 224.806 372.866 224.806C371.937 224.806 371.103 224.614 370.362 224.23C369.631 223.845 369.008 223.306 368.492 222.613C367.986 221.919 367.597 221.103 367.325 220.166C367.062 219.228 366.931 218.206 366.931 217.1ZM370.658 216.805V217.1C370.658 217.756 370.714 218.37 370.826 218.942C370.939 219.514 371.122 220.02 371.375 220.461C371.628 220.892 371.951 221.23 372.345 221.474C372.748 221.717 373.236 221.839 373.808 221.839C374.539 221.839 375.139 221.68 375.608 221.361C376.086 221.033 376.456 220.588 376.719 220.025C376.981 219.453 377.15 218.811 377.225 218.099V215.891C377.187 215.328 377.089 214.808 376.93 214.33C376.78 213.852 376.564 213.439 376.283 213.092C376.011 212.745 375.673 212.474 375.27 212.277C374.867 212.08 374.389 211.981 373.836 211.981C373.264 211.981 372.776 212.108 372.373 212.361C371.97 212.605 371.642 212.947 371.389 213.388C371.136 213.828 370.948 214.339 370.826 214.92C370.714 215.502 370.658 216.13 370.658 216.805ZM388.183 204.05L387.775 218.38H384.639L384.231 204.05H388.183ZM384.119 222.795C384.119 222.242 384.306 221.778 384.681 221.403C385.066 221.019 385.581 220.827 386.228 220.827C386.875 220.827 387.386 221.019 387.761 221.403C388.145 221.778 388.338 222.242 388.338 222.795C388.338 223.339 388.145 223.799 387.761 224.174C387.386 224.549 386.875 224.736 386.228 224.736C385.581 224.736 385.066 224.549 384.681 224.174C384.306 223.799 384.119 223.339 384.119 222.795Z" fill="#333333"/>
<rect x="126.4" y="270.725" width="548.8" height="88" rx="12" stroke="#7237FF" stroke-width="1.6"/>
<path d="M307.367 305.125H305.233V304.059C305.233 303.419 304.807 302.992 304.167 302.992C303.527 302.992 303.1 303.419 303.1 304.059V305.125H296.7V304.059C296.7 303.419 296.273 302.992 295.633 302.992C294.993 302.992 294.567 303.419 294.567 304.059V305.125H292.433C290.62 305.125 289.233 306.512 289.233 308.325V323.259C289.233 325.072 290.62 326.459 292.433 326.459H307.367C309.18 326.459 310.567 325.072 310.567 323.259V308.325C310.567 306.512 309.18 305.125 307.367 305.125ZM292.433 307.259H294.567V308.325C294.567 308.965 294.993 309.392 295.633 309.392C296.273 309.392 296.7 308.965 296.7 308.325V307.259H303.1V308.325C303.1 308.965 303.527 309.392 304.167 309.392C304.807 309.392 305.233 308.965 305.233 308.325V307.259H307.367C308.007 307.259 308.433 307.685 308.433 308.325V311.525H291.367V308.325C291.367 307.685 291.793 307.259 292.433 307.259ZM307.367 324.325H292.433C291.793 324.325 291.367 323.899 291.367 323.259V313.659H308.433V323.259C308.433 323.899 308.007 324.325 307.367 324.325Z" fill="#7237FF"/>
<path d="M334.612 307.95L329.175 323.725H325.887L332.737 305.525H334.837L334.612 307.95ZM339.162 323.725L333.712 307.95L333.475 305.525H335.587L342.462 323.725H339.162ZM338.9 316.975V319.463H329V316.975H338.9ZM352.45 320.925V304.525H355.475V323.725H352.737L352.45 320.925ZM343.65 317.113V316.85C343.65 315.825 343.771 314.892 344.012 314.05C344.254 313.2 344.604 312.471 345.062 311.863C345.521 311.246 346.079 310.775 346.737 310.45C347.396 310.117 348.137 309.95 348.962 309.95C349.779 309.95 350.496 310.108 351.112 310.425C351.729 310.742 352.254 311.196 352.687 311.788C353.121 312.371 353.467 313.071 353.725 313.888C353.983 314.696 354.167 315.596 354.275 316.588V317.425C354.167 318.392 353.983 319.275 353.725 320.075C353.467 320.875 353.121 321.567 352.687 322.15C352.254 322.733 351.725 323.183 351.1 323.5C350.483 323.817 349.762 323.975 348.937 323.975C348.121 323.975 347.383 323.804 346.725 323.463C346.075 323.121 345.521 322.642 345.062 322.025C344.604 321.408 344.254 320.683 344.012 319.85C343.771 319.008 343.65 318.096 343.65 317.113ZM346.662 316.85V317.113C346.662 317.729 346.717 318.304 346.825 318.838C346.942 319.371 347.121 319.842 347.362 320.25C347.604 320.65 347.917 320.967 348.3 321.2C348.692 321.425 349.158 321.538 349.7 321.538C350.383 321.538 350.946 321.388 351.387 321.088C351.829 320.788 352.175 320.383 352.425 319.875C352.683 319.358 352.858 318.783 352.95 318.15V315.888C352.9 315.396 352.796 314.938 352.637 314.513C352.487 314.088 352.283 313.717 352.025 313.4C351.767 313.075 351.446 312.825 351.062 312.65C350.687 312.467 350.242 312.375 349.725 312.375C349.175 312.375 348.708 312.492 348.325 312.725C347.942 312.958 347.625 313.279 347.375 313.688C347.133 314.096 346.954 314.571 346.837 315.113C346.721 315.654 346.662 316.233 346.662 316.85ZM366.875 320.925V304.525H369.9V323.725H367.162L366.875 320.925ZM358.075 317.113V316.85C358.075 315.825 358.196 314.892 358.437 314.05C358.679 313.2 359.029 312.471 359.487 311.863C359.946 311.246 360.504 310.775 361.162 310.45C361.821 310.117 362.562 309.95 363.387 309.95C364.204 309.95 364.921 310.108 365.537 310.425C366.154 310.742 366.679 311.196 367.112 311.788C367.546 312.371 367.892 313.071 368.15 313.888C368.408 314.696 368.592 315.596 368.7 316.588V317.425C368.592 318.392 368.408 319.275 368.15 320.075C367.892 320.875 367.546 321.567 367.112 322.15C366.679 322.733 366.15 323.183 365.525 323.5C364.908 323.817 364.187 323.975 363.362 323.975C362.546 323.975 361.808 323.804 361.15 323.463C360.5 323.121 359.946 322.642 359.487 322.025C359.029 321.408 358.679 320.683 358.437 319.85C358.196 319.008 358.075 318.096 358.075 317.113ZM361.087 316.85V317.113C361.087 317.729 361.142 318.304 361.25 318.838C361.367 319.371 361.546 319.842 361.787 320.25C362.029 320.65 362.342 320.967 362.725 321.2C363.117 321.425 363.583 321.538 364.125 321.538C364.808 321.538 365.371 321.388 365.812 321.088C366.254 320.788 366.6 320.383 366.85 319.875C367.108 319.358 367.283 318.783 367.375 318.15V315.888C367.325 315.396 367.221 314.938 367.062 314.513C366.912 314.088 366.708 313.717 366.45 313.4C366.192 313.075 365.871 312.825 365.487 312.65C365.112 312.467 364.667 312.375 364.15 312.375C363.6 312.375 363.133 312.492 362.75 312.725C362.367 312.958 362.05 313.279 361.8 313.688C361.558 314.096 361.379 314.571 361.262 315.113C361.146 315.654 361.087 316.233 361.087 316.85ZM386.612 305.525V323.725H383.5V305.525H386.612ZM392.325 305.525V308.025H377.837V305.525H392.325ZM392.1 317.113V316.825C392.1 315.85 392.242 314.946 392.525 314.113C392.808 313.271 393.217 312.542 393.75 311.925C394.292 311.3 394.95 310.817 395.725 310.475C396.508 310.125 397.392 309.95 398.375 309.95C399.367 309.95 400.25 310.125 401.025 310.475C401.808 310.817 402.471 311.3 403.013 311.925C403.554 312.542 403.967 313.271 404.25 314.113C404.533 314.946 404.675 315.85 404.675 316.825V317.113C404.675 318.088 404.533 318.992 404.25 319.825C403.967 320.658 403.554 321.388 403.013 322.013C402.471 322.629 401.813 323.113 401.038 323.463C400.263 323.804 399.383 323.975 398.4 323.975C397.408 323.975 396.521 323.804 395.738 323.463C394.963 323.113 394.304 322.629 393.763 322.013C393.221 321.388 392.808 320.658 392.525 319.825C392.242 318.992 392.1 318.088 392.1 317.113ZM395.113 316.825V317.113C395.113 317.721 395.175 318.296 395.3 318.838C395.425 319.379 395.621 319.854 395.888 320.263C396.154 320.671 396.496 320.992 396.913 321.225C397.329 321.458 397.825 321.575 398.4 321.575C398.958 321.575 399.442 321.458 399.85 321.225C400.267 320.992 400.608 320.671 400.875 320.263C401.142 319.854 401.338 319.379 401.463 318.838C401.596 318.296 401.663 317.721 401.663 317.113V316.825C401.663 316.225 401.596 315.658 401.463 315.125C401.338 314.583 401.138 314.104 400.863 313.688C400.596 313.271 400.254 312.946 399.838 312.713C399.429 312.471 398.942 312.35 398.375 312.35C397.808 312.35 397.317 312.471 396.9 312.713C396.492 312.946 396.154 313.271 395.888 313.688C395.621 314.104 395.425 314.583 395.3 315.125C395.175 315.658 395.113 316.225 395.113 316.825ZM424.625 317.8H427.75C427.65 318.992 427.317 320.054 426.75 320.988C426.183 321.913 425.387 322.642 424.362 323.175C423.337 323.708 422.092 323.975 420.625 323.975C419.5 323.975 418.487 323.775 417.587 323.375C416.687 322.967 415.917 322.392 415.275 321.65C414.633 320.9 414.142 319.996 413.8 318.938C413.467 317.879 413.3 316.696 413.3 315.388V313.875C413.3 312.567 413.471 311.383 413.812 310.325C414.162 309.267 414.662 308.363 415.312 307.613C415.962 306.854 416.742 306.275 417.65 305.875C418.567 305.475 419.596 305.275 420.737 305.275C422.187 305.275 423.412 305.542 424.412 306.075C425.412 306.608 426.187 307.346 426.737 308.288C427.296 309.229 427.637 310.308 427.762 311.525H424.637C424.554 310.742 424.371 310.071 424.087 309.513C423.812 308.954 423.404 308.529 422.862 308.238C422.321 307.938 421.612 307.788 420.737 307.788C420.021 307.788 419.396 307.921 418.862 308.188C418.329 308.454 417.883 308.846 417.525 309.363C417.167 309.879 416.896 310.517 416.712 311.275C416.537 312.025 416.45 312.883 416.45 313.85V315.388C416.45 316.304 416.529 317.138 416.687 317.888C416.854 318.629 417.104 319.267 417.437 319.8C417.779 320.333 418.212 320.746 418.737 321.038C419.262 321.329 419.892 321.475 420.625 321.475C421.517 321.475 422.237 321.333 422.787 321.05C423.346 320.767 423.767 320.354 424.05 319.813C424.342 319.263 424.533 318.592 424.625 317.8ZM437.925 321.013V314.563C437.925 314.079 437.838 313.663 437.663 313.313C437.488 312.963 437.221 312.692 436.863 312.5C436.513 312.308 436.071 312.213 435.538 312.213C435.046 312.213 434.621 312.296 434.263 312.463C433.904 312.629 433.625 312.854 433.425 313.138C433.225 313.421 433.125 313.742 433.125 314.1H430.125C430.125 313.567 430.254 313.05 430.513 312.55C430.771 312.05 431.146 311.604 431.638 311.213C432.129 310.821 432.717 310.513 433.4 310.288C434.083 310.063 434.85 309.95 435.7 309.95C436.717 309.95 437.617 310.121 438.4 310.463C439.192 310.804 439.813 311.321 440.263 312.013C440.721 312.696 440.95 313.554 440.95 314.588V320.6C440.95 321.217 440.992 321.771 441.075 322.263C441.167 322.746 441.296 323.167 441.463 323.525V323.725H438.375C438.233 323.4 438.121 322.988 438.038 322.488C437.963 321.979 437.925 321.488 437.925 321.013ZM438.363 315.5L438.388 317.363H436.225C435.667 317.363 435.175 317.417 434.75 317.525C434.325 317.625 433.971 317.775 433.688 317.975C433.404 318.175 433.192 318.417 433.05 318.7C432.908 318.983 432.838 319.304 432.838 319.663C432.838 320.021 432.921 320.35 433.088 320.65C433.254 320.942 433.496 321.171 433.813 321.338C434.138 321.504 434.529 321.588 434.988 321.588C435.604 321.588 436.142 321.463 436.6 321.213C437.067 320.954 437.433 320.642 437.7 320.275C437.967 319.9 438.108 319.546 438.125 319.213L439.1 320.55C439 320.892 438.829 321.258 438.588 321.65C438.346 322.042 438.029 322.417 437.638 322.775C437.254 323.125 436.792 323.413 436.25 323.638C435.717 323.863 435.1 323.975 434.4 323.975C433.517 323.975 432.729 323.8 432.038 323.45C431.346 323.092 430.804 322.613 430.413 322.013C430.021 321.404 429.825 320.717 429.825 319.95C429.825 319.233 429.958 318.6 430.225 318.05C430.5 317.492 430.9 317.025 431.425 316.65C431.958 316.275 432.608 315.992 433.375 315.8C434.142 315.6 435.017 315.5 436 315.5H438.363ZM447.325 304.525V323.725H444.3V304.525H447.325ZM456.587 323.975C455.587 323.975 454.683 323.813 453.875 323.488C453.075 323.154 452.392 322.692 451.825 322.1C451.267 321.508 450.837 320.813 450.537 320.013C450.237 319.213 450.087 318.35 450.087 317.425V316.925C450.087 315.867 450.242 314.908 450.55 314.05C450.858 313.192 451.287 312.458 451.837 311.85C452.387 311.233 453.037 310.763 453.787 310.438C454.537 310.113 455.35 309.95 456.225 309.95C457.192 309.95 458.037 310.113 458.762 310.438C459.487 310.763 460.087 311.221 460.562 311.813C461.046 312.396 461.404 313.092 461.637 313.9C461.879 314.708 462 315.6 462 316.575V317.863H451.55V315.7H459.025V315.463C459.008 314.921 458.9 314.413 458.7 313.938C458.508 313.463 458.212 313.079 457.812 312.788C457.412 312.496 456.879 312.35 456.212 312.35C455.712 312.35 455.267 312.458 454.875 312.675C454.492 312.883 454.171 313.188 453.912 313.588C453.654 313.988 453.454 314.471 453.312 315.038C453.179 315.596 453.112 316.225 453.112 316.925V317.425C453.112 318.017 453.192 318.567 453.35 319.075C453.517 319.575 453.758 320.013 454.075 320.388C454.392 320.763 454.775 321.058 455.225 321.275C455.675 321.483 456.187 321.588 456.762 321.588C457.487 321.588 458.133 321.442 458.7 321.15C459.267 320.858 459.758 320.446 460.175 319.913L461.762 321.45C461.471 321.875 461.092 322.283 460.625 322.675C460.158 323.058 459.587 323.371 458.912 323.613C458.246 323.854 457.471 323.975 456.587 323.975ZM467.337 313.088V323.725H464.325V310.2H467.162L467.337 313.088ZM466.8 316.463L465.825 316.45C465.833 315.492 465.967 314.613 466.225 313.813C466.492 313.013 466.858 312.325 467.325 311.75C467.8 311.175 468.367 310.733 469.025 310.425C469.683 310.108 470.417 309.95 471.225 309.95C471.875 309.95 472.462 310.042 472.987 310.225C473.521 310.4 473.975 310.688 474.35 311.088C474.733 311.488 475.025 312.008 475.225 312.65C475.425 313.283 475.525 314.063 475.525 314.988V323.725H472.5V314.975C472.5 314.325 472.404 313.813 472.212 313.438C472.029 313.054 471.758 312.783 471.4 312.625C471.05 312.458 470.612 312.375 470.087 312.375C469.571 312.375 469.108 312.483 468.7 312.7C468.292 312.917 467.946 313.213 467.662 313.588C467.387 313.963 467.175 314.396 467.025 314.888C466.875 315.379 466.8 315.904 466.8 316.463ZM486.85 320.925V304.525H489.875V323.725H487.137L486.85 320.925ZM478.05 317.113V316.85C478.05 315.825 478.171 314.892 478.412 314.05C478.654 313.2 479.004 312.471 479.462 311.863C479.921 311.246 480.479 310.775 481.137 310.45C481.796 310.117 482.537 309.95 483.362 309.95C484.179 309.95 484.896 310.108 485.512 310.425C486.129 310.742 486.654 311.196 487.087 311.788C487.521 312.371 487.867 313.071 488.125 313.888C488.383 314.696 488.567 315.596 488.675 316.588V317.425C488.567 318.392 488.383 319.275 488.125 320.075C487.867 320.875 487.521 321.567 487.087 322.15C486.654 322.733 486.125 323.183 485.5 323.5C484.883 323.817 484.162 323.975 483.337 323.975C482.521 323.975 481.783 323.804 481.125 323.463C480.475 323.121 479.921 322.642 479.462 322.025C479.004 321.408 478.654 320.683 478.412 319.85C478.171 319.008 478.05 318.096 478.05 317.113ZM481.062 316.85V317.113C481.062 317.729 481.117 318.304 481.225 318.838C481.342 319.371 481.521 319.842 481.762 320.25C482.004 320.65 482.317 320.967 482.7 321.2C483.092 321.425 483.558 321.538 484.1 321.538C484.783 321.538 485.346 321.388 485.787 321.088C486.229 320.788 486.575 320.383 486.825 319.875C487.083 319.358 487.258 318.783 487.35 318.15V315.888C487.3 315.396 487.196 314.938 487.037 314.513C486.887 314.088 486.683 313.717 486.425 313.4C486.167 313.075 485.846 312.825 485.462 312.65C485.087 312.467 484.642 312.375 484.125 312.375C483.575 312.375 483.108 312.492 482.725 312.725C482.342 312.958 482.025 313.279 481.775 313.688C481.533 314.096 481.354 314.571 481.237 315.113C481.121 315.654 481.062 316.233 481.062 316.85ZM500.65 321.013V314.563C500.65 314.079 500.563 313.663 500.388 313.313C500.213 312.963 499.946 312.692 499.588 312.5C499.238 312.308 498.796 312.213 498.263 312.213C497.771 312.213 497.346 312.296 496.988 312.463C496.629 312.629 496.35 312.854 496.15 313.138C495.95 313.421 495.85 313.742 495.85 314.1H492.85C492.85 313.567 492.979 313.05 493.238 312.55C493.496 312.05 493.871 311.604 494.363 311.213C494.854 310.821 495.442 310.513 496.125 310.288C496.808 310.063 497.575 309.95 498.425 309.95C499.442 309.95 500.342 310.121 501.125 310.463C501.917 310.804 502.538 311.321 502.988 312.013C503.446 312.696 503.675 313.554 503.675 314.588V320.6C503.675 321.217 503.717 321.771 503.8 322.263C503.892 322.746 504.021 323.167 504.188 323.525V323.725H501.1C500.958 323.4 500.846 322.988 500.763 322.488C500.688 321.979 500.65 321.488 500.65 321.013ZM501.088 315.5L501.113 317.363H498.95C498.392 317.363 497.9 317.417 497.475 317.525C497.05 317.625 496.696 317.775 496.413 317.975C496.129 318.175 495.917 318.417 495.775 318.7C495.633 318.983 495.563 319.304 495.563 319.663C495.563 320.021 495.646 320.35 495.813 320.65C495.979 320.942 496.221 321.171 496.538 321.338C496.863 321.504 497.254 321.588 497.713 321.588C498.329 321.588 498.867 321.463 499.325 321.213C499.792 320.954 500.158 320.642 500.425 320.275C500.692 319.9 500.833 319.546 500.85 319.213L501.825 320.55C501.725 320.892 501.554 321.258 501.313 321.65C501.071 322.042 500.754 322.417 500.363 322.775C499.979 323.125 499.517 323.413 498.975 323.638C498.442 323.863 497.825 323.975 497.125 323.975C496.242 323.975 495.454 323.8 494.763 323.45C494.071 323.092 493.529 322.613 493.138 322.013C492.746 321.404 492.55 320.717 492.55 319.95C492.55 319.233 492.683 318.6 492.95 318.05C493.225 317.492 493.625 317.025 494.15 316.65C494.683 316.275 495.333 315.992 496.1 315.8C496.867 315.6 497.742 315.5 498.725 315.5H501.088ZM509.85 312.775V323.725H506.837V310.2H509.712L509.85 312.775ZM513.987 310.113L513.962 312.913C513.779 312.879 513.579 312.854 513.362 312.838C513.154 312.821 512.946 312.813 512.737 312.813C512.221 312.813 511.767 312.888 511.375 313.038C510.983 313.179 510.654 313.388 510.387 313.663C510.129 313.929 509.929 314.254 509.787 314.638C509.646 315.021 509.562 315.45 509.537 315.925L508.85 315.975C508.85 315.125 508.933 314.338 509.1 313.613C509.267 312.888 509.517 312.25 509.85 311.7C510.192 311.15 510.617 310.721 511.125 310.413C511.642 310.104 512.237 309.95 512.912 309.95C513.096 309.95 513.292 309.967 513.5 310C513.717 310.033 513.879 310.071 513.987 310.113Z" fill="#7237FF"/>
<rect x="126.4" y="385.925" width="548.8" height="88" rx="12" stroke="#7237FF" stroke-width="1.6"/>
<path fill-rule="evenodd" clip-rule="evenodd" d="M348.934 420.195C348.616 420.195 348.312 420.321 348.088 420.546L338.163 430.47L337.6 432.725L339.855 432.162L349.779 422.237C350.004 422.013 350.13 421.709 350.13 421.391C350.13 421.074 350.004 420.77 349.779 420.546C349.555 420.321 349.251 420.195 348.934 420.195ZM346.579 419.037C347.204 418.413 348.051 418.062 348.934 418.062C349.817 418.062 350.664 418.413 351.288 419.037C351.912 419.662 352.263 420.508 352.263 421.391C352.263 422.274 351.912 423.121 351.288 423.746L341.155 433.879C341.018 434.016 340.847 434.113 340.659 434.16L336.392 435.226C336.029 435.317 335.644 435.211 335.379 434.946C335.114 434.681 335.008 434.296 335.099 433.933L336.166 429.666C336.212 429.478 336.309 429.307 336.446 429.171L346.579 419.037ZM329.604 421.262C330.204 420.662 331.018 420.325 331.867 420.325H339.334C339.923 420.325 340.4 420.802 340.4 421.391C340.4 421.981 339.923 422.458 339.334 422.458H331.867C331.584 422.458 331.313 422.57 331.113 422.771C330.913 422.971 330.8 423.242 330.8 423.525V438.458C330.8 438.741 330.913 439.012 331.113 439.212C331.313 439.412 331.584 439.525 331.867 439.525H346.8C347.083 439.525 347.355 439.412 347.555 439.212C347.755 439.012 347.867 438.741 347.867 438.458V430.991C347.867 430.402 348.345 429.925 348.934 429.925C349.523 429.925 350 430.402 350 430.991V438.458C350 439.307 349.663 440.121 349.063 440.721C348.463 441.321 347.649 441.658 346.8 441.658H331.867C331.018 441.658 330.204 441.321 329.604 440.721C329.004 440.121 328.667 439.307 328.667 438.458V423.525C328.667 422.676 329.004 421.862 329.604 421.262Z" fill="#7237FF"/>
<path d="M375.362 423.15L369.925 438.925H366.637L373.487 420.725H375.587L375.362 423.15ZM379.912 438.925L374.462 423.15L374.225 420.725H376.337L383.212 438.925H379.912ZM379.65 432.175V434.663H369.75V432.175H379.65ZM393.2 436.125V419.725H396.225V438.925H393.487L393.2 436.125ZM384.4 432.313V432.05C384.4 431.025 384.521 430.092 384.762 429.25C385.004 428.4 385.354 427.671 385.812 427.063C386.271 426.446 386.829 425.975 387.487 425.65C388.146 425.317 388.887 425.15 389.712 425.15C390.529 425.15 391.246 425.308 391.862 425.625C392.479 425.942 393.004 426.396 393.437 426.988C393.871 427.571 394.217 428.271 394.475 429.088C394.733 429.896 394.917 430.796 395.025 431.788V432.625C394.917 433.592 394.733 434.475 394.475 435.275C394.217 436.075 393.871 436.767 393.437 437.35C393.004 437.933 392.475 438.383 391.85 438.7C391.233 439.017 390.512 439.175 389.687 439.175C388.871 439.175 388.133 439.004 387.475 438.663C386.825 438.321 386.271 437.842 385.812 437.225C385.354 436.608 385.004 435.883 384.762 435.05C384.521 434.208 384.4 433.296 384.4 432.313ZM387.412 432.05V432.313C387.412 432.929 387.467 433.504 387.575 434.038C387.692 434.571 387.871 435.042 388.112 435.45C388.354 435.85 388.667 436.167 389.05 436.4C389.442 436.625 389.908 436.738 390.45 436.738C391.133 436.738 391.696 436.588 392.137 436.288C392.579 435.988 392.925 435.583 393.175 435.075C393.433 434.558 393.608 433.983 393.7 433.35V431.088C393.65 430.596 393.546 430.138 393.387 429.713C393.237 429.288 393.033 428.917 392.775 428.6C392.517 428.275 392.196 428.025 391.812 427.85C391.437 427.667 390.992 427.575 390.475 427.575C389.925 427.575 389.458 427.692 389.075 427.925C388.692 428.158 388.375 428.479 388.125 428.888C387.883 429.296 387.704 429.771 387.587 430.313C387.471 430.854 387.412 431.433 387.412 432.05ZM407.625 436.125V419.725H410.65V438.925H407.913L407.625 436.125ZM398.825 432.313V432.05C398.825 431.025 398.946 430.092 399.188 429.25C399.429 428.4 399.779 427.671 400.238 427.063C400.696 426.446 401.254 425.975 401.913 425.65C402.571 425.317 403.313 425.15 404.138 425.15C404.954 425.15 405.671 425.308 406.288 425.625C406.904 425.942 407.429 426.396 407.863 426.988C408.296 427.571 408.642 428.271 408.9 429.088C409.158 429.896 409.342 430.796 409.45 431.788V432.625C409.342 433.592 409.158 434.475 408.9 435.275C408.642 436.075 408.296 436.767 407.863 437.35C407.429 437.933 406.9 438.383 406.275 438.7C405.658 439.017 404.938 439.175 404.113 439.175C403.296 439.175 402.558 439.004 401.9 438.663C401.25 438.321 400.696 437.842 400.238 437.225C399.779 436.608 399.429 435.883 399.188 435.05C398.946 434.208 398.825 433.296 398.825 432.313ZM401.838 432.05V432.313C401.838 432.929 401.892 433.504 402 434.038C402.117 434.571 402.296 435.042 402.538 435.45C402.779 435.85 403.092 436.167 403.475 436.4C403.867 436.625 404.333 436.738 404.875 436.738C405.558 436.738 406.121 436.588 406.563 436.288C407.004 435.988 407.35 435.583 407.6 435.075C407.858 434.558 408.033 433.983 408.125 433.35V431.088C408.075 430.596 407.971 430.138 407.813 429.713C407.663 429.288 407.458 428.917 407.2 428.6C406.942 428.275 406.621 428.025 406.238 427.85C405.863 427.667 405.417 427.575 404.9 427.575C404.35 427.575 403.883 427.692 403.5 427.925C403.117 428.158 402.8 428.479 402.55 428.888C402.308 429.296 402.129 429.771 402.013 430.313C401.896 430.854 401.838 431.433 401.838 432.05ZM434.913 420.725V438.925H431.775L423.613 425.888V438.925H420.475V420.725H423.613L431.8 433.788V420.725H434.913ZM437.775 432.313V432.025C437.775 431.05 437.917 430.146 438.2 429.313C438.483 428.471 438.892 427.742 439.425 427.125C439.967 426.5 440.625 426.017 441.4 425.675C442.183 425.325 443.067 425.15 444.05 425.15C445.042 425.15 445.925 425.325 446.7 425.675C447.483 426.017 448.146 426.5 448.688 427.125C449.229 427.742 449.642 428.471 449.925 429.313C450.208 430.146 450.35 431.05 450.35 432.025V432.313C450.35 433.288 450.208 434.192 449.925 435.025C449.642 435.858 449.229 436.588 448.688 437.213C448.146 437.829 447.488 438.313 446.713 438.663C445.938 439.004 445.058 439.175 444.075 439.175C443.083 439.175 442.196 439.004 441.413 438.663C440.638 438.313 439.979 437.829 439.438 437.213C438.896 436.588 438.483 435.858 438.2 435.025C437.917 434.192 437.775 433.288 437.775 432.313ZM440.788 432.025V432.313C440.788 432.921 440.85 433.496 440.975 434.038C441.1 434.579 441.296 435.054 441.563 435.463C441.829 435.871 442.171 436.192 442.588 436.425C443.004 436.658 443.5 436.775 444.075 436.775C444.633 436.775 445.117 436.658 445.525 436.425C445.942 436.192 446.283 435.871 446.55 435.463C446.817 435.054 447.013 434.579 447.138 434.038C447.271 433.496 447.338 432.921 447.338 432.313V432.025C447.338 431.425 447.271 430.858 447.138 430.325C447.013 429.783 446.813 429.304 446.538 428.888C446.271 428.471 445.929 428.146 445.513 427.913C445.104 427.671 444.617 427.55 444.05 427.55C443.483 427.55 442.992 427.671 442.575 427.913C442.167 428.146 441.829 428.471 441.563 428.888C441.296 429.304 441.1 429.783 440.975 430.325C440.85 430.858 440.788 431.425 440.788 432.025ZM459.075 425.4V427.6H451.45V425.4H459.075ZM453.65 422.088H456.662V435.188C456.662 435.604 456.721 435.925 456.837 436.15C456.962 436.367 457.133 436.513 457.35 436.588C457.567 436.663 457.821 436.7 458.112 436.7C458.321 436.7 458.521 436.688 458.712 436.663C458.904 436.638 459.058 436.613 459.175 436.588L459.187 438.888C458.937 438.963 458.646 439.029 458.312 439.088C457.987 439.146 457.612 439.175 457.187 439.175C456.496 439.175 455.883 439.054 455.35 438.813C454.817 438.563 454.4 438.158 454.1 437.6C453.8 437.042 453.65 436.3 453.65 435.375V422.088ZM467.363 439.175C466.363 439.175 465.458 439.013 464.65 438.688C463.85 438.354 463.167 437.892 462.6 437.3C462.042 436.708 461.613 436.013 461.313 435.213C461.013 434.413 460.863 433.55 460.863 432.625V432.125C460.863 431.067 461.017 430.108 461.325 429.25C461.633 428.392 462.063 427.658 462.613 427.05C463.163 426.433 463.813 425.963 464.563 425.638C465.313 425.313 466.125 425.15 467 425.15C467.967 425.15 468.813 425.313 469.538 425.638C470.263 425.963 470.863 426.421 471.338 427.013C471.821 427.596 472.179 428.292 472.413 429.1C472.654 429.908 472.775 430.8 472.775 431.775V433.063H462.325V430.9H469.8V430.663C469.783 430.121 469.675 429.613 469.475 429.138C469.283 428.663 468.988 428.279 468.588 427.988C468.188 427.696 467.654 427.55 466.988 427.55C466.488 427.55 466.042 427.658 465.65 427.875C465.267 428.083 464.946 428.388 464.688 428.788C464.429 429.188 464.229 429.671 464.088 430.238C463.954 430.796 463.888 431.425 463.888 432.125V432.625C463.888 433.217 463.967 433.767 464.125 434.275C464.292 434.775 464.533 435.213 464.85 435.588C465.167 435.963 465.55 436.258 466 436.475C466.45 436.683 466.963 436.788 467.538 436.788C468.263 436.788 468.908 436.642 469.475 436.35C470.042 436.058 470.533 435.646 470.95 435.113L472.538 436.65C472.246 437.075 471.867 437.483 471.4 437.875C470.933 438.258 470.363 438.571 469.688 438.813C469.021 439.054 468.246 439.175 467.363 439.175Z" fill="#7237FF"/>
<rect x="126.4" y="501.125" width="548.8" height="88" rx="12" stroke="#7237FF" stroke-width="1.6"/>
<path d="M334.933 544.058C334.293 544.058 333.867 544.485 333.867 545.125V553.658C333.867 553.978 333.76 554.192 333.547 554.405C333.333 554.618 333.12 554.725 332.8 554.725H320C319.68 554.725 319.467 554.618 319.253 554.405C319.04 554.192 318.933 553.978 318.933 553.658V545.125C318.933 544.485 318.507 544.058 317.867 544.058C317.227 544.058 316.8 544.485 316.8 545.125V553.658C316.8 554.512 317.12 555.365 317.76 555.898C318.293 556.538 319.147 556.858 320 556.858H332.8C333.653 556.858 334.507 556.538 335.04 555.898C335.573 555.258 336 554.512 336 553.658V545.125C336 544.485 335.573 544.058 334.933 544.058Z" fill="#7237FF"/>
<path d="M322.88 539.472L325.333 537.018V548.325C325.333 548.965 325.76 549.392 326.4 549.392C327.04 549.392 327.467 548.965 327.467 548.325V537.018L329.92 539.472C330.133 539.685 330.347 539.792 330.667 539.792C330.987 539.792 331.2 539.685 331.413 539.472C331.84 539.045 331.84 538.405 331.413 537.978L327.147 533.712C327.04 533.605 326.933 533.498 326.827 533.498C326.613 533.392 326.293 533.392 325.973 533.498C325.867 533.605 325.76 533.605 325.653 533.712L321.387 537.978C320.96 538.405 320.96 539.045 321.387 539.472C321.813 539.898 322.453 539.898 322.88 539.472Z" fill="#7237FF"/>
<path d="M363.625 549.437C363.625 549.062 363.567 548.729 363.45 548.437C363.342 548.146 363.146 547.879 362.862 547.637C362.579 547.396 362.179 547.162 361.662 546.937C361.154 546.704 360.504 546.467 359.712 546.225C358.846 545.958 358.046 545.662 357.312 545.337C356.587 545.004 355.954 544.621 355.412 544.187C354.871 543.746 354.45 543.242 354.15 542.675C353.85 542.1 353.7 541.437 353.7 540.687C353.7 539.946 353.854 539.271 354.162 538.662C354.479 538.054 354.925 537.529 355.5 537.087C356.083 536.637 356.771 536.292 357.562 536.05C358.354 535.8 359.229 535.675 360.187 535.675C361.537 535.675 362.7 535.925 363.675 536.425C364.658 536.925 365.412 537.596 365.937 538.437C366.471 539.279 366.737 540.208 366.737 541.225H363.625C363.625 540.625 363.496 540.096 363.237 539.637C362.987 539.171 362.604 538.804 362.087 538.537C361.579 538.271 360.933 538.137 360.15 538.137C359.408 538.137 358.792 538.25 358.3 538.475C357.808 538.7 357.442 539.004 357.2 539.387C356.958 539.771 356.837 540.204 356.837 540.687C356.837 541.029 356.917 541.342 357.075 541.625C357.233 541.9 357.475 542.158 357.8 542.4C358.125 542.633 358.533 542.854 359.025 543.062C359.517 543.271 360.096 543.471 360.762 543.662C361.771 543.962 362.65 544.296 363.4 544.662C364.15 545.021 364.775 545.429 365.275 545.887C365.775 546.346 366.15 546.867 366.4 547.45C366.65 548.025 366.775 548.679 366.775 549.412C366.775 550.179 366.621 550.871 366.312 551.487C366.004 552.096 365.562 552.617 364.987 553.05C364.421 553.475 363.737 553.804 362.937 554.037C362.146 554.263 361.262 554.375 360.287 554.375C359.412 554.375 358.55 554.258 357.7 554.025C356.858 553.792 356.092 553.437 355.4 552.962C354.708 552.479 354.158 551.879 353.75 551.162C353.342 550.437 353.137 549.592 353.137 548.625H356.275C356.275 549.217 356.375 549.721 356.575 550.137C356.783 550.554 357.071 550.896 357.437 551.162C357.804 551.421 358.229 551.612 358.712 551.737C359.204 551.862 359.729 551.925 360.287 551.925C361.021 551.925 361.633 551.821 362.125 551.612C362.625 551.404 363 551.112 363.25 550.737C363.5 550.362 363.625 549.929 363.625 549.437ZM372.225 534.925V554.125H369.225V534.925H372.225ZM371.7 546.862L370.725 546.85C370.733 545.917 370.862 545.054 371.112 544.262C371.371 543.471 371.729 542.783 372.187 542.2C372.654 541.608 373.212 541.154 373.862 540.837C374.512 540.512 375.233 540.35 376.025 540.35C376.692 540.35 377.292 540.442 377.825 540.625C378.367 540.808 378.833 541.104 379.225 541.512C379.617 541.912 379.912 542.437 380.112 543.087C380.321 543.729 380.425 544.512 380.425 545.437V554.125H377.4V545.412C377.4 544.762 377.304 544.246 377.112 543.862C376.929 543.479 376.658 543.204 376.3 543.037C375.942 542.862 375.504 542.775 374.987 542.775C374.446 542.775 373.967 542.883 373.55 543.1C373.142 543.317 372.8 543.612 372.525 543.987C372.25 544.362 372.042 544.796 371.9 545.287C371.767 545.779 371.7 546.304 371.7 546.862ZM391.1 551.412V544.962C391.1 544.479 391.012 544.062 390.837 543.712C390.662 543.362 390.396 543.092 390.037 542.9C389.687 542.708 389.246 542.612 388.712 542.612C388.221 542.612 387.796 542.696 387.437 542.862C387.079 543.029 386.8 543.254 386.6 543.537C386.4 543.821 386.3 544.142 386.3 544.5H383.3C383.3 543.967 383.429 543.45 383.687 542.95C383.946 542.45 384.321 542.004 384.812 541.612C385.304 541.221 385.892 540.912 386.575 540.687C387.258 540.462 388.025 540.35 388.875 540.35C389.892 540.35 390.792 540.521 391.575 540.862C392.367 541.204 392.987 541.721 393.437 542.412C393.896 543.096 394.125 543.954 394.125 544.987V551C394.125 551.617 394.167 552.171 394.25 552.662C394.342 553.146 394.471 553.567 394.637 553.925V554.125H391.55C391.408 553.8 391.296 553.387 391.212 552.887C391.137 552.379 391.1 551.887 391.1 551.412ZM391.537 545.9L391.562 547.762H389.4C388.842 547.762 388.35 547.817 387.925 547.925C387.5 548.025 387.146 548.175 386.862 548.375C386.579 548.575 386.367 548.817 386.225 549.1C386.083 549.383 386.012 549.704 386.012 550.062C386.012 550.421 386.096 550.75 386.262 551.05C386.429 551.342 386.671 551.571 386.987 551.737C387.312 551.904 387.704 551.987 388.162 551.987C388.779 551.987 389.317 551.862 389.775 551.612C390.242 551.354 390.608 551.042 390.875 550.675C391.142 550.3 391.283 549.946 391.3 549.612L392.275 550.95C392.175 551.292 392.004 551.658 391.762 552.05C391.521 552.442 391.204 552.817 390.812 553.175C390.429 553.525 389.967 553.812 389.425 554.037C388.892 554.263 388.275 554.375 387.575 554.375C386.692 554.375 385.904 554.2 385.212 553.85C384.521 553.492 383.979 553.012 383.587 552.412C383.196 551.804 383 551.117 383 550.35C383 549.633 383.133 549 383.4 548.45C383.675 547.892 384.075 547.425 384.6 547.05C385.133 546.675 385.783 546.392 386.55 546.2C387.317 546 388.192 545.9 389.175 545.9H391.537ZM400.3 543.175V554.125H397.287V540.6H400.162L400.3 543.175ZM404.437 540.512L404.412 543.312C404.229 543.279 404.029 543.254 403.812 543.237C403.604 543.221 403.396 543.212 403.187 543.212C402.671 543.212 402.217 543.287 401.825 543.437C401.433 543.579 401.104 543.787 400.837 544.062C400.579 544.329 400.379 544.654 400.237 545.037C400.096 545.421 400.012 545.85 399.987 546.325L399.3 546.375C399.3 545.525 399.383 544.737 399.55 544.012C399.717 543.287 399.967 542.65 400.3 542.1C400.642 541.55 401.067 541.121 401.575 540.812C402.092 540.504 402.687 540.35 403.362 540.35C403.546 540.35 403.742 540.367 403.95 540.4C404.167 540.433 404.329 540.471 404.437 540.512ZM412.037 554.375C411.037 554.375 410.133 554.213 409.325 553.887C408.525 553.554 407.842 553.092 407.275 552.5C406.717 551.908 406.287 551.212 405.987 550.412C405.687 549.612 405.537 548.75 405.537 547.825V547.325C405.537 546.267 405.692 545.308 406 544.45C406.308 543.592 406.737 542.858 407.287 542.25C407.837 541.633 408.487 541.162 409.237 540.837C409.987 540.512 410.8 540.35 411.675 540.35C412.642 540.35 413.487 540.512 414.212 540.837C414.937 541.162 415.537 541.621 416.012 542.212C416.496 542.796 416.854 543.492 417.087 544.3C417.329 545.108 417.45 546 417.45 546.975V548.262H407V546.1H414.475V545.862C414.458 545.321 414.35 544.812 414.15 544.337C413.958 543.862 413.662 543.479 413.262 543.187C412.862 542.896 412.329 542.75 411.662 542.75C411.162 542.75 410.717 542.858 410.325 543.075C409.942 543.283 409.621 543.587 409.362 543.987C409.104 544.387 408.904 544.871 408.762 545.437C408.629 545.996 408.562 546.625 408.562 547.325V547.825C408.562 548.417 408.642 548.967 408.8 549.475C408.967 549.975 409.208 550.412 409.525 550.787C409.842 551.162 410.225 551.458 410.675 551.675C411.125 551.883 411.637 551.987 412.212 551.987C412.937 551.987 413.583 551.842 414.15 551.55C414.717 551.258 415.208 550.846 415.625 550.312L417.212 551.85C416.921 552.275 416.542 552.683 416.075 553.075C415.608 553.458 415.037 553.771 414.362 554.012C413.696 554.254 412.921 554.375 412.037 554.375ZM438.388 551.637V554.125H428.725V551.637H438.388ZM429.613 535.925V554.125H426.475V535.925H429.613ZM437.125 543.525V545.975H428.725V543.525H437.125ZM438.325 535.925V538.425H428.725V535.925H438.325ZM444.725 551.737L448.038 540.6H451.163L446.463 554.125H444.513L444.725 551.737ZM442.188 540.6L445.563 551.787L445.725 554.125H443.775L439.05 540.6H442.188ZM458.813 554.375C457.813 554.375 456.908 554.213 456.1 553.887C455.3 553.554 454.617 553.092 454.05 552.5C453.492 551.908 453.063 551.212 452.763 550.412C452.463 549.612 452.313 548.75 452.313 547.825V547.325C452.313 546.267 452.467 545.308 452.775 544.45C453.083 543.592 453.513 542.858 454.063 542.25C454.613 541.633 455.263 541.162 456.013 540.837C456.763 540.512 457.575 540.35 458.45 540.35C459.417 540.35 460.263 540.512 460.988 540.837C461.713 541.162 462.313 541.621 462.788 542.212C463.271 542.796 463.629 543.492 463.863 544.3C464.104 545.108 464.225 546 464.225 546.975V548.262H453.775V546.1H461.25V545.862C461.233 545.321 461.125 544.812 460.925 544.337C460.733 543.862 460.438 543.479 460.038 543.187C459.638 542.896 459.104 542.75 458.438 542.75C457.938 542.75 457.492 542.858 457.1 543.075C456.717 543.283 456.396 543.587 456.138 543.987C455.879 544.387 455.679 544.871 455.538 545.437C455.404 545.996 455.338 546.625 455.338 547.325V547.825C455.338 548.417 455.417 548.967 455.575 549.475C455.742 549.975 455.983 550.412 456.3 550.787C456.617 551.162 457 551.458 457.45 551.675C457.9 551.883 458.413 551.987 458.988 551.987C459.713 551.987 460.358 551.842 460.925 551.55C461.492 551.258 461.983 550.846 462.4 550.312L463.988 551.85C463.696 552.275 463.317 552.683 462.85 553.075C462.383 553.458 461.813 553.771 461.138 554.012C460.471 554.254 459.696 554.375 458.813 554.375ZM469.563 543.487V554.125H466.55V540.6H469.388L469.563 543.487ZM469.025 546.862L468.05 546.85C468.058 545.892 468.192 545.012 468.45 544.212C468.717 543.412 469.083 542.725 469.55 542.15C470.025 541.575 470.592 541.133 471.25 540.825C471.908 540.508 472.642 540.35 473.45 540.35C474.1 540.35 474.688 540.442 475.213 540.625C475.746 540.8 476.2 541.087 476.575 541.487C476.958 541.887 477.25 542.408 477.45 543.05C477.65 543.683 477.75 544.462 477.75 545.387V554.125H474.725V545.375C474.725 544.725 474.629 544.212 474.438 543.837C474.254 543.454 473.983 543.183 473.625 543.025C473.275 542.858 472.838 542.775 472.313 542.775C471.796 542.775 471.333 542.883 470.925 543.1C470.517 543.317 470.171 543.612 469.888 543.987C469.613 544.362 469.4 544.796 469.25 545.287C469.1 545.779 469.025 546.304 469.025 546.862ZM487.025 540.6V542.8H479.4V540.6H487.025ZM481.6 537.287H484.613V550.387C484.613 550.804 484.671 551.125 484.788 551.35C484.913 551.567 485.083 551.712 485.3 551.787C485.517 551.862 485.771 551.9 486.063 551.9C486.271 551.9 486.471 551.887 486.663 551.862C486.854 551.837 487.008 551.812 487.125 551.787L487.138 554.087C486.888 554.163 486.596 554.229 486.263 554.288C485.938 554.346 485.563 554.375 485.138 554.375C484.446 554.375 483.833 554.254 483.3 554.012C482.767 553.762 482.35 553.358 482.05 552.8C481.75 552.242 481.6 551.5 481.6 550.575V537.287Z" fill="#7237FF"/>
<rect width="600" height="51.2" transform="translate(100 589.354)" fill="white"/>
<rect x="294.21" y="619.806" width="211.579" height="7.89474" rx="3.94737" fill="#1F1F1F"/>
</g>
<defs>
<clipPath id="clip0_53_24403">
<rect x="100" y="159.125" width="600" height="481.75" rx="8" fill="white"/>
</clipPath>
</defs>
</svg>
