<svg width="800" height="800" viewBox="0 0 800 800" fill="none" xmlns="http://www.w3.org/2000/svg">
<rect width="800" height="800" fill="#1F1F1F"/>
<g clip-path="url(#clip0_54_24355)">
<rect x="100" y="258.4" width="600" height="283.2" rx="8" fill="white"/>
<rect width="600" height="1.6" transform="translate(100 258.4)" fill="#DEDEDE"/>
<g clip-path="url(#clip1_54_24355)">
<rect x="126.4" y="286.4" width="548.8" height="88" rx="12" stroke="#7237FF" stroke-width="1.6"/>
<path d="M353.013 334.913C353.013 334.538 352.954 334.204 352.838 333.913C352.729 333.621 352.533 333.354 352.25 333.113C351.967 332.871 351.567 332.638 351.05 332.413C350.542 332.179 349.892 331.942 349.1 331.7C348.233 331.433 347.433 331.138 346.7 330.813C345.975 330.479 345.342 330.096 344.8 329.663C344.258 329.221 343.838 328.717 343.538 328.15C343.238 327.575 343.088 326.913 343.088 326.163C343.088 325.421 343.242 324.746 343.55 324.138C343.867 323.529 344.313 323.004 344.888 322.563C345.471 322.113 346.158 321.767 346.95 321.525C347.742 321.275 348.617 321.15 349.575 321.15C350.925 321.15 352.088 321.4 353.063 321.9C354.046 322.4 354.8 323.071 355.325 323.913C355.858 324.754 356.125 325.683 356.125 326.7H353.013C353.013 326.1 352.883 325.571 352.625 325.113C352.375 324.646 351.992 324.279 351.475 324.013C350.967 323.746 350.321 323.613 349.538 323.613C348.796 323.613 348.179 323.725 347.688 323.95C347.196 324.175 346.829 324.479 346.588 324.863C346.346 325.246 346.225 325.679 346.225 326.163C346.225 326.504 346.304 326.817 346.463 327.1C346.621 327.375 346.863 327.633 347.188 327.875C347.513 328.108 347.921 328.329 348.413 328.538C348.904 328.746 349.483 328.946 350.15 329.138C351.158 329.438 352.038 329.771 352.788 330.138C353.538 330.496 354.163 330.904 354.663 331.363C355.163 331.821 355.538 332.342 355.788 332.925C356.038 333.5 356.163 334.154 356.163 334.888C356.163 335.654 356.008 336.346 355.7 336.963C355.392 337.571 354.95 338.092 354.375 338.525C353.808 338.95 353.125 339.279 352.325 339.513C351.533 339.738 350.65 339.85 349.675 339.85C348.8 339.85 347.938 339.733 347.088 339.5C346.246 339.267 345.479 338.913 344.788 338.438C344.096 337.954 343.546 337.354 343.138 336.638C342.729 335.913 342.525 335.067 342.525 334.1H345.663C345.663 334.692 345.763 335.196 345.963 335.613C346.171 336.029 346.458 336.371 346.825 336.638C347.192 336.896 347.617 337.088 348.1 337.213C348.592 337.338 349.117 337.4 349.675 337.4C350.408 337.4 351.021 337.296 351.513 337.088C352.013 336.879 352.388 336.588 352.638 336.213C352.888 335.838 353.013 335.404 353.013 334.913ZM366.263 336.888V330.438C366.263 329.954 366.175 329.538 366 329.188C365.825 328.838 365.558 328.567 365.2 328.375C364.85 328.183 364.408 328.088 363.875 328.088C363.383 328.088 362.958 328.171 362.6 328.338C362.242 328.504 361.963 328.729 361.763 329.013C361.563 329.296 361.463 329.617 361.463 329.975H358.463C358.463 329.442 358.592 328.925 358.85 328.425C359.108 327.925 359.483 327.479 359.975 327.088C360.467 326.696 361.054 326.388 361.738 326.163C362.421 325.938 363.188 325.825 364.038 325.825C365.054 325.825 365.954 325.996 366.738 326.338C367.529 326.679 368.15 327.196 368.6 327.888C369.058 328.571 369.288 329.429 369.288 330.463V336.475C369.288 337.092 369.329 337.646 369.413 338.138C369.504 338.621 369.633 339.042 369.8 339.4V339.6H366.713C366.571 339.275 366.458 338.863 366.375 338.363C366.3 337.854 366.263 337.363 366.263 336.888ZM366.7 331.375L366.725 333.238H364.563C364.004 333.238 363.513 333.292 363.088 333.4C362.663 333.5 362.308 333.65 362.025 333.85C361.742 334.05 361.529 334.292 361.388 334.575C361.246 334.858 361.175 335.179 361.175 335.538C361.175 335.896 361.258 336.225 361.425 336.525C361.592 336.817 361.833 337.046 362.15 337.213C362.475 337.379 362.867 337.463 363.325 337.463C363.942 337.463 364.479 337.338 364.938 337.088C365.404 336.829 365.771 336.517 366.038 336.15C366.304 335.775 366.446 335.421 366.463 335.088L367.438 336.425C367.338 336.767 367.167 337.133 366.925 337.525C366.683 337.917 366.367 338.292 365.975 338.65C365.592 339 365.129 339.288 364.588 339.513C364.054 339.738 363.438 339.85 362.738 339.85C361.854 339.85 361.067 339.675 360.375 339.325C359.683 338.967 359.142 338.488 358.75 337.888C358.358 337.279 358.163 336.592 358.163 335.825C358.163 335.108 358.296 334.475 358.563 333.925C358.838 333.367 359.238 332.9 359.763 332.525C360.296 332.15 360.946 331.867 361.713 331.675C362.479 331.475 363.354 331.375 364.338 331.375H366.7ZM376.638 337.213L379.95 326.075H383.075L378.375 339.6H376.425L376.638 337.213ZM374.1 326.075L377.475 337.263L377.638 339.6H375.688L370.963 326.075H374.1ZM390.725 339.85C389.725 339.85 388.821 339.688 388.013 339.363C387.213 339.029 386.529 338.567 385.963 337.975C385.404 337.383 384.975 336.688 384.675 335.888C384.375 335.088 384.225 334.225 384.225 333.3V332.8C384.225 331.742 384.379 330.783 384.688 329.925C384.996 329.067 385.425 328.333 385.975 327.725C386.525 327.108 387.175 326.638 387.925 326.313C388.675 325.988 389.488 325.825 390.363 325.825C391.329 325.825 392.175 325.988 392.9 326.313C393.625 326.638 394.225 327.096 394.7 327.688C395.183 328.271 395.542 328.967 395.775 329.775C396.017 330.583 396.138 331.475 396.138 332.45V333.738H385.688V331.575H393.163V331.338C393.146 330.796 393.038 330.288 392.838 329.813C392.646 329.338 392.35 328.954 391.95 328.663C391.55 328.371 391.017 328.225 390.35 328.225C389.85 328.225 389.404 328.333 389.013 328.55C388.629 328.758 388.308 329.063 388.05 329.463C387.792 329.863 387.592 330.346 387.45 330.913C387.317 331.471 387.25 332.1 387.25 332.8V333.3C387.25 333.892 387.329 334.442 387.488 334.95C387.654 335.45 387.896 335.888 388.213 336.263C388.529 336.638 388.913 336.933 389.363 337.15C389.813 337.358 390.325 337.463 390.9 337.463C391.625 337.463 392.271 337.317 392.838 337.025C393.404 336.733 393.896 336.321 394.313 335.788L395.9 337.325C395.608 337.75 395.229 338.158 394.763 338.55C394.296 338.933 393.725 339.246 393.05 339.488C392.383 339.729 391.608 339.85 390.725 339.85ZM410.45 339.6H406.563L406.588 337.113H410.45C411.575 337.113 412.517 336.867 413.275 336.375C414.042 335.883 414.617 335.179 415 334.263C415.392 333.346 415.588 332.254 415.588 330.988V330C415.588 329.017 415.475 328.146 415.25 327.388C415.033 326.629 414.708 325.992 414.275 325.475C413.85 324.958 413.325 324.567 412.7 324.3C412.083 324.033 411.371 323.9 410.563 323.9H406.488V321.4H410.563C411.771 321.4 412.875 321.604 413.875 322.013C414.875 322.413 415.738 322.992 416.463 323.75C417.196 324.508 417.758 325.417 418.15 326.475C418.542 327.533 418.738 328.717 418.738 330.025V330.988C418.738 332.296 418.542 333.479 418.15 334.538C417.758 335.596 417.196 336.504 416.463 337.263C415.729 338.013 414.854 338.592 413.838 339C412.829 339.4 411.7 339.6 410.45 339.6ZM408.3 321.4V339.6H405.163V321.4H408.3ZM424.613 328.65V339.6H421.6V326.075H424.475L424.613 328.65ZM428.75 325.988L428.725 328.788C428.542 328.754 428.342 328.729 428.125 328.713C427.917 328.696 427.708 328.688 427.5 328.688C426.983 328.688 426.529 328.763 426.138 328.913C425.746 329.054 425.417 329.263 425.15 329.538C424.892 329.804 424.692 330.129 424.55 330.513C424.408 330.896 424.325 331.325 424.3 331.8L423.613 331.85C423.613 331 423.696 330.213 423.863 329.488C424.029 328.763 424.279 328.125 424.613 327.575C424.954 327.025 425.379 326.596 425.888 326.288C426.404 325.979 427 325.825 427.675 325.825C427.858 325.825 428.054 325.842 428.263 325.875C428.479 325.908 428.642 325.946 428.75 325.988ZM437.813 336.888V330.438C437.813 329.954 437.725 329.538 437.55 329.188C437.375 328.838 437.108 328.567 436.75 328.375C436.4 328.183 435.958 328.088 435.425 328.088C434.933 328.088 434.508 328.171 434.15 328.338C433.792 328.504 433.513 328.729 433.313 329.013C433.113 329.296 433.013 329.617 433.013 329.975H430.013C430.013 329.442 430.142 328.925 430.4 328.425C430.658 327.925 431.033 327.479 431.525 327.088C432.017 326.696 432.604 326.388 433.288 326.163C433.971 325.938 434.738 325.825 435.588 325.825C436.604 325.825 437.504 325.996 438.288 326.338C439.079 326.679 439.7 327.196 440.15 327.888C440.608 328.571 440.838 329.429 440.838 330.463V336.475C440.838 337.092 440.879 337.646 440.963 338.138C441.054 338.621 441.183 339.042 441.35 339.4V339.6H438.263C438.121 339.275 438.008 338.863 437.925 338.363C437.85 337.854 437.813 337.363 437.813 336.888ZM438.25 331.375L438.275 333.238H436.113C435.554 333.238 435.063 333.292 434.638 333.4C434.213 333.5 433.858 333.65 433.575 333.85C433.292 334.05 433.079 334.292 432.938 334.575C432.796 334.858 432.725 335.179 432.725 335.538C432.725 335.896 432.808 336.225 432.975 336.525C433.142 336.817 433.383 337.046 433.7 337.213C434.025 337.379 434.417 337.463 434.875 337.463C435.492 337.463 436.029 337.338 436.488 337.088C436.954 336.829 437.321 336.517 437.588 336.15C437.854 335.775 437.996 335.421 438.013 335.088L438.988 336.425C438.888 336.767 438.717 337.133 438.475 337.525C438.233 337.917 437.917 338.292 437.525 338.65C437.142 339 436.679 339.288 436.138 339.513C435.604 339.738 434.988 339.85 434.288 339.85C433.404 339.85 432.617 339.675 431.925 339.325C431.233 338.967 430.692 338.488 430.3 337.888C429.908 337.279 429.713 336.592 429.713 335.825C429.713 335.108 429.846 334.475 430.113 333.925C430.388 333.367 430.788 332.9 431.313 332.525C431.846 332.15 432.496 331.867 433.263 331.675C434.029 331.475 434.904 331.375 435.888 331.375H438.25ZM448.063 339.6H445.05V324.775C445.05 323.767 445.238 322.921 445.613 322.238C445.996 321.546 446.542 321.025 447.25 320.675C447.958 320.317 448.796 320.138 449.763 320.138C450.063 320.138 450.358 320.158 450.65 320.2C450.942 320.233 451.225 320.288 451.5 320.363L451.425 322.688C451.258 322.646 451.075 322.617 450.875 322.6C450.683 322.583 450.475 322.575 450.25 322.575C449.792 322.575 449.396 322.663 449.063 322.838C448.738 323.004 448.488 323.25 448.313 323.575C448.146 323.9 448.063 324.3 448.063 324.775V339.6ZM450.85 326.075V328.275H442.975V326.075H450.85ZM459.238 326.075V328.275H451.613V326.075H459.238ZM453.813 322.763H456.825V335.863C456.825 336.279 456.883 336.6 457 336.825C457.125 337.042 457.296 337.188 457.513 337.263C457.729 337.338 457.983 337.375 458.275 337.375C458.483 337.375 458.683 337.363 458.875 337.338C459.067 337.313 459.221 337.288 459.338 337.263L459.35 339.563C459.1 339.638 458.808 339.704 458.475 339.763C458.15 339.821 457.775 339.85 457.35 339.85C456.658 339.85 456.046 339.729 455.513 339.488C454.979 339.238 454.563 338.833 454.263 338.275C453.963 337.717 453.813 336.975 453.813 336.05V322.763Z" fill="#7237FF"/>
<rect x="125.6" y="400.8" width="550.4" height="89.6" rx="12.8" fill="#7237FF"/>
<path d="M366.838 448.013H362.1V445.525H366.838C367.663 445.525 368.329 445.392 368.838 445.125C369.346 444.858 369.717 444.492 369.95 444.025C370.192 443.55 370.313 443.008 370.313 442.4C370.313 441.825 370.192 441.288 369.95 440.788C369.717 440.279 369.346 439.871 368.838 439.563C368.329 439.254 367.663 439.1 366.838 439.1H363.063V454.8H359.925V436.6H366.838C368.246 436.6 369.442 436.85 370.425 437.35C371.417 437.842 372.171 438.525 372.688 439.4C373.204 440.267 373.463 441.258 373.463 442.375C373.463 443.55 373.204 444.558 372.688 445.4C372.171 446.242 371.417 446.888 370.425 447.338C369.442 447.788 368.246 448.013 366.838 448.013ZM384.113 451.613V441.275H387.138V454.8H384.288L384.113 451.613ZM384.538 448.8L385.55 448.775C385.55 449.683 385.45 450.521 385.25 451.288C385.05 452.046 384.742 452.708 384.325 453.275C383.908 453.833 383.375 454.271 382.725 454.588C382.075 454.896 381.296 455.05 380.388 455.05C379.729 455.05 379.125 454.954 378.575 454.763C378.025 454.571 377.55 454.275 377.15 453.875C376.758 453.475 376.454 452.954 376.238 452.313C376.021 451.671 375.913 450.904 375.913 450.013V441.275H378.925V450.038C378.925 450.529 378.983 450.942 379.1 451.275C379.217 451.6 379.375 451.863 379.575 452.063C379.775 452.263 380.008 452.404 380.275 452.488C380.542 452.571 380.825 452.613 381.125 452.613C381.983 452.613 382.658 452.446 383.15 452.113C383.65 451.771 384.004 451.313 384.213 450.738C384.429 450.163 384.538 449.517 384.538 448.8ZM390.238 435.6H393.25V451.913L392.963 454.8H390.238V435.6ZM402.075 447.913V448.175C402.075 449.175 401.963 450.096 401.738 450.938C401.521 451.771 401.188 452.496 400.738 453.113C400.296 453.729 399.746 454.208 399.088 454.55C398.438 454.883 397.683 455.05 396.825 455.05C395.983 455.05 395.25 454.892 394.625 454.575C394 454.258 393.475 453.808 393.05 453.225C392.633 452.642 392.296 451.946 392.038 451.138C391.779 450.329 391.596 449.438 391.488 448.463V447.625C391.596 446.642 391.779 445.75 392.038 444.95C392.296 444.142 392.633 443.446 393.05 442.863C393.475 442.271 393.996 441.817 394.613 441.5C395.238 441.183 395.967 441.025 396.8 441.025C397.667 441.025 398.429 441.192 399.088 441.525C399.754 441.858 400.308 442.333 400.75 442.95C401.192 443.558 401.521 444.283 401.738 445.125C401.963 445.967 402.075 446.896 402.075 447.913ZM399.063 448.175V447.913C399.063 447.304 399.013 446.733 398.913 446.2C398.813 445.658 398.646 445.183 398.413 444.775C398.188 444.367 397.879 444.046 397.488 443.813C397.104 443.571 396.625 443.45 396.05 443.45C395.517 443.45 395.058 443.542 394.675 443.725C394.292 443.908 393.971 444.158 393.713 444.475C393.454 444.792 393.25 445.158 393.1 445.575C392.958 445.992 392.863 446.442 392.813 446.925V449.188C392.888 449.813 393.046 450.388 393.288 450.913C393.538 451.429 393.888 451.846 394.338 452.163C394.788 452.471 395.367 452.625 396.075 452.625C396.633 452.625 397.104 452.513 397.488 452.288C397.871 452.063 398.175 451.75 398.4 451.35C398.633 450.942 398.8 450.467 398.9 449.925C399.008 449.383 399.063 448.8 399.063 448.175ZM407.85 435.6V454.8H404.825V435.6H407.85ZM414.375 441.275V454.8H411.35V441.275H414.375ZM411.15 437.725C411.15 437.267 411.3 436.888 411.6 436.588C411.908 436.279 412.333 436.125 412.875 436.125C413.408 436.125 413.829 436.279 414.138 436.588C414.446 436.888 414.6 437.267 414.6 437.725C414.6 438.175 414.446 438.55 414.138 438.85C413.829 439.15 413.408 439.3 412.875 439.3C412.333 439.3 411.908 439.15 411.6 438.85C411.3 438.55 411.15 438.175 411.15 437.725ZM425.263 451.138C425.263 450.838 425.188 450.567 425.038 450.325C424.888 450.075 424.6 449.85 424.175 449.65C423.758 449.45 423.142 449.267 422.325 449.1C421.608 448.942 420.95 448.754 420.35 448.538C419.758 448.313 419.25 448.042 418.825 447.725C418.4 447.408 418.071 447.033 417.838 446.6C417.604 446.167 417.488 445.667 417.488 445.1C417.488 444.55 417.608 444.029 417.85 443.538C418.092 443.046 418.438 442.613 418.888 442.238C419.338 441.863 419.883 441.567 420.525 441.35C421.175 441.133 421.9 441.025 422.7 441.025C423.833 441.025 424.804 441.217 425.613 441.6C426.429 441.975 427.054 442.488 427.488 443.138C427.921 443.779 428.138 444.504 428.138 445.313H425.125C425.125 444.954 425.033 444.621 424.85 444.313C424.675 443.996 424.408 443.742 424.05 443.55C423.692 443.35 423.242 443.25 422.7 443.25C422.183 443.25 421.754 443.333 421.413 443.5C421.079 443.658 420.829 443.867 420.663 444.125C420.504 444.383 420.425 444.667 420.425 444.975C420.425 445.2 420.467 445.404 420.55 445.588C420.642 445.763 420.792 445.925 421 446.075C421.208 446.217 421.492 446.35 421.85 446.475C422.217 446.6 422.675 446.721 423.225 446.838C424.258 447.054 425.146 447.333 425.888 447.675C426.638 448.008 427.213 448.442 427.613 448.975C428.013 449.5 428.213 450.167 428.213 450.975C428.213 451.575 428.083 452.125 427.825 452.625C427.575 453.117 427.208 453.546 426.725 453.913C426.242 454.271 425.663 454.55 424.988 454.75C424.321 454.95 423.571 455.05 422.738 455.05C421.513 455.05 420.475 454.833 419.625 454.4C418.775 453.958 418.129 453.396 417.688 452.713C417.254 452.021 417.038 451.304 417.038 450.563H419.95C419.983 451.121 420.138 451.567 420.413 451.9C420.696 452.225 421.046 452.463 421.463 452.613C421.888 452.754 422.325 452.825 422.775 452.825C423.317 452.825 423.771 452.754 424.138 452.613C424.504 452.463 424.783 452.263 424.975 452.013C425.167 451.754 425.263 451.463 425.263 451.138ZM433.825 435.6V454.8H430.825V435.6H433.825ZM433.3 447.538L432.325 447.525C432.333 446.592 432.463 445.729 432.713 444.938C432.971 444.146 433.329 443.458 433.788 442.875C434.254 442.283 434.813 441.829 435.463 441.513C436.113 441.188 436.833 441.025 437.625 441.025C438.292 441.025 438.892 441.117 439.425 441.3C439.967 441.483 440.433 441.779 440.825 442.188C441.217 442.588 441.513 443.113 441.713 443.763C441.921 444.404 442.025 445.188 442.025 446.113V454.8H439V446.088C439 445.438 438.904 444.921 438.713 444.538C438.529 444.154 438.258 443.879 437.9 443.713C437.542 443.538 437.104 443.45 436.588 443.45C436.046 443.45 435.567 443.558 435.15 443.775C434.742 443.992 434.4 444.288 434.125 444.663C433.85 445.038 433.642 445.471 433.5 445.963C433.367 446.454 433.3 446.979 433.3 447.538Z" fill="white"/>
</g>
<rect x="294.21" y="520.853" width="211.579" height="7.89474" rx="3.94737" fill="#1F1F1F"/>
</g>
<defs>
<clipPath id="clip0_54_24355">
<rect x="100" y="258.4" width="600" height="283.2" rx="8" fill="white"/>
</clipPath>
<clipPath id="clip1_54_24355">
<rect width="600" height="230.4" fill="white" transform="translate(100 260)"/>
</clipPath>
</defs>
</svg>
