<svg width="800" height="800" viewBox="0 0 800 800" fill="none" xmlns="http://www.w3.org/2000/svg">
<rect width="800" height="800" fill="#1F1F1F"/>
<path d="M406.038 445.797C408.451 447.192 406.062 457.125 401.867 465.757C398.978 471.731 393.899 478.699 389.312 479.509C387.974 479.745 386.567 479.588 384.865 478.877C390.721 458.417 402.756 443.948 406.038 445.797ZM421.755 451.116C421.306 448.565 420.023 445.756 418.565 444.192C415.198 440.74 410.822 438.274 404.918 436.079C402.799 435.239 400.628 435.218 397.952 435.69C386.867 437.647 373.217 450.782 366.942 473.34C364.311 481.899 363.747 489.89 364.991 496.956C367.756 512.656 385.577 523.15 400.223 518.348C412.843 514.211 420.786 505.171 422.908 500.977C425.03 496.784 428.349 488.56 424.161 486.436C420.809 484.735 418.475 485.156 416.926 488.668C411.233 502.219 410.113 509.225 395.587 511.79C389.854 512.802 385.342 507.325 383.821 498.69C383.199 495.158 383.047 490.935 383.502 486.807C388.417 488.975 393.246 489.539 397.833 488.729C414.652 485.76 423.828 462.892 421.755 451.116Z" fill="url(#paint0_linear_54_24419)"/>
<path fill-rule="evenodd" clip-rule="evenodd" d="M478.941 495.09C483.51 475.041 490.117 454.227 493.736 442.245C495.362 436.894 495.559 432.403 494.867 428.474C494.14 424.349 492.855 421.537 489.462 419.098C486.974 417.309 484.553 418.142 482.493 422.151C479.141 430.035 476.078 442.932 467.15 467.397C460.634 485.359 454.053 498.472 449.072 499.351C444.091 500.231 444.431 492.069 445.868 484.523C447.882 474.647 450.487 465.882 455.133 454.124C458.26 446.078 459.556 439.975 458.691 435.064C458.137 431.92 455.791 428.689 453.39 426.277C450.729 423.506 447.89 424.21 445.987 427.989C437.049 446.784 431.155 468.283 428.928 481.437C428.069 486.653 428.133 491.503 428.859 495.628C430.312 503.879 435.842 510.6 445.421 508.908C451.169 507.894 455.839 505.246 460.163 500.634L458.5 508.017C441.265 518.96 427.856 533.683 424.892 551.626C424.365 555.365 424.379 558.806 424.794 561.163C425.901 567.45 429.812 572.836 433.413 576.454C439.118 581.928 443.141 581.218 447.236 578.672C462.763 569.246 470.256 535.514 476.227 507.723L478.941 495.09ZM447.391 551.502C450.134 543.523 453.037 533.086 455.767 521.666C447.712 529.772 442.686 539.369 440.012 547.741C436.848 557.82 436.925 566.111 439.152 567.541C440.701 568.483 443.721 562.075 447.391 551.502Z" fill="url(#paint1_linear_54_24419)"/>
<path fill-rule="evenodd" clip-rule="evenodd" d="M546.908 375.397C545.999 370.237 542.903 365.053 538.006 362.029C533.721 359.102 530.467 360.904 527.475 365.321C512.217 389.095 496.939 429.653 495.237 463.927C494.974 468.067 495.288 472.104 495.882 475.478C498.294 489.174 507.601 492.618 518.567 492.757C527.647 492.873 534.289 486.453 537.754 481.388C541.22 476.323 539.494 472.957 535.949 471.138C533.344 469.802 530.016 469.452 528.646 472.428C527.277 475.403 519.877 484.843 517.012 485.05C513.29 485.32 512.762 482.322 511.923 477.558C510.699 470.611 511.628 461.238 513.694 450.435C528.565 435.735 545.415 408.611 547.221 383.938C547.589 380.394 547.397 378.176 546.908 375.397ZM532.786 404.496C537.336 392.027 538.3 382.852 537.006 382.262C536.166 382.001 532.526 390.625 528.046 403.491C524.581 413.108 518.735 429.489 517.983 433.101C524.789 423.304 529.723 413.018 532.786 404.496Z" fill="url(#paint2_linear_54_24419)"/>
<path fill-rule="evenodd" clip-rule="evenodd" d="M570.798 400.124C557.846 402.411 547.201 414.352 541.12 431.525C537.633 441.599 536.178 451.716 537.69 460.304C538.79 466.549 541.587 472.092 546.175 476.313C552.941 482.564 560.683 484.015 567.159 482.872C570.102 482.352 572.354 481.351 574.017 480.453C588.037 472.746 597.228 451.402 598.497 434.475C598.497 434.475 598.791 430.41 598.54 427.827C597.651 418.695 595.185 412.468 587.88 406.883C586.512 405.837 585.674 405.339 584.17 404.496C579.382 401.812 576.154 399.179 570.798 400.124ZM583.82 414.327C582.767 412.628 581.919 411.698 580.155 410.748C574.348 407.618 566.547 420.797 566.547 420.797C563.113 425.428 560.244 430.966 557.939 437.41C554.486 447.679 553.271 459.163 554.543 466.384C555.574 472.239 557.753 474.269 560.696 473.749C565.798 472.849 572.376 464.241 577.3 449.688C582.224 435.135 583.82 414.327 583.82 414.327Z" fill="url(#paint3_linear_54_24419)"/>
<path d="M434.791 239.38C434.791 250.505 431.981 265.603 423.832 285.47C406.13 329.97 381.466 401.186 375.285 417.079L366.012 440.521C357.021 465.553 346.624 496.544 337.352 525.549C335.385 531.906 334.168 533.892 331.077 526.741C328.548 521.178 327.424 511.245 327.424 502.504C327.424 496.544 328.548 488.597 331.077 477.87C333.044 470.32 337.999 457.466 342.874 444.097C347.461 431.518 355.429 411.516 355.429 411.516C373.412 361.056 416.059 244.545 427.299 223.487C438.538 202.429 434.791 239.38 434.791 239.38Z" fill="url(#paint4_linear_54_24419)"/>
<path d="M329.152 350.407L299.087 427.885L287.848 457.685C279.699 481.524 271.551 506.953 263.402 532.381C261.435 539.136 258.157 541.123 254.785 534.368C252.257 529.6 253.568 513.708 253.568 513.708C253.568 513.708 256.378 490.265 268.179 450.93L274.642 430.667C292.063 379.412 326.531 283.051 338.332 259.212C342.828 250.868 346.574 259.609 346.574 259.609C346.574 259.609 347.323 269.145 347.323 275.899C347.323 287.024 335.896 332.925 329.152 350.407Z" fill="url(#paint5_linear_54_24419)"/>
<path d="M490.137 349.185C495.691 371.665 428.817 415.466 348.493 435.365C268.169 455.265 209.818 449.412 204.264 426.932C198.709 404.452 248.054 373.858 328.377 353.958C364.744 344.949 423.905 337.5 446.541 340.722C469.177 343.943 459.233 348.39 452.984 348.145C446.735 347.9 433.354 344.584 408.875 346.101C386.258 347.502 359.468 351.905 340.995 356.482C269.423 374.213 214.28 400.231 217.829 414.595C221.378 428.958 291.129 431.123 362.701 413.392C430.058 396.705 495.557 352.782 482.064 344.722C477.067 341.737 457.346 340.523 455.582 335.754C452.685 327.922 465.272 328.083 472.37 329.929C477.577 331.283 481.474 334.331 484.337 336.762C487.768 339.677 489.266 345.661 490.137 349.185Z" fill="url(#paint6_linear_54_24419)"/>
<defs>
<linearGradient id="paint0_linear_54_24419" x1="200.043" y1="213.504" x2="566.039" y2="609.019" gradientUnits="userSpaceOnUse">
<stop stop-color="#7237FF"/>
<stop offset="1" stop-color="#31C783"/>
</linearGradient>
<linearGradient id="paint1_linear_54_24419" x1="200.043" y1="213.504" x2="566.039" y2="609.019" gradientUnits="userSpaceOnUse">
<stop stop-color="#7237FF"/>
<stop offset="1" stop-color="#31C783"/>
</linearGradient>
<linearGradient id="paint2_linear_54_24419" x1="200.043" y1="213.504" x2="566.039" y2="609.019" gradientUnits="userSpaceOnUse">
<stop stop-color="#7237FF"/>
<stop offset="1" stop-color="#31C783"/>
</linearGradient>
<linearGradient id="paint3_linear_54_24419" x1="200.043" y1="213.504" x2="566.039" y2="609.019" gradientUnits="userSpaceOnUse">
<stop stop-color="#7237FF"/>
<stop offset="1" stop-color="#31C783"/>
</linearGradient>
<linearGradient id="paint4_linear_54_24419" x1="200.043" y1="213.504" x2="566.039" y2="609.019" gradientUnits="userSpaceOnUse">
<stop stop-color="#7237FF"/>
<stop offset="1" stop-color="#31C783"/>
</linearGradient>
<linearGradient id="paint5_linear_54_24419" x1="200.043" y1="213.504" x2="566.039" y2="609.019" gradientUnits="userSpaceOnUse">
<stop stop-color="#7237FF"/>
<stop offset="1" stop-color="#31C783"/>
</linearGradient>
<linearGradient id="paint6_linear_54_24419" x1="200.043" y1="213.504" x2="566.039" y2="609.019" gradientUnits="userSpaceOnUse">
<stop stop-color="#7237FF"/>
<stop offset="1" stop-color="#31C783"/>
</linearGradient>
</defs>
</svg>
