<svg width="374" height="375" viewBox="0 0 374 375" fill="none" xmlns="http://www.w3.org/2000/svg">
<g clip-path="url(#clip0_61_27703)">
<rect width="374" height="375" fill="#101010"/>
<g filter="url(#filter0_d_61_27703)">
<rect width="374" height="374" rx="8.72303" fill="#F0F0F0"/>
<path d="M200.084 157.277C200.084 159.93 199.278 162.521 197.771 164.705C196.265 166.889 194.13 168.564 191.651 169.507C189.171 170.45 186.463 170.617 183.886 169.986C181.309 169.354 178.984 167.954 177.221 165.971C175.458 163.989 174.34 161.517 174.014 158.884C173.688 156.25 174.171 153.58 175.397 151.228C176.624 148.875 178.537 146.951 180.882 145.71C183.228 144.47 185.895 143.972 188.53 144.282" stroke="#595959" stroke-width="2.18076" stroke-linecap="round"/>
<path d="M42.7919 198.262V202.406C42.6379 202.61 42.3969 202.834 42.0689 203.077C41.7459 203.316 41.3161 203.522 40.7794 203.696C40.2427 203.87 39.5744 203.957 38.7743 203.957C38.0935 203.957 37.4699 203.842 36.9034 203.614C36.3369 203.38 35.8475 203.04 35.435 202.593C35.0276 202.145 34.712 201.601 34.4884 200.96C34.2648 200.314 34.153 199.579 34.153 198.754V198.001C34.153 197.181 34.2549 196.451 34.4586 195.81C34.6673 195.164 34.9655 194.617 35.353 194.17C35.7406 193.723 36.2077 193.385 36.7544 193.156C37.3059 192.923 37.9296 192.806 38.6252 192.806C39.5147 192.806 40.2502 192.955 40.8316 193.253C41.4179 193.546 41.8701 193.954 42.1881 194.476C42.5062 194.997 42.7074 195.594 42.7919 196.264H40.9583C40.8986 195.887 40.7819 195.549 40.6079 195.251C40.439 194.953 40.1955 194.719 39.8775 194.55C39.5644 194.376 39.157 194.289 38.6551 194.289C38.2227 194.289 37.8426 194.371 37.5146 194.535C37.1867 194.699 36.9134 194.94 36.6947 195.258C36.481 195.576 36.3196 195.964 36.2102 196.421C36.1009 196.878 36.0462 197.4 36.0462 197.986V198.754C36.0462 199.35 36.1084 199.879 36.2326 200.342C36.3618 200.804 36.5456 201.194 36.7842 201.512C37.0277 201.83 37.3233 202.071 37.6712 202.235C38.019 202.394 38.4116 202.473 38.8489 202.473C39.2762 202.473 39.6265 202.439 39.8998 202.369C40.1731 202.295 40.3893 202.208 40.5483 202.108C40.7123 202.004 40.839 201.904 40.9285 201.81V199.656H38.67V198.262H42.7919ZM48.2406 203.957C47.6443 203.957 47.1051 203.86 46.6231 203.666C46.1461 203.467 45.7386 203.191 45.4007 202.839C45.0678 202.486 44.8119 202.071 44.633 201.594C44.4541 201.117 44.3646 200.602 44.3646 200.051V199.753C44.3646 199.122 44.4566 198.55 44.6404 198.038C44.8243 197.527 45.0802 197.089 45.4082 196.727C45.7361 196.359 46.1237 196.078 46.571 195.884C47.0182 195.69 47.5027 195.594 48.0244 195.594C48.6009 195.594 49.1052 195.69 49.5376 195.884C49.9699 196.078 50.3277 196.351 50.6109 196.704C50.8991 197.052 51.1128 197.467 51.2519 197.949C51.396 198.431 51.4681 198.963 51.4681 199.544V200.312H45.2367V199.022H49.6941V198.881C49.6841 198.558 49.6195 198.255 49.5003 197.971C49.386 197.688 49.2096 197.459 48.9711 197.286C48.7326 197.112 48.4145 197.025 48.017 197.025C47.7188 197.025 47.453 197.089 47.2194 197.218C46.9909 197.343 46.7995 197.524 46.6455 197.763C46.4915 198.001 46.3722 198.289 46.2877 198.627C46.2082 198.96 46.1685 199.335 46.1685 199.753V200.051C46.1685 200.404 46.2157 200.732 46.3101 201.035C46.4095 201.333 46.5536 201.594 46.7424 201.817C46.9312 202.041 47.1598 202.217 47.4281 202.347C47.6965 202.471 48.0021 202.533 48.345 202.533C48.7773 202.533 49.1624 202.446 49.5003 202.272C49.8382 202.098 50.1314 201.852 50.3798 201.534L51.3265 202.451C51.1525 202.704 50.9264 202.948 50.6482 203.182C50.3699 203.41 50.0295 203.596 49.627 203.741C49.2295 203.885 48.7673 203.957 48.2406 203.957ZM54.6508 197.464V203.808H52.8545V195.743H54.5465L54.6508 197.464ZM54.3303 199.477L53.7489 199.47C53.7539 198.898 53.8334 198.374 53.9875 197.897C54.1465 197.42 54.3651 197.01 54.6434 196.667C54.9266 196.324 55.2645 196.061 55.6571 195.877C56.0497 195.688 56.4869 195.594 56.969 195.594C57.3566 195.594 57.7069 195.648 58.0199 195.758C58.338 195.862 58.6088 196.033 58.8324 196.272C59.061 196.51 59.2349 196.821 59.3542 197.204C59.4734 197.581 59.5331 198.046 59.5331 198.597V203.808H57.7292V198.59C57.7292 198.202 57.6721 197.897 57.5578 197.673C57.4485 197.445 57.287 197.283 57.0733 197.189C56.8646 197.089 56.6037 197.04 56.2907 197.04C55.9826 197.04 55.7068 197.104 55.4633 197.233C55.2198 197.363 55.0136 197.539 54.8446 197.763C54.6807 197.986 54.5539 198.245 54.4645 198.538C54.375 198.831 54.3303 199.144 54.3303 199.477ZM64.9221 203.957C64.3258 203.957 63.7867 203.86 63.3047 203.666C62.8276 203.467 62.4201 203.191 62.0822 202.839C61.7493 202.486 61.4934 202.071 61.3145 201.594C61.1356 201.117 61.0462 200.602 61.0462 200.051V199.753C61.0462 199.122 61.1381 198.55 61.322 198.038C61.5058 197.527 61.7617 197.089 62.0897 196.727C62.4177 196.359 62.8053 196.078 63.2525 195.884C63.6997 195.69 64.1842 195.594 64.706 195.594C65.2824 195.594 65.7868 195.69 66.2191 195.884C66.6514 196.078 67.0092 196.351 67.2924 196.704C67.5806 197.052 67.7943 197.467 67.9334 197.949C68.0776 198.431 68.1496 198.963 68.1496 199.544V200.312H61.9183V199.022H66.3756V198.881C66.3657 198.558 66.3011 198.255 66.1818 197.971C66.0675 197.688 65.8911 197.459 65.6526 197.286C65.4141 197.112 65.096 197.025 64.6985 197.025C64.4004 197.025 64.1345 197.089 63.901 197.218C63.6724 197.343 63.4811 197.524 63.327 197.763C63.173 198.001 63.0537 198.289 62.9692 198.627C62.8897 198.96 62.85 199.335 62.85 199.753V200.051C62.85 200.404 62.8972 200.732 62.9916 201.035C63.091 201.333 63.2351 201.594 63.4239 201.817C63.6127 202.041 63.8413 202.217 64.1097 202.347C64.378 202.471 64.6836 202.533 65.0265 202.533C65.4588 202.533 65.8439 202.446 66.1818 202.272C66.5197 202.098 66.8129 201.852 67.0614 201.534L68.008 202.451C67.8341 202.704 67.608 202.948 67.3297 203.182C67.0514 203.41 66.711 203.596 66.3085 203.741C65.911 203.885 65.4489 203.957 64.9221 203.957ZM71.3547 197.278V203.808H69.5584V195.743H71.2727L71.3547 197.278ZM73.8219 195.69L73.807 197.36C73.6977 197.34 73.5784 197.325 73.4492 197.315C73.325 197.305 73.2008 197.3 73.0765 197.3C72.7685 197.3 72.4976 197.345 72.2641 197.435C72.0305 197.519 71.8342 197.643 71.6752 197.807C71.5212 197.966 71.4019 198.16 71.3175 198.389C71.233 198.617 71.1833 198.873 71.1684 199.156L70.7584 199.186C70.7584 198.679 70.8081 198.21 70.9075 197.778C71.0069 197.345 71.156 196.965 71.3547 196.637C71.5585 196.309 71.8119 196.053 72.115 195.869C72.4231 195.686 72.7784 195.594 73.1809 195.594C73.2902 195.594 73.407 195.604 73.5312 195.623C73.6604 195.643 73.7573 195.666 73.8219 195.69ZM79.2259 202.19V198.344C79.2259 198.056 79.1737 197.807 79.0694 197.599C78.965 197.39 78.806 197.228 78.5923 197.114C78.3836 197 78.1203 196.943 77.8022 196.943C77.509 196.943 77.2556 196.992 77.0419 197.092C76.8283 197.191 76.6618 197.325 76.5425 197.494C76.4233 197.663 76.3637 197.855 76.3637 198.068H74.5747C74.5747 197.75 74.6518 197.442 74.8058 197.144C74.9599 196.846 75.1835 196.58 75.4767 196.346C75.7698 196.113 76.1202 195.929 76.5276 195.795C76.9351 195.661 77.3923 195.594 77.8991 195.594C78.5054 195.594 79.042 195.695 79.5091 195.899C79.9812 196.103 80.3514 196.411 80.6197 196.823C80.8931 197.231 81.0297 197.743 81.0297 198.359V201.944C81.0297 202.312 81.0546 202.642 81.1042 202.936C81.1589 203.224 81.2359 203.475 81.3353 203.688V203.808H79.4942C79.4098 203.614 79.3427 203.368 79.293 203.07C79.2483 202.767 79.2259 202.473 79.2259 202.19ZM79.4868 198.903L79.5017 200.014H78.2122C77.8792 200.014 77.5861 200.046 77.3326 200.111C77.0792 200.17 76.868 200.26 76.6991 200.379C76.5301 200.498 76.4034 200.642 76.3189 200.811C76.2345 200.98 76.1922 201.171 76.1922 201.385C76.1922 201.599 76.2419 201.795 76.3413 201.974C76.4407 202.148 76.5848 202.285 76.7736 202.384C76.9674 202.483 77.201 202.533 77.4743 202.533C77.842 202.533 78.1625 202.458 78.4358 202.309C78.7141 202.155 78.9327 201.969 79.0917 201.75C79.2507 201.527 79.3352 201.316 79.3452 201.117L79.9265 201.914C79.8669 202.118 79.7651 202.337 79.6209 202.57C79.4768 202.804 79.288 203.027 79.0545 203.241C78.8259 203.45 78.5501 203.621 78.2271 203.755C77.9091 203.89 77.5413 203.957 77.1239 203.957C76.5972 203.957 76.1276 203.852 75.7152 203.644C75.3027 203.43 74.9797 203.144 74.7462 202.786C74.5126 202.424 74.3959 202.014 74.3959 201.557C74.3959 201.129 74.4754 200.752 74.6344 200.424C74.7984 200.091 75.0369 199.812 75.3499 199.589C75.668 199.365 76.0556 199.196 76.5127 199.082C76.9699 198.963 77.4917 198.903 78.078 198.903H79.4868ZM86.6051 195.743V197.055H82.0583V195.743H86.6051ZM83.3702 193.767H85.1665V201.579C85.1665 201.827 85.2013 202.019 85.2709 202.153C85.3454 202.282 85.4473 202.369 85.5765 202.414C85.7057 202.458 85.8573 202.481 86.0312 202.481C86.1554 202.481 86.2747 202.473 86.389 202.458C86.5033 202.444 86.5952 202.429 86.6648 202.414L86.6722 203.785C86.5231 203.83 86.3492 203.87 86.1504 203.905C85.9566 203.939 85.733 203.957 85.4796 203.957C85.0672 203.957 84.7019 203.885 84.3839 203.741C84.0659 203.591 83.8174 203.35 83.6385 203.018C83.4596 202.685 83.3702 202.242 83.3702 201.691V193.767ZM89.9146 195.743V203.808H88.1108V195.743H89.9146ZM87.9915 193.626C87.9915 193.352 88.081 193.126 88.2599 192.947C88.4437 192.764 88.6971 192.672 89.0201 192.672C89.3382 192.672 89.5891 192.764 89.773 192.947C89.9568 193.126 90.0488 193.352 90.0488 193.626C90.0488 193.894 89.9568 194.118 89.773 194.297C89.5891 194.476 89.3382 194.565 89.0201 194.565C88.6971 194.565 88.4437 194.476 88.2599 194.297C88.081 194.118 87.9915 193.894 87.9915 193.626ZM93.6638 197.464V203.808H91.8675V195.743H93.5595L93.6638 197.464ZM93.3433 199.477L92.7619 199.47C92.7669 198.898 92.8464 198.374 93.0004 197.897C93.1595 197.42 93.3781 197.01 93.6564 196.667C93.9396 196.324 94.2775 196.061 94.6701 195.877C95.0627 195.688 95.4999 195.594 95.982 195.594C96.3695 195.594 96.7199 195.648 97.0329 195.758C97.351 195.862 97.6218 196.033 97.8454 196.272C98.074 196.51 98.2479 196.821 98.3672 197.204C98.4864 197.581 98.546 198.046 98.546 198.597V203.808H96.7422V198.59C96.7422 198.202 96.6851 197.897 96.5708 197.673C96.4615 197.445 96.3 197.283 96.0863 197.189C95.8776 197.089 95.6167 197.04 95.3037 197.04C94.9956 197.04 94.7198 197.104 94.4763 197.233C94.2328 197.363 94.0266 197.539 93.8576 197.763C93.6936 197.986 93.5669 198.245 93.4775 198.538C93.388 198.831 93.3433 199.144 93.3433 199.477ZM105.545 195.743H107.178V203.584C107.178 204.31 107.023 204.926 106.715 205.433C106.407 205.939 105.977 206.325 105.426 206.588C104.874 206.856 104.236 206.99 103.51 206.99C103.202 206.99 102.859 206.946 102.482 206.856C102.109 206.767 101.746 206.623 101.393 206.424C101.046 206.23 100.755 205.974 100.521 205.656L101.364 204.598C101.652 204.941 101.97 205.192 102.318 205.351C102.665 205.51 103.031 205.589 103.413 205.589C103.826 205.589 104.176 205.512 104.464 205.358C104.758 205.209 104.984 204.988 105.143 204.695C105.302 204.401 105.381 204.044 105.381 203.621V197.569L105.545 195.743ZM100.067 199.865V199.708C100.067 199.097 100.141 198.54 100.29 198.038C100.439 197.532 100.653 197.097 100.931 196.734C101.21 196.366 101.547 196.086 101.945 195.892C102.342 195.693 102.792 195.594 103.294 195.594C103.816 195.594 104.261 195.688 104.628 195.877C105.001 196.066 105.312 196.336 105.56 196.689C105.808 197.037 106.002 197.455 106.141 197.942C106.286 198.424 106.392 198.96 106.462 199.552V200.051C106.397 200.627 106.288 201.154 106.134 201.631C105.98 202.108 105.776 202.521 105.523 202.868C105.269 203.216 104.956 203.485 104.584 203.673C104.216 203.862 103.781 203.957 103.279 203.957C102.787 203.957 102.342 203.855 101.945 203.651C101.552 203.447 101.214 203.162 100.931 202.794C100.653 202.426 100.439 201.994 100.29 201.497C100.141 200.995 100.067 200.451 100.067 199.865ZM101.863 199.708V199.865C101.863 200.232 101.898 200.575 101.967 200.893C102.042 201.211 102.154 201.492 102.303 201.735C102.457 201.974 102.651 202.163 102.884 202.302C103.123 202.436 103.403 202.503 103.726 202.503C104.149 202.503 104.494 202.414 104.762 202.235C105.036 202.056 105.244 201.815 105.389 201.512C105.538 201.204 105.642 200.861 105.702 200.483V199.134C105.672 198.841 105.61 198.568 105.515 198.314C105.426 198.061 105.304 197.84 105.15 197.651C104.996 197.457 104.802 197.308 104.569 197.204C104.335 197.094 104.059 197.04 103.741 197.04C103.418 197.04 103.138 197.109 102.899 197.248C102.661 197.387 102.464 197.579 102.31 197.822C102.161 198.066 102.049 198.349 101.975 198.672C101.9 198.995 101.863 199.34 101.863 199.708ZM116.398 203.957C115.802 203.957 115.262 203.86 114.78 203.666C114.303 203.467 113.896 203.191 113.558 202.839C113.225 202.486 112.969 202.071 112.79 201.594C112.611 201.117 112.522 200.602 112.522 200.051V199.753C112.522 199.122 112.614 198.55 112.798 198.038C112.982 197.527 113.237 197.089 113.565 196.727C113.893 196.359 114.281 196.078 114.728 195.884C115.175 195.69 115.66 195.594 116.182 195.594C116.758 195.594 117.262 195.69 117.695 195.884C118.127 196.078 118.485 196.351 118.768 196.704C119.056 197.052 119.27 197.467 119.409 197.949C119.553 198.431 119.625 198.963 119.625 199.544V200.312H113.394V199.022H117.851V198.881C117.841 198.558 117.777 198.255 117.657 197.971C117.543 197.688 117.367 197.459 117.128 197.286C116.89 197.112 116.572 197.025 116.174 197.025C115.876 197.025 115.61 197.089 115.377 197.218C115.148 197.343 114.957 197.524 114.803 197.763C114.649 198.001 114.529 198.289 114.445 198.627C114.365 198.96 114.326 199.335 114.326 199.753V200.051C114.326 200.404 114.373 200.732 114.467 201.035C114.567 201.333 114.711 201.594 114.9 201.817C115.088 202.041 115.317 202.217 115.585 202.347C115.854 202.471 116.159 202.533 116.502 202.533C116.934 202.533 117.32 202.446 117.657 202.272C117.995 202.098 118.289 201.852 118.537 201.534L119.484 202.451C119.31 202.704 119.084 202.948 118.805 203.182C118.527 203.41 118.187 203.596 117.784 203.741C117.387 203.885 116.925 203.957 116.398 203.957ZM123.546 202.384L125.521 195.743H127.385L124.582 203.808H123.419L123.546 202.384ZM122.033 195.743L124.045 202.414L124.142 203.808H122.979L120.162 195.743H122.033ZM131.946 203.957C131.35 203.957 130.811 203.86 130.329 203.666C129.852 203.467 129.444 203.191 129.106 202.839C128.774 202.486 128.518 202.071 128.339 201.594C128.16 201.117 128.07 200.602 128.07 200.051V199.753C128.07 199.122 128.162 198.55 128.346 198.038C128.53 197.527 128.786 197.089 129.114 196.727C129.442 196.359 129.829 196.078 130.277 195.884C130.724 195.69 131.208 195.594 131.73 195.594C132.307 195.594 132.811 195.69 133.243 195.884C133.676 196.078 134.033 196.351 134.317 196.704C134.605 197.052 134.819 197.467 134.958 197.949C135.102 198.431 135.174 198.963 135.174 199.544V200.312H128.942V199.022H133.4V198.881C133.39 198.558 133.325 198.255 133.206 197.971C133.092 197.688 132.915 197.459 132.677 197.286C132.438 197.112 132.12 197.025 131.723 197.025C131.425 197.025 131.159 197.089 130.925 197.218C130.697 197.343 130.505 197.524 130.351 197.763C130.197 198.001 130.078 198.289 129.993 198.627C129.914 198.96 129.874 199.335 129.874 199.753V200.051C129.874 200.404 129.921 200.732 130.016 201.035C130.115 201.333 130.259 201.594 130.448 201.817C130.637 202.041 130.866 202.217 131.134 202.347C131.402 202.471 131.708 202.533 132.051 202.533C132.483 202.533 132.868 202.446 133.206 202.272C133.544 202.098 133.837 201.852 134.086 201.534L135.032 202.451C134.858 202.704 134.632 202.948 134.354 203.182C134.076 203.41 133.735 203.596 133.333 203.741C132.935 203.885 132.473 203.957 131.946 203.957ZM138.357 197.464V203.808H136.56V195.743H138.252L138.357 197.464ZM138.036 199.477L137.455 199.47C137.46 198.898 137.539 198.374 137.693 197.897C137.852 197.42 138.071 197.01 138.349 196.667C138.632 196.324 138.97 196.061 139.363 195.877C139.755 195.688 140.193 195.594 140.675 195.594C141.062 195.594 141.413 195.648 141.726 195.758C142.044 195.862 142.315 196.033 142.538 196.272C142.767 196.51 142.941 196.821 143.06 197.204C143.179 197.581 143.239 198.046 143.239 198.597V203.808H141.435V198.59C141.435 198.202 141.378 197.897 141.264 197.673C141.154 197.445 140.993 197.283 140.779 197.189C140.57 197.089 140.309 197.04 139.996 197.04C139.688 197.04 139.413 197.104 139.169 197.233C138.926 197.363 138.719 197.539 138.55 197.763C138.386 197.986 138.26 198.245 138.17 198.538C138.081 198.831 138.036 199.144 138.036 199.477ZM148.77 195.743V197.055H144.223V195.743H148.77ZM145.535 193.767H147.331V201.579C147.331 201.827 147.366 202.019 147.435 202.153C147.51 202.282 147.612 202.369 147.741 202.414C147.87 202.458 148.022 202.481 148.196 202.481C148.32 202.481 148.439 202.473 148.553 202.458C148.668 202.444 148.76 202.429 148.829 202.414L148.837 203.785C148.688 203.83 148.514 203.87 148.315 203.905C148.121 203.939 147.897 203.957 147.644 203.957C147.232 203.957 146.866 203.885 146.548 203.741C146.23 203.591 145.982 203.35 145.803 203.018C145.624 202.685 145.535 202.242 145.535 201.691V193.767ZM157.252 202.526C157.545 202.526 157.808 202.468 158.042 202.354C158.281 202.235 158.472 202.071 158.616 201.862C158.765 201.653 158.847 201.412 158.862 201.139H160.554C160.544 201.661 160.39 202.135 160.092 202.563C159.794 202.99 159.399 203.331 158.907 203.584C158.415 203.832 157.871 203.957 157.274 203.957C156.658 203.957 156.121 203.852 155.664 203.644C155.207 203.43 154.827 203.137 154.524 202.764C154.221 202.391 153.992 201.962 153.838 201.475C153.689 200.988 153.614 200.466 153.614 199.909V199.648C153.614 199.092 153.689 198.57 153.838 198.083C153.992 197.591 154.221 197.159 154.524 196.786C154.827 196.413 155.207 196.123 155.664 195.914C156.121 195.7 156.656 195.594 157.267 195.594C157.913 195.594 158.479 195.723 158.966 195.981C159.453 196.235 159.836 196.59 160.114 197.047C160.397 197.499 160.544 198.026 160.554 198.627H158.862C158.847 198.329 158.772 198.061 158.638 197.822C158.509 197.579 158.325 197.385 158.087 197.241C157.853 197.097 157.572 197.025 157.244 197.025C156.882 197.025 156.581 197.099 156.343 197.248C156.104 197.392 155.918 197.591 155.783 197.845C155.649 198.093 155.552 198.374 155.493 198.687C155.438 198.995 155.411 199.315 155.411 199.648V199.909C155.411 200.242 155.438 200.565 155.493 200.878C155.547 201.191 155.642 201.472 155.776 201.721C155.915 201.964 156.104 202.16 156.343 202.309C156.581 202.454 156.884 202.526 157.252 202.526ZM161.59 199.865V199.693C161.59 199.112 161.674 198.573 161.843 198.076C162.012 197.574 162.256 197.139 162.574 196.771C162.897 196.399 163.289 196.11 163.752 195.907C164.219 195.698 164.745 195.594 165.332 195.594C165.923 195.594 166.45 195.698 166.912 195.907C167.379 196.11 167.774 196.399 168.097 196.771C168.42 197.139 168.666 197.574 168.835 198.076C169.004 198.573 169.088 199.112 169.088 199.693V199.865C169.088 200.446 169.004 200.985 168.835 201.482C168.666 201.979 168.42 202.414 168.097 202.786C167.774 203.154 167.382 203.442 166.919 203.651C166.457 203.855 165.933 203.957 165.347 203.957C164.755 203.957 164.226 203.855 163.759 203.651C163.297 203.442 162.904 203.154 162.581 202.786C162.258 202.414 162.012 201.979 161.843 201.482C161.674 200.985 161.59 200.446 161.59 199.865ZM163.386 199.693V199.865C163.386 200.227 163.424 200.57 163.498 200.893C163.573 201.216 163.689 201.499 163.848 201.743C164.007 201.986 164.211 202.178 164.46 202.317C164.708 202.456 165.004 202.526 165.347 202.526C165.68 202.526 165.968 202.456 166.211 202.317C166.46 202.178 166.663 201.986 166.823 201.743C166.982 201.499 167.098 201.216 167.173 200.893C167.252 200.57 167.292 200.227 167.292 199.865V199.693C167.292 199.335 167.252 198.997 167.173 198.679C167.098 198.356 166.979 198.071 166.815 197.822C166.656 197.574 166.452 197.38 166.204 197.241C165.96 197.097 165.67 197.025 165.332 197.025C164.994 197.025 164.701 197.097 164.452 197.241C164.209 197.38 164.007 197.574 163.848 197.822C163.689 198.071 163.573 198.356 163.498 198.679C163.424 198.997 163.386 199.335 163.386 199.693ZM173.099 202.384L175.074 195.743H176.937L174.135 203.808H172.972L173.099 202.384ZM171.585 195.743L173.598 202.414L173.695 203.808H172.532L169.715 195.743H171.585ZM181.499 203.957C180.903 203.957 180.364 203.86 179.882 203.666C179.404 203.467 178.997 203.191 178.659 202.839C178.326 202.486 178.07 202.071 177.891 201.594C177.712 201.117 177.623 200.602 177.623 200.051V199.753C177.623 199.122 177.715 198.55 177.899 198.038C178.083 197.527 178.339 197.089 178.667 196.727C178.995 196.359 179.382 196.078 179.829 195.884C180.277 195.69 180.761 195.594 181.283 195.594C181.859 195.594 182.364 195.69 182.796 195.884C183.228 196.078 183.586 196.351 183.869 196.704C184.157 197.052 184.371 197.467 184.51 197.949C184.654 198.431 184.726 198.963 184.726 199.544V200.312H178.495V199.022H182.952V198.881C182.943 198.558 182.878 198.255 182.759 197.971C182.644 197.688 182.468 197.459 182.229 197.286C181.991 197.112 181.673 197.025 181.275 197.025C180.977 197.025 180.711 197.089 180.478 197.218C180.249 197.343 180.058 197.524 179.904 197.763C179.75 198.001 179.631 198.289 179.546 198.627C179.467 198.96 179.427 199.335 179.427 199.753V200.051C179.427 200.404 179.474 200.732 179.568 201.035C179.668 201.333 179.812 201.594 180.001 201.817C180.19 202.041 180.418 202.217 180.687 202.347C180.955 202.471 181.26 202.533 181.603 202.533C182.036 202.533 182.421 202.446 182.759 202.272C183.097 202.098 183.39 201.852 183.638 201.534L184.585 202.451C184.411 202.704 184.185 202.948 183.907 203.182C183.628 203.41 183.288 203.596 182.885 203.741C182.488 203.885 182.026 203.957 181.499 203.957ZM187.932 197.278V203.808H186.135V195.743H187.85L187.932 197.278ZM190.399 195.69L190.384 197.36C190.275 197.34 190.155 197.325 190.026 197.315C189.902 197.305 189.778 197.3 189.653 197.3C189.345 197.3 189.074 197.345 188.841 197.435C188.607 197.519 188.411 197.643 188.252 197.807C188.098 197.966 187.979 198.16 187.894 198.389C187.81 198.617 187.76 198.873 187.745 199.156L187.335 199.186C187.335 198.679 187.385 198.21 187.484 197.778C187.584 197.345 187.733 196.965 187.932 196.637C188.135 196.309 188.389 196.053 188.692 195.869C189 195.686 189.355 195.594 189.758 195.594C189.867 195.594 189.984 195.604 190.108 195.623C190.237 195.643 190.334 195.666 190.399 195.69ZM197.13 197.293V206.908H195.333V195.743H196.988L197.13 197.293ZM202.384 199.701V199.857C202.384 200.443 202.315 200.988 202.176 201.489C202.042 201.986 201.84 202.421 201.572 202.794C201.309 203.162 200.983 203.447 200.596 203.651C200.208 203.855 199.761 203.957 199.254 203.957C198.752 203.957 198.312 203.865 197.935 203.681C197.562 203.492 197.246 203.226 196.988 202.883C196.73 202.54 196.521 202.138 196.362 201.676C196.208 201.209 196.098 200.697 196.034 200.14V199.537C196.098 198.945 196.208 198.409 196.362 197.927C196.521 197.445 196.73 197.03 196.988 196.682C197.246 196.334 197.562 196.066 197.935 195.877C198.307 195.688 198.742 195.594 199.239 195.594C199.746 195.594 200.196 195.693 200.588 195.892C200.981 196.086 201.311 196.364 201.579 196.727C201.848 197.084 202.049 197.517 202.183 198.023C202.317 198.525 202.384 199.084 202.384 199.701ZM200.588 199.857V199.701C200.588 199.328 200.553 198.983 200.484 198.665C200.414 198.342 200.305 198.058 200.156 197.815C200.007 197.571 199.815 197.382 199.582 197.248C199.353 197.109 199.077 197.04 198.754 197.04C198.436 197.04 198.163 197.094 197.935 197.204C197.706 197.308 197.515 197.455 197.361 197.643C197.207 197.832 197.087 198.053 197.003 198.307C196.918 198.555 196.859 198.826 196.824 199.119V200.565C196.884 200.923 196.985 201.251 197.13 201.549C197.274 201.847 197.477 202.086 197.741 202.265C198.009 202.439 198.352 202.526 198.769 202.526C199.092 202.526 199.368 202.456 199.597 202.317C199.825 202.178 200.012 201.986 200.156 201.743C200.305 201.494 200.414 201.209 200.484 200.886C200.553 200.563 200.588 200.22 200.588 199.857ZM205.686 192.359V203.808H203.898V192.359H205.686ZM205.373 199.477L204.792 199.47C204.797 198.913 204.874 198.399 205.023 197.927C205.177 197.455 205.391 197.045 205.664 196.697C205.942 196.344 206.275 196.073 206.663 195.884C207.05 195.69 207.48 195.594 207.952 195.594C208.35 195.594 208.708 195.648 209.026 195.758C209.349 195.867 209.627 196.043 209.861 196.287C210.094 196.525 210.271 196.838 210.39 197.226C210.514 197.609 210.576 198.076 210.576 198.627V203.808H208.772V198.612C208.772 198.225 208.715 197.917 208.601 197.688C208.492 197.459 208.33 197.296 208.116 197.196C207.903 197.092 207.642 197.04 207.334 197.04C207.011 197.04 206.725 197.104 206.477 197.233C206.233 197.363 206.029 197.539 205.865 197.763C205.701 197.986 205.577 198.245 205.493 198.538C205.413 198.831 205.373 199.144 205.373 199.477ZM212.052 199.865V199.693C212.052 199.112 212.136 198.573 212.305 198.076C212.474 197.574 212.718 197.139 213.036 196.771C213.359 196.399 213.751 196.11 214.214 195.907C214.681 195.698 215.207 195.594 215.794 195.594C216.385 195.594 216.912 195.698 217.374 195.907C217.841 196.11 218.236 196.399 218.559 196.771C218.882 197.139 219.128 197.574 219.297 198.076C219.466 198.573 219.55 199.112 219.55 199.693V199.865C219.55 200.446 219.466 200.985 219.297 201.482C219.128 201.979 218.882 202.414 218.559 202.786C218.236 203.154 217.844 203.442 217.381 203.651C216.919 203.855 216.395 203.957 215.809 203.957C215.217 203.957 214.688 203.855 214.221 203.651C213.759 203.442 213.366 203.154 213.043 202.786C212.72 202.414 212.474 201.979 212.305 201.482C212.136 200.985 212.052 200.446 212.052 199.865ZM213.848 199.693V199.865C213.848 200.227 213.886 200.57 213.96 200.893C214.035 201.216 214.151 201.499 214.31 201.743C214.469 201.986 214.673 202.178 214.922 202.317C215.17 202.456 215.466 202.526 215.809 202.526C216.142 202.526 216.43 202.456 216.673 202.317C216.922 202.178 217.125 201.986 217.284 201.743C217.443 201.499 217.56 201.216 217.635 200.893C217.714 200.57 217.754 200.227 217.754 199.865V199.693C217.754 199.335 217.714 198.997 217.635 198.679C217.56 198.356 217.441 198.071 217.277 197.822C217.118 197.574 216.914 197.38 216.666 197.241C216.422 197.097 216.132 197.025 215.794 197.025C215.456 197.025 215.163 197.097 214.914 197.241C214.671 197.38 214.469 197.574 214.31 197.822C214.151 198.071 214.035 198.356 213.96 198.679C213.886 198.997 213.848 199.335 213.848 199.693ZM224.753 195.743V197.055H220.206V195.743H224.753ZM221.518 193.767H223.315V201.579C223.315 201.827 223.349 202.019 223.419 202.153C223.493 202.282 223.595 202.369 223.725 202.414C223.854 202.458 224.005 202.481 224.179 202.481C224.303 202.481 224.423 202.473 224.537 202.458C224.651 202.444 224.743 202.429 224.813 202.414L224.82 203.785C224.671 203.83 224.497 203.87 224.298 203.905C224.105 203.939 223.881 203.957 223.628 203.957C223.215 203.957 222.85 203.885 222.532 203.741C222.214 203.591 221.965 203.35 221.787 203.018C221.608 202.685 221.518 202.242 221.518 201.691V193.767ZM225.618 199.865V199.693C225.618 199.112 225.702 198.573 225.871 198.076C226.04 197.574 226.284 197.139 226.602 196.771C226.925 196.399 227.317 196.11 227.779 195.907C228.246 195.698 228.773 195.594 229.36 195.594C229.951 195.594 230.478 195.698 230.94 195.907C231.407 196.11 231.802 196.399 232.125 196.771C232.448 197.139 232.694 197.574 232.863 198.076C233.032 198.573 233.116 199.112 233.116 199.693V199.865C233.116 200.446 233.032 200.985 232.863 201.482C232.694 201.979 232.448 202.414 232.125 202.786C231.802 203.154 231.409 203.442 230.947 203.651C230.485 203.855 229.961 203.957 229.374 203.957C228.783 203.957 228.254 203.855 227.787 203.651C227.325 203.442 226.932 203.154 226.609 202.786C226.286 202.414 226.04 201.979 225.871 201.482C225.702 200.985 225.618 200.446 225.618 199.865ZM227.414 199.693V199.865C227.414 200.227 227.451 200.57 227.526 200.893C227.601 201.216 227.717 201.499 227.876 201.743C228.035 201.986 228.239 202.178 228.487 202.317C228.736 202.456 229.032 202.526 229.374 202.526C229.707 202.526 229.996 202.456 230.239 202.317C230.488 202.178 230.691 201.986 230.85 201.743C231.009 201.499 231.126 201.216 231.201 200.893C231.28 200.57 231.32 200.227 231.32 199.865V199.693C231.32 199.335 231.28 198.997 231.201 198.679C231.126 198.356 231.007 198.071 230.843 197.822C230.684 197.574 230.48 197.38 230.232 197.241C229.988 197.097 229.697 197.025 229.36 197.025C229.022 197.025 228.729 197.097 228.48 197.241C228.237 197.38 228.035 197.574 227.876 197.822C227.717 198.071 227.601 198.356 227.526 198.679C227.451 198.997 227.414 199.335 227.414 199.693ZM242.12 195.743V197.055H237.574V195.743H242.12ZM238.885 193.767H240.682V201.579C240.682 201.827 240.717 202.019 240.786 202.153C240.861 202.282 240.963 202.369 241.092 202.414C241.221 202.458 241.373 202.481 241.546 202.481C241.671 202.481 241.79 202.473 241.904 202.458C242.019 202.444 242.11 202.429 242.18 202.414L242.188 203.785C242.038 203.83 241.865 203.87 241.666 203.905C241.472 203.939 241.248 203.957 240.995 203.957C240.582 203.957 240.217 203.885 239.899 203.741C239.581 203.591 239.333 203.35 239.154 203.018C238.975 202.685 238.885 202.242 238.885 201.691V193.767ZM245.281 192.359V203.808H243.492V192.359H245.281ZM244.968 199.477L244.386 199.47C244.391 198.913 244.468 198.399 244.617 197.927C244.771 197.455 244.985 197.045 245.258 196.697C245.537 196.344 245.87 196.073 246.257 195.884C246.645 195.69 247.075 195.594 247.547 195.594C247.944 195.594 248.302 195.648 248.62 195.758C248.943 195.867 249.221 196.043 249.455 196.287C249.688 196.525 249.865 196.838 249.984 197.226C250.108 197.609 250.17 198.076 250.17 198.627V203.808H248.367V198.612C248.367 198.225 248.31 197.917 248.195 197.688C248.086 197.459 247.924 197.296 247.711 197.196C247.497 197.092 247.236 197.04 246.928 197.04C246.605 197.04 246.319 197.104 246.071 197.233C245.827 197.363 245.624 197.539 245.46 197.763C245.296 197.986 245.172 198.245 245.087 198.538C245.008 198.831 244.968 199.144 244.968 199.477ZM253.912 195.743V203.808H252.108V195.743H253.912ZM251.989 193.626C251.989 193.352 252.079 193.126 252.258 192.947C252.441 192.764 252.695 192.672 253.018 192.672C253.336 192.672 253.587 192.764 253.771 192.947C253.955 193.126 254.046 193.352 254.046 193.626C254.046 193.894 253.955 194.118 253.771 194.297C253.587 194.476 253.336 194.565 253.018 194.565C252.695 194.565 252.441 194.476 252.258 194.297C252.079 194.118 251.989 193.894 251.989 193.626ZM260.405 201.624C260.405 201.445 260.36 201.283 260.27 201.139C260.181 200.99 260.009 200.856 259.756 200.737C259.508 200.617 259.14 200.508 258.653 200.409C258.226 200.314 257.833 200.202 257.475 200.073C257.122 199.939 256.819 199.778 256.566 199.589C256.312 199.4 256.116 199.176 255.977 198.918C255.838 198.66 255.768 198.361 255.768 198.023C255.768 197.696 255.84 197.385 255.984 197.092C256.129 196.799 256.335 196.54 256.603 196.317C256.871 196.093 257.197 195.917 257.58 195.787C257.967 195.658 258.399 195.594 258.876 195.594C259.552 195.594 260.131 195.708 260.613 195.936C261.1 196.16 261.473 196.466 261.731 196.853C261.99 197.236 262.119 197.668 262.119 198.15H260.323C260.323 197.937 260.268 197.738 260.159 197.554C260.054 197.365 259.895 197.214 259.681 197.099C259.468 196.98 259.199 196.92 258.876 196.92C258.568 196.92 258.312 196.97 258.109 197.069C257.91 197.164 257.761 197.288 257.662 197.442C257.567 197.596 257.52 197.765 257.52 197.949C257.52 198.083 257.545 198.205 257.594 198.314C257.649 198.419 257.739 198.515 257.863 198.605C257.987 198.689 258.156 198.769 258.37 198.843C258.588 198.918 258.862 198.99 259.19 199.06C259.806 199.189 260.335 199.355 260.777 199.559C261.224 199.758 261.567 200.016 261.806 200.334C262.044 200.647 262.164 201.045 262.164 201.527C262.164 201.885 262.087 202.213 261.933 202.511C261.783 202.804 261.565 203.06 261.277 203.278C260.988 203.492 260.643 203.659 260.241 203.778C259.843 203.897 259.396 203.957 258.899 203.957C258.168 203.957 257.55 203.827 257.043 203.569C256.536 203.306 256.151 202.97 255.888 202.563C255.629 202.15 255.5 201.723 255.5 201.281H257.237C257.257 201.614 257.348 201.88 257.512 202.078C257.681 202.272 257.89 202.414 258.139 202.503C258.392 202.588 258.653 202.63 258.921 202.63C259.244 202.63 259.515 202.588 259.734 202.503C259.952 202.414 260.119 202.295 260.233 202.145C260.347 201.991 260.405 201.817 260.405 201.624ZM269.334 197.382V203.808H267.538V195.743H269.23L269.334 197.382ZM269.043 199.477L268.432 199.47C268.432 198.913 268.502 198.399 268.641 197.927C268.78 197.455 268.984 197.045 269.252 196.697C269.52 196.344 269.853 196.073 270.251 195.884C270.653 195.69 271.118 195.594 271.645 195.594C272.013 195.594 272.348 195.648 272.651 195.758C272.959 195.862 273.225 196.028 273.449 196.257C273.677 196.486 273.851 196.779 273.97 197.136C274.095 197.494 274.157 197.927 274.157 198.433V203.808H272.36V198.59C272.36 198.197 272.301 197.889 272.181 197.666C272.067 197.442 271.901 197.283 271.682 197.189C271.468 197.089 271.212 197.04 270.914 197.04C270.576 197.04 270.288 197.104 270.05 197.233C269.816 197.363 269.625 197.539 269.476 197.763C269.327 197.986 269.217 198.245 269.148 198.538C269.078 198.831 269.043 199.144 269.043 199.477ZM274.045 199L273.203 199.186C273.203 198.699 273.27 198.24 273.404 197.807C273.543 197.37 273.744 196.987 274.008 196.659C274.276 196.327 274.606 196.066 274.999 195.877C275.392 195.688 275.841 195.594 276.348 195.594C276.761 195.594 277.128 195.651 277.451 195.765C277.779 195.874 278.058 196.048 278.286 196.287C278.515 196.525 278.689 196.836 278.808 197.218C278.927 197.596 278.987 198.053 278.987 198.59V203.808H277.183V198.583C277.183 198.175 277.123 197.86 277.004 197.636C276.89 197.412 276.726 197.258 276.512 197.174C276.298 197.084 276.043 197.04 275.744 197.04C275.466 197.04 275.22 197.092 275.006 197.196C274.798 197.296 274.621 197.437 274.477 197.621C274.333 197.8 274.224 198.006 274.149 198.24C274.08 198.473 274.045 198.727 274.045 199ZM285.382 202.19V198.344C285.382 198.056 285.33 197.807 285.226 197.599C285.121 197.39 284.962 197.228 284.749 197.114C284.54 197 284.276 196.943 283.958 196.943C283.665 196.943 283.412 196.992 283.198 197.092C282.984 197.191 282.818 197.325 282.699 197.494C282.579 197.663 282.52 197.855 282.52 198.068H280.731C280.731 197.75 280.808 197.442 280.962 197.144C281.116 196.846 281.34 196.58 281.633 196.346C281.926 196.113 282.276 195.929 282.684 195.795C283.091 195.661 283.548 195.594 284.055 195.594C284.662 195.594 285.198 195.695 285.665 195.899C286.137 196.103 286.508 196.411 286.776 196.823C287.049 197.231 287.186 197.743 287.186 198.359V201.944C287.186 202.312 287.211 202.642 287.26 202.936C287.315 203.224 287.392 203.475 287.491 203.688V203.808H285.65C285.566 203.614 285.499 203.368 285.449 203.07C285.404 202.767 285.382 202.473 285.382 202.19ZM285.643 198.903L285.658 200.014H284.368C284.035 200.014 283.742 200.046 283.489 200.111C283.235 200.17 283.024 200.26 282.855 200.379C282.686 200.498 282.56 200.642 282.475 200.811C282.391 200.98 282.348 201.171 282.348 201.385C282.348 201.599 282.398 201.795 282.497 201.974C282.597 202.148 282.741 202.285 282.93 202.384C283.124 202.483 283.357 202.533 283.63 202.533C283.998 202.533 284.319 202.458 284.592 202.309C284.87 202.155 285.089 201.969 285.248 201.75C285.407 201.527 285.491 201.316 285.501 201.117L286.083 201.914C286.023 202.118 285.921 202.337 285.777 202.57C285.633 202.804 285.444 203.027 285.211 203.241C284.982 203.45 284.706 203.621 284.383 203.755C284.065 203.89 283.698 203.957 283.28 203.957C282.753 203.957 282.284 203.852 281.871 203.644C281.459 203.43 281.136 203.144 280.902 202.786C280.669 202.424 280.552 202.014 280.552 201.557C280.552 201.129 280.632 200.752 280.791 200.424C280.955 200.091 281.193 199.812 281.506 199.589C281.824 199.365 282.212 199.196 282.669 199.082C283.126 198.963 283.648 198.903 284.234 198.903H285.643ZM291.285 202.928L293.477 195.743H295.4L292.165 205.037C292.09 205.236 291.994 205.452 291.874 205.686C291.755 205.92 291.598 206.141 291.405 206.349C291.216 206.563 290.98 206.734 290.697 206.864C290.413 206.998 290.07 207.065 289.668 207.065C289.509 207.065 289.355 207.05 289.206 207.02C289.062 206.995 288.925 206.968 288.796 206.938L288.788 205.567C288.838 205.572 288.898 205.577 288.967 205.582C289.042 205.587 289.101 205.589 289.146 205.589C289.444 205.589 289.693 205.552 289.892 205.477C290.09 205.408 290.252 205.293 290.376 205.134C290.505 204.975 290.615 204.762 290.704 204.493L291.285 202.928ZM290.048 195.743L291.964 201.78L292.284 203.673L291.039 203.994L288.11 195.743H290.048ZM303.927 195.743V197.055H299.38V195.743H303.927ZM300.692 193.767H302.488V201.579C302.488 201.827 302.523 202.019 302.593 202.153C302.667 202.282 302.769 202.369 302.898 202.414C303.028 202.458 303.179 202.481 303.353 202.481C303.477 202.481 303.597 202.473 303.711 202.458C303.825 202.444 303.917 202.429 303.987 202.414L303.994 203.785C303.845 203.83 303.671 203.87 303.472 203.905C303.279 203.939 303.055 203.957 302.802 203.957C302.389 203.957 302.024 203.885 301.706 203.741C301.388 203.591 301.139 203.35 300.96 203.018C300.782 202.685 300.692 202.242 300.692 201.691V193.767ZM309.86 202.19V198.344C309.86 198.056 309.808 197.807 309.704 197.599C309.599 197.39 309.44 197.228 309.227 197.114C309.018 197 308.755 196.943 308.437 196.943C308.143 196.943 307.89 196.992 307.676 197.092C307.463 197.191 307.296 197.325 307.177 197.494C307.058 197.663 306.998 197.855 306.998 198.068H305.209C305.209 197.75 305.286 197.442 305.44 197.144C305.594 196.846 305.818 196.58 306.111 196.346C306.404 196.113 306.754 195.929 307.162 195.795C307.569 195.661 308.027 195.594 308.533 195.594C309.14 195.594 309.676 195.695 310.143 195.899C310.616 196.103 310.986 196.411 311.254 196.823C311.527 197.231 311.664 197.743 311.664 198.359V201.944C311.664 202.312 311.689 202.642 311.739 202.936C311.793 203.224 311.87 203.475 311.97 203.688V203.808H310.129C310.044 203.614 309.977 203.368 309.927 203.07C309.883 202.767 309.86 202.473 309.86 202.19ZM310.121 198.903L310.136 200.014H308.847C308.514 200.014 308.22 200.046 307.967 200.111C307.714 200.17 307.502 200.26 307.333 200.379C307.164 200.498 307.038 200.642 306.953 200.811C306.869 200.98 306.827 201.171 306.827 201.385C306.827 201.599 306.876 201.795 306.976 201.974C307.075 202.148 307.219 202.285 307.408 202.384C307.602 202.483 307.835 202.533 308.109 202.533C308.476 202.533 308.797 202.458 309.07 202.309C309.348 202.155 309.567 201.969 309.726 201.75C309.885 201.527 309.97 201.316 309.979 201.117L310.561 201.914C310.501 202.118 310.399 202.337 310.255 202.57C310.111 202.804 309.922 203.027 309.689 203.241C309.46 203.45 309.184 203.621 308.861 203.755C308.543 203.89 308.176 203.957 307.758 203.957C307.232 203.957 306.762 203.852 306.349 203.644C305.937 203.43 305.614 203.144 305.381 202.786C305.147 202.424 305.03 202.014 305.03 201.557C305.03 201.129 305.11 200.752 305.269 200.424C305.433 200.091 305.671 199.812 305.984 199.589C306.302 199.365 306.69 199.196 307.147 199.082C307.604 198.963 308.126 198.903 308.712 198.903H310.121ZM315.354 192.359V203.808H313.55V192.359H315.354ZM320.363 195.743L316.852 199.634L314.929 201.601L314.459 200.081L315.913 198.284L318.194 195.743H320.363ZM318.581 203.808L315.965 200.021L317.098 198.761L320.661 203.808H318.581ZM324.909 203.957C324.313 203.957 323.774 203.86 323.292 203.666C322.815 203.467 322.407 203.191 322.069 202.839C321.737 202.486 321.481 202.071 321.302 201.594C321.123 201.117 321.033 200.602 321.033 200.051V199.753C321.033 199.122 321.125 198.55 321.309 198.038C321.493 197.527 321.749 197.089 322.077 196.727C322.405 196.359 322.792 196.078 323.24 195.884C323.687 195.69 324.171 195.594 324.693 195.594C325.27 195.594 325.774 195.69 326.206 195.884C326.639 196.078 326.996 196.351 327.28 196.704C327.568 197.052 327.782 197.467 327.921 197.949C328.065 198.431 328.137 198.963 328.137 199.544V200.312H321.906V199.022H326.363V198.881C326.353 198.558 326.288 198.255 326.169 197.971C326.055 197.688 325.878 197.459 325.64 197.286C325.401 197.112 325.083 197.025 324.686 197.025C324.388 197.025 324.122 197.089 323.888 197.218C323.66 197.343 323.468 197.524 323.314 197.763C323.16 198.001 323.041 198.289 322.956 198.627C322.877 198.96 322.837 199.335 322.837 199.753V200.051C322.837 200.404 322.884 200.732 322.979 201.035C323.078 201.333 323.222 201.594 323.411 201.817C323.6 202.041 323.829 202.217 324.097 202.347C324.365 202.471 324.671 202.533 325.014 202.533C325.446 202.533 325.831 202.446 326.169 202.272C326.507 202.098 326.8 201.852 327.049 201.534L327.995 202.451C327.821 202.704 327.595 202.948 327.317 203.182C327.039 203.41 326.698 203.596 326.296 203.741C325.898 203.885 325.436 203.957 324.909 203.957ZM337.886 202.19V198.344C337.886 198.056 337.834 197.807 337.73 197.599C337.625 197.39 337.466 197.228 337.253 197.114C337.044 197 336.781 196.943 336.463 196.943C336.17 196.943 335.916 196.992 335.702 197.092C335.489 197.191 335.322 197.325 335.203 197.494C335.084 197.663 335.024 197.855 335.024 198.068H333.235C333.235 197.75 333.312 197.442 333.466 197.144C333.62 196.846 333.844 196.58 334.137 196.346C334.43 196.113 334.781 195.929 335.188 195.795C335.596 195.661 336.053 195.594 336.56 195.594C337.166 195.594 337.703 195.695 338.17 195.899C338.642 196.103 339.012 196.411 339.28 196.823C339.554 197.231 339.69 197.743 339.69 198.359V201.944C339.69 202.312 339.715 202.642 339.765 202.936C339.819 203.224 339.896 203.475 339.996 203.688V203.808H338.155C338.07 203.614 338.003 203.368 337.953 203.07C337.909 202.767 337.886 202.473 337.886 202.19ZM338.147 198.903L338.162 200.014H336.873C336.54 200.014 336.247 200.046 335.993 200.111C335.74 200.17 335.529 200.26 335.36 200.379C335.191 200.498 335.064 200.642 334.979 200.811C334.895 200.98 334.853 201.171 334.853 201.385C334.853 201.599 334.902 201.795 335.002 201.974C335.101 202.148 335.245 202.285 335.434 202.384C335.628 202.483 335.861 202.533 336.135 202.533C336.502 202.533 336.823 202.458 337.096 202.309C337.375 202.155 337.593 201.969 337.752 201.75C337.911 201.527 337.996 201.316 338.006 201.117L338.587 201.914C338.527 202.118 338.426 202.337 338.281 202.57C338.137 202.804 337.948 203.027 337.715 203.241C337.486 203.45 337.211 203.621 336.888 203.755C336.57 203.89 336.202 203.957 335.784 203.957C335.258 203.957 334.788 203.852 334.376 203.644C333.963 203.43 333.64 203.144 333.407 202.786C333.173 202.424 333.056 202.014 333.056 201.557C333.056 201.129 333.136 200.752 333.295 200.424C333.459 200.091 333.697 199.812 334.01 199.589C334.328 199.365 334.716 199.196 335.173 199.082C335.63 198.963 336.152 198.903 336.738 198.903H338.147ZM145.147 224.808H143.351V215.967C143.351 215.366 143.462 214.862 143.686 214.454C143.915 214.042 144.24 213.731 144.662 213.523C145.085 213.309 145.584 213.202 146.161 213.202C146.34 213.202 146.516 213.215 146.69 213.239C146.864 213.259 147.033 213.292 147.197 213.336L147.152 214.723C147.053 214.698 146.943 214.68 146.824 214.67C146.71 214.661 146.586 214.656 146.451 214.656C146.178 214.656 145.942 214.708 145.743 214.812C145.549 214.912 145.4 215.058 145.296 215.252C145.197 215.446 145.147 215.684 145.147 215.967V224.808ZM146.809 216.743V218.055H142.113V216.743H146.809ZM151.49 224.957C150.894 224.957 150.355 224.86 149.873 224.666C149.396 224.467 148.988 224.191 148.65 223.839C148.317 223.486 148.061 223.071 147.882 222.594C147.704 222.117 147.614 221.602 147.614 221.051V220.753C147.614 220.122 147.706 219.55 147.89 219.038C148.074 218.527 148.33 218.089 148.658 217.727C148.986 217.359 149.373 217.078 149.82 216.884C150.268 216.69 150.752 216.594 151.274 216.594C151.85 216.594 152.355 216.69 152.787 216.884C153.219 217.078 153.577 217.351 153.86 217.704C154.149 218.052 154.362 218.467 154.501 218.949C154.646 219.431 154.718 219.963 154.718 220.544V221.312H148.486V220.022H152.944V219.881C152.934 219.558 152.869 219.255 152.75 218.971C152.636 218.688 152.459 218.459 152.221 218.286C151.982 218.112 151.664 218.025 151.267 218.025C150.968 218.025 150.703 218.089 150.469 218.218C150.24 218.343 150.049 218.524 149.895 218.763C149.741 219.001 149.622 219.289 149.537 219.627C149.458 219.96 149.418 220.335 149.418 220.753V221.051C149.418 221.404 149.465 221.732 149.56 222.035C149.659 222.333 149.803 222.594 149.992 222.817C150.181 223.041 150.409 223.217 150.678 223.347C150.946 223.471 151.252 223.533 151.594 223.533C152.027 223.533 152.412 223.446 152.75 223.272C153.088 223.098 153.381 222.852 153.629 222.534L154.576 223.451C154.402 223.704 154.176 223.948 153.898 224.182C153.619 224.41 153.279 224.596 152.877 224.741C152.479 224.885 152.017 224.957 151.49 224.957ZM158.31 223.019L160.174 216.743H161.322L161.009 218.621L159.13 224.808H158.102L158.31 223.019ZM157.215 216.743L158.668 223.049L158.787 224.808H157.639L155.456 216.743H157.215ZM163.066 222.974L164.475 216.743H166.226L164.05 224.808H162.902L163.066 222.974ZM161.515 216.743L163.357 222.944L163.588 224.808H162.559L160.658 218.614L160.345 216.743H161.515ZM175.774 222.624C175.774 222.445 175.73 222.283 175.64 222.139C175.551 221.99 175.379 221.856 175.126 221.737C174.878 221.617 174.51 221.508 174.023 221.409C173.595 221.314 173.203 221.202 172.845 221.073C172.492 220.939 172.189 220.778 171.936 220.589C171.682 220.4 171.486 220.176 171.347 219.918C171.208 219.66 171.138 219.361 171.138 219.023C171.138 218.696 171.21 218.385 171.354 218.092C171.499 217.799 171.705 217.54 171.973 217.317C172.241 217.093 172.567 216.917 172.949 216.787C173.337 216.658 173.769 216.594 174.246 216.594C174.922 216.594 175.501 216.708 175.983 216.936C176.47 217.16 176.843 217.466 177.101 217.853C177.36 218.236 177.489 218.668 177.489 219.15H175.692C175.692 218.937 175.638 218.738 175.529 218.554C175.424 218.365 175.265 218.214 175.051 218.099C174.838 217.98 174.569 217.92 174.246 217.92C173.938 217.92 173.682 217.97 173.479 218.069C173.28 218.164 173.131 218.288 173.031 218.442C172.937 218.596 172.89 218.765 172.89 218.949C172.89 219.083 172.915 219.205 172.964 219.314C173.019 219.419 173.109 219.515 173.233 219.605C173.357 219.689 173.526 219.769 173.74 219.843C173.958 219.918 174.232 219.99 174.56 220.06C175.176 220.189 175.705 220.355 176.147 220.559C176.594 220.758 176.937 221.016 177.176 221.334C177.414 221.647 177.534 222.045 177.534 222.527C177.534 222.885 177.457 223.213 177.302 223.511C177.153 223.804 176.935 224.06 176.647 224.278C176.358 224.492 176.013 224.659 175.61 224.778C175.213 224.897 174.766 224.957 174.269 224.957C173.538 224.957 172.92 224.827 172.413 224.569C171.906 224.306 171.521 223.97 171.257 223.563C170.999 223.15 170.87 222.723 170.87 222.281H172.607C172.627 222.614 172.718 222.88 172.882 223.078C173.051 223.272 173.26 223.414 173.509 223.503C173.762 223.588 174.023 223.63 174.291 223.63C174.614 223.63 174.885 223.588 175.104 223.503C175.322 223.414 175.489 223.295 175.603 223.145C175.717 222.991 175.774 222.817 175.774 222.624ZM182.662 224.957C182.065 224.957 181.526 224.86 181.044 224.666C180.567 224.467 180.16 224.191 179.822 223.839C179.489 223.486 179.233 223.071 179.054 222.594C178.875 222.117 178.786 221.602 178.786 221.051V220.753C178.786 220.122 178.878 219.55 179.062 219.038C179.245 218.527 179.501 218.089 179.829 217.727C180.157 217.359 180.545 217.078 180.992 216.884C181.439 216.69 181.924 216.594 182.446 216.594C183.022 216.594 183.526 216.69 183.959 216.884C184.391 217.078 184.749 217.351 185.032 217.704C185.32 218.052 185.534 218.467 185.673 218.949C185.817 219.431 185.889 219.963 185.889 220.544V221.312H179.658V220.022H184.115V219.881C184.105 219.558 184.041 219.255 183.921 218.971C183.807 218.688 183.631 218.459 183.392 218.286C183.154 218.112 182.836 218.025 182.438 218.025C182.14 218.025 181.874 218.089 181.641 218.218C181.412 218.343 181.221 218.524 181.067 218.763C180.913 219.001 180.793 219.289 180.709 219.627C180.629 219.96 180.59 220.335 180.59 220.753V221.051C180.59 221.404 180.637 221.732 180.731 222.035C180.831 222.333 180.975 222.594 181.164 222.817C181.352 223.041 181.581 223.217 181.849 223.347C182.118 223.471 182.423 223.533 182.766 223.533C183.198 223.533 183.584 223.446 183.921 223.272C184.259 223.098 184.553 222.852 184.801 222.534L185.748 223.451C185.574 223.704 185.348 223.948 185.069 224.182C184.791 224.41 184.451 224.596 184.048 224.741C183.651 224.885 183.188 224.957 182.662 224.957ZM190.585 223.526C190.878 223.526 191.142 223.468 191.375 223.354C191.614 223.235 191.805 223.071 191.949 222.862C192.098 222.653 192.18 222.412 192.195 222.139H193.887C193.877 222.661 193.723 223.135 193.425 223.563C193.127 223.99 192.732 224.331 192.24 224.584C191.748 224.832 191.204 224.957 190.607 224.957C189.991 224.957 189.455 224.852 188.997 224.644C188.54 224.43 188.16 224.137 187.857 223.764C187.554 223.391 187.325 222.962 187.171 222.475C187.022 221.988 186.948 221.466 186.948 220.909V220.648C186.948 220.092 187.022 219.57 187.171 219.083C187.325 218.591 187.554 218.159 187.857 217.786C188.16 217.413 188.54 217.123 188.997 216.914C189.455 216.7 189.989 216.594 190.6 216.594C191.246 216.594 191.812 216.723 192.299 216.981C192.786 217.235 193.169 217.59 193.447 218.047C193.731 218.499 193.877 219.026 193.887 219.627H192.195C192.18 219.329 192.106 219.061 191.972 218.822C191.842 218.579 191.658 218.385 191.42 218.241C191.186 218.097 190.906 218.025 190.578 218.025C190.215 218.025 189.914 218.099 189.676 218.248C189.437 218.392 189.251 218.591 189.117 218.845C188.983 219.093 188.886 219.374 188.826 219.687C188.771 219.995 188.744 220.315 188.744 220.648V220.909C188.744 221.242 188.771 221.565 188.826 221.878C188.881 222.191 188.975 222.472 189.109 222.721C189.248 222.964 189.437 223.16 189.676 223.309C189.914 223.454 190.217 223.526 190.585 223.526ZM194.923 220.865V220.693C194.923 220.112 195.008 219.573 195.177 219.076C195.346 218.574 195.589 218.139 195.907 217.771C196.23 217.399 196.623 217.11 197.085 216.907C197.552 216.698 198.079 216.594 198.665 216.594C199.256 216.594 199.783 216.698 200.245 216.907C200.712 217.11 201.107 217.399 201.43 217.771C201.753 218.139 201.999 218.574 202.168 219.076C202.337 219.573 202.422 220.112 202.422 220.693V220.865C202.422 221.446 202.337 221.985 202.168 222.482C201.999 222.979 201.753 223.414 201.43 223.786C201.107 224.154 200.715 224.442 200.253 224.651C199.79 224.855 199.266 224.957 198.68 224.957C198.089 224.957 197.559 224.855 197.092 224.651C196.63 224.442 196.238 224.154 195.915 223.786C195.592 223.414 195.346 222.979 195.177 222.482C195.008 221.985 194.923 221.446 194.923 220.865ZM196.72 220.693V220.865C196.72 221.227 196.757 221.57 196.831 221.893C196.906 222.216 197.023 222.499 197.182 222.743C197.341 222.986 197.544 223.178 197.793 223.317C198.041 223.456 198.337 223.526 198.68 223.526C199.013 223.526 199.301 223.456 199.545 223.317C199.793 223.178 199.997 222.986 200.156 222.743C200.315 222.499 200.432 222.216 200.506 221.893C200.586 221.57 200.625 221.227 200.625 220.865V220.693C200.625 220.335 200.586 219.997 200.506 219.679C200.432 219.356 200.312 219.071 200.148 218.822C199.989 218.574 199.786 218.38 199.537 218.241C199.294 218.097 199.003 218.025 198.665 218.025C198.327 218.025 198.034 218.097 197.785 218.241C197.542 218.38 197.341 218.574 197.182 218.822C197.023 219.071 196.906 219.356 196.831 219.679C196.757 219.997 196.72 220.335 196.72 220.693ZM205.709 218.464V224.808H203.912V216.743H205.604L205.709 218.464ZM205.388 220.477L204.807 220.47C204.812 219.898 204.891 219.374 205.045 218.897C205.204 218.42 205.423 218.01 205.701 217.667C205.985 217.324 206.322 217.061 206.715 216.877C207.108 216.688 207.545 216.594 208.027 216.594C208.414 216.594 208.765 216.648 209.078 216.758C209.396 216.862 209.667 217.033 209.89 217.272C210.119 217.51 210.293 217.821 210.412 218.204C210.531 218.581 210.591 219.046 210.591 219.597V224.808H208.787V219.59C208.787 219.202 208.73 218.897 208.616 218.673C208.506 218.445 208.345 218.283 208.131 218.189C207.923 218.089 207.662 218.04 207.349 218.04C207.041 218.04 206.765 218.104 206.521 218.233C206.278 218.363 206.072 218.539 205.903 218.763C205.739 218.986 205.612 219.245 205.522 219.538C205.433 219.831 205.388 220.144 205.388 220.477ZM217.344 223.138V213.359H219.148V224.808H217.516L217.344 223.138ZM212.097 220.865V220.708C212.097 220.097 212.169 219.54 212.313 219.038C212.457 218.532 212.666 218.097 212.939 217.734C213.212 217.366 213.545 217.086 213.938 216.892C214.33 216.693 214.773 216.594 215.265 216.594C215.751 216.594 216.179 216.688 216.547 216.877C216.914 217.066 217.227 217.336 217.486 217.689C217.744 218.037 217.95 218.455 218.104 218.942C218.258 219.424 218.368 219.96 218.432 220.552V221.051C218.368 221.627 218.258 222.154 218.104 222.631C217.95 223.108 217.744 223.521 217.486 223.868C217.227 224.216 216.912 224.485 216.539 224.673C216.171 224.862 215.742 224.957 215.25 224.957C214.763 224.957 214.323 224.855 213.93 224.651C213.543 224.447 213.212 224.162 212.939 223.794C212.666 223.426 212.457 222.994 212.313 222.497C212.169 221.995 212.097 221.451 212.097 220.865ZM213.893 220.708V220.865C213.893 221.232 213.925 221.575 213.99 221.893C214.059 222.211 214.166 222.492 214.31 222.735C214.455 222.974 214.641 223.163 214.869 223.302C215.103 223.436 215.381 223.503 215.704 223.503C216.112 223.503 216.447 223.414 216.711 223.235C216.974 223.056 217.18 222.815 217.329 222.512C217.483 222.204 217.588 221.861 217.642 221.483V220.134C217.612 219.841 217.55 219.568 217.456 219.314C217.366 219.061 217.245 218.84 217.091 218.651C216.937 218.457 216.745 218.308 216.517 218.204C216.293 218.094 216.027 218.04 215.719 218.04C215.391 218.04 215.113 218.109 214.884 218.248C214.656 218.387 214.467 218.579 214.318 218.822C214.174 219.066 214.067 219.349 213.997 219.672C213.928 219.995 213.893 220.34 213.893 220.708ZM225.551 222.624C225.551 222.445 225.506 222.283 225.417 222.139C225.327 221.99 225.156 221.856 224.902 221.737C224.654 221.617 224.286 221.508 223.799 221.409C223.372 221.314 222.979 221.202 222.621 221.073C222.269 220.939 221.965 220.778 221.712 220.589C221.459 220.4 221.262 220.176 221.123 219.918C220.984 219.66 220.914 219.361 220.914 219.023C220.914 218.696 220.987 218.385 221.131 218.092C221.275 217.799 221.481 217.54 221.749 217.317C222.018 217.093 222.343 216.917 222.726 216.787C223.113 216.658 223.546 216.594 224.023 216.594C224.698 216.594 225.277 216.708 225.759 216.936C226.246 217.16 226.619 217.466 226.877 217.853C227.136 218.236 227.265 218.668 227.265 219.15H225.469C225.469 218.937 225.414 218.738 225.305 218.554C225.2 218.365 225.041 218.214 224.828 218.099C224.614 217.98 224.346 217.92 224.023 217.92C223.715 217.92 223.459 217.97 223.255 218.069C223.056 218.164 222.907 218.288 222.808 218.442C222.713 218.596 222.666 218.765 222.666 218.949C222.666 219.083 222.691 219.205 222.741 219.314C222.795 219.419 222.885 219.515 223.009 219.605C223.133 219.689 223.302 219.769 223.516 219.843C223.734 219.918 224.008 219.99 224.336 220.06C224.952 220.189 225.481 220.355 225.923 220.559C226.371 220.758 226.713 221.016 226.952 221.334C227.191 221.647 227.31 222.045 227.31 222.527C227.31 222.885 227.233 223.213 227.079 223.511C226.93 223.804 226.711 224.06 226.423 224.278C226.135 224.492 225.789 224.659 225.387 224.778C224.989 224.897 224.542 224.957 224.045 224.957C223.315 224.957 222.696 224.827 222.189 224.569C221.682 224.306 221.297 223.97 221.034 223.563C220.775 223.15 220.646 222.723 220.646 222.281H222.383C222.403 222.614 222.495 222.88 222.659 223.078C222.828 223.272 223.036 223.414 223.285 223.503C223.538 223.588 223.799 223.63 224.067 223.63C224.39 223.63 224.661 223.588 224.88 223.503C225.099 223.414 225.265 223.295 225.379 223.145C225.494 222.991 225.551 222.817 225.551 222.624ZM228.957 223.913C228.957 223.635 229.051 223.401 229.24 223.213C229.429 223.019 229.685 222.922 230.008 222.922C230.336 222.922 230.592 223.019 230.776 223.213C230.965 223.401 231.059 223.635 231.059 223.913C231.059 224.191 230.965 224.425 230.776 224.614C230.592 224.803 230.336 224.897 230.008 224.897C229.685 224.897 229.429 224.803 229.24 224.614C229.051 224.425 228.957 224.191 228.957 223.913Z" fill="#595959"/>
</g>
<rect x="260.601" y="304.216" width="95.9534" height="52.3382" rx="8.72303" fill="#595959"/>
<path d="M290.45 332.178H292.579C292.511 332.99 292.284 333.714 291.898 334.35C291.512 334.981 290.969 335.478 290.271 335.841C289.572 336.204 288.723 336.386 287.724 336.386C286.957 336.386 286.267 336.25 285.654 335.977C285.04 335.699 284.515 335.307 284.078 334.802C283.641 334.291 283.305 333.674 283.073 332.953C282.845 332.232 282.732 331.426 282.732 330.534V329.503C282.732 328.612 282.848 327.805 283.081 327.084C283.32 326.363 283.66 325.746 284.103 325.235C284.546 324.719 285.077 324.324 285.696 324.051C286.321 323.779 287.022 323.642 287.8 323.642C288.789 323.642 289.623 323.824 290.305 324.188C290.986 324.551 291.515 325.054 291.889 325.695C292.27 326.337 292.503 327.073 292.588 327.902H290.458C290.401 327.368 290.276 326.911 290.083 326.53C289.896 326.15 289.618 325.86 289.249 325.661C288.879 325.457 288.397 325.355 287.8 325.355C287.312 325.355 286.886 325.445 286.523 325.627C286.159 325.809 285.855 326.076 285.611 326.428C285.367 326.78 285.182 327.215 285.057 327.731C284.938 328.242 284.879 328.827 284.879 329.486V330.534C284.879 331.159 284.933 331.727 285.04 332.238C285.154 332.743 285.324 333.178 285.552 333.541C285.784 333.904 286.08 334.186 286.437 334.384C286.795 334.583 287.224 334.682 287.724 334.682C288.331 334.682 288.823 334.586 289.197 334.393C289.578 334.2 289.865 333.919 290.058 333.55C290.257 333.175 290.387 332.718 290.45 332.178ZM299.513 334.367V329.972C299.513 329.642 299.454 329.358 299.335 329.12C299.215 328.881 299.034 328.697 298.789 328.566C298.551 328.436 298.25 328.37 297.886 328.37C297.551 328.37 297.262 328.427 297.018 328.541C296.773 328.654 296.583 328.807 296.447 329.001C296.31 329.194 296.242 329.412 296.242 329.657H294.198C294.198 329.293 294.286 328.941 294.462 328.6C294.638 328.259 294.894 327.956 295.229 327.689C295.564 327.422 295.964 327.212 296.43 327.058C296.895 326.905 297.418 326.828 297.997 326.828C298.69 326.828 299.303 326.945 299.837 327.178C300.377 327.41 300.8 327.763 301.106 328.234C301.419 328.7 301.575 329.285 301.575 329.989V334.086C301.575 334.506 301.603 334.884 301.66 335.219C301.723 335.549 301.811 335.835 301.924 336.08V336.216H299.82C299.724 335.994 299.647 335.713 299.59 335.372C299.539 335.026 299.513 334.691 299.513 334.367ZM299.812 330.611L299.829 331.88H298.355C297.974 331.88 297.639 331.917 297.35 331.991C297.06 332.059 296.819 332.161 296.626 332.297C296.433 332.434 296.288 332.598 296.191 332.791C296.095 332.984 296.046 333.203 296.046 333.447C296.046 333.691 296.103 333.916 296.217 334.12C296.33 334.319 296.495 334.475 296.711 334.589C296.932 334.702 297.199 334.759 297.512 334.759C297.932 334.759 298.298 334.674 298.611 334.504C298.929 334.328 299.178 334.115 299.36 333.865C299.542 333.609 299.638 333.368 299.65 333.141L300.314 334.052C300.246 334.285 300.13 334.535 299.965 334.802C299.8 335.069 299.584 335.324 299.318 335.568C299.056 335.807 298.741 336.003 298.372 336.156C298.009 336.31 297.588 336.386 297.111 336.386C296.509 336.386 295.973 336.267 295.501 336.028C295.03 335.784 294.661 335.458 294.394 335.049C294.127 334.634 293.993 334.166 293.993 333.643C293.993 333.155 294.084 332.723 294.266 332.348C294.453 331.968 294.726 331.65 295.084 331.394C295.447 331.139 295.89 330.946 296.413 330.815C296.935 330.679 297.531 330.611 298.202 330.611H299.812ZM305.758 328.967V336.216H303.705V326.999H305.638L305.758 328.967ZM305.391 331.267L304.727 331.258C304.733 330.605 304.823 330.006 304.999 329.461C305.181 328.915 305.431 328.447 305.749 328.055C306.073 327.663 306.459 327.362 306.908 327.152C307.356 326.936 307.856 326.828 308.407 326.828C308.85 326.828 309.25 326.891 309.608 327.016C309.971 327.135 310.281 327.331 310.537 327.604C310.798 327.876 310.997 328.231 311.133 328.668C311.269 329.1 311.337 329.631 311.337 330.261V336.216H309.276V330.253C309.276 329.81 309.21 329.461 309.08 329.205C308.955 328.944 308.77 328.759 308.526 328.651C308.288 328.538 307.989 328.481 307.632 328.481C307.28 328.481 306.964 328.555 306.686 328.702C306.408 328.85 306.172 329.052 305.979 329.307C305.792 329.563 305.647 329.858 305.545 330.193C305.442 330.528 305.391 330.886 305.391 331.267ZM317.198 334.751C317.533 334.751 317.834 334.685 318.101 334.555C318.374 334.418 318.592 334.231 318.757 333.992C318.927 333.754 319.021 333.479 319.038 333.166H320.972C320.96 333.762 320.784 334.305 320.444 334.793C320.103 335.282 319.651 335.671 319.089 335.96C318.527 336.244 317.905 336.386 317.224 336.386C316.519 336.386 315.906 336.267 315.384 336.028C314.861 335.784 314.427 335.449 314.08 335.023C313.734 334.597 313.473 334.106 313.297 333.55C313.126 332.993 313.041 332.397 313.041 331.761V331.462C313.041 330.826 313.126 330.23 313.297 329.674C313.473 329.111 313.734 328.617 314.08 328.191C314.427 327.765 314.861 327.433 315.384 327.195C315.906 326.95 316.517 326.828 317.215 326.828C317.953 326.828 318.601 326.976 319.157 327.271C319.714 327.561 320.151 327.967 320.469 328.489C320.793 329.006 320.96 329.608 320.972 330.295H319.038C319.021 329.955 318.936 329.648 318.783 329.375C318.635 329.097 318.425 328.876 318.152 328.711C317.885 328.546 317.564 328.464 317.19 328.464C316.775 328.464 316.431 328.549 316.159 328.719C315.886 328.884 315.673 329.111 315.52 329.401C315.367 329.685 315.256 330.006 315.188 330.364C315.125 330.716 315.094 331.082 315.094 331.462V331.761C315.094 332.141 315.125 332.51 315.188 332.868C315.25 333.226 315.358 333.547 315.511 333.831C315.67 334.109 315.886 334.333 316.159 334.504C316.431 334.668 316.778 334.751 317.198 334.751ZM326.611 336.386C325.93 336.386 325.313 336.275 324.763 336.054C324.217 335.827 323.752 335.512 323.366 335.108C322.985 334.705 322.693 334.231 322.488 333.686C322.284 333.141 322.181 332.553 322.181 331.922V331.582C322.181 330.86 322.287 330.207 322.497 329.622C322.707 329.037 322.999 328.538 323.374 328.123C323.749 327.703 324.192 327.382 324.703 327.161C325.214 326.939 325.768 326.828 326.364 326.828C327.023 326.828 327.599 326.939 328.093 327.161C328.587 327.382 328.996 327.694 329.32 328.098C329.649 328.495 329.894 328.969 330.053 329.52C330.217 330.071 330.3 330.679 330.3 331.343V332.221H323.178V330.747H328.272V330.585C328.261 330.216 328.187 329.869 328.051 329.546C327.92 329.222 327.719 328.961 327.446 328.762C327.173 328.563 326.81 328.464 326.356 328.464C326.015 328.464 325.711 328.538 325.444 328.685C325.183 328.827 324.964 329.035 324.788 329.307C324.612 329.58 324.476 329.909 324.379 330.295C324.288 330.676 324.243 331.105 324.243 331.582V331.922C324.243 332.326 324.297 332.7 324.405 333.047C324.518 333.388 324.683 333.686 324.899 333.941C325.115 334.197 325.376 334.399 325.683 334.546C325.989 334.688 326.339 334.759 326.73 334.759C327.224 334.759 327.665 334.66 328.051 334.461C328.437 334.262 328.772 333.981 329.056 333.618L330.138 334.665C329.939 334.955 329.681 335.233 329.363 335.5C329.045 335.761 328.656 335.974 328.196 336.139C327.741 336.304 327.213 336.386 326.611 336.386ZM334.099 323.131V336.216H332.037V323.131H334.099Z" fill="white"/>
</g>
<defs>
<filter id="filter0_d_61_27703" x="-13.0845" y="-13.0845" width="408.892" height="408.892" filterUnits="userSpaceOnUse" color-interpolation-filters="sRGB">
<feFlood flood-opacity="0" result="BackgroundImageFix"/>
<feColorMatrix in="SourceAlpha" type="matrix" values="0 0 0 0 0 0 0 0 0 0 0 0 0 0 0 0 0 0 127 0" result="hardAlpha"/>
<feOffset dx="4.36152" dy="4.36152"/>
<feGaussianBlur stdDeviation="8.72303"/>
<feComposite in2="hardAlpha" operator="out"/>
<feColorMatrix type="matrix" values="0 0 0 0 0.120833 0 0 0 0 0.120833 0 0 0 0 0.120833 0 0 0 0.08 0"/>
<feBlend mode="normal" in2="BackgroundImageFix" result="effect1_dropShadow_61_27703"/>
<feBlend mode="normal" in="SourceGraphic" in2="effect1_dropShadow_61_27703" result="shape"/>
</filter>
<clipPath id="clip0_61_27703">
<rect width="374" height="375" fill="white"/>
</clipPath>
</defs>
</svg>
