<svg width="800" height="800" viewBox="0 0 800 800" fill="none" xmlns="http://www.w3.org/2000/svg">
<rect width="800" height="800" fill="#1F1F1F"/>
<g filter="url(#filter0_d_55_26001)">
<rect x="100" y="126.221" width="600" height="547.558" rx="8" fill="white"/>
<path d="M411.628 185.523C409.884 185.523 408.721 186.686 408.721 188.43C408.721 190.174 410.175 191.337 411.628 191.337C413.082 191.337 414.535 190.174 414.535 188.43C414.535 186.686 413.372 185.523 411.628 185.523Z" fill="url(#paint0_linear_55_26001)"/>
<path d="M429.651 186.977L425.872 186.105C425.582 183.779 424.71 181.744 423.256 179.709C421.512 177.093 418.896 175.349 415.989 174.477C413.082 173.605 409.884 173.605 406.977 174.477C404.07 175.349 401.454 177.384 399.71 180L372.675 218.663C372.675 218.663 372.675 218.954 372.384 218.954L368.314 224.768C367.442 226.221 367.733 227.965 368.896 228.837C369.768 228.837 370.349 229.128 370.93 229.128C371.803 229.128 372.675 228.837 373.256 227.965L376.454 223.314H391.279V229.128C391.279 230.872 392.442 232.035 394.186 232.035C395.93 232.035 397.093 230.872 397.093 229.128V223.314H400C400.872 223.314 402.035 223.314 402.907 223.023V229.128C402.907 230.872 404.07 232.035 405.814 232.035C407.558 232.035 408.721 230.872 408.721 229.128V221.861C412.21 220.698 415.698 218.663 418.605 215.756C423.547 210.814 426.163 204.128 426.163 197.151V193.663L429.651 192.791C431.105 192.5 431.977 191.337 431.977 189.884C431.977 188.43 431.105 187.268 429.651 186.977ZM397.093 194.244C398.256 195.698 399.128 197.442 399.71 199.186C400.582 202.093 400.291 205 399.419 207.907C398.256 210.814 396.512 213.14 394.186 214.884C391.279 216.628 388.372 217.5 385.465 217.5H380.524L397.093 194.244ZM420.349 197.151C420.349 202.674 418.314 207.616 414.535 211.686C410.756 215.465 405.524 217.5 400 217.5H399.71C401.744 215.465 403.489 212.849 404.651 209.942C406.105 205.872 406.396 201.802 405.233 197.733C404.361 194.535 402.617 191.628 400.582 189.302L404.651 183.488C405.814 182.035 407.268 180.872 409.012 180.291C410.756 179.709 412.791 179.709 414.535 180.291C416.279 180.872 417.733 182.035 418.896 183.488C419.768 184.651 420.349 186.686 420.349 188.43V197.151Z" fill="url(#paint1_linear_55_26001)"/>
<path d="M205.447 288.961C205.447 288.532 205.38 288.149 205.247 287.811C205.125 287.464 204.895 287.152 204.557 286.876C204.23 286.59 203.765 286.314 203.162 286.049C202.57 285.773 201.803 285.486 200.863 285.19C199.821 284.863 198.85 284.495 197.95 284.086C197.051 283.678 196.259 283.202 195.574 282.661C194.9 282.119 194.373 281.496 193.995 280.79C193.617 280.075 193.428 279.247 193.428 278.307C193.428 277.387 193.622 276.549 194.011 275.793C194.409 275.037 194.971 274.388 195.697 273.846C196.422 273.294 197.276 272.87 198.257 272.574C199.248 272.277 200.342 272.129 201.537 272.129C203.193 272.129 204.624 272.431 205.83 273.034C207.046 273.637 207.986 274.454 208.651 275.486C209.315 276.519 209.647 277.679 209.647 278.966H205.447C205.447 278.271 205.298 277.658 205.002 277.127C204.716 276.595 204.276 276.176 203.684 275.87C203.101 275.563 202.365 275.41 201.476 275.41C200.618 275.41 199.902 275.537 199.33 275.793C198.768 276.048 198.344 276.396 198.058 276.835C197.782 277.275 197.644 277.765 197.644 278.307C197.644 278.716 197.741 279.084 197.935 279.411C198.129 279.728 198.42 280.029 198.809 280.315C199.197 280.591 199.677 280.852 200.25 281.097C200.832 281.332 201.507 281.567 202.273 281.802C203.5 282.17 204.573 282.579 205.493 283.029C206.423 283.478 207.194 283.989 207.807 284.562C208.431 285.134 208.896 285.778 209.202 286.493C209.519 287.209 209.678 288.021 209.678 288.931C209.678 289.891 209.489 290.75 209.11 291.506C208.732 292.262 208.191 292.906 207.485 293.438C206.78 293.969 205.932 294.373 204.941 294.649C203.96 294.924 202.861 295.062 201.645 295.062C200.562 295.062 199.488 294.919 198.426 294.633C197.373 294.337 196.417 293.897 195.559 293.315C194.7 292.722 194.016 291.976 193.505 291.077C192.994 290.167 192.738 289.104 192.738 287.888H196.969C196.969 288.593 197.082 289.196 197.306 289.697C197.542 290.188 197.869 290.591 198.288 290.908C198.717 291.215 199.218 291.44 199.79 291.583C200.362 291.726 200.981 291.797 201.645 291.797C202.503 291.797 203.208 291.68 203.76 291.445C204.322 291.199 204.741 290.862 205.017 290.433C205.304 290.004 205.447 289.513 205.447 288.961ZM220.627 278.169V281.082H211.122V278.169H220.627ZM213.667 274.091H217.729V289.973C217.729 290.464 217.796 290.842 217.929 291.107C218.062 291.373 218.261 291.552 218.527 291.644C218.792 291.736 219.109 291.782 219.477 291.782C219.743 291.782 219.988 291.767 220.213 291.736C220.438 291.705 220.627 291.675 220.78 291.644L220.795 294.679C220.458 294.792 220.075 294.884 219.646 294.955C219.227 295.027 218.751 295.062 218.22 295.062C217.31 295.062 216.513 294.909 215.829 294.603C215.144 294.286 214.612 293.78 214.234 293.085C213.856 292.38 213.667 291.45 213.667 290.295V274.091ZM232.618 291.23V283.58C232.618 283.018 232.521 282.533 232.327 282.124C232.133 281.715 231.836 281.399 231.438 281.174C231.039 280.949 230.533 280.836 229.92 280.836C229.379 280.836 228.903 280.928 228.495 281.112C228.096 281.296 227.789 281.557 227.575 281.894C227.36 282.221 227.253 282.599 227.253 283.029H223.19C223.19 282.344 223.354 281.695 223.681 281.082C224.008 280.458 224.473 279.906 225.076 279.426C225.689 278.936 226.42 278.552 227.268 278.276C228.127 278 229.087 277.862 230.15 277.862C231.407 277.862 232.526 278.077 233.507 278.506C234.499 278.925 235.275 279.559 235.838 280.407C236.41 281.255 236.696 282.323 236.696 283.611V290.847C236.696 291.675 236.747 292.385 236.849 292.978C236.962 293.56 237.125 294.066 237.34 294.495V294.756H233.216C233.022 294.337 232.874 293.805 232.772 293.162C232.669 292.507 232.618 291.864 232.618 291.23ZM233.185 284.654L233.216 287.06H230.656C230.022 287.06 229.465 287.127 228.985 287.26C228.505 287.382 228.111 287.566 227.805 287.811C227.498 288.047 227.268 288.333 227.115 288.67C226.962 288.997 226.885 289.37 226.885 289.789C226.885 290.198 226.977 290.566 227.161 290.893C227.355 291.22 227.631 291.48 227.989 291.675C228.357 291.859 228.786 291.951 229.276 291.951C229.992 291.951 230.615 291.807 231.147 291.521C231.678 291.225 232.092 290.867 232.388 290.448C232.685 290.029 232.843 289.631 232.864 289.252L234.029 291C233.886 291.419 233.671 291.864 233.385 292.334C233.099 292.804 232.731 293.243 232.281 293.652C231.831 294.061 231.29 294.398 230.656 294.664C230.022 294.93 229.287 295.062 228.449 295.062C227.376 295.062 226.415 294.848 225.567 294.419C224.718 293.989 224.049 293.402 223.558 292.656C223.068 291.91 222.823 291.061 222.823 290.111C222.823 289.232 222.986 288.455 223.313 287.781C223.64 287.106 224.126 286.539 224.769 286.079C225.413 285.609 226.21 285.257 227.161 285.021C228.122 284.776 229.22 284.654 230.457 284.654H233.185ZM245.116 292.916L249.561 278.169H253.9L247.247 297.27C247.093 297.679 246.894 298.123 246.649 298.604C246.414 299.084 246.097 299.539 245.698 299.968C245.3 300.407 244.799 300.765 244.196 301.041C243.603 301.317 242.883 301.455 242.034 301.455C241.667 301.455 241.339 301.429 241.053 301.378C240.767 301.327 240.466 301.261 240.149 301.179V298.144C240.251 298.154 240.369 298.159 240.501 298.159C240.645 298.169 240.767 298.174 240.869 298.174C241.462 298.174 241.953 298.103 242.341 297.96C242.729 297.827 243.041 297.607 243.276 297.301C243.521 297.004 243.726 296.616 243.889 296.136L245.116 292.916ZM242.924 278.169L246.679 290.387L247.339 294.664L244.549 295.17L238.555 278.169H242.924ZM270.8 291.874C271.373 291.874 271.884 291.761 272.333 291.537C272.783 291.312 273.141 290.995 273.406 290.586C273.682 290.177 273.831 289.702 273.851 289.16H277.668C277.648 290.285 277.331 291.291 276.718 292.18C276.105 293.07 275.287 293.775 274.265 294.296C273.253 294.807 272.119 295.062 270.862 295.062C269.584 295.062 268.47 294.848 267.52 294.419C266.569 293.989 265.777 293.392 265.144 292.625C264.52 291.859 264.05 290.969 263.733 289.958C263.427 288.946 263.274 287.863 263.274 286.708V286.217C263.274 285.062 263.427 283.979 263.733 282.967C264.05 281.956 264.52 281.066 265.144 280.3C265.777 279.533 266.569 278.936 267.52 278.506C268.47 278.077 269.579 277.862 270.846 277.862C272.185 277.862 273.36 278.123 274.372 278.644C275.394 279.165 276.191 279.901 276.764 280.852C277.346 281.802 277.648 282.921 277.668 284.209H273.851C273.831 283.616 273.698 283.085 273.452 282.615C273.207 282.145 272.86 281.766 272.41 281.48C271.96 281.194 271.414 281.051 270.77 281.051C270.085 281.051 269.513 281.194 269.053 281.48C268.603 281.766 268.251 282.16 267.995 282.661C267.75 283.151 267.576 283.703 267.474 284.316C267.382 284.919 267.336 285.553 267.336 286.217V286.708C267.336 287.382 267.382 288.026 267.474 288.639C267.576 289.252 267.75 289.804 267.995 290.295C268.251 290.775 268.603 291.158 269.053 291.445C269.513 291.731 270.095 291.874 270.8 291.874ZM279.803 286.631V286.309C279.803 285.093 279.976 283.974 280.324 282.952C280.671 281.92 281.177 281.026 281.842 280.269C282.506 279.513 283.318 278.925 284.279 278.506C285.24 278.077 286.333 277.862 287.56 277.862C288.806 277.862 289.91 278.077 290.871 278.506C291.842 278.925 292.659 279.513 293.324 280.269C293.988 281.026 294.494 281.92 294.841 282.952C295.189 283.974 295.362 285.093 295.362 286.309V286.631C295.362 287.837 295.189 288.956 294.841 289.988C294.494 291.01 293.988 291.905 293.324 292.671C292.659 293.427 291.847 294.015 290.886 294.434C289.925 294.853 288.827 295.062 287.59 295.062C286.364 295.062 285.265 294.853 284.294 294.434C283.323 294.015 282.506 293.427 281.842 292.671C281.177 291.905 280.671 291.01 280.324 289.988C279.976 288.956 279.803 287.837 279.803 286.631ZM283.85 286.309V286.631C283.85 287.357 283.921 288.036 284.064 288.67C284.207 289.304 284.427 289.861 284.724 290.341C285.02 290.821 285.403 291.199 285.873 291.475C286.354 291.741 286.926 291.874 287.59 291.874C288.244 291.874 288.806 291.741 289.276 291.475C289.747 291.199 290.13 290.821 290.426 290.341C290.733 289.861 290.958 289.304 291.101 288.67C291.244 288.036 291.315 287.357 291.315 286.631V286.309C291.315 285.594 291.244 284.924 291.101 284.301C290.958 283.667 290.733 283.11 290.426 282.63C290.13 282.139 289.741 281.756 289.261 281.48C288.791 281.194 288.224 281.051 287.56 281.051C286.905 281.051 286.343 281.194 285.873 281.48C285.403 281.756 285.02 282.139 284.724 282.63C284.427 283.11 284.207 283.667 284.064 284.301C283.921 284.924 283.85 285.594 283.85 286.309ZM302.433 281.71V294.756H298.386V278.169H302.188L302.433 281.71ZM301.789 285.865H300.594C300.604 284.659 300.767 283.565 301.084 282.584C301.401 281.603 301.845 280.76 302.418 280.055C303 279.349 303.69 278.808 304.487 278.43C305.284 278.052 306.174 277.862 307.155 277.862C307.952 277.862 308.672 277.975 309.316 278.2C309.96 278.425 310.512 278.782 310.972 279.273C311.442 279.763 311.8 280.407 312.045 281.204C312.3 281.991 312.428 282.962 312.428 284.117V294.756H308.35V284.086C308.35 283.33 308.238 282.732 308.013 282.293C307.798 281.853 307.482 281.542 307.063 281.358C306.654 281.174 306.148 281.082 305.545 281.082C304.922 281.082 304.375 281.209 303.905 281.465C303.445 281.71 303.056 282.053 302.74 282.492C302.433 282.932 302.198 283.437 302.035 284.01C301.871 284.582 301.789 285.2 301.789 285.865ZM320.127 281.71V294.756H316.08V278.169H319.882L320.127 281.71ZM319.483 285.865H318.288C318.298 284.659 318.461 283.565 318.778 282.584C319.095 281.603 319.54 280.76 320.112 280.055C320.694 279.349 321.384 278.808 322.181 278.43C322.979 278.052 323.868 277.862 324.849 277.862C325.646 277.862 326.367 277.975 327.01 278.2C327.654 278.425 328.206 278.782 328.666 279.273C329.136 279.763 329.494 280.407 329.739 281.204C329.995 281.991 330.122 282.962 330.122 284.117V294.756H326.045V284.086C326.045 283.33 325.932 282.732 325.707 282.293C325.493 281.853 325.176 281.542 324.757 281.358C324.348 281.174 323.842 281.082 323.239 281.082C322.616 281.082 322.069 281.209 321.599 281.465C321.139 281.71 320.751 282.053 320.434 282.492C320.127 282.932 319.892 283.437 319.729 284.01C319.565 284.582 319.483 285.2 319.483 285.865ZM341.301 295.062C340.044 295.062 338.915 294.858 337.913 294.449C336.912 294.04 336.059 293.473 335.353 292.748C334.658 292.012 334.122 291.158 333.744 290.188C333.376 289.206 333.192 288.154 333.192 287.03V286.416C333.192 285.139 333.376 283.979 333.744 282.937C334.112 281.884 334.633 280.98 335.307 280.223C335.982 279.467 336.789 278.884 337.73 278.476C338.67 278.067 339.707 277.862 340.841 277.862C342.017 277.862 343.054 278.062 343.953 278.46C344.853 278.849 345.604 279.401 346.207 280.116C346.81 280.831 347.265 281.69 347.571 282.691C347.878 283.683 348.031 284.781 348.031 285.987V287.689H335.031V284.899H344.045V284.592C344.025 283.948 343.902 283.361 343.677 282.829C343.453 282.288 343.105 281.858 342.635 281.542C342.165 281.215 341.557 281.051 340.811 281.051C340.208 281.051 339.682 281.184 339.232 281.45C338.792 281.705 338.424 282.073 338.128 282.553C337.842 283.023 337.627 283.586 337.484 284.24C337.341 284.894 337.27 285.619 337.27 286.416V287.03C337.27 287.725 337.362 288.368 337.546 288.961C337.74 289.554 338.021 290.07 338.389 290.51C338.767 290.939 339.217 291.276 339.738 291.521C340.269 291.756 340.872 291.874 341.547 291.874C342.395 291.874 343.161 291.71 343.846 291.383C344.541 291.046 345.144 290.55 345.655 289.896L347.694 292.012C347.346 292.523 346.876 293.013 346.284 293.483C345.701 293.954 344.996 294.337 344.168 294.633C343.34 294.919 342.385 295.062 341.301 295.062ZM357.708 291.874C358.28 291.874 358.791 291.761 359.241 291.537C359.691 291.312 360.048 290.995 360.314 290.586C360.59 290.177 360.738 289.702 360.759 289.16H364.576C364.555 290.285 364.238 291.291 363.625 292.18C363.012 293.07 362.194 293.775 361.172 294.296C360.161 294.807 359.026 295.062 357.769 295.062C356.492 295.062 355.378 294.848 354.427 294.419C353.477 293.989 352.685 293.392 352.051 292.625C351.428 291.859 350.958 290.969 350.641 289.958C350.334 288.946 350.181 287.863 350.181 286.708V286.217C350.181 285.062 350.334 283.979 350.641 282.967C350.958 281.956 351.428 281.066 352.051 280.3C352.685 279.533 353.477 278.936 354.427 278.506C355.378 278.077 356.487 277.862 357.754 277.862C359.093 277.862 360.268 278.123 361.28 278.644C362.302 279.165 363.099 279.901 363.671 280.852C364.254 281.802 364.555 282.921 364.576 284.209H360.759C360.738 283.616 360.605 283.085 360.36 282.615C360.115 282.145 359.767 281.766 359.318 281.48C358.868 281.194 358.321 281.051 357.677 281.051C356.992 281.051 356.42 281.194 355.96 281.48C355.511 281.766 355.158 282.16 354.903 282.661C354.657 283.151 354.484 283.703 354.381 284.316C354.289 284.919 354.243 285.553 354.243 286.217V286.708C354.243 287.382 354.289 288.026 354.381 288.639C354.484 289.252 354.657 289.804 354.903 290.295C355.158 290.775 355.511 291.158 355.96 291.445C356.42 291.731 357.003 291.874 357.708 291.874ZM375.279 278.169V281.082H365.775V278.169H375.279ZM368.32 274.091H372.382V289.973C372.382 290.464 372.449 290.842 372.581 291.107C372.714 291.373 372.914 291.552 373.179 291.644C373.445 291.736 373.762 291.782 374.13 291.782C374.395 291.782 374.641 291.767 374.866 291.736C375.09 291.705 375.279 291.675 375.433 291.644L375.448 294.679C375.111 294.792 374.728 294.884 374.298 294.955C373.879 295.027 373.404 295.062 372.873 295.062C371.963 295.062 371.166 294.909 370.481 294.603C369.797 294.286 369.265 293.78 368.887 293.085C368.509 292.38 368.32 291.45 368.32 290.295V274.091ZM385.585 295.062C384.328 295.062 383.198 294.858 382.197 294.449C381.195 294.04 380.342 293.473 379.637 292.748C378.942 292.012 378.405 291.158 378.027 290.188C377.659 289.206 377.475 288.154 377.475 287.03V286.416C377.475 285.139 377.659 283.979 378.027 282.937C378.395 281.884 378.916 280.98 379.591 280.223C380.265 279.467 381.073 278.884 382.013 278.476C382.953 278.067 383.99 277.862 385.125 277.862C386.3 277.862 387.337 278.062 388.237 278.46C389.136 278.849 389.887 279.401 390.49 280.116C391.093 280.831 391.548 281.69 391.855 282.691C392.161 283.683 392.315 284.781 392.315 285.987V287.689H379.315V284.899H388.329V284.592C388.308 283.948 388.186 283.361 387.961 282.829C387.736 282.288 387.389 281.858 386.918 281.542C386.448 281.215 385.84 281.051 385.094 281.051C384.491 281.051 383.965 281.184 383.515 281.45C383.076 281.705 382.708 282.073 382.411 282.553C382.125 283.023 381.911 283.586 381.768 284.24C381.625 284.894 381.553 285.619 381.553 286.416V287.03C381.553 287.725 381.645 288.368 381.829 288.961C382.023 289.554 382.304 290.07 382.672 290.51C383.05 290.939 383.5 291.276 384.021 291.521C384.553 291.756 385.156 291.874 385.83 291.874C386.678 291.874 387.445 291.71 388.129 291.383C388.824 291.046 389.427 290.55 389.938 289.896L391.977 292.012C391.63 292.523 391.16 293.013 390.567 293.483C389.984 293.954 389.279 294.337 388.451 294.633C387.624 294.919 386.668 295.062 385.585 295.062ZM405.134 291.23V271.209H409.212V294.756H405.532L405.134 291.23ZM394.48 286.662V286.34C394.48 285.073 394.623 283.923 394.909 282.891C395.205 281.848 395.635 280.954 396.197 280.208C396.759 279.462 397.438 278.884 398.235 278.476C399.043 278.067 399.958 277.862 400.979 277.862C401.971 277.862 402.834 278.062 403.57 278.46C404.316 278.859 404.95 279.426 405.471 280.162C406.003 280.898 406.427 281.772 406.743 282.783C407.06 283.785 407.29 284.889 407.433 286.095V286.968C407.29 288.144 407.06 289.222 406.743 290.203C406.427 291.184 406.003 292.042 405.471 292.778C404.95 293.504 404.316 294.066 403.57 294.465C402.824 294.863 401.95 295.062 400.949 295.062C399.937 295.062 399.027 294.853 398.22 294.434C397.423 294.015 396.743 293.427 396.181 292.671C395.629 291.915 395.205 291.026 394.909 290.004C394.623 288.982 394.48 287.868 394.48 286.662ZM398.542 286.34V286.662C398.542 287.377 398.603 288.047 398.726 288.67C398.849 289.293 399.048 289.845 399.324 290.326C399.6 290.796 399.952 291.164 400.382 291.429C400.821 291.695 401.353 291.828 401.976 291.828C402.773 291.828 403.427 291.654 403.938 291.307C404.459 290.949 404.863 290.464 405.149 289.85C405.435 289.227 405.619 288.527 405.701 287.75V285.343C405.66 284.73 405.553 284.163 405.379 283.642C405.216 283.121 404.981 282.671 404.674 282.293C404.378 281.915 404.01 281.618 403.57 281.404C403.131 281.189 402.61 281.082 402.007 281.082C401.383 281.082 400.852 281.22 400.412 281.496C399.973 281.761 399.615 282.134 399.339 282.615C399.063 283.095 398.859 283.652 398.726 284.286C398.603 284.919 398.542 285.604 398.542 286.34ZM428.856 278.169V281.082H419.352V278.169H428.856ZM421.897 274.091H425.959V289.973C425.959 290.464 426.025 290.842 426.158 291.107C426.291 291.373 426.49 291.552 426.756 291.644C427.022 291.736 427.339 291.782 427.707 291.782C427.972 291.782 428.218 291.767 428.442 291.736C428.667 291.705 428.856 291.675 429.01 291.644L429.025 294.679C428.688 294.792 428.304 294.884 427.875 294.955C427.456 295.027 426.981 295.062 426.45 295.062C425.54 295.062 424.743 294.909 424.058 294.603C423.373 294.286 422.842 293.78 422.464 293.085C422.086 292.38 421.897 291.45 421.897 290.295V274.091ZM430.592 286.631V286.309C430.592 285.093 430.766 283.974 431.114 282.952C431.461 281.92 431.967 281.026 432.631 280.269C433.295 279.513 434.108 278.925 435.069 278.506C436.029 278.077 437.123 277.862 438.349 277.862C439.596 277.862 440.7 278.077 441.66 278.506C442.631 278.925 443.449 279.513 444.113 280.269C444.777 281.026 445.283 281.92 445.631 282.952C445.978 283.974 446.152 285.093 446.152 286.309V286.631C446.152 287.837 445.978 288.956 445.631 289.988C445.283 291.01 444.777 291.905 444.113 292.671C443.449 293.427 442.636 294.015 441.676 294.434C440.715 294.853 439.616 295.062 438.38 295.062C437.153 295.062 436.055 294.853 435.084 294.434C434.113 294.015 433.295 293.427 432.631 292.671C431.967 291.905 431.461 291.01 431.114 289.988C430.766 288.956 430.592 287.837 430.592 286.631ZM434.639 286.309V286.631C434.639 287.357 434.711 288.036 434.854 288.67C434.997 289.304 435.217 289.861 435.513 290.341C435.81 290.821 436.193 291.199 436.663 291.475C437.143 291.741 437.716 291.874 438.38 291.874C439.034 291.874 439.596 291.741 440.066 291.475C440.536 291.199 440.919 290.821 441.216 290.341C441.522 289.861 441.747 289.304 441.89 288.67C442.033 288.036 442.105 287.357 442.105 286.631V286.309C442.105 285.594 442.033 284.924 441.89 284.301C441.747 283.667 441.522 283.11 441.216 282.63C440.919 282.139 440.531 281.756 440.051 281.48C439.581 281.194 439.013 281.051 438.349 281.051C437.695 281.051 437.133 281.194 436.663 281.48C436.193 281.756 435.81 282.139 435.513 282.63C435.217 283.11 434.997 283.667 434.854 284.301C434.711 284.924 434.639 285.594 434.639 286.309ZM462.087 292.916L466.533 278.169H470.871L464.218 297.27C464.065 297.679 463.865 298.123 463.62 298.604C463.385 299.084 463.068 299.539 462.67 299.968C462.271 300.407 461.77 300.765 461.167 301.041C460.574 301.317 459.854 301.455 459.006 301.455C458.638 301.455 458.311 301.429 458.025 301.378C457.738 301.327 457.437 301.261 457.12 301.179V298.144C457.222 298.154 457.34 298.159 457.473 298.159C457.616 298.169 457.738 298.174 457.841 298.174C458.433 298.174 458.924 298.103 459.312 297.96C459.701 297.827 460.012 297.607 460.247 297.301C460.493 297.004 460.697 296.616 460.861 296.136L462.087 292.916ZM459.895 278.169L463.651 290.387L464.31 294.664L461.52 295.17L455.526 278.169H459.895ZM472.024 286.631V286.309C472.024 285.093 472.198 283.974 472.546 282.952C472.893 281.92 473.399 281.026 474.063 280.269C474.727 279.513 475.54 278.925 476.501 278.506C477.461 278.077 478.555 277.862 479.781 277.862C481.028 277.862 482.132 278.077 483.092 278.506C484.063 278.925 484.881 279.513 485.545 280.269C486.209 281.026 486.715 281.92 487.063 282.952C487.41 283.974 487.584 285.093 487.584 286.309V286.631C487.584 287.837 487.41 288.956 487.063 289.988C486.715 291.01 486.209 291.905 485.545 292.671C484.881 293.427 484.068 294.015 483.108 294.434C482.147 294.853 481.048 295.062 479.812 295.062C478.585 295.062 477.487 294.853 476.516 294.434C475.545 294.015 474.727 293.427 474.063 292.671C473.399 291.905 472.893 291.01 472.546 289.988C472.198 288.956 472.024 287.837 472.024 286.631ZM476.071 286.309V286.631C476.071 287.357 476.143 288.036 476.286 288.67C476.429 289.304 476.649 289.861 476.945 290.341C477.242 290.821 477.625 291.199 478.095 291.475C478.575 291.741 479.148 291.874 479.812 291.874C480.466 291.874 481.028 291.741 481.498 291.475C481.968 291.199 482.351 290.821 482.648 290.341C482.954 289.861 483.179 289.304 483.322 288.67C483.465 288.036 483.537 287.357 483.537 286.631V286.309C483.537 285.594 483.465 284.924 483.322 284.301C483.179 283.667 482.954 283.11 482.648 282.63C482.351 282.139 481.963 281.756 481.483 281.48C481.013 281.194 480.445 281.051 479.781 281.051C479.127 281.051 478.565 281.194 478.095 281.48C477.625 281.756 477.242 282.139 476.945 282.63C476.649 283.11 476.429 283.667 476.286 284.301C476.143 284.924 476.071 285.594 476.071 286.309ZM500.557 290.816V278.169H504.634V294.756H500.802L500.557 290.816ZM501.078 287.382L502.335 287.352C502.335 288.466 502.212 289.493 501.967 290.433C501.722 291.373 501.339 292.191 500.817 292.886C500.306 293.57 499.657 294.107 498.87 294.495C498.084 294.873 497.154 295.062 496.08 295.062C495.263 295.062 494.517 294.95 493.842 294.725C493.168 294.49 492.585 294.127 492.095 293.637C491.614 293.136 491.241 292.497 490.976 291.721C490.71 290.934 490.577 289.988 490.577 288.885V278.169H494.624V288.915C494.624 289.467 494.685 289.927 494.808 290.295C494.941 290.663 495.12 290.964 495.345 291.199C495.58 291.424 495.85 291.588 496.157 291.69C496.474 291.782 496.811 291.828 497.169 291.828C498.15 291.828 498.922 291.634 499.484 291.245C500.056 290.847 500.465 290.315 500.71 289.651C500.955 288.977 501.078 288.22 501.078 287.382ZM512.426 281.557V294.756H508.379V278.169H512.211L512.426 281.557ZM517.469 278.062L517.408 281.833C517.183 281.792 516.927 281.761 516.641 281.741C516.365 281.72 516.105 281.71 515.859 281.71C515.236 281.71 514.689 281.797 514.219 281.971C513.749 282.134 513.356 282.375 513.039 282.691C512.732 283.008 512.497 283.397 512.334 283.856C512.17 284.306 512.078 284.817 512.058 285.389L511.184 285.282C511.184 284.229 511.291 283.253 511.506 282.354C511.72 281.455 512.032 280.668 512.441 279.993C512.85 279.319 513.361 278.798 513.974 278.43C514.597 278.052 515.313 277.862 516.12 277.862C516.345 277.862 516.585 277.883 516.841 277.924C517.106 277.954 517.316 278 517.469 278.062ZM538.371 278.169H542.05V294.25C542.05 295.752 541.723 297.025 541.069 298.067C540.425 299.12 539.521 299.917 538.356 300.459C537.191 301.01 535.836 301.286 534.293 301.286C533.629 301.286 532.908 301.194 532.132 301.01C531.365 300.826 530.624 300.535 529.909 300.137C529.204 299.748 528.616 299.242 528.146 298.619L529.97 296.228C530.522 296.871 531.146 297.357 531.84 297.684C532.535 298.021 533.287 298.19 534.094 298.19C534.912 298.19 535.606 298.036 536.179 297.73C536.761 297.433 537.206 296.994 537.512 296.411C537.829 295.839 537.988 295.134 537.988 294.296V281.956L538.371 278.169ZM527.165 286.662V286.34C527.165 285.073 527.318 283.923 527.625 282.891C527.931 281.848 528.371 280.954 528.943 280.208C529.526 279.462 530.226 278.884 531.043 278.476C531.871 278.067 532.801 277.862 533.833 277.862C534.927 277.862 535.847 278.062 536.593 278.46C537.349 278.859 537.972 279.426 538.463 280.162C538.964 280.898 539.352 281.772 539.628 282.783C539.914 283.785 540.134 284.889 540.287 286.095V286.968C540.144 288.144 539.914 289.222 539.597 290.203C539.291 291.184 538.882 292.042 538.371 292.778C537.86 293.504 537.226 294.066 536.47 294.465C535.714 294.863 534.825 295.062 533.803 295.062C532.781 295.062 531.861 294.853 531.043 294.434C530.226 294.015 529.526 293.427 528.943 292.671C528.371 291.915 527.931 291.026 527.625 290.004C527.318 288.982 527.165 287.868 527.165 286.662ZM531.212 286.34V286.662C531.212 287.377 531.283 288.047 531.427 288.67C531.57 289.293 531.789 289.845 532.086 290.326C532.382 290.796 532.755 291.164 533.205 291.429C533.654 291.695 534.191 291.828 534.814 291.828C535.652 291.828 536.337 291.654 536.869 291.307C537.41 290.949 537.819 290.464 538.095 289.85C538.381 289.227 538.565 288.527 538.647 287.75V285.343C538.596 284.73 538.483 284.163 538.31 283.642C538.146 283.121 537.916 282.671 537.62 282.293C537.323 281.915 536.945 281.618 536.485 281.404C536.025 281.189 535.479 281.082 534.845 281.082C534.232 281.082 533.695 281.22 533.235 281.496C532.776 281.761 532.397 282.134 532.101 282.615C531.805 283.095 531.58 283.652 531.427 284.286C531.283 284.919 531.212 285.604 531.212 286.34ZM549.903 281.557V294.756H545.856V278.169H549.688L549.903 281.557ZM554.946 278.062L554.885 281.833C554.66 281.792 554.404 281.761 554.118 281.741C553.842 281.72 553.582 281.71 553.336 281.71C552.713 281.71 552.166 281.797 551.696 281.971C551.226 282.134 550.833 282.375 550.516 282.691C550.209 283.008 549.974 283.397 549.811 283.856C549.647 284.306 549.555 284.817 549.535 285.389L548.661 285.282C548.661 284.229 548.768 283.253 548.983 282.354C549.197 281.455 549.509 280.668 549.918 279.993C550.327 279.319 550.838 278.798 551.451 278.43C552.074 278.052 552.79 277.862 553.597 277.862C553.822 277.862 554.062 277.883 554.318 277.924C554.583 277.954 554.793 278 554.946 278.062ZM556.176 286.631V286.309C556.176 285.093 556.35 283.974 556.697 282.952C557.045 281.92 557.551 281.026 558.215 280.269C558.879 279.513 559.692 278.925 560.652 278.506C561.613 278.077 562.707 277.862 563.933 277.862C565.18 277.862 566.284 278.077 567.244 278.506C568.215 278.925 569.033 279.513 569.697 280.269C570.361 281.026 570.867 281.92 571.215 282.952C571.562 283.974 571.736 285.093 571.736 286.309V286.631C571.736 287.837 571.562 288.956 571.215 289.988C570.867 291.01 570.361 291.905 569.697 292.671C569.033 293.427 568.22 294.015 567.26 294.434C566.299 294.853 565.2 295.062 563.964 295.062C562.737 295.062 561.639 294.853 560.668 294.434C559.697 294.015 558.879 293.427 558.215 292.671C557.551 291.905 557.045 291.01 556.697 289.988C556.35 288.956 556.176 287.837 556.176 286.631ZM560.223 286.309V286.631C560.223 287.357 560.295 288.036 560.438 288.67C560.581 289.304 560.801 289.861 561.097 290.341C561.393 290.821 561.777 291.199 562.247 291.475C562.727 291.741 563.299 291.874 563.964 291.874C564.618 291.874 565.18 291.741 565.65 291.475C566.12 291.199 566.503 290.821 566.8 290.341C567.106 289.861 567.331 289.304 567.474 288.67C567.617 288.036 567.689 287.357 567.689 286.631V286.309C567.689 285.594 567.617 284.924 567.474 284.301C567.331 283.667 567.106 283.11 566.8 282.63C566.503 282.139 566.115 281.756 565.635 281.48C565.164 281.194 564.597 281.051 563.933 281.051C563.279 281.051 562.717 281.194 562.247 281.48C561.777 281.756 561.393 282.139 561.097 282.63C560.801 283.11 560.581 283.667 560.438 284.301C560.295 284.924 560.223 285.594 560.223 286.309ZM584.709 290.816V278.169H588.786V294.756H584.954L584.709 290.816ZM585.23 287.382L586.487 287.352C586.487 288.466 586.364 289.493 586.119 290.433C585.874 291.373 585.49 292.191 584.969 292.886C584.458 293.57 583.809 294.107 583.022 294.495C582.235 294.873 581.305 295.062 580.232 295.062C579.415 295.062 578.669 294.95 577.994 294.725C577.32 294.49 576.737 294.127 576.246 293.637C575.766 293.136 575.393 292.497 575.127 291.721C574.862 290.934 574.729 289.988 574.729 288.885V278.169H578.776V288.915C578.776 289.467 578.837 289.927 578.96 290.295C579.093 290.663 579.272 290.964 579.496 291.199C579.731 291.424 580.002 291.588 580.309 291.69C580.626 291.782 580.963 291.828 581.321 291.828C582.302 291.828 583.073 291.634 583.635 291.245C584.208 290.847 584.617 290.315 584.862 289.651C585.107 288.977 585.23 288.22 585.23 287.382ZM596.577 281.358V301.133H592.515V278.169H596.271L596.577 281.358ZM607.232 286.294V286.616C607.232 287.822 607.089 288.941 606.802 289.973C606.526 290.995 606.118 291.889 605.576 292.656C605.034 293.412 604.36 294.005 603.552 294.434C602.755 294.853 601.836 295.062 600.793 295.062C599.771 295.062 598.882 294.868 598.126 294.48C597.369 294.081 596.731 293.519 596.209 292.794C595.688 292.068 595.269 291.225 594.952 290.264C594.646 289.293 594.416 288.236 594.263 287.091V286.064C594.416 284.848 594.646 283.744 594.952 282.753C595.269 281.751 595.688 280.888 596.209 280.162C596.731 279.426 597.364 278.859 598.11 278.46C598.867 278.062 599.751 277.862 600.762 277.862C601.815 277.862 602.74 278.062 603.537 278.46C604.344 278.859 605.024 279.431 605.576 280.177C606.128 280.923 606.542 281.812 606.818 282.845C607.094 283.877 607.232 285.027 607.232 286.294ZM603.169 286.616V286.294C603.169 285.558 603.103 284.878 602.97 284.255C602.837 283.621 602.633 283.069 602.357 282.599C602.081 282.119 601.723 281.746 601.284 281.48C600.844 281.215 600.313 281.082 599.689 281.082C599.066 281.082 598.529 281.184 598.08 281.388C597.63 281.593 597.262 281.884 596.976 282.262C596.69 282.64 596.465 283.09 596.301 283.611C596.148 284.122 596.046 284.689 595.995 285.313V287.857C596.087 288.614 596.266 289.293 596.531 289.896C596.797 290.499 597.185 290.98 597.696 291.337C598.218 291.695 598.892 291.874 599.72 291.874C600.343 291.874 600.875 291.736 601.314 291.46C601.754 291.184 602.111 290.806 602.387 290.326C602.663 289.835 602.863 289.273 602.985 288.639C603.108 288.006 603.169 287.331 603.169 286.616Z" fill="#333333"/>
<path d="M165.871 325.869L171.021 335.83L176.186 325.869H179.17L172.329 338.297V345.709H169.7V338.297L162.859 325.869H165.871ZM179.77 338.501V338.188C179.77 337.125 179.924 336.139 180.233 335.231C180.542 334.313 180.987 333.518 181.568 332.846C182.15 332.165 182.854 331.638 183.68 331.265C184.507 330.884 185.434 330.693 186.46 330.693C187.496 330.693 188.427 330.884 189.254 331.265C190.089 331.638 190.798 332.165 191.379 332.846C191.97 333.518 192.419 334.313 192.728 335.231C193.037 336.139 193.192 337.125 193.192 338.188V338.501C193.192 339.564 193.037 340.55 192.728 341.458C192.419 342.366 191.97 343.161 191.379 343.843C190.798 344.515 190.094 345.042 189.267 345.423C188.45 345.796 187.523 345.982 186.487 345.982C185.452 345.982 184.521 345.796 183.694 345.423C182.867 345.042 182.159 344.515 181.568 343.843C180.987 343.161 180.542 342.366 180.233 341.458C179.924 340.55 179.77 339.564 179.77 338.501ZM182.29 338.188V338.501C182.29 339.237 182.377 339.932 182.549 340.586C182.722 341.231 182.981 341.803 183.326 342.303C183.68 342.802 184.121 343.198 184.648 343.488C185.175 343.77 185.788 343.911 186.487 343.911C187.178 343.911 187.782 343.77 188.3 343.488C188.827 343.198 189.263 342.802 189.608 342.303C189.953 341.803 190.212 341.231 190.385 340.586C190.566 339.932 190.657 339.237 190.657 338.501V338.188C190.657 337.461 190.566 336.775 190.385 336.13C190.212 335.476 189.948 334.899 189.594 334.4C189.249 333.891 188.813 333.491 188.286 333.2C187.768 332.91 187.16 332.764 186.46 332.764C185.77 332.764 185.161 332.91 184.634 333.2C184.116 333.491 183.68 333.891 183.326 334.4C182.981 334.899 182.722 335.476 182.549 336.13C182.377 336.775 182.29 337.461 182.29 338.188ZM205.374 342.303V330.966H207.908V345.709H205.496L205.374 342.303ZM205.851 339.196L206.9 339.169C206.9 340.15 206.795 341.058 206.586 341.894C206.387 342.721 206.059 343.438 205.605 344.047C205.151 344.656 204.556 345.133 203.82 345.478C203.084 345.814 202.19 345.982 201.136 345.982C200.418 345.982 199.76 345.878 199.16 345.669C198.569 345.46 198.061 345.137 197.634 344.701C197.207 344.265 196.875 343.697 196.639 342.998C196.412 342.298 196.298 341.458 196.298 340.477V330.966H198.819V340.504C198.819 341.167 198.892 341.717 199.037 342.153C199.192 342.58 199.396 342.921 199.651 343.175C199.914 343.42 200.205 343.593 200.523 343.693C200.85 343.793 201.186 343.843 201.531 343.843C202.603 343.843 203.452 343.638 204.079 343.229C204.706 342.812 205.156 342.253 205.428 341.553C205.71 340.845 205.851 340.059 205.851 339.196ZM218.005 338.501V338.188C218.005 337.125 218.16 336.139 218.469 335.231C218.778 334.313 219.223 333.518 219.804 332.846C220.385 332.165 221.089 331.638 221.916 331.265C222.743 330.884 223.669 330.693 224.696 330.693C225.732 330.693 226.663 330.884 227.489 331.265C228.325 331.638 229.034 332.165 229.615 332.846C230.206 333.518 230.655 334.313 230.964 335.231C231.273 336.139 231.427 337.125 231.427 338.188V338.501C231.427 339.564 231.273 340.55 230.964 341.458C230.655 342.366 230.206 343.161 229.615 343.843C229.034 344.515 228.33 345.042 227.503 345.423C226.685 345.796 225.759 345.982 224.723 345.982C223.688 345.982 222.756 345.796 221.93 345.423C221.103 345.042 220.395 344.515 219.804 343.843C219.223 343.161 218.778 342.366 218.469 341.458C218.16 340.55 218.005 339.564 218.005 338.501ZM220.526 338.188V338.501C220.526 339.237 220.613 339.932 220.785 340.586C220.958 341.231 221.217 341.803 221.562 342.303C221.916 342.802 222.357 343.198 222.884 343.488C223.411 343.77 224.024 343.911 224.723 343.911C225.414 343.911 226.018 343.77 226.536 343.488C227.062 343.198 227.498 342.802 227.844 342.303C228.189 341.803 228.448 341.231 228.62 340.586C228.802 339.932 228.893 339.237 228.893 338.501V338.188C228.893 337.461 228.802 336.775 228.62 336.13C228.448 335.476 228.184 334.899 227.83 334.4C227.485 333.891 227.049 333.491 226.522 333.2C226.004 332.91 225.395 332.764 224.696 332.764C224.006 332.764 223.397 332.91 222.87 333.2C222.352 333.491 221.916 333.891 221.562 334.4C221.217 334.899 220.958 335.476 220.785 336.13C220.613 336.775 220.526 337.461 220.526 338.188ZM237.11 334.113V345.709H234.589V330.966H236.973L237.11 334.113ZM236.51 337.779L235.461 337.738C235.47 336.73 235.62 335.798 235.91 334.945C236.201 334.082 236.61 333.332 237.137 332.696C237.664 332.06 238.291 331.57 239.017 331.225C239.753 330.87 240.566 330.693 241.456 330.693C242.183 330.693 242.837 330.793 243.419 330.993C244 331.184 244.495 331.493 244.904 331.92C245.322 332.346 245.64 332.901 245.858 333.582C246.076 334.254 246.185 335.076 246.185 336.048V345.709H243.65V336.021C243.65 335.249 243.537 334.631 243.31 334.168C243.083 333.695 242.751 333.355 242.315 333.146C241.879 332.928 241.343 332.819 240.707 332.819C240.08 332.819 239.508 332.951 238.99 333.214C238.481 333.477 238.041 333.841 237.668 334.304C237.305 334.767 237.019 335.299 236.81 335.898C236.61 336.489 236.51 337.116 236.51 337.779ZM252.753 324.779V345.709H250.218V324.779H252.753ZM260.942 344.183L265.044 330.966H267.742L261.828 347.985C261.692 348.348 261.51 348.739 261.283 349.157C261.065 349.584 260.783 349.988 260.438 350.37C260.093 350.751 259.675 351.06 259.184 351.296C258.703 351.542 258.126 351.664 257.454 351.664C257.254 351.664 257 351.637 256.691 351.582C256.382 351.528 256.164 351.483 256.037 351.446L256.023 349.402C256.096 349.411 256.209 349.42 256.364 349.429C256.527 349.448 256.641 349.457 256.704 349.457C257.277 349.457 257.763 349.38 258.162 349.225C258.562 349.08 258.898 348.83 259.171 348.476C259.452 348.13 259.693 347.654 259.893 347.045L260.942 344.183ZM257.931 330.966L261.76 342.412L262.414 345.069L260.602 345.996L255.178 330.966H257.931ZM279.461 333.282V345.709H276.94V330.966H279.393L279.461 333.282ZM284.066 330.884L284.053 333.228C283.844 333.182 283.644 333.155 283.453 333.146C283.272 333.128 283.063 333.119 282.826 333.119C282.245 333.119 281.732 333.209 281.287 333.391C280.841 333.573 280.464 333.827 280.156 334.154C279.847 334.481 279.601 334.872 279.42 335.326C279.247 335.771 279.134 336.262 279.079 336.798L278.371 337.207C278.371 336.316 278.457 335.481 278.629 334.699C278.811 333.918 279.088 333.228 279.461 332.628C279.833 332.019 280.305 331.547 280.878 331.211C281.459 330.866 282.15 330.693 282.949 330.693C283.131 330.693 283.34 330.716 283.576 330.761C283.812 330.798 283.976 330.838 284.066 330.884ZM292.242 345.982C291.216 345.982 290.285 345.809 289.449 345.464C288.622 345.11 287.909 344.615 287.309 343.979C286.719 343.343 286.265 342.589 285.947 341.717C285.629 340.845 285.47 339.891 285.47 338.855V338.283C285.47 337.084 285.647 336.017 286.001 335.081C286.356 334.136 286.837 333.337 287.446 332.683C288.054 332.029 288.745 331.533 289.517 331.197C290.289 330.861 291.089 330.693 291.915 330.693C292.969 330.693 293.877 330.875 294.641 331.238C295.413 331.602 296.044 332.11 296.535 332.764C297.025 333.409 297.389 334.172 297.625 335.054C297.861 335.926 297.979 336.88 297.979 337.915V339.046H286.969V336.989H295.458V336.798C295.422 336.144 295.286 335.508 295.049 334.89C294.822 334.272 294.459 333.764 293.959 333.364C293.46 332.964 292.778 332.764 291.915 332.764C291.343 332.764 290.816 332.887 290.335 333.132C289.853 333.368 289.44 333.723 289.095 334.195C288.749 334.668 288.481 335.244 288.291 335.926C288.1 336.607 288.004 337.393 288.004 338.283V338.855C288.004 339.555 288.1 340.213 288.291 340.831C288.49 341.44 288.777 341.976 289.149 342.439C289.531 342.902 289.989 343.266 290.525 343.529C291.07 343.793 291.688 343.924 292.379 343.924C293.269 343.924 294.023 343.743 294.641 343.379C295.258 343.016 295.799 342.53 296.262 341.921L297.788 343.134C297.47 343.616 297.066 344.074 296.575 344.51C296.085 344.946 295.481 345.301 294.763 345.573C294.055 345.846 293.214 345.982 292.242 345.982ZM306.823 343.911C307.422 343.911 307.976 343.788 308.485 343.543C308.994 343.298 309.412 342.961 309.739 342.535C310.066 342.098 310.252 341.603 310.297 341.049H312.696C312.65 341.921 312.355 342.734 311.81 343.488C311.274 344.233 310.57 344.837 309.698 345.301C308.826 345.755 307.867 345.982 306.823 345.982C305.714 345.982 304.747 345.787 303.92 345.396C303.103 345.005 302.421 344.469 301.876 343.788C301.34 343.107 300.936 342.326 300.663 341.444C300.4 340.554 300.268 339.614 300.268 338.624V338.051C300.268 337.061 300.4 336.126 300.663 335.244C300.936 334.354 301.34 333.568 301.876 332.887C302.421 332.206 303.103 331.67 303.92 331.279C304.747 330.888 305.714 330.693 306.823 330.693C307.976 330.693 308.985 330.929 309.848 331.402C310.711 331.865 311.387 332.501 311.878 333.309C312.378 334.109 312.65 335.017 312.696 336.035H310.297C310.252 335.426 310.079 334.876 309.78 334.386C309.489 333.895 309.089 333.505 308.58 333.214C308.081 332.914 307.495 332.764 306.823 332.764C306.05 332.764 305.401 332.919 304.874 333.228C304.356 333.527 303.943 333.936 303.634 334.454C303.334 334.963 303.116 335.531 302.98 336.157C302.853 336.775 302.789 337.406 302.789 338.051V338.624C302.789 339.269 302.853 339.905 302.98 340.531C303.107 341.158 303.321 341.726 303.62 342.235C303.929 342.743 304.343 343.152 304.86 343.461C305.387 343.761 306.041 343.911 306.823 343.911ZM321.648 345.982C320.622 345.982 319.69 345.809 318.855 345.464C318.028 345.11 317.315 344.615 316.715 343.979C316.125 343.343 315.671 342.589 315.353 341.717C315.035 340.845 314.876 339.891 314.876 338.855V338.283C314.876 337.084 315.053 336.017 315.407 335.081C315.762 334.136 316.243 333.337 316.852 332.683C317.46 332.029 318.151 331.533 318.923 331.197C319.695 330.861 320.494 330.693 321.321 330.693C322.375 330.693 323.283 330.875 324.046 331.238C324.819 331.602 325.45 332.11 325.94 332.764C326.431 333.409 326.794 334.172 327.031 335.054C327.267 335.926 327.385 336.88 327.385 337.915V339.046H316.375V336.989H324.864V336.798C324.828 336.144 324.691 335.508 324.455 334.89C324.228 334.272 323.865 333.764 323.365 333.364C322.865 332.964 322.184 332.764 321.321 332.764C320.749 332.764 320.222 332.887 319.74 333.132C319.259 333.368 318.846 333.723 318.5 334.195C318.155 334.668 317.887 335.244 317.696 335.926C317.506 336.607 317.41 337.393 317.41 338.283V338.855C317.41 339.555 317.506 340.213 317.696 340.831C317.896 341.44 318.182 341.976 318.555 342.439C318.936 342.902 319.395 343.266 319.931 343.529C320.476 343.793 321.094 343.924 321.784 343.924C322.675 343.924 323.429 343.743 324.046 343.379C324.664 343.016 325.205 342.53 325.668 341.921L327.194 343.134C326.876 343.616 326.472 344.074 325.981 344.51C325.491 344.946 324.887 345.301 324.169 345.573C323.46 345.846 322.62 345.982 321.648 345.982ZM333.067 330.966V345.709H330.533V330.966H333.067ZM330.342 327.055C330.342 326.646 330.464 326.301 330.71 326.019C330.964 325.738 331.337 325.597 331.827 325.597C332.309 325.597 332.676 325.738 332.931 326.019C333.194 326.301 333.326 326.646 333.326 327.055C333.326 327.445 333.194 327.782 332.931 328.063C332.676 328.336 332.309 328.472 331.827 328.472C331.337 328.472 330.964 328.336 330.71 328.063C330.464 327.782 330.342 327.445 330.342 327.055ZM341.597 343.434L345.631 330.966H348.206L342.905 345.709H341.216L341.597 343.434ZM338.232 330.966L342.388 343.502L342.674 345.709H340.984L335.643 330.966H338.232ZM356.559 345.982C355.533 345.982 354.601 345.809 353.766 345.464C352.939 345.11 352.226 344.615 351.626 343.979C351.036 343.343 350.582 342.589 350.264 341.717C349.946 340.845 349.787 339.891 349.787 338.855V338.283C349.787 337.084 349.964 336.017 350.318 335.081C350.672 334.136 351.154 333.337 351.763 332.683C352.371 332.029 353.062 331.533 353.834 331.197C354.606 330.861 355.405 330.693 356.232 330.693C357.286 330.693 358.194 330.875 358.957 331.238C359.73 331.602 360.361 332.11 360.851 332.764C361.342 333.409 361.705 334.172 361.942 335.054C362.178 335.926 362.296 336.88 362.296 337.915V339.046H351.286V336.989H359.775V336.798C359.739 336.144 359.602 335.508 359.366 334.89C359.139 334.272 358.776 333.764 358.276 333.364C357.776 332.964 357.095 332.764 356.232 332.764C355.66 332.764 355.133 332.887 354.651 333.132C354.17 333.368 353.757 333.723 353.411 334.195C353.066 334.668 352.798 335.244 352.607 335.926C352.417 336.607 352.321 337.393 352.321 338.283V338.855C352.321 339.555 352.417 340.213 352.607 340.831C352.807 341.44 353.093 341.976 353.466 342.439C353.847 342.902 354.306 343.266 354.842 343.529C355.387 343.793 356.005 343.924 356.695 343.924C357.586 343.924 358.34 343.743 358.957 343.379C359.575 343.016 360.116 342.53 360.579 341.921L362.105 343.134C361.787 343.616 361.383 344.074 360.892 344.51C360.402 344.946 359.798 345.301 359.08 345.573C358.371 345.846 357.531 345.982 356.559 345.982ZM381.182 342.303V330.966H383.717V345.709H381.305L381.182 342.303ZM381.659 339.196L382.708 339.169C382.708 340.15 382.604 341.058 382.395 341.894C382.195 342.721 381.868 343.438 381.414 344.047C380.96 344.656 380.365 345.133 379.629 345.478C378.893 345.814 377.998 345.982 376.944 345.982C376.227 345.982 375.568 345.878 374.968 345.669C374.378 345.46 373.869 345.137 373.442 344.701C373.015 344.265 372.684 343.697 372.448 342.998C372.22 342.298 372.107 341.458 372.107 340.477V330.966H374.628V340.504C374.628 341.167 374.7 341.717 374.846 342.153C375 342.58 375.205 342.921 375.459 343.175C375.722 343.42 376.013 343.593 376.331 343.693C376.658 343.793 376.994 343.843 377.339 343.843C378.411 343.843 379.261 343.638 379.888 343.229C380.514 342.812 380.964 342.253 381.237 341.553C381.518 340.845 381.659 340.059 381.659 339.196ZM390.08 333.8V351.378H387.546V330.966H389.862L390.08 333.8ZM400.014 338.215V338.501C400.014 339.573 399.887 340.568 399.632 341.485C399.378 342.394 399.005 343.184 398.515 343.856C398.033 344.529 397.438 345.051 396.73 345.423C396.021 345.796 395.208 345.982 394.291 345.982C393.355 345.982 392.528 345.828 391.811 345.519C391.093 345.21 390.484 344.76 389.985 344.17C389.485 343.579 389.085 342.871 388.786 342.044C388.495 341.217 388.295 340.286 388.186 339.251V337.724C388.295 336.634 388.499 335.658 388.799 334.795C389.099 333.932 389.494 333.196 389.985 332.587C390.484 331.969 391.089 331.502 391.797 331.184C392.506 330.857 393.323 330.693 394.25 330.693C395.176 330.693 395.999 330.875 396.716 331.238C397.434 331.592 398.038 332.101 398.529 332.764C399.019 333.427 399.387 334.222 399.632 335.149C399.887 336.066 400.014 337.088 400.014 338.215ZM397.479 338.501V338.215C397.479 337.479 397.402 336.789 397.248 336.144C397.093 335.49 396.853 334.917 396.525 334.427C396.208 333.927 395.799 333.537 395.299 333.255C394.799 332.964 394.204 332.819 393.514 332.819C392.878 332.819 392.324 332.928 391.852 333.146C391.388 333.364 390.993 333.659 390.666 334.032C390.339 334.395 390.071 334.813 389.862 335.285C389.662 335.749 389.512 336.23 389.412 336.73V340.259C389.594 340.895 389.849 341.494 390.176 342.058C390.503 342.612 390.939 343.061 391.484 343.407C392.029 343.743 392.715 343.911 393.541 343.911C394.223 343.911 394.809 343.77 395.299 343.488C395.799 343.198 396.208 342.802 396.525 342.303C396.853 341.803 397.093 341.231 397.248 340.586C397.402 339.932 397.479 339.237 397.479 338.501ZM412.523 342.848V324.779H415.057V345.709H412.741L412.523 342.848ZM402.603 338.501V338.215C402.603 337.088 402.739 336.066 403.012 335.149C403.293 334.222 403.688 333.427 404.197 332.764C404.715 332.101 405.328 331.592 406.037 331.238C406.754 330.875 407.554 330.693 408.435 330.693C409.362 330.693 410.17 330.857 410.861 331.184C411.56 331.502 412.15 331.969 412.632 332.587C413.123 333.196 413.509 333.932 413.79 334.795C414.072 335.658 414.267 336.634 414.376 337.724V338.978C414.276 340.059 414.081 341.031 413.79 341.894C413.509 342.757 413.123 343.493 412.632 344.102C412.15 344.71 411.56 345.178 410.861 345.505C410.161 345.823 409.343 345.982 408.408 345.982C407.545 345.982 406.754 345.796 406.037 345.423C405.328 345.051 404.715 344.529 404.197 343.856C403.688 343.184 403.293 342.394 403.012 341.485C402.739 340.568 402.603 339.573 402.603 338.501ZM405.137 338.215V338.501C405.137 339.237 405.21 339.927 405.355 340.572C405.51 341.217 405.746 341.785 406.064 342.276C406.382 342.766 406.786 343.152 407.277 343.434C407.767 343.706 408.353 343.843 409.035 343.843C409.87 343.843 410.556 343.666 411.092 343.311C411.637 342.957 412.073 342.489 412.4 341.908C412.727 341.326 412.982 340.695 413.163 340.014V336.73C413.054 336.23 412.895 335.749 412.686 335.285C412.487 334.813 412.223 334.395 411.896 334.032C411.578 333.659 411.183 333.364 410.711 333.146C410.247 332.928 409.698 332.819 409.062 332.819C408.371 332.819 407.776 332.964 407.277 333.255C406.786 333.537 406.382 333.927 406.064 334.427C405.746 334.917 405.51 335.49 405.355 336.144C405.21 336.789 405.137 337.479 405.137 338.215ZM427.676 343.189V335.599C427.676 335.017 427.557 334.513 427.321 334.086C427.094 333.65 426.749 333.314 426.286 333.078C425.822 332.842 425.25 332.723 424.569 332.723C423.933 332.723 423.374 332.832 422.893 333.05C422.42 333.269 422.048 333.555 421.775 333.909C421.512 334.263 421.38 334.645 421.38 335.054H418.859C418.859 334.527 418.996 334.004 419.268 333.487C419.541 332.969 419.931 332.501 420.44 332.083C420.958 331.656 421.575 331.32 422.293 331.075C423.02 330.82 423.828 330.693 424.719 330.693C425.791 330.693 426.735 330.875 427.553 331.238C428.38 331.602 429.025 332.151 429.488 332.887C429.96 333.614 430.196 334.527 430.196 335.626V342.494C430.196 342.984 430.237 343.507 430.319 344.061C430.41 344.615 430.542 345.092 430.714 345.491V345.709H428.084C427.957 345.419 427.857 345.033 427.785 344.551C427.712 344.061 427.676 343.606 427.676 343.189ZM428.112 336.771L428.139 338.542H425.591C424.873 338.542 424.233 338.601 423.669 338.719C423.106 338.828 422.634 338.996 422.252 339.223C421.871 339.45 421.58 339.737 421.38 340.082C421.18 340.418 421.08 340.813 421.08 341.267C421.08 341.731 421.185 342.153 421.394 342.535C421.603 342.916 421.916 343.22 422.334 343.447C422.761 343.666 423.283 343.775 423.901 343.775C424.673 343.775 425.355 343.611 425.945 343.284C426.535 342.957 427.003 342.557 427.349 342.085C427.703 341.612 427.894 341.154 427.921 340.709L428.997 341.921C428.934 342.303 428.761 342.725 428.48 343.189C428.198 343.652 427.821 344.097 427.349 344.524C426.885 344.942 426.331 345.292 425.686 345.573C425.05 345.846 424.333 345.982 423.533 345.982C422.534 345.982 421.657 345.787 420.903 345.396C420.158 345.005 419.577 344.483 419.159 343.829C418.75 343.166 418.546 342.425 418.546 341.608C418.546 340.818 418.7 340.123 419.009 339.523C419.318 338.914 419.763 338.41 420.345 338.011C420.926 337.602 421.625 337.293 422.443 337.084C423.261 336.875 424.174 336.771 425.182 336.771H428.112ZM440.335 330.966V332.901H432.363V330.966H440.335ZM435.061 327.382H437.582V342.058C437.582 342.557 437.659 342.934 437.814 343.189C437.968 343.443 438.168 343.611 438.413 343.693C438.658 343.775 438.922 343.815 439.204 343.815C439.412 343.815 439.63 343.797 439.858 343.761C440.094 343.715 440.271 343.679 440.389 343.652L440.403 345.709C440.203 345.773 439.939 345.832 439.612 345.887C439.294 345.95 438.908 345.982 438.454 345.982C437.836 345.982 437.269 345.859 436.751 345.614C436.233 345.369 435.82 344.96 435.511 344.388C435.211 343.806 435.061 343.025 435.061 342.044V327.382ZM449.41 345.982C448.383 345.982 447.452 345.809 446.616 345.464C445.79 345.11 445.077 344.615 444.477 343.979C443.886 343.343 443.432 342.589 443.114 341.717C442.796 340.845 442.637 339.891 442.637 338.855V338.283C442.637 337.084 442.815 336.017 443.169 335.081C443.523 334.136 444.005 333.337 444.613 332.683C445.222 332.029 445.912 331.533 446.684 331.197C447.457 330.861 448.256 330.693 449.083 330.693C450.136 330.693 451.045 330.875 451.808 331.238C452.58 331.602 453.212 332.11 453.702 332.764C454.193 333.409 454.556 334.172 454.792 335.054C455.028 335.926 455.146 336.88 455.146 337.915V339.046H444.136V336.989H452.626V336.798C452.589 336.144 452.453 335.508 452.217 334.89C451.99 334.272 451.626 333.764 451.127 333.364C450.627 332.964 449.946 332.764 449.083 332.764C448.51 332.764 447.984 332.887 447.502 333.132C447.021 333.368 446.607 333.723 446.262 334.195C445.917 334.668 445.649 335.244 445.458 335.926C445.267 336.607 445.172 337.393 445.172 338.283V338.855C445.172 339.555 445.267 340.213 445.458 340.831C445.658 341.44 445.944 341.976 446.317 342.439C446.698 342.902 447.157 343.266 447.693 343.529C448.238 343.793 448.856 343.924 449.546 343.924C450.436 343.924 451.19 343.743 451.808 343.379C452.426 343.016 452.966 342.53 453.43 341.921L454.956 343.134C454.638 343.616 454.234 344.074 453.743 344.51C453.252 344.946 452.648 345.301 451.931 345.573C451.222 345.846 450.382 345.982 449.41 345.982ZM466.674 341.799C466.674 341.435 466.593 341.099 466.429 340.79C466.275 340.472 465.952 340.186 465.462 339.932C464.98 339.668 464.254 339.441 463.281 339.251C462.464 339.078 461.724 338.874 461.06 338.637C460.406 338.401 459.848 338.115 459.384 337.779C458.93 337.443 458.58 337.048 458.335 336.593C458.09 336.139 457.967 335.608 457.967 334.999C457.967 334.418 458.094 333.868 458.349 333.35C458.612 332.832 458.98 332.374 459.452 331.974C459.934 331.574 460.511 331.261 461.183 331.034C461.855 330.807 462.605 330.693 463.431 330.693C464.612 330.693 465.621 330.902 466.456 331.32C467.292 331.738 467.933 332.297 468.378 332.996C468.823 333.686 469.045 334.454 469.045 335.299H466.525C466.525 334.89 466.402 334.495 466.157 334.113C465.92 333.723 465.571 333.4 465.107 333.146C464.653 332.892 464.095 332.764 463.431 332.764C462.732 332.764 462.164 332.873 461.728 333.091C461.301 333.3 460.988 333.568 460.788 333.895C460.597 334.222 460.502 334.568 460.502 334.931C460.502 335.203 460.547 335.449 460.638 335.667C460.738 335.876 460.91 336.071 461.156 336.253C461.401 336.425 461.746 336.589 462.191 336.743C462.637 336.898 463.204 337.052 463.895 337.207C465.103 337.479 466.098 337.806 466.879 338.188C467.66 338.569 468.242 339.037 468.623 339.591C469.005 340.145 469.195 340.818 469.195 341.608C469.195 342.253 469.059 342.843 468.787 343.379C468.523 343.915 468.137 344.379 467.628 344.769C467.129 345.151 466.529 345.451 465.83 345.669C465.139 345.878 464.363 345.982 463.5 345.982C462.2 345.982 461.101 345.75 460.202 345.287C459.303 344.824 458.621 344.224 458.158 343.488C457.695 342.753 457.463 341.976 457.463 341.158H459.998C460.034 341.849 460.234 342.398 460.597 342.807C460.96 343.207 461.406 343.493 461.932 343.666C462.459 343.829 462.982 343.911 463.5 343.911C464.19 343.911 464.767 343.82 465.23 343.638C465.702 343.457 466.061 343.207 466.307 342.889C466.552 342.571 466.674 342.207 466.674 341.799ZM478.761 338.501V338.188C478.761 337.125 478.916 336.139 479.224 335.231C479.533 334.313 479.978 333.518 480.56 332.846C481.141 332.165 481.845 331.638 482.672 331.265C483.499 330.884 484.425 330.693 485.452 330.693C486.487 330.693 487.418 330.884 488.245 331.265C489.081 331.638 489.789 332.165 490.371 332.846C490.961 333.518 491.411 334.313 491.72 335.231C492.029 336.139 492.183 337.125 492.183 338.188V338.501C492.183 339.564 492.029 340.55 491.72 341.458C491.411 342.366 490.961 343.161 490.371 343.843C489.789 344.515 489.085 345.042 488.259 345.423C487.441 345.796 486.515 345.982 485.479 345.982C484.443 345.982 483.512 345.796 482.686 345.423C481.859 345.042 481.15 344.515 480.56 343.843C479.978 343.161 479.533 342.366 479.224 341.458C478.916 340.55 478.761 339.564 478.761 338.501ZM481.282 338.188V338.501C481.282 339.237 481.368 339.932 481.541 340.586C481.714 341.231 481.972 341.803 482.318 342.303C482.672 342.802 483.113 343.198 483.639 343.488C484.166 343.77 484.779 343.911 485.479 343.911C486.169 343.911 486.773 343.77 487.291 343.488C487.818 343.198 488.254 342.802 488.599 342.303C488.945 341.803 489.204 341.231 489.376 340.586C489.558 339.932 489.649 339.237 489.649 338.501V338.188C489.649 337.461 489.558 336.775 489.376 336.13C489.204 335.476 488.94 334.899 488.586 334.4C488.241 333.891 487.805 333.491 487.278 333.2C486.76 332.91 486.151 332.764 485.452 332.764C484.761 332.764 484.153 332.91 483.626 333.2C483.108 333.491 482.672 333.891 482.318 334.4C481.972 334.899 481.714 335.476 481.541 336.13C481.368 336.775 481.282 337.461 481.282 338.188ZM497.865 334.113V345.709H495.345V330.966H497.729L497.865 334.113ZM497.266 337.779L496.217 337.738C496.226 336.73 496.376 335.798 496.666 334.945C496.957 334.082 497.366 333.332 497.893 332.696C498.42 332.06 499.046 331.57 499.773 331.225C500.509 330.87 501.322 330.693 502.212 330.693C502.939 330.693 503.593 330.793 504.174 330.993C504.756 331.184 505.251 331.493 505.66 331.92C506.078 332.346 506.396 332.901 506.614 333.582C506.832 334.254 506.941 335.076 506.941 336.048V345.709H504.406V336.021C504.406 335.249 504.293 334.631 504.065 334.168C503.838 333.695 503.507 333.355 503.071 333.146C502.635 332.928 502.099 332.819 501.463 332.819C500.836 332.819 500.264 332.951 499.746 333.214C499.237 333.477 498.797 333.841 498.424 334.304C498.061 334.767 497.775 335.299 497.566 335.898C497.366 336.489 497.266 337.116 497.266 337.779ZM521.426 343.093L525.214 330.966H526.876L526.549 333.378L522.693 345.709H521.071L521.426 343.093ZM518.877 330.966L522.107 343.229L522.339 345.709H520.635L516.357 330.966H518.877ZM530.501 343.134L533.58 330.966H536.088L531.809 345.709H530.119L530.501 343.134ZM527.244 330.966L530.95 342.889L531.373 345.709H529.765L525.8 333.35L525.473 330.966H527.244ZM541.198 324.779V345.709H538.677V324.779H541.198ZM540.598 337.779L539.549 337.738C539.558 336.73 539.708 335.798 539.998 334.945C540.289 334.082 540.698 333.332 541.225 332.696C541.752 332.06 542.378 331.57 543.105 331.225C543.841 330.87 544.654 330.693 545.544 330.693C546.271 330.693 546.925 330.793 547.507 330.993C548.088 331.184 548.583 331.493 548.992 331.92C549.41 332.346 549.728 332.901 549.946 333.582C550.164 334.254 550.273 335.076 550.273 336.048V345.709H547.738V336.021C547.738 335.249 547.625 334.631 547.398 334.168C547.17 333.695 546.839 333.355 546.403 333.146C545.967 332.928 545.431 332.819 544.795 332.819C544.168 332.819 543.596 332.951 543.078 333.214C542.569 333.477 542.129 333.841 541.756 334.304C541.393 334.767 541.107 335.299 540.898 335.898C540.698 336.489 540.598 337.116 540.598 337.779ZM562.741 343.189V335.599C562.741 335.017 562.623 334.513 562.387 334.086C562.16 333.65 561.814 333.314 561.351 333.078C560.888 332.842 560.315 332.723 559.634 332.723C558.998 332.723 558.44 332.832 557.958 333.05C557.486 333.269 557.113 333.555 556.841 333.909C556.577 334.263 556.446 334.645 556.446 335.054H553.925C553.925 334.527 554.061 334.004 554.333 333.487C554.606 332.969 554.997 332.501 555.505 332.083C556.023 331.656 556.641 331.32 557.359 331.075C558.085 330.82 558.894 330.693 559.784 330.693C560.856 330.693 561.801 330.875 562.618 331.238C563.445 331.602 564.09 332.151 564.553 332.887C565.026 333.614 565.262 334.527 565.262 335.626V342.494C565.262 342.984 565.303 343.507 565.384 344.061C565.475 344.615 565.607 345.092 565.78 345.491V345.709H563.15C563.023 345.419 562.923 345.033 562.85 344.551C562.777 344.061 562.741 343.606 562.741 343.189ZM563.177 336.771L563.204 338.542H560.656C559.938 338.542 559.298 338.601 558.735 338.719C558.172 338.828 557.699 338.996 557.318 339.223C556.936 339.45 556.645 339.737 556.446 340.082C556.246 340.418 556.146 340.813 556.146 341.267C556.146 341.731 556.25 342.153 556.459 342.535C556.668 342.916 556.982 343.22 557.399 343.447C557.826 343.666 558.349 343.775 558.966 343.775C559.739 343.775 560.42 343.611 561.01 343.284C561.601 342.957 562.069 342.557 562.414 342.085C562.768 341.612 562.959 341.154 562.986 340.709L564.063 341.921C563.999 342.303 563.827 342.725 563.545 343.189C563.263 343.652 562.886 344.097 562.414 344.524C561.951 344.942 561.396 345.292 560.751 345.573C560.116 345.846 559.398 345.982 558.599 345.982C557.599 345.982 556.723 345.787 555.969 345.396C555.224 345.005 554.642 344.483 554.224 343.829C553.816 343.166 553.611 342.425 553.611 341.608C553.611 340.818 553.766 340.123 554.075 339.523C554.383 338.914 554.829 338.41 555.41 338.011C555.991 337.602 556.691 337.293 557.508 337.084C558.326 336.875 559.239 336.771 560.247 336.771H563.177ZM575.4 330.966V332.901H567.428V330.966H575.4ZM570.126 327.382H572.647V342.058C572.647 342.557 572.725 342.934 572.879 343.189C573.033 343.443 573.233 343.611 573.479 343.693C573.724 343.775 573.987 343.815 574.269 343.815C574.478 343.815 574.696 343.797 574.923 343.761C575.159 343.715 575.336 343.679 575.454 343.652L575.468 345.709C575.268 345.773 575.005 345.832 574.678 345.887C574.36 345.95 573.974 345.982 573.519 345.982C572.902 345.982 572.334 345.859 571.816 345.614C571.298 345.369 570.885 344.96 570.576 344.388C570.276 343.806 570.126 343.025 570.126 342.044V327.382ZM591.452 330.966V332.901H583.48V330.966H591.452ZM586.178 327.382H588.699V342.058C588.699 342.557 588.777 342.934 588.931 343.189C589.085 343.443 589.285 343.611 589.531 343.693C589.776 343.775 590.039 343.815 590.321 343.815C590.53 343.815 590.748 343.797 590.975 343.761C591.211 343.715 591.388 343.679 591.506 343.652L591.52 345.709C591.32 345.773 591.057 345.832 590.73 345.887C590.412 345.95 590.026 345.982 589.571 345.982C588.954 345.982 588.386 345.859 587.868 345.614C587.35 345.369 586.937 344.96 586.628 344.388C586.328 343.806 586.178 343.025 586.178 342.044V327.382ZM596.93 333.282V345.709H594.409V330.966H596.862L596.93 333.282ZM601.535 330.884L601.522 333.228C601.313 333.182 601.113 333.155 600.922 333.146C600.741 333.128 600.532 333.119 600.295 333.119C599.714 333.119 599.201 333.209 598.756 333.391C598.311 333.573 597.934 333.827 597.625 334.154C597.316 334.481 597.071 334.872 596.889 335.326C596.716 335.771 596.603 336.262 596.548 336.798L595.84 337.207C595.84 336.316 595.926 335.481 596.099 334.699C596.28 333.918 596.557 333.228 596.93 332.628C597.302 332.019 597.775 331.547 598.347 331.211C598.928 330.866 599.619 330.693 600.418 330.693C600.6 330.693 600.809 330.716 601.045 330.761C601.281 330.798 601.445 330.838 601.535 330.884ZM612.886 342.303V330.966H615.421V345.709H613.009L612.886 342.303ZM613.363 339.196L614.412 339.169C614.412 340.15 614.308 341.058 614.099 341.894C613.899 342.721 613.572 343.438 613.118 344.047C612.664 344.656 612.069 345.133 611.333 345.478C610.597 345.814 609.702 345.982 608.648 345.982C607.931 345.982 607.272 345.878 606.673 345.669C606.082 345.46 605.573 345.137 605.146 344.701C604.72 344.265 604.388 343.697 604.152 342.998C603.925 342.298 603.811 341.458 603.811 340.477V330.966H606.332V340.504C606.332 341.167 606.405 341.717 606.55 342.153C606.704 342.58 606.909 342.921 607.163 343.175C607.427 343.42 607.717 343.593 608.035 343.693C608.362 343.793 608.698 343.843 609.044 343.843C610.116 343.843 610.965 343.638 611.592 343.229C612.219 342.812 612.668 342.253 612.941 341.553C613.222 340.845 613.363 340.059 613.363 339.196ZM622.002 324.779V345.709H619.468V324.779H622.002ZM630.192 344.183L634.293 330.966H636.992L631.078 347.985C630.941 348.348 630.76 348.739 630.533 349.157C630.315 349.584 630.033 349.988 629.688 350.37C629.343 350.751 628.925 351.06 628.434 351.296C627.953 351.542 627.376 351.664 626.704 351.664C626.504 351.664 626.249 351.637 625.94 351.582C625.632 351.528 625.414 351.483 625.286 351.446L625.273 349.402C625.345 349.411 625.459 349.42 625.613 349.429C625.777 349.448 625.89 349.457 625.954 349.457C626.526 349.457 627.012 349.38 627.412 349.225C627.812 349.08 628.148 348.83 628.42 348.476C628.702 348.13 628.943 347.654 629.143 347.045L630.192 344.183ZM627.18 330.966L631.01 342.412L631.664 345.069L629.851 345.996L624.428 330.966H627.18ZM310.992 372.895V384.709H308.458V369.966H310.856L310.992 372.895ZM310.474 376.779L309.303 376.738C309.312 375.73 309.443 374.798 309.698 373.945C309.952 373.082 310.329 372.332 310.829 371.696C311.328 371.06 311.951 370.57 312.696 370.225C313.44 369.87 314.303 369.693 315.285 369.693C315.975 369.693 316.611 369.793 317.192 369.993C317.774 370.184 318.278 370.488 318.705 370.906C319.132 371.324 319.463 371.86 319.7 372.514C319.936 373.168 320.054 373.958 320.054 374.885V384.709H317.533V375.007C317.533 374.235 317.401 373.618 317.138 373.154C316.883 372.691 316.52 372.355 316.048 372.146C315.575 371.928 315.021 371.819 314.385 371.819C313.64 371.819 313.018 371.951 312.518 372.214C312.019 372.477 311.619 372.841 311.319 373.304C311.02 373.767 310.801 374.299 310.665 374.898C310.538 375.489 310.474 376.116 310.474 376.779ZM320.027 375.389L318.337 375.907C318.346 375.098 318.478 374.322 318.732 373.577C318.996 372.832 319.373 372.169 319.863 371.587C320.363 371.006 320.976 370.547 321.703 370.211C322.429 369.866 323.261 369.693 324.196 369.693C324.987 369.693 325.686 369.798 326.295 370.007C326.912 370.215 327.43 370.538 327.848 370.974C328.275 371.401 328.598 371.951 328.816 372.623C329.034 373.295 329.143 374.094 329.143 375.021V384.709H326.608V374.994C326.608 374.167 326.476 373.527 326.213 373.072C325.959 372.609 325.595 372.287 325.123 372.105C324.66 371.914 324.105 371.819 323.46 371.819C322.906 371.819 322.416 371.914 321.989 372.105C321.562 372.296 321.203 372.559 320.912 372.895C320.622 373.222 320.399 373.599 320.245 374.026C320.099 374.453 320.027 374.908 320.027 375.389ZM341.652 382.189V374.599C341.652 374.017 341.534 373.513 341.297 373.086C341.07 372.65 340.725 372.314 340.262 372.078C339.799 371.842 339.226 371.723 338.545 371.723C337.909 371.723 337.35 371.832 336.869 372.05C336.397 372.269 336.024 372.555 335.752 372.909C335.488 373.263 335.356 373.645 335.356 374.054H332.835C332.835 373.527 332.972 373.004 333.244 372.487C333.517 371.969 333.907 371.501 334.416 371.083C334.934 370.656 335.552 370.32 336.269 370.075C336.996 369.82 337.805 369.693 338.695 369.693C339.767 369.693 340.712 369.875 341.529 370.238C342.356 370.602 343.001 371.151 343.464 371.887C343.936 372.614 344.173 373.527 344.173 374.626V381.494C344.173 381.984 344.214 382.507 344.295 383.061C344.386 383.615 344.518 384.092 344.69 384.491V384.709H342.061C341.933 384.419 341.833 384.033 341.761 383.551C341.688 383.061 341.652 382.606 341.652 382.189ZM342.088 375.771L342.115 377.542H339.567C338.849 377.542 338.209 377.601 337.646 377.719C337.082 377.828 336.61 377.996 336.228 378.223C335.847 378.45 335.556 378.737 335.356 379.082C335.157 379.418 335.057 379.813 335.057 380.267C335.057 380.731 335.161 381.153 335.37 381.535C335.579 381.916 335.892 382.22 336.31 382.447C336.737 382.666 337.26 382.775 337.877 382.775C338.649 382.775 339.331 382.611 339.921 382.284C340.512 381.957 340.98 381.557 341.325 381.085C341.679 380.612 341.87 380.154 341.897 379.709L342.974 380.921C342.91 381.303 342.737 381.725 342.456 382.189C342.174 382.652 341.797 383.097 341.325 383.524C340.861 383.942 340.307 384.292 339.662 384.573C339.026 384.846 338.309 384.982 337.509 384.982C336.51 384.982 335.633 384.787 334.879 384.396C334.135 384.005 333.553 383.483 333.135 382.829C332.726 382.166 332.522 381.425 332.522 380.608C332.522 379.818 332.676 379.123 332.985 378.523C333.294 377.914 333.739 377.41 334.321 377.011C334.902 376.602 335.602 376.293 336.419 376.084C337.237 375.875 338.15 375.771 339.158 375.771H342.088ZM354.311 369.966V371.901H346.339V369.966H354.311ZM349.037 366.382H351.558V381.058C351.558 381.557 351.635 381.934 351.79 382.189C351.944 382.443 352.144 382.611 352.389 382.693C352.635 382.775 352.898 382.815 353.18 382.815C353.389 382.815 353.607 382.797 353.834 382.761C354.07 382.715 354.247 382.679 354.365 382.652L354.379 384.709C354.179 384.773 353.916 384.832 353.589 384.887C353.271 384.95 352.885 384.982 352.43 384.982C351.813 384.982 351.245 384.859 350.727 384.614C350.209 384.369 349.796 383.96 349.487 383.388C349.187 382.806 349.037 382.025 349.037 381.044V366.382ZM363.44 369.966V371.901H355.469V369.966H363.44ZM358.167 366.382H360.688V381.058C360.688 381.557 360.765 381.934 360.92 382.189C361.074 382.443 361.274 382.611 361.519 382.693C361.764 382.775 362.028 382.815 362.309 382.815C362.518 382.815 362.736 382.797 362.964 382.761C363.2 382.715 363.377 382.679 363.495 382.652L363.509 384.709C363.309 384.773 363.045 384.832 362.718 384.887C362.4 384.95 362.014 384.982 361.56 384.982C360.942 384.982 360.375 384.859 359.857 384.614C359.339 384.369 358.926 383.96 358.617 383.388C358.317 382.806 358.167 382.025 358.167 381.044V366.382ZM372.516 384.982C371.489 384.982 370.558 384.809 369.722 384.464C368.896 384.11 368.182 383.615 367.583 382.979C366.992 382.343 366.538 381.589 366.22 380.717C365.902 379.845 365.743 378.891 365.743 377.855V377.283C365.743 376.084 365.92 375.017 366.275 374.081C366.629 373.136 367.111 372.337 367.719 371.683C368.328 371.029 369.018 370.533 369.79 370.197C370.563 369.861 371.362 369.693 372.189 369.693C373.242 369.693 374.151 369.875 374.914 370.238C375.686 370.602 376.317 371.11 376.808 371.764C377.299 372.409 377.662 373.172 377.898 374.054C378.134 374.926 378.252 375.88 378.252 376.915V378.046H367.242V375.989H375.732V375.798C375.695 375.144 375.559 374.508 375.323 373.89C375.096 373.272 374.732 372.764 374.233 372.364C373.733 371.964 373.052 371.764 372.189 371.764C371.616 371.764 371.089 371.887 370.608 372.132C370.127 372.368 369.713 372.723 369.368 373.195C369.023 373.668 368.755 374.244 368.564 374.926C368.373 375.607 368.278 376.393 368.278 377.283V377.855C368.278 378.555 368.373 379.213 368.564 379.831C368.764 380.44 369.05 380.976 369.422 381.439C369.804 381.902 370.263 382.266 370.799 382.529C371.344 382.793 371.962 382.924 372.652 382.924C373.542 382.924 374.296 382.743 374.914 382.379C375.532 382.016 376.072 381.53 376.535 380.921L378.062 382.134C377.744 382.616 377.339 383.074 376.849 383.51C376.358 383.946 375.754 384.301 375.037 384.573C374.328 384.846 373.488 384.982 372.516 384.982ZM383.717 372.282V384.709H381.196V369.966H383.649L383.717 372.282ZM388.322 369.884L388.309 372.228C388.1 372.182 387.9 372.155 387.709 372.146C387.528 372.128 387.319 372.119 387.082 372.119C386.501 372.119 385.988 372.209 385.543 372.391C385.097 372.573 384.72 372.827 384.412 373.154C384.103 373.481 383.857 373.872 383.676 374.326C383.503 374.771 383.39 375.262 383.335 375.798L382.627 376.207C382.627 375.316 382.713 374.481 382.885 373.699C383.067 372.918 383.344 372.228 383.717 371.628C384.089 371.019 384.561 370.547 385.134 370.211C385.715 369.866 386.406 369.693 387.205 369.693C387.387 369.693 387.596 369.716 387.832 369.761C388.068 369.798 388.232 369.838 388.322 369.884ZM399.237 380.799C399.237 380.435 399.155 380.099 398.992 379.79C398.837 379.472 398.515 379.186 398.024 378.932C397.543 378.668 396.816 378.441 395.844 378.251C395.027 378.078 394.286 377.874 393.623 377.637C392.969 377.401 392.41 377.115 391.947 376.779C391.493 376.443 391.143 376.048 390.898 375.593C390.653 375.139 390.53 374.608 390.53 373.999C390.53 373.418 390.657 372.868 390.911 372.35C391.175 371.832 391.543 371.374 392.015 370.974C392.497 370.574 393.073 370.261 393.746 370.034C394.418 369.807 395.167 369.693 395.994 369.693C397.175 369.693 398.183 369.902 399.019 370.32C399.855 370.738 400.495 371.297 400.94 371.996C401.386 372.686 401.608 373.454 401.608 374.299H399.087C399.087 373.89 398.965 373.495 398.719 373.113C398.483 372.723 398.133 372.4 397.67 372.146C397.216 371.892 396.657 371.764 395.994 371.764C395.295 371.764 394.727 371.873 394.291 372.091C393.864 372.3 393.55 372.568 393.351 372.895C393.16 373.222 393.064 373.568 393.064 373.931C393.064 374.203 393.11 374.449 393.201 374.667C393.301 374.876 393.473 375.071 393.718 375.253C393.964 375.425 394.309 375.589 394.754 375.743C395.199 375.898 395.767 376.052 396.457 376.207C397.666 376.479 398.66 376.806 399.442 377.188C400.223 377.569 400.804 378.037 401.186 378.591C401.567 379.145 401.758 379.818 401.758 380.608C401.758 381.253 401.622 381.843 401.349 382.379C401.086 382.915 400.7 383.379 400.191 383.769C399.691 384.151 399.092 384.451 398.392 384.669C397.702 384.878 396.925 384.982 396.062 384.982C394.763 384.982 393.664 384.75 392.765 384.287C391.865 383.824 391.184 383.224 390.721 382.488C390.257 381.753 390.026 380.976 390.026 380.158H392.56C392.597 380.849 392.796 381.398 393.16 381.807C393.523 382.207 393.968 382.493 394.495 382.666C395.022 382.829 395.544 382.911 396.062 382.911C396.753 382.911 397.329 382.82 397.793 382.638C398.265 382.457 398.624 382.207 398.869 381.889C399.115 381.571 399.237 381.207 399.237 380.799ZM418.164 369.966V371.901H410.193V369.966H418.164ZM412.891 366.382H415.412V381.058C415.412 381.557 415.489 381.934 415.643 382.189C415.798 382.443 415.998 382.611 416.243 382.693C416.488 382.775 416.752 382.815 417.033 382.815C417.242 382.815 417.46 382.797 417.687 382.761C417.924 382.715 418.101 382.679 418.219 382.652L418.232 384.709C418.033 384.773 417.769 384.832 417.442 384.887C417.124 384.95 416.738 384.982 416.284 384.982C415.666 384.982 415.098 384.859 414.581 384.614C414.063 384.369 413.649 383.96 413.341 383.388C413.041 382.806 412.891 382.025 412.891 381.044V366.382ZM420.181 377.501V377.188C420.181 376.125 420.335 375.139 420.644 374.231C420.953 373.313 421.398 372.518 421.98 371.846C422.561 371.165 423.265 370.638 424.092 370.265C424.918 369.884 425.845 369.693 426.872 369.693C427.907 369.693 428.838 369.884 429.665 370.265C430.501 370.638 431.209 371.165 431.791 371.846C432.381 372.518 432.831 373.313 433.14 374.231C433.449 375.139 433.603 376.125 433.603 377.188V377.501C433.603 378.564 433.449 379.55 433.14 380.458C432.831 381.366 432.381 382.161 431.791 382.843C431.209 383.515 430.505 384.042 429.679 384.423C428.861 384.796 427.934 384.982 426.899 384.982C425.863 384.982 424.932 384.796 424.105 384.423C423.279 384.042 422.57 383.515 421.98 382.843C421.398 382.161 420.953 381.366 420.644 380.458C420.335 379.55 420.181 378.564 420.181 377.501ZM422.702 377.188V377.501C422.702 378.237 422.788 378.932 422.961 379.586C423.133 380.231 423.392 380.803 423.738 381.303C424.092 381.802 424.532 382.198 425.059 382.488C425.586 382.77 426.199 382.911 426.899 382.911C427.589 382.911 428.193 382.77 428.711 382.488C429.238 382.198 429.674 381.802 430.019 381.303C430.365 380.803 430.623 380.231 430.796 379.586C430.978 378.932 431.069 378.237 431.069 377.501V377.188C431.069 376.461 430.978 375.775 430.796 375.13C430.623 374.476 430.36 373.899 430.006 373.4C429.661 372.891 429.224 372.491 428.698 372.2C428.18 371.91 427.571 371.764 426.872 371.764C426.181 371.764 425.573 371.91 425.046 372.2C424.528 372.491 424.092 372.891 423.738 373.4C423.392 373.899 423.133 374.476 422.961 375.13C422.788 375.775 422.702 376.461 422.702 377.188ZM447.829 383.183L451.931 369.966H454.629L448.715 386.985C448.579 387.348 448.397 387.739 448.17 388.157C447.952 388.584 447.67 388.988 447.325 389.37C446.98 389.751 446.562 390.06 446.071 390.296C445.59 390.542 445.013 390.664 444.341 390.664C444.141 390.664 443.887 390.637 443.578 390.582C443.269 390.528 443.051 390.483 442.924 390.446L442.91 388.402C442.983 388.411 443.096 388.42 443.251 388.429C443.414 388.448 443.528 388.457 443.591 388.457C444.164 388.457 444.65 388.38 445.049 388.225C445.449 388.08 445.785 387.83 446.058 387.476C446.339 387.13 446.58 386.654 446.78 386.045L447.829 383.183ZM444.818 369.966L448.647 381.412L449.301 384.069L447.488 384.996L442.065 369.966H444.818ZM456.019 377.501V377.188C456.019 376.125 456.173 375.139 456.482 374.231C456.791 373.313 457.236 372.518 457.817 371.846C458.399 371.165 459.103 370.638 459.929 370.265C460.756 369.884 461.683 369.693 462.709 369.693C463.745 369.693 464.676 369.884 465.503 370.265C466.338 370.638 467.047 371.165 467.628 371.846C468.219 372.518 468.668 373.313 468.977 374.231C469.286 375.139 469.441 376.125 469.441 377.188V377.501C469.441 378.564 469.286 379.55 468.977 380.458C468.668 381.366 468.219 382.161 467.628 382.843C467.047 383.515 466.343 384.042 465.516 384.423C464.699 384.796 463.772 384.982 462.736 384.982C461.701 384.982 460.77 384.796 459.943 384.423C459.116 384.042 458.408 383.515 457.817 382.843C457.236 382.161 456.791 381.366 456.482 380.458C456.173 379.55 456.019 378.564 456.019 377.501ZM458.539 377.188V377.501C458.539 378.237 458.626 378.932 458.798 379.586C458.971 380.231 459.23 380.803 459.575 381.303C459.929 381.802 460.37 382.198 460.897 382.488C461.424 382.77 462.037 382.911 462.736 382.911C463.427 382.911 464.031 382.77 464.549 382.488C465.076 382.198 465.512 381.802 465.857 381.303C466.202 380.803 466.461 380.231 466.634 379.586C466.815 378.932 466.906 378.237 466.906 377.501V377.188C466.906 376.461 466.815 375.775 466.634 375.13C466.461 374.476 466.198 373.899 465.843 373.4C465.498 372.891 465.062 372.491 464.535 372.2C464.017 371.91 463.409 371.764 462.709 371.764C462.019 371.764 461.41 371.91 460.883 372.2C460.365 372.491 459.929 372.891 459.575 373.4C459.23 373.899 458.971 374.476 458.798 375.13C458.626 375.775 458.539 376.461 458.539 377.188ZM481.623 381.303V369.966H484.157V384.709H481.745L481.623 381.303ZM482.1 378.196L483.149 378.169C483.149 379.15 483.044 380.058 482.835 380.894C482.636 381.721 482.309 382.438 481.854 383.047C481.4 383.656 480.805 384.133 480.069 384.478C479.333 384.814 478.439 384.982 477.385 384.982C476.667 384.982 476.009 384.878 475.409 384.669C474.819 384.46 474.31 384.137 473.883 383.701C473.456 383.265 473.124 382.697 472.888 381.998C472.661 381.298 472.547 380.458 472.547 379.477V369.966H475.068V379.504C475.068 380.167 475.141 380.717 475.286 381.153C475.441 381.58 475.645 381.921 475.9 382.175C476.163 382.42 476.454 382.593 476.772 382.693C477.099 382.793 477.435 382.843 477.78 382.843C478.852 382.843 479.701 382.638 480.328 382.229C480.955 381.812 481.405 381.253 481.677 380.553C481.959 379.845 482.1 379.059 482.1 378.196ZM488.041 383.374C488.041 382.947 488.172 382.588 488.436 382.298C488.708 381.998 489.099 381.848 489.608 381.848C490.117 381.848 490.503 381.998 490.766 382.298C491.039 382.588 491.175 382.947 491.175 383.374C491.175 383.792 491.039 384.146 490.766 384.437C490.503 384.728 490.117 384.873 489.608 384.873C489.099 384.873 488.708 384.728 488.436 384.437C488.172 384.146 488.041 383.792 488.041 383.374Z" fill="#595959"/>
<rect x="127.907" y="422.617" width="544.186" height="97.6744" rx="13.9535" fill="#7237FF"/>
<path d="M277.283 460.939V480.779H273.89V460.939H277.283ZM283.51 460.939V463.664H267.717V460.939H283.51ZM293.525 477.305V466.035H296.823V480.779H293.716L293.525 477.305ZM293.989 474.239L295.093 474.211C295.093 475.202 294.984 476.115 294.765 476.95C294.547 477.777 294.211 478.499 293.757 479.117C293.303 479.726 292.722 480.202 292.013 480.548C291.304 480.884 290.455 481.052 289.465 481.052C288.747 481.052 288.089 480.947 287.489 480.738C286.889 480.529 286.372 480.207 285.936 479.771C285.509 479.335 285.177 478.767 284.941 478.068C284.705 477.368 284.587 476.532 284.587 475.56V466.035H287.871V475.588C287.871 476.124 287.934 476.573 288.061 476.937C288.188 477.291 288.361 477.577 288.579 477.795C288.797 478.013 289.051 478.168 289.342 478.258C289.633 478.349 289.942 478.395 290.269 478.395C291.204 478.395 291.94 478.213 292.476 477.85C293.021 477.477 293.407 476.978 293.634 476.351C293.871 475.724 293.989 475.02 293.989 474.239ZM303.486 468.843V480.779H300.202V466.035H303.337L303.486 468.843ZM307.997 465.94L307.97 468.992C307.77 468.956 307.552 468.929 307.315 468.911C307.088 468.892 306.861 468.883 306.634 468.883C306.071 468.883 305.576 468.965 305.149 469.129C304.722 469.283 304.363 469.51 304.072 469.81C303.791 470.101 303.573 470.455 303.418 470.873C303.264 471.291 303.173 471.759 303.146 472.276L302.396 472.331C302.396 471.404 302.487 470.546 302.669 469.755C302.851 468.965 303.123 468.27 303.486 467.671C303.859 467.071 304.322 466.603 304.876 466.267C305.44 465.931 306.089 465.763 306.825 465.763C307.025 465.763 307.238 465.781 307.465 465.817C307.702 465.854 307.879 465.895 307.997 465.94ZM313.311 469.183V480.779H310.027V466.035H313.12L313.311 469.183ZM312.725 472.862L311.662 472.849C311.671 471.804 311.817 470.846 312.098 469.974C312.389 469.101 312.789 468.352 313.297 467.725C313.815 467.098 314.433 466.617 315.151 466.281C315.868 465.936 316.668 465.763 317.549 465.763C318.257 465.763 318.898 465.863 319.47 466.063C320.052 466.253 320.547 466.567 320.956 467.003C321.373 467.439 321.691 468.007 321.909 468.706C322.127 469.397 322.236 470.246 322.236 471.254V480.779H318.939V471.241C318.939 470.532 318.834 469.974 318.625 469.565C318.426 469.147 318.13 468.852 317.74 468.679C317.358 468.497 316.881 468.406 316.309 468.406C315.746 468.406 315.242 468.525 314.796 468.761C314.351 468.997 313.974 469.319 313.665 469.728C313.366 470.137 313.134 470.609 312.97 471.145C312.807 471.681 312.725 472.254 312.725 472.862ZM348.685 470.314V471.404C348.685 472.903 348.49 474.248 348.099 475.438C347.709 476.628 347.15 477.641 346.423 478.476C345.706 479.312 344.843 479.953 343.834 480.398C342.826 480.834 341.709 481.052 340.482 481.052C339.265 481.052 338.152 480.834 337.144 480.398C336.144 479.953 335.277 479.312 334.541 478.476C333.805 477.641 333.233 476.628 332.824 475.438C332.424 474.248 332.225 472.903 332.225 471.404V470.314C332.225 468.815 332.424 467.475 332.824 466.294C333.224 465.104 333.787 464.091 334.514 463.256C335.25 462.411 336.117 461.77 337.116 461.334C338.125 460.889 339.238 460.667 340.455 460.667C341.681 460.667 342.799 460.889 343.807 461.334C344.815 461.77 345.683 462.411 346.41 463.256C347.136 464.091 347.695 465.104 348.086 466.294C348.485 467.475 348.685 468.815 348.685 470.314ZM345.265 471.404V470.287C345.265 469.179 345.156 468.202 344.938 467.357C344.729 466.503 344.416 465.79 343.998 465.218C343.589 464.636 343.085 464.2 342.485 463.91C341.886 463.61 341.209 463.46 340.455 463.46C339.701 463.46 339.029 463.61 338.438 463.91C337.848 464.2 337.344 464.636 336.926 465.218C336.517 465.79 336.204 466.503 335.986 467.357C335.767 468.202 335.658 469.179 335.658 470.287V471.404C335.658 472.513 335.767 473.494 335.986 474.348C336.204 475.202 336.521 475.924 336.939 476.514C337.366 477.096 337.875 477.536 338.466 477.836C339.056 478.127 339.728 478.272 340.482 478.272C341.245 478.272 341.922 478.127 342.513 477.836C343.103 477.536 343.603 477.096 344.011 476.514C344.42 475.924 344.729 475.202 344.938 474.348C345.156 473.494 345.265 472.513 345.265 471.404ZM355.035 469.183V480.779H351.751V466.035H354.845L355.035 469.183ZM354.449 472.862L353.386 472.849C353.396 471.804 353.541 470.846 353.823 469.974C354.113 469.101 354.513 468.352 355.022 467.725C355.539 467.098 356.157 466.617 356.875 466.281C357.593 465.936 358.392 465.763 359.273 465.763C359.982 465.763 360.622 465.863 361.194 466.063C361.776 466.253 362.271 466.567 362.68 467.003C363.098 467.439 363.416 468.007 363.634 468.706C363.852 469.397 363.961 470.246 363.961 471.254V480.779H360.663V471.241C360.663 470.532 360.559 469.974 360.35 469.565C360.15 469.147 359.855 468.852 359.464 468.679C359.082 468.497 358.605 468.406 358.033 468.406C357.47 468.406 356.966 468.525 356.521 468.761C356.075 468.997 355.698 469.319 355.39 469.728C355.09 470.137 354.858 470.609 354.695 471.145C354.531 471.681 354.449 472.254 354.449 472.862ZM390.328 460.939V480.779H386.908L378.009 466.567V480.779H374.589V460.939H378.009L386.935 475.179V460.939H390.328ZM393.448 473.571V473.257C393.448 472.195 393.603 471.209 393.912 470.301C394.22 469.383 394.666 468.588 395.247 467.916C395.837 467.235 396.555 466.708 397.4 466.335C398.254 465.954 399.217 465.763 400.289 465.763C401.37 465.763 402.333 465.954 403.178 466.335C404.031 466.708 404.754 467.235 405.344 467.916C405.935 468.588 406.384 469.383 406.693 470.301C407.002 471.209 407.156 472.195 407.156 473.257V473.571C407.156 474.634 407.002 475.619 406.693 476.528C406.384 477.436 405.935 478.231 405.344 478.912C404.754 479.585 404.036 480.112 403.191 480.493C402.346 480.866 401.388 481.052 400.316 481.052C399.235 481.052 398.267 480.866 397.414 480.493C396.569 480.112 395.851 479.585 395.261 478.912C394.67 478.231 394.22 477.436 393.912 476.528C393.603 475.619 393.448 474.634 393.448 473.571ZM396.732 473.257V473.571C396.732 474.234 396.8 474.861 396.937 475.451C397.073 476.042 397.286 476.56 397.577 477.005C397.868 477.45 398.24 477.8 398.694 478.054C399.149 478.308 399.689 478.436 400.316 478.436C400.925 478.436 401.452 478.308 401.897 478.054C402.351 477.8 402.723 477.45 403.014 477.005C403.305 476.56 403.518 476.042 403.654 475.451C403.8 474.861 403.873 474.234 403.873 473.571V473.257C403.873 472.603 403.8 471.986 403.654 471.404C403.518 470.814 403.3 470.291 403 469.837C402.71 469.383 402.337 469.029 401.883 468.774C401.438 468.511 400.906 468.379 400.289 468.379C399.671 468.379 399.135 468.511 398.681 468.774C398.236 469.029 397.868 469.383 397.577 469.837C397.286 470.291 397.073 470.814 396.937 471.404C396.8 471.986 396.732 472.603 396.732 473.257ZM416.668 466.035V468.434H408.356V466.035H416.668ZM410.754 462.424H414.038V476.705C414.038 477.159 414.101 477.509 414.229 477.754C414.365 477.99 414.551 478.149 414.787 478.231C415.023 478.313 415.301 478.354 415.618 478.354C415.846 478.354 416.064 478.34 416.273 478.313C416.482 478.286 416.65 478.258 416.777 478.231L416.79 480.738C416.518 480.82 416.2 480.893 415.837 480.956C415.482 481.02 415.073 481.052 414.61 481.052C413.856 481.052 413.188 480.92 412.607 480.657C412.026 480.384 411.571 479.944 411.244 479.335C410.917 478.726 410.754 477.918 410.754 476.909V462.424ZM422.718 466.035V480.779H419.42V466.035H422.718ZM419.202 462.166C419.202 461.666 419.366 461.253 419.693 460.926C420.029 460.589 420.492 460.421 421.083 460.421C421.664 460.421 422.123 460.589 422.459 460.926C422.795 461.253 422.963 461.666 422.963 462.166C422.963 462.656 422.795 463.065 422.459 463.392C422.123 463.719 421.664 463.882 421.083 463.882C420.492 463.882 420.029 463.719 419.693 463.392C419.366 463.065 419.202 462.656 419.202 462.166ZM430.539 480.779H427.242V465.082C427.242 463.892 427.478 462.888 427.95 462.07C428.432 461.253 429.118 460.63 430.008 460.203C430.907 459.776 431.975 459.563 433.21 459.563C433.937 459.563 434.636 459.64 435.309 459.795C435.99 459.949 436.694 460.144 437.421 460.38L436.917 463.051C436.453 462.897 435.94 462.752 435.377 462.615C434.814 462.47 434.164 462.397 433.428 462.397C432.438 462.397 431.707 462.624 431.234 463.079C430.771 463.524 430.539 464.191 430.539 465.082V480.779ZM433.496 466.035V468.434H424.98V466.035H433.496ZM438.974 466.035V480.779H435.69V466.035H438.974ZM448.663 478.436C449.199 478.436 449.68 478.331 450.107 478.122C450.543 477.904 450.893 477.604 451.156 477.223C451.429 476.841 451.579 476.401 451.606 475.901H454.699C454.681 476.855 454.399 477.722 453.854 478.504C453.309 479.285 452.587 479.907 451.688 480.371C450.788 480.825 449.794 481.052 448.704 481.052C447.577 481.052 446.596 480.861 445.76 480.48C444.924 480.089 444.23 479.553 443.675 478.872C443.121 478.19 442.703 477.404 442.422 476.514C442.149 475.624 442.013 474.67 442.013 473.653V473.176C442.013 472.158 442.149 471.204 442.422 470.314C442.703 469.415 443.121 468.625 443.675 467.943C444.23 467.262 444.924 466.73 445.76 466.349C446.596 465.958 447.573 465.763 448.69 465.763C449.871 465.763 450.906 465.999 451.797 466.472C452.687 466.935 453.386 467.584 453.895 468.42C454.413 469.247 454.681 470.21 454.699 471.309H451.606C451.579 470.764 451.442 470.273 451.197 469.837C450.961 469.392 450.625 469.038 450.189 468.774C449.762 468.511 449.249 468.379 448.649 468.379C447.986 468.379 447.436 468.515 447 468.788C446.564 469.051 446.224 469.415 445.978 469.878C445.733 470.332 445.556 470.846 445.447 471.418C445.347 471.981 445.297 472.567 445.297 473.176V473.653C445.297 474.261 445.347 474.852 445.447 475.424C445.547 475.996 445.719 476.51 445.965 476.964C446.219 477.409 446.564 477.768 447 478.04C447.436 478.304 447.99 478.436 448.663 478.436ZM465.532 477.822V470.791C465.532 470.264 465.437 469.81 465.246 469.428C465.055 469.047 464.765 468.752 464.374 468.543C463.992 468.334 463.511 468.229 462.93 468.229C462.394 468.229 461.93 468.32 461.54 468.502C461.149 468.684 460.845 468.929 460.627 469.238C460.409 469.547 460.3 469.896 460.3 470.287H457.029C457.029 469.706 457.17 469.142 457.452 468.597C457.733 468.052 458.142 467.566 458.678 467.139C459.214 466.712 459.855 466.376 460.599 466.131C461.344 465.886 462.18 465.763 463.107 465.763C464.215 465.763 465.196 465.949 466.05 466.322C466.913 466.694 467.59 467.257 468.08 468.011C468.58 468.756 468.83 469.692 468.83 470.818V477.373C468.83 478.045 468.875 478.649 468.966 479.185C469.066 479.712 469.207 480.171 469.388 480.561V480.779H466.023C465.868 480.425 465.746 479.975 465.655 479.43C465.573 478.876 465.532 478.34 465.532 477.822ZM466.009 471.813L466.036 473.843H463.679C463.07 473.843 462.534 473.902 462.071 474.021C461.608 474.13 461.222 474.293 460.913 474.511C460.604 474.729 460.372 474.993 460.218 475.301C460.063 475.61 459.986 475.96 459.986 476.351C459.986 476.741 460.077 477.1 460.259 477.427C460.44 477.745 460.704 477.995 461.049 478.177C461.403 478.358 461.83 478.449 462.33 478.449C463.002 478.449 463.588 478.313 464.088 478.04C464.597 477.759 464.996 477.418 465.287 477.018C465.578 476.61 465.732 476.224 465.75 475.86L466.813 477.318C466.704 477.691 466.518 478.09 466.254 478.517C465.991 478.944 465.646 479.353 465.219 479.744C464.801 480.125 464.297 480.439 463.706 480.684C463.125 480.929 462.453 481.052 461.69 481.052C460.727 481.052 459.868 480.861 459.114 480.48C458.36 480.089 457.77 479.567 457.343 478.912C456.916 478.249 456.702 477.5 456.702 476.664C456.702 475.883 456.848 475.192 457.138 474.593C457.438 473.984 457.874 473.476 458.446 473.067C459.028 472.658 459.736 472.349 460.572 472.14C461.408 471.922 462.362 471.813 463.434 471.813H466.009ZM479.022 466.035V468.434H470.71V466.035H479.022ZM473.108 462.424H476.392V476.705C476.392 477.159 476.456 477.509 476.583 477.754C476.72 477.99 476.906 478.149 477.142 478.231C477.378 478.313 477.655 478.354 477.973 478.354C478.2 478.354 478.418 478.34 478.627 478.313C478.836 478.286 479.004 478.258 479.131 478.231L479.145 480.738C478.872 480.82 478.555 480.893 478.191 480.956C477.837 481.02 477.428 481.052 476.965 481.052C476.211 481.052 475.543 480.92 474.962 480.657C474.38 480.384 473.926 479.944 473.599 479.335C473.272 478.726 473.108 477.918 473.108 476.909V462.424ZM485.073 466.035V480.779H481.775V466.035H485.073ZM481.557 462.166C481.557 461.666 481.72 461.253 482.047 460.926C482.384 460.589 482.847 460.421 483.437 460.421C484.019 460.421 484.478 460.589 484.814 460.926C485.15 461.253 485.318 461.666 485.318 462.166C485.318 462.656 485.15 463.065 484.814 463.392C484.478 463.719 484.019 463.882 483.437 463.882C482.847 463.882 482.384 463.719 482.047 463.392C481.72 463.065 481.557 462.656 481.557 462.166ZM488.043 473.571V473.257C488.043 472.195 488.198 471.209 488.506 470.301C488.815 469.383 489.26 468.588 489.842 467.916C490.432 467.235 491.15 466.708 491.995 466.335C492.849 465.954 493.812 465.763 494.884 465.763C495.965 465.763 496.928 465.954 497.772 466.335C498.626 466.708 499.349 467.235 499.939 467.916C500.529 468.588 500.979 469.383 501.288 470.301C501.597 471.209 501.751 472.195 501.751 473.257V473.571C501.751 474.634 501.597 475.619 501.288 476.528C500.979 477.436 500.529 478.231 499.939 478.912C499.349 479.585 498.631 480.112 497.786 480.493C496.941 480.866 495.983 481.052 494.911 481.052C493.83 481.052 492.862 480.866 492.008 480.493C491.164 480.112 490.446 479.585 489.855 478.912C489.265 478.231 488.815 477.436 488.506 476.528C488.198 475.619 488.043 474.634 488.043 473.571ZM491.327 473.257V473.571C491.327 474.234 491.395 474.861 491.531 475.451C491.668 476.042 491.881 476.56 492.172 477.005C492.463 477.45 492.835 477.8 493.289 478.054C493.743 478.308 494.284 478.436 494.911 478.436C495.519 478.436 496.046 478.308 496.491 478.054C496.946 477.8 497.318 477.45 497.609 477.005C497.9 476.56 498.113 476.042 498.249 475.451C498.395 474.861 498.467 474.234 498.467 473.571V473.257C498.467 472.603 498.395 471.986 498.249 471.404C498.113 470.814 497.895 470.291 497.595 469.837C497.305 469.383 496.932 469.029 496.478 468.774C496.033 468.511 495.501 468.379 494.884 468.379C494.266 468.379 493.73 468.511 493.276 468.774C492.831 469.029 492.463 469.383 492.172 469.837C491.881 470.291 491.668 470.814 491.531 471.404C491.395 471.986 491.327 472.603 491.327 473.257ZM507.761 469.183V480.779H504.477V466.035H507.57L507.761 469.183ZM507.175 472.862L506.112 472.849C506.121 471.804 506.266 470.846 506.548 469.974C506.838 469.101 507.238 468.352 507.747 467.725C508.265 467.098 508.882 466.617 509.6 466.281C510.318 465.936 511.117 465.763 511.998 465.763C512.707 465.763 513.347 465.863 513.92 466.063C514.501 466.253 514.996 466.567 515.405 467.003C515.823 467.439 516.141 468.007 516.359 468.706C516.577 469.397 516.686 470.246 516.686 471.254V480.779H513.388V471.241C513.388 470.532 513.284 469.974 513.075 469.565C512.875 469.147 512.58 468.852 512.189 468.679C511.808 468.497 511.331 468.406 510.758 468.406C510.195 468.406 509.691 468.525 509.246 468.761C508.801 468.997 508.424 469.319 508.115 469.728C507.815 470.137 507.583 470.609 507.42 471.145C507.256 471.681 507.175 472.254 507.175 472.862ZM528.309 476.787C528.309 476.46 528.228 476.164 528.064 475.901C527.9 475.628 527.587 475.383 527.124 475.165C526.67 474.947 525.997 474.747 525.107 474.566C524.326 474.393 523.608 474.189 522.954 473.952C522.309 473.707 521.755 473.412 521.292 473.067C520.828 472.722 520.47 472.313 520.215 471.84C519.961 471.368 519.834 470.823 519.834 470.205C519.834 469.606 519.965 469.038 520.229 468.502C520.492 467.966 520.869 467.494 521.36 467.085C521.85 466.676 522.445 466.353 523.145 466.117C523.853 465.881 524.644 465.763 525.516 465.763C526.751 465.763 527.81 465.972 528.691 466.39C529.581 466.799 530.262 467.357 530.735 468.066C531.207 468.765 531.443 469.556 531.443 470.437H528.159C528.159 470.046 528.059 469.683 527.86 469.347C527.669 469.001 527.378 468.724 526.987 468.515C526.597 468.297 526.106 468.188 525.516 468.188C524.953 468.188 524.485 468.279 524.112 468.461C523.749 468.634 523.476 468.861 523.295 469.142C523.122 469.424 523.036 469.733 523.036 470.069C523.036 470.314 523.081 470.537 523.172 470.737C523.272 470.927 523.436 471.105 523.663 471.268C523.89 471.422 524.199 471.568 524.589 471.704C524.989 471.84 525.489 471.972 526.088 472.099C527.215 472.335 528.182 472.64 528.991 473.012C529.808 473.376 530.435 473.848 530.871 474.429C531.307 475.002 531.525 475.728 531.525 476.61C531.525 477.264 531.384 477.863 531.103 478.408C530.83 478.944 530.43 479.412 529.904 479.812C529.377 480.202 528.745 480.507 528.009 480.725C527.283 480.943 526.465 481.052 525.557 481.052C524.221 481.052 523.09 480.816 522.164 480.343C521.237 479.862 520.533 479.249 520.052 478.504C519.579 477.75 519.343 476.968 519.343 476.16H522.518C522.554 476.769 522.722 477.255 523.022 477.618C523.331 477.972 523.713 478.231 524.167 478.395C524.63 478.549 525.107 478.626 525.598 478.626C526.188 478.626 526.683 478.549 527.083 478.395C527.483 478.231 527.787 478.013 527.996 477.741C528.205 477.459 528.309 477.141 528.309 476.787Z" fill="white"/>
<rect x="128.779" y="535.117" width="542.442" height="95.9302" rx="13.0814" stroke="#7237FF" stroke-width="1.74419"/>
<path d="M385.325 587.135C385.325 586.726 385.261 586.363 385.134 586.045C385.016 585.727 384.802 585.436 384.493 585.173C384.184 584.909 383.748 584.655 383.185 584.409C382.631 584.155 381.922 583.896 381.059 583.633C380.115 583.342 379.243 583.02 378.443 582.665C377.653 582.302 376.962 581.884 376.372 581.412C375.781 580.93 375.323 580.381 374.996 579.763C374.669 579.136 374.505 578.414 374.505 577.596C374.505 576.788 374.673 576.052 375.009 575.389C375.355 574.726 375.841 574.153 376.467 573.672C377.103 573.181 377.853 572.804 378.716 572.541C379.579 572.268 380.533 572.132 381.577 572.132C383.049 572.132 384.316 572.405 385.379 572.95C386.451 573.495 387.273 574.226 387.845 575.143C388.427 576.061 388.718 577.074 388.718 578.182H385.325C385.325 577.528 385.184 576.951 384.902 576.452C384.63 575.943 384.212 575.543 383.649 575.252C383.094 574.962 382.39 574.816 381.536 574.816C380.728 574.816 380.056 574.939 379.52 575.184C378.984 575.43 378.584 575.761 378.321 576.179C378.057 576.597 377.925 577.069 377.925 577.596C377.925 577.969 378.012 578.309 378.184 578.618C378.357 578.918 378.62 579.2 378.975 579.463C379.329 579.717 379.774 579.958 380.31 580.185C380.846 580.412 381.477 580.63 382.204 580.839C383.303 581.166 384.262 581.53 385.079 581.929C385.897 582.32 386.578 582.765 387.123 583.265C387.668 583.764 388.077 584.332 388.35 584.968C388.622 585.595 388.758 586.308 388.758 587.107C388.758 587.943 388.59 588.697 388.254 589.369C387.918 590.033 387.437 590.6 386.81 591.073C386.192 591.536 385.447 591.895 384.575 592.149C383.712 592.395 382.749 592.517 381.686 592.517C380.732 592.517 379.792 592.39 378.866 592.136C377.948 591.881 377.112 591.495 376.358 590.977C375.604 590.45 375.005 589.796 374.56 589.015C374.115 588.225 373.892 587.303 373.892 586.249H377.312C377.312 586.894 377.421 587.444 377.639 587.898C377.866 588.352 378.18 588.724 378.579 589.015C378.979 589.297 379.442 589.506 379.969 589.642C380.505 589.778 381.078 589.846 381.686 589.846C382.486 589.846 383.153 589.733 383.689 589.506C384.234 589.279 384.643 588.961 384.916 588.552C385.188 588.143 385.325 587.671 385.325 587.135ZM394.768 571.314V592.245H391.47V571.314H394.768ZM403.925 577.501L397.507 584.614L393.991 588.211L393.133 585.431L395.79 582.147L399.959 577.501H403.925ZM400.668 592.245L395.885 585.322L397.956 583.02L404.47 592.245H400.668ZM409.525 577.501V592.245H406.228V577.501H409.525ZM406.01 573.631C406.01 573.131 406.173 572.718 406.5 572.391C406.836 572.055 407.299 571.887 407.89 571.887C408.471 571.887 408.93 572.055 409.266 572.391C409.602 572.718 409.77 573.131 409.77 573.631C409.77 574.121 409.602 574.53 409.266 574.857C408.93 575.184 408.471 575.348 407.89 575.348C407.299 575.348 406.836 575.184 406.5 574.857C406.173 574.53 406.01 574.121 406.01 573.631ZM416.42 580.335V597.913H413.136V577.501H416.161L416.42 580.335ZM426.027 584.736V585.023C426.027 586.095 425.9 587.089 425.645 588.007C425.4 588.915 425.032 589.71 424.541 590.391C424.06 591.064 423.465 591.586 422.756 591.958C422.048 592.331 421.23 592.517 420.304 592.517C419.386 592.517 418.582 592.349 417.892 592.013C417.21 591.668 416.634 591.182 416.161 590.555C415.689 589.928 415.307 589.192 415.017 588.347C414.735 587.494 414.535 586.558 414.417 585.54V584.437C414.535 583.356 414.735 582.375 415.017 581.493C415.307 580.612 415.689 579.854 416.161 579.218C416.634 578.582 417.21 578.091 417.892 577.746C418.573 577.401 419.368 577.228 420.276 577.228C421.203 577.228 422.025 577.41 422.743 577.773C423.46 578.128 424.065 578.636 424.555 579.299C425.046 579.954 425.414 580.744 425.659 581.671C425.904 582.588 426.027 583.61 426.027 584.736ZM422.743 585.023V584.736C422.743 584.055 422.679 583.424 422.552 582.842C422.425 582.252 422.225 581.734 421.952 581.289C421.68 580.844 421.33 580.499 420.903 580.253C420.485 579.999 419.981 579.872 419.391 579.872C418.809 579.872 418.31 579.972 417.892 580.172C417.474 580.362 417.124 580.63 416.843 580.976C416.561 581.321 416.343 581.725 416.188 582.188C416.034 582.643 415.925 583.138 415.861 583.674V586.317C415.97 586.971 416.157 587.571 416.42 588.116C416.684 588.661 417.056 589.097 417.537 589.424C418.028 589.742 418.655 589.901 419.418 589.901C420.008 589.901 420.513 589.774 420.93 589.519C421.348 589.265 421.689 588.915 421.952 588.47C422.225 588.016 422.425 587.494 422.552 586.903C422.679 586.313 422.743 585.686 422.743 585.023Z" fill="#7237FF"/>
</g>
<defs>
<filter id="filter0_d_55_26001" x="65.1163" y="91.3375" width="683.721" height="631.279" filterUnits="userSpaceOnUse" color-interpolation-filters="sRGB">
<feFlood flood-opacity="0" result="BackgroundImageFix"/>
<feColorMatrix in="SourceAlpha" type="matrix" values="0 0 0 0 0 0 0 0 0 0 0 0 0 0 0 0 0 0 127 0" result="hardAlpha"/>
<feOffset dx="6.97674" dy="6.97674"/>
<feGaussianBlur stdDeviation="20.9302"/>
<feComposite in2="hardAlpha" operator="out"/>
<feColorMatrix type="matrix" values="0 0 0 0 0.120833 0 0 0 0 0.120833 0 0 0 0 0.120833 0 0 0 0.16 0"/>
<feBlend mode="normal" in2="BackgroundImageFix" result="effect1_dropShadow_55_26001"/>
<feBlend mode="normal" in="SourceGraphic" in2="effect1_dropShadow_55_26001" result="shape"/>
</filter>
<linearGradient id="paint0_linear_55_26001" x1="367.19" y1="173.263" x2="425.711" y2="237.466" gradientUnits="userSpaceOnUse">
<stop stop-color="#7237FF"/>
<stop offset="1" stop-color="#31C783"/>
</linearGradient>
<linearGradient id="paint1_linear_55_26001" x1="367.19" y1="173.263" x2="425.711" y2="237.466" gradientUnits="userSpaceOnUse">
<stop stop-color="#7237FF"/>
<stop offset="1" stop-color="#31C783"/>
</linearGradient>
</defs>
</svg>
