<svg width="1000" height="1000" viewBox="0 0 1000 1000" fill="none" xmlns="http://www.w3.org/2000/svg">
<rect width="1000" height="1000" fill="#31C783"/>
<path d="M506.038 545.797C508.451 547.192 506.062 557.125 501.867 565.757C498.978 571.731 493.899 578.699 489.312 579.509C487.974 579.745 486.567 579.588 484.865 578.877C490.721 558.417 502.756 543.948 506.038 545.797ZM521.755 551.116C521.306 548.565 520.023 545.756 518.565 544.192C515.198 540.74 510.822 538.274 504.918 536.079C502.799 535.239 500.628 535.218 497.952 535.69C486.867 537.647 473.217 550.782 466.942 573.34C464.311 581.899 463.747 589.89 464.991 596.956C467.756 612.656 485.577 623.15 500.223 618.348C512.843 614.211 520.786 605.171 522.908 600.977C525.03 596.784 528.349 588.56 524.161 586.436C520.809 584.735 518.475 585.156 516.926 588.668C511.233 602.219 510.113 609.225 495.587 611.79C489.854 612.802 485.342 607.325 483.821 598.69C483.199 595.158 483.047 590.935 483.502 586.807C488.417 588.975 493.246 589.539 497.833 588.729C514.652 585.76 523.828 562.892 521.755 551.116Z" fill="white"/>
<path fill-rule="evenodd" clip-rule="evenodd" d="M578.941 595.09C583.51 575.041 590.117 554.227 593.736 542.245C595.362 536.894 595.559 532.403 594.867 528.474C594.14 524.349 592.855 521.537 589.462 519.098C586.974 517.309 584.553 518.142 582.493 522.151C579.141 530.035 576.078 542.932 567.15 567.397C560.634 585.359 554.053 598.472 549.072 599.351C544.091 600.231 544.431 592.069 545.868 584.523C547.882 574.647 550.487 565.882 555.133 554.124C558.26 546.078 559.556 539.975 558.691 535.064C558.137 531.92 555.79 528.689 553.39 526.277C550.729 523.506 547.89 524.21 545.987 527.989C537.049 546.784 531.155 568.283 528.928 581.437C528.069 586.653 528.133 591.503 528.859 595.628C530.312 603.879 535.842 610.6 545.421 608.908C551.169 607.894 555.839 605.246 560.163 600.634L558.5 608.017C541.265 618.96 527.856 633.683 524.892 651.626C524.365 655.365 524.378 658.806 524.794 661.163C525.901 667.45 529.812 672.836 533.413 676.454C539.118 681.928 543.141 681.218 547.236 678.672C562.763 669.246 570.256 635.514 576.227 607.723L578.941 595.09ZM547.391 651.502C550.134 643.523 553.037 633.086 555.767 621.666C547.712 629.772 542.686 639.369 540.012 647.741C536.848 657.82 536.925 666.111 539.152 667.541C540.701 668.483 543.721 662.075 547.391 651.502Z" fill="white"/>
<path fill-rule="evenodd" clip-rule="evenodd" d="M646.908 475.397C645.999 470.237 642.903 465.053 638.006 462.029C633.721 459.102 630.467 460.904 627.475 465.321C612.217 489.095 596.939 529.653 595.237 563.927C594.974 568.067 595.288 572.104 595.882 575.478C598.294 589.174 607.601 592.618 618.567 592.757C627.647 592.873 634.289 586.453 637.754 581.388C641.22 576.323 639.494 572.957 635.949 571.138C633.344 569.802 630.016 569.452 628.646 572.428C627.277 575.403 619.877 584.843 617.012 585.05C613.29 585.32 612.762 582.322 611.923 577.558C610.699 570.611 611.628 561.238 613.694 550.435C628.565 535.735 645.415 508.611 647.221 483.938C647.589 480.394 647.397 478.176 646.908 475.397ZM632.786 504.496C637.336 492.027 638.3 482.852 637.006 482.262C636.166 482.001 632.526 490.625 628.046 503.491C624.581 513.108 618.735 529.489 617.982 533.101C624.789 523.304 629.723 513.018 632.786 504.496Z" fill="white"/>
<path fill-rule="evenodd" clip-rule="evenodd" d="M670.797 500.124C657.846 502.411 647.201 514.352 641.12 531.525C637.633 541.599 636.178 551.716 637.69 560.304C638.79 566.549 641.587 572.092 646.175 576.313C652.941 582.564 660.683 584.015 667.159 582.872C670.102 582.352 672.354 581.351 674.017 580.453C688.037 572.746 697.228 551.402 698.497 534.475C698.497 534.475 698.791 530.41 698.54 527.827C697.651 518.695 695.185 512.468 687.88 506.883C686.512 505.837 685.674 505.339 684.17 504.496C679.382 501.812 676.154 499.179 670.797 500.124ZM683.82 514.327C682.767 512.628 681.919 511.698 680.155 510.748C674.347 507.618 666.547 520.797 666.547 520.797C663.113 525.428 660.244 530.966 657.939 537.41C654.486 547.679 653.271 559.163 654.543 566.384C655.574 572.239 657.753 574.269 660.696 573.749C665.798 572.849 672.376 564.241 677.3 549.688C682.223 535.135 683.82 514.327 683.82 514.327Z" fill="white"/>
<path d="M534.791 339.38C534.791 350.505 531.981 365.603 523.832 385.47C506.13 429.97 481.466 501.186 475.285 517.079L466.012 540.521C457.021 565.553 446.624 596.544 437.352 625.549C435.385 631.906 434.168 633.892 431.077 626.741C428.548 621.178 427.424 611.245 427.424 602.504C427.424 596.544 428.548 588.597 431.077 577.87C433.044 570.32 437.999 557.466 442.874 544.097C447.461 531.518 455.429 511.516 455.429 511.516C473.412 461.056 516.059 344.545 527.298 323.487C538.538 302.429 534.791 339.38 534.791 339.38Z" fill="white"/>
<path d="M429.152 450.407L399.087 527.885L387.848 557.685C379.699 581.524 371.551 606.953 363.402 632.381C361.435 639.136 358.157 641.123 354.785 634.368C352.257 629.6 353.568 613.708 353.568 613.708C353.568 613.708 356.378 590.265 368.179 550.93L374.642 530.667C392.063 479.412 426.531 383.051 438.332 359.212C442.828 350.868 446.574 359.609 446.574 359.609C446.574 359.609 447.323 369.145 447.323 375.899C447.323 387.024 435.896 432.925 429.152 450.407Z" fill="white"/>
<path d="M590.137 449.185C595.691 471.665 528.816 515.466 448.493 535.365C368.169 555.265 309.818 549.412 304.264 526.932C298.709 504.452 348.054 473.858 428.377 453.958C464.744 444.949 523.905 437.5 546.541 440.722C569.177 443.943 559.233 448.39 552.984 448.145C546.735 447.9 533.354 444.584 508.875 446.101C486.258 447.502 459.468 451.905 440.995 456.482C369.423 474.213 314.28 500.231 317.829 514.595C321.378 528.958 391.129 531.123 462.701 513.392C530.058 496.705 595.557 452.782 582.064 444.722C577.067 441.737 557.346 440.523 555.582 435.754C552.685 427.922 565.272 428.083 572.37 429.929C577.577 431.283 581.474 434.331 584.337 436.762C587.768 439.677 589.266 445.661 590.137 449.185Z" fill="white"/>
</svg>
