<?xml version="1.0" standalone="no"?>
<!DOCTYPE svg PUBLIC "-//W3C//DTD SVG 20010904//EN"
 "http://www.w3.org/TR/2001/REC-SVG-20010904/DTD/svg10.dtd">
<svg version="1.0" xmlns="http://www.w3.org/2000/svg"
 width="400.000000pt" height="400.000000pt" viewBox="0 0 400.000000 400.000000"
 preserveAspectRatio="xMidYMid meet">
<metadata>
Created by potrace 1.11, written by Peter Selinger 2001-2013
</metadata>
<g transform="translate(0.000000,400.000000) scale(0.100000,-0.100000)"
fill="#000000" stroke="none">
<path d="M399 3988 c-3 -49 -1 -2409 2 -2411 2 -2 74 -38 159 -79 85 -42 389
-192 675 -333 286 -142 628 -310 760 -375 132 -65 483 -238 780 -385 750 -371
809 -400 819 -400 9 0 14 2391 5 2398 -2 2 -719 360 -1594 797 -875 436 -1593
795 -1597 797 -5 2 -8 -2 -9 -9z"/>
</g>
</svg>
