<svg xmlns="http://www.w3.org/2000/svg" xmlns:xlink="http://www.w3.org/1999/xlink" viewBox="0 0 1024 1024"><defs><style>.a{fill:url(#a);}.b{fill:url(#b);}.c{fill:url(#c);}.d{fill:url(#d);}.e,.f,.g,.h{isolation:isolate;opacity:0.18;}.e{fill:url(#e);}.f{fill:url(#f);}.g{fill:url(#g);}.h{fill:url(#h);}</style><linearGradient id="a" x1="818.57" y1="175.75" x2="-595.64" y2="1661.65" gradientTransform="matrix(1, 0, 0, -1, 0, 1026)" gradientUnits="userSpaceOnUse"><stop offset="0" stop-color="#e82a73"/><stop offset="0.11" stop-color="#de2d7a"/><stop offset="0.3" stop-color="#c5388f"/><stop offset="0.54" stop-color="#9b4ab0"/><stop offset="0.82" stop-color="#6262de"/><stop offset="0.99" stop-color="#3b73ff"/></linearGradient><linearGradient id="b" x1="826.37" y1="183.11" x2="-587.84" y2="1669.01" gradientTransform="matrix(1, 0, 0, -1, 0, 1026)" gradientUnits="userSpaceOnUse"><stop offset="0" stop-color="#ff3c82"/><stop offset="0.1" stop-color="#f53e88"/><stop offset="0.27" stop-color="#dc4598"/><stop offset="0.49" stop-color="#b251b2"/><stop offset="0.74" stop-color="#7961d7"/><stop offset="0.99" stop-color="#3b73ff"/></linearGradient><linearGradient id="c" x1="820.04" y1="341.44" x2="340.86" y2="2077.98" xlink:href="#a"/><linearGradient id="d" x1="664.43" y1="198.48" x2="-1051.03" y2="721.1" xlink:href="#a"/><linearGradient id="e" x1="-159.75" y1="1444.36" x2="320.75" y2="343.33" gradientTransform="matrix(1, 0, 0, -1, 0, 1026)" gradientUnits="userSpaceOnUse"><stop offset="0" stop-color="#e82a73"/><stop offset="0.11" stop-color="#de286e"/><stop offset="0.3" stop-color="#c52361"/><stop offset="0.54" stop-color="#9b1a4d"/><stop offset="0.82" stop-color="#620f30"/><stop offset="0.99" stop-color="#3d081e"/></linearGradient><linearGradient id="f" x1="238.78" y1="1041.18" x2="719.28" y2="-59.85" xlink:href="#e"/><linearGradient id="g" x1="-337.96" y1="715.5" x2="750.29" y2="-7.46" xlink:href="#e"/><linearGradient id="h" x1="3216.59" y1="-19043.94" x2="3403.14" y2="-20516.14" xlink:href="#e"/></defs><path class="a" d="M337.05.58H.6v334H337.05Z"/><path class="b" d="M735.58,403.76H399.13v334H735.58Z"/><path class="c" d="M735.58.58H399.13v334H1024V286.83A285.2,285.2,0,0,0,939.52,84.42,289.47,289.47,0,0,0,735.61.58Z"/><path class="d" d="M.6,403.76v334A285.24,285.24,0,0,0,85.08,940.14,289.51,289.51,0,0,0,289,1024h48.05V403.76Z"/><path class="e" d="M.6.58l336.45,334H.6Z"/><path class="f" d="M399.13,403.76l336.45,334H399.13Z"/><path class="g" d="M.6,737.73A285.24,285.24,0,0,0,85.08,940.14,289.51,289.51,0,0,0,289,1024h48.05V403.76Z"/><path class="h" d="M735.61.58A289.47,289.47,0,0,1,939.52,84.42,285.2,285.2,0,0,1,1024,286.83v47.72H399.13Z"/></svg>