<svg xmlns="http://www.w3.org/2000/svg" viewBox="0 0 966.3 152.96"><path d="M48.46,104.74c1.45,3.74,1.87,5.87,1.28,6.38l-18,15.64c-.42.43-1.36-.08-2.8-1.53l2.46-2.12c-2-6.89-9.52-22.36-16.58-36.39-3.48-7-6.71-13.18-9.6-18.71S.51,59.51.09,58.83l7.05-6.12C2.72,50.33.34,47.36,0,43.7L17.94,28.06c.76,9.77,16.41,12.75,30.18,16.15s26.1,7.31,19,18.11a20.51,20.51,0,0,1-3.57,4.08L52.12,76.35c2.29-.09,26.52-2,30.18-4.17,1.78-1.1,2.63-1.36,2.55-.93s.34,2.12,1.36,4.93c3.31,9.43,5.1,14.53,5.35,15.47s.68,2.38,1.11,4.08.85,3.49,1.36,5.36l6.8-5.87c-.25,3.06-.51,6.55-.76,10.54a45.6,45.6,0,0,1-1.7,10.2l-.09.09-18,15.56c-.34.25-1.36-3.06-3-9.78-3.4-13.52-6.63-24.4-8-28.65s-2.3-4-5.36-3.83q-2.41.14-11.47,1l-5.19.51c-1.62.17-3.15.34-4.51.43C45.23,96.58,47.1,101.09,48.46,104.74ZM32.73,71c2.21,4.34,4.34,8.5,6.38,12.67l9.35-8.08a14.49,14.49,0,0,1,2.3-1.36C52.88,65.38,39.87,62.32,26.61,59Q29.42,64.61,32.73,71Zm24.49,43.53c.59.25-2.55,2.55-9.27,7.06-.76.42-1.36.34-1.62-.43a1.07,1.07,0,0,1,.43-1.7l4.08-2.64s1.28-.85,3.91-2.63a20.92,20.92,0,0,0-1.7-4.76,28.28,28.28,0,0,1-1.95-5.7,1.08,1.08,0,0,1,1.19-1.19c.85,0,1.27.43,1.19,1.19C55.35,110.78,56.62,114.35,57.22,114.52Zm43.27,6.8L82.47,137l-1.53-2.38L99,119Z"/><path d="M115,107.55,98.88,123.87c-2.64-11.31-3.83-46-3.83-58.66l4.59-4.51Q91.09,50.24,89.18,42.08l16.24-16.23c2.47,11.47,13,21.93,24.32,33.83S153.2,85,159.58,102.28l11.9-11.91c0,.34-.59,3.49-1.87,9.53s-2,9.77-2,11.39l-.77,18c-.25,3.57-.42,5.53-.68,5.78L150,151.33c-.51.43-1.19-3.31-2-11.39-1.7-16-5.78-26.1-10.88-34.69a129.34,129.34,0,0,0-8.5-12.33l-5,5.11c-3.74,0-7.06.17-9.86.42A55.17,55.17,0,0,0,115,107.55Zm-8.76,11.14c1.45-.6,2.38,2,.94,2.29-3,2.13-3.91,3.83-5.95,6.8-1,1.11-3.06,0-2.13-1.36C101.77,122.68,102.53,121.32,106.27,118.69Zm2.81-3.07a1.13,1.13,0,0,1,1.7,0,1,1,0,0,1,0,1.62l-.43.42c-1.1,1.11-2.8-.51-1.7-1.61Zm4-23.29,8.17-8.16-4.68-5c-1.62-1.61-3.15-3.31-4.59-4.93C112.22,81.45,112.65,87.48,113.07,92.33Zm41-9.69c2.81,4.25,4.25,7.48,4.51,9.69a1.19,1.19,0,1,1-2.38-.17c-.17-1.28-1.7-4.25-4.59-9a78.18,78.18,0,0,1-5.87-10.88c-.25-1.62,2-1.71,2.3-.34A61.23,61.23,0,0,0,154.05,82.64Z"/><path d="M170.72,106.19c2-2,9.09-4.17,12.15-2.81l-15.3,15.31c-3.32-1.11-10,1-12.07,3Zm26.69-18.54q-5.35,5.35-32.73-23-5.75-5.87-7.91-7.65L172,41.57c2,1.7,6.12,5.7,12.33,12.08A123.22,123.22,0,0,0,201.83,69c.09-2.64.09-5.36,0-8.08-2.29-6.63-3.48-11.9-3.57-15.73l15.48-15.38a57.46,57.46,0,0,1,3.48,15.81C224.79,68,242.9,98,247.57,105.42q2,1,1.53,1.53l-15.3,15.31-.51.25a11.06,11.06,0,0,1-1-1.61c-5.7-2.64-24.66-6.81-30.61-6.81-3,0-8-.08-15-.17s-11.05.34-12.07,1.19L190,99.81c1-.93,5-1.44,12-1.36l12.59.17a38.92,38.92,0,0,1,5,.43c-3.91-7-7.65-14.46-11.31-22.36L197.41,87.57Zm32.22-23c1.62,3,2.13,4.76,1.53,5.27s-1.1.59-1.61,0a105.75,105.75,0,0,1-4.76-10.54c-1.45-3.57-3-7.14-4.51-10.71a1.15,1.15,0,1,1,2.13-.85A181.63,181.63,0,0,0,229.63,64.7Zm4.08,7.65a31.16,31.16,0,0,0,1.88,2.72c.42,1.45-1.37,2.47-2,1.11l-1-1.28q-1.67-2.41-.51-3.06A1.1,1.1,0,0,1,233.71,72.35Zm12.93,39.45-5.61,6c-1.53,1.62-2,2.55-1.36,3,.34.59.85.68,1.53.17,2.63-2.72,5.18-5.53,7.65-8.34A1.17,1.17,0,0,0,246.64,111.8Z"/><path d="M262.11,42.17v8.59l6.38-6.47c1.95,4.77,3.4,9.7,5,14.71q1.41-19.89,2.55-21.17l16.24-16.24c1-1,3,3.75,5.78,14.37S306,62.74,313.21,84.51q0,.26,1.27,4.84c1.7,6.21,3.66,14.29,4.76,20.75.51,3.31.51,5.18,0,5.69L303,132c-.25.34-.68.17-1.27-.51l1.61-1.62c-.17-3.48-1.27-9.18-3.23-16.92s-3.06-11.81-3.14-12.15q-5.75-17.22-9.44-29.84L287.28,73a68.64,68.64,0,0,0,0,15.81c.59,4,.85,6.13.59,6.3l-16.24,16.32c-.17.17-.85-.94-2.12-3.32-5.19-9.43-8.08-18.7-10.8-27.88-1.28,4.08-3.74,10.88-7.31,20.49-1.28,3.23-1.36,5.35-.43,6.37a6.57,6.57,0,0,1,1.45,4.42l-16.24,16.24a6.53,6.53,0,0,0-1.36-4.42c-.94-1-.85-3.14.34-6.38,5.53-14.53,8.16-21.76,9.52-29s1.19-14.62,1.19-29.58Zm-24.4,46.76c-.34,1.44-2.72.51-2.12-.94,1.44-3.06,1.7-3,1.78-6.46,0-.76.43-1.1,1.19-1.1s1.19.34,1.19,1.1C239.5,85.53,239.41,85.53,237.71,88.93Zm.34,8.93a1.18,1.18,0,1,1-1.87-1.45c4.76-8.84,4.76-11.9,5.1-21.85a1.08,1.08,0,0,1,1.19-1.19c.77,0,1.11.43,1.11,1.19C243.24,85.36,243.15,88.33,238.05,97.86Z"/><path d="M324.34,70.31c-4-4.34-5.1-7.4-3.48-9.1L337.1,44.89c1.1-.94,3.23-1.62,6.37-1.87,15.73-1.11,27.72-.17,35.88,2.89,16.32,6.21,20.91,17,16.83,28.91a40.57,40.57,0,0,1-9.94,15.89L370,107c-8.84,8.84-21.43,14.29-32.56,10.2C320,111,310.83,104.4,309.81,97.26s.76-13,5.44-17.77ZM326,72.52h-.34c-1.19,4.42.08,9.18,3.74,14.2,7.31,10.12,31.12,20.49,47.7,11,9.09-16.07,5.1-36.3-31.38-38.68,7.14,6.71,15.82,13.77,15.48,17.77L344.92,93.09c.17-2.29-2-5.44-6.38-9.35S330,76.09,326.3,72.35Zm41.66,3.83c0,2,.76,6.29,2.72,7L354.1,99.56c-2-.68-2.72-5-2.72-7Zm6.63,37.57a1.17,1.17,0,0,1-.77-2.21c5.7-4.42,8.68-8.67,12.16-14.87.34-1.45,2.55-.68,2.21.76C383.77,105,381,108.91,374.25,113.92Z"/><path d="M485.2,112.48,469,128.63c-.26.26-.94-.25-2-1.44-13.17-16.75-21.17-26.1-28.14-32.56S426,84.42,417.52,78.73C423,88.25,427.9,97.6,429,106.44a14,14,0,0,0,.6,1.62L413.36,124.3c-.43-1.19-.6-1.7-.6-1.62-1.27-10.54-6.12-21.51-14.37-32.9S386,66.23,386,53.39l16.24-16.32A45.37,45.37,0,0,0,403,45.4l3-2.89c13.26,10.29,23,17.34,29.33,21a114.31,114.31,0,0,1,18.28,13.35c-3.4-12.16-6.72-24.74-6.38-30.53L463.52,30.1c-.34,5.18,2.38,16.32,5.44,27.46q2.3,8.41,4.59,16.07c1.53,5.1,2.64,8.92,3.4,11.56.85,3.06,2.64,8.16,5.27,15.39S485.88,111.8,485.2,112.48Zm-55.6-4.42,16.15-64.28V36.56L462.5,19.81V27Zm9.86-23.55c8.33-7.39,12.16-9.86,11.48-7.31s0,10.46,2.21,23.47a31,31,0,0,0,.85,3.14,14.91,14.91,0,0,1,.68,4.08c0,1.45-2.55,1.45-2.3-.17V43c0,.08.09.17.17.42a70,70,0,0,1-2.38-15.38,83.4,83.4,0,0,0-1.27-13.18c-2.13,1.95-3.32,3-3.4,3.06l-4.51,4A1.14,1.14,0,1,1,455.61,20.23Zm27.46,104.83-.25.17c-.09.09-.26.34-.51.6-.6.59-1.11.59-1.62,0-1.1-1,.43-2.3,1.11-2.72C483.07,122.34,484.43,124.38,483.07,125.06Zm3.23-4.25a1.11,1.11,0,0,1-1.7-1.44c7.06-7.83,6.38-3.41,1.19-14.88-.59-1.28,1.28-2,2-.94C493.44,115.79,494,112.22,486.3,120.81Z"/><path d="M483.84,50.5,494,40.38c-8.33-6.37-13.51-11.9-15.55-16.66s-3.66-7.4-4.76-8.08L489.28,0c1.27.77,3.31,4.08,6,10.12,5.44,12.07,28.22,23.89,42,31.79s25.51,17.86,32.23,30.44c3.31,6.38,4.42,13.69,3.31,22a19,19,0,0,1-5.52,11.22l-15.65,15.56c-9.52,9.44-29.07,10.88-44.72,8.67-7.9-1.1-14.2-2.89-19-5.52s-5.87-5.36-3.15-8.17l15.56-15.55a15.81,15.81,0,0,1,6-3.4C501.18,79.49,491.32,54.84,483.84,50.5Zm20.91-36.73c3.4,3.15,7.23,6.72,10.63,9.52,1.7,1.45,3,2.47,3.74,3.07,1.45-.09,1.7,2.29.26,2.29-5.53-3.74-20.75-15.56-23.81-22.44-.59-1.36,1.87-2,2.21-.6C498.55,7.31,501.27,10.63,504.75,13.77Zm4.76,96.92c-.34-2-.51-3.23-.59-3.48a43.8,43.8,0,0,1-4.93,1.7,26.84,26.84,0,0,0,5,2.21Zm15-19.13c3.15-1.19,5-1.87,5.44-2l-4.93,4.93a34.82,34.82,0,0,1,.26,3.57l-.17.94-13.1,13.09c12.5,3.65,31.29,4.84,44.81-.26l.34-1.87c4.08-29.67-24-45.82-46.76-59.17C516.57,63.85,522.44,81.45,524.56,91.56Zm27.12,5.53c.09,1.7-2.21,2-2.29.34l-.68-3a26.46,26.46,0,0,0-9-14.29,15.56,15.56,0,0,1-1.27-1.1A9.28,9.28,0,0,1,537,78a1.15,1.15,0,1,1,.85-2.12C547,82.55,549.64,86.89,551.68,97.09Zm.94,9.78c0,.76-.43,1.1-1.19,1.1s-1.11-.34-1.11-1.1V103c0-.77.34-1.19,1.11-1.19a1.08,1.08,0,0,1,1.19,1.19Z"/><path d="M690.86,104.32a2.9,2.9,0,0,1-1.11,2l-15.64,15.65c-3.49,3.48-14.71,8.07-24.91,7s-19.64-7.91-19.64-27.72L645.2,85.53c0,26.52,16.58,30,29.84,27.29-.76-17-5.78-21.85-25.25-27.72a49,49,0,0,0-6.46-1.36l-14,14a16.9,16.9,0,0,0-.76-2.47c-.51-1.45-.77-2.3-.85-2.64l9.86-9.86c-3.74-.51-7.23-1-10.54-1.53s-5-.85-5.19-.93c-12.84-6.55-11.48-23-4.25-30.35l15.56-15.65c4.08-4.08,10.12-5.27,16.66-.51l8.33-8.33a83.4,83.4,0,0,0,2.64,21.42c1.62,2.64,2.21,4.09,2,4.34L647.58,66.31c6.8,1,15,2.38,17.86,3.15C687.54,76,690.86,81.53,690.86,104.32Zm-44.3-38.26a13.49,13.49,0,0,1-1.36-3.66c-3.82-5.86-10-14.62-17.43-16-.68,6.89,1.87,14.37,9.61,18.19C637.55,64.78,640.61,65.29,646.56,66.06Zm6.38,39.11c-3.49-2.38-4.51-11.4-4.85-14.46,0-.76.43-1.1,1.19-1.1s1.11.34,1.11,1.1a34.2,34.2,0,0,0,1.19,6.21,10.48,10.48,0,0,0,.85,2.64,11,11,0,0,0,1.87,3.57c.59.68.85,1.1.93,1.19v.51c0,.76-.42,1.1-1.19,1.1A1,1,0,0,1,652.94,105.17Zm3.31,2.46a1.06,1.06,0,0,1,.17-1.61,1.31,1.31,0,0,1,1.7.25,3.68,3.68,0,0,0,1.54.85,1.18,1.18,0,0,1-1,2.13A4.13,4.13,0,0,1,656.25,107.63ZM672,67.16c3.06.68,6.29,1.28,8.93,3.23a1,1,0,1,1-.34,2c-4.08-2-4-2.13-8.76-3.15C670,69.29,670.37,67.16,672,67.16ZM675,65.89c.09-.68.51-1,1.36-.94a13.28,13.28,0,0,1,2.38.6c.77-.09,1.19.34,1.19,1.36A1.11,1.11,0,0,1,678.7,68a1.84,1.84,0,0,1-.68-.25c-.43-.09-.77-.26-1.19-.34a8,8,0,0,1-.94-.17C675.13,67.08,674.79,66.65,675,65.89Z"/><path d="M681.33,47.87a46.15,46.15,0,0,0-2.63-7l16.24-16.23a10.9,10.9,0,0,1,1.53,3.4l1.1,3.57Zm17.35-12.33c0,.17,1.1,4.67,3.31,13.6s4.51,18.11,7,27.63l1.53-1.53c1.78-1.44,5.18-3.31,10.28-5.61C715.6,58.75,712,49.82,711.94,44.8l16.24-16.32c.17,6.12,4.34,16.92,12.5,32.48s15.81,30.26,22.87,44l13.09-13.1a37.2,37.2,0,0,1-.17,3.75c-1.36,9.94-1.28,27.71-.94,36.21a15.47,15.47,0,0,1,.6,4.17l-.17.68L759.72,153c-.25.17-.34-1.45-.42-4.85-1.79-6.63-6.55-17.09-14.29-31.29s-14.79-27.88-21.17-40.89l-.93.94c-2.13,2.12-7.14,4.33-12.33,6.46,1.53,6,2.89,11.22,4,15.47s1.7,6.46,1.78,6.63l-16.24,16.24c-.17-.17-1.19-3.91-3-11.14s-3.83-15.21-5.95-23.89S687,70,685.25,62.74s-2.73-10.88-2.81-11Zm32.48,61c2.12,4.42,4.25,8.84,6.2,13.26a1.19,1.19,0,0,1-.85,2.21c-5.44-8.92-9.78-18.62-13.86-28.14a1.16,1.16,0,0,1,2.21-.68C726.82,87.74,728.94,92.24,731.16,96.58Z"/><path d="M876.45,109.59l-15.64,15.64c-.17.26-1.19.17-3.06-.17a168.74,168.74,0,0,1-25.08-6.29c-6.72-2.3-20.07-3.23-31.63-2.64a30.85,30.85,0,0,0-11.56,3.24l-9.69,9.69c.08-.17.08-.34.17-.43a.65.65,0,0,0,.08-.42c1.36-6.12-.76-28.14-1.78-32.82-4.43-20.15-5.36-31.46-15.48-44.8a45.12,45.12,0,0,0-4.42-1.11l2-1.95a73.35,73.35,0,0,0-5.7-6.38l15.64-15.64a102.77,102.77,0,0,1,8.17,9.43c3.82,1.19,8.58,2.81,14.45,4.85,11.65,4.08,25.84,5.86,39.19,5.86h19.64L836.07,61.3c-15,0-25.85.42-41.07-1.62-2-.25-3.91-.59-5.78-1,.77,3,1.45,6.21,2.13,9.69s1.53,7.23,2.46,11.4a17,17,0,0,0,.43,3L805,71.93a138.31,138.31,0,0,0,19.13.76c6.8-.08,13.34-.17,19.55-.17L828.08,88.16c-5.28,0-10.8.09-16.58.17s-11.31,0-16.58-.34c.68,7.49,1.36,17.77.93,22.87l2.64-2.63c4.51-4.51,13-7.4,18.11-7.74,9.95-.42,21.68.43,28.48,1.87a21.31,21.31,0,0,1,.08-5.69l15.73-15.82a1.14,1.14,0,0,0,.51-.34l-.59.6c-1.28,8.67,1.1,15.47,7.31,20.32S877.05,109,876.45,109.59Zm-78.73-7.23V97.69l-.51-4.77a1.14,1.14,0,0,1,.94-1.36,1.09,1.09,0,0,1,1.36.94l.51,5,.08,4.84a1.19,1.19,0,0,1-2.38,0Zm.94-65.55c.17-.68.68-.93,1.44-.76a3.14,3.14,0,0,0,1.2.51c1.36,0,1.61,2.21.17,2.29a4.81,4.81,0,0,1-2.13-.59C798.57,38.09,798.32,37.58,798.66,36.81Zm7.23,2.13c.17-.68.68-.94,1.44-.77,3.49.77,6,1.28,7.82,1.7a41.16,41.16,0,0,0,4.34.85,18,18,0,0,0,2.29.26c1.19.08,2.73.17,4.51.17s4.34.08,7.82.08c.77,0,1.11.43,1.11,1.19s-.34,1.11-1.11,1.11c-16.92-.09-11.56.25-27.54-3.15C805.8,40.21,805.55,39.7,805.89,38.94Zm30.94,24.48,15.65-15.64a5.57,5.57,0,0,1,3-1.11,34.16,34.16,0,0,0,3.49.09L843.29,62.32a34,34,0,0,1-3.48-.09A6.93,6.93,0,0,0,836.83,63.42Z"/><path d="M959.43,112.48l-16.24,16.15c-.25.26-.93-.25-2-1.44-13.17-16.75-21.16-26.1-28.14-32.56s-12.83-10.21-21.34-15.9c5.45,9.52,10.38,18.87,11.48,27.71a14,14,0,0,0,.6,1.62L887.59,124.3c-.43-1.19-.6-1.7-.6-1.62-1.27-10.54-6.12-21.51-14.36-32.9s-12.42-23.55-12.42-36.39l16.24-16.32a45.37,45.37,0,0,0,.77,8.33l3-2.89c13.26,10.29,23,17.34,29.33,21A114.31,114.31,0,0,1,927.8,76.86c-3.4-12.16-6.71-24.74-6.37-30.53L937.75,30.1c-.34,5.18,2.38,16.32,5.44,27.46q2.29,8.41,4.59,16.07c1.53,5.1,2.64,8.92,3.4,11.56.85,3.06,2.64,8.16,5.27,15.39S960.11,111.8,959.43,112.48Zm-55.6-4.42M920,43.78V36.56l16.75-16.75V27Zm9.86-23.55c8.33-7.39,12.16-9.86,11.48-7.31s0,10.46,2.21,23.47c0,.08.26,1.19.85,3.14a14.51,14.51,0,0,1,.68,4.08c0,1.45-2.55,1.45-2.29-.17V43a3.14,3.14,0,0,0,.17.42,69.46,69.46,0,0,1-2.39-15.38,83.4,83.4,0,0,0-1.27-13.18c-2.13,1.95-3.32,3-3.4,3.06l-4.51,4A1.14,1.14,0,1,1,929.84,20.23ZM957.3,125.06l-.25.17c-.09.09-.26.34-.51.6-.6.59-1.11.59-1.62,0-1.1-1,.43-2.3,1.11-2.72C957.3,122.34,958.66,124.38,957.3,125.06Zm3.23-4.25a1.11,1.11,0,0,1-1.7-1.44c7.06-7.83,6.38-3.41,1.19-14.88-.59-1.28,1.28-2,2-.94C967.68,115.79,968.27,112.22,960.53,120.81Z"/></svg>