<svg xmlns="http://www.w3.org/2000/svg" viewBox="0 0 412.22 721.39"><defs><style>.a{fill:#fff;}</style></defs><path class="a" d="M368.25,292.61a48.84,48.84,0,0,0-18.47,4.11L298.36,318l-56.89,23.56c-7.22,3-12.91,10.83-13.83,18.15a44.43,44.43,0,0,1,12.61-2.19c24.67-.06,42.86,23.89,44,59.44V627.08l128-53v-222C411.11,316.51,392.92,292.57,368.25,292.61Z"/><path class="a" d="M140.61,0a49.1,49.1,0,0,0-18.47,4.06L70.72,25.39,13.83,48.92C6.61,51.92.92,59.78,0,67.07a45.51,45.51,0,0,1,12.61-2.19c24.67-.06,42.86,23.88,44,59.45V721.39l128-53V59.44C183.47,23.88,165.28-.06,140.61,0Z"/></svg>