<svg xmlns="http://www.w3.org/2000/svg" viewBox="0 0 1000 1000"><defs><style>.a{fill:#eaa720;}.b{fill:#101010;}</style></defs><circle class="a" cx="741.55" cy="602.59" r="2.16"/><circle class="a" cx="746.61" cy="621.11" r="0.84"/><circle class="a" cx="733.8" cy="628.43" r="1.65"/><circle class="a" cx="711.47" cy="588.76" r="0.76"/><circle class="a" cx="735.45" cy="583.11" r="0.76"/><circle class="a" cx="743.02" cy="601.11" r="0.68"/><path class="a" d="M736.55,645.63a8.17,8.17,0,0,0-10.14-2.9,29.74,29.74,0,0,0-7.33-16,8.16,8.16,0,0,0-.91-15.41,1.55,1.55,0,0,0,0-.31,1.42,1.42,0,0,0-2.84,0v0a8.16,8.16,0,0,0-7.52,7.84,29.82,29.82,0,0,0-11-2.09,29.29,29.29,0,0,0-4.42.33l-10.69,53.54c1.19.24,2.38.51,3.57.79,21,3.1,35.64,17.52,47.41,29.12l1.6,1.57V676a6,6,0,0,1,2.85-5.11c4.92-8.92,11.66-20.63,19.26-33.65a15.19,15.19,0,0,0-19.9,8.4Z"/><circle class="a" cx="182.98" cy="789.67" r="1.87"/><circle class="a" cx="192.33" cy="789.67" r="0.99"/><circle class="a" cx="116.74" cy="778.38" r="2.81"/><circle class="a" cx="114.52" cy="780.91" r="0.96"/><circle class="a" cx="94.11" cy="720.07" r="5.87"/><circle class="a" cx="89.48" cy="725.34" r="2.01"/><circle class="a" cx="98.58" cy="724.54" r="4.11"/><circle class="a" cx="157.02" cy="817.14" r="2.43"/><circle class="a" cx="158.09" cy="819.57" r="0.68"/><path class="a" d="M156.77,748.37l-41.26-37.69a6,6,0,0,1-2-4.43v-31a45.46,45.46,0,0,0,.38,46.44,8.53,8.53,0,0,0,11.35,12.61,45.07,45.07,0,0,0,3.88,2.66,12,12,0,0,0,7,20.21,26.43,26.43,0,0,0,6.89,17.24,13.45,13.45,0,0,0,25.23,8.09,26.47,26.47,0,0,0,10.87-5.14,8.48,8.48,0,0,0,13.8,4.06Z"/><circle class="a" cx="584.78" cy="280.78" r="5.44"/><circle class="a" cx="170.25" cy="307.33" r="1.4"/><circle class="a" cx="211.59" cy="365.36" r="4.98"/><circle class="a" cx="211.59" cy="361.13" r="2.63"/><circle class="a" cx="220.65" cy="356.8" r="1.43"/><circle class="a" cx="163.9" cy="435.21" r="11.38"/><circle class="a" cx="152.52" cy="432.61" r="6.24"/><circle class="a" cx="131.51" cy="447.93" r="1.52"/><circle class="a" cx="168.87" cy="534.93" r="8.4"/><circle class="a" cx="161.81" cy="530" r="5.94"/><circle class="a" cx="177.27" cy="535.94" r="1.39"/><circle class="a" cx="155.87" cy="551.28" r="1.39"/><circle class="a" cx="150.73" cy="536.83" r="0.5"/><circle class="a" cx="208.35" cy="566.09" r="2"/><circle class="a" cx="586.19" cy="275.81" r="3.6"/><circle class="a" cx="593.44" cy="284.93" r="1.3"/><circle class="a" cx="535.72" cy="198.52" r="1.2"/><circle class="a" cx="543.15" cy="210.55" r="7.44"/><circle class="a" cx="547.45" cy="204.62" r="2.77"/><circle class="a" cx="582.59" cy="221.96" r="2.77"/><circle class="a" cx="445.5" cy="212.85" r="3.6"/><circle class="a" cx="452.76" cy="221.96" r="1.3"/><path class="a" d="M197.81,495.13a56,56,0,0,0,23.41,59l.1-72.12a5.94,5.94,0,0,1,1-3.3V432a6,6,0,0,1,3.48-5.45l63.44-29.28L279,364.15a14.93,14.93,0,0,0-8.13,18.55,47.71,47.71,0,0,0-11.63,10.16,15,15,0,0,0-10.49-6.4,7.58,7.58,0,1,0-13.93,6,14.92,14.92,0,0,0,0,17.81,56.07,56.07,0,0,0-33.58,41.69,22.37,22.37,0,0,0-3.41,43.2Z"/><path class="a" d="M607.52,353.8a47.24,47.24,0,0,0-8.1-7.76A15,15,0,0,0,583,323.6a47.75,47.75,0,0,0-21.9-21.14,56,56,0,0,0-24.81-46,12,12,0,0,0,.67-3.94,12.11,12.11,0,0,0-23.2-4.87,57.24,57.24,0,0,0-8.64-.66,55.81,55.81,0,0,0-31.36,9.59A56,56,0,0,0,417.42,245C467.65,297.36,535.6,350.19,607.52,353.8Z"/><circle class="a" cx="703.56" cy="904.98" r="2.74"/><circle class="a" cx="913" cy="896.76" r="2.74"/><circle class="a" cx="959.32" cy="879.29" r="6.79"/><circle class="a" cx="959.32" cy="887.86" r="3.56"/><circle class="a" cx="597.73" cy="917.65" r="12.67"/><circle class="a" cx="588.59" cy="928" r="5.04"/><circle class="a" cx="626" cy="961.21" r="3.56"/><circle class="a" cx="493.19" cy="922.96" r="3.56"/><circle class="a" cx="214.83" cy="825.55" r="8.41"/><circle class="a" cx="223.03" cy="829" r="4.29"/><circle class="a" cx="729.22" cy="965.78" r="1"/><circle class="a" cx="355.33" cy="957.65" r="4.62"/><circle class="a" cx="322.31" cy="877.89" r="3.81"/><circle class="a" cx="414.34" cy="928" r="6.04"/><circle class="a" cx="418.62" cy="934.04" r="2.78"/><circle class="a" cx="290.37" cy="855.11" r="1"/><path class="a" d="M567.45,883.89a41,41,0,0,0,35.18,0Z"/><path class="a" d="M698,843.74c-4.68-15.11-17-31.37-33.1-31.37a27.16,27.16,0,0,0-12,3l-12.72,63.7a6,6,0,0,1-5.88,4.83H603.11a40.93,40.93,0,0,0,45.68,26.48,2.59,2.59,0,0,0-.08.63,2.74,2.74,0,1,0,5.47,0,2.7,2.7,0,0,0-.65-1.75,41,41,0,0,0,28.28-31.15,59.54,59.54,0,0,0,33.86-3A84.61,84.61,0,0,1,698,843.74Z"/><path class="a" d="M407.41,883.89a6,6,0,0,1-6-6L401.35,839l-81-36.76a31.74,31.74,0,0,0,3,6.19,32,32,0,0,0,8.5,19.4,10.51,10.51,0,1,0,12.06,17,32.29,32.29,0,0,0,12.52,11.55,51.18,51.18,0,0,0,12,18.75,13.25,13.25,0,0,0-2.9,8.29c0,.15,0,.29,0,.44h0a3.07,3.07,0,0,0,0,6.14,3,3,0,0,0,1.52-.42,13.34,13.34,0,0,0,24.26-1.3A50.87,50.87,0,0,0,404.42,890c.71,0,1.4,0,2.1,0A32.15,32.15,0,0,0,458.76,893a32.12,32.12,0,0,0,15.44-9.13Z"/><path class="a" d="M280.21,784.05a10.26,10.26,0,0,0-.36,2.68,10.51,10.51,0,0,0,1.93,6.06,4.37,4.37,0,0,0-1.07,2.85,4.43,4.43,0,0,0,8.58,1.55,9.51,9.51,0,0,0,1.08.06,10.49,10.49,0,0,0,6.91-2.6,2.69,2.69,0,0,0,5.34-.43h0Z"/><path class="a" d="M920.12,814.46c-14.38,25.37-35,46.62-60.67,62.66a59.4,59.4,0,0,0,70.45-83.06A167.36,167.36,0,0,1,920.12,814.46Z"/><path class="a" d="M828.5,577.27c-14.69,25.57-44.92,75.84-67.28,114.15l-9.66-11.53-7.89-3.9h-3.33v41.49a4.62,4.62,0,0,1,1,0l4.16,1.37c-1.51,2.68-2.91,5.19-4.16,7.49,15.95,1.08,30.82,38.18,13.6,44.44-18,5.07-34.81-37.72-70.63-42.87h0a80.19,80.19,0,0,0-19.57-2.4L696,568.6h9.3l45-90V432L724,445.36l-4.43,33.24H644l7.36-3.51-17.4-34.79,17.4-8.3-36-72-76.64,36.4c-89-30.69-167.34-122-214.49-187.85l-20.95-69.36-83.36-15.42L201.32,72l9,50L310.38,445.27,227.32,482l-.15,112,.21.41,27.94-13v80.1l-54,2.45V633l-40.5,37-12.3,10.8-29-26.47v51.92l41.26,37.69,40.5,37v-27h27l179,81.24.06,42.74H526.3V827.8l-15.11.05-22-72.72,45.4-45.39-9.08-9.5h0l9.08,9.5.72-.74V690.44l57-57L552.56,827.84l-10.22,0,0,50h0l0,.11h92l13.26-66.48c25.7-15,48.54,5.83,56.21,30.55,8.36,26.92,30.3,47.63,58,52.72,1,.19,2,.36,3.07.52l0-.18c20.12,3.09,41.08,1.08,59.38-6.84h0C971,829.73,974,639.2,828.5,577.27ZM458.37,524.6l-.1-.46,3.32-1.59V523ZM402.52,743l-3.2-1.46v-8.88Zm78.64-239.75-.53-2.39-.93.44-18.11-24.32V496.2l-10.54-48.1A233.41,233.41,0,0,0,476.29,459v14.68l2.27.81,7.83,35.76ZM441,442.79,400.7,461.94l-18.3-60.6C401.05,417.27,420.68,431.49,441,442.79ZM326.46,497.21l-10.9,5.17V462Zm27,120,15,15.71,7.13,23-114.19,5.19Zm94.76,2.06L435.74,578l27.84-13.29,4.24,2.42,26.7-15-.18-5.62.69,3.15,102.29-48.82v1l-.32-.32L463.36,635.16Z"/><path class="b" d="M828.5,526.8c-20,34.71-68.57,115-87.18,149,15.95,1.08,30.82,38.18,13.6,44.44-18,5.07-34.81-37.71-70.63-42.86h0A80.58,80.58,0,0,0,664.61,675l31.3-153h9.41l45-90h-99l-36-72c-171,0-321.08-270.81-321.08-270.81L201.32,72,302.19,397.9,228.32,432V544l27-12.71v78.29l-54,2.45V581.11l-40.5,37-40.5,37,81,73.94V702l27-1.23V702l170.25,77.25L408.32,828h117l-27-135H483.1l-4.61-14.74,8.68,9.09,47.46-47.44-9.08-9.5,73.15-73.15L543.32,828h90L647,761.27c25.94-15.64,49.07,5.3,56.8,30.22,8.36,26.92,30.3,47.62,58,52.72,1,.18,2,.36,3.07.52l0-.19c20.12,3.1,41.08,1.09,59.38-6.83h0C971,779.26,974,588.72,828.5,526.8ZM281.85,608.34l74.48-35.55,9.81,31.72Zm181.51-43-28.62-30,32.08-15.31L449.06,439l-39.54,18.77L368.13,325.41c39.31,39.55,84.51,73.86,132.35,89.14l-23.2,11,17.75,81,51.76-24.7Z"/><polygon class="b" points="480.63 468.14 462.57 476.72 473.94 528.62 492 520 480.63 468.14"/><path class="a" d="M345.86,377.16a1,1,0,0,0-1-.07l-27.44,12.67a1,1,0,0,0,.83,1.82l26-12v35a1,1,0,0,0,2,0V378A1,1,0,0,0,345.86,377.16Z"/><path class="a" d="M910.56,592.55c-18.87-28.91-47.11-52-81.67-66.67a1,1,0,0,0-1.26.42c-7.79,13.56-20,34.21-33,56.08-20.08,33.85-42.83,72.22-54.18,93a1,1,0,0,0,.81,1.48c9.29.63,18.42,14.78,20.08,26.54.68,4.8.7,13.25-6.68,15.94-7.83,2.2-15.59-5.45-25.42-15.14C718,693,703.91,679.21,684.43,676.41h0A81.46,81.46,0,0,0,665.84,674l30.89-151h8.59a1,1,0,0,0,.89-.55l45-90a1,1,0,0,0-.89-1.45H651.94l-35.73-71.45a1,1,0,0,0-.89-.55c-88,0-170.29-73.43-223.89-135C333.28,157.11,295.49,89.38,295.12,88.7l0,0a2,2,0,0,0-.14-.16,1.36,1.36,0,0,0-.12-.12.6.6,0,0,0-.16-.08l-.2-.08s0,0,0,0L201.5,71a1,1,0,0,0-.93.32,1,1,0,0,0-.21,1L301,397.36,227.9,431.09a1,1,0,0,0-.58.91V543.71a1,1,0,0,0,.46.84,1.06,1.06,0,0,0,.54.16,1.12,1.12,0,0,0,.43-.1l25.57-12v76l-52,2.36V581.12a1,1,0,0,0-.6-.92,1,1,0,0,0-1.07.18l-81,73.94a1,1,0,0,0,0,1.48l81,73.94a1,1,0,0,0,.67.26,1.1,1.1,0,0,0,.4-.08,1,1,0,0,0,.6-.92V703l25-1.14V702a1,1,0,0,0,.59.91l169.78,77,9.65,48.25a1,1,0,0,0,1,.8h117a1,1,0,0,0,.77-.37,1,1,0,0,0,.21-.83l-27-135a1,1,0,0,0-1-.8h0l-14.48,0-3.09-10,5.7,6,1.43,0,47.46-47.45v-1.4l-8.4-8.79,70.1-70.1L542.34,827.8a1,1,0,0,0,1,1.2h90a1,1,0,0,0,1-.8l13.56-66.29c9.14-5.39,18.66-6.46,27.54-3.07,12,4.58,22.53,17.2,27.42,32.94,8.65,27.87,31.17,48.34,58.79,53.41,1,.19,2.06.36,3.09.53a1.09,1.09,0,0,0,.62-.1,119.46,119.46,0,0,0,17.45,1.29,105.83,105.83,0,0,0,41.87-8.28C893.12,811.36,936.17,751.78,937,683.15A161.71,161.71,0,0,0,910.56,592.55ZM823.87,836.79c-17.38,7.52-38.27,9.93-58.83,6.76a.93.93,0,0,0-.57.1c-.84-.13-1.67-.27-2.5-.43-26.88-4.93-48.81-24.87-57.24-52-5.06-16.31-16-29.43-28.62-34.22-9.6-3.66-19.85-2.47-29.65,3.44a17.38,17.38,0,0,0-5.68,6.22,1,1,0,0,0,.39,1.36,1,1,0,0,0,1.36-.39,16.4,16.4,0,0,1,2.9-3.8L632.5,827h-88l57.29-280.08a1,1,0,0,0-1.84-.68.8.8,0,0,0-.19.13l-10.56,10.55a1,1,0,0,0,0,1.42,1,1,0,0,0,.71.29,1,1,0,0,0,.71-.29l8.55-8.55-1.43,7L525.57,629l-1.88-2a1,1,0,0,0-1.41,0,1,1,0,0,0,0,1.42l2.59,2.71h0l8.38,8.78-46,46-7.77-8.13-2.19-7.07a1,1,0,1,0-1.91.59l6.43,20.75-11.8,0a1,1,0,1,0,0,2h0l27.55-.1,26.6,133h-115l-9.59-48,0-.07a1.08,1.08,0,0,0-.08-.19,1.4,1.4,0,0,0-.1-.16l-.12-.12a1.18,1.18,0,0,0-.18-.13l-.06,0L230.07,701.69l34.44-1.56a1,1,0,1,0-.09-2L201.27,701a.75.75,0,0,0-.16,0,1.17,1.17,0,0,0-.2.05.83.83,0,0,0-.15.11.46.46,0,0,0-.16.11.86.86,0,0,0-.1.16.91.91,0,0,0-.11.16c0,.06,0,.13,0,.2a1,1,0,0,0,0,.17v24.73L121.8,655.06l78.52-71.68V612a.73.73,0,0,0,.05.2.94.94,0,0,0,0,.16,1.22,1.22,0,0,0,.12.19.54.54,0,0,0,.09.12.77.77,0,0,0,.21.14.41.41,0,0,0,.11.07.92.92,0,0,0,.38.08h0l53-2.41V621a1,1,0,0,0,.47.85,1,1,0,0,0,.53.15.94.94,0,0,0,.43-.1l26.34-12.57,83.33-3.79,26.94,87.06L356.16,694a1,1,0,0,0,0,2h0l45.28-1.7a1,1,0,0,0,1-1,1,1,0,0,0-1-1l-7,.26-36.89-119.2,9-4.31a1,1,0,1,0-.86-1.81l-9.81,4.69-.06,0-.07,0-74.35,35.49h0l-25.09,12V531.66l26.36-12.41a1,1,0,0,0,.48-1.33,1,1,0,0,0-1.33-.48L255.05,530l-.08,0-.05,0h0l-25.57,12V432.64l72.26-33.35L330.89,494l-7.33,3.48a1,1,0,0,0,.43,1.9.94.94,0,0,0,.43-.1l7.91-3.75h.08a.94.94,0,0,0,.35-.2l9.53-4.53a1,1,0,1,0-.85-1.8l-8.72,4.14-130-419.85,90.84,16.8c3.22,5.72,40.35,70.85,96.3,135.17,34.26,39.38,68.76,70.76,102.56,93.27,42.09,28,83.22,42.33,122.24,42.48L650,431.54,495.74,505.15l-17.31-79,27.07-12.86a1,1,0,1,0-.85-1.81l-4.24,2c-47.28-15.2-96.87-50.62-147.39-105.29a1,1,0,1,0-1.47,1.35q7.95,8.63,15.89,16.58l40.61,131.22L404.51,459a1,1,0,0,0-.48,1.33,1,1,0,0,0,1.33.48l43-20.42,17.32,79.08-31.36,15h0L429,537a1,1,0,0,0,.43,1.91,1,1,0,0,0,.43-.1l4.67-2.23,31.58,33a1,1,0,0,0,1.41,0,1,1,0,0,0,0-1.41l-2.78-2.91,82.62-82.62L651.55,433H748.7l-44,88H684.76a1,1,0,0,0-.8,1.57l-2.57,12.6a1,1,0,0,0,.78,1.18l.2,0a1,1,0,0,0,1-.8L685.92,523h8.76L663.8,674c-2.14,0-7.8,0-11.18,1.31a1,1,0,1,0,.73,1.86c3.42-1.33,9.86-1.19,11.06-1.15h0l.2,0,.09,0h.22A79.28,79.28,0,0,1,684,678.38l.24,0c18.76,2.75,32.5,16.29,43.54,27.17,9.89,9.75,18.43,18.17,27.44,15.62,6.42-2.33,9.35-8.94,8-18.12C761.6,690.94,752.68,677,742.9,675c11.55-21,33.78-58.46,53.44-91.62,12.73-21.46,24.77-41.76,32.58-55.33,66.23,28.53,106.84,87.87,106.05,155C934.18,750.93,891.62,809.8,823.87,836.79ZM355.71,574.19l9.1,29.38-78.08,3.55Zm80.71-38.51L467.25,521a1,1,0,0,0,.55-1.12L450,438.76a1,1,0,0,0-.53-.68,1,1,0,0,0-.87,0l-38.75,18.41L370.47,329.17C414,372.33,456.73,401,497.8,414.72l-20.95,9.94a1,1,0,0,0-.55,1.12l17.76,81a1,1,0,0,0,1,.79.91.91,0,0,0,.43-.1L542,485.3l-78.59,78.59Z"/><circle class="a" cx="345.32" cy="426.72" r="1"/><circle class="a" cx="474.72" cy="666.39" r="1"/><path class="a" d="M582.44,563.87a1,1,0,0,0-.7,1.23,1,1,0,0,0,1.93-.52A1,1,0,0,0,582.44,563.87Z"/><circle class="a" cx="681.15" cy="541.37" r="1"/><circle class="a" cx="347.56" cy="304.03" r="1"/><path class="a" d="M345.32,417.81a1,1,0,0,0-1,1v2.75a1,1,0,0,0,2,0v-2.75A1,1,0,0,0,345.32,417.81Z"/><path class="a" d="M587,559.18l-1.6,1.6a1,1,0,0,0,0,1.41,1,1,0,0,0,1.41,0l1.6-1.59a1,1,0,0,0,0-1.42A1,1,0,0,0,587,559.18Z"/><circle class="a" cx="640.65" cy="770.63" r="1"/><path class="a" d="M481.61,467.93a1,1,0,0,0-.54-.68,1,1,0,0,0-.87,0l-18.06,8.58a1,1,0,0,0-.55,1.12L473,528.83a1,1,0,0,0,1,.79,1.12,1.12,0,0,0,.43-.1l18.06-8.62a1,1,0,0,0,.54-1.12Zm-7,59.24-10.93-49.88,16.21-7.7,10.92,49.85Z"/></svg>