<?xml version="1.0" encoding="utf-8"?>
<!-- Generator: Adobe Illustrator 24.1.1, SVG Export Plug-In . SVG Version: 6.00 Build 0)  -->
<svg version="1.1" id="Layer_1" xmlns="http://www.w3.org/2000/svg" xmlns:xlink="http://www.w3.org/1999/xlink" x="0px" y="0px"
	 viewBox="0 0 165.8 307.7" style="enable-background:new 0 0 165.8 307.7;" xml:space="preserve">
<style type="text/css">
	.st0{fill:#E2D4B5;stroke:#1A1A1A;stroke-width:4;stroke-miterlimit:10;}
	.st1{fill:#1A1A1A;}
	.st2{clip-path:url(#SVGID_2_);}
	.st3{fill:#F4E9CE;stroke:#1A1A1A;stroke-width:4;stroke-miterlimit:10;}
	.st4{fill:#F4E9CE;stroke:#FF0000;stroke-miterlimit:10;}
	.st5{opacity:0.2;fill:#1A1A1A;enable-background:new    ;}
	.st6{clip-path:url(#SVGID_4_);}
</style>
<g>
	<path class="st0" d="M46.1,236.6c0.1-0.4,0.2-0.9,0.2-1.3c-13.6-1.5-26.9-5.6-39-12.1c-0.6,0.9-1.1,1.9-1.4,3
		c-1.2,4.8,1.6,9.7,6.4,11l22.7,5.9C39.9,244.3,44.8,241.4,46.1,236.6L46.1,236.6z"/>
	<circle class="st1" cx="11.4" cy="231" r="2.3"/>
	<g>
		<g>
			<g>
				<defs>
					<rect id="SVGID_1_" y="61.7" width="165.8" height="184"/>
				</defs>
				<clipPath id="SVGID_2_">
					<use xlink:href="#SVGID_1_"  style="overflow:visible;"/>
				</clipPath>
				<g class="st2">
					<ellipse class="st3" cx="58.7" cy="156" rx="94.7" ry="80"/>
					<path class="st4" d="M37.8,70.7L14,76.5c0,0-6.8,0.8-2.7,10.2"/>
					<g>
						<path class="st1" d="M70.1,69.3c0.3,0,0.7,0,1,0c49.2,0.5,89,39.1,89,86.7c0,45.8-36.9,83.3-83.6,86.4
							c-0.8,0.1-1.6,0.1-2.4,0.1H74c-26.5-1.6-59,3.1-59,3.1c26-4.8,26-19.3,26-19.3c-10.3,10.8-18.8,9.6-18.8,9.6
							C44.8,225.6,70.1,69.3,70.1,69.3z"/>
						<path class="st5" d="M68.3,69.3c0.3,0,0.7,0,1,0c49.2,0.5,89,39.1,89,86.7c0,45.8-36.9,83.3-83.6,86.4
							c-0.8,0.1-1.6,0.1-2.4,0.1h-0.1c-26.5-1.6-59,3.1-59,3.1c26-4.8,26-19.3,26-19.3c-10.3,10.8-18.8,9.6-18.8,9.6
							C43,225.6,68.3,69.3,68.3,69.3L68.3,69.3z"/>
						<path class="st1" d="M67.5,84.7c0,0-13.2,54.1-20,62c0,0,15.3-23.8,17.6-35"/>
						<path class="st5" d="M66.1,86.4c0,0-13.1,51.1-19.9,59c0,0,15.3-23.8,17.6-35"/>
						<path class="st1" d="M58.3,147.9c0,0-12.2,41.2-21.6,52.8c0,0,13.3-9.4,23.7-31.2"/>
						<path class="st5" d="M56,147.7c0,0-12.2,41.2-21.6,52.8c0,0,13.3-9.4,23.7-31.2"/>
						<path class="st1" d="M69.3,77.3c0,0-6,18.1-11.7,23.9c0,0,8.9-7.7,14.3-15.7"/>
						<path class="st5" d="M69.4,76.6c0,0-8.1,18.8-13.8,24.6c0,0,8.9-7.7,14.3-15.7"/>
						<path class="st1" d="M152.9,177.9l11.6,11.6h-15.9L152.9,177.9z"/>
						<path class="st1" d="M155.4,181.9c0,0,6.6-4.5,9.1-3c0,0-7.4-5.9-10.4-3"/>
						<path class="st1" d="M70.7,69.3L37,69.8c0,0,3.4,3,1.9,6.8c0,0,24.4-2.2,31.6,1L70.7,69.3z"/>
						<path class="st1" d="M50.2,102.8L19.6,132l-8.2-8.6L42,94.2L50.2,102.8z"/>
						<path class="st1" d="M49.7,124.4l-8.6,8.2L11.9,102l8.6-8.2L49.7,124.4z"/>
						<path class="st1" d="M50.2,188.9l-30.6,29.2l-8.2-8.6L42,180.3L50.2,188.9z"/>
						<path class="st1" d="M49.7,210.5l-8.6,8.2l-29.2-30.6l8.6-8.2L49.7,210.5z"/>
					</g>
					<path class="st0" d="M46.3,76.7c0.2-1.2,0.1-2.4-0.2-3.5c-1.3-4.8-6.2-7.7-11-6.4l-22.7,5.9C7.6,74,4.7,78.9,6,83.7
						c0.4,1.7,1.4,3.3,2.7,4.4C20.4,82,33.1,78.1,46.3,76.7z"/>
					<circle class="st1" cx="11.4" cy="81.1" r="2.3"/>
				</g>
			</g>
		</g>
	</g>
	<g>
		<g>
			<g>
				<defs>
					<rect id="SVGID_3_" x="0.1" width="62" height="321"/>
				</defs>
				<clipPath id="SVGID_4_">
					<use xlink:href="#SVGID_3_"  style="overflow:visible;"/>
				</clipPath>
				<g class="st6">
					<path class="st3" d="M18.1,34.4c0,3.6-2.9,6.5-6.5,6.5l0,0h-23.2c-3.6,0-6.5-2.9-6.5-6.5l0,0c0-3.6,2.9-6.5,6.5-6.5l0,0h23.2
						C15.2,28,18.1,30.9,18.1,34.4L18.1,34.4z"/>
					<path class="st3" d="M11.6,28H-2.8c-3.6,0-6.5-2.9-6.5-6.5l0,0c0-3.6,2.9-6.5,6.5-6.5h14.4c3.6,0,6.5,2.9,6.5,6.5l0,0
						C18.1,25.1,15.2,28,11.6,28z"/>
					<path class="st3" d="M18.1,8.5c0,3.6-2.9,6.5-6.5,6.5l0,0H7.4c-3.6,0-6.5-2.9-6.5-6.5l0,0C0.9,4.9,3.8,2,7.4,2l0,0h4.2
						C15.2,2.1,18.1,5,18.1,8.5L18.1,8.5z"/>
					<path class="st3" d="M18.1,47.4c0,3.6-2.9,6.5-6.5,6.5l0,0H-6.7c-3.6,0-6.5-2.9-6.5-6.5l0,0c0-3.6,2.9-6.5,6.5-6.5l0,0h18.3
						C15.2,40.9,18.1,43.8,18.1,47.4L18.1,47.4z"/>
					<path class="st3" d="M-18,272.9c0-3.6,2.9-6.5,6.5-6.5l0,0h23.2c3.6,0,6.5,2.9,6.5,6.5l0,0c0,3.6-2.9,6.5-6.5,6.5l0,0h-23.2
						C-15.1,279.4-18,276.5-18,272.9L-18,272.9z"/>
					<path class="st3" d="M-9.2,285.8c0-3.6,2.9-6.5,6.5-6.5h14.4c3.6,0,6.5,2.9,6.5,6.5c0,3.6-2.9,6.5-6.5,6.5l0,0H-2.7
						C-6.3,292.3-9.2,289.4-9.2,285.8L-9.2,285.8z"/>
					<path class="st3" d="M1,298.8c0-3.6,2.9-6.5,6.5-6.5l0,0h4.2c3.6,0,6.5,2.9,6.5,6.5l0,0c0,3.6-2.9,6.5-6.5,6.5l0,0H7.5
						C3.9,305.3,1,302.4,1,298.8L1,298.8z"/>
					<path class="st3" d="M-13.2,259.9c0-3.6,2.9-6.5,6.5-6.5h18.3c3.6,0,6.5,2.9,6.5,6.5c0,3.6-2.9,6.5-6.5,6.5l0,0H-6.7
						C-10.3,266.4-13.2,263.5-13.2,259.9L-13.2,259.9z"/>
				</g>
			</g>
		</g>
	</g>
</g>
</svg>
