<?xml version="1.0" encoding="utf-8"?>
<!-- Generator: Adobe Illustrator 25.4.1, SVG Export Plug-In . SVG Version: 6.00 Build 0)  -->
<svg version="1.1" id="Layer_1" xmlns="http://www.w3.org/2000/svg" xmlns:xlink="http://www.w3.org/1999/xlink" x="0px" y="0px"
	 viewBox="0 0 307.4 165.8" style="enable-background:new 0 0 307.4 165.8;" xml:space="preserve">
<style type="text/css">
	.st0{fill:#EAA720;}
	
		.st1{clip-path:url(#SVGID_00000044870601167054416300000017221005714967407270_);fill:#F4E9CE;stroke:#1A1A1A;stroke-width:4;stroke-miterlimit:10;}
	
		.st2{clip-path:url(#SVGID_00000044870601167054416300000017221005714967407270_);fill:#F4E9CE;stroke:#FF0000;stroke-miterlimit:10;}
	.st3{clip-path:url(#SVGID_00000044870601167054416300000017221005714967407270_);fill:#1A1A1A;}
	
		.st4{opacity:0.2;clip-path:url(#SVGID_00000044870601167054416300000017221005714967407270_);fill:#1A1A1A;enable-background:new    ;}
	
		.st5{clip-path:url(#SVGID_00000044870601167054416300000017221005714967407270_);fill:#E2D4B5;stroke:#1A1A1A;stroke-width:4;stroke-miterlimit:10;}
	.st6{clip-path:url(#SVGID_00000121984458228495147220000002121919950121741194_);}
	.st7{fill:#F4E9CE;stroke:#1A1A1A;stroke-width:4;stroke-miterlimit:10;}
</style>
<g>
	<g>
		<path class="st0" d="M290.9,149.2c-3.6,0-6.5,2.9-6.5,6.5c0-3.6-2.9-6.5-6.5-6.5c-3.4,0-6.1,2.5-6.5,5.8c-0.4-3.3-3.2-5.8-6.4-5.8
			c-3.6,0-6.5,2.9-6.5,6.5c0-3.6-2.9-6.5-6.5-6.5c-3.6,0-6.5,2.9-6.5,6.5v6.4l-5.3-2.6c-3.2-1.6-7.1-0.3-8.7,2.9
			c-1.6,3.2-0.3,7.1,2.9,8.7l11.8,5.9c1.1,2.1,3.2,3.5,5.7,3.5c1,0,1.9-0.2,2.7-0.6c1.4-0.2,2.8-0.9,3.8-2.1v1.1
			c0,3.6,2.9,6.5,6.5,6.5c3.6,0,6.5-2.9,6.5-6.5v-7.7c0.5,3.1,3.2,5.4,6.4,5.4c3.6,0,6.5-2.9,6.5-6.5v-10.2c0,3.6,2.9,6.5,6.5,6.5
			c3.6,0,6.5-2.9,6.5-6.5v-4.2C297.3,152.1,294.4,149.2,290.9,149.2z"/>
	</g>
	<path class="st0" d="M237.5,151c0,0-3.3-22.9-3.4-46c0-3.8,0.1-7.6,0.3-11.2v-0.1c0-0.4,0-0.9,0-1.3c0-0.1,0-0.3,0-0.4v-0.1
		c0-0.8,0-1.6-0.1-2.4c-2.3-34.6-23.5-63.8-52.9-76.6V1.5l-8.2,8.2c-1.2-1.9-3.6-6.3-2.4-8.2c0,0-2.8,3.5-3.6,6.7
		c-6.2-1.5-12.7-2.3-19.3-2.3c-47.6,0-86.2,39.8-86.7,89v1c0,0,0,0,0,0l0,0.2c0,0.2,0,0.4,0,0.6v1c0,0,0,0,0,0l0.4,24
		c-2.6,2.2-3.8,5.7-2.9,9.2l5.9,22.7c1.3,4.8,6.2,7.7,11,6.4c1.7-0.4,3.3-1.4,4.4-2.7c14.1,26.8,39.3,44.7,67.9,44.7
		c34.4,0,63.7-25.7,75-61.7c2.4,1.8,4.1,3.5,4.9,5.3c0,0,0.1-0.7,0-1.8c0,0,0,0,0,0c0,0,0.6-4.3-2.9-10.5c0.3-1.2,0.5-2.3,0.8-3.5
		c4.3,3.1,9.4,9.6,11.9,23.1c0,0-0.3-1.8-0.6-4.8C237.1,149,237.3,150,237.5,151z"/>
</g>
<g id="Head">
	<defs>
		<rect id="SVGID_1_" x="61.7" width="184" height="165.8"/>
	</defs>
	<clipPath id="SVGID_00000029019909948475329230000005727279663775482287_">
		<use xlink:href="#SVGID_1_"  style="overflow:visible;"/>
	</clipPath>
	
		<ellipse style="clip-path:url(#SVGID_00000029019909948475329230000005727279663775482287_);fill:#F4E9CE;stroke:#1A1A1A;stroke-width:4;stroke-miterlimit:10;" cx="156" cy="107.1" rx="80" ry="94.7"/>
	
		<path style="clip-path:url(#SVGID_00000029019909948475329230000005727279663775482287_);fill:#F4E9CE;stroke:#FF0000;stroke-miterlimit:10;" d="
		M70.7,128l5.8,23.8c0,0,0.8,6.8,10.2,2.7"/>
	<path style="clip-path:url(#SVGID_00000029019909948475329230000005727279663775482287_);fill:#1A1A1A;" d="M69.3,95.7
		c0-0.3,0-0.7,0-1c0.5-49.2,39.1-89,86.7-89c45.8,0,83.3,36.9,86.4,83.6c0.1,0.8,0.1,1.6,0.1,2.4v0.1c-1.6,26.5,3.1,59,3.1,59
		c-4.8-26-19.3-26-19.3-26c10.8,10.3,9.6,18.8,9.6,18.8C225.6,121,69.3,95.7,69.3,95.7z"/>
	
		<path style="opacity:0.2;clip-path:url(#SVGID_00000029019909948475329230000005727279663775482287_);fill:#1A1A1A;enable-background:new    ;" d="
		M69.3,97.5c0-0.3,0-0.7,0-1c0.5-49.2,39.1-89,86.7-89c45.8,0,83.3,36.9,86.4,83.6c0.1,0.8,0.1,1.6,0.1,2.4v0.1
		c-1.6,26.5,3.1,59,3.1,59c-4.8-26-19.3-26-19.3-26c10.8,10.3,9.6,18.8,9.6,18.8C225.6,122.8,69.3,97.5,69.3,97.5L69.3,97.5z"/>
	<path style="clip-path:url(#SVGID_00000029019909948475329230000005727279663775482287_);fill:#1A1A1A;" d="M84.7,98.3
		c0,0,54.1,13.2,62,20c0,0-23.8-15.3-35-17.6"/>
	
		<path style="opacity:0.2;clip-path:url(#SVGID_00000029019909948475329230000005727279663775482287_);fill:#1A1A1A;enable-background:new    ;" d="
		M86.4,99.7c0,0,51.1,13.1,59,19.9c0,0-23.8-15.3-35-17.6"/>
	<path style="clip-path:url(#SVGID_00000029019909948475329230000005727279663775482287_);fill:#1A1A1A;" d="M147.9,107.5
		c0,0,41.2,12.2,52.8,21.6c0,0-9.4-13.3-31.2-23.7"/>
	
		<path style="opacity:0.2;clip-path:url(#SVGID_00000029019909948475329230000005727279663775482287_);fill:#1A1A1A;enable-background:new    ;" d="
		M147.7,109.8c0,0,41.2,12.2,52.8,21.6c0,0-9.4-13.3-31.2-23.7"/>
	<path style="clip-path:url(#SVGID_00000029019909948475329230000005727279663775482287_);fill:#1A1A1A;" d="M77.3,96.5
		c0,0,18.1,6,23.9,11.7c0,0-7.7-8.9-15.7-14.3"/>
	
		<path style="opacity:0.2;clip-path:url(#SVGID_00000029019909948475329230000005727279663775482287_);fill:#1A1A1A;enable-background:new    ;" d="
		M76.6,96.4c0,0,18.8,8.1,24.6,13.8c0,0-7.7-8.9-15.7-14.3"/>
	<path style="clip-path:url(#SVGID_00000029019909948475329230000005727279663775482287_);fill:#1A1A1A;" d="M177.9,12.9l11.6-11.6
		v15.9L177.9,12.9z"/>
	<path style="clip-path:url(#SVGID_00000029019909948475329230000005727279663775482287_);fill:#1A1A1A;" d="M181.9,10.4
		c0,0-4.5-6.6-3-9.1c0,0-5.9,7.4-3,10.4"/>
	<path style="clip-path:url(#SVGID_00000029019909948475329230000005727279663775482287_);fill:#1A1A1A;" d="M69.3,95.1l0.5,33.7
		c0,0,3-3.4,6.8-1.9c0,0-2.2-24.4,1-31.6L69.3,95.1z"/>
	<path style="clip-path:url(#SVGID_00000029019909948475329230000005727279663775482287_);fill:#1A1A1A;" d="M102.8,115.6l29.2,30.6
		l-8.6,8.2l-29.2-30.6L102.8,115.6z"/>
	<path style="clip-path:url(#SVGID_00000029019909948475329230000005727279663775482287_);fill:#1A1A1A;" d="M124.4,116.1l8.2,8.6
		L102,153.9l-8.2-8.6L124.4,116.1z"/>
	<path style="clip-path:url(#SVGID_00000029019909948475329230000005727279663775482287_);fill:#1A1A1A;" d="M188.9,115.6l29.2,30.6
		l-8.6,8.2l-29.2-30.6L188.9,115.6z"/>
	<path style="clip-path:url(#SVGID_00000029019909948475329230000005727279663775482287_);fill:#1A1A1A;" d="M210.5,116.1l8.2,8.6
		l-30.6,29.2l-8.2-8.6L210.5,116.1z"/>
	
		<path style="clip-path:url(#SVGID_00000029019909948475329230000005727279663775482287_);fill:#E2D4B5;stroke:#1A1A1A;stroke-width:4;stroke-miterlimit:10;" d="
		M76.7,119.5c-1.2-0.2-2.4-0.1-3.5,0.2c-4.8,1.3-7.7,6.2-6.4,11l5.9,22.7c1.3,4.8,6.2,7.7,11,6.4c1.7-0.4,3.3-1.4,4.4-2.7
		C82,145.4,78.1,132.7,76.7,119.5z"/>
	
		<circle style="clip-path:url(#SVGID_00000029019909948475329230000005727279663775482287_);fill:#1A1A1A;" cx="81.1" cy="154.4" r="2.3"/>
	
		<path style="clip-path:url(#SVGID_00000029019909948475329230000005727279663775482287_);fill:#E2D4B5;stroke:#1A1A1A;stroke-width:4;stroke-miterlimit:10;" d="
		M236.6,119.7c-0.4-0.1-0.9-0.2-1.3-0.2c-1.5,13.6-5.6,26.9-12.1,39c0.9,0.6,1.9,1.1,3,1.4c4.8,1.2,9.7-1.6,11-6.4l5.9-22.7
		C244.3,125.9,241.4,121,236.6,119.7L236.6,119.7z"/>
	
		<circle style="clip-path:url(#SVGID_00000029019909948475329230000005727279663775482287_);fill:#1A1A1A;" cx="231" cy="154.4" r="2.3"/>
</g>
<g>
	<defs>
		<rect id="SVGID_00000060001109970923796130000016537872540273254817_" y="121.2" width="307.4" height="44.6"/>
	</defs>
	<clipPath id="SVGID_00000088844133959997071420000015438294333411601793_">
		<use xlink:href="#SVGID_00000060001109970923796130000016537872540273254817_"  style="overflow:visible;"/>
	</clipPath>
	<g style="clip-path:url(#SVGID_00000088844133959997071420000015438294333411601793_);">
		<g>
			<path class="st7" d="M67.9,160.9c1.6,3.2,0.3,7.1-2.9,8.7l0,0l-16.4,8.2c-3.2,1.6-7.1,0.3-8.7-2.9l0,0c-1.6-3.2-0.3-7.1,2.9-8.7
				l0,0l16.4-8.2C62.4,156.4,66.3,157.7,67.9,160.9L67.9,160.9z"/>
			<path class="st7" d="M34.4,147.7c3.6,0,6.5,2.9,6.5,6.5l0,0v23.2c0,3.6-2.9,6.5-6.5,6.5l0,0c-3.6,0-6.5-2.9-6.5-6.5l0,0v-23.2
				C28,150.6,30.9,147.7,34.4,147.7L34.4,147.7z"/>
			<path class="st7" d="M28,154.2v14.4c0,3.6-2.9,6.5-6.5,6.5l0,0c-3.6,0-6.5-2.9-6.5-6.5v-14.4c0-3.6,2.9-6.5,6.5-6.5l0,0
				C25.1,147.7,28,150.6,28,154.2z"/>
			<path class="st7" d="M8.5,147.7c3.6,0,6.5,2.9,6.5,6.5l0,0v4.2c0,3.6-2.9,6.5-6.5,6.5l0,0c-3.6,0-6.5-2.9-6.5-6.5l0,0v-4.2
				C2.1,150.6,5,147.7,8.5,147.7L8.5,147.7z"/>
			<path class="st7" d="M47.4,147.7c3.6,0,6.5,2.9,6.5,6.5l0,0v18.3c0,3.6-2.9,6.5-6.5,6.5l0,0c-3.6,0-6.5-2.9-6.5-6.5l0,0v-18.3
				C40.9,150.6,43.8,147.7,47.4,147.7L47.4,147.7z"/>
		</g>
		<g>
			<path class="st7" d="M239.7,160.9c1.6-3.2,5.5-4.5,8.7-2.9l16.4,8.2l0,0c3.2,1.6,4.5,5.5,2.9,8.7l0,0c-1.6,3.2-5.5,4.5-8.7,2.9
				l-16.4-8.2l0,0C239.4,168,238.1,164.1,239.7,160.9L239.7,160.9z"/>
			<path class="st7" d="M273.2,147.7c3.5,0,6.4,2.9,6.5,6.5v23.2l0,0c0,3.6-2.9,6.5-6.5,6.5l0,0c-3.6,0-6.5-2.9-6.5-6.5v-23.2l0,0
				C266.7,150.6,269.6,147.7,273.2,147.7L273.2,147.7z"/>
			<path class="st7" d="M286.1,147.7L286.1,147.7c3.6,0,6.5,2.9,6.5,6.5v14.4c0,3.6-2.9,6.5-6.5,6.5l0,0c-3.6,0-6.5-2.9-6.5-6.5
				v-14.4C279.6,150.6,282.5,147.7,286.1,147.7z"/>
			<path class="st7" d="M299.1,147.7c3.5,0,6.4,2.9,6.5,6.5v4.2l0,0c0,3.6-2.9,6.5-6.5,6.5l0,0c-3.6,0-6.5-2.9-6.5-6.5v-4.2l0,0
				C292.6,150.6,295.5,147.7,299.1,147.7L299.1,147.7z"/>
			<path class="st7" d="M260.2,147.7c3.6,0,6.5,2.9,6.5,6.5v18.3l0,0c0,3.6-2.9,6.5-6.5,6.5l0,0c-3.6,0-6.5-2.9-6.5-6.5v-18.3l0,0
				C253.7,150.6,256.6,147.7,260.2,147.7L260.2,147.7z"/>
		</g>
	</g>
</g>
</svg>
