<?xml version="1.0" encoding="utf-8"?>
<!-- Generator: Adobe Illustrator 25.4.1, SVG Export Plug-In . SVG Version: 6.00 Build 0)  -->
<svg version="1.1" id="Layer_1" xmlns="http://www.w3.org/2000/svg" xmlns:xlink="http://www.w3.org/1999/xlink" x="0px" y="0px"
	 viewBox="0 0 937.1 937.1" style="enable-background:new 0 0 937.1 937.1;" xml:space="preserve">
<style type="text/css">
	.st0{fill:#D8D8D8;}
	.st1{fill:#EAA720;}
	.st2{fill:none;stroke:#EAA720;stroke-width:2;stroke-linecap:round;stroke-linejoin:round;}
	.st3{fill:#282828;}
	.st4{fill:#FFFFFF;}
</style>
<circle class="st0" cx="683.3" cy="567.2" r="2.2"/>
<circle class="st0" cx="688.4" cy="585.8" r="0.8"/>
<circle class="st0" cx="675.6" cy="593.1" r="1.7"/>
<circle class="st0" cx="653.2" cy="553.4" r="0.8"/>
<circle class="st0" cx="677.2" cy="547.8" r="0.8"/>
<circle class="st0" cx="684.8" cy="565.8" r="0.7"/>
<path class="st0" d="M678.3,610.3c-2.2-3.3-6.5-4.6-10.1-2.9c-0.8-6-3.3-11.5-7.3-16c4.2-1.7,6.2-6.5,4.5-10.6
	c-1-2.3-2.9-4.1-5.4-4.8c0-0.1,0-0.2,0-0.3c0-0.8-0.6-1.4-1.4-1.4c-0.8,0-1.4,0.6-1.4,1.4l0,0l0,0c-4.1,0.3-7.4,3.7-7.5,7.8
	c-4.9-1.9-10.2-2.5-15.4-1.8l-10.7,53.5c1.2,0.2,2.4,0.5,3.6,0.8c21,3.1,35.6,17.5,47.4,29.1l1.6,1.6v-26.1c0-2.1,1.1-4,2.8-5.1
	c4.9-8.9,11.7-20.6,19.3-33.7c-7.7-3.2-16.6,0.5-19.8,8.2C678.3,610.2,678.3,610.2,678.3,610.3L678.3,610.3z"/>
<circle class="st0" cx="124.8" cy="754.3" r="1.9"/>
<circle class="st0" cx="134.1" cy="754.3" r="1"/>
<circle class="st0" cx="58.5" cy="743" r="2.8"/>
<circle class="st0" cx="56.3" cy="745.6" r="1"/>
<circle class="st0" cx="35.9" cy="684.7" r="5.9"/>
<circle class="st0" cx="31.2" cy="690" r="2"/>
<circle class="st0" cx="40.3" cy="689.2" r="4.1"/>
<circle class="st0" cx="98.8" cy="781.8" r="2.4"/>
<circle class="st0" cx="99.9" cy="784.2" r="0.7"/>
<path class="st0" d="M98.5,713l-41.3-37.7c-1.3-1.1-2-2.7-2-4.4v-31c-8.4,14.4-8.2,32.2,0.4,46.4c-3.2,3.5-2.9,8.9,0.6,12
	c3,2.7,7.5,2.9,10.7,0.6c1.2,1,2.5,1.8,3.9,2.7c-4.6,4.7-4.5,12.3,0.2,16.9c1.9,1.8,4.3,3,6.8,3.3c0.1,6.4,2.6,12.5,6.9,17.2
	c-1,7.4,4.1,14.1,11.5,15.2c5.6,0.8,11.1-2.1,13.7-7.1c4-0.8,7.7-2.6,10.9-5.1c1.3,4.5,6,7.1,10.5,5.9c1.2-0.3,2.4-1,3.3-1.8
	L98.5,713z"/>
<circle class="st0" cx="526.5" cy="245.4" r="5.4"/>
<circle class="st0" cx="112" cy="272" r="1.4"/>
<circle class="st0" cx="153.4" cy="330" r="5"/>
<circle class="st0" cx="153.4" cy="325.8" r="2.6"/>
<circle class="st0" cx="162.4" cy="321.5" r="1.4"/>
<circle class="st0" cx="105.7" cy="399.9" r="11.4"/>
<circle class="st0" cx="94.3" cy="397.3" r="6.2"/>
<circle class="st0" cx="73.3" cy="412.6" r="1.5"/>
<circle class="st0" cx="110.6" cy="499.6" r="8.4"/>
<circle class="st0" cx="103.6" cy="494.6" r="5.9"/>
<circle class="st0" cx="119" cy="500.6" r="1.4"/>
<circle class="st0" cx="97.6" cy="515.9" r="1.4"/>
<circle class="st0" cx="92.5" cy="501.5" r="0.5"/>
<circle class="st0" cx="150.1" cy="530.7" r="2"/>
<circle class="st0" cx="528" cy="240.5" r="3.6"/>
<circle class="st0" cx="535.2" cy="249.6" r="1.3"/>
<circle class="st0" cx="477.5" cy="163.2" r="1.2"/>
<circle class="st0" cx="484.9" cy="175.2" r="7.4"/>
<circle class="st0" cx="489.2" cy="169.3" r="2.8"/>
<circle class="st0" cx="524.3" cy="186.6" r="2.8"/>
<circle class="st0" cx="387.3" cy="177.5" r="3.6"/>
<circle class="st0" cx="394.5" cy="186.6" r="1.3"/>
<path class="st0" d="M139.6,459.8c-5.2,22.6,4.1,46.1,23.4,59l0.1-72.1c0-1.2,0.4-2.3,1-3.3v-46.7c0-2.3,1.4-4.5,3.5-5.5l63.4-29.3
	l-10.2-33.1c-5.8,2.6-9.4,8.5-8.9,14.9c0.1,1.3,0.4,2.5,0.8,3.7c-4.4,2.7-8.3,6.2-11.6,10.2c-2.4-3.5-6.2-5.9-10.5-6.4
	c-1.7-3.8-6.1-5.6-10-4s-5.6,6.1-4,10l0,0c-3.9,5.3-3.9,12.5,0,17.8c-17.5,7.3-30.1,23-33.6,41.7c-12.2,2.1-20.3,13.7-18.2,25.9
	C126.2,450.5,131.9,457.1,139.6,459.8L139.6,459.8z"/>
<path class="st0" d="M549.3,318.5c-2.4-2.9-5.1-5.5-8.1-7.8c4.4-7,2.2-16.3-4.8-20.7c-2.4-1.5-5.1-2.3-7.9-2.3
	c-1.3,0-2.5,0.2-3.7,0.5c-4.8-9.3-12.5-16.7-21.9-21.1c-0.2-18.5-9.4-35.7-24.8-46c2.1-6.3-1.3-13.2-7.6-15.3
	c-5.9-2-12.4,0.8-14.9,6.5c-14-2.2-28.3,1-40,8.9c-15.2-13.9-36.8-18.4-56.3-11.6C409.4,262,477.4,314.8,549.3,318.5z"/>
<circle class="st0" cx="645.3" cy="869.6" r="2.7"/>
<circle class="st0" cx="854.8" cy="861.4" r="2.7"/>
<circle class="st0" cx="901.1" cy="843.9" r="6.8"/>
<circle class="st0" cx="901.1" cy="852.5" r="3.6"/>
<circle class="st0" cx="539.5" cy="882.3" r="12.7"/>
<circle class="st0" cx="530.4" cy="892.7" r="5"/>
<circle class="st0" cx="435" cy="887.6" r="3.6"/>
<circle class="st0" cx="156.6" cy="790.2" r="8.4"/>
<circle class="st0" cx="164.8" cy="793.7" r="4.3"/>
<circle class="st0" cx="264.1" cy="842.5" r="3.8"/>
<circle class="st0" cx="356.1" cy="892.7" r="6"/>
<circle class="st0" cx="360.4" cy="898.7" r="2.8"/>
<circle class="st0" cx="232.1" cy="819.8" r="1"/>
<path class="st0" d="M509.2,848.5c11.1,5.3,24,5.3,35.2,0H509.2z"/>
<path class="st0" d="M639.8,808.4c-4.7-15.1-17-31.4-33.1-31.4c-4.2,0.1-8.3,1.1-12,3L582,843.7c-0.6,2.8-3,4.8-5.9,4.8h-31.2
	c5.9,16.3,21.3,27.1,38.5,27.1c2.4,0,4.8-0.2,7.1-0.6c-0.1,0.2-0.1,0.4-0.1,0.6c0,1.5,1.2,2.8,2.7,2.8c1.5,0,2.8-1.2,2.8-2.7
	c0-0.7-0.2-1.3-0.7-1.8c14.4-4.4,25.3-16.4,28.3-31.2c11.3,2.3,23.1,1.3,33.9-3C649.4,830.7,643.4,820,639.8,808.4z"/>
<path class="st0" d="M349.2,848.5c-3.3,0-6-2.7-6-6l0-38.9l-81-36.8c0.8,2.2,1.8,4.2,3,6.2c0.6,7.2,3.5,14.1,8.5,19.4
	c-5.2,2.7-7.2,9-4.5,14.2c2.7,5.2,9,7.2,14.2,4.5c0.9-0.4,1.6-1,2.3-1.7c3.1,4.9,7.4,8.9,12.5,11.5c2.6,7.1,6.7,13.5,12,18.8
	c-1.9,2.4-2.9,5.3-2.9,8.3c0,0.2,0,0.3,0,0.5l0,0c-1.7,0-3.1,1.4-3.1,3.1s1.4,3.1,3.1,3.1c0.5,0,1.1-0.1,1.5-0.4
	c3.4,6.5,11.5,9.1,18,5.7c2.9-1.5,5.1-4,6.3-7c4.3,1.1,8.7,1.7,13.2,1.7c0.7,0,1.4,0,2.1-0.1c9.4,15,29.3,19.6,44.3,10.1
	c3-1.9,5.7-4.3,7.9-7c5.9-1.5,11.3-4.7,15.5-9.1H349.2z"/>
<path class="st0" d="M222,748.7c-0.2,0.9-0.4,1.8-0.4,2.7c0,2.2,0.7,4.3,1.9,6.1c-1.6,1.9-1.3,4.7,0.5,6.2c1.9,1.6,4.7,1.3,6.2-0.5
	c0.3-0.4,0.6-0.8,0.8-1.3c0.4,0,0.7,0,1.1,0c2.5,0,4.9-0.9,6.8-2.5c0.3,1.5,1.6,2.4,3.1,2.2c1.3-0.2,2.2-1.3,2.2-2.6l0,0L222,748.7z
	"/>
<path class="st0" d="M861.9,779.1c-14.4,25.4-35,46.6-60.7,62.7c31.4,9.5,64.5-8.3,74-39.7c4.3-14.4,3.1-29.9-3.6-43.3
	C868.9,765.7,865.6,772.5,861.9,779.1z"/>
<path class="st1" d="M770.3,541.9c-14.7,25.6-44.9,75.8-67.3,114.2l-9.7-11.5l-7.9-3.9h-3.3v41.5c0.3,0,0.7,0,1,0l4.2,1.4
	c-1.5,2.7-2.9,5.2-4.2,7.5c16,1.1,30.8,38.2,13.6,44.5c-18,5.1-34.8-37.7-70.6-42.9l0,0c-6.4-1.6-13-2.4-19.6-2.4l31.3-156.9h9.3
	l45-90v-46.6L665.8,410l-4.4,33.2h-75.6l7.4-3.5L575.7,405l17.4-8.3l-36-72l-76.6,36.4C391.5,330.4,313.1,239,266,173.2l-21-69.4
	l-83.4-15.4l-18.6-51.8l9,50l100.1,323.3l-83.1,36.7l-0.1,112l0.2,0.4l27.9-13v80.1l-54,2.5v-30.9l-40.5,37l-12.3,10.8l-29-26.5
	v51.9l41.3,37.7l40.5,37v-27h27l179,81.2l0.1,42.8h118.9v-50.1H453l-22-72.7l45.4-45.4l-9.1-9.5l0,0l9.1,9.5l0.7-0.7v-18.5l57-57
	l-39.8,194.4h-10.2v50l0,0v0.1h92l13.3-66.5c25.7-15,48.5,5.8,56.2,30.5c8.3,26.9,30.3,47.6,58,52.7c1,0.2,2,0.4,3.1,0.5v-0.2
	c20.1,3.1,41.1,1.1,59.4-6.8l0,0C912.8,794.4,915.7,603.8,770.3,541.9z M400.1,489.2l-0.1-0.5l3.3-1.6v0.4L400.1,489.2z
	 M344.3,707.6l-3.2-1.5v-8.9L344.3,707.6z M422.9,467.9l-0.5-2.4l-0.9,0.5l-18.1-24.3v19.3l-10.5-48.1c8.2,4.1,16.6,7.8,25.2,10.9
	v14.7l2.3,0.8l7.8,35.8L422.9,467.9z M382.8,407.4l-40.3,19.1L324.2,366C342.8,381.9,362.4,396.1,382.8,407.4L382.8,407.4z
	 M268.2,461.9l-10.9,5.1v-40.3L268.2,461.9z M295.2,581.9l15,15.7l7.1,23l-114.2,5.2L295.2,581.9z M390,584l-12.5-41.4l27.9-13.3
	l4.2,2.4l26.7-15l-0.2-5.6l0.7,3.2l102.3-48.8v1l-0.3-0.3L405.1,599.8L390,584z"/>
<path class="st2" d="M476.4,674.4l0.7-0.7v-18.6l57-57l-39.8,194.4h-9.2v50l0,0v0.1h91l13.3-66.5c25.7-15,48.5,5.8,56.2,30.5
	c8.3,26.9,30.3,47.6,58,52.7c1,0.2,2,0.4,3.1,0.5v-0.2c20.1,3.1,41.1,1.1,59.4-6.8l0,0c146.8-58.5,149.7-249,4.2-310.9
	c-14.7,25.6-44.9,75.8-67.3,114.2l-9.7-11.5l-7.9-3.9h-3.3v41.5c0.3,0,0.7,0,1,0l4.2,1.4c-1.5,2.7-2.9,5.2-4.2,7.5
	c16,1.1,30.8,38.2,13.6,44.5c-18,5.1-34.8-37.7-70.6-42.9l0,0c-6.4-1.6-13-2.4-19.6-2.4l31.3-156.9h9.3l45-90v-46.6L665.8,410
	l-4.4,33.2h-75.6l7.4-3.5L575.7,405l17.4-8.3l-36-72l-76.6,36.4C391.5,330.4,313.1,239,266,173.2l-21-69.4l-83.4-15.4l-18.6-51.8
	l9,50l100.1,323.3l-82,36.7l-0.1,112l0.2,0.4l26.9-13v80.1l-54,2.5v-30.9l-40.5,37l-12.3,10.8l-28.2-25.8v51.9l40.5,37l40.5,37v-27
	h27l179,81.2l0.1,42.8h117.9v-50.1h-14.1l-22-72.7L476.4,674.4 M400.1,489.2l-0.1-0.5l3.3-1.6v0.4L400.1,489.2z M344.3,707.6
	l-3.2-1.5v-8.9L344.3,707.6z M422.9,467.9l-0.5-2.4l-0.9,0.5l-17.4-24.3l-0.8,19.3l-10.5-48.1c8.2,4.1,16.6,7.8,25.2,10.9v14.7
	l2.3,0.8l7.8,35.8L422.9,467.9z M382.8,407.4l-40.3,19.1L324.2,366C342.8,381.9,362.4,396.1,382.8,407.4L382.8,407.4z M268.2,461.9
	l-10.9,5.1v-40.3L268.2,461.9z M295.2,581.9l15,15.7l7.1,23l-114.2,5.2L295.2,581.9z M390,584l-12.5-41.4l27.9-13.3l4.2,2.4l26.7-15
	l-0.2-5.6l0.7,3.2l102.3-48.8v1l-0.3-0.3L405.1,599.8L390,584z"/>
<path class="st3" d="M770.3,491.4c-20,34.7-68.6,115-87.2,149c16,1.1,30.8,38.2,13.6,44.4c-18,5.1-34.8-37.7-70.6-42.9l0,0
	c-6.4-1.6-13-2.4-19.7-2.4l31.3-153h9.4l45-90h-99l-36-72C386.1,324.6,236,53.8,236,53.8l-92.9-17.2L244,362.5l-73.9,34.1v112
	l27-12.7v78.3l-54,2.5v-30.9l-40.5,37l-40.5,37l81,74v-27l27-1.2v1.2l170.2,77.2l9.8,48.8h117l-27-135h-15.2l-4.6-14.7l8.7,9.1
	l47.5-47.5l-9.1-9.5l73.1-73.1l-55.4,270.7h90l13.7-66.7c26-15.6,49.1,5.3,56.8,30.2c8.3,26.9,30.3,47.6,58,52.7
	c1,0.2,2,0.4,3.1,0.5v-0.2c20.1,3.1,41.1,1.1,59.4-6.8l0,0C912.8,743.9,915.7,553.4,770.3,491.4z M223.6,573l74.5-35.5l9.8,31.7
	L223.6,573z M405.1,530l-28.6-30l32.1-15.3l-17.8-81.1l-39.5,18.8L309.9,290c39.3,39.5,84.5,73.9,132.4,89.1l-23.2,11l17.8,81
	l51.8-24.7L405.1,530z"/>
<polygon class="st3" points="422.4,432.8 404.3,441.4 415.7,493.3 433.8,484.6 "/>
<path class="st4" d="M287.6,341.8c-0.3-0.2-0.7-0.2-1-0.1l-27.4,12.7c-0.5,0.2-0.8,0.8-0.6,1.3c0.2,0.5,0.8,0.8,1.3,0.6
	c0,0,0.1,0,0.1-0.1l26-12v35c0,0.6,0.4,1,1,1s1-0.4,1-1v-36.6C288,342.3,287.9,342,287.6,341.8z"/>
<path class="st4" d="M852.3,557.2c-18.9-28.9-47.1-52-81.7-66.7c-0.5-0.2-1,0-1.3,0.4c-7.8,13.5-20,34.2-33,56.1
	c-20.1,33.8-42.8,72.2-54.2,93c-0.3,0.5-0.1,1.1,0.4,1.4c0.1,0.1,0.3,0.1,0.4,0.1c9.3,0.6,18.4,14.8,20.1,26.5
	c0.7,4.8,0.7,13.3-6.7,16c-7.8,2.2-15.6-5.5-25.4-15.1c-11.3-11.1-25.3-25-44.8-27.8l0,0c-6.1-1.5-12.3-2.3-18.5-2.4l30.9-151h8.6
	c0.4,0,0.7-0.2,0.9-0.6l45-90c0.2-0.3,0.1-0.7,0-1c-0.2-0.3-0.5-0.5-0.8-0.5h-98.4L558,324.2c-0.2-0.3-0.5-0.6-0.9-0.5
	c-88,0-170.3-73.4-223.9-135C275,121.8,237.3,54,236.9,53.3l0,0c0-0.1-0.1-0.1-0.1-0.2c0,0-0.1-0.1-0.1-0.1c0,0-0.1-0.1-0.2-0.1
	c-0.1,0-0.1-0.1-0.2-0.1l0,0l-93-17.2c-0.3-0.1-0.7,0.1-0.9,0.3c-0.2,0.3-0.3,0.7-0.2,1l100.6,325l-73.1,33.7
	c-0.4,0.2-0.6,0.5-0.6,0.9v111.7c0,0.6,0.4,1,1,1c0.1,0,0.3,0,0.4-0.1l25.6-12v76l-52,2.4v-29.8c0-0.4-0.2-0.7-0.6-0.9
	c-0.4-0.2-0.8-0.1-1.1,0.2l-81,74c-0.4,0.4-0.4,1-0.1,1.4c0,0,0,0,0.1,0.1l81,74c0.2,0.2,0.4,0.3,0.7,0.3c0.1,0,0.3,0,0.4-0.1
	c0.4-0.2,0.6-0.5,0.6-0.9v-26l25-1.1v0.2c0,0.4,0.2,0.7,0.6,0.9l169.8,77l9.6,48.2c0.1,0.5,0.5,0.8,1,0.8h117c0.3,0,0.6-0.1,0.8-0.4
	c0.2-0.2,0.3-0.5,0.2-0.8l-27-135c-0.1-0.5-0.5-0.8-1-0.8l0,0l-14.5,0l-3.1-10l5.7,6h1.4l47.5-47.4v-1.4l-8.4-8.8l70.1-70.1
	l-54.7,267.4c-0.1,0.5,0.2,1.1,0.8,1.2c0.1,0,0.1,0,0.2,0h90c0.5,0,0.9-0.3,1-0.8l13.6-66.3c9.1-5.4,18.7-6.5,27.5-3.1
	c12,4.6,22.5,17.2,27.4,33c8.7,27.9,31.2,48.3,58.8,53.4c1,0.2,2.1,0.4,3.1,0.5c0.2,0,0.4,0,0.6-0.1c5.8,0.9,11.6,1.3,17.5,1.3
	c14.4,0.1,28.6-2.7,41.9-8.3c68.5-27.3,111.5-86.9,112.3-155.5C879.1,615.6,869.9,584.1,852.3,557.2z M765.6,801.4
	c-17.4,7.5-38.3,9.9-58.8,6.8c-0.2,0-0.4,0-0.6,0.1c-0.8-0.1-1.7-0.3-2.5-0.4c-26.9-4.9-48.8-24.9-57.2-52
	c-5.1-16.3-16-29.4-28.6-34.2c-9.6-3.7-19.9-2.5-29.7,3.4c-2.4,1.6-4.3,3.7-5.7,6.2c-0.3,0.5-0.1,1.1,0.4,1.4s1.1,0.1,1.4-0.4
	c0.8-1.4,1.8-2.7,2.9-3.8l-12.9,63.2h-88l57.3-280.2c0.1-0.5-0.2-1.1-0.8-1.2c0,0,0,0,0,0c-0.4-0.1-0.9,0.1-1.1,0.5
	c-0.1,0-0.1,0.1-0.2,0.1L531,521.6c-0.4,0.4-0.4,1,0,1.4c0.2,0.2,0.4,0.3,0.7,0.3c0.3,0,0.5-0.1,0.7-0.3l8.5-8.5l-1.4,7l-72.2,72.2
	l-1.9-2c-0.4-0.4-1-0.4-1.4,0c0,0,0,0,0,0c-0.4,0.4-0.4,1,0,1.4l2.6,2.7l0,0l8.4,8.8l-46,46l-7.8-8.1l-2.3-7
	c-0.2-0.5-0.7-0.8-1.2-0.7c-0.5,0.2-0.8,0.7-0.7,1.2l6.4,20.8h-11.8c-0.6,0-1,0.4-1,1s0.4,1,1,1l0,0l27.5-0.1l26.6,133h-115l-9.6-48
	c0,0,0,0,0-0.1c0-0.1,0-0.1-0.1-0.2c0-0.1-0.1-0.1-0.1-0.2c0,0-0.1-0.1-0.1-0.1c-0.1-0.1-0.1-0.1-0.2-0.1h-0.1l-168.9-76.7l34.4-1.6
	c0.6,0,1-0.5,1-1c0-0.6-0.5-1-1-1l-63.2,2.9c-0.1,0-0.1,0-0.2,0c-0.1,0-0.1,0-0.2,0l-0.1,0.1c-0.1,0-0.1,0.1-0.2,0.1
	c0,0-0.1,0.1-0.1,0.2c0,0.1-0.1,0.1-0.1,0.2c0,0.1,0,0.1,0,0.2c0,0.1,0,0.1,0,0.2v24.7l-78.5-71.6l78.5-71.7v28.6l0,0
	c0,0.1,0,0.1,0,0.2c0,0.1,0,0.1,0,0.2c0,0.1,0.1,0.1,0.1,0.2l0.1,0.1c0.1,0.1,0.1,0.1,0.2,0.1l0.1,0.1c0.1,0.1,0.2,0.1,0.4,0.1l0,0
	l53-2.4v10.4c0,0.3,0.2,0.7,0.5,0.8c0.2,0.1,0.3,0.2,0.5,0.2c0.1,0,0.3,0,0.4-0.1l26.4-12.5l83.3-3.8l27,87.1l-36.2,1.4
	c-0.6,0-1,0.4-1,1s0.4,1,1,1l0,0l45.3-1.7c0.6,0,1-0.5,1-1c0-0.6-0.5-1-1-1l-7,0.3L299.3,538l9-4.3c0.5-0.2,0.7-0.8,0.5-1.3
	c-0.2-0.5-0.8-0.7-1.3-0.5l-9.8,4.7h-0.1h-0.1L223.1,572l0,0L198,584v-87.7l26.4-12.4c0.5-0.2,0.7-0.8,0.5-1.3
	c-0.2-0.5-0.8-0.7-1.3-0.5l-26.8,12.6h-0.1h-0.1l-25.6,12V397.3l72.3-33.4l29.3,94.7l-7.3,3.5c-0.5,0.2-0.7,0.8-0.5,1.3
	c0.2,0.4,0.5,0.6,0.9,0.6c0.1,0,0.3,0,0.4-0.1l7.9-3.8h0.1c0.1,0,0.2-0.1,0.4-0.2l9.5-4.5c0.5-0.2,0.7-0.8,0.5-1.3
	c-0.2-0.5-0.8-0.7-1.3-0.5l-8.7,4.1L144.4,38l90.8,16.8c3.2,5.7,40.4,70.8,96.3,135.2c34.2,39.4,68.8,70.8,102.5,93.3
	c42.1,28,83.2,42.3,122.2,42.5l35.3,70.5l-154.1,73.6l-17.3-79l27.1-12.9c0.5-0.2,0.7-0.8,0.5-1.3s-0.8-0.7-1.3-0.5l-4.2,2
	c-47.3-15.2-96.9-50.6-147.4-105.3c-0.4-0.4-1-0.4-1.4-0.1c-0.4,0.4-0.4,1-0.1,1.4c5.3,5.7,10.6,11.3,15.9,16.6L349.8,422l-3.5,1.7
	c-0.5,0.2-0.8,0.8-0.6,1.3c0.2,0.5,0.8,0.8,1.3,0.6c0,0,0.1,0,0.1-0.1l43-20.4l17.3,79.1l-31.4,15l0,0l-5.3,2.5
	c-0.5,0.2-0.7,0.8-0.5,1.3c0.2,0.3,0.5,0.6,0.9,0.6c0.1,0,0.3,0,0.4-0.1l4.7-2.2l31.6,33c0.2,0.2,0.4,0.3,0.7,0.3
	c0.3,0,0.5-0.1,0.7-0.3c0.4-0.4,0.4-1,0-1.4l-2.8-2.9l82.6-82.6l104.2-49.7h97.2l-44,88h-19.9c-0.6,0-1,0.5-1,1
	c0,0.2,0.1,0.4,0.2,0.5l-2.6,12.6c-0.1,0.5,0.2,1.1,0.8,1.2h0.2c0.5,0,0.9-0.3,1-0.8l2.6-12.6h8.8l-30.9,151c-2.2,0-7.8,0-11.2,1.3
	c-0.5,0.2-0.8,0.7-0.7,1.2s0.7,0.8,1.2,0.7c0,0,0.1,0,0.1-0.1c3.4-1.3,9.9-1.2,11.1-1.2l0,0c0.1,0,0.1,0,0.2,0h0.3
	c6.4,0,12.9,0.8,19.1,2.3c0.1,0,0.2,0,0.2,0c18.8,2.8,32.5,16.3,43.5,27.2c9.9,9.8,18.4,18.2,27.4,15.7c6.4-2.3,9.3-8.9,8-18.1
	c-1.7-12.1-10.6-26.1-20.4-28c11.5-21,33.8-58.5,53.4-91.6c12.7-21.5,24.8-41.8,32.6-55.3c66.2,28.5,106.8,87.9,106,155.1
	C875.9,715.6,833.4,774.5,765.6,801.4z M297.5,538.8l9.1,29.4l-78.1,3.5L297.5,538.8z M378.2,500.3l30.8-14.7
	c0.4-0.2,0.7-0.7,0.5-1.1l-17.8-81.1c-0.1-0.3-0.3-0.5-0.5-0.7c-0.3-0.1-0.6-0.1-0.9,0l-38.8,18.4l-39.4-127.3
	c43.5,43.2,86.3,71.9,127.3,85.5l-20.9,10c-0.4,0.2-0.7,0.7-0.5,1.1l17.8,81c0.1,0.3,0.3,0.6,0.5,0.7c0.1,0.1,0.3,0.1,0.4,0.1
	c0.1,0,0.3,0,0.4-0.1l46.5-22.1l-78.6,78.6L378.2,500.3z"/>
<circle class="st4" cx="287.1" cy="391.4" r="1"/>
<circle class="st4" cx="416.5" cy="631" r="1"/>
<path class="st4" d="M524.2,528.5c-0.5,0.1-0.8,0.7-0.7,1.2c0.1,0.5,0.7,0.8,1.2,0.7c0.5-0.1,0.8-0.7,0.7-1.2c0,0,0,0,0,0
	C525.3,528.7,524.7,528.4,524.2,528.5C524.2,528.5,524.2,528.5,524.2,528.5z"/>
<circle class="st4" cx="622.9" cy="506" r="1"/>
<circle class="st4" cx="289.3" cy="268.7" r="1"/>
<path class="st4" d="M287.1,382.5c-0.6,0-1,0.4-1,1v2.7c0,0.6,0.4,1,1,1s1-0.4,1-1v-2.7C288.1,382.9,287.6,382.5,287.1,382.5z"/>
<path class="st4" d="M528.7,523.8l-1.6,1.6c-0.4,0.4-0.4,1,0,1.4c0.4,0.4,1,0.4,1.4,0l1.6-1.6c0.4-0.4,0.3-1.1-0.1-1.4
	C529.6,523.5,529.1,523.5,528.7,523.8z"/>
<circle class="st4" cx="582.4" cy="735.3" r="1"/>
<path class="st4" d="M423.4,432.6c-0.1-0.3-0.3-0.6-0.5-0.7c-0.3-0.1-0.6-0.1-0.9,0l-18.1,8.6c-0.4,0.2-0.6,0.7-0.5,1.1l11.4,51.9
	c0.1,0.3,0.3,0.5,0.5,0.7c0.1,0.1,0.3,0.1,0.4,0.1c0.1,0,0.3,0,0.4-0.1l18.1-8.6c0.4-0.2,0.7-0.7,0.5-1.1L423.4,432.6z M416.4,491.8
	l-10.9-49.9l16.2-7.7l10.9,49.9L416.4,491.8z"/>
</svg>
