<svg xmlns="http://www.w3.org/2000/svg" viewBox="0 0 937.11 937.11"><defs><style>.a{fill:#d8d8d8;}.b{fill:#eaa720;}.c{fill:none;stroke:#eaa720;stroke-linecap:round;stroke-linejoin:round;stroke-width:2px;}.d{fill:#101010;}.e{fill:#fff;}</style></defs><circle class="a" cx="683.31" cy="567.23" r="2.16"/><circle class="a" cx="688.38" cy="585.76" r="0.84"/><circle class="a" cx="675.56" cy="593.08" r="1.65"/><circle class="a" cx="653.23" cy="553.41" r="0.76"/><circle class="a" cx="677.21" cy="547.76" r="0.76"/><circle class="a" cx="684.79" cy="565.76" r="0.68"/><path class="a" d="M678.31,610.28a8.13,8.13,0,0,0-10.14-2.9,29.63,29.63,0,0,0-7.33-16,8.16,8.16,0,0,0-.91-15.41,1.45,1.45,0,0,0,0-.3,1.42,1.42,0,1,0-2.84,0v0a8.15,8.15,0,0,0-7.52,7.84,29.82,29.82,0,0,0-15.39-1.76l-10.68,53.54c1.19.24,2.38.5,3.56.79,21,3.09,35.64,17.52,47.41,29.11l1.6,1.58V640.64a6,6,0,0,1,2.85-5.11c4.92-8.92,11.66-20.64,19.26-33.66a15.18,15.18,0,0,0-19.9,8.41Z"/><circle class="a" cx="124.75" cy="754.31" r="1.87"/><circle class="a" cx="134.1" cy="754.31" r="0.99"/><circle class="a" cx="58.5" cy="743.03" r="2.81"/><circle class="a" cx="56.28" cy="745.56" r="0.96"/><circle class="a" cx="35.87" cy="684.72" r="5.87"/><circle class="a" cx="31.24" cy="689.99" r="2.01"/><circle class="a" cx="40.34" cy="689.19" r="4.11"/><circle class="a" cx="98.78" cy="781.79" r="2.43"/><circle class="a" cx="99.86" cy="784.21" r="0.68"/><path class="a" d="M98.54,713l-41.27-37.7a6,6,0,0,1-2-4.43v-31a45.46,45.46,0,0,0,.38,46.44,8.53,8.53,0,0,0,11.35,12.61,46.68,46.68,0,0,0,3.88,2.66,11.94,11.94,0,0,0,7,20.2,26.4,26.4,0,0,0,6.9,17.25,13.45,13.45,0,0,0,25.23,8.09A26.37,26.37,0,0,0,120.92,742a8.49,8.49,0,0,0,13.81,4.06Z"/><circle class="a" cx="526.54" cy="245.43" r="5.44"/><circle class="a" cx="112.01" cy="271.98" r="1.4"/><circle class="a" cx="153.36" cy="330" r="4.98"/><circle class="a" cx="153.36" cy="325.78" r="2.63"/><circle class="a" cx="162.41" cy="321.45" r="1.43"/><circle class="a" cx="105.66" cy="399.86" r="11.38"/><circle class="a" cx="94.28" cy="397.26" r="6.24"/><circle class="a" cx="73.27" cy="412.57" r="1.52"/><circle class="a" cx="110.64" cy="499.58" r="8.4"/><circle class="a" cx="103.57" cy="494.65" r="5.94"/><circle class="a" cx="119.04" cy="500.58" r="1.39"/><circle class="a" cx="97.63" cy="515.93" r="1.39"/><circle class="a" cx="92.49" cy="501.48" r="0.5"/><circle class="a" cx="150.12" cy="530.74" r="2"/><circle class="a" cx="527.95" cy="240.46" r="3.6"/><circle class="a" cx="535.21" cy="249.57" r="1.3"/><circle class="a" cx="477.48" cy="163.17" r="1.2"/><circle class="a" cx="484.92" cy="175.2" r="7.44"/><circle class="a" cx="489.21" cy="169.27" r="2.77"/><circle class="a" cx="524.35" cy="186.6" r="2.77"/><circle class="a" cx="387.26" cy="177.49" r="3.6"/><circle class="a" cx="394.52" cy="186.6" r="1.3"/><path class="a" d="M139.57,459.77a56,56,0,0,0,23.42,59l.09-72.12a6,6,0,0,1,1-3.3V396.65a6,6,0,0,1,3.49-5.45L231,361.92,220.75,328.8a15,15,0,0,0-8.9,14.85,15.5,15.5,0,0,0,.77,3.7A47.48,47.48,0,0,0,201,357.51a15,15,0,0,0-10.5-6.41,7.58,7.58,0,1,0-13.93,6,14.94,14.94,0,0,0,0,17.8A56.12,56.12,0,0,0,143,416.57a22.37,22.37,0,0,0-3.41,43.2Z"/><path class="a" d="M549.29,318.45a48,48,0,0,0-8.1-7.77,15,15,0,0,0-12.72-22.92,14.8,14.8,0,0,0-3.74.49,47.75,47.75,0,0,0-21.91-21.15,55.93,55.93,0,0,0-24.81-46,12.11,12.11,0,0,0-22.53-8.81,56.21,56.21,0,0,0-40,8.93,56,56,0,0,0-56.3-11.61C409.41,262,477.37,314.83,549.29,318.45Z"/><circle class="a" cx="645.32" cy="869.63" r="2.74"/><circle class="a" cx="854.77" cy="861.4" r="2.74"/><circle class="a" cx="901.09" cy="843.94" r="6.79"/><circle class="a" cx="901.09" cy="852.5" r="3.56"/><circle class="a" cx="539.49" cy="882.3" r="12.67"/><circle class="a" cx="530.36" cy="892.65" r="5.04"/><circle class="a" cx="434.95" cy="887.61" r="3.56"/><circle class="a" cx="156.59" cy="790.2" r="8.41"/><circle class="a" cx="164.79" cy="793.65" r="4.29"/><circle class="a" cx="264.08" cy="842.54" r="3.81"/><circle class="a" cx="356.1" cy="892.65" r="6.04"/><circle class="a" cx="360.38" cy="898.69" r="2.78"/><circle class="a" cx="232.13" cy="819.76" r="1"/><path class="a" d="M509.22,848.54a41,41,0,0,0,35.17,0Z"/><path class="a" d="M639.81,808.39c-4.69-15.11-17-31.37-33.11-31.37a27.28,27.28,0,0,0-12,3L582,843.71a6,6,0,0,1-5.89,4.83H544.88a41,41,0,0,0,38.54,27.11,41.92,41.92,0,0,0,7.13-.63,2.59,2.59,0,0,0-.08.63,2.74,2.74,0,1,0,4.82-1.76,41,41,0,0,0,28.28-31.15,59.37,59.37,0,0,0,33.86-3A84.81,84.81,0,0,1,639.81,808.39Z"/><path class="a" d="M349.17,848.54a6,6,0,0,1-6-6l-.05-38.88-81-36.75a31.74,31.74,0,0,0,3,6.19,32,32,0,0,0,8.5,19.39,10.52,10.52,0,1,0,12.06,17A32.22,32.22,0,0,0,298.16,821a51,51,0,0,0,12,18.75,13.29,13.29,0,0,0-2.89,8.29c0,.15,0,.3,0,.45h0a3.07,3.07,0,1,0,0,6.14,3,3,0,0,0,1.51-.42,13.34,13.34,0,0,0,24.26-1.3,51.44,51.44,0,0,0,13.16,1.72c.7,0,1.4,0,2.09-.06a32.15,32.15,0,0,0,52.24,3.09A32.2,32.2,0,0,0,416,848.54Z"/><path class="a" d="M222,748.69a10.32,10.32,0,0,0-.36,2.68,10.46,10.46,0,0,0,1.93,6.06,4.42,4.42,0,1,0,7.51,4.41c.36,0,.72,0,1.08,0A10.48,10.48,0,0,0,239,759.3a2.69,2.69,0,0,0,5.34-.43h0Z"/><path class="a" d="M861.88,779.11c-14.38,25.37-35,46.62-60.67,62.66a59.4,59.4,0,0,0,70.46-83.06A167.43,167.43,0,0,1,861.88,779.11Z"/><path class="b" d="M770.26,541.92c-14.69,25.56-44.92,75.84-67.27,114.15l-9.67-11.53-7.89-3.9H682.1v41.49a4.62,4.62,0,0,1,1,0l4.16,1.36c-1.51,2.69-2.9,5.2-4.16,7.49,16,1.09,30.82,38.19,13.6,44.45-18,5.07-34.8-37.72-70.63-42.87h0a80.19,80.19,0,0,0-19.57-2.4l31.31-156.88h9.3l45-90v-46.6L665.76,410l-4.42,33.24H585.72l7.36-3.51L575.69,405l17.39-8.3-36-72-76.63,36.4C391.45,330.36,313.1,239,266,173.2L245,103.83,161.65,88.42,143.08,36.65l9,50L252.14,409.91l-83.06,36.71-.15,112,.21.41,27.94-13v80.1l-54,2.45V597.68l-40.5,37-12.3,10.8L61.32,619v51.91l41.26,37.7,40.5,37v-27h27l179,81.23.06,42.75H468.06V792.45l-15.11,0-22-72.73,45.4-45.38-9.07-9.5h0l9.07,9.5.72-.74V655.09l57-57L494.32,792.49l-10.22,0,0,50h0l0,.12h92l13.27-66.48c25.7-15,48.53,5.83,56.21,30.55,8.35,26.92,30.29,47.63,58,52.72,1,.19,2.05.36,3.07.52l0-.19c20.12,3.1,41.08,1.09,59.38-6.83h0C912.78,794.38,915.73,603.84,770.26,541.92ZM400.14,489.25l-.1-.47,3.31-1.58v.42ZM344.28,707.6l-3.2-1.45v-8.89Zm78.64-239.74-.52-2.4-.93.45-18.12-24.33v19.26l-10.53-48.1a231.53,231.53,0,0,0,25.24,10.9v14.67l2.26.82,7.84,35.76Zm-40.13-60.42-40.32,19.15L324.17,366C342.81,381.92,362.44,396.13,382.79,407.44ZM268.22,461.86,257.33,467V426.67Zm27,120,15,15.71,7.13,23-114.2,5.19ZM390,584,377.5,542.63l27.85-13.29,4.23,2.41,26.7-15-.17-5.62.69,3.15,102.28-48.82v1l-.32-.32L405.12,599.8Z"/><path class="c" d="M476.39,674.39l.72-.74V655.09l57-57L494.32,792.49l-9.23,0,0,50h0l0,.11h91l13.27-66.48c25.7-15,48.53,5.83,56.21,30.55,8.35,26.92,30.29,47.63,58,52.72,1,.19,2.05.36,3.07.52l0-.19c20.12,3.1,41.08,1.09,59.38-6.83h0c146.75-58.45,149.7-249,4.23-310.91-14.69,25.56-44.92,75.84-67.27,114.15l-9.67-11.53-7.89-3.9H682.1v41.49a4.62,4.62,0,0,1,1,0l4.16,1.36c-1.51,2.69-2.9,5.2-4.16,7.49,16,1.09,30.82,38.19,13.6,44.45-18,5.07-34.8-37.72-70.63-42.87h0a80.19,80.19,0,0,0-19.57-2.4l31.31-156.88h9.3l45-90v-46.6L665.76,410l-4.42,33.24H585.72l7.36-3.51L575.69,405l17.39-8.3-36-72-76.63,36.4C391.45,330.36,313.1,239,266,173.2L245,103.83,161.65,88.42,143.08,36.65l9,50L252.14,409.91l-82,36.71-.15,112,.21.41,26.89-13v80.1l-54,2.45V597.68l-40.5,37-12.3,10.8L62.08,619.7v51.92l40.5,37,40.5,37v-27h27l179,81.23.06,42.75H467.08V792.45l-14.13,0-22-72.73,45.4-45.38M400.14,489.25l-.1-.47,3.31-1.58v.42ZM344.28,707.6l-3.2-1.45v-8.89Zm78.64-239.74-.52-2.4-.93.45-17.35-24.33-.77,19.26-10.53-48.1a231.53,231.53,0,0,0,25.24,10.9v14.67l2.26.82,7.84,35.76Zm-40.13-60.42-40.32,19.15L324.17,366C342.81,381.92,362.44,396.13,382.79,407.44ZM268.22,461.86,257.33,467V426.67Zm27,120,15,15.71,7.13,23-114.2,5.19ZM390,584,377.5,542.63l27.85-13.29,4.23,2.41,26.7-15-.17-5.62.69,3.15,102.28-48.82v1l-.32-.32L405.12,599.8Z"/><path class="d" d="M770.26,491.44c-20,34.72-68.57,115-87.18,149,16,1.08,30.82,38.18,13.6,44.44-18,5.07-34.8-37.72-70.63-42.87h0a80,80,0,0,0-19.66-2.4l31.29-153h9.41l45-90h-99l-36-72C386.08,324.65,236,53.83,236,53.83L143.08,36.65,244,362.55l-73.88,34.1v112l27-12.7v78.28l-54,2.46V545.76l-40.5,37-40.5,37,81,73.95v-27l27-1.23v1.23L340.33,743.9l9.75,48.75h117l-27-135H424.86l-4.61-14.74,8.68,9.09,47.46-47.45-9.07-9.5,73.14-73.14L485.08,792.65h90l13.65-66.74c25.95-15.63,49.08,5.31,56.81,30.23,8.35,26.91,30.29,47.62,58,52.71,1,.19,2.05.36,3.07.52l0-.18c20.12,3.09,41.08,1.09,59.38-6.84h0C912.78,743.9,915.73,553.37,770.26,491.44ZM223.61,573l74.48-35.55,9.82,31.72Zm181.51-43L376.5,500l32.08-15.31-17.76-81.08L351.28,422.4,309.89,290.05c39.31,39.55,84.51,73.87,132.35,89.15l-23.2,11,17.76,81,51.75-24.7Z"/><polygon class="d" points="422.4 432.79 404.33 441.37 415.7 493.26 433.76 484.64 422.4 432.79"/><path class="e" d="M287.62,341.8a1,1,0,0,0-1-.06l-27.44,12.67a1,1,0,1,0,.84,1.81l26-12v35a1,1,0,0,0,2,0V342.65A1,1,0,0,0,287.62,341.8Z"/><path class="e" d="M852.32,557.2c-18.86-28.91-47.11-52-81.67-66.68a1,1,0,0,0-1.26.43c-7.79,13.55-20,34.21-33,56.08-20.07,33.85-42.83,72.22-54.17,93a1,1,0,0,0,.8,1.47c9.29.64,18.42,14.79,20.08,26.54.68,4.8.71,13.26-6.68,16-7.83,2.2-15.59-5.46-25.42-15.14-11.28-11.12-25.32-25-44.8-27.76h0a81.63,81.63,0,0,0-18.55-2.39l30.89-151h8.59a1,1,0,0,0,.9-.56l45-90a1,1,0,0,0-.05-1,1,1,0,0,0-.85-.47H593.7L558,324.2a1,1,0,0,0-.9-.55c-88,0-170.29-73.44-223.88-135C275,121.76,237.26,54,236.88,53.35l0,0c0-.06-.09-.11-.13-.16a1.42,1.42,0,0,0-.13-.12.6.6,0,0,0-.16-.08.56.56,0,0,0-.2-.08.05.05,0,0,0,0,0L143.26,35.66a1,1,0,0,0-.93.32,1,1,0,0,0-.2,1L242.74,362l-73.08,33.73a1,1,0,0,0-.58.91v111.7a1,1,0,0,0,1,1,1.07,1.07,0,0,0,.43-.09l25.57-12v76l-52,2.36V545.76a1,1,0,0,0-.59-.91,1,1,0,0,0-1.08.17l-81,74a1,1,0,0,0,0,1.47l81,73.95a1,1,0,0,0,.67.26,1,1,0,0,0,.41-.09,1,1,0,0,0,.59-.91v-26l25-1.13v.18a1,1,0,0,0,.59.91l169.78,77,9.65,48.24a1,1,0,0,0,1,.81h117a1,1,0,0,0,.78-.37,1,1,0,0,0,.2-.83l-27-135a1,1,0,0,0-1-.8h0l-14.48.05-3.09-10,5.7,6h1.43l47.46-47.44v-1.4l-8.4-8.79,70.1-70.1L484.1,792.45a1,1,0,0,0,1,1.2h90a1,1,0,0,0,1-.8l13.56-66.29c9.14-5.39,18.66-6.46,27.54-3.08,12,4.58,22.54,17.21,27.42,32.95,8.65,27.87,31.18,48.33,58.79,53.41,1,.19,2.06.36,3.09.52a.94.94,0,0,0,.62-.1,118.1,118.1,0,0,0,17.45,1.3,106,106,0,0,0,41.87-8.28C834.89,776,877.93,716.43,878.73,647.79A161.68,161.68,0,0,0,852.32,557.2ZM765.64,801.43c-17.38,7.53-38.27,9.94-58.83,6.77a1,1,0,0,0-.58.1c-.83-.13-1.66-.28-2.49-.43-26.89-4.94-48.82-24.88-57.25-52-5.06-16.32-16-29.43-28.61-34.22-9.61-3.66-19.86-2.47-29.66,3.43a17.7,17.7,0,0,0-5.68,6.22,1,1,0,1,0,1.75,1,16.6,16.6,0,0,1,2.9-3.79l-12.92,63.2h-88L543.6,511.56a1,1,0,0,0-.78-1.18,1,1,0,0,0-1.06.5,1.37,1.37,0,0,0-.2.13L531,521.57a1,1,0,0,0,0,1.41,1,1,0,0,0,.71.3,1,1,0,0,0,.71-.3l8.55-8.55-1.43,7-72.21,72.21-1.87-2a1,1,0,0,0-1.42,0,1,1,0,0,0,0,1.41l2.6,2.72h0l8.38,8.78-46,46-7.76-8.13L419,635.37a1,1,0,0,0-1.25-.66,1,1,0,0,0-.66,1.25l6.42,20.75-11.8,0a1,1,0,0,0,0,2h0l27.54-.1,26.6,133h-115l-9.59-47.95a.15.15,0,0,0,0-.07.64.64,0,0,0-.08-.19.86.86,0,0,0-.1-.16.46.46,0,0,0-.12-.12.75.75,0,0,0-.18-.13l-.06,0L171.83,666.34l34.45-1.56a1,1,0,0,0-.09-2L143,665.65a1,1,0,0,0-.17,0,1.17,1.17,0,0,0-.2,0l-.15.1a1.67,1.67,0,0,0-.16.12,1.3,1.3,0,0,0-.1.15.75.75,0,0,0-.1.17.65.65,0,0,0,0,.2.85.85,0,0,0,0,.17v24.73L63.57,619.7,142.08,548v28.64s0,0,0,0a1.46,1.46,0,0,0,0,.2.94.94,0,0,0,0,.16,1.22,1.22,0,0,0,.12.19l.1.12a.72.72,0,0,0,.2.14l.11.07a1,1,0,0,0,.38.08h0l53-2.41v10.41a1,1,0,0,0,.47.84.94.94,0,0,0,.53.16.91.91,0,0,0,.43-.1L223.86,574l83.32-3.79,26.95,87.06-36.2,1.36a1,1,0,0,0-1,1,1,1,0,0,0,1,1h0l45.29-1.7a1,1,0,1,0-.08-2l-7,.26L299.3,538l9-4.31a1,1,0,0,0-.86-1.81l-9.82,4.69-.06,0-.07,0-74.35,35.48h0l-25.1,12V496.31l26.36-12.41a1,1,0,0,0-.85-1.81l-26.78,12.6-.08,0h-.07l-25.58,12V397.29l72.26-33.35,29.31,94.7-7.32,3.48a1,1,0,0,0,.43,1.91,1.12,1.12,0,0,0,.43-.1l7.9-3.75.08,0a.92.92,0,0,0,.35-.19l9.54-4.53a1,1,0,0,0,.47-1.33,1,1,0,0,0-1.33-.48l-8.72,4.15-130-419.85,90.84,16.8c3.22,5.72,40.35,70.85,96.3,135.17,34.25,39.37,68.75,70.75,102.55,93.26,42.1,28,83.22,42.34,122.24,42.49l35.27,70.53L437.5,469.79l-17.31-79,27.08-12.86a1,1,0,0,0-.86-1.81l-4.24,2c-47.28-15.19-96.87-50.61-147.39-105.29a1,1,0,0,0-1.47,1.36q8,8.61,15.89,16.58L349.82,422l-3.55,1.69a1,1,0,1,0,.86,1.8l43-20.41,17.33,79.07-31.37,15h0l-5.32,2.54a1,1,0,0,0,.43,1.9,1.07,1.07,0,0,0,.43-.09l4.67-2.23,31.58,33a1,1,0,0,0,.72.31,1,1,0,0,0,.69-.28,1,1,0,0,0,0-1.41L406.52,530l82.62-82.62,104.17-49.71h97.15l-44,88H626.53a1,1,0,0,0-.8,1.57l-2.58,12.6a1,1,0,0,0,.78,1.17l.2,0a1,1,0,0,0,1-.8l2.57-12.57h8.77l-30.88,151c-2.15,0-7.8,0-11.18,1.31a1,1,0,1,0,.72,1.86c3.43-1.33,9.86-1.19,11.06-1.16h0a.75.75,0,0,0,.21,0h.3A79.7,79.7,0,0,1,625.8,643a1.07,1.07,0,0,0,.25,0c18.76,2.76,32.49,16.3,43.53,27.18C679.47,680,688,688.39,697,685.85c6.42-2.33,9.35-8.94,8.05-18.13-1.71-12.13-10.62-26.11-20.41-28.05,11.55-21,33.78-58.47,53.44-91.62,12.73-21.47,24.77-41.76,32.58-55.34,66.23,28.54,106.84,87.87,106.05,155.06C875.94,715.58,833.38,774.45,765.64,801.43ZM297.48,538.84l9.09,29.37-78.08,3.55Zm80.7-38.52L409,485.61a1,1,0,0,0,.55-1.12L391.8,403.41a1,1,0,0,0-.54-.68,1,1,0,0,0-.87,0l-38.75,18.4L312.23,293.81c43.53,43.16,86.26,71.88,127.33,85.55l-20.94,9.95a1,1,0,0,0-.55,1.12l17.75,81a1,1,0,0,0,.54.69,1.13,1.13,0,0,0,.44.1,1,1,0,0,0,.43-.1L483.73,450l-78.59,78.59Z"/><circle class="e" cx="287.08" cy="391.37" r="1"/><circle class="e" cx="416.49" cy="631.04" r="1"/><path class="e" d="M524.2,528.52a1,1,0,0,0,.53,1.93,1,1,0,0,0,.7-1.23A1,1,0,0,0,524.2,528.52Z"/><circle class="e" cx="622.91" cy="506.02" r="1"/><circle class="e" cx="289.32" cy="268.68" r="1"/><path class="e" d="M287.08,382.46a1,1,0,0,0-1,1v2.74a1,1,0,0,0,2,0v-2.74A1,1,0,0,0,287.08,382.46Z"/><path class="e" d="M528.71,523.83l-1.6,1.6a1,1,0,0,0,0,1.41,1,1,0,0,0,1.41,0l1.6-1.6a1,1,0,0,0-1.41-1.41Z"/><circle class="e" cx="582.42" cy="735.28" r="1"/><path class="e" d="M423.37,432.58a1,1,0,0,0-.53-.69,1,1,0,0,0-.87,0l-18.07,8.58a1,1,0,0,0-.55,1.11l11.37,51.9a1,1,0,0,0,.54.68,1,1,0,0,0,.44.1,1,1,0,0,0,.43-.09l18.06-8.62a1,1,0,0,0,.55-1.12Zm-7,59.24-10.93-49.89,16.21-7.7,10.92,49.85Z"/></svg>