<svg xmlns="http://www.w3.org/2000/svg" xmlns:xlink="http://www.w3.org/1999/xlink" viewBox="0 0 400 400"><defs><style>.a{fill:url(#a);}.b{fill:url(#b);}</style><linearGradient id="a" x1="17.42" y1="12.39" x2="380.41" y2="388.19" gradientUnits="userSpaceOnUse"><stop offset="0" stop-color="#e1434b"/><stop offset="0.06" stop-color="#e34248"/><stop offset="1" stop-color="#9e55a0"/></linearGradient><linearGradient id="b" x1="23.33" y1="6.69" x2="386.32" y2="382.49" xlink:href="#a"/></defs><polygon class="a" points="240 90 240 10 160 10 80 10 0 10 0 90 80 90 80 310 160 310 160 90 240 90"/><path class="b" d="M290,110A110,110,0,0,0,180,220V390h80V325.86A110,110,0,1,0,290,110Zm0,140a30,30,0,1,1,30-30A30,30,0,0,1,290,250Z"/></svg>