<svg width="375" height="812" viewBox="0 0 375 812" fill="none" xmlns="http://www.w3.org/2000/svg">
<g clip-path="url(#clip0_6_191)">
<rect width="375" height="812" fill="white"/>
<g clip-path="url(#clip1_6_191)">
<path d="M375 0H0V934H375V0Z" fill="#4A43BF"/>
<path d="M349 464H26C22.6863 464 20 466.686 20 470V508C20 511.314 22.6863 514 26 514H349C352.314 514 355 511.314 355 508V470C355 466.686 352.314 464 349 464Z" fill="#5F57FF"/>
<g opacity="0.7">
<path d="M115.996 495V483.64H118.284V495H115.996ZM120.631 495V487.176H122.727V488.2H122.743C123.367 487.448 124.215 487.064 125.079 487.064C126.103 487.064 126.919 487.448 127.383 488.296H127.415C128.055 487.48 129.031 487.064 130.151 487.064C131.831 487.064 132.903 488.072 132.903 490.472V495H130.807V490.968C130.807 489.72 130.423 488.936 129.447 488.936C128.567 488.936 127.847 489.688 127.847 491.096V495H125.751V490.968C125.751 489.72 125.335 488.936 124.375 488.936C123.431 488.936 122.727 489.688 122.727 491.096V495H120.631ZM134.865 498.168V487.176H136.961V488.072H136.993C137.553 487.416 138.385 487.064 139.345 487.064C141.457 487.064 143.041 488.744 143.041 491.112C143.041 493.528 141.457 495.144 139.281 495.144C138.305 495.144 137.537 494.776 136.993 494.12L136.961 494.136V498.168H134.865ZM138.913 493.256C140.081 493.256 140.913 492.376 140.913 491.128C140.913 489.784 140.017 488.936 138.897 488.936C137.697 488.936 136.865 489.864 136.865 491.128C136.865 492.408 137.761 493.256 138.913 493.256ZM144.693 495V487.176H146.789V488.312H146.821C147.413 487.512 148.261 487.064 149.173 487.064H149.333V489.352C149.109 489.336 148.901 489.336 148.773 489.336C147.477 489.336 146.789 490.2 146.789 491.384V495H144.693ZM154.171 495.144C151.675 495.144 150.011 493.432 150.011 491.096C150.011 488.76 151.675 487.064 154.171 487.064C156.603 487.064 158.315 488.696 158.315 491.096C158.315 493.48 156.603 495.144 154.171 495.144ZM154.171 493.256C155.291 493.256 156.187 492.376 156.187 491.096C156.187 489.816 155.323 488.936 154.171 488.936C152.955 488.936 152.139 489.864 152.139 491.096C152.139 492.312 152.971 493.256 154.171 493.256ZM161.793 495L158.721 487.176H160.961L162.769 492.424H162.785L164.625 487.176H166.817L163.745 495H161.793ZM174.895 491.016C174.895 491.272 174.863 491.64 174.847 491.768H169.359C169.615 492.712 170.367 493.272 171.423 493.272C172.303 493.272 172.911 492.904 173.327 492.392L174.687 493.656C174.031 494.504 173.023 495.144 171.279 495.144C168.879 495.144 167.183 493.528 167.183 491.08C167.183 488.696 168.831 487.064 171.151 487.064C173.359 487.064 174.895 488.728 174.895 491.016ZM171.135 488.888C170.287 488.888 169.615 489.368 169.375 490.264H172.815C172.607 489.432 172.047 488.888 171.135 488.888ZM180.631 495V487.176H182.727V488.2H182.743C183.367 487.448 184.215 487.064 185.079 487.064C186.103 487.064 186.919 487.448 187.383 488.296H187.415C188.055 487.48 189.031 487.064 190.151 487.064C191.831 487.064 192.903 488.072 192.903 490.472V495H190.807V490.968C190.807 489.72 190.423 488.936 189.447 488.936C188.567 488.936 187.847 489.688 187.847 491.096V495H185.751V490.968C185.751 489.72 185.335 488.936 184.375 488.936C183.431 488.936 182.727 489.688 182.727 491.096V495H180.631ZM195.434 498.168L196.826 494.52L193.69 487.176H195.93L197.834 491.976H197.866L199.642 487.176H201.77L197.562 498.168H195.434ZM207.177 495V487.176H209.273V488.312H209.305C209.897 487.512 210.745 487.064 211.657 487.064H211.817V489.352C211.593 489.336 211.385 489.336 211.257 489.336C209.961 489.336 209.273 490.2 209.273 491.384V495H207.177ZM220.207 491.016C220.207 491.272 220.175 491.64 220.159 491.768H214.671C214.927 492.712 215.679 493.272 216.735 493.272C217.615 493.272 218.223 492.904 218.639 492.392L219.999 493.656C219.343 494.504 218.335 495.144 216.591 495.144C214.191 495.144 212.495 493.528 212.495 491.08C212.495 488.696 214.143 487.064 216.463 487.064C218.671 487.064 220.207 488.728 220.207 491.016ZM216.447 488.888C215.599 488.888 214.927 489.368 214.687 490.264H218.127C217.919 489.432 217.359 488.888 216.447 488.888ZM224.362 495.144C223.114 495.144 222.042 494.728 221.194 493.992L222.202 492.536C222.842 493.128 223.514 493.432 224.378 493.432C224.986 493.432 225.322 493.176 225.322 492.792C225.322 492.456 224.922 492.28 223.914 491.944C222.618 491.512 221.498 490.904 221.498 489.384C221.498 487.976 222.714 487.064 224.33 487.064C225.402 487.064 226.282 487.352 227.178 488.04L226.154 489.592C225.562 489.016 224.858 488.76 224.282 488.76C223.962 488.76 223.546 488.92 223.546 489.336C223.546 489.656 223.93 489.88 224.698 490.168C226.394 490.792 227.386 491.16 227.386 492.712C227.386 494.088 226.41 495.144 224.362 495.144ZM231.695 495.144C229.999 495.144 228.815 494.28 228.815 491.896V487.176H230.895V491.352C230.895 492.776 231.327 493.256 232.303 493.256C233.215 493.256 234.031 492.488 234.031 490.984V487.176H236.143V495H234.031V494.072L233.999 494.056C233.407 494.776 232.575 495.144 231.695 495.144ZM238.162 495V487.176H240.258V488.2H240.274C240.898 487.448 241.746 487.064 242.61 487.064C243.634 487.064 244.45 487.448 244.914 488.296H244.946C245.586 487.48 246.562 487.064 247.682 487.064C249.362 487.064 250.434 488.072 250.434 490.472V495H248.338V490.968C248.338 489.72 247.954 488.936 246.978 488.936C246.098 488.936 245.378 489.688 245.378 491.096V495H243.282V490.968C243.282 489.72 242.866 488.936 241.906 488.936C240.962 488.936 240.258 489.688 240.258 491.096V495H238.162ZM259.676 491.016C259.676 491.272 259.644 491.64 259.628 491.768H254.14C254.396 492.712 255.148 493.272 256.204 493.272C257.084 493.272 257.692 492.904 258.108 492.392L259.468 493.656C258.812 494.504 257.804 495.144 256.06 495.144C253.66 495.144 251.964 493.528 251.964 491.08C251.964 488.696 253.612 487.064 255.932 487.064C258.14 487.064 259.676 488.728 259.676 491.016ZM255.916 488.888C255.068 488.888 254.396 489.368 254.156 490.264H257.596C257.388 489.432 256.828 488.888 255.916 488.888Z" fill="white"/>
<path d="M59 478H41C39.8954 478 39 478.895 39 480V498C39 499.105 39.8954 500 41 500H59C60.1046 500 61 499.105 61 498V480C61 478.895 60.1046 478 59 478Z" stroke="white" stroke-width="2"/>
</g>
<path d="M349 534H26C22.6863 534 20 536.686 20 540V578C20 581.314 22.6863 584 26 584H349C352.314 584 355 581.314 355 578V540C355 536.686 352.314 534 349 534Z" fill="#5F57FF"/>
<g opacity="0.7">
<path d="M110.284 565V553.64H114.492C117.244 553.64 118.444 555.24 118.444 557.416C118.444 559.912 116.764 561.112 114.268 561.112H112.508V565H110.284ZM112.508 559.128H114.028C115.436 559.128 116.108 558.424 116.108 557.384C116.108 556.328 115.436 555.64 114.14 555.64H112.508V559.128ZM120.045 565V557.176H122.141V558.312H122.173C122.765 557.512 123.613 557.064 124.525 557.064H124.685V559.352C124.461 559.336 124.253 559.336 124.125 559.336C122.829 559.336 122.141 560.2 122.141 561.384V565H120.045ZM129.122 565.144C126.978 565.144 125.394 563.528 125.394 561.112C125.394 558.744 126.978 557.064 129.074 557.064C129.986 557.064 130.818 557.416 131.378 558.088L131.41 558.072V557.176H133.506V565H131.506V564.072L131.474 564.056C130.93 564.76 130.146 565.144 129.122 565.144ZM129.522 563.256C130.594 563.256 131.506 562.408 131.506 561.128C131.506 559.864 130.642 558.936 129.522 558.936C128.386 558.936 127.522 559.784 127.522 561.128C127.522 562.376 128.338 563.256 129.522 563.256ZM139.098 565.144C136.762 565.144 135.066 563.512 135.066 561.112C135.066 558.696 136.746 557.064 139.162 557.064C140.378 557.064 141.658 557.512 142.474 558.472L141.098 559.768C140.682 559.256 140.042 558.936 139.306 558.936C138.042 558.936 137.194 559.816 137.194 561.096C137.194 562.392 138.058 563.256 139.306 563.256C140.106 563.256 140.73 562.92 141.146 562.408L142.506 563.72C141.834 564.552 140.762 565.144 139.098 565.144ZM146.367 565.144C145.023 565.144 144.143 564.296 144.143 562.536V558.92H143.215V557.176H144.143V554.632L146.239 554.408V557.176H148.351V558.92H146.239V562.232C146.239 562.92 146.415 563.24 146.911 563.24C147.167 563.24 147.551 563.144 147.903 562.968L148.431 564.648C147.935 564.92 147.423 565.144 146.367 565.144ZM150.979 556.12C150.211 556.12 149.651 555.544 149.651 554.824C149.651 554.12 150.211 553.544 150.979 553.544C151.731 553.544 152.307 554.12 152.307 554.824C152.307 555.544 151.731 556.12 150.979 556.12ZM149.907 565V557.176H152.003V565H149.907ZM157.786 565.144C155.45 565.144 153.754 563.512 153.754 561.112C153.754 558.696 155.434 557.064 157.85 557.064C159.066 557.064 160.346 557.512 161.162 558.472L159.786 559.768C159.37 559.256 158.73 558.936 157.994 558.936C156.73 558.936 155.882 559.816 155.882 561.096C155.882 562.392 156.746 563.256 157.994 563.256C158.794 563.256 159.418 562.92 159.834 562.408L161.194 563.72C160.522 564.552 159.45 565.144 157.786 565.144ZM169.919 561.016C169.919 561.272 169.887 561.64 169.871 561.768H164.383C164.639 562.712 165.391 563.272 166.447 563.272C167.327 563.272 167.935 562.904 168.351 562.392L169.711 563.656C169.055 564.504 168.047 565.144 166.303 565.144C163.903 565.144 162.207 563.528 162.207 561.08C162.207 558.696 163.855 557.064 166.175 557.064C168.383 557.064 169.919 558.728 169.919 561.016ZM166.159 558.888C165.311 558.888 164.639 559.368 164.399 560.264H167.839C167.631 559.432 167.071 558.888 166.159 558.888ZM176.823 556.12C176.055 556.12 175.495 555.544 175.495 554.824C175.495 554.12 176.055 553.544 176.823 553.544C177.575 553.544 178.151 554.12 178.151 554.824C178.151 555.544 177.575 556.12 176.823 556.12ZM175.751 565V557.176H177.847V565H175.751ZM180.03 565V557.176H182.126V558.184H182.158C182.782 557.448 183.678 557.064 184.654 557.064C186.318 557.064 187.486 557.96 187.486 560.36V565H185.39V560.888C185.39 559.4 184.862 558.936 183.886 558.936C182.83 558.936 182.126 559.672 182.126 561.08V565H180.03ZM191.852 565.144C190.508 565.144 189.628 564.296 189.628 562.536V558.92H188.7V557.176H189.628V554.632L191.724 554.408V557.176H193.836V558.92H191.724V562.232C191.724 562.92 191.9 563.24 192.396 563.24C192.652 563.24 193.036 563.144 193.388 562.968L193.916 564.648C193.42 564.92 192.908 565.144 191.852 565.144ZM202.231 561.016C202.231 561.272 202.199 561.64 202.183 561.768H196.695C196.951 562.712 197.703 563.272 198.759 563.272C199.639 563.272 200.247 562.904 200.663 562.392L202.023 563.656C201.367 564.504 200.359 565.144 198.615 565.144C196.215 565.144 194.519 563.528 194.519 561.08C194.519 558.696 196.167 557.064 198.487 557.064C200.695 557.064 202.231 558.728 202.231 561.016ZM198.471 558.888C197.623 558.888 196.951 559.368 196.711 560.264H200.151C199.943 559.432 199.383 558.888 198.471 558.888ZM203.858 565V557.176H205.954V558.312H205.986C206.578 557.512 207.426 557.064 208.338 557.064H208.498V559.352C208.274 559.336 208.066 559.336 207.938 559.336C206.642 559.336 205.954 560.2 205.954 561.384V565H203.858ZM212.114 565L209.042 557.176H211.282L213.09 562.424H213.106L214.946 557.176H217.138L214.066 565H212.114ZM219.604 556.12C218.836 556.12 218.276 555.544 218.276 554.824C218.276 554.12 218.836 553.544 219.604 553.544C220.356 553.544 220.932 554.12 220.932 554.824C220.932 555.544 220.356 556.12 219.604 556.12ZM218.532 565V557.176H220.628V565H218.532ZM230.091 561.016C230.091 561.272 230.059 561.64 230.043 561.768H224.555C224.811 562.712 225.563 563.272 226.619 563.272C227.499 563.272 228.107 562.904 228.523 562.392L229.883 563.656C229.227 564.504 228.219 565.144 226.475 565.144C224.075 565.144 222.379 563.528 222.379 561.08C222.379 558.696 224.027 557.064 226.347 557.064C228.555 557.064 230.091 558.728 230.091 561.016ZM226.331 558.888C225.483 558.888 224.811 559.368 224.571 560.264H228.011C227.803 559.432 227.243 558.888 226.331 558.888ZM233.168 565L230.528 557.176H232.64L234.144 561.96H234.16L235.552 557.176H237.232L238.64 561.96H238.672L240.16 557.176H242.256L239.6 565H237.792L236.384 560.248H236.368L234.976 565H233.168ZM244.744 556.12C243.976 556.12 243.416 555.544 243.416 554.824C243.416 554.12 243.976 553.544 244.744 553.544C245.496 553.544 246.072 554.12 246.072 554.824C246.072 555.544 245.496 556.12 244.744 556.12ZM243.672 565V557.176H245.768V565H243.672ZM247.951 565V557.176H250.047V558.184H250.079C250.703 557.448 251.599 557.064 252.575 557.064C254.239 557.064 255.407 557.96 255.407 560.36V565H253.311V560.888C253.311 559.4 252.783 558.936 251.807 558.936C250.751 558.936 250.047 559.672 250.047 561.08V565H247.951ZM260.894 568.296C259.694 568.296 258.622 568.04 257.694 567.512L258.19 565.736C258.958 566.168 259.71 566.472 260.734 566.472C262.19 566.472 262.926 565.672 262.926 564.744V563.96H262.894C262.334 564.536 261.55 564.856 260.622 564.856C258.478 564.856 256.894 563.288 256.894 561.016C256.894 558.712 258.43 557.064 260.51 557.064C261.374 557.064 262.222 557.368 262.862 557.992H262.894V557.176H264.99V564.104C264.99 566.552 263.918 568.296 260.894 568.296ZM261.006 562.968C262.158 562.968 262.974 562.12 262.974 560.936C262.974 559.752 262.126 558.952 261.006 558.952C259.838 558.952 259.022 559.768 259.022 560.952C259.022 562.184 259.886 562.968 261.006 562.968Z" fill="white"/>
<path d="M59 548H41C39.8954 548 39 548.895 39 550V568C39 569.105 39.8954 570 41 570H59C60.1046 570 61 569.105 61 568V550C61 548.895 60.1046 548 59 548Z" stroke="white" stroke-width="2"/>
</g>
<path d="M349 604H26C22.6863 604 20 606.686 20 610V648C20 651.314 22.6863 654 26 654H349C352.314 654 355 651.314 355 648V610C355 606.686 352.314 604 349 604Z" fill="#5F57FF"/>
<g opacity="0.7">
<path d="M132.884 635V623.64H137.092C139.844 623.64 141.044 625.24 141.044 627.416C141.044 629.912 139.364 631.112 136.868 631.112H135.108V635H132.884ZM135.108 629.128H136.628C138.036 629.128 138.708 628.424 138.708 627.384C138.708 626.328 138.036 625.64 136.74 625.64H135.108V629.128ZM142.741 635V623.224H144.837V635H142.741ZM150.3 635.144C148.156 635.144 146.572 633.528 146.572 631.112C146.572 628.744 148.156 627.064 150.252 627.064C151.164 627.064 151.996 627.416 152.556 628.088L152.588 628.072V627.176H154.684V635H152.684V634.072L152.652 634.056C152.108 634.76 151.324 635.144 150.3 635.144ZM150.7 633.256C151.772 633.256 152.684 632.408 152.684 631.128C152.684 629.864 151.82 628.936 150.7 628.936C149.564 628.936 148.7 629.784 148.7 631.128C148.7 632.376 149.516 633.256 150.7 633.256ZM156.676 635V627.176H158.772V628.184H158.804C159.428 627.448 160.324 627.064 161.3 627.064C162.964 627.064 164.132 627.96 164.132 630.36V635H162.036V630.888C162.036 629.4 161.508 628.936 160.532 628.936C159.476 628.936 158.772 629.672 158.772 631.08V635H156.676ZM170.192 635V627.176H172.288V628.2H172.304C172.928 627.448 173.776 627.064 174.64 627.064C175.664 627.064 176.48 627.448 176.944 628.296H176.976C177.616 627.48 178.592 627.064 179.712 627.064C181.392 627.064 182.464 628.072 182.464 630.472V635H180.368V630.968C180.368 629.72 179.984 628.936 179.008 628.936C178.128 628.936 177.408 629.688 177.408 631.096V635H175.312V630.968C175.312 629.72 174.896 628.936 173.936 628.936C172.992 628.936 172.288 629.688 172.288 631.096V635H170.192ZM184.995 638.168L186.387 634.52L183.251 627.176H185.491L187.395 631.976H187.427L189.203 627.176H191.331L187.123 638.168H184.995ZM200.339 635.144C198.003 635.144 196.307 633.512 196.307 631.112C196.307 628.696 197.987 627.064 200.403 627.064C201.619 627.064 202.899 627.512 203.715 628.472L202.339 629.768C201.923 629.256 201.283 628.936 200.547 628.936C199.283 628.936 198.435 629.816 198.435 631.096C198.435 632.392 199.299 633.256 200.547 633.256C201.347 633.256 201.971 632.92 202.387 632.408L203.747 633.72C203.075 634.552 202.003 635.144 200.339 635.144ZM208.472 635.144C206.328 635.144 204.744 633.528 204.744 631.112C204.744 628.744 206.328 627.064 208.424 627.064C209.336 627.064 210.168 627.416 210.728 628.088L210.76 628.072V627.176H212.856V635H210.856V634.072L210.824 634.056C210.28 634.76 209.496 635.144 208.472 635.144ZM208.872 633.256C209.944 633.256 210.856 632.408 210.856 631.128C210.856 629.864 209.992 628.936 208.872 628.936C207.736 628.936 206.872 629.784 206.872 631.128C206.872 632.376 207.688 633.256 208.872 633.256ZM214.848 635V627.176H216.944V628.312H216.976C217.568 627.512 218.416 627.064 219.328 627.064H219.488V629.352C219.264 629.336 219.056 629.336 218.928 629.336C217.632 629.336 216.944 630.2 216.944 631.384V635H214.848ZM227.878 631.016C227.878 631.272 227.846 631.64 227.83 631.768H222.342C222.598 632.712 223.35 633.272 224.406 633.272C225.286 633.272 225.894 632.904 226.31 632.392L227.67 633.656C227.014 634.504 226.006 635.144 224.262 635.144C221.862 635.144 220.166 633.528 220.166 631.08C220.166 628.696 221.814 627.064 224.134 627.064C226.342 627.064 227.878 628.728 227.878 631.016ZM224.118 628.888C223.27 628.888 222.598 629.368 222.358 630.264H225.798C225.59 629.432 225.03 628.888 224.118 628.888ZM236.784 631.016C236.784 631.272 236.752 631.64 236.736 631.768H231.248C231.504 632.712 232.256 633.272 233.312 633.272C234.192 633.272 234.8 632.904 235.216 632.392L236.576 633.656C235.92 634.504 234.912 635.144 233.168 635.144C230.768 635.144 229.072 633.528 229.072 631.08C229.072 628.696 230.72 627.064 233.04 627.064C235.248 627.064 236.784 628.728 236.784 631.016ZM233.024 628.888C232.176 628.888 231.504 629.368 231.264 630.264H234.704C234.496 629.432 233.936 628.888 233.024 628.888ZM238.411 635V627.176H240.507V628.312H240.539C241.131 627.512 241.979 627.064 242.891 627.064H243.051V629.352C242.827 629.336 242.619 629.336 242.491 629.336C241.195 629.336 240.507 630.2 240.507 631.384V635H238.411Z" fill="white"/>
<path d="M59 618H41C39.8954 618 39 618.895 39 620V638C39 639.105 39.8954 640 41 640H59C60.1046 640 61 639.105 61 638V620C61 618.895 60.1046 618 59 618Z" stroke="white" stroke-width="2"/>
</g>
<path d="M349 674H26C22.6863 674 20 676.686 20 680V718C20 721.314 22.6863 724 26 724H349C352.314 724 355 721.314 355 718V680C355 676.686 352.314 674 349 674Z" fill="#5F57FF"/>
<g opacity="0.7">
<path d="M101.212 705V693.64H105.308C107.724 693.64 109.036 694.6 109.036 696.408C109.036 697.432 108.556 698.472 107.324 698.952V698.984C108.78 699.336 109.612 700.36 109.612 701.864C109.612 703.672 108.396 705 105.868 705H101.212ZM103.436 698.28H105.132C106.108 698.28 106.764 697.88 106.764 696.952C106.764 696.152 106.268 695.624 105.036 695.624H103.436V698.28ZM103.436 703.016H105.548C106.62 703.016 107.276 702.536 107.276 701.576C107.276 700.68 106.62 700.104 105.324 700.104H103.436V703.016ZM118.566 701.016C118.566 701.272 118.534 701.64 118.518 701.768H113.03C113.286 702.712 114.038 703.272 115.094 703.272C115.974 703.272 116.582 702.904 116.998 702.392L118.358 703.656C117.702 704.504 116.694 705.144 114.95 705.144C112.55 705.144 110.854 703.528 110.854 701.08C110.854 698.696 112.502 697.064 114.822 697.064C117.03 697.064 118.566 698.728 118.566 701.016ZM114.806 698.888C113.958 698.888 113.286 699.368 113.046 700.264H116.486C116.278 699.432 115.718 698.888 114.806 698.888ZM123.792 705.144C121.456 705.144 119.76 703.512 119.76 701.112C119.76 698.696 121.44 697.064 123.856 697.064C125.072 697.064 126.352 697.512 127.168 698.472L125.792 699.768C125.376 699.256 124.736 698.936 124 698.936C122.736 698.936 121.888 699.816 121.888 701.096C121.888 702.392 122.752 703.256 124 703.256C124.8 703.256 125.424 702.92 125.84 702.408L127.2 703.72C126.528 704.552 125.456 705.144 123.792 705.144ZM132.373 705.144C129.877 705.144 128.213 703.432 128.213 701.096C128.213 698.76 129.877 697.064 132.373 697.064C134.805 697.064 136.517 698.696 136.517 701.096C136.517 703.48 134.805 705.144 132.373 705.144ZM132.373 703.256C133.493 703.256 134.389 702.376 134.389 701.096C134.389 699.816 133.525 698.936 132.373 698.936C131.157 698.936 130.341 699.864 130.341 701.096C130.341 702.312 131.173 703.256 132.373 703.256ZM138.161 705V697.176H140.257V698.2H140.273C140.897 697.448 141.745 697.064 142.609 697.064C143.633 697.064 144.449 697.448 144.913 698.296H144.945C145.585 697.48 146.561 697.064 147.681 697.064C149.361 697.064 150.433 698.072 150.433 700.472V705H148.337V700.968C148.337 699.72 147.953 698.936 146.977 698.936C146.097 698.936 145.377 699.688 145.377 701.096V705H143.281V700.968C143.281 699.72 142.865 698.936 141.905 698.936C140.961 698.936 140.257 699.688 140.257 701.096V705H138.161ZM159.675 701.016C159.675 701.272 159.643 701.64 159.627 701.768H154.139C154.395 702.712 155.147 703.272 156.203 703.272C157.083 703.272 157.691 702.904 158.107 702.392L159.467 703.656C158.811 704.504 157.803 705.144 156.059 705.144C153.659 705.144 151.963 703.528 151.963 701.08C151.963 698.696 153.611 697.064 155.931 697.064C158.139 697.064 159.675 698.728 159.675 701.016ZM155.915 698.888C155.067 698.888 154.395 699.368 154.155 700.264H157.595C157.387 699.432 156.827 698.888 155.915 698.888ZM168.691 705.144C166.547 705.144 164.963 703.528 164.963 701.112C164.963 698.744 166.547 697.064 168.643 697.064C169.555 697.064 170.387 697.416 170.947 698.088L170.979 698.072V697.176H173.075V705H171.075V704.072L171.043 704.056C170.499 704.76 169.715 705.144 168.691 705.144ZM169.091 703.256C170.163 703.256 171.075 702.408 171.075 701.128C171.075 699.864 170.211 698.936 169.091 698.936C167.955 698.936 167.091 699.784 167.091 701.128C167.091 702.376 167.907 703.256 169.091 703.256ZM183.592 705.144C182.536 705.144 181.752 704.76 181.192 704.04L181.16 704.056V705H179.176V693.224H181.272V698.072H181.288C181.88 697.4 182.696 697.064 183.656 697.064C185.768 697.064 187.352 698.744 187.352 701.112C187.352 703.528 185.768 705.144 183.592 705.144ZM183.224 703.256C184.392 703.256 185.224 702.376 185.224 701.128C185.224 699.784 184.328 698.936 183.208 698.936C182.008 698.936 181.176 699.864 181.176 701.128C181.176 702.408 182.072 703.256 183.224 703.256ZM196.284 701.016C196.284 701.272 196.252 701.64 196.236 701.768H190.748C191.004 702.712 191.756 703.272 192.812 703.272C193.692 703.272 194.3 702.904 194.716 702.392L196.076 703.656C195.42 704.504 194.412 705.144 192.668 705.144C190.268 705.144 188.572 703.528 188.572 701.08C188.572 698.696 190.22 697.064 192.54 697.064C194.748 697.064 196.284 698.728 196.284 701.016ZM192.524 698.888C191.676 698.888 191.004 699.368 190.764 700.264H194.204C193.996 699.432 193.436 698.888 192.524 698.888ZM200.327 705.144C198.983 705.144 198.103 704.296 198.103 702.536V698.92H197.175V697.176H198.103V694.632L200.199 694.408V697.176H202.311V698.92H200.199V702.232C200.199 702.92 200.375 703.24 200.871 703.24C201.127 703.24 201.511 703.144 201.863 702.968L202.391 704.648C201.895 704.92 201.383 705.144 200.327 705.144ZM206.327 705.144C204.983 705.144 204.103 704.296 204.103 702.536V698.92H203.175V697.176H204.103V694.632L206.199 694.408V697.176H208.311V698.92H206.199V702.232C206.199 702.92 206.375 703.24 206.871 703.24C207.127 703.24 207.511 703.144 207.863 702.968L208.391 704.648C207.895 704.92 207.383 705.144 206.327 705.144ZM216.706 701.016C216.706 701.272 216.674 701.64 216.658 701.768H211.17C211.426 702.712 212.178 703.272 213.234 703.272C214.114 703.272 214.722 702.904 215.138 702.392L216.498 703.656C215.842 704.504 214.834 705.144 213.09 705.144C210.69 705.144 208.994 703.528 208.994 701.08C208.994 698.696 210.642 697.064 212.962 697.064C215.17 697.064 216.706 698.728 216.706 701.016ZM212.946 698.888C212.098 698.888 211.426 699.368 211.186 700.264H214.626C214.418 699.432 213.858 698.888 212.946 698.888ZM218.332 705V697.176H220.428V698.312H220.46C221.052 697.512 221.9 697.064 222.812 697.064H222.972V699.352C222.748 699.336 222.54 699.336 222.412 699.336C221.116 699.336 220.428 700.2 220.428 701.384V705H218.332ZM228.491 705V693.224H230.587V705H228.491ZM240.05 701.016C240.05 701.272 240.018 701.64 240.002 701.768H234.514C234.77 702.712 235.522 703.272 236.578 703.272C237.458 703.272 238.066 702.904 238.482 702.392L239.842 703.656C239.186 704.504 238.178 705.144 236.434 705.144C234.034 705.144 232.338 703.528 232.338 701.08C232.338 698.696 233.986 697.064 236.306 697.064C238.514 697.064 240.05 698.728 240.05 701.016ZM236.29 698.888C235.442 698.888 234.77 699.368 234.53 700.264H237.97C237.762 699.432 237.202 698.888 236.29 698.888ZM244.956 705.144C242.812 705.144 241.228 703.528 241.228 701.112C241.228 698.744 242.812 697.064 244.908 697.064C245.82 697.064 246.652 697.416 247.212 698.088L247.244 698.072V697.176H249.34V705H247.34V704.072L247.308 704.056C246.764 704.76 245.98 705.144 244.956 705.144ZM245.356 703.256C246.428 703.256 247.34 702.408 247.34 701.128C247.34 699.864 246.476 698.936 245.356 698.936C244.22 698.936 243.356 699.784 243.356 701.128C243.356 702.376 244.172 703.256 245.356 703.256ZM254.628 705.144C252.468 705.144 250.884 703.528 250.884 701.112C250.884 698.744 252.484 697.064 254.58 697.064C255.54 697.064 256.372 697.416 256.948 698.088H256.98V693.224H259.06V705H257.06V704.04H257.044C256.5 704.744 255.684 705.144 254.628 705.144ZM255.012 703.256C256.164 703.256 257.06 702.408 257.06 701.128C257.06 699.864 256.212 698.936 255.012 698.936C253.892 698.936 253.012 699.784 253.012 701.128C253.012 702.376 253.844 703.256 255.012 703.256ZM268.425 701.016C268.425 701.272 268.393 701.64 268.377 701.768H262.889C263.145 702.712 263.897 703.272 264.953 703.272C265.833 703.272 266.441 702.904 266.857 702.392L268.217 703.656C267.561 704.504 266.553 705.144 264.809 705.144C262.409 705.144 260.713 703.528 260.713 701.08C260.713 698.696 262.361 697.064 264.681 697.064C266.889 697.064 268.425 698.728 268.425 701.016ZM264.665 698.888C263.817 698.888 263.145 699.368 262.905 700.264H266.345C266.137 699.432 265.577 698.888 264.665 698.888ZM270.051 705V697.176H272.147V698.312H272.179C272.771 697.512 273.619 697.064 274.531 697.064H274.691V699.352C274.467 699.336 274.259 699.336 274.131 699.336C272.835 699.336 272.147 700.2 272.147 701.384V705H270.051Z" fill="white"/>
<path d="M59 688H41C39.8954 688 39 688.895 39 690V708C39 709.105 39.8954 710 41 710H59C60.1046 710 61 709.105 61 708V690C61 688.895 60.1046 688 59 688Z" stroke="white" stroke-width="2"/>
</g>
<path d="M349 744H26C22.6863 744 20 746.686 20 750V788C20 791.314 22.6863 794 26 794H349C352.314 794 355 791.314 355 788V750C355 746.686 352.314 744 349 744Z" fill="#5F57FF"/>
<g opacity="0.7">
<path d="M127.62 775.112C124.34 775.112 121.828 772.984 121.828 769.336C121.828 766.008 123.972 763.496 127.524 763.496C129.14 763.496 130.868 764.136 132.036 765.432L130.452 766.808C129.748 766.104 128.772 765.624 127.524 765.624C125.652 765.624 124.18 767.016 124.18 769.336C124.18 771.432 125.492 773.064 127.62 773.064C128.436 773.064 129.188 772.856 129.908 772.408V770.744H127.364V768.808H132.1V773.704C131.06 774.536 129.364 775.112 127.62 775.112ZM134.1 775V767.176H136.196V768.312H136.228C136.82 767.512 137.668 767.064 138.58 767.064H138.74V769.352C138.516 769.336 138.308 769.336 138.18 769.336C136.884 769.336 136.196 770.2 136.196 771.384V775H134.1ZM143.578 775.144C141.082 775.144 139.418 773.432 139.418 771.096C139.418 768.76 141.082 767.064 143.578 767.064C146.01 767.064 147.722 768.696 147.722 771.096C147.722 773.48 146.01 775.144 143.578 775.144ZM143.578 773.256C144.698 773.256 145.594 772.376 145.594 771.096C145.594 769.816 144.73 768.936 143.578 768.936C142.362 768.936 141.546 769.864 141.546 771.096C141.546 772.312 142.378 773.256 143.578 773.256ZM150.816 775L148.176 767.176H150.288L151.792 771.96H151.808L153.2 767.176H154.88L156.288 771.96H156.32L157.808 767.176H159.904L157.248 775H155.44L154.032 770.248H154.016L152.624 775H150.816ZM165.334 775V767.176H167.43V768.2H167.446C168.07 767.448 168.918 767.064 169.782 767.064C170.806 767.064 171.622 767.448 172.086 768.296H172.118C172.758 767.48 173.734 767.064 174.854 767.064C176.534 767.064 177.606 768.072 177.606 770.472V775H175.51V770.968C175.51 769.72 175.126 768.936 174.15 768.936C173.27 768.936 172.55 769.688 172.55 771.096V775H170.454V770.968C170.454 769.72 170.038 768.936 169.078 768.936C168.134 768.936 167.43 769.688 167.43 771.096V775H165.334ZM180.138 778.168L181.53 774.52L178.394 767.176H180.634L182.538 771.976H182.57L184.346 767.176H186.474L182.266 778.168H180.138ZM196.297 775.144C195.241 775.144 194.457 774.76 193.897 774.04L193.865 774.056V775H191.881V763.224H193.977V768.072H193.993C194.585 767.4 195.401 767.064 196.361 767.064C198.473 767.064 200.057 768.744 200.057 771.112C200.057 773.528 198.473 775.144 196.297 775.144ZM195.929 773.256C197.097 773.256 197.929 772.376 197.929 771.128C197.929 769.784 197.033 768.936 195.913 768.936C194.713 768.936 193.881 769.864 193.881 771.128C193.881 772.408 194.777 773.256 195.929 773.256ZM204.445 775.144C202.749 775.144 201.565 774.28 201.565 771.896V767.176H203.645V771.352C203.645 772.776 204.077 773.256 205.053 773.256C205.965 773.256 206.781 772.488 206.781 770.984V767.176H208.893V775H206.781V774.072L206.749 774.056C206.157 774.776 205.325 775.144 204.445 775.144ZM213.441 775.144C212.193 775.144 211.121 774.728 210.273 773.992L211.281 772.536C211.921 773.128 212.593 773.432 213.457 773.432C214.065 773.432 214.401 773.176 214.401 772.792C214.401 772.456 214.001 772.28 212.993 771.944C211.697 771.512 210.577 770.904 210.577 769.384C210.577 767.976 211.793 767.064 213.409 767.064C214.481 767.064 215.361 767.352 216.257 768.04L215.233 769.592C214.641 769.016 213.937 768.76 213.361 768.76C213.041 768.76 212.625 768.92 212.625 769.336C212.625 769.656 213.009 769.88 213.777 770.168C215.473 770.792 216.465 771.16 216.465 772.712C216.465 774.088 215.489 775.144 213.441 775.144ZM219.206 766.12C218.438 766.12 217.878 765.544 217.878 764.824C217.878 764.12 218.438 763.544 219.206 763.544C219.958 763.544 220.534 764.12 220.534 764.824C220.534 765.544 219.958 766.12 219.206 766.12ZM218.134 775V767.176H220.23V775H218.134ZM222.413 775V767.176H224.509V768.184H224.541C225.165 767.448 226.061 767.064 227.037 767.064C228.701 767.064 229.869 767.96 229.869 770.36V775H227.773V770.888C227.773 769.4 227.245 768.936 226.269 768.936C225.213 768.936 224.509 769.672 224.509 771.08V775H222.413ZM239.099 771.016C239.099 771.272 239.067 771.64 239.051 771.768H233.563C233.819 772.712 234.571 773.272 235.627 773.272C236.507 773.272 237.115 772.904 237.531 772.392L238.891 773.656C238.235 774.504 237.227 775.144 235.483 775.144C233.083 775.144 231.387 773.528 231.387 771.08C231.387 768.696 233.035 767.064 235.355 767.064C237.563 767.064 239.099 768.728 239.099 771.016ZM235.339 768.888C234.491 768.888 233.819 769.368 233.579 770.264H237.019C236.811 769.432 236.251 768.888 235.339 768.888ZM243.253 775.144C242.005 775.144 240.933 774.728 240.085 773.992L241.093 772.536C241.733 773.128 242.405 773.432 243.269 773.432C243.877 773.432 244.213 773.176 244.213 772.792C244.213 772.456 243.813 772.28 242.805 771.944C241.509 771.512 240.389 770.904 240.389 769.384C240.389 767.976 241.605 767.064 243.221 767.064C244.293 767.064 245.173 767.352 246.069 768.04L245.045 769.592C244.453 769.016 243.749 768.76 243.173 768.76C242.853 768.76 242.437 768.92 242.437 769.336C242.437 769.656 242.821 769.88 243.589 770.168C245.285 770.792 246.277 771.16 246.277 772.712C246.277 774.088 245.301 775.144 243.253 775.144ZM250.378 775.144C249.13 775.144 248.058 774.728 247.21 773.992L248.218 772.536C248.858 773.128 249.53 773.432 250.394 773.432C251.002 773.432 251.338 773.176 251.338 772.792C251.338 772.456 250.938 772.28 249.93 771.944C248.634 771.512 247.514 770.904 247.514 769.384C247.514 767.976 248.73 767.064 250.346 767.064C251.418 767.064 252.298 767.352 253.194 768.04L252.17 769.592C251.578 769.016 250.874 768.76 250.298 768.76C249.978 768.76 249.562 768.92 249.562 769.336C249.562 769.656 249.946 769.88 250.714 770.168C252.41 770.792 253.402 771.16 253.402 772.712C253.402 774.088 252.426 775.144 250.378 775.144Z" fill="white"/>
<path d="M59 758H41C39.8954 758 39 758.895 39 760V778C39 779.105 39.8954 780 41 780H59C60.1046 780 61 779.105 61 778V760C61 758.895 60.1046 758 59 758Z" stroke="white" stroke-width="2"/>
</g>
<path d="M349 394H26C22.6863 394 20 396.686 20 400V438C20 441.314 22.6863 444 26 444H349C352.314 444 355 441.314 355 438V400C355 396.686 352.314 394 349 394Z" fill="#6E66FF"/>
<path d="M119.316 425V413.64H121.604V425H119.316ZM123.951 425V417.176H126.047V418.184H126.079C126.703 417.448 127.599 417.064 128.575 417.064C130.239 417.064 131.407 417.96 131.407 420.36V425H129.311V420.888C129.311 419.4 128.783 418.936 127.807 418.936C126.751 418.936 126.047 419.672 126.047 421.08V425H123.951ZM136.957 425.144C134.621 425.144 132.925 423.512 132.925 421.112C132.925 418.696 134.605 417.064 137.021 417.064C138.237 417.064 139.517 417.512 140.333 418.472L138.957 419.768C138.541 419.256 137.901 418.936 137.165 418.936C135.901 418.936 135.053 419.816 135.053 421.096C135.053 422.392 135.917 423.256 137.165 423.256C137.965 423.256 138.589 422.92 139.005 422.408L140.365 423.72C139.693 424.552 138.621 425.144 136.957 425.144ZM141.81 425V417.176H143.906V418.312H143.938C144.53 417.512 145.378 417.064 146.29 417.064H146.45V419.352C146.226 419.336 146.018 419.336 145.89 419.336C144.594 419.336 143.906 420.2 143.906 421.384V425H141.81ZM154.84 421.016C154.84 421.272 154.808 421.64 154.792 421.768H149.304C149.56 422.712 150.312 423.272 151.368 423.272C152.248 423.272 152.856 422.904 153.272 422.392L154.632 423.656C153.976 424.504 152.968 425.144 151.224 425.144C148.824 425.144 147.128 423.528 147.128 421.08C147.128 418.696 148.776 417.064 151.096 417.064C153.304 417.064 154.84 418.728 154.84 421.016ZM151.08 418.888C150.232 418.888 149.56 419.368 149.32 420.264H152.76C152.552 419.432 151.992 418.888 151.08 418.888ZM159.746 425.144C157.602 425.144 156.018 423.528 156.018 421.112C156.018 418.744 157.602 417.064 159.698 417.064C160.61 417.064 161.442 417.416 162.002 418.088L162.034 418.072V417.176H164.13V425H162.13V424.072L162.098 424.056C161.554 424.76 160.77 425.144 159.746 425.144ZM160.146 423.256C161.218 423.256 162.13 422.408 162.13 421.128C162.13 419.864 161.266 418.936 160.146 418.936C159.01 418.936 158.146 419.784 158.146 421.128C158.146 422.376 158.962 423.256 160.146 423.256ZM168.651 425.144C167.403 425.144 166.331 424.728 165.483 423.992L166.491 422.536C167.131 423.128 167.803 423.432 168.667 423.432C169.275 423.432 169.611 423.176 169.611 422.792C169.611 422.456 169.211 422.28 168.203 421.944C166.907 421.512 165.787 420.904 165.787 419.384C165.787 417.976 167.003 417.064 168.619 417.064C169.691 417.064 170.571 417.352 171.467 418.04L170.443 419.592C169.851 419.016 169.147 418.76 168.571 418.76C168.251 418.76 167.835 418.92 167.835 419.336C167.835 419.656 168.219 419.88 168.987 420.168C170.683 420.792 171.675 421.16 171.675 422.712C171.675 424.088 170.699 425.144 168.651 425.144ZM180.528 421.016C180.528 421.272 180.496 421.64 180.48 421.768H174.992C175.248 422.712 176 423.272 177.056 423.272C177.936 423.272 178.544 422.904 178.96 422.392L180.32 423.656C179.664 424.504 178.656 425.144 176.912 425.144C174.512 425.144 172.816 423.528 172.816 421.08C172.816 418.696 174.464 417.064 176.784 417.064C178.992 417.064 180.528 418.728 180.528 421.016ZM176.768 418.888C175.92 418.888 175.248 419.368 175.008 420.264H178.448C178.24 419.432 177.68 418.888 176.768 418.888ZM186.263 425V417.176H188.359V418.2H188.375C188.999 417.448 189.847 417.064 190.711 417.064C191.735 417.064 192.551 417.448 193.015 418.296H193.047C193.687 417.48 194.663 417.064 195.783 417.064C197.463 417.064 198.535 418.072 198.535 420.472V425H196.439V420.968C196.439 419.72 196.055 418.936 195.079 418.936C194.199 418.936 193.479 419.688 193.479 421.096V425H191.383V420.968C191.383 419.72 190.967 418.936 190.007 418.936C189.063 418.936 188.359 419.688 188.359 421.096V425H186.263ZM201.067 428.168L202.459 424.52L199.323 417.176H201.563L203.467 421.976H203.499L205.275 417.176H207.403L203.195 428.168H201.067ZM215.338 425.144C214.09 425.144 213.018 424.728 212.17 423.992L213.178 422.536C213.818 423.128 214.49 423.432 215.354 423.432C215.962 423.432 216.298 423.176 216.298 422.792C216.298 422.456 215.898 422.28 214.89 421.944C213.594 421.512 212.474 420.904 212.474 419.384C212.474 417.976 213.69 417.064 215.306 417.064C216.378 417.064 217.258 417.352 218.154 418.04L217.13 419.592C216.538 419.016 215.834 418.76 215.258 418.76C214.938 418.76 214.522 418.92 214.522 419.336C214.522 419.656 214.906 419.88 215.674 420.168C217.37 420.792 218.362 421.16 218.362 422.712C218.362 424.088 217.386 425.144 215.338 425.144ZM223.059 425.144C220.915 425.144 219.331 423.528 219.331 421.112C219.331 418.744 220.915 417.064 223.011 417.064C223.923 417.064 224.755 417.416 225.315 418.088L225.347 418.072V417.176H227.443V425H225.443V424.072L225.411 424.056C224.867 424.76 224.083 425.144 223.059 425.144ZM223.459 423.256C224.531 423.256 225.443 422.408 225.443 421.128C225.443 419.864 224.579 418.936 223.459 418.936C222.323 418.936 221.459 419.784 221.459 421.128C221.459 422.376 222.275 423.256 223.459 423.256ZM229.531 425V413.224H231.627V425H229.531ZM237.09 425.144C234.946 425.144 233.362 423.528 233.362 421.112C233.362 418.744 234.946 417.064 237.042 417.064C237.954 417.064 238.786 417.416 239.346 418.088L239.378 418.072V417.176H241.474V425H239.474V424.072L239.442 424.056C238.898 424.76 238.114 425.144 237.09 425.144ZM237.49 423.256C238.562 423.256 239.474 422.408 239.474 421.128C239.474 419.864 238.61 418.936 237.49 418.936C236.354 418.936 235.49 419.784 235.49 421.128C235.49 422.376 236.306 423.256 237.49 423.256ZM243.466 425V417.176H245.562V418.312H245.594C246.186 417.512 247.034 417.064 247.946 417.064H248.106V419.352C247.882 419.336 247.674 419.336 247.546 419.336C246.25 419.336 245.562 420.2 245.562 421.384V425H243.466ZM250.363 428.168L251.755 424.52L248.619 417.176H250.859L252.763 421.976H252.795L254.571 417.176H256.699L252.491 428.168H250.363Z" fill="white"/>
<path d="M59 408H41C39.8954 408 39 408.895 39 410V428C39 429.105 39.8954 430 41 430H59C60.1046 430 61 429.105 61 428V410C61 408.895 60.1046 408 59 408Z" fill="white" stroke="white" stroke-width="2"/>
<path d="M49.2929 421.95L45.0502 417.707C44.6597 417.317 44.0266 417.317 43.636 417.707C43.2455 418.098 43.2455 418.731 43.636 419.121L47.8787 423.364C48.2692 423.754 48.9024 423.754 49.2929 423.364C49.6834 422.973 49.6834 422.34 49.2929 421.95Z" fill="black"/>
<path d="M54.9497 414.878C55.3402 414.488 55.9734 414.488 56.3639 414.878C56.7545 415.269 56.7545 415.902 56.3639 416.293L49.2929 423.364C48.9023 423.754 48.2692 423.754 47.8787 423.364C47.4881 422.973 47.4881 422.34 47.8787 421.949L54.9497 414.878Z" fill="black"/>
<path d="M349 324H26C22.6863 324 20 326.686 20 330V368C20 371.314 22.6863 374 26 374H349C352.314 374 355 371.314 355 368V330C355 326.686 352.314 324 349 324Z" fill="#6E66FF"/>
<path d="M140.844 355.112C137.564 355.112 135.052 352.984 135.052 349.336C135.052 346.008 137.196 343.496 140.748 343.496C142.364 343.496 144.092 344.136 145.26 345.432L143.676 346.808C142.972 346.104 141.996 345.624 140.748 345.624C138.876 345.624 137.404 347.016 137.404 349.336C137.404 351.432 138.716 353.064 140.844 353.064C141.66 353.064 142.412 352.856 143.132 352.408V350.744H140.588V348.808H145.324V353.704C144.284 354.536 142.588 355.112 140.844 355.112ZM154.604 351.016C154.604 351.272 154.572 351.64 154.556 351.768H149.068C149.324 352.712 150.076 353.272 151.132 353.272C152.012 353.272 152.62 352.904 153.036 352.392L154.396 353.656C153.74 354.504 152.732 355.144 150.988 355.144C148.588 355.144 146.892 353.528 146.892 351.08C146.892 348.696 148.54 347.064 150.86 347.064C153.068 347.064 154.604 348.728 154.604 351.016ZM150.844 348.888C149.996 348.888 149.324 349.368 149.084 350.264H152.524C152.316 349.432 151.756 348.888 150.844 348.888ZM158.646 355.144C157.302 355.144 156.422 354.296 156.422 352.536V348.92H155.494V347.176H156.422V344.632L158.518 344.408V347.176H160.63V348.92H158.518V352.232C158.518 352.92 158.694 353.24 159.19 353.24C159.446 353.24 159.83 353.144 160.182 352.968L160.71 354.648C160.214 354.92 159.702 355.144 158.646 355.144ZM169.526 355.144C167.382 355.144 165.798 353.528 165.798 351.112C165.798 348.744 167.382 347.064 169.478 347.064C170.39 347.064 171.222 347.416 171.782 348.088L171.814 348.072V347.176H173.91V355H171.91V354.072L171.878 354.056C171.334 354.76 170.55 355.144 169.526 355.144ZM169.926 353.256C170.998 353.256 171.91 352.408 171.91 351.128C171.91 349.864 171.046 348.936 169.926 348.936C168.79 348.936 167.926 349.784 167.926 351.128C167.926 352.376 168.742 353.256 169.926 353.256ZM180.011 355V347.176H182.107V348.184H182.139C182.763 347.448 183.659 347.064 184.635 347.064C186.299 347.064 187.467 347.96 187.467 350.36V355H185.371V350.888C185.371 349.4 184.843 348.936 183.867 348.936C182.811 348.936 182.107 349.672 182.107 351.08V355H180.011ZM196.698 351.016C196.698 351.272 196.666 351.64 196.65 351.768H191.162C191.418 352.712 192.17 353.272 193.226 353.272C194.106 353.272 194.714 352.904 195.13 352.392L196.49 353.656C195.834 354.504 194.826 355.144 193.082 355.144C190.682 355.144 188.986 353.528 188.986 351.08C188.986 348.696 190.634 347.064 192.954 347.064C195.162 347.064 196.698 348.728 196.698 351.016ZM192.938 348.888C192.09 348.888 191.418 349.368 191.178 350.264H194.618C194.41 349.432 193.85 348.888 192.938 348.888ZM199.774 355L197.134 347.176H199.246L200.75 351.96H200.766L202.158 347.176H203.838L205.246 351.96H205.278L206.766 347.176H208.862L206.206 355H204.398L202.99 350.248H202.974L201.582 355H199.774ZM216.741 355.112C215.557 355.112 214.373 354.616 213.621 353.656L214.917 352.056C215.301 352.536 215.941 353 216.613 353C217.381 353 217.973 352.52 217.973 351.064V343.64H220.229V351.048C220.229 353.576 219.269 355.112 216.741 355.112ZM226.099 355.144C223.603 355.144 221.939 353.432 221.939 351.096C221.939 348.76 223.603 347.064 226.099 347.064C228.531 347.064 230.243 348.696 230.243 351.096C230.243 353.48 228.531 355.144 226.099 355.144ZM226.099 353.256C227.219 353.256 228.115 352.376 228.115 351.096C228.115 349.816 227.251 348.936 226.099 348.936C224.883 348.936 224.067 349.864 224.067 351.096C224.067 352.312 224.899 353.256 226.099 353.256ZM236.302 355.144C235.246 355.144 234.462 354.76 233.902 354.04L233.87 354.056V355H231.886V343.224H233.982V348.072H233.998C234.59 347.4 235.406 347.064 236.366 347.064C238.478 347.064 240.062 348.744 240.062 351.112C240.062 353.528 238.478 355.144 236.302 355.144ZM235.934 353.256C237.102 353.256 237.934 352.376 237.934 351.128C237.934 349.784 237.038 348.936 235.918 348.936C234.718 348.936 233.886 349.864 233.886 351.128C233.886 352.408 234.782 353.256 235.934 353.256Z" fill="white"/>
<path d="M59 338H41C39.8954 338 39 338.895 39 340V358C39 359.105 39.8954 360 41 360H59C60.1046 360 61 359.105 61 358V340C61 338.895 60.1046 338 59 338Z" fill="white" stroke="white" stroke-width="2"/>
<path d="M49.2929 351.95L45.0502 347.707C44.6597 347.317 44.0266 347.317 43.636 347.707C43.2455 348.098 43.2455 348.731 43.636 349.121L47.8787 353.364C48.2692 353.754 48.9024 353.754 49.2929 353.364C49.6834 352.973 49.6834 352.34 49.2929 351.95Z" fill="black"/>
<path d="M54.9497 344.878C55.3402 344.488 55.9734 344.488 56.3639 344.878C56.7545 345.269 56.7545 345.902 56.3639 346.293L49.2929 353.364C48.9023 353.754 48.2692 353.754 47.8787 353.364C47.4881 352.973 47.4881 352.34 47.8787 351.949L54.9497 344.878Z" fill="black"/>
<path d="M347.203 77.96C349.059 77.96 350.579 79.24 350.579 81.496C350.579 83.656 348.867 85.144 346.611 85.144C344.355 85.144 342.659 83.368 342.659 80.68C342.659 77.16 345.011 74.296 348.467 73.656L349.107 75.416C347.139 75.976 345.811 76.888 345.171 78.424L345.203 78.456C345.795 78.136 346.499 77.96 347.203 77.96ZM346.707 83.176C347.763 83.176 348.451 82.392 348.451 81.448C348.451 80.488 347.747 79.784 346.643 79.784C345.875 79.784 345.187 80.216 344.739 80.776V80.904C344.739 82.28 345.635 83.176 346.707 83.176Z" fill="#C4C4C4"/>
<path d="M314.971 85L314.939 83.576L318.347 79.944C319.243 79.016 319.819 78.28 319.819 77.4C319.819 76.552 319.211 75.912 318.363 75.912C317.579 75.912 316.923 76.28 316.443 77.08L314.891 75.976C315.531 74.808 316.683 73.896 318.523 73.896C320.363 73.896 322.027 75.112 322.027 77.144C322.027 78.392 321.627 79.368 320.203 80.84L318.155 82.984L318.171 83.032H322.123V85H314.971Z" fill="white"/>
<path d="M335.5 72.5L330.5 87.5" stroke="#D8D8D8" stroke-width="2" stroke-linecap="round"/>
<path d="M117.995 84V74.06H124.589V75.81H119.941V78.47H123.819V80.234H119.941V84H117.995ZM126.254 84V74.06H128.256V84H126.254ZM130.477 84V74.06H132.409L136.875 80.766H136.903V74.06H138.849V84H136.875L132.465 77.434H132.437V84H130.477ZM141.018 84V74.06H144.308C147.458 74.06 149.474 76.104 149.474 79.044C149.474 81.97 147.542 84 144.35 84H141.018ZM142.964 82.25H144.224C146.156 82.25 147.416 80.864 147.416 79.044C147.416 77.182 146.142 75.81 144.336 75.81H142.964V82.25ZM157.123 84V79.632L153.833 74.06H156.087L158.117 77.672H158.145L160.133 74.06H162.415L159.111 79.632V84H157.123ZM167.446 84.126C164.436 84.126 162.378 81.984 162.378 79.03C162.378 76.076 164.436 73.934 167.446 73.934C170.358 73.934 172.5 75.992 172.5 79.03C172.5 82.054 170.358 84.126 167.446 84.126ZM167.446 82.278C169.154 82.278 170.442 80.906 170.442 79.03C170.442 77.154 169.154 75.782 167.446 75.782C165.654 75.782 164.422 77.224 164.422 79.03C164.422 80.836 165.654 82.278 167.446 82.278ZM178.146 84.126C175.752 84.126 174.128 82.6 174.128 79.884V74.06H176.102V79.758C176.102 81.186 176.83 82.278 178.146 82.278C179.35 82.278 180.218 81.34 180.218 79.758V74.06H182.192V79.884C182.192 82.474 180.694 84.126 178.146 84.126ZM184.208 84V74.06H187.974C190.368 74.06 191.432 75.46 191.432 77.364C191.432 78.876 190.732 79.912 189.36 80.36L191.852 84H189.514L187.288 80.598H186.154V84H184.208ZM186.154 78.862H187.582C188.786 78.862 189.402 78.246 189.402 77.336C189.402 76.412 188.8 75.81 187.666 75.81H186.154V78.862ZM201.639 84.098C198.867 84.098 196.571 82.334 196.571 79.058C196.571 76.216 198.391 73.934 201.611 73.934C203.039 73.934 204.509 74.55 205.573 75.852L204.117 77.07C203.473 76.286 202.633 75.81 201.611 75.81C199.917 75.81 198.629 77.07 198.629 79.058C198.629 80.906 199.861 82.236 201.639 82.236C202.675 82.236 203.543 81.718 204.145 80.976L205.587 82.222C204.733 83.286 203.389 84.098 201.639 84.098ZM211.743 84.126C208.733 84.126 206.675 81.984 206.675 79.03C206.675 76.076 208.733 73.934 211.743 73.934C214.655 73.934 216.797 75.992 216.797 79.03C216.797 82.054 214.655 84.126 211.743 84.126ZM211.743 82.278C213.451 82.278 214.739 80.906 214.739 79.03C214.739 77.154 213.451 75.782 211.743 75.782C209.951 75.782 208.719 77.224 208.719 79.03C208.719 80.836 209.951 82.278 211.743 82.278ZM217.164 84L220.846 74.06H222.75L226.446 84H224.388L223.702 82.012H219.894L219.222 84H217.164ZM220.454 80.332H223.142L221.812 76.44H221.784L220.454 80.332ZM231.868 84.098C229.096 84.098 226.8 82.334 226.8 79.058C226.8 76.216 228.62 73.934 231.84 73.934C233.268 73.934 234.738 74.55 235.802 75.852L234.346 77.07C233.702 76.286 232.862 75.81 231.84 75.81C230.146 75.81 228.858 77.07 228.858 79.058C228.858 80.906 230.09 82.236 231.868 82.236C232.904 82.236 233.772 81.718 234.374 80.976L235.816 82.222C234.962 83.286 233.618 84.098 231.868 84.098ZM237.309 84V74.06H239.297V78.358H243.357V74.06H245.331V84H243.357V80.108H239.297V84H237.309Z" fill="white"/>
<g opacity="0.7">
<path fill-rule="evenodd" clip-rule="evenodd" d="M21.3199 77.5595L30.5595 68.3199C31.2884 67.591 32.4703 67.591 33.1993 68.3199C33.9283 69.0489 33.9283 70.2308 33.1993 70.9598L23.9598 80.1993C23.2308 80.9283 22.0489 80.9283 21.3199 80.1993C20.591 79.4703 20.591 78.2884 21.3199 77.5595Z" fill="white"/>
<path fill-rule="evenodd" clip-rule="evenodd" d="M21.3199 77.5595C22.0489 76.8305 23.2308 76.8305 23.9598 77.5595L33.1993 86.799C33.9283 87.528 33.9283 88.7099 33.1993 89.4389C32.4703 90.1678 31.2884 90.1678 30.5595 89.4389L21.3199 80.1993C20.591 79.4703 20.591 78.2884 21.3199 77.5595Z" fill="white"/>
</g>
<path d="M28.466 203L20.85 178.86H25.95L30.642 195.146H30.71L35.028 178.86H40.06L44.31 195.112H44.412L49.104 178.86H54.204L46.588 203H42.168L37.612 185.83H37.544L32.886 203H28.466ZM57.2725 203V177.976H61.7265V188.38H61.7605C63.1205 186.884 65.0245 186.136 67.2005 186.136C70.7365 186.136 73.2865 187.938 73.2865 193.038V203H68.8325V194.16C68.8325 191.134 67.7105 190.114 65.6025 190.114C63.2225 190.114 61.7265 191.61 61.7265 194.602V203H57.2725ZM84.3968 203.306C79.8408 203.306 76.4748 199.872 76.4748 194.738C76.4748 189.706 79.8408 186.136 84.2948 186.136C86.2328 186.136 88.0008 186.884 89.1908 188.312L89.2588 188.278V186.374H93.7128V203H89.4628V201.028L89.3948 200.994C88.2388 202.49 86.5728 203.306 84.3968 203.306ZM85.2468 199.294C87.5248 199.294 89.4628 197.492 89.4628 194.772C89.4628 192.086 87.6268 190.114 85.2468 190.114C82.8328 190.114 80.9968 191.916 80.9968 194.772C80.9968 197.424 82.7308 199.294 85.2468 199.294ZM103.08 203.306C100.224 203.306 98.3543 201.504 98.3543 197.764V190.08H96.3823V186.374H98.3543V180.968L102.808 180.492V186.374H107.296V190.08H102.808V197.118C102.808 198.58 103.182 199.26 104.236 199.26C104.78 199.26 105.596 199.056 106.344 198.682L107.466 202.252C106.412 202.83 105.324 203.306 103.08 203.306ZM126.2 203.306C121.644 203.306 118.278 199.872 118.278 194.738C118.278 189.706 121.644 186.136 126.098 186.136C128.036 186.136 129.804 186.884 130.994 188.312L131.062 188.278V186.374H135.516V203H131.266V201.028L131.198 200.994C130.042 202.49 128.376 203.306 126.2 203.306ZM127.05 199.294C129.328 199.294 131.266 197.492 131.266 194.772C131.266 192.086 129.43 190.114 127.05 190.114C124.636 190.114 122.8 191.916 122.8 194.772C122.8 197.424 124.534 199.294 127.05 199.294ZM139.749 203V186.374H144.203V188.788H144.271C145.529 187.088 147.331 186.136 149.269 186.136H149.609V190.998C149.133 190.964 148.691 190.964 148.419 190.964C145.665 190.964 144.203 192.8 144.203 195.316V203H139.749ZM167.438 194.534C167.438 195.078 167.37 195.86 167.336 196.132H155.674C156.218 198.138 157.816 199.328 160.06 199.328C161.93 199.328 163.222 198.546 164.106 197.458L166.996 200.144C165.602 201.946 163.46 203.306 159.754 203.306C154.654 203.306 151.05 199.872 151.05 194.67C151.05 189.604 154.552 186.136 159.482 186.136C164.174 186.136 167.438 189.672 167.438 194.534ZM159.448 190.012C157.646 190.012 156.218 191.032 155.708 192.936H163.018C162.576 191.168 161.386 190.012 159.448 190.012ZM181.632 209.732L184.59 201.98L177.926 186.374H182.686L186.732 196.574H186.8L190.574 186.374H195.096L186.154 209.732H181.632ZM204.847 203.306C199.543 203.306 196.007 199.668 196.007 194.704C196.007 189.74 199.543 186.136 204.847 186.136C210.015 186.136 213.653 189.604 213.653 194.704C213.653 199.77 210.015 203.306 204.847 203.306ZM204.847 199.294C207.227 199.294 209.131 197.424 209.131 194.704C209.131 191.984 207.295 190.114 204.847 190.114C202.263 190.114 200.529 192.086 200.529 194.704C200.529 197.288 202.297 199.294 204.847 199.294ZM222.96 203.306C219.356 203.306 216.84 201.47 216.84 196.404V186.374H221.26V195.248C221.26 198.274 222.178 199.294 224.252 199.294C226.19 199.294 227.924 197.662 227.924 194.466V186.374H232.412V203H227.924V201.028L227.856 200.994C226.598 202.524 224.83 203.306 222.96 203.306ZM236.702 203V186.374H241.156V188.788H241.224C242.482 187.088 244.284 186.136 246.222 186.136H246.562V190.998C246.086 190.964 245.644 190.964 245.372 190.964C242.618 190.964 241.156 192.8 241.156 195.316V203H236.702Z" fill="white"/>
<path d="M29.86 245.306C24.896 245.306 21.292 241.838 21.292 236.738C21.292 231.604 24.862 228.136 29.996 228.136C32.58 228.136 35.3 229.088 37.034 231.128L34.11 233.882C33.226 232.794 31.866 232.114 30.302 232.114C27.616 232.114 25.814 233.984 25.814 236.704C25.814 239.458 27.65 241.294 30.302 241.294C32.002 241.294 33.328 240.58 34.212 239.492L37.102 242.28C35.674 244.048 33.396 245.306 29.86 245.306ZM47.1429 245.306C42.5869 245.306 39.2209 241.872 39.2209 236.738C39.2209 231.706 42.5869 228.136 47.0409 228.136C48.9789 228.136 50.7469 228.884 51.9369 230.312L52.0049 230.278V228.374H56.4589V245H52.2089V243.028L52.1409 242.994C50.9849 244.49 49.3189 245.306 47.1429 245.306ZM47.9929 241.294C50.2709 241.294 52.2089 239.492 52.2089 236.772C52.2089 234.086 50.3729 232.114 47.9929 232.114C45.5789 232.114 43.7429 233.916 43.7429 236.772C43.7429 239.424 45.4769 241.294 47.9929 241.294ZM60.6924 245V228.374H65.1464V230.788H65.2144C66.4724 229.088 68.2744 228.136 70.2124 228.136H70.5524V232.998C70.0764 232.964 69.6344 232.964 69.3624 232.964C66.6084 232.964 65.1464 234.8 65.1464 237.316V245H60.6924ZM88.3812 236.534C88.3812 237.078 88.3132 237.86 88.2792 238.132H76.6172C77.1612 240.138 78.7592 241.328 81.0032 241.328C82.8732 241.328 84.1652 240.546 85.0492 239.458L87.9392 242.144C86.5452 243.946 84.4032 245.306 80.6972 245.306C75.5972 245.306 71.9932 241.872 71.9932 236.67C71.9932 231.604 75.4952 228.136 80.4252 228.136C85.1172 228.136 88.3812 231.672 88.3812 236.534ZM80.3912 232.012C78.5892 232.012 77.1612 233.032 76.6512 234.936H83.9612C83.5192 233.168 82.3292 232.012 80.3912 232.012ZM107.307 236.534C107.307 237.078 107.239 237.86 107.205 238.132H95.543C96.087 240.138 97.685 241.328 99.929 241.328C101.799 241.328 103.091 240.546 103.975 239.458L106.865 242.144C105.471 243.946 103.329 245.306 99.623 245.306C94.523 245.306 90.919 241.872 90.919 236.67C90.919 231.604 94.421 228.136 99.351 228.136C104.043 228.136 107.307 231.672 107.307 236.534ZM99.317 232.012C97.515 232.012 96.087 233.032 95.577 234.936H102.887C102.445 233.168 101.255 232.012 99.317 232.012ZM110.763 245V228.374H115.217V230.788H115.285C116.543 229.088 118.345 228.136 120.283 228.136H120.623V232.998C120.147 232.964 119.705 232.964 119.433 232.964C116.679 232.964 115.217 234.8 115.217 237.316V245H110.763ZM139.66 252.004C137.11 252.004 134.832 251.46 132.86 250.338L133.914 246.564C135.546 247.482 137.144 248.128 139.32 248.128C142.414 248.128 143.978 246.428 143.978 244.456V242.79H143.91C142.72 244.014 141.054 244.694 139.082 244.694C134.526 244.694 131.16 241.362 131.16 236.534C131.16 231.638 134.424 228.136 138.844 228.136C140.68 228.136 142.482 228.782 143.842 230.108H143.91V228.374H148.364V243.096C148.364 248.298 146.086 252.004 139.66 252.004ZM139.898 240.682C142.346 240.682 144.08 238.88 144.08 236.364C144.08 233.848 142.278 232.148 139.898 232.148C137.416 232.148 135.682 233.882 135.682 236.398C135.682 239.016 137.518 240.682 139.898 240.682ZM160.521 245.306C155.217 245.306 151.681 241.668 151.681 236.704C151.681 231.74 155.217 228.136 160.521 228.136C165.689 228.136 169.327 231.604 169.327 236.704C169.327 241.77 165.689 245.306 160.521 245.306ZM160.521 241.294C162.901 241.294 164.805 239.424 164.805 236.704C164.805 233.984 162.969 232.114 160.521 232.114C157.937 232.114 156.203 234.086 156.203 236.704C156.203 239.288 157.971 241.294 160.521 241.294ZM179.789 245.306C175.233 245.306 171.867 241.872 171.867 236.738C171.867 231.706 175.233 228.136 179.687 228.136C181.625 228.136 183.393 228.884 184.583 230.312L184.651 230.278V228.374H189.105V245H184.855V243.028L184.787 242.994C183.631 244.49 181.965 245.306 179.789 245.306ZM180.639 241.294C182.917 241.294 184.855 239.492 184.855 236.772C184.855 234.086 183.019 232.114 180.639 232.114C178.225 232.114 176.389 233.916 176.389 236.772C176.389 239.424 178.123 241.294 180.639 241.294ZM193.543 245V219.976H197.997V245H193.543ZM208.008 245.306C205.356 245.306 203.078 244.422 201.276 242.858L203.418 239.764C204.778 241.022 206.206 241.668 208.042 241.668C209.334 241.668 210.048 241.124 210.048 240.308C210.048 239.594 209.198 239.22 207.056 238.506C204.302 237.588 201.922 236.296 201.922 233.066C201.922 230.074 204.506 228.136 207.94 228.136C210.218 228.136 212.088 228.748 213.992 230.21L211.816 233.508C210.558 232.284 209.062 231.74 207.838 231.74C207.158 231.74 206.274 232.08 206.274 232.964C206.274 233.644 207.09 234.12 208.722 234.732C212.326 236.058 214.434 236.84 214.434 240.138C214.434 243.062 212.36 245.306 208.008 245.306ZM218.232 237.146V235.446C218.198 233.304 219.728 231.91 221.122 230.482C222.176 229.326 223.264 228.102 223.264 226.572C223.264 224.872 222.176 223.92 220.578 223.92C219.286 223.92 217.994 224.634 217.178 225.756L213.948 222.798C215.512 220.894 218.096 219.67 220.918 219.67C224.726 219.67 228.126 221.846 228.126 226.3C228.126 228.952 226.63 230.72 225.1 232.182C223.74 233.474 222.38 234.494 222.312 235.684L222.176 237.146H218.232ZM220.306 245.306C218.742 245.306 217.484 244.082 217.484 242.552C217.484 241.056 218.742 239.832 220.306 239.832C221.802 239.832 223.06 241.056 223.06 242.552C223.06 244.082 221.802 245.306 220.306 245.306Z" fill="white"/>
<path opacity="0.35" d="M354.833 17.8335H339.167C337.694 17.8335 336.5 19.0274 336.5 20.5002V25.5002C336.5 26.9729 337.694 28.1668 339.167 28.1668H354.833C356.306 28.1668 357.5 26.9729 357.5 25.5002V20.5002C357.5 19.0274 356.306 17.8335 354.833 17.8335Z" stroke="white"/>
<path opacity="0.4" d="M359 21V25C359.805 24.6612 360.328 23.8731 360.328 23C360.328 22.1269 359.805 21.3388 359 21Z" fill="white"/>
<path d="M354.667 19.3335H339.333C338.597 19.3335 338 19.9304 338 20.6668V25.3335C338 26.0699 338.597 26.6668 339.333 26.6668H354.667C355.403 26.6668 356 26.0699 356 25.3335V20.6668C356 19.9304 355.403 19.3335 354.667 19.3335Z" fill="white"/>
<path d="M323.33 19.6079C325.546 19.608 327.677 20.4594 329.283 21.9862C329.404 22.1041 329.598 22.1026 329.717 21.9829L330.873 20.8162C330.933 20.7555 330.967 20.6733 330.966 20.5877C330.966 20.5021 330.931 20.4202 330.87 20.3602C326.655 16.3207 320.005 16.3207 315.79 20.3602C315.729 20.4202 315.694 20.502 315.694 20.5876C315.693 20.6732 315.727 20.7555 315.787 20.8162L316.943 21.9829C317.062 22.1028 317.256 22.1043 317.377 21.9862C318.983 20.4593 321.114 19.6079 323.33 19.6079ZM323.33 23.4036C324.548 23.4035 325.722 23.856 326.624 24.6732C326.746 24.7892 326.939 24.7867 327.058 24.6676L328.212 23.5009C328.273 23.4397 328.307 23.3567 328.306 23.2704C328.305 23.1842 328.27 23.1018 328.208 23.0419C325.459 20.4855 321.204 20.4855 318.455 23.0419C318.393 23.1018 318.358 23.1842 318.357 23.2705C318.356 23.3568 318.39 23.4398 318.451 23.5009L319.605 24.6676C319.724 24.7867 319.917 24.7892 320.039 24.6732C320.941 23.8566 322.114 23.4041 323.33 23.4036ZM325.549 26.1879C325.611 26.1273 325.645 26.0439 325.643 25.9574C325.642 25.8709 325.604 25.7889 325.54 25.7309C324.264 24.652 322.396 24.652 321.121 25.7309C321.056 25.7889 321.019 25.8708 321.017 25.9573C321.015 26.0438 321.049 26.1272 321.111 26.1879L323.109 28.2036C323.167 28.2628 323.247 28.2961 323.33 28.2961C323.414 28.2961 323.493 28.2628 323.552 28.2036L325.549 26.1879Z" fill="white"/>
<path d="M294.667 24.3332H295.667C296.219 24.3332 296.667 24.7809 296.667 25.3332V27.3332C296.667 27.8855 296.219 28.3332 295.667 28.3332H294.667C294.114 28.3332 293.667 27.8855 293.667 27.3332V25.3332C293.667 24.7809 294.114 24.3332 294.667 24.3332ZM299.333 22.3332H300.333C300.886 22.3332 301.333 22.7809 301.333 23.3332V27.3332C301.333 27.8855 300.886 28.3332 300.333 28.3332H299.333C298.781 28.3332 298.333 27.8855 298.333 27.3332V23.3332C298.333 22.7809 298.781 22.3332 299.333 22.3332ZM304 19.9998H305C305.552 19.9998 306 20.4476 306 20.9998V27.3332C306 27.8855 305.552 28.3332 305 28.3332H304C303.448 28.3332 303 27.8855 303 27.3332V20.9998C303 20.4476 303.448 19.9998 304 19.9998ZM308.667 17.6665H309.667C310.219 17.6665 310.667 18.1142 310.667 18.6665V27.3332C310.667 27.8855 310.219 28.3332 309.667 28.3332H308.667C308.114 28.3332 307.667 27.8855 307.667 27.3332V18.6665C307.667 18.1142 308.114 17.6665 308.667 17.6665Z" fill="white"/>
<path d="M37.7799 27.7393C35.9752 27.7393 34.5944 26.6797 34.3073 25.0664H36.0641C36.276 25.8047 36.9528 26.2627 37.8004 26.2627C39.2428 26.2627 40.0699 24.9434 40.0905 22.6602H39.9742C39.5094 23.5967 38.5729 24.1299 37.4176 24.1299C35.5377 24.1299 34.1705 22.749 34.1705 20.8555C34.1705 18.832 35.6881 17.3896 37.8346 17.3896C40.193 17.3896 41.7789 19.1943 41.7789 22.4551C41.7789 25.7773 40.2887 27.7393 37.7799 27.7393ZM37.8414 22.7354C38.983 22.7354 39.7965 21.9355 39.7965 20.835C39.7965 19.7139 38.9625 18.8594 37.8483 18.8594C36.734 18.8594 35.9 19.7002 35.9 20.8008C35.9 21.9424 36.693 22.7354 37.8414 22.7354ZM44.8756 26.1396C44.233 26.1396 43.7819 25.6748 43.7819 25.0596C43.7819 24.4375 44.233 23.9795 44.8756 23.9795C45.525 23.9795 45.9694 24.4375 45.9694 25.0596C45.9694 25.6748 45.525 26.1396 44.8756 26.1396ZM44.8756 21.1494C44.233 21.1494 43.7819 20.6914 43.7819 20.0762C43.7819 19.4541 44.233 18.9961 44.8756 18.9961C45.525 18.9961 45.9694 19.4541 45.9694 20.0762C45.9694 20.6914 45.525 21.1494 44.8756 21.1494ZM52.7848 27.5V25.6201H47.9655V24.1504C49.2438 21.9219 50.6451 19.6729 51.985 17.6357H54.4733V24.1299H55.8063V25.6201H54.4733V27.5H52.7848ZM49.5992 24.0752V24.1709H52.8121V19.0713H52.7164C51.7047 20.6025 50.5631 22.4141 49.5992 24.0752ZM59.8463 27.5V19.4131H59.7301L57.276 21.1357V19.4404L59.8531 17.6357H61.61V27.5H59.8463Z" fill="white"/>
<g opacity="0.7">
<path d="M24.956 284.072C22.64 284.072 20.66 282.56 20.66 279.764C20.66 277.34 22.196 275.384 24.932 275.384C26.18 275.384 27.404 275.924 28.292 277.016L27.224 277.916C26.588 277.136 25.832 276.752 24.932 276.752C23.312 276.752 22.172 277.964 22.172 279.764C22.172 281.516 23.336 282.716 24.956 282.716C25.916 282.716 26.708 282.224 27.248 281.552L28.316 282.464C27.584 283.376 26.456 284.072 24.956 284.072ZM29.6182 284V275.168H30.9622V278.876H30.9742C31.4662 278.336 32.1742 278.06 32.9662 278.06C34.2502 278.06 35.1502 278.744 35.1502 280.496V284H33.8062V280.844C33.8062 279.68 33.3382 279.272 32.5342 279.272C31.5622 279.272 30.9622 279.872 30.9622 281.024V284H29.6182ZM42.1421 281C42.1421 281.216 42.1181 281.42 42.1061 281.516H37.8341C38.0021 282.368 38.6381 282.872 39.5501 282.872C40.2461 282.872 40.7261 282.56 41.0261 282.188L41.9621 282.992C41.4701 283.628 40.7381 284.096 39.4781 284.096C37.7021 284.096 36.4421 282.908 36.4421 281.072C36.4421 279.272 37.6661 278.06 39.3821 278.06C41.0261 278.06 42.1421 279.296 42.1421 281ZM39.3701 279.272C38.6261 279.272 38.0501 279.692 37.8581 280.46H40.7861C40.6181 279.752 40.1381 279.272 39.3701 279.272ZM46.1683 284.096C44.4403 284.096 43.1803 282.872 43.1803 281.084C43.1803 279.284 44.4403 278.06 46.2163 278.06C47.1283 278.06 48.0883 278.432 48.6763 279.152L47.7643 279.944C47.4283 279.548 46.9243 279.272 46.2883 279.272C45.2443 279.272 44.5483 280.004 44.5483 281.072C44.5483 282.152 45.2563 282.872 46.2883 282.872C46.9363 282.872 47.4643 282.584 47.7643 282.188L48.6883 283.004C48.1963 283.64 47.4403 284.096 46.1683 284.096ZM49.9151 284V275.168H51.2591V280.844L51.2831 280.856L53.6591 278.144H55.2551L53.1431 280.496L55.2911 284H53.7791L52.2071 281.42L51.2591 282.452V284H49.9151ZM62.0199 284.096C60.3999 284.096 59.1879 282.908 59.1879 281.096C59.1879 279.332 60.3999 278.06 62.0079 278.06C62.7519 278.06 63.3999 278.336 63.8199 278.864L63.8439 278.852V278.144H65.1879V284H63.9039V283.232L63.8799 283.22C63.4599 283.784 62.8359 284.096 62.0199 284.096ZM62.2359 282.872C63.1479 282.872 63.9039 282.164 63.9039 281.108C63.9039 280.064 63.1959 279.272 62.2359 279.272C61.2999 279.272 60.5559 279.98 60.5559 281.108C60.5559 282.14 61.2399 282.872 62.2359 282.872ZM66.9678 284V275.168H68.3118V284H66.9678ZM70.2373 284V275.168H71.5813V284H70.2373ZM78.3738 284.096C77.3658 284.096 76.7418 283.46 76.7418 282.152V279.284H76.0218V278.144H76.7418V276.2L78.0858 276.056V278.144H79.8018V279.284H78.0858V282.02C78.0858 282.62 78.2658 282.836 78.6498 282.836C78.8778 282.836 79.2018 282.752 79.5138 282.584L79.8618 283.748C79.5138 283.94 79.1418 284.096 78.3738 284.096ZM81.0166 284V275.168H82.3606V278.876H82.3726C82.8646 278.336 83.5726 278.06 84.3646 278.06C85.6486 278.06 86.5486 278.744 86.5486 280.496V284H85.2046V280.844C85.2046 279.68 84.7366 279.272 83.9326 279.272C82.9606 279.272 82.3606 279.872 82.3606 281.024V284H81.0166ZM90.6605 284.096C89.0405 284.096 87.8285 282.908 87.8285 281.096C87.8285 279.332 89.0405 278.06 90.6485 278.06C91.3925 278.06 92.0405 278.336 92.4605 278.864L92.4845 278.852V278.144H93.8285V284H92.5445V283.232L92.5205 283.22C92.1005 283.784 91.4765 284.096 90.6605 284.096ZM90.8765 282.872C91.7885 282.872 92.5445 282.164 92.5445 281.108C92.5445 280.064 91.8365 279.272 90.8765 279.272C89.9405 279.272 89.1965 279.98 89.1965 281.108C89.1965 282.14 89.8805 282.872 90.8765 282.872ZM97.2644 284.096C96.2564 284.096 95.6324 283.46 95.6324 282.152V279.284H94.9124V278.144H95.6324V276.2L96.9764 276.056V278.144H98.6924V279.284H96.9764V282.02C96.9764 282.62 97.1564 282.836 97.5404 282.836C97.7684 282.836 98.0924 282.752 98.4044 282.584L98.7524 283.748C98.4044 283.94 98.0324 284.096 97.2644 284.096ZM105.59 284.096C103.97 284.096 102.758 282.908 102.758 281.096C102.758 279.332 103.97 278.06 105.578 278.06C106.322 278.06 106.97 278.336 107.39 278.864L107.414 278.852V278.144H108.758V284H107.474V283.232L107.45 283.22C107.03 283.784 106.406 284.096 105.59 284.096ZM105.806 282.872C106.718 282.872 107.474 282.164 107.474 281.108C107.474 280.064 106.766 279.272 105.806 279.272C104.87 279.272 104.126 279.98 104.126 281.108C104.126 282.14 104.81 282.872 105.806 282.872ZM110.454 286.376V278.144H111.798V278.84H111.822C112.254 278.336 112.902 278.06 113.67 278.06C115.29 278.06 116.502 279.332 116.502 281.096C116.502 282.908 115.29 284.096 113.658 284.096C112.866 284.096 112.254 283.808 111.822 283.28L111.798 283.292V286.376H110.454ZM113.454 282.872C114.438 282.872 115.134 282.14 115.134 281.108C115.134 279.98 114.378 279.272 113.442 279.272C112.434 279.272 111.738 280.064 111.738 281.108C111.738 282.164 112.494 282.872 113.454 282.872ZM117.907 286.376V278.144H119.251V278.84H119.275C119.707 278.336 120.355 278.06 121.123 278.06C122.743 278.06 123.955 279.332 123.955 281.096C123.955 282.908 122.743 284.096 121.111 284.096C120.319 284.096 119.707 283.808 119.275 283.28L119.251 283.292V286.376H117.907ZM120.907 282.872C121.891 282.872 122.587 282.14 122.587 281.108C122.587 279.98 121.831 279.272 120.895 279.272C119.887 279.272 119.191 280.064 119.191 281.108C119.191 282.164 119.947 282.872 120.907 282.872ZM125.444 284V275.168H126.788V284H125.444ZM129.162 286.376L130.218 283.676L127.818 278.144H129.258L130.866 282.068H130.89L132.39 278.144H133.77L130.554 286.376H129.162Z" fill="white"/>
</g>
<path d="M20.5 131.5H354.5" stroke="#E8E8E8" stroke-width="1.5" stroke-linecap="square"/>
<path d="M131.68 126H20V131H131.68V126Z" fill="#E8E8E8"/>
</g>
<rect width="375" height="94" transform="translate(0 718)" fill="#4A43BF"/>
<path d="M328 738H47C32.0883 738 20 750.088 20 765C20 779.912 32.0883 792 47 792H328C342.912 792 355 779.912 355 765C355 750.088 342.912 738 328 738Z" fill="white"/>
<path d="M148.06 771.112C144.892 771.112 142.268 769.096 142.268 765.352C142.268 762.104 144.348 759.496 148.028 759.496C149.66 759.496 151.34 760.2 152.556 761.688L150.892 763.08C150.156 762.184 149.196 761.64 148.028 761.64C146.092 761.64 144.62 763.08 144.62 765.352C144.62 767.464 146.028 768.984 148.06 768.984C149.244 768.984 150.236 768.392 150.924 767.544L152.572 768.968C151.596 770.184 150.06 771.112 148.06 771.112ZM159.607 771.144C156.167 771.144 153.815 768.696 153.815 765.32C153.815 761.944 156.167 759.496 159.607 759.496C162.935 759.496 165.383 761.848 165.383 765.32C165.383 768.776 162.935 771.144 159.607 771.144ZM159.607 769.032C161.559 769.032 163.031 767.464 163.031 765.32C163.031 763.176 161.559 761.608 159.607 761.608C157.559 761.608 156.151 763.256 156.151 765.32C156.151 767.384 157.559 769.032 159.607 769.032ZM167.388 771V759.64H169.596L174.7 767.304H174.732V759.64H176.956V771H174.7L169.66 763.496H169.628V771H167.388ZM181.755 771V761.64H178.651V759.64H187.179V761.64H184.027V771H181.755ZM188.905 771V759.64H191.193V771H188.905ZM193.732 771V759.64H195.94L201.044 767.304H201.076V759.64H203.3V771H201.044L196.004 763.496H195.972V771H193.732ZM210.227 771.144C207.491 771.144 205.635 769.4 205.635 766.296V759.64H207.891V766.152C207.891 767.784 208.723 769.032 210.227 769.032C211.603 769.032 212.595 767.96 212.595 766.152V759.64H214.851V766.296C214.851 769.256 213.139 771.144 210.227 771.144ZM217.154 771V759.64H224.418V761.64H219.378V764.376H223.41V766.344H219.378V769H224.754V771H217.154Z" fill="black"/>
</g>
<defs>
<clipPath id="clip0_6_191">
<rect width="375" height="812" fill="white"/>
</clipPath>
<clipPath id="clip1_6_191">
<rect width="375" height="1047" fill="white"/>
</clipPath>
</defs>
</svg>
