<svg width="375" height="813" viewBox="0 0 375 813" fill="none" xmlns="http://www.w3.org/2000/svg">
<g clip-path="url(#clip0_6_463)">
<g clip-path="url(#clip1_6_463)">
<path d="M375.5 0.5H0.5V1494.5H375.5V0.5Z" fill="#4A43BF"/>
<g opacity="0.7">
<path d="M25.456 284.572C23.14 284.572 21.16 283.06 21.16 280.264C21.16 277.84 22.696 275.884 25.432 275.884C26.68 275.884 27.904 276.424 28.792 277.516L27.724 278.416C27.088 277.636 26.332 277.252 25.432 277.252C23.812 277.252 22.672 278.464 22.672 280.264C22.672 282.016 23.836 283.216 25.456 283.216C26.416 283.216 27.208 282.724 27.748 282.052L28.816 282.964C28.084 283.876 26.956 284.572 25.456 284.572ZM30.1182 284.5V275.668H31.4622V279.376H31.4742C31.9662 278.836 32.6742 278.56 33.4662 278.56C34.7502 278.56 35.6502 279.244 35.6502 280.996V284.5H34.3062V281.344C34.3062 280.18 33.8382 279.772 33.0342 279.772C32.0622 279.772 31.4622 280.372 31.4622 281.524V284.5H30.1182ZM42.6421 281.5C42.6421 281.716 42.6181 281.92 42.6061 282.016H38.3341C38.5021 282.868 39.1381 283.372 40.0501 283.372C40.7461 283.372 41.2261 283.06 41.5261 282.688L42.4621 283.492C41.9701 284.128 41.2381 284.596 39.9781 284.596C38.2021 284.596 36.9421 283.408 36.9421 281.572C36.9421 279.772 38.1661 278.56 39.8821 278.56C41.5261 278.56 42.6421 279.796 42.6421 281.5ZM39.8701 279.772C39.1261 279.772 38.5501 280.192 38.3581 280.96H41.2861C41.1181 280.252 40.6381 279.772 39.8701 279.772ZM46.6683 284.596C44.9403 284.596 43.6803 283.372 43.6803 281.584C43.6803 279.784 44.9403 278.56 46.7163 278.56C47.6283 278.56 48.5883 278.932 49.1763 279.652L48.2643 280.444C47.9283 280.048 47.4243 279.772 46.7883 279.772C45.7443 279.772 45.0483 280.504 45.0483 281.572C45.0483 282.652 45.7563 283.372 46.7883 283.372C47.4363 283.372 47.9643 283.084 48.2643 282.688L49.1883 283.504C48.6963 284.14 47.9403 284.596 46.6683 284.596ZM50.4151 284.5V275.668H51.7591V281.344L51.7831 281.356L54.1591 278.644H55.7551L53.6431 280.996L55.7911 284.5H54.2791L52.7071 281.92L51.7591 282.952V284.5H50.4151ZM62.5199 284.596C60.8999 284.596 59.6879 283.408 59.6879 281.596C59.6879 279.832 60.8999 278.56 62.5079 278.56C63.2519 278.56 63.8999 278.836 64.3199 279.364L64.3439 279.352V278.644H65.6879V284.5H64.4039V283.732L64.3799 283.72C63.9599 284.284 63.3359 284.596 62.5199 284.596ZM62.7359 283.372C63.6479 283.372 64.4039 282.664 64.4039 281.608C64.4039 280.564 63.6959 279.772 62.7359 279.772C61.7999 279.772 61.0559 280.48 61.0559 281.608C61.0559 282.64 61.7399 283.372 62.7359 283.372ZM67.4678 284.5V275.668H68.8118V284.5H67.4678ZM70.7373 284.5V275.668H72.0813V284.5H70.7373ZM79.7738 284.596C78.0458 284.596 76.7858 283.372 76.7858 281.584C76.7858 279.784 78.0458 278.56 79.8218 278.56C80.7338 278.56 81.6938 278.932 82.2818 279.652L81.3698 280.444C81.0338 280.048 80.5298 279.772 79.8938 279.772C78.8498 279.772 78.1538 280.504 78.1538 281.572C78.1538 282.652 78.8618 283.372 79.8938 283.372C80.5418 283.372 81.0698 283.084 81.3698 282.688L82.2938 283.504C81.8018 284.14 81.0458 284.596 79.7738 284.596ZM83.6045 284.5V275.668H84.9485V284.5H83.6045ZM89.5141 284.596C87.6661 284.596 86.4421 283.3 86.4421 281.584C86.4421 279.856 87.6661 278.56 89.5141 278.56C91.3141 278.56 92.5861 279.784 92.5861 281.584C92.5861 283.36 91.3141 284.596 89.5141 284.596ZM89.5141 283.372C90.4621 283.372 91.2181 282.64 91.2181 281.584C91.2181 280.504 90.4741 279.772 89.5141 279.772C88.4941 279.772 87.8101 280.564 87.8101 281.584C87.8101 282.58 88.5061 283.372 89.5141 283.372ZM95.8574 284.596C94.9094 284.596 94.1054 284.284 93.4934 283.744L94.1654 282.736C94.6334 283.192 95.1374 283.42 95.8574 283.42C96.3734 283.42 96.6734 283.192 96.6734 282.844C96.6734 282.544 96.2894 282.4 95.5214 282.136C94.5614 281.8 93.7334 281.368 93.7334 280.216C93.7334 279.256 94.5974 278.56 95.7974 278.56C96.5414 278.56 97.2134 278.764 97.8614 279.292L97.1894 280.348C96.7214 279.904 96.1814 279.724 95.7254 279.724C95.4614 279.724 95.0894 279.868 95.0894 280.228C95.0894 280.516 95.4494 280.72 96.0134 280.936C97.2614 281.428 98.0414 281.656 98.0414 282.82C98.0414 283.804 97.3454 284.596 95.8574 284.596ZM104.728 281.5C104.728 281.716 104.704 281.92 104.692 282.016H100.42C100.588 282.868 101.224 283.372 102.136 283.372C102.832 283.372 103.312 283.06 103.612 282.688L104.548 283.492C104.056 284.128 103.324 284.596 102.064 284.596C100.288 284.596 99.028 283.408 99.028 281.572C99.028 279.772 100.252 278.56 101.968 278.56C103.612 278.56 104.728 279.796 104.728 281.5ZM101.956 279.772C101.212 279.772 100.636 280.192 100.444 280.96H103.372C103.204 280.252 102.724 279.772 101.956 279.772ZM107.986 284.596C107.038 284.596 106.234 284.284 105.622 283.744L106.294 282.736C106.762 283.192 107.266 283.42 107.986 283.42C108.502 283.42 108.802 283.192 108.802 282.844C108.802 282.544 108.418 282.4 107.65 282.136C106.69 281.8 105.862 281.368 105.862 280.216C105.862 279.256 106.726 278.56 107.926 278.56C108.67 278.56 109.342 278.764 109.99 279.292L109.318 280.348C108.85 279.904 108.31 279.724 107.854 279.724C107.59 279.724 107.218 279.868 107.218 280.228C107.218 280.516 107.578 280.72 108.142 280.936C109.39 281.428 110.17 281.656 110.17 282.82C110.17 283.804 109.474 284.596 107.986 284.596ZM113.245 284.596C112.237 284.596 111.613 283.96 111.613 282.652V279.784H110.893V278.644H111.613V276.7L112.957 276.556V278.644H114.673V279.784H112.957V282.52C112.957 283.12 113.137 283.336 113.521 283.336C113.749 283.336 114.073 283.252 114.385 283.084L114.733 284.248C114.385 284.44 114.013 284.596 113.245 284.596ZM119.099 284.5V278.644H120.443V279.448H120.455C120.935 278.872 121.607 278.56 122.279 278.56C123.071 278.56 123.683 278.872 124.031 279.532H124.055C124.547 278.896 125.291 278.56 126.155 278.56C127.439 278.56 128.207 279.364 128.207 281.116V284.5H126.863V281.452C126.863 280.396 126.515 279.772 125.723 279.772C124.967 279.772 124.355 280.432 124.355 281.584V284.5H123.011V281.452C123.011 280.396 122.639 279.772 121.847 279.772C121.043 279.772 120.443 280.432 120.443 281.584V284.5H119.099ZM132.34 284.596C130.72 284.596 129.508 283.408 129.508 281.596C129.508 279.832 130.72 278.56 132.328 278.56C133.072 278.56 133.72 278.836 134.14 279.364L134.164 279.352V278.644H135.508V284.5H134.224V283.732L134.2 283.72C133.78 284.284 133.156 284.596 132.34 284.596ZM132.556 283.372C133.468 283.372 134.224 282.664 134.224 281.608C134.224 280.564 133.516 279.772 132.556 279.772C131.62 279.772 130.876 280.48 130.876 281.608C130.876 282.64 131.56 283.372 132.556 283.372ZM138.944 284.596C137.936 284.596 137.312 283.96 137.312 282.652V279.784H136.592V278.644H137.312V276.7L138.656 276.556V278.644H140.372V279.784H138.656V282.52C138.656 283.12 138.836 283.336 139.22 283.336C139.448 283.336 139.772 283.252 140.084 283.084L140.432 284.248C140.084 284.44 139.712 284.596 138.944 284.596ZM143.946 284.596C142.218 284.596 140.958 283.372 140.958 281.584C140.958 279.784 142.218 278.56 143.994 278.56C144.906 278.56 145.866 278.932 146.454 279.652L145.542 280.444C145.206 280.048 144.702 279.772 144.066 279.772C143.022 279.772 142.326 280.504 142.326 281.572C142.326 282.652 143.034 283.372 144.066 283.372C144.714 283.372 145.242 283.084 145.542 282.688L146.466 283.504C145.974 284.14 145.218 284.596 143.946 284.596ZM147.692 284.5V275.668H149.036V279.376H149.048C149.54 278.836 150.248 278.56 151.04 278.56C152.324 278.56 153.224 279.244 153.224 280.996V284.5H151.88V281.344C151.88 280.18 151.412 279.772 150.608 279.772C149.636 279.772 149.036 280.372 149.036 281.524V284.5H147.692ZM160.216 281.5C160.216 281.716 160.192 281.92 160.18 282.016H155.908C156.076 282.868 156.712 283.372 157.624 283.372C158.32 283.372 158.8 283.06 159.1 282.688L160.036 283.492C159.544 284.128 158.812 284.596 157.552 284.596C155.776 284.596 154.516 283.408 154.516 281.572C154.516 279.772 155.74 278.56 157.456 278.56C159.1 278.56 160.216 279.796 160.216 281.5ZM157.444 279.772C156.7 279.772 156.124 280.192 155.932 280.96H158.86C158.692 280.252 158.212 279.772 157.444 279.772ZM163.475 284.596C162.527 284.596 161.723 284.284 161.111 283.744L161.783 282.736C162.251 283.192 162.755 283.42 163.475 283.42C163.991 283.42 164.291 283.192 164.291 282.844C164.291 282.544 163.907 282.4 163.139 282.136C162.179 281.8 161.351 281.368 161.351 280.216C161.351 279.256 162.215 278.56 163.415 278.56C164.159 278.56 164.831 278.764 165.479 279.292L164.807 280.348C164.339 279.904 163.799 279.724 163.343 279.724C163.079 279.724 162.707 279.868 162.707 280.228C162.707 280.516 163.067 280.72 163.631 280.936C164.879 281.428 165.659 281.656 165.659 282.82C165.659 283.804 164.963 284.596 163.475 284.596Z" fill="white"/>
</g>
<path d="M28.966 203.5L21.35 179.36H26.45L31.142 195.646H31.21L35.528 179.36H40.56L44.81 195.612H44.912L49.604 179.36H54.704L47.088 203.5H42.668L38.112 186.33H38.044L33.386 203.5H28.966ZM57.7725 203.5V178.476H62.2265V188.88H62.2605C63.6205 187.384 65.5245 186.636 67.7005 186.636C71.2365 186.636 73.7865 188.438 73.7865 193.538V203.5H69.3325V194.66C69.3325 191.634 68.2105 190.614 66.1025 190.614C63.7225 190.614 62.2265 192.11 62.2265 195.102V203.5H57.7725ZM84.8968 203.806C80.3408 203.806 76.9748 200.372 76.9748 195.238C76.9748 190.206 80.3408 186.636 84.7948 186.636C86.7328 186.636 88.5008 187.384 89.6908 188.812L89.7588 188.778V186.874H94.2128V203.5H89.9628V201.528L89.8948 201.494C88.7388 202.99 87.0728 203.806 84.8968 203.806ZM85.7468 199.794C88.0248 199.794 89.9628 197.992 89.9628 195.272C89.9628 192.586 88.1268 190.614 85.7468 190.614C83.3328 190.614 81.4968 192.416 81.4968 195.272C81.4968 197.924 83.2308 199.794 85.7468 199.794ZM103.58 203.806C100.724 203.806 98.8543 202.004 98.8543 198.264V190.58H96.8823V186.874H98.8543V181.468L103.308 180.992V186.874H107.796V190.58H103.308V197.618C103.308 199.08 103.682 199.76 104.736 199.76C105.28 199.76 106.096 199.556 106.844 199.182L107.966 202.752C106.912 203.33 105.824 203.806 103.58 203.806ZM122.212 184.63C120.58 184.63 119.39 183.406 119.39 181.876C119.39 180.38 120.58 179.156 122.212 179.156C123.81 179.156 125.034 180.38 125.034 181.876C125.034 183.406 123.81 184.63 122.212 184.63ZM119.934 203.5V186.874H124.388V203.5H119.934ZM129.026 203.5V186.874H133.48V189.016H133.548C134.874 187.452 136.778 186.636 138.852 186.636C142.388 186.636 144.87 188.54 144.87 193.64V203.5H140.416V194.762C140.416 191.6 139.294 190.614 137.22 190.614C134.976 190.614 133.48 192.178 133.48 195.17V203.5H129.026ZM156.019 203.806C151.429 203.806 148.063 200.372 148.063 195.238C148.063 190.206 151.463 186.636 155.917 186.636C157.957 186.636 159.725 187.384 160.949 188.812H161.017V178.476H165.437V203.5H161.187V201.46H161.153C159.997 202.956 158.263 203.806 156.019 203.806ZM156.835 199.794C159.283 199.794 161.187 197.992 161.187 195.272C161.187 192.586 159.385 190.614 156.835 190.614C154.455 190.614 152.585 192.416 152.585 195.272C152.585 197.924 154.353 199.794 156.835 199.794ZM175.68 203.806C172.076 203.806 169.56 201.97 169.56 196.904V186.874H173.98V195.748C173.98 198.774 174.898 199.794 176.972 199.794C178.91 199.794 180.644 198.162 180.644 194.966V186.874H185.132V203.5H180.644V201.528L180.576 201.494C179.318 203.024 177.55 203.806 175.68 203.806ZM194.795 203.806C192.143 203.806 189.865 202.922 188.063 201.358L190.205 198.264C191.565 199.522 192.993 200.168 194.829 200.168C196.121 200.168 196.835 199.624 196.835 198.808C196.835 198.094 195.985 197.72 193.843 197.006C191.089 196.088 188.709 194.796 188.709 191.566C188.709 188.574 191.293 186.636 194.727 186.636C197.005 186.636 198.875 187.248 200.779 188.71L198.603 192.008C197.345 190.784 195.849 190.24 194.625 190.24C193.945 190.24 193.061 190.58 193.061 191.464C193.061 192.144 193.877 192.62 195.509 193.232C199.113 194.558 201.221 195.34 201.221 198.638C201.221 201.562 199.147 203.806 194.795 203.806ZM209.698 203.806C206.842 203.806 204.972 202.004 204.972 198.264V190.58H203V186.874H204.972V181.468L209.426 180.992V186.874H213.914V190.58H209.426V197.618C209.426 199.08 209.8 199.76 210.854 199.76C211.398 199.76 212.214 199.556 212.962 199.182L214.084 202.752C213.03 203.33 211.942 203.806 209.698 203.806ZM217.015 203.5V186.874H221.469V189.288H221.537C222.795 187.588 224.597 186.636 226.535 186.636H226.875V191.498C226.399 191.464 225.957 191.464 225.685 191.464C222.931 191.464 221.469 193.3 221.469 195.816V203.5H217.015ZM232.147 184.63C230.515 184.63 229.325 183.406 229.325 181.876C229.325 180.38 230.515 179.156 232.147 179.156C233.745 179.156 234.969 180.38 234.969 181.876C234.969 183.406 233.745 184.63 232.147 184.63ZM229.869 203.5V186.874H234.323V203.5H229.869ZM254.432 195.034C254.432 195.578 254.364 196.36 254.33 196.632H242.668C243.212 198.638 244.81 199.828 247.054 199.828C248.924 199.828 250.216 199.046 251.1 197.958L253.99 200.644C252.596 202.446 250.454 203.806 246.748 203.806C241.648 203.806 238.044 200.372 238.044 195.17C238.044 190.104 241.546 186.636 246.476 186.636C251.168 186.636 254.432 190.172 254.432 195.034ZM246.442 190.512C244.64 190.512 243.212 191.532 242.702 193.436H250.012C249.57 191.668 248.38 190.512 246.442 190.512ZM263.26 203.806C260.608 203.806 258.33 202.922 256.528 201.358L258.67 198.264C260.03 199.522 261.458 200.168 263.294 200.168C264.586 200.168 265.3 199.624 265.3 198.808C265.3 198.094 264.45 197.72 262.308 197.006C259.554 196.088 257.174 194.796 257.174 191.566C257.174 188.574 259.758 186.636 263.192 186.636C265.47 186.636 267.34 187.248 269.244 188.71L267.068 192.008C265.81 190.784 264.314 190.24 263.09 190.24C262.41 190.24 261.526 190.58 261.526 191.464C261.526 192.144 262.342 192.62 263.974 193.232C267.578 194.558 269.686 195.34 269.686 198.638C269.686 201.562 267.612 203.806 263.26 203.806ZM288.731 203.806C284.175 203.806 280.809 200.372 280.809 195.238C280.809 190.206 284.175 186.636 288.629 186.636C290.567 186.636 292.335 187.384 293.525 188.812L293.593 188.778V186.874H298.047V203.5H293.797V201.528L293.729 201.494C292.573 202.99 290.907 203.806 288.731 203.806ZM289.581 199.794C291.859 199.794 293.797 197.992 293.797 195.272C293.797 192.586 291.961 190.614 289.581 190.614C287.167 190.614 285.331 192.416 285.331 195.272C285.331 197.924 287.065 199.794 289.581 199.794ZM302.28 203.5V186.874H306.734V189.288H306.802C308.06 187.588 309.862 186.636 311.8 186.636H312.14V191.498C311.664 191.464 311.222 191.464 310.95 191.464C308.196 191.464 306.734 193.3 306.734 195.816V203.5H302.28ZM329.969 195.034C329.969 195.578 329.901 196.36 329.867 196.632H318.205C318.749 198.638 320.347 199.828 322.591 199.828C324.461 199.828 325.753 199.046 326.637 197.958L329.527 200.644C328.133 202.446 325.991 203.806 322.285 203.806C317.185 203.806 313.581 200.372 313.581 195.17C313.581 190.104 317.083 186.636 322.013 186.636C326.705 186.636 329.969 190.172 329.969 195.034ZM321.979 190.512C320.177 190.512 318.749 191.532 318.239 193.436H325.549C325.107 191.668 323.917 190.512 321.979 190.512Z" fill="white"/>
<path d="M24.716 252.232L27.674 244.48L21.01 228.874H25.77L29.816 239.074H29.884L33.658 228.874H38.18L29.238 252.232H24.716ZM47.9308 245.806C42.6268 245.806 39.0908 242.168 39.0908 237.204C39.0908 232.24 42.6268 228.636 47.9308 228.636C53.0988 228.636 56.7368 232.104 56.7368 237.204C56.7368 242.27 53.0988 245.806 47.9308 245.806ZM47.9308 241.794C50.3108 241.794 52.2148 239.924 52.2148 237.204C52.2148 234.484 50.3788 232.614 47.9308 232.614C45.3468 232.614 43.6128 234.586 43.6128 237.204C43.6128 239.788 45.3808 241.794 47.9308 241.794ZM66.0435 245.806C62.4395 245.806 59.9235 243.97 59.9235 238.904V228.874H64.3435V237.748C64.3435 240.774 65.2615 241.794 67.3355 241.794C69.2735 241.794 71.0075 240.162 71.0075 236.966V228.874H75.4955V245.5H71.0075V243.528L70.9395 243.494C69.6815 245.024 67.9135 245.806 66.0435 245.806ZM91.0006 226.63C89.3686 226.63 88.1786 225.406 88.1786 223.876C88.1786 222.38 89.3686 221.156 91.0006 221.156C92.5986 221.156 93.8226 222.38 93.8226 223.876C93.8226 225.406 92.5986 226.63 91.0006 226.63ZM88.7226 245.5V228.874H93.1766V245.5H88.7226ZM97.8155 245.5V228.874H102.269V231.016H102.337C103.663 229.452 105.567 228.636 107.641 228.636C111.177 228.636 113.659 230.54 113.659 235.64V245.5H109.205V236.762C109.205 233.6 108.083 232.614 106.009 232.614C103.765 232.614 102.269 234.178 102.269 237.17V245.5H97.8155ZM122.938 245.806C120.082 245.806 118.212 244.004 118.212 240.264V232.58H116.24V228.874H118.212V223.468L122.666 222.992V228.874H127.154V232.58H122.666V239.618C122.666 241.08 123.04 241.76 124.094 241.76C124.638 241.76 125.454 241.556 126.202 241.182L127.324 244.752C126.27 245.33 125.182 245.806 122.938 245.806ZM144.994 237.034C144.994 237.578 144.926 238.36 144.892 238.632H133.23C133.774 240.638 135.372 241.828 137.616 241.828C139.486 241.828 140.778 241.046 141.662 239.958L144.552 242.644C143.158 244.446 141.016 245.806 137.31 245.806C132.21 245.806 128.606 242.372 128.606 237.17C128.606 232.104 132.108 228.636 137.038 228.636C141.73 228.636 144.994 232.172 144.994 237.034ZM137.004 232.512C135.202 232.512 133.774 233.532 133.264 235.436H140.574C140.132 233.668 138.942 232.512 137.004 232.512ZM148.45 245.5V228.874H152.904V231.288H152.972C154.23 229.588 156.032 228.636 157.97 228.636H158.31V233.498C157.834 233.464 157.392 233.464 157.12 233.464C154.366 233.464 152.904 235.3 152.904 237.816V245.5H148.45ZM176.139 237.034C176.139 237.578 176.071 238.36 176.037 238.632H164.375C164.919 240.638 166.517 241.828 168.761 241.828C170.631 241.828 171.923 241.046 172.807 239.958L175.697 242.644C174.303 244.446 172.161 245.806 168.455 245.806C163.355 245.806 159.751 242.372 159.751 237.17C159.751 232.104 163.253 228.636 168.183 228.636C172.875 228.636 176.139 232.172 176.139 237.034ZM168.149 232.512C166.347 232.512 164.919 233.532 164.409 235.436H171.719C171.277 233.668 170.087 232.512 168.149 232.512ZM184.967 245.806C182.315 245.806 180.037 244.922 178.235 243.358L180.377 240.264C181.737 241.522 183.165 242.168 185.001 242.168C186.293 242.168 187.007 241.624 187.007 240.808C187.007 240.094 186.157 239.72 184.015 239.006C181.261 238.088 178.881 236.796 178.881 233.566C178.881 230.574 181.465 228.636 184.899 228.636C187.177 228.636 189.047 229.248 190.951 230.71L188.775 234.008C187.517 232.784 186.021 232.24 184.797 232.24C184.117 232.24 183.233 232.58 183.233 233.464C183.233 234.144 184.049 234.62 185.681 235.232C189.285 236.558 191.393 237.34 191.393 240.638C191.393 243.562 189.319 245.806 184.967 245.806ZM199.869 245.806C197.013 245.806 195.143 244.004 195.143 240.264V232.58H193.171V228.874H195.143V223.468L199.597 222.992V228.874H204.085V232.58H199.597V239.618C199.597 241.08 199.971 241.76 201.025 241.76C201.569 241.76 202.385 241.556 203.133 241.182L204.255 244.752C203.201 245.33 202.113 245.806 199.869 245.806ZM221.926 237.034C221.926 237.578 221.858 238.36 221.824 238.632H210.162C210.706 240.638 212.304 241.828 214.548 241.828C216.418 241.828 217.71 241.046 218.594 239.958L221.484 242.644C220.09 244.446 217.948 245.806 214.242 245.806C209.142 245.806 205.538 242.372 205.538 237.17C205.538 232.104 209.04 228.636 213.97 228.636C218.662 228.636 221.926 232.172 221.926 237.034ZM213.936 232.512C212.134 232.512 210.706 233.532 210.196 235.436H217.506C217.064 233.668 215.874 232.512 213.936 232.512ZM232.386 245.806C227.796 245.806 224.43 242.372 224.43 237.238C224.43 232.206 227.83 228.636 232.284 228.636C234.324 228.636 236.092 229.384 237.316 230.812H237.384V220.476H241.804V245.5H237.554V243.46H237.52C236.364 244.956 234.63 245.806 232.386 245.806ZM233.202 241.794C235.65 241.794 237.554 239.992 237.554 237.272C237.554 234.586 235.752 232.614 233.202 232.614C230.822 232.614 228.952 234.416 228.952 237.272C228.952 239.924 230.72 241.794 233.202 241.794ZM257.448 226.63C255.816 226.63 254.626 225.406 254.626 223.876C254.626 222.38 255.816 221.156 257.448 221.156C259.046 221.156 260.27 222.38 260.27 223.876C260.27 225.406 259.046 226.63 257.448 226.63ZM255.17 245.5V228.874H259.624V245.5H255.17ZM264.263 245.5V228.874H268.717V231.016H268.785C270.111 229.452 272.015 228.636 274.089 228.636C277.625 228.636 280.107 230.54 280.107 235.64V245.5H275.653V236.762C275.653 233.6 274.531 232.614 272.457 232.614C270.213 232.614 268.717 234.178 268.717 237.17V245.5H264.263ZM284.674 237.646V235.946C284.64 233.804 286.17 232.41 287.564 230.982C288.618 229.826 289.706 228.602 289.706 227.072C289.706 225.372 288.618 224.42 287.02 224.42C285.728 224.42 284.436 225.134 283.62 226.256L280.39 223.298C281.954 221.394 284.538 220.17 287.36 220.17C291.168 220.17 294.568 222.346 294.568 226.8C294.568 229.452 293.072 231.22 291.542 232.682C290.182 233.974 288.822 234.994 288.754 236.184L288.618 237.646H284.674ZM286.748 245.806C285.184 245.806 283.926 244.582 283.926 243.052C283.926 241.556 285.184 240.332 286.748 240.332C288.244 240.332 289.502 241.556 289.502 243.052C289.502 244.582 288.244 245.806 286.748 245.806Z" fill="white"/>
<path d="M347.703 78.46C349.559 78.46 351.079 79.74 351.079 81.996C351.079 84.156 349.367 85.644 347.111 85.644C344.855 85.644 343.159 83.868 343.159 81.18C343.159 77.66 345.511 74.796 348.967 74.156L349.607 75.916C347.639 76.476 346.311 77.388 345.671 78.924L345.703 78.956C346.295 78.636 346.999 78.46 347.703 78.46ZM347.207 83.676C348.263 83.676 348.951 82.892 348.951 81.948C348.951 80.988 348.247 80.284 347.143 80.284C346.375 80.284 345.687 80.716 345.239 81.276V81.404C345.239 82.78 346.135 83.676 347.207 83.676Z" fill="#C4C4C4"/>
<path d="M319.383 78.412C321.255 78.412 322.807 79.756 322.807 81.948C322.807 84.124 321.207 85.644 318.887 85.644C317.383 85.644 316.007 85.052 315.079 83.9L316.647 82.652C317.079 83.244 317.799 83.66 318.679 83.66C319.847 83.66 320.599 82.908 320.599 81.916C320.599 80.764 319.607 80.188 318.727 80.188C318.119 80.188 317.591 80.332 317.063 80.748L315.895 80.332L316.231 74.508H322.247V76.492H318.151L318.023 78.636C318.519 78.492 319.015 78.412 319.383 78.412Z" fill="white"/>
<path d="M336 73L331 88" stroke="#D8D8D8" stroke-width="2" stroke-linecap="round"/>
<path d="M118.495 84.5V74.56H125.089V76.31H120.441V78.97H124.319V80.734H120.441V84.5H118.495ZM126.754 84.5V74.56H128.756V84.5H126.754ZM130.977 84.5V74.56H132.909L137.375 81.266H137.403V74.56H139.349V84.5H137.375L132.965 77.934H132.937V84.5H130.977ZM141.518 84.5V74.56H144.808C147.958 74.56 149.974 76.604 149.974 79.544C149.974 82.47 148.042 84.5 144.85 84.5H141.518ZM143.464 82.75H144.724C146.656 82.75 147.916 81.364 147.916 79.544C147.916 77.682 146.642 76.31 144.836 76.31H143.464V82.75ZM157.623 84.5V80.132L154.333 74.56H156.587L158.617 78.172H158.645L160.633 74.56H162.915L159.611 80.132V84.5H157.623ZM167.946 84.626C164.936 84.626 162.878 82.484 162.878 79.53C162.878 76.576 164.936 74.434 167.946 74.434C170.858 74.434 173 76.492 173 79.53C173 82.554 170.858 84.626 167.946 84.626ZM167.946 82.778C169.654 82.778 170.942 81.406 170.942 79.53C170.942 77.654 169.654 76.282 167.946 76.282C166.154 76.282 164.922 77.724 164.922 79.53C164.922 81.336 166.154 82.778 167.946 82.778ZM178.647 84.626C176.253 84.626 174.629 83.1 174.629 80.384V74.56H176.603V80.258C176.603 81.686 177.331 82.778 178.647 82.778C179.851 82.778 180.719 81.84 180.719 80.258V74.56H182.693V80.384C182.693 82.974 181.195 84.626 178.647 84.626ZM184.708 84.5V74.56H188.474C190.868 74.56 191.932 75.96 191.932 77.864C191.932 79.376 191.232 80.412 189.86 80.86L192.352 84.5H190.014L187.788 81.098H186.654V84.5H184.708ZM186.654 79.362H188.082C189.286 79.362 189.902 78.746 189.902 77.836C189.902 76.912 189.3 76.31 188.166 76.31H186.654V79.362ZM202.139 84.598C199.367 84.598 197.071 82.834 197.071 79.558C197.071 76.716 198.891 74.434 202.111 74.434C203.539 74.434 205.009 75.05 206.073 76.352L204.617 77.57C203.973 76.786 203.133 76.31 202.111 76.31C200.417 76.31 199.129 77.57 199.129 79.558C199.129 81.406 200.361 82.736 202.139 82.736C203.175 82.736 204.043 82.218 204.645 81.476L206.087 82.722C205.233 83.786 203.889 84.598 202.139 84.598ZM212.243 84.626C209.233 84.626 207.175 82.484 207.175 79.53C207.175 76.576 209.233 74.434 212.243 74.434C215.155 74.434 217.297 76.492 217.297 79.53C217.297 82.554 215.155 84.626 212.243 84.626ZM212.243 82.778C213.951 82.778 215.239 81.406 215.239 79.53C215.239 77.654 213.951 76.282 212.243 76.282C210.451 76.282 209.219 77.724 209.219 79.53C209.219 81.336 210.451 82.778 212.243 82.778ZM217.664 84.5L221.346 74.56H223.25L226.946 84.5H224.888L224.202 82.512H220.394L219.722 84.5H217.664ZM220.954 80.832H223.642L222.312 76.94H222.284L220.954 80.832ZM232.368 84.598C229.596 84.598 227.3 82.834 227.3 79.558C227.3 76.716 229.12 74.434 232.34 74.434C233.768 74.434 235.238 75.05 236.302 76.352L234.846 77.57C234.202 76.786 233.362 76.31 232.34 76.31C230.646 76.31 229.358 77.57 229.358 79.558C229.358 81.406 230.59 82.736 232.368 82.736C233.404 82.736 234.272 82.218 234.874 81.476L236.316 82.722C235.462 83.786 234.118 84.598 232.368 84.598ZM237.809 84.5V74.56H239.797V78.858H243.857V74.56H245.831V84.5H243.857V80.608H239.797V84.5H237.809Z" fill="white"/>
<g opacity="0.7">
<path fill-rule="evenodd" clip-rule="evenodd" d="M21.8199 78.0595L31.0595 68.8199C31.7884 68.091 32.9703 68.091 33.6993 68.8199C34.4283 69.5489 34.4283 70.7308 33.6993 71.4598L24.4598 80.6993C23.7308 81.4283 22.5489 81.4283 21.8199 80.6993C21.091 79.9703 21.091 78.7884 21.8199 78.0595Z" fill="white"/>
<path fill-rule="evenodd" clip-rule="evenodd" d="M21.8199 78.0595C22.5489 77.3305 23.7308 77.3305 24.4598 78.0595L33.6993 87.299C34.4283 88.028 34.4283 89.2099 33.6993 89.9389C32.9703 90.6678 31.7884 90.6678 31.0595 89.9389L21.8199 80.6993C21.091 79.9703 21.091 78.7884 21.8199 78.0595Z" fill="white"/>
</g>
<path opacity="0.35" d="M355.333 18.3335H339.667C338.194 18.3335 337 19.5274 337 21.0002V26.0002C337 27.4729 338.194 28.6668 339.667 28.6668H355.333C356.806 28.6668 358 27.4729 358 26.0002V21.0002C358 19.5274 356.806 18.3335 355.333 18.3335Z" stroke="white"/>
<path opacity="0.4" d="M359.5 21.5V25.5C360.305 25.1612 360.828 24.3731 360.828 23.5C360.828 22.6269 360.305 21.8388 359.5 21.5Z" fill="white"/>
<path d="M355.167 19.8335H339.833C339.097 19.8335 338.5 20.4304 338.5 21.1668V25.8335C338.5 26.5699 339.097 27.1668 339.833 27.1668H355.167C355.903 27.1668 356.5 26.5699 356.5 25.8335V21.1668C356.5 20.4304 355.903 19.8335 355.167 19.8335Z" fill="white"/>
<path d="M323.83 20.1079C326.046 20.108 328.178 20.9594 329.783 22.4862C329.904 22.6041 330.098 22.6026 330.217 22.4829L331.373 21.3162C331.433 21.2555 331.467 21.1733 331.466 21.0877C331.466 21.0021 331.431 20.9202 331.37 20.8602C327.155 16.8207 320.505 16.8207 316.29 20.8602C316.229 20.9202 316.194 21.002 316.194 21.0876C316.193 21.1732 316.227 21.2555 316.287 21.3162L317.443 22.4829C317.562 22.6028 317.756 22.6043 317.877 22.4862C319.483 20.9593 321.614 20.1079 323.83 20.1079ZM323.83 23.9036C325.048 23.9035 326.222 24.356 327.124 25.1732C327.247 25.2892 327.439 25.2867 327.558 25.1676L328.712 24.0009C328.773 23.9397 328.807 23.8567 328.806 23.7704C328.805 23.6842 328.77 23.6018 328.708 23.5419C325.96 20.9855 321.704 20.9855 318.955 23.5419C318.893 23.6018 318.858 23.6842 318.857 23.7705C318.856 23.8568 318.89 23.9398 318.951 24.0009L320.105 25.1676C320.224 25.2867 320.417 25.2892 320.539 25.1732C321.441 24.3566 322.614 23.9041 323.83 23.9036ZM326.049 26.6879C326.111 26.6273 326.145 26.5439 326.143 26.4574C326.142 26.3709 326.104 26.2889 326.04 26.2309C324.765 25.152 322.896 25.152 321.621 26.2309C321.557 26.2889 321.519 26.3708 321.517 26.4573C321.515 26.5438 321.549 26.6272 321.611 26.6879L323.609 28.7036C323.667 28.7628 323.747 28.7961 323.83 28.7961C323.914 28.7961 323.994 28.7628 324.052 28.7036L326.049 26.6879Z" fill="white"/>
<path d="M295.167 24.8332H296.167C296.719 24.8332 297.167 25.2809 297.167 25.8332V27.8332C297.167 28.3855 296.719 28.8332 296.167 28.8332H295.167C294.614 28.8332 294.167 28.3855 294.167 27.8332V25.8332C294.167 25.2809 294.614 24.8332 295.167 24.8332ZM299.833 22.8332H300.833C301.386 22.8332 301.833 23.2809 301.833 23.8332V27.8332C301.833 28.3855 301.386 28.8332 300.833 28.8332H299.833C299.281 28.8332 298.833 28.3855 298.833 27.8332V23.8332C298.833 23.2809 299.281 22.8332 299.833 22.8332ZM304.5 20.4998H305.5C306.052 20.4998 306.5 20.9476 306.5 21.4998V27.8332C306.5 28.3855 306.052 28.8332 305.5 28.8332H304.5C303.948 28.8332 303.5 28.3855 303.5 27.8332V21.4998C303.5 20.9476 303.948 20.4998 304.5 20.4998ZM309.167 18.1665H310.167C310.719 18.1665 311.167 18.6142 311.167 19.1665V27.8332C311.167 28.3855 310.719 28.8332 310.167 28.8332H309.167C308.614 28.8332 308.167 28.3855 308.167 27.8332V19.1665C308.167 18.6142 308.614 18.1665 309.167 18.1665Z" fill="white"/>
<path d="M38.2798 28.2393C36.4751 28.2393 35.0942 27.1797 34.8071 25.5664H36.564C36.7759 26.3047 37.4526 26.7627 38.3003 26.7627C39.7427 26.7627 40.5698 25.4434 40.5903 23.1602H40.4741C40.0093 24.0967 39.0728 24.6299 37.9175 24.6299C36.0376 24.6299 34.6704 23.249 34.6704 21.3555C34.6704 19.332 36.188 17.8896 38.3345 17.8896C40.6929 17.8896 42.2788 19.6943 42.2788 22.9551C42.2788 26.2773 40.7886 28.2393 38.2798 28.2393ZM38.3413 23.2354C39.4829 23.2354 40.2964 22.4355 40.2964 21.335C40.2964 20.2139 39.4624 19.3594 38.3481 19.3594C37.2339 19.3594 36.3999 20.2002 36.3999 21.3008C36.3999 22.4424 37.1929 23.2354 38.3413 23.2354ZM45.3755 26.6396C44.7329 26.6396 44.2817 26.1748 44.2817 25.5596C44.2817 24.9375 44.7329 24.4795 45.3755 24.4795C46.0249 24.4795 46.4692 24.9375 46.4692 25.5596C46.4692 26.1748 46.0249 26.6396 45.3755 26.6396ZM45.3755 21.6494C44.7329 21.6494 44.2817 21.1914 44.2817 20.5762C44.2817 19.9541 44.7329 19.4961 45.3755 19.4961C46.0249 19.4961 46.4692 19.9541 46.4692 20.5762C46.4692 21.1914 46.0249 21.6494 45.3755 21.6494ZM53.2847 28V26.1201H48.4653V24.6504C49.7437 22.4219 51.145 20.1729 52.4849 18.1357H54.9731V24.6299H56.3062V26.1201H54.9731V28H53.2847ZM50.0991 24.5752V24.6709H53.312V19.5713H53.2163C52.2046 21.1025 51.063 22.9141 50.0991 24.5752ZM60.3462 28V19.9131H60.23L57.7759 21.6357V19.9404L60.353 18.1357H62.1099V28H60.3462Z" fill="white"/>
<path d="M21 132H355" stroke="#E8E8E8" stroke-width="1.5" stroke-linecap="square"/>
<path d="M299.67 126.5H20.5V131.5H299.67V126.5Z" fill="#E8E8E8"/>
<path d="M349.5 464.5H26.5C23.1863 464.5 20.5 467.186 20.5 470.5V508.5C20.5 511.814 23.1863 514.5 26.5 514.5H349.5C352.814 514.5 355.5 511.814 355.5 508.5V470.5C355.5 467.186 352.814 464.5 349.5 464.5Z" fill="#5F57FF"/>
<g opacity="0.7">
<path d="M156.608 495.612C153.44 495.612 150.816 493.596 150.816 489.852C150.816 486.604 152.896 483.996 156.576 483.996C158.208 483.996 159.888 484.7 161.104 486.188L159.44 487.58C158.704 486.684 157.744 486.14 156.576 486.14C154.64 486.14 153.168 487.58 153.168 489.852C153.168 491.964 154.576 493.484 156.608 493.484C157.792 493.484 158.784 492.892 159.472 492.044L161.12 493.468C160.144 494.684 158.608 495.612 156.608 495.612ZM166.363 495.644C163.867 495.644 162.203 493.932 162.203 491.596C162.203 489.26 163.867 487.564 166.363 487.564C168.795 487.564 170.507 489.196 170.507 491.596C170.507 493.98 168.795 495.644 166.363 495.644ZM166.363 493.756C167.483 493.756 168.379 492.876 168.379 491.596C168.379 490.316 167.515 489.436 166.363 489.436C165.147 489.436 164.331 490.364 164.331 491.596C164.331 492.812 165.163 493.756 166.363 493.756ZM172.151 495.5V487.676H174.247V488.684H174.279C174.903 487.948 175.799 487.564 176.775 487.564C178.439 487.564 179.607 488.46 179.607 490.86V495.5H177.511V491.388C177.511 489.9 176.983 489.436 176.007 489.436C174.951 489.436 174.247 490.172 174.247 491.58V495.5H172.151ZM184.085 495.644C182.837 495.644 181.765 495.228 180.917 494.492L181.925 493.036C182.565 493.628 183.237 493.932 184.101 493.932C184.709 493.932 185.045 493.676 185.045 493.292C185.045 492.956 184.645 492.78 183.637 492.444C182.341 492.012 181.221 491.404 181.221 489.884C181.221 488.476 182.437 487.564 184.053 487.564C185.125 487.564 186.005 487.852 186.901 488.54L185.877 490.092C185.285 489.516 184.581 489.26 184.005 489.26C183.685 489.26 183.269 489.42 183.269 489.836C183.269 490.156 183.653 490.38 184.421 490.668C186.117 491.292 187.109 491.66 187.109 493.212C187.109 494.588 186.133 495.644 184.085 495.644ZM191.418 495.644C189.722 495.644 188.538 494.78 188.538 492.396V487.676H190.618V491.852C190.618 493.276 191.05 493.756 192.026 493.756C192.938 493.756 193.754 492.988 193.754 491.484V487.676H195.866V495.5H193.754V494.572L193.722 494.556C193.13 495.276 192.298 495.644 191.418 495.644ZM197.885 495.5V487.676H199.981V488.7H199.997C200.621 487.948 201.469 487.564 202.333 487.564C203.357 487.564 204.173 487.948 204.637 488.796H204.669C205.309 487.98 206.285 487.564 207.405 487.564C209.085 487.564 210.157 488.572 210.157 490.972V495.5H208.061V491.468C208.061 490.22 207.677 489.436 206.701 489.436C205.821 489.436 205.101 490.188 205.101 491.596V495.5H203.005V491.468C203.005 490.22 202.589 489.436 201.629 489.436C200.685 489.436 199.981 490.188 199.981 491.596V495.5H197.885ZM219.399 491.516C219.399 491.772 219.367 492.14 219.351 492.268H213.863C214.119 493.212 214.871 493.772 215.927 493.772C216.807 493.772 217.415 493.404 217.831 492.892L219.191 494.156C218.535 495.004 217.527 495.644 215.783 495.644C213.383 495.644 211.687 494.028 211.687 491.58C211.687 489.196 213.335 487.564 215.655 487.564C217.863 487.564 219.399 489.228 219.399 491.516ZM215.639 489.388C214.791 489.388 214.119 489.868 213.879 490.764H217.319C217.111 489.932 216.551 489.388 215.639 489.388ZM221.026 495.5V487.676H223.122V488.812H223.154C223.746 488.012 224.594 487.564 225.506 487.564H225.666V489.852C225.442 489.836 225.234 489.836 225.106 489.836C223.81 489.836 223.122 490.7 223.122 491.884V495.5H221.026Z" fill="white"/>
<path d="M59.5 478.5H41.5C40.3954 478.5 39.5 479.395 39.5 480.5V498.5C39.5 499.605 40.3954 500.5 41.5 500.5H59.5C60.6046 500.5 61.5 499.605 61.5 498.5V480.5C61.5 479.395 60.6046 478.5 59.5 478.5Z" stroke="white" stroke-width="2"/>
</g>
<path d="M349.5 534.5H26.5C23.1863 534.5 20.5 537.186 20.5 540.5V578.5C20.5 581.814 23.1863 584.5 26.5 584.5H349.5C352.814 584.5 355.5 581.814 355.5 578.5V540.5C355.5 537.186 352.814 534.5 349.5 534.5Z" fill="#5F57FF"/>
<g opacity="0.7">
<path d="M140.656 565.5V554.14H147.92V556.14H142.88V558.876H146.912V560.844H142.88V563.5H148.256V565.5H140.656ZM149.395 561.548V559.58H154.243V561.548H149.395ZM161.562 565.612C158.394 565.612 155.77 563.596 155.77 559.852C155.77 556.604 157.85 553.996 161.53 553.996C163.162 553.996 164.842 554.7 166.058 556.188L164.394 557.58C163.658 556.684 162.698 556.14 161.53 556.14C159.594 556.14 158.122 557.58 158.122 559.852C158.122 561.964 159.53 563.484 161.562 563.484C162.746 563.484 163.738 562.892 164.426 562.044L166.074 563.468C165.098 564.684 163.562 565.612 161.562 565.612ZM171.317 565.644C168.821 565.644 167.157 563.932 167.157 561.596C167.157 559.26 168.821 557.564 171.317 557.564C173.749 557.564 175.461 559.196 175.461 561.596C175.461 563.98 173.749 565.644 171.317 565.644ZM171.317 563.756C172.437 563.756 173.333 562.876 173.333 561.596C173.333 560.316 172.469 559.436 171.317 559.436C170.101 559.436 169.285 560.364 169.285 561.596C169.285 562.812 170.117 563.756 171.317 563.756ZM177.105 565.5V557.676H179.201V558.7H179.217C179.841 557.948 180.689 557.564 181.553 557.564C182.577 557.564 183.393 557.948 183.857 558.796H183.889C184.529 557.98 185.505 557.564 186.625 557.564C188.305 557.564 189.377 558.572 189.377 560.972V565.5H187.281V561.468C187.281 560.22 186.897 559.436 185.921 559.436C185.041 559.436 184.321 560.188 184.321 561.596V565.5H182.225V561.468C182.225 560.22 181.809 559.436 180.849 559.436C179.905 559.436 179.201 560.188 179.201 561.596V565.5H177.105ZM191.339 565.5V557.676H193.435V558.7H193.451C194.075 557.948 194.923 557.564 195.787 557.564C196.811 557.564 197.627 557.948 198.091 558.796H198.123C198.763 557.98 199.739 557.564 200.859 557.564C202.539 557.564 203.611 558.572 203.611 560.972V565.5H201.515V561.468C201.515 560.22 201.131 559.436 200.155 559.436C199.275 559.436 198.555 560.188 198.555 561.596V565.5H196.459V561.468C196.459 560.22 196.043 559.436 195.083 559.436C194.139 559.436 193.435 560.188 193.435 561.596V565.5H191.339ZM212.853 561.516C212.853 561.772 212.821 562.14 212.805 562.268H207.317C207.573 563.212 208.325 563.772 209.381 563.772C210.261 563.772 210.869 563.404 211.285 562.892L212.645 564.156C211.989 565.004 210.981 565.644 209.237 565.644C206.837 565.644 205.141 564.028 205.141 561.58C205.141 559.196 206.789 557.564 209.109 557.564C211.317 557.564 212.853 559.228 212.853 561.516ZM209.093 559.388C208.245 559.388 207.573 559.868 207.333 560.764H210.773C210.565 559.932 210.005 559.388 209.093 559.388ZM214.48 565.5V557.676H216.576V558.812H216.608C217.2 558.012 218.048 557.564 218.96 557.564H219.12V559.852C218.896 559.836 218.688 559.836 218.56 559.836C217.264 559.836 216.576 560.7 216.576 561.884V565.5H214.48ZM223.83 565.644C221.494 565.644 219.798 564.012 219.798 561.612C219.798 559.196 221.478 557.564 223.894 557.564C225.11 557.564 226.39 558.012 227.206 558.972L225.83 560.268C225.414 559.756 224.774 559.436 224.038 559.436C222.774 559.436 221.926 560.316 221.926 561.596C221.926 562.892 222.79 563.756 224.038 563.756C224.838 563.756 225.462 563.42 225.878 562.908L227.238 564.22C226.566 565.052 225.494 565.644 223.83 565.644ZM235.963 561.516C235.963 561.772 235.931 562.14 235.915 562.268H230.427C230.683 563.212 231.435 563.772 232.491 563.772C233.371 563.772 233.979 563.404 234.395 562.892L235.755 564.156C235.099 565.004 234.091 565.644 232.347 565.644C229.947 565.644 228.251 564.028 228.251 561.58C228.251 559.196 229.899 557.564 232.219 557.564C234.427 557.564 235.963 559.228 235.963 561.516ZM232.203 559.388C231.355 559.388 230.683 559.868 230.443 560.764H233.883C233.675 559.932 233.115 559.388 232.203 559.388Z" fill="white"/>
<path d="M59.5 548.5H41.5C40.3954 548.5 39.5 549.395 39.5 550.5V568.5C39.5 569.605 40.3954 570.5 41.5 570.5H59.5C60.6046 570.5 61.5 569.605 61.5 568.5V550.5C61.5 549.395 60.6046 548.5 59.5 548.5Z" stroke="white" stroke-width="2"/>
</g>
<path d="M349.5 604.5H26.5C23.1863 604.5 20.5 607.186 20.5 610.5V648.5C20.5 651.814 23.1863 654.5 26.5 654.5H349.5C352.814 654.5 355.5 651.814 355.5 648.5V610.5C355.5 607.186 352.814 604.5 349.5 604.5Z" fill="#6E66FF"/>
<path d="M151.392 635.5V624.14H158.656V626.14H153.616V628.876H157.648V630.844H153.616V633.5H158.992V635.5H151.392ZM163.902 635.644C161.742 635.644 160.158 634.028 160.158 631.612C160.158 629.244 161.758 627.564 163.854 627.564C164.814 627.564 165.646 627.916 166.222 628.588H166.254V623.724H168.334V635.5H166.334V634.54H166.318C165.774 635.244 164.958 635.644 163.902 635.644ZM164.286 633.756C165.438 633.756 166.334 632.908 166.334 631.628C166.334 630.364 165.486 629.436 164.286 629.436C163.166 629.436 162.286 630.284 162.286 631.628C162.286 632.876 163.118 633.756 164.286 633.756ZM173.155 635.644C171.459 635.644 170.275 634.78 170.275 632.396V627.676H172.355V631.852C172.355 633.276 172.787 633.756 173.763 633.756C174.675 633.756 175.491 632.988 175.491 631.484V627.676H177.603V635.5H175.491V634.572L175.459 634.556C174.867 635.276 174.035 635.644 173.155 635.644ZM183.222 635.644C180.886 635.644 179.19 634.012 179.19 631.612C179.19 629.196 180.87 627.564 183.286 627.564C184.502 627.564 185.782 628.012 186.598 628.972L185.222 630.268C184.806 629.756 184.166 629.436 183.43 629.436C182.166 629.436 181.318 630.316 181.318 631.596C181.318 632.892 182.182 633.756 183.43 633.756C184.23 633.756 184.854 633.42 185.27 632.908L186.63 634.22C185.958 635.052 184.886 635.644 183.222 635.644ZM191.355 635.644C189.211 635.644 187.627 634.028 187.627 631.612C187.627 629.244 189.211 627.564 191.307 627.564C192.219 627.564 193.051 627.916 193.611 628.588L193.643 628.572V627.676H195.739V635.5H193.739V634.572L193.707 634.556C193.163 635.26 192.379 635.644 191.355 635.644ZM191.755 633.756C192.827 633.756 193.739 632.908 193.739 631.628C193.739 630.364 192.875 629.436 191.755 629.436C190.619 629.436 189.755 630.284 189.755 631.628C189.755 632.876 190.571 633.756 191.755 633.756ZM200.147 635.644C198.803 635.644 197.923 634.796 197.923 633.036V629.42H196.995V627.676H197.923V625.132L200.019 624.908V627.676H202.131V629.42H200.019V632.732C200.019 633.42 200.195 633.74 200.691 633.74C200.947 633.74 201.331 633.644 201.683 633.468L202.211 635.148C201.715 635.42 201.203 635.644 200.147 635.644ZM204.759 626.62C203.991 626.62 203.431 626.044 203.431 625.324C203.431 624.62 203.991 624.044 204.759 624.044C205.511 624.044 206.087 624.62 206.087 625.324C206.087 626.044 205.511 626.62 204.759 626.62ZM203.687 635.5V627.676H205.783V635.5H203.687ZM211.694 635.644C209.198 635.644 207.534 633.932 207.534 631.596C207.534 629.26 209.198 627.564 211.694 627.564C214.126 627.564 215.838 629.196 215.838 631.596C215.838 633.98 214.126 635.644 211.694 635.644ZM211.694 633.756C212.814 633.756 213.71 632.876 213.71 631.596C213.71 630.316 212.846 629.436 211.694 629.436C210.478 629.436 209.662 630.364 209.662 631.596C209.662 632.812 210.494 633.756 211.694 633.756ZM217.481 635.5V627.676H219.577V628.684H219.609C220.233 627.948 221.129 627.564 222.105 627.564C223.769 627.564 224.937 628.46 224.937 630.86V635.5H222.841V631.388C222.841 629.9 222.313 629.436 221.337 629.436C220.281 629.436 219.577 630.172 219.577 631.58V635.5H217.481Z" fill="white"/>
<path d="M59.5 618.5H41.5C40.3954 618.5 39.5 619.395 39.5 620.5V638.5C39.5 639.605 40.3954 640.5 41.5 640.5H59.5C60.6046 640.5 61.5 639.605 61.5 638.5V620.5C61.5 619.395 60.6046 618.5 59.5 618.5Z" fill="white" stroke="white" stroke-width="2"/>
<path d="M49.7928 632.449L45.5501 628.206C45.1596 627.816 44.5264 627.816 44.1359 628.206C43.7454 628.597 43.7454 629.23 44.1359 629.62L48.3786 633.863C48.7691 634.254 49.4022 634.254 49.7928 633.863C50.1833 633.472 50.1833 632.839 49.7928 632.449Z" fill="black"/>
<path d="M55.4497 625.378C55.8402 624.987 56.4734 624.987 56.8639 625.378C57.2545 625.768 57.2545 626.402 56.8639 626.792L49.7929 633.863C49.4023 634.254 48.7692 634.254 48.3787 633.863C47.9881 633.473 47.9881 632.839 48.3787 632.449L55.4497 625.378Z" fill="black"/>
<path d="M349.5 674.5H26.5C23.1863 674.5 20.5 677.186 20.5 680.5V718.5C20.5 721.814 23.1863 724.5 26.5 724.5H349.5C352.814 724.5 355.5 721.814 355.5 718.5V680.5C355.5 677.186 352.814 674.5 349.5 674.5Z" fill="#5F57FF"/>
<g opacity="0.7">
<path d="M151.464 705.5V694.14H158.728V696.14H153.688V698.876H157.72V700.844H153.688V703.5H159.064V705.5H151.464ZM160.834 705.5V697.676H162.93V698.684H162.962C163.586 697.948 164.482 697.564 165.458 697.564C167.122 697.564 168.29 698.46 168.29 700.86V705.5H166.194V701.388C166.194 699.9 165.666 699.436 164.69 699.436C163.634 699.436 162.93 700.172 162.93 701.58V705.5H160.834ZM172.657 705.644C171.313 705.644 170.433 704.796 170.433 703.036V699.42H169.505V697.676H170.433V695.132L172.529 694.908V697.676H174.641V699.42H172.529V702.732C172.529 703.42 172.705 703.74 173.201 703.74C173.457 703.74 173.841 703.644 174.193 703.468L174.721 705.148C174.225 705.42 173.713 705.644 172.657 705.644ZM183.036 701.516C183.036 701.772 183.004 702.14 182.988 702.268H177.5C177.756 703.212 178.508 703.772 179.564 703.772C180.444 703.772 181.052 703.404 181.468 702.892L182.828 704.156C182.172 705.004 181.164 705.644 179.42 705.644C177.02 705.644 175.324 704.028 175.324 701.58C175.324 699.196 176.972 697.564 179.292 697.564C181.5 697.564 183.036 699.228 183.036 701.516ZM179.276 699.388C178.428 699.388 177.756 699.868 177.516 700.764H180.956C180.748 699.932 180.188 699.388 179.276 699.388ZM184.663 705.5V697.676H186.759V698.812H186.791C187.383 698.012 188.231 697.564 189.143 697.564H189.303V699.852C189.079 699.836 188.871 699.836 188.743 699.836C187.447 699.836 186.759 700.7 186.759 701.884V705.5H184.663ZM190.616 708.668V697.676H192.712V698.572H192.744C193.304 697.916 194.136 697.564 195.096 697.564C197.208 697.564 198.792 699.244 198.792 701.612C198.792 704.028 197.208 705.644 195.032 705.644C194.056 705.644 193.288 705.276 192.744 704.62L192.712 704.636V708.668H190.616ZM194.664 703.756C195.832 703.756 196.664 702.876 196.664 701.628C196.664 700.284 195.768 699.436 194.648 699.436C193.448 699.436 192.616 700.364 192.616 701.628C192.616 702.908 193.512 703.756 194.664 703.756ZM200.444 705.5V697.676H202.54V698.812H202.572C203.164 698.012 204.012 697.564 204.924 697.564H205.084V699.852C204.86 699.836 204.652 699.836 204.524 699.836C203.228 699.836 202.54 700.7 202.54 701.884V705.5H200.444ZM207.565 696.62C206.797 696.62 206.237 696.044 206.237 695.324C206.237 694.62 206.797 694.044 207.565 694.044C208.317 694.044 208.893 694.62 208.893 695.324C208.893 696.044 208.317 696.62 207.565 696.62ZM206.493 705.5V697.676H208.589V705.5H206.493ZM213.3 705.644C212.052 705.644 210.98 705.228 210.132 704.492L211.14 703.036C211.78 703.628 212.452 703.932 213.316 703.932C213.924 703.932 214.26 703.676 214.26 703.292C214.26 702.956 213.86 702.78 212.852 702.444C211.556 702.012 210.436 701.404 210.436 699.884C210.436 698.476 211.652 697.564 213.268 697.564C214.34 697.564 215.22 697.852 216.116 698.54L215.092 700.092C214.5 699.516 213.796 699.26 213.22 699.26C212.9 699.26 212.484 699.42 212.484 699.836C212.484 700.156 212.868 700.38 213.636 700.668C215.332 701.292 216.324 701.66 216.324 703.212C216.324 704.588 215.348 705.644 213.3 705.644ZM225.177 701.516C225.177 701.772 225.145 702.14 225.129 702.268H219.641C219.897 703.212 220.649 703.772 221.705 703.772C222.585 703.772 223.193 703.404 223.609 702.892L224.969 704.156C224.313 705.004 223.305 705.644 221.561 705.644C219.161 705.644 217.465 704.028 217.465 701.58C217.465 699.196 219.113 697.564 221.433 697.564C223.641 697.564 225.177 699.228 225.177 701.516ZM221.417 699.388C220.569 699.388 219.897 699.868 219.657 700.764H223.097C222.889 699.932 222.329 699.388 221.417 699.388Z" fill="white"/>
<path d="M59.5 688.5H41.5C40.3954 688.5 39.5 689.395 39.5 690.5V708.5C39.5 709.605 40.3954 710.5 41.5 710.5H59.5C60.6046 710.5 61.5 709.605 61.5 708.5V690.5C61.5 689.395 60.6046 688.5 59.5 688.5Z" stroke="white" stroke-width="2"/>
</g>
<path d="M349.5 744.5H26.5C23.1863 744.5 20.5 747.186 20.5 750.5V788.5C20.5 791.814 23.1863 794.5 26.5 794.5H349.5C352.814 794.5 355.5 791.814 355.5 788.5V750.5C355.5 747.186 352.814 744.5 349.5 744.5Z" fill="#5F57FF"/>
<g opacity="0.7">
<path d="M135.824 775.5V764.14H143.088V766.14H138.048V768.876H142.08V770.844H138.048V773.5H143.424V775.5H135.824ZM145.195 775.5V767.676H147.291V768.684H147.323C147.947 767.948 148.843 767.564 149.819 767.564C151.483 767.564 152.651 768.46 152.651 770.86V775.5H150.555V771.388C150.555 769.9 150.027 769.436 149.051 769.436C147.995 769.436 147.291 770.172 147.291 771.58V775.5H145.195ZM157.017 775.644C155.673 775.644 154.793 774.796 154.793 773.036V769.42H153.865V767.676H154.793V765.132L156.889 764.908V767.676H159.001V769.42H156.889V772.732C156.889 773.42 157.065 773.74 157.561 773.74C157.817 773.74 158.201 773.644 158.553 773.468L159.081 775.148C158.585 775.42 158.073 775.644 157.017 775.644ZM167.396 771.516C167.396 771.772 167.364 772.14 167.348 772.268H161.86C162.116 773.212 162.868 773.772 163.924 773.772C164.804 773.772 165.412 773.404 165.828 772.892L167.188 774.156C166.532 775.004 165.524 775.644 163.78 775.644C161.38 775.644 159.684 774.028 159.684 771.58C159.684 769.196 161.332 767.564 163.652 767.564C165.86 767.564 167.396 769.228 167.396 771.516ZM163.636 769.388C162.788 769.388 162.116 769.868 161.876 770.764H165.316C165.108 769.932 164.548 769.388 163.636 769.388ZM169.023 775.5V767.676H171.119V768.812H171.151C171.743 768.012 172.591 767.564 173.503 767.564H173.663V769.852C173.439 769.836 173.231 769.836 173.103 769.836C171.807 769.836 171.119 770.7 171.119 771.884V775.5H169.023ZM177.392 775.644C176.048 775.644 175.168 774.796 175.168 773.036V769.42H174.24V767.676H175.168V765.132L177.264 764.908V767.676H179.376V769.42H177.264V772.732C177.264 773.42 177.44 773.74 177.936 773.74C178.192 773.74 178.576 773.644 178.928 773.468L179.456 775.148C178.96 775.42 178.448 775.644 177.392 775.644ZM183.803 775.644C181.659 775.644 180.075 774.028 180.075 771.612C180.075 769.244 181.659 767.564 183.755 767.564C184.667 767.564 185.499 767.916 186.059 768.588L186.091 768.572V767.676H188.187V775.5H186.187V774.572L186.155 774.556C185.611 775.26 184.827 775.644 183.803 775.644ZM184.203 773.756C185.275 773.756 186.187 772.908 186.187 771.628C186.187 770.364 185.323 769.436 184.203 769.436C183.067 769.436 182.203 770.284 182.203 771.628C182.203 772.876 183.019 773.756 184.203 773.756ZM191.347 766.62C190.579 766.62 190.019 766.044 190.019 765.324C190.019 764.62 190.579 764.044 191.347 764.044C192.099 764.044 192.675 764.62 192.675 765.324C192.675 766.044 192.099 766.62 191.347 766.62ZM190.275 775.5V767.676H192.371V775.5H190.275ZM194.554 775.5V767.676H196.65V768.684H196.682C197.306 767.948 198.202 767.564 199.178 767.564C200.842 767.564 202.01 768.46 202.01 770.86V775.5H199.914V771.388C199.914 769.9 199.386 769.436 198.41 769.436C197.354 769.436 196.65 770.172 196.65 771.58V775.5H194.554ZM203.96 775.5V767.676H206.056V768.7H206.072C206.696 767.948 207.544 767.564 208.408 767.564C209.432 767.564 210.248 767.948 210.712 768.796H210.744C211.384 767.98 212.36 767.564 213.48 767.564C215.16 767.564 216.232 768.572 216.232 770.972V775.5H214.136V771.468C214.136 770.22 213.752 769.436 212.776 769.436C211.896 769.436 211.176 770.188 211.176 771.596V775.5H209.08V771.468C209.08 770.22 208.664 769.436 207.704 769.436C206.76 769.436 206.056 770.188 206.056 771.596V775.5H203.96ZM225.475 771.516C225.475 771.772 225.443 772.14 225.427 772.268H219.939C220.195 773.212 220.947 773.772 222.003 773.772C222.883 773.772 223.491 773.404 223.907 772.892L225.267 774.156C224.611 775.004 223.603 775.644 221.859 775.644C219.459 775.644 217.763 774.028 217.763 771.58C217.763 769.196 219.411 767.564 221.731 767.564C223.939 767.564 225.475 769.228 225.475 771.516ZM221.715 769.388C220.867 769.388 220.195 769.868 219.955 770.764H223.395C223.187 769.932 222.627 769.388 221.715 769.388ZM227.101 775.5V767.676H229.197V768.684H229.229C229.853 767.948 230.749 767.564 231.725 767.564C233.389 767.564 234.557 768.46 234.557 770.86V775.5H232.461V771.388C232.461 769.9 231.933 769.436 230.957 769.436C229.901 769.436 229.197 770.172 229.197 771.58V775.5H227.101ZM238.923 775.644C237.579 775.644 236.699 774.796 236.699 773.036V769.42H235.771V767.676H236.699V765.132L238.795 764.908V767.676H240.907V769.42H238.795V772.732C238.795 773.42 238.971 773.74 239.467 773.74C239.723 773.74 240.107 773.644 240.459 773.468L240.987 775.148C240.491 775.42 239.979 775.644 238.923 775.644Z" fill="white"/>
<path d="M59.5 758.5H41.5C40.3954 758.5 39.5 759.395 39.5 760.5V778.5C39.5 779.605 40.3954 780.5 41.5 780.5H59.5C60.6046 780.5 61.5 779.605 61.5 778.5V760.5C61.5 759.395 60.6046 758.5 59.5 758.5Z" stroke="white" stroke-width="2"/>
</g>
<path d="M349.5 394.5H26.5C23.1863 394.5 20.5 397.186 20.5 400.5V438.5C20.5 441.814 23.1863 444.5 26.5 444.5H349.5C352.814 444.5 355.5 441.814 355.5 438.5V400.5C355.5 397.186 352.814 394.5 349.5 394.5Z" fill="#5F57FF"/>
<g opacity="0.7">
<path d="M145.192 425.5L149.4 414.14H151.576L155.8 425.5H153.448L152.664 423.228H148.312L147.544 425.5H145.192ZM148.952 421.308H152.024L150.504 416.86H150.472L148.952 421.308ZM159.618 425.644C157.922 425.644 156.738 424.78 156.738 422.396V417.676H158.818V421.852C158.818 423.276 159.25 423.756 160.226 423.756C161.138 423.756 161.954 422.988 161.954 421.484V417.676H164.066V425.5H161.954V424.572L161.922 424.556C161.33 425.276 160.498 425.644 159.618 425.644ZM168.501 425.644C167.157 425.644 166.277 424.796 166.277 423.036V419.42H165.349V417.676H166.277V415.132L168.373 414.908V417.676H170.485V419.42H168.373V422.732C168.373 423.42 168.549 423.74 169.045 423.74C169.301 423.74 169.685 423.644 170.037 423.468L170.565 425.148C170.069 425.42 169.557 425.644 168.501 425.644ZM175.329 425.644C172.833 425.644 171.169 423.932 171.169 421.596C171.169 419.26 172.833 417.564 175.329 417.564C177.761 417.564 179.473 419.196 179.473 421.596C179.473 423.98 177.761 425.644 175.329 425.644ZM175.329 423.756C176.449 423.756 177.345 422.876 177.345 421.596C177.345 420.316 176.481 419.436 175.329 419.436C174.113 419.436 173.297 420.364 173.297 421.596C173.297 422.812 174.129 423.756 175.329 423.756ZM181.117 425.5V417.676H183.213V418.7H183.229C183.853 417.948 184.701 417.564 185.565 417.564C186.589 417.564 187.405 417.948 187.869 418.796H187.901C188.541 417.98 189.517 417.564 190.637 417.564C192.317 417.564 193.389 418.572 193.389 420.972V425.5H191.293V421.468C191.293 420.22 190.909 419.436 189.933 419.436C189.053 419.436 188.333 420.188 188.333 421.596V425.5H186.237V421.468C186.237 420.22 185.821 419.436 184.861 419.436C183.917 419.436 183.213 420.188 183.213 421.596V425.5H181.117ZM199.079 425.644C196.583 425.644 194.919 423.932 194.919 421.596C194.919 419.26 196.583 417.564 199.079 417.564C201.511 417.564 203.223 419.196 203.223 421.596C203.223 423.98 201.511 425.644 199.079 425.644ZM199.079 423.756C200.199 423.756 201.095 422.876 201.095 421.596C201.095 420.316 200.231 419.436 199.079 419.436C197.863 419.436 197.047 420.364 197.047 421.596C197.047 422.812 197.879 423.756 199.079 423.756ZM207.283 425.644C205.939 425.644 205.059 424.796 205.059 423.036V419.42H204.131V417.676H205.059V415.132L207.155 414.908V417.676H209.267V419.42H207.155V422.732C207.155 423.42 207.331 423.74 207.827 423.74C208.083 423.74 208.467 423.644 208.819 423.468L209.347 425.148C208.851 425.42 208.339 425.644 207.283 425.644ZM211.894 416.62C211.126 416.62 210.566 416.044 210.566 415.324C210.566 414.62 211.126 414.044 211.894 414.044C212.646 414.044 213.222 414.62 213.222 415.324C213.222 416.044 212.646 416.62 211.894 416.62ZM210.822 425.5V417.676H212.918V425.5H210.822ZM217.373 425.5L214.301 417.676H216.541L218.349 422.924H218.365L220.205 417.676H222.397L219.325 425.5H217.373ZM230.475 421.516C230.475 421.772 230.443 422.14 230.427 422.268H224.939C225.195 423.212 225.947 423.772 227.003 423.772C227.883 423.772 228.491 423.404 228.907 422.892L230.267 424.156C229.611 425.004 228.603 425.644 226.859 425.644C224.459 425.644 222.763 424.028 222.763 421.58C222.763 419.196 224.411 417.564 226.731 417.564C228.939 417.564 230.475 419.228 230.475 421.516ZM226.715 419.388C225.867 419.388 225.195 419.868 224.955 420.764H228.395C228.187 419.932 227.627 419.388 226.715 419.388Z" fill="white"/>
<path d="M59.5 408.5H41.5C40.3954 408.5 39.5 409.395 39.5 410.5V428.5C39.5 429.605 40.3954 430.5 41.5 430.5H59.5C60.6046 430.5 61.5 429.605 61.5 428.5V410.5C61.5 409.395 60.6046 408.5 59.5 408.5Z" stroke="white" stroke-width="2"/>
</g>
<path d="M349.5 324.5H26.5C23.1863 324.5 20.5 327.186 20.5 330.5V368.5C20.5 371.814 23.1863 374.5 26.5 374.5H349.5C352.814 374.5 355.5 371.814 355.5 368.5V330.5C355.5 327.186 352.814 324.5 349.5 324.5Z" fill="#5F57FF"/>
<g opacity="0.7">
<path d="M145.944 355.5L150.152 344.14H152.328L156.552 355.5H154.2L153.416 353.228H149.064L148.296 355.5H145.944ZM149.704 351.308H152.776L151.256 346.86H151.224L149.704 351.308ZM161.133 355.644C158.973 355.644 157.389 354.028 157.389 351.612C157.389 349.244 158.989 347.564 161.085 347.564C162.045 347.564 162.877 347.916 163.453 348.588H163.485V343.724H165.565V355.5H163.565V354.54H163.549C163.005 355.244 162.189 355.644 161.133 355.644ZM161.517 353.756C162.669 353.756 163.565 352.908 163.565 351.628C163.565 350.364 162.717 349.436 161.517 349.436C160.397 349.436 159.517 350.284 159.517 351.628C159.517 352.876 160.349 353.756 161.517 353.756ZM169.922 355.5L166.85 347.676H169.09L170.898 352.924H170.914L172.754 347.676H174.946L171.874 355.5H169.922ZM183.024 351.516C183.024 351.772 182.992 352.14 182.976 352.268H177.488C177.744 353.212 178.496 353.772 179.552 353.772C180.432 353.772 181.04 353.404 181.456 352.892L182.816 354.156C182.16 355.004 181.152 355.644 179.408 355.644C177.008 355.644 175.312 354.028 175.312 351.58C175.312 349.196 176.96 347.564 179.28 347.564C181.488 347.564 183.024 349.228 183.024 351.516ZM179.264 349.388C178.416 349.388 177.744 349.868 177.504 350.764H180.944C180.736 349.932 180.176 349.388 179.264 349.388ZM184.65 355.5V347.676H186.746V348.812H186.778C187.37 348.012 188.218 347.564 189.13 347.564H189.29V349.852C189.066 349.836 188.858 349.836 188.73 349.836C187.434 349.836 186.746 350.7 186.746 351.884V355.5H184.65ZM193.019 355.644C191.675 355.644 190.795 354.796 190.795 353.036V349.42H189.867V347.676H190.795V345.132L192.891 344.908V347.676H195.003V349.42H192.891V352.732C192.891 353.42 193.067 353.74 193.563 353.74C193.819 353.74 194.203 353.644 194.555 353.468L195.083 355.148C194.587 355.42 194.075 355.644 193.019 355.644ZM197.63 346.62C196.862 346.62 196.302 346.044 196.302 345.324C196.302 344.62 196.862 344.044 197.63 344.044C198.382 344.044 198.958 344.62 198.958 345.324C198.958 346.044 198.382 346.62 197.63 346.62ZM196.558 355.5V347.676H198.654V355.5H196.558ZM203.365 355.644C202.117 355.644 201.045 355.228 200.197 354.492L201.205 353.036C201.845 353.628 202.517 353.932 203.381 353.932C203.989 353.932 204.325 353.676 204.325 353.292C204.325 352.956 203.925 352.78 202.917 352.444C201.621 352.012 200.501 351.404 200.501 349.884C200.501 348.476 201.717 347.564 203.333 347.564C204.405 347.564 205.285 347.852 206.181 348.54L205.157 350.092C204.565 349.516 203.861 349.26 203.285 349.26C202.965 349.26 202.549 349.42 202.549 349.836C202.549 350.156 202.933 350.38 203.701 350.668C205.397 351.292 206.389 351.66 206.389 353.212C206.389 354.588 205.413 355.644 203.365 355.644ZM209.13 346.62C208.362 346.62 207.802 346.044 207.802 345.324C207.802 344.62 208.362 344.044 209.13 344.044C209.882 344.044 210.458 344.62 210.458 345.324C210.458 346.044 209.882 346.62 209.13 346.62ZM208.058 355.5V347.676H210.154V355.5H208.058ZM212.337 355.5V347.676H214.433V348.684H214.465C215.089 347.948 215.985 347.564 216.961 347.564C218.625 347.564 219.793 348.46 219.793 350.86V355.5H217.697V351.388C217.697 349.9 217.169 349.436 216.193 349.436C215.137 349.436 214.433 350.172 214.433 351.58V355.5H212.337ZM225.28 358.796C224.08 358.796 223.008 358.54 222.08 358.012L222.576 356.236C223.344 356.668 224.096 356.972 225.12 356.972C226.576 356.972 227.312 356.172 227.312 355.244V354.46H227.28C226.72 355.036 225.936 355.356 225.008 355.356C222.864 355.356 221.28 353.788 221.28 351.516C221.28 349.212 222.816 347.564 224.896 347.564C225.76 347.564 226.608 347.868 227.248 348.492H227.28V347.676H229.376V354.604C229.376 357.052 228.304 358.796 225.28 358.796ZM225.392 353.468C226.544 353.468 227.36 352.62 227.36 351.436C227.36 350.252 226.512 349.452 225.392 349.452C224.224 349.452 223.408 350.268 223.408 351.452C223.408 352.684 224.272 353.468 225.392 353.468Z" fill="white"/>
<path d="M59.5 338.5H41.5C40.3954 338.5 39.5 339.395 39.5 340.5V358.5C39.5 359.605 40.3954 360.5 41.5 360.5H59.5C60.6046 360.5 61.5 359.605 61.5 358.5V340.5C61.5 339.395 60.6046 338.5 59.5 338.5Z" stroke="white" stroke-width="2"/>
</g>
</g>
<rect width="375" height="94" transform="translate(0 719)" fill="#4A43BF"/>
<path d="M328 739H47C32.0883 739 20 751.088 20 766C20 780.912 32.0883 793 47 793H328C342.912 793 355 780.912 355 766C355 751.088 342.912 739 328 739Z" fill="white"/>
<path d="M148.06 772.112C144.892 772.112 142.268 770.096 142.268 766.352C142.268 763.104 144.348 760.496 148.028 760.496C149.66 760.496 151.34 761.2 152.556 762.688L150.892 764.08C150.156 763.184 149.196 762.64 148.028 762.64C146.092 762.64 144.62 764.08 144.62 766.352C144.62 768.464 146.028 769.984 148.06 769.984C149.244 769.984 150.236 769.392 150.924 768.544L152.572 769.968C151.596 771.184 150.06 772.112 148.06 772.112ZM159.607 772.144C156.167 772.144 153.815 769.696 153.815 766.32C153.815 762.944 156.167 760.496 159.607 760.496C162.935 760.496 165.383 762.848 165.383 766.32C165.383 769.776 162.935 772.144 159.607 772.144ZM159.607 770.032C161.559 770.032 163.031 768.464 163.031 766.32C163.031 764.176 161.559 762.608 159.607 762.608C157.559 762.608 156.151 764.256 156.151 766.32C156.151 768.384 157.559 770.032 159.607 770.032ZM167.388 772V760.64H169.596L174.7 768.304H174.732V760.64H176.956V772H174.7L169.66 764.496H169.628V772H167.388ZM181.755 772V762.64H178.651V760.64H187.179V762.64H184.027V772H181.755ZM188.905 772V760.64H191.193V772H188.905ZM193.732 772V760.64H195.94L201.044 768.304H201.076V760.64H203.3V772H201.044L196.004 764.496H195.972V772H193.732ZM210.227 772.144C207.491 772.144 205.635 770.4 205.635 767.296V760.64H207.891V767.152C207.891 768.784 208.723 770.032 210.227 770.032C211.603 770.032 212.595 768.96 212.595 767.152V760.64H214.851V767.296C214.851 770.256 213.139 772.144 210.227 772.144ZM217.154 772V760.64H224.418V762.64H219.378V765.376H223.41V767.344H219.378V770H224.754V772H217.154Z" fill="black"/>
</g>
<defs>
<clipPath id="clip0_6_463">
<rect width="375" height="812" fill="white" transform="translate(0 0.5)"/>
</clipPath>
<clipPath id="clip1_6_463">
<rect width="375" height="1607" fill="white" transform="translate(0.5 0.5)"/>
</clipPath>
</defs>
</svg>
