<svg width="375" height="813" viewBox="0 0 375 813" fill="none" xmlns="http://www.w3.org/2000/svg">
<g clip-path="url(#clip0_5_345)">
<path d="M375 0.5H0V1185.5H375V0.5Z" fill="#4A43BF"/>
<g opacity="0.7">
<path d="M22.796 284.5V277.276H20.384V275.98H26.696V277.276H24.248V284.5H22.796ZM28.0596 284.5V275.668H29.4036V279.376H29.4156C29.9076 278.836 30.6156 278.56 31.4076 278.56C32.6916 278.56 33.5916 279.244 33.5916 280.996V284.5H32.2476V281.344C32.2476 280.18 31.7796 279.772 30.9756 279.772C30.0036 279.772 29.4036 280.372 29.4036 281.524V284.5H28.0596ZM35.9875 277.78C35.4835 277.78 35.0875 277.372 35.0875 276.88C35.0875 276.4 35.4835 275.992 35.9875 275.992C36.4915 275.992 36.8995 276.4 36.8995 276.88C36.8995 277.372 36.4915 277.78 35.9875 277.78ZM35.3155 284.5V278.644H36.6595V284.5H35.3155ZM40.373 284.596C39.425 284.596 38.621 284.284 38.009 283.744L38.681 282.736C39.149 283.192 39.653 283.42 40.373 283.42C40.889 283.42 41.189 283.192 41.189 282.844C41.189 282.544 40.805 282.4 40.037 282.136C39.077 281.8 38.249 281.368 38.249 280.216C38.249 279.256 39.113 278.56 40.313 278.56C41.057 278.56 41.729 278.764 42.377 279.292L41.705 280.348C41.237 279.904 40.697 279.724 40.241 279.724C39.977 279.724 39.605 279.868 39.605 280.228C39.605 280.516 39.965 280.72 40.529 280.936C41.777 281.428 42.557 281.656 42.557 282.82C42.557 283.804 41.861 284.596 40.373 284.596ZM47.8586 277.78C47.3546 277.78 46.9586 277.372 46.9586 276.88C46.9586 276.4 47.3546 275.992 47.8586 275.992C48.3626 275.992 48.7706 276.4 48.7706 276.88C48.7706 277.372 48.3626 277.78 47.8586 277.78ZM47.1866 284.5V278.644H48.5306V284.5H47.1866ZM52.2441 284.596C51.2961 284.596 50.4921 284.284 49.8801 283.744L50.5521 282.736C51.0201 283.192 51.5241 283.42 52.2441 283.42C52.7601 283.42 53.0601 283.192 53.0601 282.844C53.0601 282.544 52.6761 282.4 51.9081 282.136C50.9481 281.8 50.1201 281.368 50.1201 280.216C50.1201 279.256 50.9841 278.56 52.1841 278.56C52.9281 278.56 53.6001 278.764 54.2481 279.292L53.5761 280.348C53.1081 279.904 52.5681 279.724 52.1121 279.724C51.8481 279.724 51.4761 279.868 51.4761 280.228C51.4761 280.516 51.8361 280.72 52.4001 280.936C53.6481 281.428 54.4281 281.656 54.4281 282.82C54.4281 283.804 53.7321 284.596 52.2441 284.596ZM60.8457 284.596C59.8977 284.596 59.0937 284.284 58.4817 283.744L59.1537 282.736C59.6217 283.192 60.1257 283.42 60.8457 283.42C61.3617 283.42 61.6617 283.192 61.6617 282.844C61.6617 282.544 61.2777 282.4 60.5097 282.136C59.5497 281.8 58.7217 281.368 58.7217 280.216C58.7217 279.256 59.5857 278.56 60.7857 278.56C61.5297 278.56 62.2017 278.764 62.8497 279.292L62.1777 280.348C61.7097 279.904 61.1697 279.724 60.7137 279.724C60.4497 279.724 60.0777 279.868 60.0777 280.228C60.0777 280.516 60.4377 280.72 61.0017 280.936C62.2497 281.428 63.0297 281.656 63.0297 282.82C63.0297 283.804 62.3337 284.596 60.8457 284.596ZM67.0883 284.596C65.2403 284.596 64.0163 283.3 64.0163 281.584C64.0163 279.856 65.2403 278.56 67.0883 278.56C68.8883 278.56 70.1603 279.784 70.1603 281.584C70.1603 283.36 68.8883 284.596 67.0883 284.596ZM67.0883 283.372C68.0363 283.372 68.7923 282.64 68.7923 281.584C68.7923 280.504 68.0483 279.772 67.0883 279.772C66.0683 279.772 65.3843 280.564 65.3843 281.584C65.3843 282.58 66.0803 283.372 67.0883 283.372ZM75.4665 286.876L76.5225 284.176L74.1225 278.644H75.5625L77.1705 282.568H77.1945L78.6945 278.644H80.0745L76.8585 286.876H75.4665ZM83.6117 284.596C81.7637 284.596 80.5397 283.3 80.5397 281.584C80.5397 279.856 81.7637 278.56 83.6117 278.56C85.4117 278.56 86.6837 279.784 86.6837 281.584C86.6837 283.36 85.4117 284.596 83.6117 284.596ZM83.6117 283.372C84.5597 283.372 85.3157 282.64 85.3157 281.584C85.3157 280.504 84.5717 279.772 83.6117 279.772C82.5917 279.772 81.9077 280.564 81.9077 281.584C81.9077 282.58 82.6037 283.372 83.6117 283.372ZM90.159 284.596C88.863 284.596 87.963 283.948 87.963 282.208V278.644H89.307V281.848C89.307 283.012 89.667 283.372 90.471 283.372C91.251 283.372 91.971 282.712 91.971 281.452V278.644H93.315V284.5H91.971V283.768L91.947 283.756C91.479 284.32 90.831 284.596 90.159 284.596ZM95.0205 284.5V278.644H96.3645V279.52H96.3885C96.8445 278.908 97.4925 278.56 98.2005 278.56H98.3685V280.06C98.2125 280.048 98.0565 280.036 97.9605 280.036C96.9405 280.036 96.3645 280.768 96.3645 281.728V284.5H95.0205ZM105.336 284.596C103.608 284.596 102.348 283.372 102.348 281.584C102.348 279.784 103.608 278.56 105.384 278.56C106.296 278.56 107.256 278.932 107.844 279.652L106.932 280.444C106.596 280.048 106.092 279.772 105.456 279.772C104.412 279.772 103.716 280.504 103.716 281.572C103.716 282.652 104.424 283.372 105.456 283.372C106.104 283.372 106.632 283.084 106.932 282.688L107.856 283.504C107.364 284.14 106.608 284.596 105.336 284.596ZM111.807 284.596C109.959 284.596 108.735 283.3 108.735 281.584C108.735 279.856 109.959 278.56 111.807 278.56C113.607 278.56 114.879 279.784 114.879 281.584C114.879 283.36 113.607 284.596 111.807 284.596ZM111.807 283.372C112.755 283.372 113.511 282.64 113.511 281.584C113.511 280.504 112.767 279.772 111.807 279.772C110.787 279.772 110.103 280.564 110.103 281.584C110.103 282.58 110.799 283.372 111.807 283.372ZM118.75 284.596C117.13 284.596 115.918 283.408 115.918 281.596C115.918 279.832 117.13 278.56 118.738 278.56C119.482 278.56 120.13 278.836 120.55 279.364L120.574 279.352V278.644H121.918V284.5H120.634V283.732L120.61 283.72C120.19 284.284 119.566 284.596 118.75 284.596ZM118.966 283.372C119.878 283.372 120.634 282.664 120.634 281.608C120.634 280.564 119.926 279.772 118.966 279.772C118.03 279.772 117.286 280.48 117.286 281.608C117.286 282.64 117.97 283.372 118.966 283.372ZM126.254 284.596C124.526 284.596 123.266 283.372 123.266 281.584C123.266 279.784 124.526 278.56 126.302 278.56C127.214 278.56 128.174 278.932 128.762 279.652L127.85 280.444C127.514 280.048 127.01 279.772 126.374 279.772C125.33 279.772 124.634 280.504 124.634 281.572C124.634 282.652 125.342 283.372 126.374 283.372C127.022 283.372 127.55 283.084 127.85 282.688L128.774 283.504C128.282 284.14 127.526 284.596 126.254 284.596ZM130.001 284.5V275.668H131.345V279.376H131.357C131.849 278.836 132.557 278.56 133.349 278.56C134.633 278.56 135.533 279.244 135.533 280.996V284.5H134.189V281.344C134.189 280.18 133.721 279.772 132.917 279.772C131.945 279.772 131.345 280.372 131.345 281.524V284.5H130.001ZM140.384 284.5V275.668H141.728V281.344L141.752 281.356L144.128 278.644H145.724L143.612 280.996L145.76 284.5H144.248L142.676 281.92L141.728 282.952V284.5H140.384ZM146.806 284.5V278.644H148.15V279.448H148.174C148.654 278.872 149.362 278.56 150.13 278.56C151.414 278.56 152.278 279.292 152.278 281.056V284.5H150.934V281.404C150.934 280.168 150.466 279.772 149.662 279.772C148.75 279.772 148.15 280.408 148.15 281.56V284.5H146.806ZM156.643 284.596C154.795 284.596 153.571 283.3 153.571 281.584C153.571 279.856 154.795 278.56 156.643 278.56C158.443 278.56 159.715 279.784 159.715 281.584C159.715 283.36 158.443 284.596 156.643 284.596ZM156.643 283.372C157.591 283.372 158.347 282.64 158.347 281.584C158.347 280.504 157.603 279.772 156.643 279.772C155.623 279.772 154.939 280.564 154.939 281.584C154.939 282.58 155.635 283.372 156.643 283.372ZM162.178 284.5L160.186 278.644H161.566L162.802 282.532H162.826L163.978 278.644H165.094L166.27 282.532H166.294L167.53 278.644H168.886L166.894 284.5H165.658L164.53 280.816H164.518L163.39 284.5H162.178ZM171.811 284.596C170.863 284.596 170.059 284.284 169.447 283.744L170.119 282.736C170.587 283.192 171.091 283.42 171.811 283.42C172.327 283.42 172.627 283.192 172.627 282.844C172.627 282.544 172.243 282.4 171.475 282.136C170.515 281.8 169.687 281.368 169.687 280.216C169.687 279.256 170.551 278.56 171.751 278.56C172.495 278.56 173.167 278.764 173.815 279.292L173.143 280.348C172.675 279.904 172.135 279.724 171.679 279.724C171.415 279.724 171.043 279.868 171.043 280.228C171.043 280.516 171.403 280.72 171.967 280.936C173.215 281.428 173.995 281.656 173.995 282.82C173.995 283.804 173.299 284.596 171.811 284.596ZM179.932 284.5L177.94 278.644H179.32L180.556 282.532H180.58L181.732 278.644H182.848L184.024 282.532H184.048L185.284 278.644H186.64L184.648 284.5H183.412L182.284 280.816H182.272L181.144 284.5H179.932ZM187.798 284.5V275.668H189.142V279.376H189.154C189.646 278.836 190.354 278.56 191.146 278.56C192.43 278.56 193.33 279.244 193.33 280.996V284.5H191.986V281.344C191.986 280.18 191.518 279.772 190.714 279.772C189.742 279.772 189.142 280.372 189.142 281.524V284.5H187.798ZM197.694 284.596C195.846 284.596 194.622 283.3 194.622 281.584C194.622 279.856 195.846 278.56 197.694 278.56C199.494 278.56 200.766 279.784 200.766 281.584C200.766 283.36 199.494 284.596 197.694 284.596ZM197.694 283.372C198.642 283.372 199.398 282.64 199.398 281.584C199.398 280.504 198.654 279.772 197.694 279.772C196.674 279.772 195.99 280.564 195.99 281.584C195.99 282.58 196.686 283.372 197.694 283.372ZM207.116 284.596C206.108 284.596 205.484 283.96 205.484 282.652V279.784H204.764V278.644H205.484V276.7L206.828 276.556V278.644H208.544V279.784H206.828V282.52C206.828 283.12 207.008 283.336 207.392 283.336C207.62 283.336 207.944 283.252 208.256 283.084L208.604 284.248C208.256 284.44 207.884 284.596 207.116 284.596ZM209.759 284.5V275.668H211.103V279.376H211.115C211.607 278.836 212.315 278.56 213.107 278.56C214.391 278.56 215.291 279.244 215.291 280.996V284.5H213.947V281.344C213.947 280.18 213.479 279.772 212.675 279.772C211.703 279.772 211.103 280.372 211.103 281.524V284.5H209.759ZM222.283 281.5C222.283 281.716 222.259 281.92 222.247 282.016H217.975C218.143 282.868 218.779 283.372 219.691 283.372C220.387 283.372 220.867 283.06 221.167 282.688L222.103 283.492C221.611 284.128 220.879 284.596 219.619 284.596C217.843 284.596 216.583 283.408 216.583 281.572C216.583 279.772 217.807 278.56 219.523 278.56C221.167 278.56 222.283 279.796 222.283 281.5ZM219.511 279.772C218.767 279.772 218.191 280.192 217.999 280.96H220.927C220.759 280.252 220.279 279.772 219.511 279.772ZM224.06 286.876L225.116 284.176L222.716 278.644H224.156L225.764 282.568H225.788L227.288 278.644H228.668L225.452 286.876H224.06ZM235.469 284.596C233.849 284.596 232.637 283.408 232.637 281.596C232.637 279.832 233.849 278.56 235.457 278.56C236.201 278.56 236.849 278.836 237.269 279.364L237.293 279.352V278.644H238.637V284.5H237.353V283.732L237.329 283.72C236.909 284.284 236.285 284.596 235.469 284.596ZM235.685 283.372C236.597 283.372 237.353 282.664 237.353 281.608C237.353 280.564 236.645 279.772 235.685 279.772C234.749 279.772 234.005 280.48 234.005 281.608C234.005 282.64 234.689 283.372 235.685 283.372ZM240.333 284.5V278.644H241.677V279.52H241.701C242.157 278.908 242.805 278.56 243.513 278.56H243.681V280.06C243.525 280.048 243.369 280.036 243.273 280.036C242.253 280.036 241.677 280.768 241.677 281.728V284.5H240.333ZM249.986 281.5C249.986 281.716 249.962 281.92 249.95 282.016H245.678C245.846 282.868 246.482 283.372 247.394 283.372C248.09 283.372 248.57 283.06 248.87 282.688L249.806 283.492C249.314 284.128 248.582 284.596 247.322 284.596C245.546 284.596 244.286 283.408 244.286 281.572C244.286 279.772 245.51 278.56 247.226 278.56C248.87 278.56 249.986 279.796 249.986 281.5ZM247.214 279.772C246.47 279.772 245.894 280.192 245.702 280.96H248.63C248.462 280.252 247.982 279.772 247.214 279.772ZM256.323 284.596C255.315 284.596 254.691 283.96 254.691 282.652V279.784H253.971V278.644H254.691V276.7L256.035 276.556V278.644H257.751V279.784H256.035V282.52C256.035 283.12 256.215 283.336 256.599 283.336C256.827 283.336 257.151 283.252 257.463 283.084L257.811 284.248C257.463 284.44 257.091 284.596 256.323 284.596ZM261.18 284.596C259.56 284.596 258.348 283.408 258.348 281.596C258.348 279.832 259.56 278.56 261.168 278.56C261.912 278.56 262.56 278.836 262.98 279.364L263.004 279.352V278.644H264.348V284.5H263.064V283.732L263.04 283.72C262.62 284.284 261.996 284.596 261.18 284.596ZM261.396 283.372C262.308 283.372 263.064 282.664 263.064 281.608C263.064 280.564 262.356 279.772 261.396 279.772C260.46 279.772 259.716 280.48 259.716 281.608C259.716 282.64 260.4 283.372 261.396 283.372ZM266.128 284.5V275.668H267.472V284.5H266.128ZM269.314 284.5V275.668H270.658V281.344L270.682 281.356L273.058 278.644H274.654L272.542 280.996L274.69 284.5H273.178L271.605 281.92L270.658 282.952V284.5H269.314ZM276.491 277.78C275.987 277.78 275.591 277.372 275.591 276.88C275.591 276.4 275.987 275.992 276.491 275.992C276.995 275.992 277.403 276.4 277.403 276.88C277.403 277.372 276.995 277.78 276.491 277.78ZM275.819 284.5V278.644H277.163V284.5H275.819ZM279.005 284.5V278.644H280.349V279.448H280.373C280.853 278.872 281.561 278.56 282.329 278.56C283.613 278.56 284.477 279.292 284.477 281.056V284.5H283.133V281.404C283.133 280.168 282.665 279.772 281.861 279.772C280.949 279.772 280.349 280.408 280.349 281.56V284.5H279.005ZM288.734 286.96C287.858 286.96 287.006 286.744 286.346 286.348L286.67 285.172C287.306 285.508 287.822 285.748 288.662 285.748C289.814 285.748 290.402 285.088 290.402 284.308V283.696H290.378C289.934 284.14 289.322 284.404 288.602 284.404C286.97 284.404 285.746 283.252 285.746 281.512C285.746 279.796 286.91 278.56 288.53 278.56C289.202 278.56 289.862 278.8 290.354 279.268H290.378V278.644H291.722V283.9C291.722 285.676 290.906 286.96 288.734 286.96ZM288.782 283.168C289.754 283.168 290.438 282.448 290.438 281.452C290.438 280.456 289.718 279.784 288.782 279.784C287.786 279.784 287.114 280.48 287.114 281.476C287.114 282.52 287.834 283.168 288.782 283.168ZM298.358 284.596C297.35 284.596 296.726 283.96 296.726 282.652V279.784H296.006V278.644H296.726V276.7L298.07 276.556V278.644H299.786V279.784H298.07V282.52C298.07 283.12 298.25 283.336 298.634 283.336C298.862 283.336 299.186 283.252 299.498 283.084L299.846 284.248C299.498 284.44 299.126 284.596 298.358 284.596ZM303.444 284.596C301.596 284.596 300.372 283.3 300.372 281.584C300.372 279.856 301.596 278.56 303.444 278.56C305.244 278.56 306.516 279.784 306.516 281.584C306.516 283.36 305.244 284.596 303.444 284.596ZM303.444 283.372C304.392 283.372 305.148 282.64 305.148 281.584C305.148 280.504 304.404 279.772 303.444 279.772C302.424 279.772 301.74 280.564 301.74 281.584C301.74 282.58 302.436 283.372 303.444 283.372ZM308.448 284.596C307.944 284.596 307.536 284.2 307.536 283.708C307.536 283.216 307.944 282.808 308.448 282.808C308.94 282.808 309.348 283.216 309.348 283.708C309.348 284.2 308.94 284.596 308.448 284.596Z" fill="white"/>
</g>
<path d="M328 738.5H47C32.0883 738.5 20 750.588 20 765.5C20 780.412 32.0883 792.5 47 792.5H328C342.912 792.5 355 780.412 355 765.5C355 750.588 342.912 738.5 328 738.5Z" fill="white"/>
<path d="M148.06 771.612C144.892 771.612 142.268 769.596 142.268 765.852C142.268 762.604 144.348 759.996 148.028 759.996C149.66 759.996 151.34 760.7 152.556 762.188L150.892 763.58C150.156 762.684 149.196 762.14 148.028 762.14C146.092 762.14 144.62 763.58 144.62 765.852C144.62 767.964 146.028 769.484 148.06 769.484C149.244 769.484 150.236 768.892 150.924 768.044L152.572 769.468C151.596 770.684 150.06 771.612 148.06 771.612ZM159.607 771.644C156.167 771.644 153.815 769.196 153.815 765.82C153.815 762.444 156.167 759.996 159.607 759.996C162.935 759.996 165.383 762.348 165.383 765.82C165.383 769.276 162.935 771.644 159.607 771.644ZM159.607 769.532C161.559 769.532 163.031 767.964 163.031 765.82C163.031 763.676 161.559 762.108 159.607 762.108C157.559 762.108 156.151 763.756 156.151 765.82C156.151 767.884 157.559 769.532 159.607 769.532ZM167.388 771.5V760.14H169.596L174.7 767.804H174.732V760.14H176.956V771.5H174.7L169.66 763.996H169.628V771.5H167.388ZM181.755 771.5V762.14H178.651V760.14H187.179V762.14H184.027V771.5H181.755ZM188.905 771.5V760.14H191.193V771.5H188.905ZM193.732 771.5V760.14H195.94L201.044 767.804H201.076V760.14H203.3V771.5H201.044L196.004 763.996H195.972V771.5H193.732ZM210.227 771.644C207.491 771.644 205.635 769.9 205.635 766.796V760.14H207.891V766.652C207.891 768.284 208.723 769.532 210.227 769.532C211.603 769.532 212.595 768.46 212.595 766.652V760.14H214.851V766.796C214.851 769.756 213.139 771.644 210.227 771.644ZM217.154 771.5V760.14H224.418V762.14H219.378V764.876H223.41V766.844H219.378V769.5H224.754V771.5H217.154Z" fill="black"/>
<path d="M351 324.5H24C21.7909 324.5 20 326.291 20 328.5V360.5C20 362.709 21.7909 364.5 24 364.5H351C353.209 364.5 355 362.709 355 360.5V328.5C355 326.291 353.209 324.5 351 324.5Z" stroke="#EBEBEB"/>
<path d="M28.466 203.5L20.85 179.36H25.95L30.642 195.646H30.71L35.028 179.36H40.06L44.31 195.612H44.412L49.104 179.36H54.204L46.588 203.5H42.168L37.612 186.33H37.544L32.886 203.5H28.466ZM57.2725 203.5V178.476H61.7265V188.88H61.7605C63.1205 187.384 65.0245 186.636 67.2005 186.636C70.7365 186.636 73.2865 188.438 73.2865 193.538V203.5H68.8325V194.66C68.8325 191.634 67.7105 190.614 65.6025 190.614C63.2225 190.614 61.7265 192.11 61.7265 195.102V203.5H57.2725ZM84.3968 203.806C79.8408 203.806 76.4748 200.372 76.4748 195.238C76.4748 190.206 79.8408 186.636 84.2948 186.636C86.2328 186.636 88.0008 187.384 89.1908 188.812L89.2588 188.778V186.874H93.7128V203.5H89.4628V201.528L89.3948 201.494C88.2388 202.99 86.5728 203.806 84.3968 203.806ZM85.2468 199.794C87.5248 199.794 89.4628 197.992 89.4628 195.272C89.4628 192.586 87.6268 190.614 85.2468 190.614C82.8328 190.614 80.9968 192.416 80.9968 195.272C80.9968 197.924 82.7308 199.794 85.2468 199.794ZM103.08 203.806C100.224 203.806 98.3543 202.004 98.3543 198.264V190.58H96.3823V186.874H98.3543V181.468L102.808 180.992V186.874H107.296V190.58H102.808V197.618C102.808 199.08 103.182 199.76 104.236 199.76C104.78 199.76 105.596 199.556 106.344 199.182L107.466 202.752C106.412 203.33 105.324 203.806 103.08 203.806ZM109.772 188.2L110.826 179.36H115.416L113.24 188.2H109.772ZM123.904 203.806C121.252 203.806 118.974 202.922 117.172 201.358L119.314 198.264C120.674 199.522 122.102 200.168 123.938 200.168C125.23 200.168 125.944 199.624 125.944 198.808C125.944 198.094 125.094 197.72 122.952 197.006C120.198 196.088 117.818 194.796 117.818 191.566C117.818 188.574 120.402 186.636 123.836 186.636C126.114 186.636 127.984 187.248 129.888 188.71L127.712 192.008C126.454 190.784 124.958 190.24 123.734 190.24C123.054 190.24 122.17 190.58 122.17 191.464C122.17 192.144 122.986 192.62 124.618 193.232C128.222 194.558 130.33 195.34 130.33 198.638C130.33 201.562 128.256 203.806 123.904 203.806ZM144.411 210.232L147.369 202.48L140.705 186.874H145.465L149.511 197.074H149.579L153.353 186.874H157.875L148.933 210.232H144.411ZM167.626 203.806C162.322 203.806 158.786 200.168 158.786 195.204C158.786 190.24 162.322 186.636 167.626 186.636C172.794 186.636 176.432 190.104 176.432 195.204C176.432 200.27 172.794 203.806 167.626 203.806ZM167.626 199.794C170.006 199.794 171.91 197.924 171.91 195.204C171.91 192.484 170.074 190.614 167.626 190.614C165.042 190.614 163.308 192.586 163.308 195.204C163.308 197.788 165.076 199.794 167.626 199.794ZM185.739 203.806C182.135 203.806 179.619 201.97 179.619 196.904V186.874H184.039V195.748C184.039 198.774 184.957 199.794 187.031 199.794C188.969 199.794 190.703 198.162 190.703 194.966V186.874H195.191V203.5H190.703V201.528L190.635 201.494C189.377 203.024 187.609 203.806 185.739 203.806ZM199.481 203.5V186.874H203.935V189.288H204.003C205.261 187.588 207.063 186.636 209.001 186.636H209.341V191.498C208.865 191.464 208.423 191.464 208.151 191.464C205.397 191.464 203.935 193.3 203.935 195.816V203.5H199.481ZM220.864 203.5V186.874H225.318V189.016H225.386C226.712 187.452 228.616 186.636 230.69 186.636C234.226 186.636 236.708 188.54 236.708 193.64V203.5H232.254V194.762C232.254 191.6 231.132 190.614 229.058 190.614C226.814 190.614 225.318 192.178 225.318 195.17V203.5H220.864ZM247.823 203.806C243.267 203.806 239.901 200.372 239.901 195.238C239.901 190.206 243.267 186.636 247.721 186.636C249.659 186.636 251.427 187.384 252.617 188.812L252.685 188.778V186.874H257.139V203.5H252.889V201.528L252.821 201.494C251.665 202.99 249.999 203.806 247.823 203.806ZM248.673 199.794C250.951 199.794 252.889 197.992 252.889 195.272C252.889 192.586 251.053 190.614 248.673 190.614C246.259 190.614 244.423 192.416 244.423 195.272C244.423 197.924 246.157 199.794 248.673 199.794ZM261.372 203.5V186.874H265.826V189.05H265.86C267.186 187.452 268.988 186.636 270.824 186.636C273 186.636 274.734 187.452 275.72 189.254H275.788C277.148 187.52 279.222 186.636 281.602 186.636C285.172 186.636 287.45 188.778 287.45 193.878V203.5H282.996V194.932C282.996 192.28 282.18 190.614 280.106 190.614C278.236 190.614 276.706 192.212 276.706 195.204V203.5H272.252V194.932C272.252 192.28 271.368 190.614 269.328 190.614C267.322 190.614 265.826 192.212 265.826 195.204V203.5H261.372ZM307.09 195.034C307.09 195.578 307.022 196.36 306.988 196.632H295.326C295.87 198.638 297.468 199.828 299.712 199.828C301.582 199.828 302.874 199.046 303.758 197.958L306.648 200.644C305.254 202.446 303.112 203.806 299.406 203.806C294.306 203.806 290.702 200.372 290.702 195.17C290.702 190.104 294.204 186.636 299.134 186.636C303.826 186.636 307.09 190.172 307.09 195.034ZM299.1 190.512C297.298 190.512 295.87 191.532 295.36 193.436H302.67C302.228 191.668 301.038 190.512 299.1 190.512ZM311.301 195.646V193.946C311.267 191.804 312.797 190.41 314.191 188.982C315.245 187.826 316.333 186.602 316.333 185.072C316.333 183.372 315.245 182.42 313.647 182.42C312.355 182.42 311.063 183.134 310.247 184.256L307.017 181.298C308.581 179.394 311.165 178.17 313.987 178.17C317.795 178.17 321.195 180.346 321.195 184.8C321.195 187.452 319.699 189.22 318.169 190.682C316.809 191.974 315.449 192.994 315.381 194.184L315.245 195.646H311.301ZM313.375 203.806C311.811 203.806 310.553 202.582 310.553 201.052C310.553 199.556 311.811 198.332 313.375 198.332C314.871 198.332 316.129 199.556 316.129 201.052C316.129 202.582 314.871 203.806 313.375 203.806Z" fill="white"/>
<path d="M20.5 132H355.5" stroke="#ABABAB" stroke-width="1.5" stroke-linecap="square"/>
<path d="M75.85 126.5H20V131.5H75.85V126.5Z" fill="white"/>
<path d="M347.203 78.46C349.059 78.46 350.579 79.74 350.579 81.996C350.579 84.156 348.867 85.644 346.611 85.644C344.355 85.644 342.659 83.868 342.659 81.18C342.659 77.66 345.011 74.796 348.467 74.156L349.107 75.916C347.139 76.476 345.811 77.388 345.171 78.924L345.203 78.956C345.795 78.636 346.499 78.46 347.203 78.46ZM346.707 83.676C347.763 83.676 348.451 82.892 348.451 81.948C348.451 80.988 347.747 80.284 346.643 80.284C345.875 80.284 345.187 80.716 344.739 81.276V81.404C344.739 82.78 345.635 83.676 346.707 83.676Z" fill="#C4C4C4"/>
<path d="M318.403 85.5V77.116L316.563 78.508L315.539 76.892L318.851 74.508H320.595V85.5H318.403Z" fill="white"/>
<path d="M335.5 73L330.5 88" stroke="#D8D8D8" stroke-width="2" stroke-linecap="round"/>
<path d="M117.995 84.5V74.56H124.589V76.31H119.941V78.97H123.819V80.734H119.941V84.5H117.995ZM126.254 84.5V74.56H128.256V84.5H126.254ZM130.477 84.5V74.56H132.409L136.875 81.266H136.903V74.56H138.849V84.5H136.875L132.465 77.934H132.437V84.5H130.477ZM141.018 84.5V74.56H144.308C147.458 74.56 149.474 76.604 149.474 79.544C149.474 82.47 147.542 84.5 144.35 84.5H141.018ZM142.964 82.75H144.224C146.156 82.75 147.416 81.364 147.416 79.544C147.416 77.682 146.142 76.31 144.336 76.31H142.964V82.75ZM157.123 84.5V80.132L153.833 74.56H156.087L158.117 78.172H158.145L160.133 74.56H162.415L159.111 80.132V84.5H157.123ZM167.446 84.626C164.436 84.626 162.378 82.484 162.378 79.53C162.378 76.576 164.436 74.434 167.446 74.434C170.358 74.434 172.5 76.492 172.5 79.53C172.5 82.554 170.358 84.626 167.446 84.626ZM167.446 82.778C169.154 82.778 170.442 81.406 170.442 79.53C170.442 77.654 169.154 76.282 167.446 76.282C165.654 76.282 164.422 77.724 164.422 79.53C164.422 81.336 165.654 82.778 167.446 82.778ZM178.146 84.626C175.752 84.626 174.128 83.1 174.128 80.384V74.56H176.102V80.258C176.102 81.686 176.83 82.778 178.146 82.778C179.35 82.778 180.218 81.84 180.218 80.258V74.56H182.192V80.384C182.192 82.974 180.694 84.626 178.146 84.626ZM184.208 84.5V74.56H187.974C190.368 74.56 191.432 75.96 191.432 77.864C191.432 79.376 190.732 80.412 189.36 80.86L191.852 84.5H189.514L187.288 81.098H186.154V84.5H184.208ZM186.154 79.362H187.582C188.786 79.362 189.402 78.746 189.402 77.836C189.402 76.912 188.8 76.31 187.666 76.31H186.154V79.362ZM201.639 84.598C198.867 84.598 196.571 82.834 196.571 79.558C196.571 76.716 198.391 74.434 201.611 74.434C203.039 74.434 204.509 75.05 205.573 76.352L204.117 77.57C203.473 76.786 202.633 76.31 201.611 76.31C199.917 76.31 198.629 77.57 198.629 79.558C198.629 81.406 199.861 82.736 201.639 82.736C202.675 82.736 203.543 82.218 204.145 81.476L205.587 82.722C204.733 83.786 203.389 84.598 201.639 84.598ZM211.743 84.626C208.733 84.626 206.675 82.484 206.675 79.53C206.675 76.576 208.733 74.434 211.743 74.434C214.655 74.434 216.797 76.492 216.797 79.53C216.797 82.554 214.655 84.626 211.743 84.626ZM211.743 82.778C213.451 82.778 214.739 81.406 214.739 79.53C214.739 77.654 213.451 76.282 211.743 76.282C209.951 76.282 208.719 77.724 208.719 79.53C208.719 81.336 209.951 82.778 211.743 82.778ZM217.164 84.5L220.846 74.56H222.75L226.446 84.5H224.388L223.702 82.512H219.894L219.222 84.5H217.164ZM220.454 80.832H223.142L221.812 76.94H221.784L220.454 80.832ZM231.868 84.598C229.096 84.598 226.8 82.834 226.8 79.558C226.8 76.716 228.62 74.434 231.84 74.434C233.268 74.434 234.738 75.05 235.802 76.352L234.346 77.57C233.702 76.786 232.862 76.31 231.84 76.31C230.146 76.31 228.858 77.57 228.858 79.558C228.858 81.406 230.09 82.736 231.868 82.736C232.904 82.736 233.772 82.218 234.374 81.476L235.816 82.722C234.962 83.786 233.618 84.598 231.868 84.598ZM237.309 84.5V74.56H239.297V78.858H243.357V74.56H245.331V84.5H243.357V80.608H239.297V84.5H237.309Z" fill="white"/>
<g opacity="0.7">
<path fill-rule="evenodd" clip-rule="evenodd" d="M21.3199 78.0595L30.5595 68.8199C31.2884 68.091 32.4703 68.091 33.1993 68.8199C33.9283 69.5489 33.9283 70.7308 33.1993 71.4598L23.9598 80.6993C23.2308 81.4283 22.0489 81.4283 21.3199 80.6993C20.591 79.9703 20.591 78.7884 21.3199 78.0595Z" fill="white"/>
<path fill-rule="evenodd" clip-rule="evenodd" d="M21.3199 78.0595C22.0489 77.3305 23.2308 77.3305 23.9598 78.0595L33.1993 87.299C33.9283 88.028 33.9283 89.2099 33.1993 89.9389C32.4703 90.6678 31.2884 90.6678 30.5595 89.9389L21.3199 80.6993C20.591 79.9703 20.591 78.7884 21.3199 78.0595Z" fill="white"/>
</g>
<path opacity="0.35" d="M354.833 18.3335H339.167C337.694 18.3335 336.5 19.5274 336.5 21.0002V26.0002C336.5 27.4729 337.694 28.6668 339.167 28.6668H354.833C356.306 28.6668 357.5 27.4729 357.5 26.0002V21.0002C357.5 19.5274 356.306 18.3335 354.833 18.3335Z" stroke="white"/>
<path opacity="0.4" d="M359 21.5V25.5C359.805 25.1612 360.328 24.3731 360.328 23.5C360.328 22.6269 359.805 21.8388 359 21.5Z" fill="white"/>
<path d="M354.667 19.8335H339.333C338.597 19.8335 338 20.4304 338 21.1668V25.8335C338 26.5699 338.597 27.1668 339.333 27.1668H354.667C355.403 27.1668 356 26.5699 356 25.8335V21.1668C356 20.4304 355.403 19.8335 354.667 19.8335Z" fill="white"/>
<path d="M323.33 20.1079C325.546 20.108 327.677 20.9594 329.283 22.4862C329.404 22.6041 329.598 22.6026 329.717 22.4829L330.873 21.3162C330.933 21.2555 330.967 21.1733 330.966 21.0877C330.966 21.0021 330.931 20.9202 330.87 20.8602C326.655 16.8207 320.005 16.8207 315.79 20.8602C315.729 20.9202 315.694 21.002 315.694 21.0876C315.693 21.1732 315.727 21.2555 315.787 21.3162L316.943 22.4829C317.062 22.6028 317.256 22.6043 317.377 22.4862C318.983 20.9593 321.114 20.1079 323.33 20.1079ZM323.33 23.9036C324.548 23.9035 325.722 24.356 326.624 25.1732C326.746 25.2892 326.939 25.2867 327.058 25.1676L328.212 24.0009C328.273 23.9397 328.307 23.8567 328.306 23.7704C328.305 23.6842 328.27 23.6018 328.208 23.5419C325.459 20.9855 321.204 20.9855 318.455 23.5419C318.393 23.6018 318.358 23.6842 318.357 23.7705C318.356 23.8568 318.39 23.9398 318.451 24.0009L319.605 25.1676C319.724 25.2867 319.917 25.2892 320.039 25.1732C320.941 24.3566 322.114 23.9041 323.33 23.9036ZM325.549 26.6879C325.611 26.6273 325.645 26.5439 325.643 26.4574C325.642 26.3709 325.604 26.2889 325.54 26.2309C324.264 25.152 322.396 25.152 321.121 26.2309C321.056 26.2889 321.019 26.3708 321.017 26.4573C321.015 26.5438 321.049 26.6272 321.111 26.6879L323.109 28.7036C323.167 28.7628 323.247 28.7961 323.33 28.7961C323.414 28.7961 323.493 28.7628 323.552 28.7036L325.549 26.6879Z" fill="white"/>
<path d="M294.667 24.8332H295.667C296.219 24.8332 296.667 25.2809 296.667 25.8332V27.8332C296.667 28.3855 296.219 28.8332 295.667 28.8332H294.667C294.114 28.8332 293.667 28.3855 293.667 27.8332V25.8332C293.667 25.2809 294.114 24.8332 294.667 24.8332ZM299.333 22.8332H300.333C300.886 22.8332 301.333 23.2809 301.333 23.8332V27.8332C301.333 28.3855 300.886 28.8332 300.333 28.8332H299.333C298.781 28.8332 298.333 28.3855 298.333 27.8332V23.8332C298.333 23.2809 298.781 22.8332 299.333 22.8332ZM304 20.4998H305C305.552 20.4998 306 20.9476 306 21.4998V27.8332C306 28.3855 305.552 28.8332 305 28.8332H304C303.448 28.8332 303 28.3855 303 27.8332V21.4998C303 20.9476 303.448 20.4998 304 20.4998ZM308.667 18.1665H309.667C310.219 18.1665 310.667 18.6142 310.667 19.1665V27.8332C310.667 28.3855 310.219 28.8332 309.667 28.8332H308.667C308.114 28.8332 307.667 28.3855 307.667 27.8332V19.1665C307.667 18.6142 308.114 18.1665 308.667 18.1665Z" fill="white"/>
<path d="M37.7798 28.2393C35.9752 28.2393 34.5943 27.1797 34.3072 25.5664H36.064C36.2759 26.3047 36.9527 26.7627 37.8004 26.7627C39.2427 26.7627 40.0699 25.4434 40.0904 23.1602H39.9742C39.5093 24.0967 38.5728 24.6299 37.4175 24.6299C35.5377 24.6299 34.1705 23.249 34.1705 21.3555C34.1705 19.332 35.688 17.8896 37.8345 17.8896C40.1929 17.8896 41.7789 19.6943 41.7789 22.9551C41.7789 26.2773 40.2886 28.2393 37.7798 28.2393ZM37.8414 23.2354C38.983 23.2354 39.7964 22.4355 39.7964 21.335C39.7964 20.2139 38.9625 19.3594 37.8482 19.3594C36.7339 19.3594 35.9 20.2002 35.9 21.3008C35.9 22.4424 36.6929 23.2354 37.8414 23.2354ZM44.8755 26.6396C44.233 26.6396 43.7818 26.1748 43.7818 25.5596C43.7818 24.9375 44.233 24.4795 44.8755 24.4795C45.525 24.4795 45.9693 24.9375 45.9693 25.5596C45.9693 26.1748 45.525 26.6396 44.8755 26.6396ZM44.8755 21.6494C44.233 21.6494 43.7818 21.1914 43.7818 20.5762C43.7818 19.9541 44.233 19.4961 44.8755 19.4961C45.525 19.4961 45.9693 19.9541 45.9693 20.5762C45.9693 21.1914 45.525 21.6494 44.8755 21.6494ZM52.7847 28V26.1201H47.9654V24.6504C49.2437 22.4219 50.6451 20.1729 51.9849 18.1357H54.4732V24.6299H55.8062V26.1201H54.4732V28H52.7847ZM49.5992 24.5752V24.6709H52.8121V19.5713H52.7164C51.7047 21.1025 50.563 22.9141 49.5992 24.5752ZM59.8463 28V19.9131H59.73L57.2759 21.6357V19.9404L59.8531 18.1357H61.6099V28H59.8463Z" fill="white"/>
<path d="M328 738.5H47C32.0883 738.5 20 750.588 20 765.5C20 780.412 32.0883 792.5 47 792.5H328C342.912 792.5 355 780.412 355 765.5C355 750.588 342.912 738.5 328 738.5Z" fill="white"/>
<path d="M148.06 771.612C144.892 771.612 142.268 769.596 142.268 765.852C142.268 762.604 144.348 759.996 148.028 759.996C149.66 759.996 151.34 760.7 152.556 762.188L150.892 763.58C150.156 762.684 149.196 762.14 148.028 762.14C146.092 762.14 144.62 763.58 144.62 765.852C144.62 767.964 146.028 769.484 148.06 769.484C149.244 769.484 150.236 768.892 150.924 768.044L152.572 769.468C151.596 770.684 150.06 771.612 148.06 771.612ZM159.607 771.644C156.167 771.644 153.815 769.196 153.815 765.82C153.815 762.444 156.167 759.996 159.607 759.996C162.935 759.996 165.383 762.348 165.383 765.82C165.383 769.276 162.935 771.644 159.607 771.644ZM159.607 769.532C161.559 769.532 163.031 767.964 163.031 765.82C163.031 763.676 161.559 762.108 159.607 762.108C157.559 762.108 156.151 763.756 156.151 765.82C156.151 767.884 157.559 769.532 159.607 769.532ZM167.388 771.5V760.14H169.596L174.7 767.804H174.732V760.14H176.956V771.5H174.7L169.66 763.996H169.628V771.5H167.388ZM181.755 771.5V762.14H178.651V760.14H187.179V762.14H184.027V771.5H181.755ZM188.905 771.5V760.14H191.193V771.5H188.905ZM193.732 771.5V760.14H195.94L201.044 767.804H201.076V760.14H203.3V771.5H201.044L196.004 763.996H195.972V771.5H193.732ZM210.227 771.644C207.491 771.644 205.635 769.9 205.635 766.796V760.14H207.891V766.652C207.891 768.284 208.723 769.532 210.227 769.532C211.603 769.532 212.595 768.46 212.595 766.652V760.14H214.851V766.796C214.851 769.756 213.139 771.644 210.227 771.644ZM217.154 771.5V760.14H224.418V762.14H219.378V764.876H223.41V766.844H219.378V769.5H224.754V771.5H217.154Z" fill="black"/>
</g>
<defs>
<clipPath id="clip0_5_345">
<rect width="375" height="812" fill="white" transform="translate(0 0.5)"/>
</clipPath>
</defs>
</svg>
