<svg width="375" height="813" viewBox="0 0 375 813" fill="none" xmlns="http://www.w3.org/2000/svg">
<g clip-path="url(#clip0_6_259)">
<g clip-path="url(#clip1_6_259)">
<path d="M375.5 0.5H0.5V1004.5H375.5V0.5Z" fill="#4A43BF"/>
<g opacity="0.7">
<path d="M25.456 284.572C23.14 284.572 21.16 283.06 21.16 280.264C21.16 277.84 22.696 275.884 25.432 275.884C26.68 275.884 27.904 276.424 28.792 277.516L27.724 278.416C27.088 277.636 26.332 277.252 25.432 277.252C23.812 277.252 22.672 278.464 22.672 280.264C22.672 282.016 23.836 283.216 25.456 283.216C26.416 283.216 27.208 282.724 27.748 282.052L28.816 282.964C28.084 283.876 26.956 284.572 25.456 284.572ZM30.1182 284.5V275.668H31.4622V279.376H31.4742C31.9662 278.836 32.6742 278.56 33.4662 278.56C34.7502 278.56 35.6502 279.244 35.6502 280.996V284.5H34.3062V281.344C34.3062 280.18 33.8382 279.772 33.0342 279.772C32.0622 279.772 31.4622 280.372 31.4622 281.524V284.5H30.1182ZM42.6421 281.5C42.6421 281.716 42.6181 281.92 42.6061 282.016H38.3341C38.5021 282.868 39.1381 283.372 40.0501 283.372C40.7461 283.372 41.2261 283.06 41.5261 282.688L42.4621 283.492C41.9701 284.128 41.2381 284.596 39.9781 284.596C38.2021 284.596 36.9421 283.408 36.9421 281.572C36.9421 279.772 38.1661 278.56 39.8821 278.56C41.5261 278.56 42.6421 279.796 42.6421 281.5ZM39.8701 279.772C39.1261 279.772 38.5501 280.192 38.3581 280.96H41.2861C41.1181 280.252 40.6381 279.772 39.8701 279.772ZM46.6683 284.596C44.9403 284.596 43.6803 283.372 43.6803 281.584C43.6803 279.784 44.9403 278.56 46.7163 278.56C47.6283 278.56 48.5883 278.932 49.1763 279.652L48.2643 280.444C47.9283 280.048 47.4243 279.772 46.7883 279.772C45.7443 279.772 45.0483 280.504 45.0483 281.572C45.0483 282.652 45.7563 283.372 46.7883 283.372C47.4363 283.372 47.9643 283.084 48.2643 282.688L49.1883 283.504C48.6963 284.14 47.9403 284.596 46.6683 284.596ZM50.4151 284.5V275.668H51.7591V281.344L51.7831 281.356L54.1591 278.644H55.7551L53.6431 280.996L55.7911 284.5H54.2791L52.7071 281.92L51.7591 282.952V284.5H50.4151ZM62.5199 284.596C60.8999 284.596 59.6879 283.408 59.6879 281.596C59.6879 279.832 60.8999 278.56 62.5079 278.56C63.2519 278.56 63.8999 278.836 64.3199 279.364L64.3439 279.352V278.644H65.6879V284.5H64.4039V283.732L64.3799 283.72C63.9599 284.284 63.3359 284.596 62.5199 284.596ZM62.7359 283.372C63.6479 283.372 64.4039 282.664 64.4039 281.608C64.4039 280.564 63.6959 279.772 62.7359 279.772C61.7999 279.772 61.0559 280.48 61.0559 281.608C61.0559 282.64 61.7399 283.372 62.7359 283.372ZM67.4678 284.5V275.668H68.8118V284.5H67.4678ZM70.7373 284.5V275.668H72.0813V284.5H70.7373ZM79.7738 284.596C78.0458 284.596 76.7858 283.372 76.7858 281.584C76.7858 279.784 78.0458 278.56 79.8218 278.56C80.7338 278.56 81.6938 278.932 82.2818 279.652L81.3698 280.444C81.0338 280.048 80.5298 279.772 79.8938 279.772C78.8498 279.772 78.1538 280.504 78.1538 281.572C78.1538 282.652 78.8618 283.372 79.8938 283.372C80.5418 283.372 81.0698 283.084 81.3698 282.688L82.2938 283.504C81.8018 284.14 81.0458 284.596 79.7738 284.596ZM83.6045 284.5V275.668H84.9485V284.5H83.6045ZM89.5141 284.596C87.6661 284.596 86.4421 283.3 86.4421 281.584C86.4421 279.856 87.6661 278.56 89.5141 278.56C91.3141 278.56 92.5861 279.784 92.5861 281.584C92.5861 283.36 91.3141 284.596 89.5141 284.596ZM89.5141 283.372C90.4621 283.372 91.2181 282.64 91.2181 281.584C91.2181 280.504 90.4741 279.772 89.5141 279.772C88.4941 279.772 87.8101 280.564 87.8101 281.584C87.8101 282.58 88.5061 283.372 89.5141 283.372ZM95.8574 284.596C94.9094 284.596 94.1054 284.284 93.4934 283.744L94.1654 282.736C94.6334 283.192 95.1374 283.42 95.8574 283.42C96.3734 283.42 96.6734 283.192 96.6734 282.844C96.6734 282.544 96.2894 282.4 95.5214 282.136C94.5614 281.8 93.7334 281.368 93.7334 280.216C93.7334 279.256 94.5974 278.56 95.7974 278.56C96.5414 278.56 97.2134 278.764 97.8614 279.292L97.1894 280.348C96.7214 279.904 96.1814 279.724 95.7254 279.724C95.4614 279.724 95.0894 279.868 95.0894 280.228C95.0894 280.516 95.4494 280.72 96.0134 280.936C97.2614 281.428 98.0414 281.656 98.0414 282.82C98.0414 283.804 97.3454 284.596 95.8574 284.596ZM104.728 281.5C104.728 281.716 104.704 281.92 104.692 282.016H100.42C100.588 282.868 101.224 283.372 102.136 283.372C102.832 283.372 103.312 283.06 103.612 282.688L104.548 283.492C104.056 284.128 103.324 284.596 102.064 284.596C100.288 284.596 99.028 283.408 99.028 281.572C99.028 279.772 100.252 278.56 101.968 278.56C103.612 278.56 104.728 279.796 104.728 281.5ZM101.956 279.772C101.212 279.772 100.636 280.192 100.444 280.96H103.372C103.204 280.252 102.724 279.772 101.956 279.772ZM107.986 284.596C107.038 284.596 106.234 284.284 105.622 283.744L106.294 282.736C106.762 283.192 107.266 283.42 107.986 283.42C108.502 283.42 108.802 283.192 108.802 282.844C108.802 282.544 108.418 282.4 107.65 282.136C106.69 281.8 105.862 281.368 105.862 280.216C105.862 279.256 106.726 278.56 107.926 278.56C108.67 278.56 109.342 278.764 109.99 279.292L109.318 280.348C108.85 279.904 108.31 279.724 107.854 279.724C107.59 279.724 107.218 279.868 107.218 280.228C107.218 280.516 107.578 280.72 108.142 280.936C109.39 281.428 110.17 281.656 110.17 282.82C110.17 283.804 109.474 284.596 107.986 284.596ZM113.245 284.596C112.237 284.596 111.613 283.96 111.613 282.652V279.784H110.893V278.644H111.613V276.7L112.957 276.556V278.644H114.673V279.784H112.957V282.52C112.957 283.12 113.137 283.336 113.521 283.336C113.749 283.336 114.073 283.252 114.385 283.084L114.733 284.248C114.385 284.44 114.013 284.596 113.245 284.596ZM119.099 284.5V278.644H120.443V279.448H120.455C120.935 278.872 121.607 278.56 122.279 278.56C123.071 278.56 123.683 278.872 124.031 279.532H124.055C124.547 278.896 125.291 278.56 126.155 278.56C127.439 278.56 128.207 279.364 128.207 281.116V284.5H126.863V281.452C126.863 280.396 126.515 279.772 125.723 279.772C124.967 279.772 124.355 280.432 124.355 281.584V284.5H123.011V281.452C123.011 280.396 122.639 279.772 121.847 279.772C121.043 279.772 120.443 280.432 120.443 281.584V284.5H119.099ZM132.34 284.596C130.72 284.596 129.508 283.408 129.508 281.596C129.508 279.832 130.72 278.56 132.328 278.56C133.072 278.56 133.72 278.836 134.14 279.364L134.164 279.352V278.644H135.508V284.5H134.224V283.732L134.2 283.72C133.78 284.284 133.156 284.596 132.34 284.596ZM132.556 283.372C133.468 283.372 134.224 282.664 134.224 281.608C134.224 280.564 133.516 279.772 132.556 279.772C131.62 279.772 130.876 280.48 130.876 281.608C130.876 282.64 131.56 283.372 132.556 283.372ZM138.944 284.596C137.936 284.596 137.312 283.96 137.312 282.652V279.784H136.592V278.644H137.312V276.7L138.656 276.556V278.644H140.372V279.784H138.656V282.52C138.656 283.12 138.836 283.336 139.22 283.336C139.448 283.336 139.772 283.252 140.084 283.084L140.432 284.248C140.084 284.44 139.712 284.596 138.944 284.596ZM143.946 284.596C142.218 284.596 140.958 283.372 140.958 281.584C140.958 279.784 142.218 278.56 143.994 278.56C144.906 278.56 145.866 278.932 146.454 279.652L145.542 280.444C145.206 280.048 144.702 279.772 144.066 279.772C143.022 279.772 142.326 280.504 142.326 281.572C142.326 282.652 143.034 283.372 144.066 283.372C144.714 283.372 145.242 283.084 145.542 282.688L146.466 283.504C145.974 284.14 145.218 284.596 143.946 284.596ZM147.692 284.5V275.668H149.036V279.376H149.048C149.54 278.836 150.248 278.56 151.04 278.56C152.324 278.56 153.224 279.244 153.224 280.996V284.5H151.88V281.344C151.88 280.18 151.412 279.772 150.608 279.772C149.636 279.772 149.036 280.372 149.036 281.524V284.5H147.692ZM160.216 281.5C160.216 281.716 160.192 281.92 160.18 282.016H155.908C156.076 282.868 156.712 283.372 157.624 283.372C158.32 283.372 158.8 283.06 159.1 282.688L160.036 283.492C159.544 284.128 158.812 284.596 157.552 284.596C155.776 284.596 154.516 283.408 154.516 281.572C154.516 279.772 155.74 278.56 157.456 278.56C159.1 278.56 160.216 279.796 160.216 281.5ZM157.444 279.772C156.7 279.772 156.124 280.192 155.932 280.96H158.86C158.692 280.252 158.212 279.772 157.444 279.772ZM163.475 284.596C162.527 284.596 161.723 284.284 161.111 283.744L161.783 282.736C162.251 283.192 162.755 283.42 163.475 283.42C163.991 283.42 164.291 283.192 164.291 282.844C164.291 282.544 163.907 282.4 163.139 282.136C162.179 281.8 161.351 281.368 161.351 280.216C161.351 279.256 162.215 278.56 163.415 278.56C164.159 278.56 164.831 278.764 165.479 279.292L164.807 280.348C164.339 279.904 163.799 279.724 163.343 279.724C163.079 279.724 162.707 279.868 162.707 280.228C162.707 280.516 163.067 280.72 163.631 280.936C164.879 281.428 165.659 281.656 165.659 282.82C165.659 283.804 164.963 284.596 163.475 284.596Z" fill="white"/>
</g>
<path d="M28.966 203.5L21.35 179.36H26.45L31.142 195.646H31.21L35.528 179.36H40.56L44.81 195.612H44.912L49.604 179.36H54.704L47.088 203.5H42.668L38.112 186.33H38.044L33.386 203.5H28.966ZM57.7725 203.5V178.476H62.2265V188.88H62.2605C63.6205 187.384 65.5245 186.636 67.7005 186.636C71.2365 186.636 73.7865 188.438 73.7865 193.538V203.5H69.3325V194.66C69.3325 191.634 68.2105 190.614 66.1025 190.614C63.7225 190.614 62.2265 192.11 62.2265 195.102V203.5H57.7725ZM84.8968 203.806C80.3408 203.806 76.9748 200.372 76.9748 195.238C76.9748 190.206 80.3408 186.636 84.7948 186.636C86.7328 186.636 88.5008 187.384 89.6908 188.812L89.7588 188.778V186.874H94.2128V203.5H89.9628V201.528L89.8948 201.494C88.7388 202.99 87.0728 203.806 84.8968 203.806ZM85.7468 199.794C88.0248 199.794 89.9628 197.992 89.9628 195.272C89.9628 192.586 88.1268 190.614 85.7468 190.614C83.3328 190.614 81.4968 192.416 81.4968 195.272C81.4968 197.924 83.2308 199.794 85.7468 199.794ZM103.58 203.806C100.724 203.806 98.8543 202.004 98.8543 198.264V190.58H96.8823V186.874H98.8543V181.468L103.308 180.992V186.874H107.796V190.58H103.308V197.618C103.308 199.08 103.682 199.76 104.736 199.76C105.28 199.76 106.096 199.556 106.844 199.182L107.966 202.752C106.912 203.33 105.824 203.806 103.58 203.806ZM119.73 203.5V186.874H124.184V189.288H124.252C125.51 187.588 127.312 186.636 129.25 186.636H129.59V191.498C129.114 191.464 128.672 191.464 128.4 191.464C125.646 191.464 124.184 193.3 124.184 195.816V203.5H119.73ZM139.87 203.806C134.566 203.806 131.03 200.168 131.03 195.204C131.03 190.24 134.566 186.636 139.87 186.636C145.038 186.636 148.676 190.104 148.676 195.204C148.676 200.27 145.038 203.806 139.87 203.806ZM139.87 199.794C142.25 199.794 144.154 197.924 144.154 195.204C144.154 192.484 142.318 190.614 139.87 190.614C137.286 190.614 135.552 192.586 135.552 195.204C135.552 197.788 137.32 199.794 139.87 199.794ZM152.373 203.5V178.476H156.827V203.5H152.373ZM176.936 195.034C176.936 195.578 176.868 196.36 176.834 196.632H165.172C165.716 198.638 167.314 199.828 169.558 199.828C171.428 199.828 172.72 199.046 173.604 197.958L176.494 200.644C175.1 202.446 172.958 203.806 169.252 203.806C164.152 203.806 160.548 200.372 160.548 195.17C160.548 190.104 164.05 186.636 168.98 186.636C173.672 186.636 176.936 190.172 176.936 195.034ZM168.946 190.512C167.144 190.512 165.716 191.532 165.206 193.436H172.516C172.074 191.668 170.884 190.512 168.946 190.512ZM185.764 203.806C183.112 203.806 180.834 202.922 179.032 201.358L181.174 198.264C182.534 199.522 183.962 200.168 185.798 200.168C187.09 200.168 187.804 199.624 187.804 198.808C187.804 198.094 186.954 197.72 184.812 197.006C182.058 196.088 179.678 194.796 179.678 191.566C179.678 188.574 182.262 186.636 185.696 186.636C187.974 186.636 189.844 187.248 191.748 188.71L189.572 192.008C188.314 190.784 186.818 190.24 185.594 190.24C184.914 190.24 184.03 190.58 184.03 191.464C184.03 192.144 184.846 192.62 186.478 193.232C190.082 194.558 192.19 195.34 192.19 198.638C192.19 201.562 190.116 203.806 185.764 203.806ZM211.235 203.806C206.679 203.806 203.313 200.372 203.313 195.238C203.313 190.206 206.679 186.636 211.133 186.636C213.071 186.636 214.839 187.384 216.029 188.812L216.097 188.778V186.874H220.551V203.5H216.301V201.528L216.233 201.494C215.077 202.99 213.411 203.806 211.235 203.806ZM212.085 199.794C214.363 199.794 216.301 197.992 216.301 195.272C216.301 192.586 214.465 190.614 212.085 190.614C209.671 190.614 207.835 192.416 207.835 195.272C207.835 197.924 209.569 199.794 212.085 199.794ZM224.784 203.5V186.874H229.238V189.288H229.306C230.564 187.588 232.366 186.636 234.304 186.636H234.644V191.498C234.168 191.464 233.726 191.464 233.454 191.464C230.7 191.464 229.238 193.3 229.238 195.816V203.5H224.784ZM252.473 195.034C252.473 195.578 252.405 196.36 252.371 196.632H240.709C241.253 198.638 242.851 199.828 245.095 199.828C246.965 199.828 248.257 199.046 249.141 197.958L252.031 200.644C250.637 202.446 248.495 203.806 244.789 203.806C239.689 203.806 236.085 200.372 236.085 195.17C236.085 190.104 239.587 186.636 244.517 186.636C249.209 186.636 252.473 190.172 252.473 195.034ZM244.483 190.512C242.681 190.512 241.253 191.532 240.743 193.436H248.053C247.611 191.668 246.421 190.512 244.483 190.512ZM266.667 210.232L269.625 202.48L262.961 186.874H267.721L271.767 197.074H271.835L275.609 186.874H280.131L271.189 210.232H266.667ZM289.882 203.806C284.578 203.806 281.042 200.168 281.042 195.204C281.042 190.24 284.578 186.636 289.882 186.636C295.05 186.636 298.688 190.104 298.688 195.204C298.688 200.27 295.05 203.806 289.882 203.806ZM289.882 199.794C292.262 199.794 294.166 197.924 294.166 195.204C294.166 192.484 292.33 190.614 289.882 190.614C287.298 190.614 285.564 192.586 285.564 195.204C285.564 197.788 287.332 199.794 289.882 199.794ZM307.995 203.806C304.391 203.806 301.875 201.97 301.875 196.904V186.874H306.295V195.748C306.295 198.774 307.213 199.794 309.287 199.794C311.225 199.794 312.959 198.162 312.959 194.966V186.874H317.447V203.5H312.959V201.528L312.891 201.494C311.633 203.024 309.865 203.806 307.995 203.806Z" fill="white"/>
<path d="M25.192 226.63C23.56 226.63 22.37 225.406 22.37 223.876C22.37 222.38 23.56 221.156 25.192 221.156C26.79 221.156 28.014 222.38 28.014 223.876C28.014 225.406 26.79 226.63 25.192 226.63ZM22.914 245.5V228.874H27.368V245.5H22.914ZM32.0069 245.5V228.874H36.4609V231.016H36.5289C37.8549 229.452 39.7589 228.636 41.8329 228.636C45.3689 228.636 47.8509 230.54 47.8509 235.64V245.5H43.3969V236.762C43.3969 233.6 42.2749 232.614 40.2009 232.614C37.9569 232.614 36.4609 234.178 36.4609 237.17V245.5H32.0069ZM57.1292 245.806C54.2732 245.806 52.4032 244.004 52.4032 240.264V232.58H50.4312V228.874H52.4032V223.468L56.8572 222.992V228.874H61.3452V232.58H56.8572V239.618C56.8572 241.08 57.2312 241.76 58.2852 241.76C58.8292 241.76 59.6452 241.556 60.3932 241.182L61.5152 244.752C60.4612 245.33 59.3732 245.806 57.1292 245.806ZM79.1859 237.034C79.1859 237.578 79.1179 238.36 79.0839 238.632H67.4219C67.9659 240.638 69.5639 241.828 71.8079 241.828C73.6779 241.828 74.9699 241.046 75.8539 239.958L78.7439 242.644C77.3499 244.446 75.2079 245.806 71.5019 245.806C66.4019 245.806 62.7979 242.372 62.7979 237.17C62.7979 232.104 66.2999 228.636 71.2299 228.636C75.9219 228.636 79.1859 232.172 79.1859 237.034ZM71.1959 232.512C69.3939 232.512 67.9659 233.532 67.4559 235.436H74.7659C74.3239 233.668 73.1339 232.512 71.1959 232.512ZM82.6416 245.5V228.874H87.0956V231.288H87.1636C88.4216 229.588 90.2236 228.636 92.1616 228.636H92.5016V233.498C92.0256 233.464 91.5836 233.464 91.3116 233.464C88.5576 233.464 87.0956 235.3 87.0956 237.816V245.5H82.6416ZM110.33 237.034C110.33 237.578 110.262 238.36 110.228 238.632H98.5664C99.1104 240.638 100.708 241.828 102.952 241.828C104.822 241.828 106.114 241.046 106.998 239.958L109.888 242.644C108.494 244.446 106.352 245.806 102.646 245.806C97.5464 245.806 93.9424 242.372 93.9424 237.17C93.9424 232.104 97.4444 228.636 102.374 228.636C107.066 228.636 110.33 232.172 110.33 237.034ZM102.34 232.512C100.538 232.512 99.1104 233.532 98.6004 235.436H105.91C105.468 233.668 104.278 232.512 102.34 232.512ZM119.158 245.806C116.506 245.806 114.228 244.922 112.426 243.358L114.568 240.264C115.928 241.522 117.356 242.168 119.192 242.168C120.484 242.168 121.198 241.624 121.198 240.808C121.198 240.094 120.348 239.72 118.206 239.006C115.452 238.088 113.072 236.796 113.072 233.566C113.072 230.574 115.656 228.636 119.09 228.636C121.368 228.636 123.238 229.248 125.142 230.71L122.966 234.008C121.708 232.784 120.212 232.24 118.988 232.24C118.308 232.24 117.424 232.58 117.424 233.464C117.424 234.144 118.24 234.62 119.872 235.232C123.476 236.558 125.584 237.34 125.584 240.638C125.584 243.562 123.51 245.806 119.158 245.806ZM134.061 245.806C131.205 245.806 129.335 244.004 129.335 240.264V232.58H127.363V228.874H129.335V223.468L133.789 222.992V228.874H138.277V232.58H133.789V239.618C133.789 241.08 134.163 241.76 135.217 241.76C135.761 241.76 136.577 241.556 137.325 241.182L138.447 244.752C137.393 245.33 136.305 245.806 134.061 245.806ZM156.118 237.034C156.118 237.578 156.05 238.36 156.016 238.632H144.354C144.898 240.638 146.496 241.828 148.74 241.828C150.61 241.828 151.902 241.046 152.786 239.958L155.676 242.644C154.282 244.446 152.14 245.806 148.433 245.806C143.334 245.806 139.73 242.372 139.73 237.17C139.73 232.104 143.232 228.636 148.162 228.636C152.854 228.636 156.118 232.172 156.118 237.034ZM148.128 232.512C146.326 232.512 144.898 233.532 144.388 235.436H151.698C151.256 233.668 150.066 232.512 148.128 232.512ZM166.577 245.806C161.987 245.806 158.621 242.372 158.621 237.238C158.621 232.206 162.021 228.636 166.475 228.636C168.515 228.636 170.283 229.384 171.507 230.812H171.575V220.476H175.995V245.5H171.745V243.46H171.711C170.555 244.956 168.821 245.806 166.577 245.806ZM167.393 241.794C169.841 241.794 171.745 239.992 171.745 237.272C171.745 234.586 169.943 232.614 167.393 232.614C165.013 232.614 163.143 234.416 163.143 237.272C163.143 239.924 164.911 241.794 167.393 241.794ZM191.639 226.63C190.007 226.63 188.817 225.406 188.817 223.876C188.817 222.38 190.007 221.156 191.639 221.156C193.237 221.156 194.461 222.38 194.461 223.876C194.461 225.406 193.237 226.63 191.639 226.63ZM189.361 245.5V228.874H193.815V245.5H189.361ZM198.454 245.5V228.874H202.908V231.016H202.976C204.302 229.452 206.206 228.636 208.28 228.636C211.816 228.636 214.298 230.54 214.298 235.64V245.5H209.844V236.762C209.844 233.6 208.722 232.614 206.648 232.614C204.404 232.614 202.908 234.178 202.908 237.17V245.5H198.454ZM218.865 237.646V235.946C218.831 233.804 220.361 232.41 221.755 230.982C222.809 229.826 223.897 228.602 223.897 227.072C223.897 225.372 222.809 224.42 221.211 224.42C219.919 224.42 218.627 225.134 217.811 226.256L214.581 223.298C216.145 221.394 218.729 220.17 221.551 220.17C225.359 220.17 228.759 222.346 228.759 226.8C228.759 229.452 227.263 231.22 225.733 232.682C224.373 233.974 223.013 234.994 222.945 236.184L222.809 237.646H218.865ZM220.939 245.806C219.375 245.806 218.117 244.582 218.117 243.052C218.117 241.556 219.375 240.332 220.939 240.332C222.435 240.332 223.693 241.556 223.693 243.052C223.693 244.582 222.435 245.806 220.939 245.806Z" fill="white"/>
<path d="M347.703 78.46C349.559 78.46 351.079 79.74 351.079 81.996C351.079 84.156 349.367 85.644 347.111 85.644C344.855 85.644 343.159 83.868 343.159 81.18C343.159 77.66 345.511 74.796 348.967 74.156L349.607 75.916C347.639 76.476 346.311 77.388 345.671 78.924L345.703 78.956C346.295 78.636 346.999 78.46 347.703 78.46ZM347.207 83.676C348.263 83.676 348.951 82.892 348.951 81.948C348.951 80.988 348.247 80.284 347.143 80.284C346.375 80.284 345.687 80.716 345.239 81.276V81.404C345.239 82.78 346.135 83.676 347.207 83.676Z" fill="#C4C4C4"/>
<path d="M319.559 85.5V83.692H314.919V82.316L319.959 74.508H321.703V81.836H323.175V83.692H321.703V85.5H319.559ZM317.287 81.932H319.703V78.028L317.287 81.932Z" fill="white"/>
<path d="M336 73L331 88" stroke="#D8D8D8" stroke-width="2" stroke-linecap="round"/>
<path d="M118.495 84.5V74.56H125.089V76.31H120.441V78.97H124.319V80.734H120.441V84.5H118.495ZM126.754 84.5V74.56H128.756V84.5H126.754ZM130.977 84.5V74.56H132.909L137.375 81.266H137.403V74.56H139.349V84.5H137.375L132.965 77.934H132.937V84.5H130.977ZM141.518 84.5V74.56H144.808C147.958 74.56 149.974 76.604 149.974 79.544C149.974 82.47 148.042 84.5 144.85 84.5H141.518ZM143.464 82.75H144.724C146.656 82.75 147.916 81.364 147.916 79.544C147.916 77.682 146.642 76.31 144.836 76.31H143.464V82.75ZM157.623 84.5V80.132L154.333 74.56H156.587L158.617 78.172H158.645L160.633 74.56H162.915L159.611 80.132V84.5H157.623ZM167.946 84.626C164.936 84.626 162.878 82.484 162.878 79.53C162.878 76.576 164.936 74.434 167.946 74.434C170.858 74.434 173 76.492 173 79.53C173 82.554 170.858 84.626 167.946 84.626ZM167.946 82.778C169.654 82.778 170.942 81.406 170.942 79.53C170.942 77.654 169.654 76.282 167.946 76.282C166.154 76.282 164.922 77.724 164.922 79.53C164.922 81.336 166.154 82.778 167.946 82.778ZM178.647 84.626C176.253 84.626 174.629 83.1 174.629 80.384V74.56H176.603V80.258C176.603 81.686 177.331 82.778 178.647 82.778C179.851 82.778 180.719 81.84 180.719 80.258V74.56H182.693V80.384C182.693 82.974 181.195 84.626 178.647 84.626ZM184.708 84.5V74.56H188.474C190.868 74.56 191.932 75.96 191.932 77.864C191.932 79.376 191.232 80.412 189.86 80.86L192.352 84.5H190.014L187.788 81.098H186.654V84.5H184.708ZM186.654 79.362H188.082C189.286 79.362 189.902 78.746 189.902 77.836C189.902 76.912 189.3 76.31 188.166 76.31H186.654V79.362ZM202.139 84.598C199.367 84.598 197.071 82.834 197.071 79.558C197.071 76.716 198.891 74.434 202.111 74.434C203.539 74.434 205.009 75.05 206.073 76.352L204.617 77.57C203.973 76.786 203.133 76.31 202.111 76.31C200.417 76.31 199.129 77.57 199.129 79.558C199.129 81.406 200.361 82.736 202.139 82.736C203.175 82.736 204.043 82.218 204.645 81.476L206.087 82.722C205.233 83.786 203.889 84.598 202.139 84.598ZM212.243 84.626C209.233 84.626 207.175 82.484 207.175 79.53C207.175 76.576 209.233 74.434 212.243 74.434C215.155 74.434 217.297 76.492 217.297 79.53C217.297 82.554 215.155 84.626 212.243 84.626ZM212.243 82.778C213.951 82.778 215.239 81.406 215.239 79.53C215.239 77.654 213.951 76.282 212.243 76.282C210.451 76.282 209.219 77.724 209.219 79.53C209.219 81.336 210.451 82.778 212.243 82.778ZM217.664 84.5L221.346 74.56H223.25L226.946 84.5H224.888L224.202 82.512H220.394L219.722 84.5H217.664ZM220.954 80.832H223.642L222.312 76.94H222.284L220.954 80.832ZM232.368 84.598C229.596 84.598 227.3 82.834 227.3 79.558C227.3 76.716 229.12 74.434 232.34 74.434C233.768 74.434 235.238 75.05 236.302 76.352L234.846 77.57C234.202 76.786 233.362 76.31 232.34 76.31C230.646 76.31 229.358 77.57 229.358 79.558C229.358 81.406 230.59 82.736 232.368 82.736C233.404 82.736 234.272 82.218 234.874 81.476L236.316 82.722C235.462 83.786 234.118 84.598 232.368 84.598ZM237.809 84.5V74.56H239.797V78.858H243.857V74.56H245.831V84.5H243.857V80.608H239.797V84.5H237.809Z" fill="white"/>
<g opacity="0.7">
<path fill-rule="evenodd" clip-rule="evenodd" d="M21.8199 78.0595L31.0595 68.8199C31.7884 68.091 32.9703 68.091 33.6993 68.8199C34.4283 69.5489 34.4283 70.7308 33.6993 71.4598L24.4598 80.6993C23.7308 81.4283 22.5489 81.4283 21.8199 80.6993C21.091 79.9703 21.091 78.7884 21.8199 78.0595Z" fill="white"/>
<path fill-rule="evenodd" clip-rule="evenodd" d="M21.8199 78.0595C22.5489 77.3305 23.7308 77.3305 24.4598 78.0595L33.6993 87.299C34.4283 88.028 34.4283 89.2099 33.6993 89.9389C32.9703 90.6678 31.7884 90.6678 31.0595 89.9389L21.8199 80.6993C21.091 79.9703 21.091 78.7884 21.8199 78.0595Z" fill="white"/>
</g>
<path opacity="0.35" d="M355.333 18.3335H339.667C338.194 18.3335 337 19.5274 337 21.0002V26.0002C337 27.4729 338.194 28.6668 339.667 28.6668H355.333C356.806 28.6668 358 27.4729 358 26.0002V21.0002C358 19.5274 356.806 18.3335 355.333 18.3335Z" stroke="white"/>
<path opacity="0.4" d="M359.5 21.5V25.5C360.305 25.1612 360.828 24.3731 360.828 23.5C360.828 22.6269 360.305 21.8388 359.5 21.5Z" fill="white"/>
<path d="M355.167 19.8335H339.833C339.097 19.8335 338.5 20.4304 338.5 21.1668V25.8335C338.5 26.5699 339.097 27.1668 339.833 27.1668H355.167C355.903 27.1668 356.5 26.5699 356.5 25.8335V21.1668C356.5 20.4304 355.903 19.8335 355.167 19.8335Z" fill="white"/>
<path d="M323.83 20.1079C326.046 20.108 328.178 20.9594 329.783 22.4862C329.904 22.6041 330.098 22.6026 330.217 22.4829L331.373 21.3162C331.433 21.2555 331.467 21.1733 331.466 21.0877C331.466 21.0021 331.431 20.9202 331.37 20.8602C327.155 16.8207 320.505 16.8207 316.29 20.8602C316.229 20.9202 316.194 21.002 316.194 21.0876C316.193 21.1732 316.227 21.2555 316.287 21.3162L317.443 22.4829C317.562 22.6028 317.756 22.6043 317.877 22.4862C319.483 20.9593 321.614 20.1079 323.83 20.1079ZM323.83 23.9036C325.048 23.9035 326.222 24.356 327.124 25.1732C327.247 25.2892 327.439 25.2867 327.558 25.1676L328.712 24.0009C328.773 23.9397 328.807 23.8567 328.806 23.7704C328.805 23.6842 328.77 23.6018 328.708 23.5419C325.96 20.9855 321.704 20.9855 318.955 23.5419C318.893 23.6018 318.858 23.6842 318.857 23.7705C318.856 23.8568 318.89 23.9398 318.951 24.0009L320.105 25.1676C320.224 25.2867 320.417 25.2892 320.539 25.1732C321.441 24.3566 322.614 23.9041 323.83 23.9036ZM326.049 26.6879C326.111 26.6273 326.145 26.5439 326.143 26.4574C326.142 26.3709 326.104 26.2889 326.04 26.2309C324.765 25.152 322.896 25.152 321.621 26.2309C321.557 26.2889 321.519 26.3708 321.517 26.4573C321.515 26.5438 321.549 26.6272 321.611 26.6879L323.609 28.7036C323.667 28.7628 323.747 28.7961 323.83 28.7961C323.914 28.7961 323.994 28.7628 324.052 28.7036L326.049 26.6879Z" fill="white"/>
<path d="M295.167 24.8332H296.167C296.719 24.8332 297.167 25.2809 297.167 25.8332V27.8332C297.167 28.3855 296.719 28.8332 296.167 28.8332H295.167C294.614 28.8332 294.167 28.3855 294.167 27.8332V25.8332C294.167 25.2809 294.614 24.8332 295.167 24.8332ZM299.833 22.8332H300.833C301.386 22.8332 301.833 23.2809 301.833 23.8332V27.8332C301.833 28.3855 301.386 28.8332 300.833 28.8332H299.833C299.281 28.8332 298.833 28.3855 298.833 27.8332V23.8332C298.833 23.2809 299.281 22.8332 299.833 22.8332ZM304.5 20.4998H305.5C306.052 20.4998 306.5 20.9476 306.5 21.4998V27.8332C306.5 28.3855 306.052 28.8332 305.5 28.8332H304.5C303.948 28.8332 303.5 28.3855 303.5 27.8332V21.4998C303.5 20.9476 303.948 20.4998 304.5 20.4998ZM309.167 18.1665H310.167C310.719 18.1665 311.167 18.6142 311.167 19.1665V27.8332C311.167 28.3855 310.719 28.8332 310.167 28.8332H309.167C308.614 28.8332 308.167 28.3855 308.167 27.8332V19.1665C308.167 18.6142 308.614 18.1665 309.167 18.1665Z" fill="white"/>
<path d="M38.2798 28.2393C36.4751 28.2393 35.0942 27.1797 34.8071 25.5664H36.564C36.7759 26.3047 37.4526 26.7627 38.3003 26.7627C39.7427 26.7627 40.5698 25.4434 40.5903 23.1602H40.4741C40.0093 24.0967 39.0728 24.6299 37.9175 24.6299C36.0376 24.6299 34.6704 23.249 34.6704 21.3555C34.6704 19.332 36.188 17.8896 38.3345 17.8896C40.6929 17.8896 42.2788 19.6943 42.2788 22.9551C42.2788 26.2773 40.7886 28.2393 38.2798 28.2393ZM38.3413 23.2354C39.4829 23.2354 40.2964 22.4355 40.2964 21.335C40.2964 20.2139 39.4624 19.3594 38.3481 19.3594C37.2339 19.3594 36.3999 20.2002 36.3999 21.3008C36.3999 22.4424 37.1929 23.2354 38.3413 23.2354ZM45.3755 26.6396C44.7329 26.6396 44.2817 26.1748 44.2817 25.5596C44.2817 24.9375 44.7329 24.4795 45.3755 24.4795C46.0249 24.4795 46.4692 24.9375 46.4692 25.5596C46.4692 26.1748 46.0249 26.6396 45.3755 26.6396ZM45.3755 21.6494C44.7329 21.6494 44.2817 21.1914 44.2817 20.5762C44.2817 19.9541 44.7329 19.4961 45.3755 19.4961C46.0249 19.4961 46.4692 19.9541 46.4692 20.5762C46.4692 21.1914 46.0249 21.6494 45.3755 21.6494ZM53.2847 28V26.1201H48.4653V24.6504C49.7437 22.4219 51.145 20.1729 52.4849 18.1357H54.9731V24.6299H56.3062V26.1201H54.9731V28H53.2847ZM50.0991 24.5752V24.6709H53.312V19.5713H53.2163C52.2046 21.1025 51.063 22.9141 50.0991 24.5752ZM60.3462 28V19.9131H60.23L57.7759 21.6357V19.9404L60.353 18.1357H62.1099V28H60.3462Z" fill="white"/>
<path d="M21 132H355" stroke="#E8E8E8" stroke-width="1.5" stroke-linecap="square"/>
<path d="M243.84 126.5H20.5V131.5H243.84V126.5Z" fill="#E8E8E8"/>
<path d="M349.5 464.5H26.5C23.1863 464.5 20.5 467.186 20.5 470.5V508.5C20.5 511.814 23.1863 514.5 26.5 514.5H349.5C352.814 514.5 355.5 511.814 355.5 508.5V470.5C355.5 467.186 352.814 464.5 349.5 464.5Z" fill="#5F57FF"/>
<g opacity="0.7">
<path d="M124.264 495.5V484.14H128.472C131.224 484.14 132.424 485.74 132.424 487.916C132.424 490.412 130.744 491.612 128.248 491.612H126.488V495.5H124.264ZM126.488 489.628H128.008C129.416 489.628 130.088 488.924 130.088 487.884C130.088 486.828 129.416 486.14 128.12 486.14H126.488V489.628ZM134.025 495.5V487.676H136.121V488.812H136.153C136.745 488.012 137.593 487.564 138.505 487.564H138.665V489.852C138.441 489.836 138.233 489.836 138.105 489.836C136.809 489.836 136.121 490.7 136.121 491.884V495.5H134.025ZM143.503 495.644C141.007 495.644 139.343 493.932 139.343 491.596C139.343 489.26 141.007 487.564 143.503 487.564C145.935 487.564 147.647 489.196 147.647 491.596C147.647 493.98 145.935 495.644 143.503 495.644ZM143.503 493.756C144.623 493.756 145.519 492.876 145.519 491.596C145.519 490.316 144.655 489.436 143.503 489.436C142.287 489.436 141.471 490.364 141.471 491.596C141.471 492.812 142.303 493.756 143.503 493.756ZM152.587 495.644C150.427 495.644 148.843 494.028 148.843 491.612C148.843 489.244 150.443 487.564 152.539 487.564C153.499 487.564 154.331 487.916 154.907 488.588H154.939V483.724H157.019V495.5H155.019V494.54H155.003C154.459 495.244 153.643 495.644 152.587 495.644ZM152.971 493.756C154.123 493.756 155.019 492.908 155.019 491.628C155.019 490.364 154.171 489.436 152.971 489.436C151.851 489.436 150.971 490.284 150.971 491.628C150.971 492.876 151.803 493.756 152.971 493.756ZM161.839 495.644C160.143 495.644 158.959 494.78 158.959 492.396V487.676H161.039V491.852C161.039 493.276 161.471 493.756 162.447 493.756C163.359 493.756 164.175 492.988 164.175 491.484V487.676H166.287V495.5H164.175V494.572L164.143 494.556C163.551 495.276 162.719 495.644 161.839 495.644ZM171.906 495.644C169.57 495.644 167.874 494.012 167.874 491.612C167.874 489.196 169.554 487.564 171.97 487.564C173.186 487.564 174.466 488.012 175.282 488.972L173.906 490.268C173.49 489.756 172.85 489.436 172.114 489.436C170.85 489.436 170.002 490.316 170.002 491.596C170.002 492.892 170.866 493.756 172.114 493.756C172.914 493.756 173.538 493.42 173.954 492.908L175.314 494.22C174.642 495.052 173.57 495.644 171.906 495.644ZM179.175 495.644C177.831 495.644 176.951 494.796 176.951 493.036V489.42H176.023V487.676H176.951V485.132L179.047 484.908V487.676H181.159V489.42H179.047V492.732C179.047 493.42 179.223 493.74 179.719 493.74C179.975 493.74 180.359 493.644 180.711 493.468L181.239 495.148C180.743 495.42 180.231 495.644 179.175 495.644ZM186.983 495.5V484.14H189.239L192.727 490.604H192.759L196.247 484.14H198.503V495.5H196.263V488.476H196.231L193.463 493.356H192.007L189.255 488.46H189.223V495.5H186.983ZM204.071 495.644C201.927 495.644 200.343 494.028 200.343 491.612C200.343 489.244 201.927 487.564 204.023 487.564C204.935 487.564 205.767 487.916 206.327 488.588L206.359 488.572V487.676H208.455V495.5H206.455V494.572L206.423 494.556C205.879 495.26 205.095 495.644 204.071 495.644ZM204.471 493.756C205.543 493.756 206.455 492.908 206.455 491.628C206.455 490.364 205.591 489.436 204.471 489.436C203.335 489.436 202.471 490.284 202.471 491.628C202.471 492.876 203.287 493.756 204.471 493.756ZM210.447 495.5V487.676H212.543V488.684H212.575C213.199 487.948 214.095 487.564 215.071 487.564C216.735 487.564 217.903 488.46 217.903 490.86V495.5H215.807V491.388C215.807 489.9 215.279 489.436 214.303 489.436C213.247 489.436 212.543 490.172 212.543 491.58V495.5H210.447ZM223.133 495.644C220.989 495.644 219.405 494.028 219.405 491.612C219.405 489.244 220.989 487.564 223.085 487.564C223.997 487.564 224.829 487.916 225.389 488.588L225.421 488.572V487.676H227.517V495.5H225.517V494.572L225.485 494.556C224.941 495.26 224.157 495.644 223.133 495.644ZM223.533 493.756C224.605 493.756 225.517 492.908 225.517 491.628C225.517 490.364 224.653 489.436 223.533 489.436C222.397 489.436 221.533 490.284 221.533 491.628C221.533 492.876 222.349 493.756 223.533 493.756ZM233.045 498.796C231.845 498.796 230.773 498.54 229.845 498.012L230.341 496.236C231.109 496.668 231.861 496.972 232.885 496.972C234.341 496.972 235.077 496.172 235.077 495.244V494.46H235.045C234.485 495.036 233.701 495.356 232.773 495.356C230.629 495.356 229.045 493.788 229.045 491.516C229.045 489.212 230.581 487.564 232.661 487.564C233.525 487.564 234.373 487.868 235.013 488.492H235.045V487.676H237.141V494.604C237.141 497.052 236.069 498.796 233.045 498.796ZM233.157 493.468C234.309 493.468 235.125 492.62 235.125 491.436C235.125 490.252 234.277 489.452 233.157 489.452C231.989 489.452 231.173 490.268 231.173 491.452C231.173 492.684 232.037 493.468 233.157 493.468ZM246.414 491.516C246.414 491.772 246.382 492.14 246.366 492.268H240.878C241.134 493.212 241.886 493.772 242.942 493.772C243.822 493.772 244.43 493.404 244.846 492.892L246.206 494.156C245.55 495.004 244.542 495.644 242.798 495.644C240.398 495.644 238.702 494.028 238.702 491.58C238.702 489.196 240.35 487.564 242.67 487.564C244.878 487.564 246.414 489.228 246.414 491.516ZM242.654 489.388C241.806 489.388 241.134 489.868 240.894 490.764H244.334C244.126 489.932 243.566 489.388 242.654 489.388ZM248.041 495.5V487.676H250.137V488.812H250.169C250.761 488.012 251.609 487.564 252.521 487.564H252.681V489.852C252.457 489.836 252.249 489.836 252.121 489.836C250.825 489.836 250.137 490.7 250.137 491.884V495.5H248.041Z" fill="white"/>
<path d="M59.5 478.5H41.5C40.3954 478.5 39.5 479.395 39.5 480.5V498.5C39.5 499.605 40.3954 500.5 41.5 500.5H59.5C60.6046 500.5 61.5 499.605 61.5 498.5V480.5C61.5 479.395 60.6046 478.5 59.5 478.5Z" stroke="white" stroke-width="2"/>
</g>
<path d="M349.5 534.5H26.5C23.1863 534.5 20.5 537.186 20.5 540.5V578.5C20.5 581.814 23.1863 584.5 26.5 584.5H349.5C352.814 584.5 355.5 581.814 355.5 578.5V540.5C355.5 537.186 352.814 534.5 349.5 534.5Z" fill="#5F57FF"/>
<g opacity="0.7">
<path d="M139.368 565.5V554.14H141.624L145.112 560.604H145.144L148.632 554.14H150.888V565.5H148.648V558.476H148.616L145.848 563.356H144.392L141.64 558.46H141.608V565.5H139.368ZM156.456 565.644C154.312 565.644 152.728 564.028 152.728 561.612C152.728 559.244 154.312 557.564 156.408 557.564C157.32 557.564 158.152 557.916 158.712 558.588L158.744 558.572V557.676H160.84V565.5H158.84V564.572L158.808 564.556C158.264 565.26 157.48 565.644 156.456 565.644ZM156.856 563.756C157.928 563.756 158.84 562.908 158.84 561.628C158.84 560.364 157.976 559.436 156.856 559.436C155.72 559.436 154.856 560.284 154.856 561.628C154.856 562.876 155.672 563.756 156.856 563.756ZM162.832 565.5V557.676H164.928V558.684H164.96C165.584 557.948 166.48 557.564 167.456 557.564C169.12 557.564 170.288 558.46 170.288 560.86V565.5H168.192V561.388C168.192 559.9 167.664 559.436 166.688 559.436C165.632 559.436 164.928 560.172 164.928 561.58V565.5H162.832ZM175.518 565.644C173.374 565.644 171.79 564.028 171.79 561.612C171.79 559.244 173.374 557.564 175.47 557.564C176.382 557.564 177.214 557.916 177.774 558.588L177.806 558.572V557.676H179.902V565.5H177.902V564.572L177.87 564.556C177.326 565.26 176.542 565.644 175.518 565.644ZM175.918 563.756C176.99 563.756 177.902 562.908 177.902 561.628C177.902 560.364 177.038 559.436 175.918 559.436C174.782 559.436 173.918 560.284 173.918 561.628C173.918 562.876 174.734 563.756 175.918 563.756ZM185.43 568.796C184.23 568.796 183.158 568.54 182.23 568.012L182.726 566.236C183.494 566.668 184.246 566.972 185.27 566.972C186.726 566.972 187.462 566.172 187.462 565.244V564.46H187.43C186.87 565.036 186.086 565.356 185.158 565.356C183.014 565.356 181.43 563.788 181.43 561.516C181.43 559.212 182.966 557.564 185.046 557.564C185.91 557.564 186.758 557.868 187.398 558.492H187.43V557.676H189.526V564.604C189.526 567.052 188.454 568.796 185.43 568.796ZM185.542 563.468C186.694 563.468 187.51 562.62 187.51 561.436C187.51 560.252 186.662 559.452 185.542 559.452C184.374 559.452 183.558 560.268 183.558 561.452C183.558 562.684 184.422 563.468 185.542 563.468ZM198.799 561.516C198.799 561.772 198.767 562.14 198.751 562.268H193.263C193.519 563.212 194.271 563.772 195.327 563.772C196.207 563.772 196.815 563.404 197.231 562.892L198.591 564.156C197.935 565.004 196.927 565.644 195.183 565.644C192.783 565.644 191.087 564.028 191.087 561.58C191.087 559.196 192.735 557.564 195.055 557.564C197.263 557.564 198.799 559.228 198.799 561.516ZM195.039 559.388C194.191 559.388 193.519 559.868 193.279 560.764H196.719C196.511 559.932 195.951 559.388 195.039 559.388ZM200.426 565.5V557.676H202.522V558.7H202.538C203.162 557.948 204.01 557.564 204.874 557.564C205.898 557.564 206.714 557.948 207.178 558.796H207.21C207.85 557.98 208.826 557.564 209.946 557.564C211.626 557.564 212.698 558.572 212.698 560.972V565.5H210.602V561.468C210.602 560.22 210.218 559.436 209.242 559.436C208.362 559.436 207.642 560.188 207.642 561.596V565.5H205.546V561.468C205.546 560.22 205.13 559.436 204.17 559.436C203.226 559.436 202.522 560.188 202.522 561.596V565.5H200.426ZM221.94 561.516C221.94 561.772 221.908 562.14 221.892 562.268H216.404C216.66 563.212 217.412 563.772 218.468 563.772C219.348 563.772 219.956 563.404 220.372 562.892L221.732 564.156C221.076 565.004 220.068 565.644 218.324 565.644C215.924 565.644 214.228 564.028 214.228 561.58C214.228 559.196 215.876 557.564 218.196 557.564C220.404 557.564 221.94 559.228 221.94 561.516ZM218.18 559.388C217.332 559.388 216.66 559.868 216.42 560.764H219.86C219.652 559.932 219.092 559.388 218.18 559.388ZM223.566 565.5V557.676H225.662V558.684H225.694C226.318 557.948 227.214 557.564 228.19 557.564C229.854 557.564 231.022 558.46 231.022 560.86V565.5H228.926V561.388C228.926 559.9 228.398 559.436 227.422 559.436C226.366 559.436 225.662 560.172 225.662 561.58V565.5H223.566ZM235.389 565.644C234.045 565.644 233.165 564.796 233.165 563.036V559.42H232.237V557.676H233.165V555.132L235.261 554.908V557.676H237.373V559.42H235.261V562.732C235.261 563.42 235.437 563.74 235.933 563.74C236.189 563.74 236.573 563.644 236.925 563.468L237.453 565.148C236.957 565.42 236.445 565.644 235.389 565.644Z" fill="white"/>
<path d="M59.5 548.5H41.5C40.3954 548.5 39.5 549.395 39.5 550.5V568.5C39.5 569.605 40.3954 570.5 41.5 570.5H59.5C60.6046 570.5 61.5 569.605 61.5 568.5V550.5C61.5 549.395 60.6046 548.5 59.5 548.5Z" stroke="white" stroke-width="2"/>
</g>
<path d="M349.5 604.5H26.5C23.1863 604.5 20.5 607.186 20.5 610.5V648.5C20.5 651.814 23.1863 654.5 26.5 654.5H349.5C352.814 654.5 355.5 651.814 355.5 648.5V610.5C355.5 607.186 352.814 604.5 349.5 604.5Z" fill="#5F57FF"/>
<g opacity="0.7">
<path d="M172.968 635.644C171.512 635.644 170.024 635.068 168.824 633.836L170.184 632.172C171.032 633.132 172.12 633.596 173.016 633.596C174.104 633.596 174.632 633.1 174.632 632.396C174.632 631.564 174.04 631.26 172.664 630.78C170.936 630.188 169.224 629.404 169.224 627.244C169.224 625.42 170.84 624.012 172.872 623.996C174.28 623.996 175.576 624.508 176.712 625.436L175.4 627.132C174.456 626.364 173.624 626.012 172.92 626.012C172.136 626.012 171.56 626.428 171.544 627.148C171.544 627.852 172.152 628.14 173.464 628.652C175.432 629.42 177 629.932 177 632.124C177 634.62 174.808 635.644 172.968 635.644ZM181.945 635.644C179.801 635.644 178.217 634.028 178.217 631.612C178.217 629.244 179.801 627.564 181.897 627.564C182.809 627.564 183.641 627.916 184.201 628.588L184.233 628.572V627.676H186.329V635.5H184.329V634.572L184.297 634.556C183.753 635.26 182.969 635.644 181.945 635.644ZM182.345 633.756C183.417 633.756 184.329 632.908 184.329 631.628C184.329 630.364 183.465 629.436 182.345 629.436C181.209 629.436 180.345 630.284 180.345 631.628C180.345 632.876 181.161 633.756 182.345 633.756ZM188.417 635.5V623.724H190.513V635.5H188.417ZM199.976 631.516C199.976 631.772 199.944 632.14 199.928 632.268H194.44C194.696 633.212 195.448 633.772 196.504 633.772C197.384 633.772 197.992 633.404 198.408 632.892L199.768 634.156C199.112 635.004 198.104 635.644 196.36 635.644C193.96 635.644 192.264 634.028 192.264 631.58C192.264 629.196 193.912 627.564 196.232 627.564C198.44 627.564 199.976 629.228 199.976 631.516ZM196.216 629.388C195.368 629.388 194.696 629.868 194.456 630.764H197.896C197.688 629.932 197.128 629.388 196.216 629.388ZM204.13 635.644C202.882 635.644 201.81 635.228 200.962 634.492L201.97 633.036C202.61 633.628 203.282 633.932 204.146 633.932C204.754 633.932 205.09 633.676 205.09 633.292C205.09 632.956 204.69 632.78 203.682 632.444C202.386 632.012 201.266 631.404 201.266 629.884C201.266 628.476 202.482 627.564 204.098 627.564C205.17 627.564 206.05 627.852 206.946 628.54L205.922 630.092C205.33 629.516 204.626 629.26 204.05 629.26C203.73 629.26 203.314 629.42 203.314 629.836C203.314 630.156 203.698 630.38 204.466 630.668C206.162 631.292 207.154 631.66 207.154 633.212C207.154 634.588 206.178 635.644 204.13 635.644Z" fill="white"/>
<path d="M59.5 618.5H41.5C40.3954 618.5 39.5 619.395 39.5 620.5V638.5C39.5 639.605 40.3954 640.5 41.5 640.5H59.5C60.6046 640.5 61.5 639.605 61.5 638.5V620.5C61.5 619.395 60.6046 618.5 59.5 618.5Z" stroke="white" stroke-width="2"/>
</g>
<path d="M349.5 674.5H26.5C23.1863 674.5 20.5 677.186 20.5 680.5V718.5C20.5 721.814 23.1863 724.5 26.5 724.5H349.5C352.814 724.5 355.5 721.814 355.5 718.5V680.5C355.5 677.186 352.814 674.5 349.5 674.5Z" fill="#5F57FF"/>
<g opacity="0.7">
<path d="M178.176 705.5V694.14H180.448V699.052H185.088V694.14H187.344V705.5H185.088V701.052H180.448V705.5H178.176ZM189.801 705.5V694.14H194.105C196.841 694.14 198.057 695.74 198.057 697.916C198.057 699.644 197.257 700.828 195.689 701.34L198.537 705.5H195.865L193.321 701.612H192.025V705.5H189.801ZM192.025 699.628H193.657C195.033 699.628 195.737 698.924 195.737 697.884C195.737 696.828 195.049 696.14 193.753 696.14H192.025V699.628Z" fill="white"/>
<path d="M59.5 688.5H41.5C40.3954 688.5 39.5 689.395 39.5 690.5V708.5C39.5 709.605 40.3954 710.5 41.5 710.5H59.5C60.6046 710.5 61.5 709.605 61.5 708.5V690.5C61.5 689.395 60.6046 688.5 59.5 688.5Z" stroke="white" stroke-width="2"/>
</g>
<path d="M349.5 744.5H26.5C23.1863 744.5 20.5 747.186 20.5 750.5V788.5C20.5 791.814 23.1863 794.5 26.5 794.5H349.5C352.814 794.5 355.5 791.814 355.5 788.5V750.5C355.5 747.186 352.814 744.5 349.5 744.5Z" fill="#5F57FF"/>
<g opacity="0.7">
<path d="M151.272 775.5V764.14H153.528L157.016 770.604H157.048L160.536 764.14H162.792V775.5H160.552V768.476H160.52L157.752 773.356H156.296L153.544 768.46H153.512V775.5H151.272ZM168.36 775.644C166.216 775.644 164.632 774.028 164.632 771.612C164.632 769.244 166.216 767.564 168.312 767.564C169.224 767.564 170.056 767.916 170.616 768.588L170.648 768.572V767.676H172.744V775.5H170.744V774.572L170.712 774.556C170.168 775.26 169.384 775.644 168.36 775.644ZM168.76 773.756C169.832 773.756 170.744 772.908 170.744 771.628C170.744 770.364 169.88 769.436 168.76 769.436C167.624 769.436 166.76 770.284 166.76 771.628C166.76 772.876 167.576 773.756 168.76 773.756ZM174.736 775.5V767.676H176.832V768.812H176.864C177.456 768.012 178.304 767.564 179.216 767.564H179.376V769.852C179.152 769.836 178.944 769.836 178.816 769.836C177.52 769.836 176.832 770.7 176.832 771.884V775.5H174.736ZM180.689 775.5V763.724H182.769V770.956H182.801L185.585 767.676H188.049L185.313 770.812L188.113 775.5H185.761L183.825 772.22L182.769 773.372V775.5H180.689ZM196.11 771.516C196.11 771.772 196.078 772.14 196.062 772.268H190.574C190.83 773.212 191.582 773.772 192.638 773.772C193.518 773.772 194.126 773.404 194.542 772.892L195.902 774.156C195.246 775.004 194.238 775.644 192.494 775.644C190.094 775.644 188.398 774.028 188.398 771.58C188.398 769.196 190.046 767.564 192.366 767.564C194.574 767.564 196.11 769.228 196.11 771.516ZM192.35 769.388C191.502 769.388 190.83 769.868 190.59 770.764H194.03C193.822 769.932 193.262 769.388 192.35 769.388ZM200.152 775.644C198.808 775.644 197.928 774.796 197.928 773.036V769.42H197V767.676H197.928V765.132L200.024 764.908V767.676H202.136V769.42H200.024V772.732C200.024 773.42 200.2 773.74 200.696 773.74C200.952 773.74 201.336 773.644 201.688 773.468L202.216 775.148C201.72 775.42 201.208 775.644 200.152 775.644ZM204.763 766.62C203.995 766.62 203.435 766.044 203.435 765.324C203.435 764.62 203.995 764.044 204.763 764.044C205.515 764.044 206.091 764.62 206.091 765.324C206.091 766.044 205.515 766.62 204.763 766.62ZM203.691 775.5V767.676H205.787V775.5H203.691ZM207.97 775.5V767.676H210.066V768.684H210.098C210.722 767.948 211.618 767.564 212.594 767.564C214.258 767.564 215.426 768.46 215.426 770.86V775.5H213.33V771.388C213.33 769.9 212.802 769.436 211.826 769.436C210.77 769.436 210.066 770.172 210.066 771.58V775.5H207.97ZM220.912 778.796C219.712 778.796 218.64 778.54 217.712 778.012L218.208 776.236C218.976 776.668 219.728 776.972 220.752 776.972C222.208 776.972 222.944 776.172 222.944 775.244V774.46H222.912C222.352 775.036 221.568 775.356 220.64 775.356C218.496 775.356 216.912 773.788 216.912 771.516C216.912 769.212 218.448 767.564 220.528 767.564C221.392 767.564 222.24 767.868 222.88 768.492H222.912V767.676H225.008V774.604C225.008 777.052 223.936 778.796 220.912 778.796ZM221.024 773.468C222.176 773.468 222.992 772.62 222.992 771.436C222.992 770.252 222.144 769.452 221.024 769.452C219.856 769.452 219.04 770.268 219.04 771.452C219.04 772.684 219.904 773.468 221.024 773.468Z" fill="white"/>
<path d="M59.5 758.5H41.5C40.3954 758.5 39.5 759.395 39.5 760.5V778.5C39.5 779.605 40.3954 780.5 41.5 780.5H59.5C60.6046 780.5 61.5 779.605 61.5 778.5V760.5C61.5 759.395 60.6046 758.5 59.5 758.5Z" stroke="white" stroke-width="2"/>
</g>
<path d="M349.5 394.5H26.5C23.1863 394.5 20.5 397.186 20.5 400.5V438.5C20.5 441.814 23.1863 444.5 26.5 444.5H349.5C352.814 444.5 355.5 441.814 355.5 438.5V400.5C355.5 397.186 352.814 394.5 349.5 394.5Z" fill="#6E66FF"/>
<path d="M156.256 425.5V414.14H160.016C163.616 414.14 165.92 416.476 165.92 419.836C165.92 423.18 163.712 425.5 160.064 425.5H156.256ZM158.48 423.5H159.92C162.128 423.5 163.568 421.916 163.568 419.836C163.568 417.708 162.112 416.14 160.048 416.14H158.48V423.5ZM174.985 421.516C174.985 421.772 174.953 422.14 174.937 422.268H169.449C169.705 423.212 170.457 423.772 171.513 423.772C172.393 423.772 173.001 423.404 173.417 422.892L174.777 424.156C174.121 425.004 173.113 425.644 171.369 425.644C168.969 425.644 167.273 424.028 167.273 421.58C167.273 419.196 168.921 417.564 171.241 417.564C173.449 417.564 174.985 419.228 174.985 421.516ZM171.225 419.388C170.377 419.388 169.705 419.868 169.465 420.764H172.905C172.697 419.932 172.137 419.388 171.225 419.388ZM179.139 425.644C177.891 425.644 176.819 425.228 175.971 424.492L176.979 423.036C177.619 423.628 178.291 423.932 179.155 423.932C179.763 423.932 180.099 423.676 180.099 423.292C180.099 422.956 179.699 422.78 178.691 422.444C177.395 422.012 176.275 421.404 176.275 419.884C176.275 418.476 177.491 417.564 179.107 417.564C180.179 417.564 181.059 417.852 181.955 418.54L180.931 420.092C180.339 419.516 179.635 419.26 179.059 419.26C178.739 419.26 178.323 419.42 178.323 419.836C178.323 420.156 178.707 420.38 179.475 420.668C181.171 421.292 182.163 421.66 182.163 423.212C182.163 424.588 181.187 425.644 179.139 425.644ZM184.904 416.62C184.136 416.62 183.576 416.044 183.576 415.324C183.576 414.62 184.136 414.044 184.904 414.044C185.656 414.044 186.232 414.62 186.232 415.324C186.232 416.044 185.656 416.62 184.904 416.62ZM183.832 425.5V417.676H185.928V425.5H183.832ZM191.647 428.796C190.447 428.796 189.375 428.54 188.447 428.012L188.943 426.236C189.711 426.668 190.463 426.972 191.487 426.972C192.943 426.972 193.679 426.172 193.679 425.244V424.46H193.647C193.087 425.036 192.303 425.356 191.375 425.356C189.231 425.356 187.647 423.788 187.647 421.516C187.647 419.212 189.183 417.564 191.263 417.564C192.127 417.564 192.975 417.868 193.615 418.492H193.647V417.676H195.743V424.604C195.743 427.052 194.671 428.796 191.647 428.796ZM191.759 423.468C192.911 423.468 193.727 422.62 193.727 421.436C193.727 420.252 192.879 419.452 191.759 419.452C190.591 419.452 189.775 420.268 189.775 421.452C189.775 422.684 190.639 423.468 191.759 423.468ZM197.736 425.5V417.676H199.832V418.684H199.864C200.488 417.948 201.384 417.564 202.36 417.564C204.024 417.564 205.192 418.46 205.192 420.86V425.5H203.096V421.388C203.096 419.9 202.568 419.436 201.592 419.436C200.536 419.436 199.832 420.172 199.832 421.58V425.5H197.736ZM214.422 421.516C214.422 421.772 214.39 422.14 214.374 422.268H208.886C209.142 423.212 209.894 423.772 210.95 423.772C211.83 423.772 212.438 423.404 212.854 422.892L214.214 424.156C213.558 425.004 212.55 425.644 210.806 425.644C208.406 425.644 206.71 424.028 206.71 421.58C206.71 419.196 208.358 417.564 210.678 417.564C212.886 417.564 214.422 419.228 214.422 421.516ZM210.662 419.388C209.814 419.388 209.142 419.868 208.902 420.764H212.342C212.134 419.932 211.574 419.388 210.662 419.388ZM216.048 425.5V417.676H218.144V418.812H218.176C218.768 418.012 219.616 417.564 220.528 417.564H220.688V419.852C220.464 419.836 220.256 419.836 220.128 419.836C218.832 419.836 218.144 420.7 218.144 421.884V425.5H216.048Z" fill="white"/>
<path d="M59.5 408.5H41.5C40.3954 408.5 39.5 409.395 39.5 410.5V428.5C39.5 429.605 40.3954 430.5 41.5 430.5H59.5C60.6046 430.5 61.5 429.605 61.5 428.5V410.5C61.5 409.395 60.6046 408.5 59.5 408.5Z" fill="white" stroke="white" stroke-width="2"/>
<path d="M49.7928 422.45L45.5501 418.207C45.1596 417.817 44.5264 417.817 44.1359 418.207C43.7454 418.598 43.7454 419.231 44.1359 419.621L48.3786 423.864C48.7691 424.254 49.4022 424.254 49.7928 423.864C50.1833 423.473 50.1833 422.84 49.7928 422.45Z" fill="black"/>
<path d="M55.4497 415.379C55.8402 414.988 56.4734 414.988 56.8639 415.379C57.2545 415.769 57.2545 416.403 56.8639 416.793L49.7929 423.864C49.4023 424.255 48.7692 424.255 48.3787 423.864C47.9881 423.474 47.9881 422.84 48.3787 422.45L55.4497 415.379Z" fill="black"/>
<path d="M349.5 324.5H26.5C23.1863 324.5 20.5 327.186 20.5 330.5V368.5C20.5 371.814 23.1863 374.5 26.5 374.5H349.5C352.814 374.5 355.5 371.814 355.5 368.5V330.5C355.5 327.186 352.814 324.5 349.5 324.5Z" fill="#6E66FF"/>
<path d="M151.384 355.5V344.14H155.144C158.744 344.14 161.048 346.476 161.048 349.836C161.048 353.18 158.84 355.5 155.192 355.5H151.384ZM153.608 353.5H155.048C157.256 353.5 158.696 351.916 158.696 349.836C158.696 347.708 157.24 346.14 155.176 346.14H153.608V353.5ZM170.113 351.516C170.113 351.772 170.081 352.14 170.065 352.268H164.577C164.833 353.212 165.585 353.772 166.641 353.772C167.521 353.772 168.129 353.404 168.545 352.892L169.905 354.156C169.249 355.004 168.241 355.644 166.497 355.644C164.097 355.644 162.401 354.028 162.401 351.58C162.401 349.196 164.049 347.564 166.369 347.564C168.577 347.564 170.113 349.228 170.113 351.516ZM166.353 349.388C165.505 349.388 164.833 349.868 164.593 350.764H168.033C167.825 349.932 167.265 349.388 166.353 349.388ZM173.558 355.5L170.486 347.676H172.726L174.534 352.924H174.55L176.39 347.676H178.582L175.51 355.5H173.558ZM186.66 351.516C186.66 351.772 186.628 352.14 186.612 352.268H181.124C181.38 353.212 182.132 353.772 183.188 353.772C184.068 353.772 184.676 353.404 185.092 352.892L186.452 354.156C185.796 355.004 184.788 355.644 183.044 355.644C180.644 355.644 178.948 354.028 178.948 351.58C178.948 349.196 180.596 347.564 182.916 347.564C185.124 347.564 186.66 349.228 186.66 351.516ZM182.9 349.388C182.052 349.388 181.38 349.868 181.14 350.764H184.58C184.372 349.932 183.812 349.388 182.9 349.388ZM188.382 355.5V343.724H190.478V355.5H188.382ZM196.389 355.644C193.893 355.644 192.229 353.932 192.229 351.596C192.229 349.26 193.893 347.564 196.389 347.564C198.821 347.564 200.533 349.196 200.533 351.596C200.533 353.98 198.821 355.644 196.389 355.644ZM196.389 353.756C197.509 353.756 198.405 352.876 198.405 351.596C198.405 350.316 197.541 349.436 196.389 349.436C195.173 349.436 194.357 350.364 194.357 351.596C194.357 352.812 195.189 353.756 196.389 353.756ZM202.176 358.668V347.676H204.272V348.572H204.304C204.864 347.916 205.696 347.564 206.656 347.564C208.768 347.564 210.352 349.244 210.352 351.612C210.352 354.028 208.768 355.644 206.592 355.644C205.616 355.644 204.848 355.276 204.304 354.62L204.272 354.636V358.668H202.176ZM206.224 353.756C207.392 353.756 208.224 352.876 208.224 351.628C208.224 350.284 207.328 349.436 206.208 349.436C205.008 349.436 204.176 350.364 204.176 351.628C204.176 352.908 205.072 353.756 206.224 353.756ZM219.285 351.516C219.285 351.772 219.253 352.14 219.237 352.268H213.749C214.005 353.212 214.757 353.772 215.813 353.772C216.693 353.772 217.301 353.404 217.717 352.892L219.077 354.156C218.421 355.004 217.413 355.644 215.669 355.644C213.269 355.644 211.573 354.028 211.573 351.58C211.573 349.196 213.221 347.564 215.541 347.564C217.749 347.564 219.285 349.228 219.285 351.516ZM215.525 349.388C214.677 349.388 214.005 349.868 213.765 350.764H217.205C216.997 349.932 216.437 349.388 215.525 349.388ZM220.911 355.5V347.676H223.007V348.812H223.039C223.631 348.012 224.479 347.564 225.391 347.564H225.551V349.852C225.327 349.836 225.119 349.836 224.991 349.836C223.695 349.836 223.007 350.7 223.007 351.884V355.5H220.911Z" fill="white"/>
<path d="M59.5 338.5H41.5C40.3954 338.5 39.5 339.395 39.5 340.5V358.5C39.5 359.605 40.3954 360.5 41.5 360.5H59.5C60.6046 360.5 61.5 359.605 61.5 358.5V340.5C61.5 339.395 60.6046 338.5 59.5 338.5Z" fill="white" stroke="white" stroke-width="2"/>
<path d="M49.7928 352.45L45.5501 348.207C45.1596 347.817 44.5264 347.817 44.1359 348.207C43.7454 348.598 43.7454 349.231 44.1359 349.621L48.3786 353.864C48.7691 354.254 49.4022 354.254 49.7928 353.864C50.1833 353.473 50.1833 352.84 49.7928 352.45Z" fill="black"/>
<path d="M55.4497 345.379C55.8402 344.988 56.4734 344.988 56.8639 345.379C57.2545 345.769 57.2545 346.403 56.8639 346.793L49.7929 353.864C49.4023 354.255 48.7692 354.255 48.3787 353.864C47.9881 353.474 47.9881 352.84 48.3787 352.45L55.4497 345.379Z" fill="black"/>
</g>
<rect width="375" height="94" transform="translate(0 719)" fill="#4A43BF"/>
<path d="M328 739H47C32.0883 739 20 751.088 20 766C20 780.912 32.0883 793 47 793H328C342.912 793 355 780.912 355 766C355 751.088 342.912 739 328 739Z" fill="white"/>
<path d="M148.06 772.112C144.892 772.112 142.268 770.096 142.268 766.352C142.268 763.104 144.348 760.496 148.028 760.496C149.66 760.496 151.34 761.2 152.556 762.688L150.892 764.08C150.156 763.184 149.196 762.64 148.028 762.64C146.092 762.64 144.62 764.08 144.62 766.352C144.62 768.464 146.028 769.984 148.06 769.984C149.244 769.984 150.236 769.392 150.924 768.544L152.572 769.968C151.596 771.184 150.06 772.112 148.06 772.112ZM159.607 772.144C156.167 772.144 153.815 769.696 153.815 766.32C153.815 762.944 156.167 760.496 159.607 760.496C162.935 760.496 165.383 762.848 165.383 766.32C165.383 769.776 162.935 772.144 159.607 772.144ZM159.607 770.032C161.559 770.032 163.031 768.464 163.031 766.32C163.031 764.176 161.559 762.608 159.607 762.608C157.559 762.608 156.151 764.256 156.151 766.32C156.151 768.384 157.559 770.032 159.607 770.032ZM167.388 772V760.64H169.596L174.7 768.304H174.732V760.64H176.956V772H174.7L169.66 764.496H169.628V772H167.388ZM181.755 772V762.64H178.651V760.64H187.179V762.64H184.027V772H181.755ZM188.905 772V760.64H191.193V772H188.905ZM193.732 772V760.64H195.94L201.044 768.304H201.076V760.64H203.3V772H201.044L196.004 764.496H195.972V772H193.732ZM210.227 772.144C207.491 772.144 205.635 770.4 205.635 767.296V760.64H207.891V767.152C207.891 768.784 208.723 770.032 210.227 770.032C211.603 770.032 212.595 768.96 212.595 767.152V760.64H214.851V767.296C214.851 770.256 213.139 772.144 210.227 772.144ZM217.154 772V760.64H224.418V762.64H219.378V765.376H223.41V767.344H219.378V770H224.754V772H217.154Z" fill="black"/>
</g>
<defs>
<clipPath id="clip0_6_259">
<rect width="375" height="812" fill="white" transform="translate(0 0.5)"/>
</clipPath>
<clipPath id="clip1_6_259">
<rect width="375" height="1117" fill="white" transform="translate(0.5 0.5)"/>
</clipPath>
</defs>
</svg>
