<svg width="375" height="812" viewBox="0 0 375 812" fill="none" xmlns="http://www.w3.org/2000/svg">
<g clip-path="url(#clip0_6_201)">
<path d="M375 0H0V812H375V0Z" fill="#4A43BF"/>
<path d="M28.466 203L20.85 178.86H25.95L30.642 195.146H30.71L35.028 178.86H40.06L44.31 195.112H44.412L49.104 178.86H54.204L46.588 203H42.168L37.612 185.83H37.544L32.886 203H28.466ZM57.2725 203V177.976H61.7265V188.38H61.7605C63.1205 186.884 65.0245 186.136 67.2005 186.136C70.7365 186.136 73.2865 187.938 73.2865 193.038V203H68.8325V194.16C68.8325 191.134 67.7105 190.114 65.6025 190.114C63.2225 190.114 61.7265 191.61 61.7265 194.602V203H57.2725ZM92.8968 194.534C92.8968 195.078 92.8288 195.86 92.7948 196.132H81.1328C81.6768 198.138 83.2748 199.328 85.5188 199.328C87.3888 199.328 88.6808 198.546 89.5648 197.458L92.4548 200.144C91.0608 201.946 88.9188 203.306 85.2128 203.306C80.1128 203.306 76.5088 199.872 76.5088 194.67C76.5088 189.604 80.0108 186.136 84.9408 186.136C89.6328 186.136 92.8968 189.672 92.8968 194.534ZM84.9068 190.012C83.1048 190.012 81.6768 191.032 81.1668 192.936H88.4768C88.0348 191.168 86.8448 190.012 84.9068 190.012ZM96.3526 203V186.374H100.807V188.788H100.875C102.133 187.088 103.935 186.136 105.873 186.136H106.213V190.998C105.737 190.964 105.295 190.964 105.023 190.964C102.269 190.964 100.807 192.8 100.807 195.316V203H96.3526ZM124.041 194.534C124.041 195.078 123.973 195.86 123.939 196.132H112.277C112.821 198.138 114.419 199.328 116.663 199.328C118.533 199.328 119.825 198.546 120.709 197.458L123.599 200.144C122.205 201.946 120.063 203.306 116.357 203.306C111.257 203.306 107.653 199.872 107.653 194.67C107.653 189.604 111.155 186.136 116.085 186.136C120.777 186.136 124.041 189.672 124.041 194.534ZM116.051 190.012C114.249 190.012 112.821 191.032 112.311 192.936H119.621C119.179 191.168 117.989 190.012 116.051 190.012ZM143.2 203.306C138.644 203.306 135.278 199.872 135.278 194.738C135.278 189.706 138.644 186.136 143.098 186.136C145.036 186.136 146.804 186.884 147.994 188.312L148.062 188.278V186.374H152.516V203H148.266V201.028L148.198 200.994C147.042 202.49 145.376 203.306 143.2 203.306ZM144.05 199.294C146.328 199.294 148.266 197.492 148.266 194.772C148.266 192.086 146.43 190.114 144.05 190.114C141.636 190.114 139.8 191.916 139.8 194.772C139.8 197.424 141.534 199.294 144.05 199.294ZM156.749 203V186.374H161.203V188.788H161.271C162.529 187.088 164.331 186.136 166.269 186.136H166.609V190.998C166.133 190.964 165.691 190.964 165.419 190.964C162.665 190.964 161.203 192.8 161.203 195.316V203H156.749ZM184.438 194.534C184.438 195.078 184.37 195.86 184.336 196.132H172.674C173.218 198.138 174.816 199.328 177.06 199.328C178.93 199.328 180.222 198.546 181.106 197.458L183.996 200.144C182.602 201.946 180.46 203.306 176.754 203.306C171.654 203.306 168.05 199.872 168.05 194.67C168.05 189.604 171.552 186.136 176.482 186.136C181.174 186.136 184.438 189.672 184.438 194.534ZM176.448 190.012C174.646 190.012 173.218 191.032 172.708 192.936H180.018C179.576 191.168 178.386 190.012 176.448 190.012ZM198.632 209.732L201.59 201.98L194.926 186.374H199.686L203.732 196.574H203.8L207.574 186.374H212.096L203.154 209.732H198.632ZM221.847 203.306C216.543 203.306 213.007 199.668 213.007 194.704C213.007 189.74 216.543 186.136 221.847 186.136C227.015 186.136 230.653 189.604 230.653 194.704C230.653 199.77 227.015 203.306 221.847 203.306ZM221.847 199.294C224.227 199.294 226.131 197.424 226.131 194.704C226.131 191.984 224.295 190.114 221.847 190.114C219.263 190.114 217.529 192.086 217.529 194.704C217.529 197.288 219.297 199.294 221.847 199.294ZM239.96 203.306C236.356 203.306 233.84 201.47 233.84 196.404V186.374H238.26V195.248C238.26 198.274 239.178 199.294 241.252 199.294C243.19 199.294 244.924 197.662 244.924 194.466V186.374H249.412V203H244.924V201.028L244.856 200.994C243.598 202.524 241.83 203.306 239.96 203.306ZM264.917 184.13C263.285 184.13 262.095 182.906 262.095 181.376C262.095 179.88 263.285 178.656 264.917 178.656C266.515 178.656 267.739 179.88 267.739 181.376C267.739 182.906 266.515 184.13 264.917 184.13ZM262.639 203V186.374H267.093V203H262.639ZM271.731 203V186.374H276.185V188.516H276.253C277.579 186.952 279.483 186.136 281.557 186.136C285.093 186.136 287.575 188.04 287.575 193.14V203H283.121V194.262C283.121 191.1 281.999 190.114 279.925 190.114C277.681 190.114 276.185 191.678 276.185 194.67V203H271.731Z" fill="white"/>
<path d="M24.216 251.732L27.174 243.98L20.51 228.374H25.27L29.316 238.574H29.384L33.158 228.374H37.68L28.738 251.732H24.216ZM47.4308 245.306C42.1268 245.306 38.5908 241.668 38.5908 236.704C38.5908 231.74 42.1268 228.136 47.4308 228.136C52.5988 228.136 56.2368 231.604 56.2368 236.704C56.2368 241.77 52.5988 245.306 47.4308 245.306ZM47.4308 241.294C49.8108 241.294 51.7148 239.424 51.7148 236.704C51.7148 233.984 49.8788 232.114 47.4308 232.114C44.8468 232.114 43.1128 234.086 43.1128 236.704C43.1128 239.288 44.8808 241.294 47.4308 241.294ZM65.5435 245.306C61.9395 245.306 59.4235 243.47 59.4235 238.404V228.374H63.8435V237.248C63.8435 240.274 64.7615 241.294 66.8355 241.294C68.7735 241.294 70.5075 239.662 70.5075 236.466V228.374H74.9955V245H70.5075V243.028L70.4395 242.994C69.1815 244.524 67.4135 245.306 65.5435 245.306ZM79.2862 245V228.374H83.7402V230.788H83.8082C85.0662 229.088 86.8682 228.136 88.8062 228.136H89.1462V232.998C88.6702 232.964 88.2282 232.964 87.9562 232.964C85.2022 232.964 83.7402 234.8 83.7402 237.316V245H79.2862ZM108.319 245.306C103.355 245.306 99.751 241.838 99.751 236.738C99.751 231.604 103.321 228.136 108.455 228.136C111.039 228.136 113.759 229.088 115.493 231.128L112.569 233.882C111.685 232.794 110.325 232.114 108.761 232.114C106.075 232.114 104.273 233.984 104.273 236.704C104.273 239.458 106.109 241.294 108.761 241.294C110.461 241.294 111.787 240.58 112.671 239.492L115.561 242.28C114.133 244.048 111.855 245.306 108.319 245.306ZM125.602 245.306C121.046 245.306 117.68 241.872 117.68 236.738C117.68 231.706 121.046 228.136 125.5 228.136C127.438 228.136 129.206 228.884 130.396 230.312L130.464 230.278V228.374H134.918V245H130.668V243.028L130.6 242.994C129.444 244.49 127.778 245.306 125.602 245.306ZM126.452 241.294C128.73 241.294 130.668 239.492 130.668 236.772C130.668 234.086 128.832 232.114 126.452 232.114C124.038 232.114 122.202 233.916 122.202 236.772C122.202 239.424 123.936 241.294 126.452 241.294ZM139.151 245V228.374H143.605V230.788H143.673C144.931 229.088 146.733 228.136 148.671 228.136H149.011V232.998C148.535 232.964 148.093 232.964 147.821 232.964C145.067 232.964 143.605 234.8 143.605 237.316V245H139.151ZM166.84 236.534C166.84 237.078 166.772 237.86 166.738 238.132H155.076C155.62 240.138 157.218 241.328 159.462 241.328C161.332 241.328 162.624 240.546 163.508 239.458L166.398 242.144C165.004 243.946 162.862 245.306 159.156 245.306C154.056 245.306 150.452 241.872 150.452 236.67C150.452 231.604 153.954 228.136 158.884 228.136C163.576 228.136 166.84 231.672 166.84 236.534ZM158.85 232.012C157.048 232.012 155.62 233.032 155.11 234.936H162.42C161.978 233.168 160.788 232.012 158.85 232.012ZM185.766 236.534C185.766 237.078 185.698 237.86 185.664 238.132H174.002C174.546 240.138 176.144 241.328 178.388 241.328C180.258 241.328 181.55 240.546 182.434 239.458L185.324 242.144C183.93 243.946 181.788 245.306 178.082 245.306C172.982 245.306 169.378 241.872 169.378 236.67C169.378 231.604 172.88 228.136 177.81 228.136C182.502 228.136 185.766 231.672 185.766 236.534ZM177.776 232.012C175.974 232.012 174.546 233.032 174.036 234.936H181.346C180.904 233.168 179.714 232.012 177.776 232.012ZM189.222 245V228.374H193.676V230.788H193.744C195.002 229.088 196.804 228.136 198.742 228.136H199.082V232.998C198.606 232.964 198.164 232.964 197.892 232.964C195.138 232.964 193.676 234.8 193.676 237.316V245H189.222ZM203.59 237.146V235.446C203.556 233.304 205.086 231.91 206.48 230.482C207.534 229.326 208.622 228.102 208.622 226.572C208.622 224.872 207.534 223.92 205.936 223.92C204.644 223.92 203.352 224.634 202.536 225.756L199.306 222.798C200.87 220.894 203.454 219.67 206.276 219.67C210.084 219.67 213.484 221.846 213.484 226.3C213.484 228.952 211.988 230.72 210.458 232.182C209.098 233.474 207.738 234.494 207.67 235.684L207.534 237.146H203.59ZM205.664 245.306C204.1 245.306 202.842 244.082 202.842 242.552C202.842 241.056 204.1 239.832 205.664 239.832C207.16 239.832 208.418 241.056 208.418 242.552C208.418 244.082 207.16 245.306 205.664 245.306Z" fill="white"/>
<path d="M347.203 77.96C349.059 77.96 350.579 79.24 350.579 81.496C350.579 83.656 348.867 85.144 346.611 85.144C344.355 85.144 342.659 83.368 342.659 80.68C342.659 77.16 345.011 74.296 348.467 73.656L349.107 75.416C347.139 75.976 345.811 76.888 345.171 78.424L345.203 78.456C345.795 78.136 346.499 77.96 347.203 77.96ZM346.707 83.176C347.763 83.176 348.451 82.392 348.451 81.448C348.451 80.488 347.747 79.784 346.643 79.784C345.875 79.784 345.187 80.216 344.739 80.776V80.904C344.739 82.28 345.635 83.176 346.707 83.176Z" fill="#C4C4C4"/>
<path d="M318.515 85.144C316.563 85.144 315.107 84.104 314.579 82.712L316.451 81.928C316.755 82.712 317.363 83.176 318.355 83.176C319.251 83.176 319.987 82.616 319.987 81.72C319.987 80.92 319.379 80.232 318.163 80.232H317.395V78.472H318.355C319.331 78.472 319.763 77.88 319.763 77.176C319.763 76.392 319.123 75.848 318.323 75.848C317.507 75.848 317.043 76.216 316.723 76.776L314.979 75.832C315.491 74.696 316.755 73.88 318.371 73.88C320.323 73.88 321.907 74.952 321.907 76.824C321.907 77.88 321.379 78.76 320.483 79.288V79.336C321.539 79.816 322.227 80.728 322.227 82.008C322.227 83.912 320.643 85.144 318.515 85.144Z" fill="white"/>
<path d="M335.5 72.5L330.5 87.5" stroke="#D8D8D8" stroke-width="2" stroke-linecap="round"/>
<path d="M117.995 84V74.06H124.589V75.81H119.941V78.47H123.819V80.234H119.941V84H117.995ZM126.254 84V74.06H128.256V84H126.254ZM130.477 84V74.06H132.409L136.875 80.766H136.903V74.06H138.849V84H136.875L132.465 77.434H132.437V84H130.477ZM141.018 84V74.06H144.308C147.458 74.06 149.474 76.104 149.474 79.044C149.474 81.97 147.542 84 144.35 84H141.018ZM142.964 82.25H144.224C146.156 82.25 147.416 80.864 147.416 79.044C147.416 77.182 146.142 75.81 144.336 75.81H142.964V82.25ZM157.123 84V79.632L153.833 74.06H156.087L158.117 77.672H158.145L160.133 74.06H162.415L159.111 79.632V84H157.123ZM167.446 84.126C164.436 84.126 162.378 81.984 162.378 79.03C162.378 76.076 164.436 73.934 167.446 73.934C170.358 73.934 172.5 75.992 172.5 79.03C172.5 82.054 170.358 84.126 167.446 84.126ZM167.446 82.278C169.154 82.278 170.442 80.906 170.442 79.03C170.442 77.154 169.154 75.782 167.446 75.782C165.654 75.782 164.422 77.224 164.422 79.03C164.422 80.836 165.654 82.278 167.446 82.278ZM178.146 84.126C175.752 84.126 174.128 82.6 174.128 79.884V74.06H176.102V79.758C176.102 81.186 176.83 82.278 178.146 82.278C179.35 82.278 180.218 81.34 180.218 79.758V74.06H182.192V79.884C182.192 82.474 180.694 84.126 178.146 84.126ZM184.208 84V74.06H187.974C190.368 74.06 191.432 75.46 191.432 77.364C191.432 78.876 190.732 79.912 189.36 80.36L191.852 84H189.514L187.288 80.598H186.154V84H184.208ZM186.154 78.862H187.582C188.786 78.862 189.402 78.246 189.402 77.336C189.402 76.412 188.8 75.81 187.666 75.81H186.154V78.862ZM201.639 84.098C198.867 84.098 196.571 82.334 196.571 79.058C196.571 76.216 198.391 73.934 201.611 73.934C203.039 73.934 204.509 74.55 205.573 75.852L204.117 77.07C203.473 76.286 202.633 75.81 201.611 75.81C199.917 75.81 198.629 77.07 198.629 79.058C198.629 80.906 199.861 82.236 201.639 82.236C202.675 82.236 203.543 81.718 204.145 80.976L205.587 82.222C204.733 83.286 203.389 84.098 201.639 84.098ZM211.743 84.126C208.733 84.126 206.675 81.984 206.675 79.03C206.675 76.076 208.733 73.934 211.743 73.934C214.655 73.934 216.797 75.992 216.797 79.03C216.797 82.054 214.655 84.126 211.743 84.126ZM211.743 82.278C213.451 82.278 214.739 80.906 214.739 79.03C214.739 77.154 213.451 75.782 211.743 75.782C209.951 75.782 208.719 77.224 208.719 79.03C208.719 80.836 209.951 82.278 211.743 82.278ZM217.164 84L220.846 74.06H222.75L226.446 84H224.388L223.702 82.012H219.894L219.222 84H217.164ZM220.454 80.332H223.142L221.812 76.44H221.784L220.454 80.332ZM231.868 84.098C229.096 84.098 226.8 82.334 226.8 79.058C226.8 76.216 228.62 73.934 231.84 73.934C233.268 73.934 234.738 74.55 235.802 75.852L234.346 77.07C233.702 76.286 232.862 75.81 231.84 75.81C230.146 75.81 228.858 77.07 228.858 79.058C228.858 80.906 230.09 82.236 231.868 82.236C232.904 82.236 233.772 81.718 234.374 80.976L235.816 82.222C234.962 83.286 233.618 84.098 231.868 84.098ZM237.309 84V74.06H239.297V78.358H243.357V74.06H245.331V84H243.357V80.108H239.297V84H237.309Z" fill="white"/>
<g opacity="0.7">
<path fill-rule="evenodd" clip-rule="evenodd" d="M21.3199 77.5595L30.5595 68.3199C31.2884 67.591 32.4703 67.591 33.1993 68.3199C33.9283 69.0489 33.9283 70.2308 33.1993 70.9598L23.9598 80.1993C23.2308 80.9283 22.0489 80.9283 21.3199 80.1993C20.591 79.4703 20.591 78.2884 21.3199 77.5595Z" fill="white"/>
<path fill-rule="evenodd" clip-rule="evenodd" d="M21.3199 77.5595C22.0489 76.8305 23.2308 76.8305 23.9598 77.5595L33.1993 86.799C33.9283 87.528 33.9283 88.7099 33.1993 89.4389C32.4703 90.1678 31.2884 90.1678 30.5595 89.4389L21.3199 80.1993C20.591 79.4703 20.591 78.2884 21.3199 77.5595Z" fill="white"/>
</g>
<path opacity="0.35" d="M354.833 17.8335H339.167C337.694 17.8335 336.5 19.0274 336.5 20.5002V25.5002C336.5 26.9729 337.694 28.1668 339.167 28.1668H354.833C356.306 28.1668 357.5 26.9729 357.5 25.5002V20.5002C357.5 19.0274 356.306 17.8335 354.833 17.8335Z" stroke="white"/>
<path opacity="0.4" d="M359 21V25C359.805 24.6612 360.328 23.8731 360.328 23C360.328 22.1269 359.805 21.3388 359 21Z" fill="white"/>
<path d="M354.667 19.3335H339.333C338.597 19.3335 338 19.9304 338 20.6668V25.3335C338 26.0699 338.597 26.6668 339.333 26.6668H354.667C355.403 26.6668 356 26.0699 356 25.3335V20.6668C356 19.9304 355.403 19.3335 354.667 19.3335Z" fill="white"/>
<path d="M323.33 19.6079C325.546 19.608 327.678 20.4594 329.283 21.9862C329.404 22.1041 329.598 22.1026 329.717 21.9829L330.873 20.8162C330.933 20.7555 330.967 20.6733 330.966 20.5877C330.966 20.5021 330.931 20.4202 330.87 20.3602C326.655 16.3207 320.005 16.3207 315.79 20.3602C315.729 20.4202 315.694 20.502 315.694 20.5876C315.693 20.6732 315.727 20.7555 315.787 20.8162L316.943 21.9829C317.062 22.1028 317.256 22.1043 317.377 21.9862C318.983 20.4593 321.114 19.6079 323.33 19.6079ZM323.33 23.4036C324.548 23.4035 325.722 23.856 326.624 24.6732C326.747 24.7892 326.939 24.7867 327.058 24.6676L328.212 23.5009C328.273 23.4397 328.307 23.3567 328.306 23.2704C328.305 23.1842 328.27 23.1018 328.208 23.0419C325.46 20.4855 321.204 20.4855 318.455 23.0419C318.393 23.1018 318.358 23.1842 318.357 23.2705C318.356 23.3568 318.39 23.4398 318.451 23.5009L319.605 24.6676C319.724 24.7867 319.917 24.7892 320.039 24.6732C320.941 23.8566 322.114 23.4041 323.33 23.4036ZM325.549 26.1879C325.611 26.1273 325.645 26.0439 325.643 25.9574C325.642 25.8709 325.604 25.7889 325.54 25.7309C324.265 24.652 322.396 24.652 321.121 25.7309C321.057 25.7889 321.019 25.8708 321.017 25.9573C321.015 26.0438 321.049 26.1272 321.111 26.1879L323.109 28.2036C323.167 28.2628 323.247 28.2961 323.33 28.2961C323.414 28.2961 323.494 28.2628 323.552 28.2036L325.549 26.1879Z" fill="white"/>
<path d="M294.667 24.3332H295.667C296.219 24.3332 296.667 24.7809 296.667 25.3332V27.3332C296.667 27.8855 296.219 28.3332 295.667 28.3332H294.667C294.114 28.3332 293.667 27.8855 293.667 27.3332V25.3332C293.667 24.7809 294.114 24.3332 294.667 24.3332ZM299.333 22.3332H300.333C300.886 22.3332 301.333 22.7809 301.333 23.3332V27.3332C301.333 27.8855 300.886 28.3332 300.333 28.3332H299.333C298.781 28.3332 298.333 27.8855 298.333 27.3332V23.3332C298.333 22.7809 298.781 22.3332 299.333 22.3332ZM304 19.9998H305C305.552 19.9998 306 20.4476 306 20.9998V27.3332C306 27.8855 305.552 28.3332 305 28.3332H304C303.448 28.3332 303 27.8855 303 27.3332V20.9998C303 20.4476 303.448 19.9998 304 19.9998ZM308.667 17.6665H309.667C310.219 17.6665 310.667 18.1142 310.667 18.6665V27.3332C310.667 27.8855 310.219 28.3332 309.667 28.3332H308.667C308.114 28.3332 307.667 27.8855 307.667 27.3332V18.6665C307.667 18.1142 308.114 17.6665 308.667 17.6665Z" fill="white"/>
<path d="M37.7799 27.7393C35.9752 27.7393 34.5944 26.6797 34.3073 25.0664H36.0641C36.276 25.8047 36.9528 26.2627 37.8004 26.2627C39.2428 26.2627 40.0699 24.9434 40.0905 22.6602H39.9742C39.5094 23.5967 38.5729 24.1299 37.4176 24.1299C35.5377 24.1299 34.1705 22.749 34.1705 20.8555C34.1705 18.832 35.6881 17.3896 37.8346 17.3896C40.193 17.3896 41.7789 19.1943 41.7789 22.4551C41.7789 25.7773 40.2887 27.7393 37.7799 27.7393ZM37.8414 22.7354C38.983 22.7354 39.7965 21.9355 39.7965 20.835C39.7965 19.7139 38.9625 18.8594 37.8483 18.8594C36.734 18.8594 35.9 19.7002 35.9 20.8008C35.9 21.9424 36.693 22.7354 37.8414 22.7354ZM44.8756 26.1396C44.233 26.1396 43.7819 25.6748 43.7819 25.0596C43.7819 24.4375 44.233 23.9795 44.8756 23.9795C45.525 23.9795 45.9694 24.4375 45.9694 25.0596C45.9694 25.6748 45.525 26.1396 44.8756 26.1396ZM44.8756 21.1494C44.233 21.1494 43.7819 20.6914 43.7819 20.0762C43.7819 19.4541 44.233 18.9961 44.8756 18.9961C45.525 18.9961 45.9694 19.4541 45.9694 20.0762C45.9694 20.6914 45.525 21.1494 44.8756 21.1494ZM52.7848 27.5V25.6201H47.9655V24.1504C49.2438 21.9219 50.6451 19.6729 51.985 17.6357H54.4733V24.1299H55.8063V25.6201H54.4733V27.5H52.7848ZM49.5992 24.0752V24.1709H52.8121V19.0713H52.7164C51.7047 20.6025 50.5631 22.4141 49.5992 24.0752ZM59.8463 27.5V19.4131H59.7301L57.276 21.1357V19.4404L59.8531 17.6357H61.61V27.5H59.8463Z" fill="white"/>
<path d="M20.5 131.5H354.5" stroke="#E8E8E8" stroke-width="1.5" stroke-linecap="square"/>
<path d="M187.51 126H20V131H187.51V126Z" fill="#E8E8E8"/>
<path d="M349 324H26C22.6863 324 20 326.686 20 330V368C20 371.314 22.6863 374 26 374H349C352.314 374 355 371.314 355 368V330C355 326.686 352.314 324 349 324Z" fill="#5F57FF"/>
<g opacity="0.7">
<path d="M110.548 355V343.64H117.812V345.64H112.772V348.376H116.804V350.344H112.772V353H118.148V355H110.548ZM119.919 355V347.176H122.015V348.184H122.047C122.671 347.448 123.567 347.064 124.543 347.064C126.207 347.064 127.375 347.96 127.375 350.36V355H125.279V350.888C125.279 349.4 124.751 348.936 123.775 348.936C122.719 348.936 122.015 349.672 122.015 351.08V355H119.919ZM131.741 355.144C130.397 355.144 129.517 354.296 129.517 352.536V348.92H128.589V347.176H129.517V344.632L131.613 344.408V347.176H133.725V348.92H131.613V352.232C131.613 352.92 131.789 353.24 132.285 353.24C132.541 353.24 132.925 353.144 133.277 352.968L133.805 354.648C133.309 354.92 132.797 355.144 131.741 355.144ZM135.184 355V347.176H137.28V348.312H137.312C137.904 347.512 138.752 347.064 139.664 347.064H139.824V349.352C139.6 349.336 139.392 349.336 139.264 349.336C137.968 349.336 137.28 350.2 137.28 351.384V355H135.184ZM142.081 358.168L143.473 354.52L140.337 347.176H142.577L144.481 351.976H144.513L146.289 347.176H148.417L144.209 358.168H142.081ZM154.017 355V343.64H156.305V353H161.329V355H154.017ZM170.136 351.016C170.136 351.272 170.104 351.64 170.088 351.768H164.6C164.856 352.712 165.608 353.272 166.664 353.272C167.544 353.272 168.152 352.904 168.568 352.392L169.928 353.656C169.272 354.504 168.264 355.144 166.52 355.144C164.12 355.144 162.424 353.528 162.424 351.08C162.424 348.696 164.072 347.064 166.392 347.064C168.6 347.064 170.136 348.728 170.136 351.016ZM166.376 348.888C165.528 348.888 164.856 349.368 164.616 350.264H168.056C167.848 349.432 167.288 348.888 166.376 348.888ZM173.581 355L170.509 347.176H172.749L174.557 352.424H174.573L176.413 347.176H178.605L175.533 355H173.581ZM186.683 351.016C186.683 351.272 186.651 351.64 186.635 351.768H181.147C181.403 352.712 182.155 353.272 183.211 353.272C184.091 353.272 184.699 352.904 185.115 352.392L186.475 353.656C185.819 354.504 184.811 355.144 183.067 355.144C180.667 355.144 178.971 353.528 178.971 351.08C178.971 348.696 180.619 347.064 182.939 347.064C185.147 347.064 186.683 348.728 186.683 351.016ZM182.923 348.888C182.075 348.888 181.403 349.368 181.163 350.264H184.603C184.395 349.432 183.835 348.888 182.923 348.888ZM188.405 355V343.224H190.501V355H188.405ZM199.13 351.816C198.09 351.816 197.242 350.984 197.242 349.944C197.242 348.904 198.09 348.056 199.13 348.056C200.17 348.056 201.018 348.904 201.018 349.944C201.018 350.984 200.17 351.816 199.13 351.816ZM211.637 355.144C209.093 355.144 207.349 353.064 207.349 349.512C207.349 346.152 208.981 343.88 211.637 343.88C214.181 343.88 215.925 345.944 215.925 349.512C215.925 352.872 214.309 355.144 211.637 355.144ZM211.637 353.112C212.917 353.112 213.701 351.848 213.701 349.512C213.701 347.272 212.949 345.896 211.637 345.896C210.373 345.896 209.573 347.176 209.573 349.512C209.573 351.72 210.357 353.112 211.637 353.112ZM221.521 351.048V349.08H226.369V351.048H221.521ZM235.494 355.144C233.542 355.144 232.086 354.104 231.558 352.712L233.43 351.928C233.734 352.712 234.342 353.176 235.334 353.176C236.23 353.176 236.966 352.616 236.966 351.72C236.966 350.92 236.358 350.232 235.142 350.232H234.374V348.472H235.334C236.31 348.472 236.742 347.88 236.742 347.176C236.742 346.392 236.102 345.848 235.302 345.848C234.486 345.848 234.022 346.216 233.702 346.776L231.958 345.832C232.47 344.696 233.734 343.88 235.35 343.88C237.302 343.88 238.886 344.952 238.886 346.824C238.886 347.88 238.358 348.76 237.462 349.288V349.336C238.518 349.816 239.206 350.728 239.206 352.008C239.206 353.912 237.622 355.144 235.494 355.144ZM246.003 358.168L247.395 354.52L244.259 347.176H246.499L248.403 351.976H248.435L250.211 347.176H252.339L248.131 358.168H246.003ZM253.637 355V347.176H255.733V348.312H255.765C256.357 347.512 257.205 347.064 258.117 347.064H258.277V349.352C258.053 349.336 257.845 349.336 257.717 349.336C256.421 349.336 255.733 350.2 255.733 351.384V355H253.637ZM262.118 355.144C260.87 355.144 259.798 354.728 258.95 353.992L259.958 352.536C260.598 353.128 261.27 353.432 262.134 353.432C262.742 353.432 263.078 353.176 263.078 352.792C263.078 352.456 262.678 352.28 261.67 351.944C260.374 351.512 259.254 350.904 259.254 349.384C259.254 347.976 260.47 347.064 262.086 347.064C263.158 347.064 264.038 347.352 264.934 348.04L263.91 349.592C263.318 349.016 262.614 348.76 262.038 348.76C261.718 348.76 261.302 348.92 261.302 349.336C261.302 349.656 261.686 349.88 262.454 350.168C264.15 350.792 265.142 351.16 265.142 352.712C265.142 354.088 264.166 355.144 262.118 355.144Z" fill="white"/>
</g>
<path d="M349 394H26C22.6863 394 20 396.686 20 400V438C20 441.314 22.6863 444 26 444H349C352.314 444 355 441.314 355 438V400C355 396.686 352.314 394 349 394Z" fill="#6E66FF"/>
<path d="M112.988 425V413.64H115.244L118.732 420.104H118.764L122.252 413.64H124.508V425H122.268V417.976H122.236L119.468 422.856H118.012L115.26 417.96H115.228V425H112.988ZM127.807 416.12C127.039 416.12 126.479 415.544 126.479 414.824C126.479 414.12 127.039 413.544 127.807 413.544C128.559 413.544 129.135 414.12 129.135 414.824C129.135 415.544 128.559 416.12 127.807 416.12ZM126.735 425V417.176H128.831V425H126.735ZM134.31 425.144C132.15 425.144 130.566 423.528 130.566 421.112C130.566 418.744 132.166 417.064 134.262 417.064C135.222 417.064 136.054 417.416 136.63 418.088H136.662V413.224H138.742V425H136.742V424.04H136.726C136.182 424.744 135.366 425.144 134.31 425.144ZM134.694 423.256C135.846 423.256 136.742 422.408 136.742 421.128C136.742 419.864 135.894 418.936 134.694 418.936C133.574 418.936 132.694 419.784 132.694 421.128C132.694 422.376 133.526 423.256 134.694 423.256ZM145.128 425V413.64H147.416V423H152.44V425H145.128ZM161.247 421.016C161.247 421.272 161.215 421.64 161.199 421.768H155.711C155.967 422.712 156.719 423.272 157.775 423.272C158.655 423.272 159.263 422.904 159.679 422.392L161.039 423.656C160.383 424.504 159.375 425.144 157.631 425.144C155.231 425.144 153.535 423.528 153.535 421.08C153.535 418.696 155.183 417.064 157.503 417.064C159.711 417.064 161.247 418.728 161.247 421.016ZM157.487 418.888C156.639 418.888 155.967 419.368 155.727 420.264H159.167C158.959 419.432 158.399 418.888 157.487 418.888ZM164.693 425L161.621 417.176H163.861L165.669 422.424H165.685L167.525 417.176H169.717L166.645 425H164.693ZM177.794 421.016C177.794 421.272 177.762 421.64 177.746 421.768H172.258C172.514 422.712 173.266 423.272 174.322 423.272C175.202 423.272 175.81 422.904 176.226 422.392L177.586 423.656C176.93 424.504 175.922 425.144 174.178 425.144C171.778 425.144 170.082 423.528 170.082 421.08C170.082 418.696 171.73 417.064 174.05 417.064C176.258 417.064 177.794 418.728 177.794 421.016ZM174.034 418.888C173.186 418.888 172.514 419.368 172.274 420.264H175.714C175.506 419.432 174.946 418.888 174.034 418.888ZM179.517 425V413.224H181.613V425H179.517ZM189.601 427.512C188.369 425.576 187.665 423.096 187.665 420.28C187.665 417.496 188.369 414.936 189.633 413.032L191.169 413.736C190.145 415.592 189.569 417.896 189.569 420.28C189.569 422.696 190.161 424.92 191.153 426.824L189.601 427.512ZM200.152 425.144C198.2 425.144 196.744 424.104 196.216 422.712L198.088 421.928C198.392 422.712 199 423.176 199.992 423.176C200.888 423.176 201.624 422.616 201.624 421.72C201.624 420.92 201.016 420.232 199.8 420.232H199.032V418.472H199.992C200.968 418.472 201.4 417.88 201.4 417.176C201.4 416.392 200.76 415.848 199.96 415.848C199.144 415.848 198.68 416.216 198.36 416.776L196.616 415.832C197.128 414.696 198.392 413.88 200.008 413.88C201.96 413.88 203.544 414.952 203.544 416.824C203.544 417.88 203.016 418.76 202.12 419.288V419.336C203.176 419.816 203.864 420.728 203.864 422.008C203.864 423.912 202.28 425.144 200.152 425.144ZM209.429 421.048V419.08H214.277V421.048H209.429ZM224.41 417.96C226.266 417.96 227.786 419.24 227.786 421.496C227.786 423.656 226.074 425.144 223.818 425.144C221.562 425.144 219.866 423.368 219.866 420.68C219.866 417.16 222.218 414.296 225.674 413.656L226.314 415.416C224.346 415.976 223.018 416.888 222.378 418.424L222.41 418.456C223.002 418.136 223.706 417.96 224.41 417.96ZM223.914 423.176C224.97 423.176 225.658 422.392 225.658 421.448C225.658 420.488 224.954 419.784 223.85 419.784C223.082 419.784 222.394 420.216 221.946 420.776V420.904C221.946 422.28 222.842 423.176 223.914 423.176ZM234.552 428.168L235.944 424.52L232.808 417.176H235.048L236.952 421.976H236.984L238.76 417.176H240.888L236.68 428.168H234.552ZM242.186 425V417.176H244.282V418.312H244.314C244.906 417.512 245.754 417.064 246.666 417.064H246.826V419.352C246.602 419.336 246.394 419.336 246.266 419.336C244.97 419.336 244.282 420.2 244.282 421.384V425H242.186ZM250.667 425.144C249.419 425.144 248.347 424.728 247.499 423.992L248.507 422.536C249.147 423.128 249.819 423.432 250.683 423.432C251.291 423.432 251.627 423.176 251.627 422.792C251.627 422.456 251.227 422.28 250.219 421.944C248.923 421.512 247.803 420.904 247.803 419.384C247.803 417.976 249.019 417.064 250.635 417.064C251.707 417.064 252.587 417.352 253.483 418.04L252.459 419.592C251.867 419.016 251.163 418.76 250.587 418.76C250.267 418.76 249.851 418.92 249.851 419.336C249.851 419.656 250.235 419.88 251.003 420.168C252.699 420.792 253.691 421.16 253.691 422.712C253.691 424.088 252.715 425.144 250.667 425.144ZM260.526 427.512L258.974 426.824C259.966 424.92 260.558 422.696 260.558 420.28C260.558 417.896 259.982 415.592 258.958 413.736L260.494 413.032C261.758 414.936 262.462 417.496 262.462 420.28C262.462 423.096 261.758 425.576 260.526 427.512Z" fill="white"/>
<path d="M349 464H26C22.6863 464 20 466.686 20 470V508C20 511.314 22.6863 514 26 514H349C352.314 514 355 511.314 355 508V470C355 466.686 352.314 464 349 464Z" fill="#5F57FF"/>
<g opacity="0.7">
<path d="M113.692 495.144C112.236 495.144 110.748 494.568 109.548 493.336L110.908 491.672C111.756 492.632 112.844 493.096 113.74 493.096C114.828 493.096 115.356 492.6 115.356 491.896C115.356 491.064 114.764 490.76 113.388 490.28C111.66 489.688 109.948 488.904 109.948 486.744C109.948 484.92 111.564 483.512 113.596 483.496C115.004 483.496 116.3 484.008 117.436 484.936L116.124 486.632C115.18 485.864 114.348 485.512 113.644 485.512C112.86 485.512 112.284 485.928 112.268 486.648C112.268 487.352 112.876 487.64 114.188 488.152C116.156 488.92 117.724 489.432 117.724 491.624C117.724 494.12 115.532 495.144 113.692 495.144ZM126.669 491.016C126.669 491.272 126.637 491.64 126.621 491.768H121.133C121.389 492.712 122.141 493.272 123.197 493.272C124.077 493.272 124.685 492.904 125.101 492.392L126.461 493.656C125.805 494.504 124.797 495.144 123.053 495.144C120.653 495.144 118.957 493.528 118.957 491.08C118.957 488.696 120.605 487.064 122.925 487.064C125.133 487.064 126.669 488.728 126.669 491.016ZM122.909 488.888C122.061 488.888 121.389 489.368 121.149 490.264H124.589C124.381 489.432 123.821 488.888 122.909 488.888ZM128.295 495V487.176H130.391V488.184H130.423C131.047 487.448 131.943 487.064 132.919 487.064C134.583 487.064 135.751 487.96 135.751 490.36V495H133.655V490.888C133.655 489.4 133.127 488.936 132.151 488.936C131.095 488.936 130.391 489.672 130.391 491.08V495H128.295ZM138.869 486.12C138.101 486.12 137.541 485.544 137.541 484.824C137.541 484.12 138.101 483.544 138.869 483.544C139.621 483.544 140.197 484.12 140.197 484.824C140.197 485.544 139.621 486.12 138.869 486.12ZM137.797 495V487.176H139.893V495H137.797ZM145.804 495.144C143.308 495.144 141.644 493.432 141.644 491.096C141.644 488.76 143.308 487.064 145.804 487.064C148.236 487.064 149.948 488.696 149.948 491.096C149.948 493.48 148.236 495.144 145.804 495.144ZM145.804 493.256C146.924 493.256 147.82 492.376 147.82 491.096C147.82 489.816 146.956 488.936 145.804 488.936C144.588 488.936 143.772 489.864 143.772 491.096C143.772 492.312 144.604 493.256 145.804 493.256ZM151.592 495V487.176H153.688V488.312H153.72C154.312 487.512 155.16 487.064 156.072 487.064H156.232V489.352C156.008 489.336 155.8 489.336 155.672 489.336C154.376 489.336 153.688 490.2 153.688 491.384V495H151.592ZM161.846 495V483.64H164.134V493H169.158V495H161.846ZM177.965 491.016C177.965 491.272 177.933 491.64 177.917 491.768H172.429C172.685 492.712 173.437 493.272 174.493 493.272C175.373 493.272 175.981 492.904 176.397 492.392L177.757 493.656C177.101 494.504 176.093 495.144 174.349 495.144C171.949 495.144 170.253 493.528 170.253 491.08C170.253 488.696 171.901 487.064 174.221 487.064C176.429 487.064 177.965 488.728 177.965 491.016ZM174.205 488.888C173.357 488.888 172.685 489.368 172.445 490.264H175.885C175.677 489.432 175.117 488.888 174.205 488.888ZM181.411 495L178.339 487.176H180.579L182.387 492.424H182.403L184.243 487.176H186.435L183.363 495H181.411ZM194.512 491.016C194.512 491.272 194.48 491.64 194.464 491.768H188.976C189.232 492.712 189.984 493.272 191.04 493.272C191.92 493.272 192.528 492.904 192.944 492.392L194.304 493.656C193.648 494.504 192.64 495.144 190.896 495.144C188.496 495.144 186.8 493.528 186.8 491.08C186.8 488.696 188.448 487.064 190.768 487.064C192.976 487.064 194.512 488.728 194.512 491.016ZM190.752 488.888C189.904 488.888 189.232 489.368 188.992 490.264H192.432C192.224 489.432 191.664 488.888 190.752 488.888ZM196.235 495V483.224H198.331V495H196.235ZM206.319 497.512C205.087 495.576 204.383 493.096 204.383 490.28C204.383 487.496 205.087 484.936 206.351 483.032L207.887 483.736C206.863 485.592 206.287 487.896 206.287 490.28C206.287 492.696 206.879 494.92 207.871 496.824L206.319 497.512ZM217.878 487.96C219.734 487.96 221.254 489.24 221.254 491.496C221.254 493.656 219.542 495.144 217.286 495.144C215.03 495.144 213.334 493.368 213.334 490.68C213.334 487.16 215.686 484.296 219.142 483.656L219.782 485.416C217.814 485.976 216.486 486.888 215.846 488.424L215.878 488.456C216.47 488.136 217.174 487.96 217.878 487.96ZM217.382 493.176C218.438 493.176 219.126 492.392 219.126 491.448C219.126 490.488 218.422 489.784 217.318 489.784C216.55 489.784 215.862 490.216 215.414 490.776V490.904C215.414 492.28 216.31 493.176 217.382 493.176ZM225.607 494.344V491.48H222.727V489.656H225.607V486.776H227.447V489.656H230.327V491.48H227.447V494.344H225.607ZM237.239 498.168L238.631 494.52L235.495 487.176H237.735L239.639 491.976H239.671L241.447 487.176H243.575L239.367 498.168H237.239ZM244.873 495V487.176H246.969V488.312H247.001C247.593 487.512 248.441 487.064 249.353 487.064H249.513V489.352C249.289 489.336 249.081 489.336 248.953 489.336C247.657 489.336 246.969 490.2 246.969 491.384V495H244.873ZM253.354 495.144C252.106 495.144 251.034 494.728 250.186 493.992L251.194 492.536C251.834 493.128 252.506 493.432 253.37 493.432C253.978 493.432 254.314 493.176 254.314 492.792C254.314 492.456 253.914 492.28 252.906 491.944C251.61 491.512 250.49 490.904 250.49 489.384C250.49 487.976 251.706 487.064 253.322 487.064C254.394 487.064 255.274 487.352 256.17 488.04L255.146 489.592C254.554 489.016 253.85 488.76 253.274 488.76C252.954 488.76 252.538 488.92 252.538 489.336C252.538 489.656 252.922 489.88 253.69 490.168C255.386 490.792 256.378 491.16 256.378 492.712C256.378 494.088 255.402 495.144 253.354 495.144ZM263.212 497.512L261.66 496.824C262.652 494.92 263.244 492.696 263.244 490.28C263.244 487.896 262.668 485.592 261.644 483.736L263.18 483.032C264.444 484.936 265.148 487.496 265.148 490.28C265.148 493.096 264.444 495.576 263.212 497.512Z" fill="white"/>
</g>
<path d="M349 534H26C22.6863 534 20 536.686 20 540V578C20 581.314 22.6863 584 26 584H349C352.314 584 355 581.314 355 578V540C355 536.686 352.314 534 349 534Z" fill="#5F57FF"/>
<g opacity="0.7">
<path d="M131.684 565V553.64H138.948V555.64H133.908V558.376H137.94V560.344H133.908V563H139.284V565H131.684ZM140.335 565L143.039 561L140.351 557.176H142.751L144.191 559.416H144.223L145.679 557.176H148.063L145.391 561.016L148.111 565H145.807L144.239 562.76H144.207L142.607 565H140.335ZM156.1 561.016C156.1 561.272 156.068 561.64 156.052 561.768H150.564C150.82 562.712 151.572 563.272 152.628 563.272C153.508 563.272 154.116 562.904 154.532 562.392L155.892 563.656C155.236 564.504 154.228 565.144 152.484 565.144C150.084 565.144 148.388 563.528 148.388 561.08C148.388 558.696 150.036 557.064 152.356 557.064C154.564 557.064 156.1 558.728 156.1 561.016ZM152.34 558.888C151.492 558.888 150.82 559.368 150.58 560.264H154.02C153.812 559.432 153.252 558.888 152.34 558.888ZM161.326 565.144C158.99 565.144 157.294 563.512 157.294 561.112C157.294 558.696 158.974 557.064 161.39 557.064C162.606 557.064 163.886 557.512 164.702 558.472L163.326 559.768C162.91 559.256 162.27 558.936 161.534 558.936C160.27 558.936 159.422 559.816 159.422 561.096C159.422 562.392 160.286 563.256 161.534 563.256C162.334 563.256 162.958 562.92 163.374 562.408L164.734 563.72C164.062 564.552 162.99 565.144 161.326 565.144ZM168.916 565.144C167.22 565.144 166.036 564.28 166.036 561.896V557.176H168.116V561.352C168.116 562.776 168.548 563.256 169.524 563.256C170.436 563.256 171.252 562.488 171.252 560.984V557.176H173.364V565H171.252V564.072L171.22 564.056C170.628 564.776 169.796 565.144 168.916 565.144ZM177.799 565.144C176.455 565.144 175.575 564.296 175.575 562.536V558.92H174.647V557.176H175.575V554.632L177.671 554.408V557.176H179.783V558.92H177.671V562.232C177.671 562.92 177.847 563.24 178.343 563.24C178.599 563.24 178.983 563.144 179.335 562.968L179.863 564.648C179.367 564.92 178.855 565.144 177.799 565.144ZM182.41 556.12C181.642 556.12 181.082 555.544 181.082 554.824C181.082 554.12 181.642 553.544 182.41 553.544C183.162 553.544 183.738 554.12 183.738 554.824C183.738 555.544 183.162 556.12 182.41 556.12ZM181.338 565V557.176H183.434V565H181.338ZM187.889 565L184.817 557.176H187.057L188.865 562.424H188.881L190.721 557.176H192.913L189.841 565H187.889ZM200.991 561.016C200.991 561.272 200.959 561.64 200.943 561.768H195.455C195.711 562.712 196.463 563.272 197.519 563.272C198.399 563.272 199.007 562.904 199.423 562.392L200.783 563.656C200.127 564.504 199.119 565.144 197.375 565.144C194.975 565.144 193.279 563.528 193.279 561.08C193.279 558.696 194.927 557.064 197.247 557.064C199.455 557.064 200.991 558.728 200.991 561.016ZM197.231 558.888C196.383 558.888 195.711 559.368 195.471 560.264H198.911C198.703 559.432 198.143 558.888 197.231 558.888ZM206.918 565V553.64H209.206V563H214.23V565H206.918ZM223.038 561.016C223.038 561.272 223.006 561.64 222.99 561.768H217.502C217.758 562.712 218.51 563.272 219.566 563.272C220.446 563.272 221.054 562.904 221.47 562.392L222.83 563.656C222.174 564.504 221.166 565.144 219.422 565.144C217.022 565.144 215.326 563.528 215.326 561.08C215.326 558.696 216.974 557.064 219.294 557.064C221.502 557.064 223.038 558.728 223.038 561.016ZM219.278 558.888C218.43 558.888 217.758 559.368 217.518 560.264H220.958C220.75 559.432 220.19 558.888 219.278 558.888ZM226.483 565L223.411 557.176H225.651L227.459 562.424H227.475L229.315 557.176H231.507L228.435 565H226.483ZM239.585 561.016C239.585 561.272 239.553 561.64 239.537 561.768H234.049C234.305 562.712 235.057 563.272 236.113 563.272C236.993 563.272 237.601 562.904 238.017 562.392L239.377 563.656C238.721 564.504 237.713 565.144 235.969 565.144C233.569 565.144 231.873 563.528 231.873 561.08C231.873 558.696 233.521 557.064 235.841 557.064C238.049 557.064 239.585 558.728 239.585 561.016ZM235.825 558.888C234.977 558.888 234.305 559.368 234.065 560.264H237.505C237.297 559.432 236.737 558.888 235.825 558.888ZM241.307 565V553.224H243.403V565H241.307Z" fill="white"/>
</g>
</g>
<defs>
<clipPath id="clip0_6_201">
<rect width="375" height="812" fill="white"/>
</clipPath>
</defs>
</svg>
