<svg width="375" height="813" viewBox="0 0 375 813" fill="none" xmlns="http://www.w3.org/2000/svg">
<g clip-path="url(#clip0_6_815)">
<path d="M375 0.5H0V812.5H375V0.5Z" fill="#4A43BF"/>
<path opacity="0.35" d="M354.833 18.3335H339.167C337.694 18.3335 336.5 19.5274 336.5 21.0002V26.0002C336.5 27.4729 337.694 28.6668 339.167 28.6668H354.833C356.306 28.6668 357.5 27.4729 357.5 26.0002V21.0002C357.5 19.5274 356.306 18.3335 354.833 18.3335Z" stroke="white"/>
<path opacity="0.4" d="M359 21.5V25.5C359.805 25.1612 360.328 24.3731 360.328 23.5C360.328 22.6269 359.805 21.8388 359 21.5Z" fill="white"/>
<path d="M354.667 19.8335H339.333C338.597 19.8335 338 20.4304 338 21.1668V25.8335C338 26.5699 338.597 27.1668 339.333 27.1668H354.667C355.403 27.1668 356 26.5699 356 25.8335V21.1668C356 20.4304 355.403 19.8335 354.667 19.8335Z" fill="white"/>
<path d="M323.33 20.1079C325.546 20.108 327.678 20.9594 329.283 22.4862C329.404 22.6041 329.598 22.6026 329.717 22.4829L330.873 21.3162C330.933 21.2555 330.967 21.1733 330.966 21.0877C330.966 21.0021 330.931 20.9202 330.87 20.8602C326.655 16.8207 320.005 16.8207 315.79 20.8602C315.729 20.9202 315.694 21.002 315.694 21.0876C315.693 21.1732 315.727 21.2555 315.787 21.3162L316.943 22.4829C317.062 22.6028 317.256 22.6043 317.377 22.4862C318.983 20.9593 321.114 20.1079 323.33 20.1079ZM323.33 23.9036C324.548 23.9035 325.722 24.356 326.624 25.1732C326.747 25.2892 326.939 25.2867 327.058 25.1676L328.212 24.0009C328.273 23.9397 328.307 23.8567 328.306 23.7704C328.305 23.6842 328.27 23.6018 328.208 23.5419C325.46 20.9855 321.204 20.9855 318.455 23.5419C318.393 23.6018 318.358 23.6842 318.357 23.7705C318.356 23.8568 318.39 23.9398 318.451 24.0009L319.605 25.1676C319.724 25.2867 319.917 25.2892 320.039 25.1732C320.941 24.3566 322.114 23.9041 323.33 23.9036ZM325.549 26.6879C325.611 26.6273 325.645 26.5439 325.643 26.4574C325.642 26.3709 325.604 26.2889 325.54 26.2309C324.265 25.152 322.396 25.152 321.121 26.2309C321.057 26.2889 321.019 26.3708 321.017 26.4573C321.015 26.5438 321.049 26.6272 321.111 26.6879L323.109 28.7036C323.167 28.7628 323.247 28.7961 323.33 28.7961C323.414 28.7961 323.494 28.7628 323.552 28.7036L325.549 26.6879Z" fill="white"/>
<path d="M294.667 24.8332H295.667C296.219 24.8332 296.667 25.2809 296.667 25.8332V27.8332C296.667 28.3855 296.219 28.8332 295.667 28.8332H294.667C294.114 28.8332 293.667 28.3855 293.667 27.8332V25.8332C293.667 25.2809 294.114 24.8332 294.667 24.8332ZM299.333 22.8332H300.333C300.886 22.8332 301.333 23.2809 301.333 23.8332V27.8332C301.333 28.3855 300.886 28.8332 300.333 28.8332H299.333C298.781 28.8332 298.333 28.3855 298.333 27.8332V23.8332C298.333 23.2809 298.781 22.8332 299.333 22.8332ZM304 20.4998H305C305.552 20.4998 306 20.9476 306 21.4998V27.8332C306 28.3855 305.552 28.8332 305 28.8332H304C303.448 28.8332 303 28.3855 303 27.8332V21.4998C303 20.9476 303.448 20.4998 304 20.4998ZM308.667 18.1665H309.667C310.219 18.1665 310.667 18.6142 310.667 19.1665V27.8332C310.667 28.3855 310.219 28.8332 309.667 28.8332H308.667C308.114 28.8332 307.667 28.3855 307.667 27.8332V19.1665C307.667 18.6142 308.114 18.1665 308.667 18.1665Z" fill="white"/>
<path d="M37.7798 28.2393C35.9751 28.2393 34.5942 27.1797 34.3071 25.5664H36.064C36.2759 26.3047 36.9526 26.7627 37.8003 26.7627C39.2427 26.7627 40.0698 25.4434 40.0903 23.1602H39.9741C39.5093 24.0967 38.5728 24.6299 37.4175 24.6299C35.5376 24.6299 34.1704 23.249 34.1704 21.3555C34.1704 19.332 35.688 17.8896 37.8345 17.8896C40.1929 17.8896 41.7788 19.6943 41.7788 22.9551C41.7788 26.2773 40.2886 28.2393 37.7798 28.2393ZM37.8413 23.2354C38.9829 23.2354 39.7964 22.4355 39.7964 21.335C39.7964 20.2139 38.9624 19.3594 37.8481 19.3594C36.7339 19.3594 35.8999 20.2002 35.8999 21.3008C35.8999 22.4424 36.6929 23.2354 37.8413 23.2354ZM44.8755 26.6396C44.2329 26.6396 43.7817 26.1748 43.7817 25.5596C43.7817 24.9375 44.2329 24.4795 44.8755 24.4795C45.5249 24.4795 45.9692 24.9375 45.9692 25.5596C45.9692 26.1748 45.5249 26.6396 44.8755 26.6396ZM44.8755 21.6494C44.2329 21.6494 43.7817 21.1914 43.7817 20.5762C43.7817 19.9541 44.2329 19.4961 44.8755 19.4961C45.5249 19.4961 45.9692 19.9541 45.9692 20.5762C45.9692 21.1914 45.5249 21.6494 44.8755 21.6494ZM52.7847 28V26.1201H47.9653V24.6504C49.2437 22.4219 50.645 20.1729 51.9849 18.1357H54.4731V24.6299H55.8062V26.1201H54.4731V28H52.7847ZM49.5991 24.5752V24.6709H52.812V19.5713H52.7163C51.7046 21.1025 50.563 22.9141 49.5991 24.5752ZM59.8462 28V19.9131H59.73L57.2759 21.6357V19.9404L59.853 18.1357H61.6099V28H59.8462Z" fill="white"/>
<path d="M68.3582 451H307.642" stroke="#E8E8E8" stroke-width="1.5" stroke-linecap="square"/>
<path d="M295.368 445.5H68V450.5H295.368V445.5Z" fill="#E8E8E8"/>
<path fill-rule="evenodd" clip-rule="evenodd" d="M198.752 348.934C198.191 348.934 197.588 349.073 196.968 349.33L192.001 351.386L186.505 353.66C185.807 353.95 185.257 354.706 185.169 355.412C185.587 355.288 186.001 355.199 186.387 355.201C188.77 355.195 190.527 357.507 190.635 360.939V381.223L203 376.105V354.674C202.893 351.241 201.135 348.93 198.752 348.934Z" fill="white"/>
<path fill-rule="evenodd" clip-rule="evenodd" d="M176.583 320.5C176.023 320.499 175.419 320.639 174.799 320.893L169.832 322.959L164.336 325.239C163.639 325.529 163.089 326.291 163 326.997C163.419 326.875 163.832 326.783 164.218 326.784C166.601 326.779 168.359 329.098 168.466 332.544V390.38L180.831 385.243V326.258C180.724 322.813 178.966 320.495 176.583 320.5Z" fill="white"/>
<path d="M116.48 488.379V477.019H123.904V478.747H118.416V482.139H123.024V483.883H118.416V488.379H116.48ZM126.561 479.419C125.889 479.419 125.361 478.875 125.361 478.219C125.361 477.579 125.889 477.035 126.561 477.035C127.233 477.035 127.777 477.579 127.777 478.219C127.777 478.875 127.233 479.419 126.561 479.419ZM125.665 488.379V480.571H127.457V488.379H125.665ZM129.912 488.379V480.571H131.704V481.643H131.736C132.376 480.875 133.32 480.459 134.344 480.459C136.056 480.459 137.208 481.435 137.208 483.787V488.379H135.416V484.251C135.416 482.603 134.792 482.075 133.72 482.075C132.504 482.075 131.704 482.923 131.704 484.459V488.379H129.912ZM142.709 488.507C140.549 488.507 138.917 486.923 138.917 484.507C138.917 482.155 140.549 480.459 142.693 480.459C143.717 480.459 144.597 480.827 145.189 481.531H145.205V476.603H146.981V488.379H145.269V487.323H145.253C144.677 488.075 143.829 488.507 142.709 488.507ZM142.981 486.875C144.261 486.875 145.269 485.931 145.269 484.523C145.269 483.131 144.341 482.075 142.997 482.075C141.749 482.075 140.741 483.019 140.741 484.523C140.741 485.899 141.669 486.875 142.981 486.875ZM150.326 479.419C149.654 479.419 149.126 478.875 149.126 478.219C149.126 477.579 149.654 477.035 150.326 477.035C150.998 477.035 151.542 477.579 151.542 478.219C151.542 478.875 150.998 479.419 150.326 479.419ZM149.43 488.379V480.571H151.222V488.379H149.43ZM153.678 488.379V480.571H155.47V481.643H155.502C156.142 480.875 157.086 480.459 158.11 480.459C159.822 480.459 160.974 481.435 160.974 483.787V488.379H159.182V484.251C159.182 482.603 158.558 482.075 157.486 482.075C156.27 482.075 155.47 482.923 155.47 484.459V488.379H153.678ZM166.65 491.659C165.482 491.659 164.346 491.371 163.466 490.843L163.898 489.275C164.746 489.723 165.434 490.043 166.554 490.043C168.09 490.043 168.874 489.163 168.874 488.123V487.307H168.842C168.25 487.899 167.434 488.251 166.474 488.251C164.298 488.251 162.666 486.715 162.666 484.395C162.666 482.107 164.218 480.459 166.378 480.459C167.274 480.459 168.154 480.779 168.81 481.403H168.842V480.571H170.634V487.579C170.634 489.947 169.546 491.659 166.65 491.659ZM166.714 486.603C168.01 486.603 168.922 485.643 168.922 484.315C168.922 482.987 167.962 482.091 166.714 482.091C165.386 482.091 164.49 483.019 164.49 484.347C164.49 485.739 165.45 486.603 166.714 486.603ZM178.09 491.547L179.498 487.947L176.298 480.571H178.218L180.362 485.803H180.394L182.394 480.571H184.234L179.946 491.547H178.09ZM188.95 488.507C186.486 488.507 184.854 486.779 184.854 484.491C184.854 482.187 186.486 480.459 188.95 480.459C191.35 480.459 193.046 482.091 193.046 484.491C193.046 486.859 191.35 488.507 188.95 488.507ZM188.95 486.875C190.214 486.875 191.222 485.899 191.222 484.491C191.222 483.051 190.23 482.075 188.95 482.075C187.59 482.075 186.678 483.131 186.678 484.491C186.678 485.819 187.606 486.875 188.95 486.875ZM197.68 488.507C195.952 488.507 194.752 487.643 194.752 485.323V480.571H196.544V484.843C196.544 486.395 197.024 486.875 198.096 486.875C199.136 486.875 200.096 485.995 200.096 484.315V480.571H201.888V488.379H200.096V487.403L200.064 487.387C199.44 488.139 198.576 488.507 197.68 488.507ZM204.162 488.379V480.571H205.954V481.739H205.986C206.594 480.923 207.458 480.459 208.402 480.459H208.626V482.459C208.418 482.443 208.21 482.427 208.082 482.427C206.722 482.427 205.954 483.403 205.954 484.683V488.379H204.162ZM214.397 488.379V480.571H216.189V481.643H216.205C216.845 480.875 217.741 480.459 218.637 480.459C219.693 480.459 220.509 480.875 220.973 481.755H221.005C221.661 480.907 222.653 480.459 223.805 480.459C225.517 480.459 226.541 481.531 226.541 483.867V488.379H224.749V484.315C224.749 482.907 224.285 482.075 223.229 482.075C222.221 482.075 221.405 482.955 221.405 484.491V488.379H219.613V484.315C219.613 482.907 219.117 482.075 218.061 482.075C216.989 482.075 216.189 482.955 216.189 484.491V488.379H214.397ZM232.052 488.507C229.892 488.507 228.276 486.923 228.276 484.507C228.276 482.155 229.892 480.459 232.036 480.459C233.028 480.459 233.892 480.827 234.452 481.531L234.484 481.515V480.571H236.276V488.379H234.564V487.355L234.532 487.339C233.972 488.091 233.14 488.507 232.052 488.507ZM232.34 486.875C233.556 486.875 234.564 485.931 234.564 484.523C234.564 483.131 233.62 482.075 232.34 482.075C231.092 482.075 230.1 483.019 230.1 484.523C230.1 485.899 231.012 486.875 232.34 486.875ZM240.857 488.507C239.513 488.507 238.681 487.659 238.681 485.915V482.091H237.721V480.571H238.681V477.979L240.473 477.787V480.571H242.761V482.091H240.473V485.739C240.473 486.539 240.713 486.827 241.225 486.827C241.529 486.827 241.961 486.715 242.377 486.491L242.841 488.043C242.377 488.299 241.881 488.507 240.857 488.507ZM247.526 488.507C245.222 488.507 243.542 486.875 243.542 484.491C243.542 482.091 245.222 480.459 247.59 480.459C248.806 480.459 250.086 480.955 250.87 481.915L249.654 482.971C249.206 482.443 248.534 482.075 247.686 482.075C246.294 482.075 245.366 483.051 245.366 484.475C245.366 485.915 246.31 486.875 247.686 486.875C248.55 486.875 249.254 486.491 249.654 485.963L250.886 487.051C250.23 487.899 249.222 488.507 247.526 488.507ZM252.522 488.379V476.603H254.314V481.547H254.33C254.986 480.827 255.93 480.459 256.986 480.459C258.698 480.459 259.898 481.371 259.898 483.707V488.379H258.106V484.171C258.106 482.619 257.482 482.075 256.41 482.075C255.114 482.075 254.314 482.875 254.314 484.411V488.379H252.522Z" fill="white"/>
</g>
<defs>
<clipPath id="clip0_6_815">
<rect width="375" height="812" fill="white" transform="translate(0 0.5)"/>
</clipPath>
</defs>
</svg>
