<?xml version="1.0" encoding="utf-8"?>
<!-- Generator: Adobe Illustrator 24.1.1, SVG Export Plug-In . SVG Version: 6.00 Build 0)  -->
<svg version="1.1" xmlns="http://www.w3.org/2000/svg" xmlns:xlink="http://www.w3.org/1999/xlink" x="0px" y="0px"
	 viewBox="0 0 200 200" style="enable-background:new 0 0 200 200;" xml:space="preserve">
<style type="text/css">
	.st0{display:none;}
	.st1{display:inline;fill:#EAA720;}
	.st2{fill:#EAA720;}
	.st3{display:inline;fill:#212121;}
	.st4{display:inline;}
	.st5{fill:#212121;}
</style>
<g id="about" class="st0">
	<path class="st1" d="M100,0C77.9,0,60,17.9,60,40c0,22.1,17.9,40,40,40s40-17.9,40-40C140,17.9,122.1,0,100,0z M100,60
		c-11,0-20-9-20-20c0-11,9-20,20-20s20,9,20,20C120,51,111,60,100,60z"/>
	<circle class="st1" cx="169.9" cy="190" r="10"/>
	<path class="st1" d="M100,100c-44.2,0-80,35.8-80,80h0.1c0,0.4-0.1,0.7-0.1,1.1v7.8c0,0.4,0,0.8,0.1,1.2c0.1,5.5,4.5,9.9,10,9.9
		h120v-10c0-5.5-4.5-10-10-10H40c0-0.1,0-0.1,0-0.2c0-33,26.8-59.8,59.8-59.8c27.2,0,50.1,18.1,57.3,42.9c1.2,4.2,5.2,7.1,9.6,7.1
		h12.7C174.4,130.5,140.8,100,100,100z"/>
</g>
<g id="search">
	<path class="st2" d="M80,0C35.8,0,0,35.8,0,80c0,44.2,35.8,80,80,80s80-35.8,80-80C160,35.8,124.2,0,80,0z M80,140
		c-33.1,0-60-26.9-60-60s26.9-60,60-60s60,26.9,60,60S113.1,140,80,140z"/>
	<path class="st2" d="M173.8,173.8L173.8,173.8c-3.9,3.9-10.3,3.9-14.2,0l-37-37c-3.9-3.9-3.9-10.3,0-14.2l0,0
		c3.9-3.9,10.3-3.9,14.2,0l37,37C177.7,163.4,177.7,169.8,173.8,173.8z"/>
	<circle class="st2" cx="190" cy="190" r="10"/>
</g>
<g id="icons">
	<g id="_x2D__black" class="st0">
		<g id="work">
			<path class="st3" d="M10,200L10,200c-5.5,0-10-4.5-10-10L0,70c0-5.5,4.5-10,10-10h0c5.5,0,10,4.5,10,10v120
				C20,195.5,15.5,200,10,200z"/>
			<path class="st3" d="M200,170h-10c-5.5,0-10-4.5-10-10V70c0-5.5,4.5-10,10-10h0c5.5,0,10,4.5,10,10V170z"/>
			<path class="st3" d="M0,70L0,70c0-5.5,4.5-10,10-10h180c5.5,0,10,4.5,10,10v0c0,5.5-4.5,10-10,10H10C4.5,80,0,75.5,0,70z"/>
			<path class="st3" d="M40,30L40,30c0-5.5,4.5-10,10-10h100c5.5,0,10,4.5,10,10v0c0,5.5-4.5,10-10,10H50C44.5,40,40,35.5,40,30z"/>
			<path class="st3" d="M49.9,20L49.9,20C55.5,20,60,24.5,60,30v40c0,5.5-4.5,10-10,10h-0.1c-5.5,0-10-4.5-10-10V30
				C39.9,24.5,44.4,20,49.9,20z"/>
			<path class="st3" d="M70,60L70,60c5.6,0,10.1,4.5,10.1,10v40c0,5.5-4.5,10-10,10H70c-5.5,0-10-4.5-10-10V70
				C60,64.5,64.5,60,70,60z"/>
			<path class="st3" d="M130,60L130,60c5.6,0,10.1,4.5,10.1,10v40c0,5.5-4.5,10-10,10H130c-5.5,0-10-4.5-10-10V70
				C120,64.5,124.5,60,130,60z"/>
			<path class="st3" d="M140,110L140,110c0,5.5-4.5,10-10,10H70c-5.5,0-10-4.5-10-10v0c0-5.5,4.5-10,10-10H130
				C135.5,100,140,104.5,140,110z"/>
			<path class="st3" d="M150,20L150,20c5.5,0,10,4.5,10,10v40c0,5.5-4.5,10-10,10h0c-5.5,0-10-4.5-10-10V30
				C140,24.5,144.5,20,150,20z"/>
			<path class="st3" d="M0,190L0,190c0-5.5,4.5-10,10-10h150c5.5,0,10,4.5,10,10v10H10C4.5,200,0,195.5,0,190z"/>
			<circle class="st3" cx="190" cy="190" r="10"/>
		</g>
		<g id="home_1_">
			<path class="st3" d="M10,200L10,200c-5.5,0-10-4.5-10-10L0,90c0-5.5,4.5-10,10-10h0c5.5,0,10,4.5,10,10v100
				C20,195.5,15.5,200,10,200z"/>
			<path class="st3" d="M92.1,3.8L92.1,3.8c3.6-4.4,10-5,14.2-1.3l90.1,79c4.2,3.7,4.8,10.4,1.2,14.8l0,0c-3.6,4.4-10,5-14.2,1.3
				l-90.1-79C89.1,14.9,88.6,8.2,92.1,3.8z"/>
			<path class="st3" d="M107.9,3.8L107.9,3.8c-3.6-4.4-10-5-14.2-1.3L3.6,81.6C-0.7,85.3-1.2,92,2.3,96.4l0,0c3.6,4.4,10,5,14.2,1.3
				l90.1-79.1C110.9,14.9,111.5,8.3,107.9,3.8z"/>
			<path class="st3" d="M200,170h-10c-5.5,0-10-4.5-10-10V90c0-5.5,4.5-10,10-10h0c5.5,0,10,4.5,10,10V170z"/>
			<path class="st3" d="M0,190L0,190c0-5.5,4.5-10,10-10h150c5.5,0,10,4.5,10,10v10H10C4.5,200,0,195.5,0,190z"/>
			<circle class="st3" cx="190" cy="190" r="10"/>
		</g>
		<g id="close" class="st4">
			<path class="st5" d="M160,160L160,160c-3.9,3.9-10.3,3.9-14.1,0L22.4,36.5c-3.9-3.9-3.9-10.3,0-14.1l0,0c3.9-3.9,10.3-3.9,14.1,0
				L160,145.9C163.9,149.7,163.9,156.1,160,160z"/>
			<path class="st5" d="M22.5,177.5L22.5,177.5c3.9,3.9,10.3,3.9,14.1,0l141-141c3.9-3.9,3.9-10.3,0-14.1l0,0
				c-3.9-3.9-10.3-3.9-14.1,0l-141,141C18.6,167.2,18.6,173.6,22.5,177.5z"/>
			<circle class="st5" cx="170" cy="170" r="10"/>
		</g>
	</g>
	<g id="Gold">
		<g id="close_1_" class="st0">
			<path class="st1" d="M152.6,152.6L152.6,152.6c-3.9,3.9-10.3,3.9-14.1,0L22.4,36.5c-3.9-3.9-3.9-10.3,0-14.1l0,0
				c3.9-3.9,10.3-3.9,14.1,0l116.1,116.1C156.5,142.4,156.5,148.7,152.6,152.6z"/>
			<path class="st1" d="M22.5,177.5L22.5,177.5c3.9,3.9,10.3,3.9,14.1,0l141-141c3.9-3.9,3.9-10.3,0-14.1l0,0
				c-3.9-3.9-10.3-3.9-14.1,0l-141,141C18.6,167.2,18.6,173.6,22.5,177.5z"/>
			<circle class="st1" cx="170" cy="170" r="10"/>
		</g>
		<g id="home" class="st0">
			<path class="st1" d="M10,200L10,200c-5.5,0-10-4.5-10-10L0,90c0-5.5,4.5-10,10-10h0c5.5,0,10,4.5,10,10v100
				C20,195.5,15.5,200,10,200z"/>
			<path class="st1" d="M92.1,3.8L92.1,3.8c3.6-4.4,10-5,14.2-1.3l90.1,79c4.2,3.7,4.8,10.4,1.2,14.8l0,0c-3.6,4.4-10,5-14.2,1.3
				l-90.1-79C89.1,14.9,88.6,8.2,92.1,3.8z"/>
			<path class="st1" d="M107.9,3.8L107.9,3.8c-3.6-4.4-10-5-14.2-1.3L3.6,81.6C-0.7,85.3-1.2,92,2.3,96.4l0,0c3.6,4.4,10,5,14.2,1.3
				l90.1-79.1C110.9,14.9,111.5,8.3,107.9,3.8z"/>
			<path class="st1" d="M200,170h-10c-5.5,0-10-4.5-10-10V90c0-5.5,4.5-10,10-10h0c5.5,0,10,4.5,10,10V170z"/>
			<path class="st1" d="M0,190L0,190c0-5.5,4.5-10,10-10h150c5.5,0,10,4.5,10,10v10H10C4.5,200,0,195.5,0,190z"/>
			<circle class="st1" cx="190" cy="190" r="10"/>
			<path class="st1" d="M10,200L10,200c-5.5,0-10-4.5-10-10L0,90c0-5.5,4.5-10,10-10h0c5.5,0,10,4.5,10,10v100
				C20,195.5,15.5,200,10,200z"/>
			<path class="st1" d="M92.1,3.8L92.1,3.8c3.6-4.4,10-5,14.2-1.3l90.1,79c4.2,3.7,4.8,10.4,1.2,14.8l0,0c-3.6,4.4-10,5-14.2,1.3
				l-90.1-79C89.1,14.9,88.6,8.2,92.1,3.8z"/>
			<path class="st1" d="M107.9,3.8L107.9,3.8c-3.6-4.4-10-5-14.2-1.3L3.6,81.6C-0.7,85.3-1.2,92,2.3,96.4l0,0c3.6,4.4,10,5,14.2,1.3
				l90.1-79.1C110.9,14.9,111.5,8.3,107.9,3.8z"/>
			<path class="st1" d="M200,170h-10c-5.5,0-10-4.5-10-10V90c0-5.5,4.5-10,10-10h0c5.5,0,10,4.5,10,10V170z"/>
			<path class="st1" d="M0,190L0,190c0-5.5,4.5-10,10-10h150c5.5,0,10,4.5,10,10v10H10C4.5,200,0,195.5,0,190z"/>
			<circle class="st1" cx="190" cy="190" r="10"/>
		</g>
		<g id="work_1_" class="st0">
			<path class="st1" d="M10,200L10,200c-5.5,0-10-4.5-10-10L0,70c0-5.5,4.5-10,10-10h0c5.5,0,10,4.5,10,10v120
				C20,195.5,15.5,200,10,200z"/>
			<path class="st1" d="M200,170h-10c-5.5,0-10-4.5-10-10V70c0-5.5,4.5-10,10-10h0c5.5,0,10,4.5,10,10V170z"/>
			<path class="st1" d="M0,70L0,70c0-5.5,4.5-10,10-10h180c5.5,0,10,4.5,10,10v0c0,5.5-4.5,10-10,10H10C4.5,80,0,75.5,0,70z"/>
			<path class="st1" d="M40,30L40,30c0-5.5,4.5-10,10-10h100c5.5,0,10,4.5,10,10v0c0,5.5-4.5,10-10,10H50C44.5,40,40,35.5,40,30z"/>
			<path class="st1" d="M49.9,20L49.9,20C55.5,20,60,24.5,60,30v40c0,5.5-4.5,10-10,10h-0.1c-5.5,0-10-4.5-10-10V30
				C39.9,24.5,44.4,20,49.9,20z"/>
			<path class="st1" d="M70,60L70,60c5.6,0,10.1,4.5,10.1,10v40c0,5.5-4.5,10-10,10H70c-5.5,0-10-4.5-10-10V70
				C60,64.5,64.5,60,70,60z"/>
			<path class="st1" d="M130,60L130,60c5.6,0,10.1,4.5,10.1,10v40c0,5.5-4.5,10-10,10H130c-5.5,0-10-4.5-10-10V70
				C120,64.5,124.5,60,130,60z"/>
			<path class="st1" d="M140,110L140,110c0,5.5-4.5,10-10,10H70c-5.5,0-10-4.5-10-10v0c0-5.5,4.5-10,10-10H130
				C135.5,100,140,104.5,140,110z"/>
			<path class="st1" d="M150,20L150,20c5.5,0,10,4.5,10,10v40c0,5.5-4.5,10-10,10h0c-5.5,0-10-4.5-10-10V30
				C140,24.5,144.5,20,150,20z"/>
			<path class="st1" d="M0,190L0,190c0-5.5,4.5-10,10-10h150c5.5,0,10,4.5,10,10v10H10C4.5,200,0,195.5,0,190z"/>
			<circle class="st1" cx="190" cy="190" r="10"/>
		</g>
	</g>
</g>
<g id="Guide">
</g>
</svg>
