<?xml version="1.0" encoding="utf-8"?>
<!-- Generator: Adobe Illustrator 25.4.1, SVG Export Plug-In . SVG Version: 6.00 Build 0)  -->
<svg version="1.1" id="Layer_1" xmlns="http://www.w3.org/2000/svg" xmlns:xlink="http://www.w3.org/1999/xlink" x="0px" y="0px"
	 viewBox="0 0 307.5 164.4" style="enable-background:new 0 0 307.5 164.4;" xml:space="preserve">
<style type="text/css">
	.st0{fill:#E2D4B5;stroke:#1A1A1A;stroke-width:4;stroke-miterlimit:10;}
	.st1{fill:#1A1A1A;}
	.st2{clip-path:url(#SVGID_00000129922498133606979050000000258772689632955290_);}
	.st3{fill:#F4E9CE;stroke:#1A1A1A;stroke-width:4;stroke-miterlimit:10;}
	.st4{fill:#F4E9CE;stroke:#FF0000;stroke-miterlimit:10;}
	.st5{opacity:0.2;fill:#1A1A1A;enable-background:new    ;}
	.st6{clip-path:url(#SVGID_00000086684701316104797350000000681128618873330351_);}
</style>
<g>
	<path class="st0" d="M236.6,118.4c-0.4-0.1-0.9-0.2-1.3-0.2c-1.5,13.6-5.6,26.9-12.1,39c0.9,0.6,1.9,1.1,3,1.4
		c4.8,1.2,9.7-1.6,11-6.4l5.9-22.7C244.3,124.6,241.4,119.7,236.6,118.4L236.6,118.4z"/>
	<circle class="st1" cx="231" cy="153.1" r="2.3"/>
	<g>
		<g>
			<g>
				<g>
					<defs>
						<rect id="SVGID_1_" x="61.7" y="-1.3" width="184" height="165.8"/>
					</defs>
					<clipPath id="SVGID_00000016072586227333299790000001673626029927284104_">
						<use xlink:href="#SVGID_1_"  style="overflow:visible;"/>
					</clipPath>
					<g style="clip-path:url(#SVGID_00000016072586227333299790000001673626029927284104_);">
						<ellipse class="st3" cx="156" cy="105.8" rx="80" ry="94.7"/>
						<path class="st4" d="M70.7,126.7l5.8,23.8c0,0,0.8,6.8,10.2,2.7"/>
						<g>
							<path class="st1" d="M69.3,94.4c0-0.3,0-0.7,0-1c0.5-49.2,39.1-89,86.7-89c45.8,0,83.3,36.9,86.4,83.6
								c0.1,0.8,0.1,1.6,0.1,2.4v0.1c-1.6,26.5,3.1,59,3.1,59c-4.8-26-19.3-26-19.3-26c10.8,10.3,9.6,18.8,9.6,18.8
								C225.6,119.7,69.3,94.4,69.3,94.4z"/>
							<path class="st5" d="M69.3,96.2c0-0.3,0-0.7,0-1c0.5-49.2,39.1-89,86.7-89c45.8,0,83.3,36.9,86.4,83.6
								c0.1,0.8,0.1,1.6,0.1,2.4v0.1c-1.6,26.5,3.1,59,3.1,59c-4.8-26-19.3-26-19.3-26c10.8,10.3,9.6,18.8,9.6,18.8
								C225.6,121.5,69.3,96.2,69.3,96.2L69.3,96.2z"/>
							<path class="st1" d="M84.7,97c0,0,54.1,13.2,62,20c0,0-23.8-15.3-35-17.6"/>
							<path class="st5" d="M86.4,98.4c0,0,51.1,13.1,59,19.9c0,0-23.8-15.3-35-17.6"/>
							<path class="st1" d="M147.9,106.2c0,0,41.2,12.2,52.8,21.6c0,0-9.4-13.3-31.2-23.7"/>
							<path class="st5" d="M147.7,108.5c0,0,41.2,12.2,52.8,21.6c0,0-9.4-13.3-31.2-23.7"/>
							<path class="st1" d="M77.3,95.2c0,0,18.1,6,23.9,11.7c0,0-7.7-8.9-15.7-14.3"/>
							<path class="st5" d="M76.6,95.1c0,0,18.8,8.1,24.6,13.8c0,0-7.7-8.9-15.7-14.3"/>
							<path class="st1" d="M177.9,11.6L189.5,0v15.9L177.9,11.6z"/>
							<path class="st1" d="M181.9,9.1c0,0-4.5-6.6-3-9.1c0,0-5.9,7.4-3,10.4"/>
							<path class="st1" d="M69.3,93.8l0.5,33.7c0,0,3-3.4,6.8-1.9c0,0-2.2-24.4,1-31.6L69.3,93.8z"/>
							<path class="st1" d="M102.8,114.3l29.2,30.6l-8.6,8.2l-29.2-30.6L102.8,114.3z"/>
							<path class="st1" d="M124.4,114.8l8.2,8.6L102,152.6l-8.2-8.6L124.4,114.8z"/>
							<path class="st1" d="M188.9,114.3l29.2,30.6l-8.6,8.2l-29.2-30.6L188.9,114.3z"/>
							<path class="st1" d="M210.5,114.8l8.2,8.6l-30.6,29.2l-8.2-8.6L210.5,114.8z"/>
						</g>
						<path class="st0" d="M76.7,118.2c-1.2-0.2-2.4-0.1-3.5,0.2c-4.8,1.3-7.7,6.2-6.4,11l5.9,22.7c1.3,4.8,6.2,7.7,11,6.4
							c1.7-0.4,3.3-1.4,4.4-2.7C82,144.1,78.1,131.4,76.7,118.2z"/>
						<circle class="st1" cx="81.1" cy="153.1" r="2.3"/>
					</g>
				</g>
			</g>
		</g>
	</g>
	<g>
		<g>
			<g>
				<g>
					<defs>
						<rect id="SVGID_00000137095329776026859160000016772605849609268401_" x="0" y="102.4" width="321" height="62"/>
					</defs>
					<clipPath id="SVGID_00000079463499720892451210000015812629959123180479_">
						<use xlink:href="#SVGID_00000137095329776026859160000016772605849609268401_"  style="overflow:visible;"/>
					</clipPath>
					<g style="clip-path:url(#SVGID_00000079463499720892451210000015812629959123180479_);">
						<path class="st3" d="M34.4,146.4c3.6,0,6.5,2.9,6.5,6.5l0,0v23.2c0,3.6-2.9,6.5-6.5,6.5l0,0c-3.6,0-6.5-2.9-6.5-6.5l0,0v-23.2
							C28,149.3,30.9,146.4,34.4,146.4L34.4,146.4z"/>
						<path class="st3" d="M28,152.9v14.4c0,3.6-2.9,6.5-6.5,6.5l0,0c-3.6,0-6.5-2.9-6.5-6.5v-14.4c0-3.6,2.9-6.5,6.5-6.5l0,0
							C25.1,146.4,28,149.3,28,152.9z"/>
						<path class="st3" d="M8.5,146.4c3.6,0,6.5,2.9,6.5,6.5l0,0v4.2c0,3.6-2.9,6.5-6.5,6.5l0,0c-3.6,0-6.5-2.9-6.5-6.5l0,0v-4.2
							C2.1,149.3,5,146.4,8.5,146.4L8.5,146.4z"/>
						<path class="st3" d="M47.4,146.4c3.6,0,6.5,2.9,6.5,6.5l0,0v18.3c0,3.6-2.9,6.5-6.5,6.5l0,0c-3.6,0-6.5-2.9-6.5-6.5l0,0v-18.3
							C40.9,149.3,43.8,146.4,47.4,146.4L47.4,146.4z"/>
						<path class="st3" d="M272.9,182.5c-3.6,0-6.5-2.9-6.5-6.5l0,0v-23.2c0-3.6,2.9-6.5,6.5-6.5l0,0c3.6,0,6.5,2.9,6.5,6.5l0,0V176
							C279.4,179.6,276.5,182.5,272.9,182.5L272.9,182.5z"/>
						<path class="st3" d="M285.8,173.7c-3.6,0-6.5-2.9-6.5-6.5v-14.4c0-3.6,2.9-6.5,6.5-6.5s6.5,2.9,6.5,6.5l0,0v14.4
							C292.3,170.8,289.4,173.7,285.8,173.7L285.8,173.7z"/>
						<path class="st3" d="M298.8,163.5c-3.6,0-6.5-2.9-6.5-6.5l0,0v-4.2c0-3.6,2.9-6.5,6.5-6.5l0,0c3.6,0,6.5,2.9,6.5,6.5l0,0v4.2
							C305.3,160.6,302.4,163.5,298.8,163.5L298.8,163.5z"/>
						<path class="st3" d="M259.9,177.7c-3.6,0-6.5-2.9-6.5-6.5v-18.3c0-3.6,2.9-6.5,6.5-6.5s6.5,2.9,6.5,6.5l0,0v18.3
							C266.4,174.8,263.5,177.7,259.9,177.7L259.9,177.7z"/>
					</g>
				</g>
			</g>
		</g>
	</g>
</g>
</svg>
