<svg xmlns="http://www.w3.org/2000/svg" xmlns:xlink="http://www.w3.org/1999/xlink" viewBox="0 0 1000 1000"><defs><style>.cls-1{fill:#171717;}.cls-2{fill:url(#New_Gradient_Swatch_8);}.cls-3{fill:url(#New_Gradient_Swatch_8-2);}</style><linearGradient id="New_Gradient_Swatch_8" x1="261.35" y1="410.25" x2="552.48" y2="590.25" gradientUnits="userSpaceOnUse"><stop offset="0" stop-color="#ef3f3c"/><stop offset="1" stop-color="#9a58a3"/></linearGradient><linearGradient id="New_Gradient_Swatch_8-2" x1="314.24" y1="324.71" x2="605.37" y2="504.71" xlink:href="#New_Gradient_Swatch_8"/></defs><title>wp_cover</title><g id="Layer_2" data-name="Layer 2"><rect class="cls-1" width="1000" height="1000"/></g><g id="Logo"><polygon class="cls-2" points="454.55 399.55 454.55 534.68 436.83 457.03 375.82 457.03 358.48 533.7 358.48 399.55 300 399.55 300 600.45 345.32 600.45 358.48 600.45 391.55 600.45 406.47 533.93 421.38 600.45 454.55 600.45 467.71 600.45 513.03 600.45 513.03 399.55 454.55 399.55"/><path class="cls-3" d="M597.85,533.2v67.25H541.94V399.55h83.42q36.33,0,55.48,18.3T700,466.8q0,19-8.51,34.05t-25.4,23.7q-16.89,8.66-40.73,8.65Zm45.68-66.4q0-22.12-24.4-22.13H597.85v44.55h21.28Q643.54,489.22,643.53,466.8Z"/></g></svg>