<?xml version="1.0" encoding="utf-8"?>
<!-- Generator: Adobe Illustrator 24.1.1, SVG Export Plug-In . SVG Version: 6.00 Build 0)  -->
<svg version="1.1" xmlns="http://www.w3.org/2000/svg" xmlns:xlink="http://www.w3.org/1999/xlink" x="0px" y="0px"
	 viewBox="0 0 200 200" style="enable-background:new 0 0 200 200;" xml:space="preserve">
<style type="text/css">
	.st0{display:none;}
	.st1{display:inline;fill:#212121;}
	.st2{fill:#212121;}
	.st3{fill:#EAA720;}
</style>
<g id="close" class="st0">
	<path class="st1" d="M160,160L160,160c-3.9,3.9-10.3,3.9-14.1,0L22.4,36.5c-3.9-3.9-3.9-10.3,0-14.1l0,0c3.9-3.9,10.3-3.9,14.1,0
		L160,145.9C163.9,149.7,163.9,156.1,160,160z"/>
	<path class="st1" d="M22.5,177.5L22.5,177.5c3.9,3.9,10.3,3.9,14.1,0l141-141c3.9-3.9,3.9-10.3,0-14.1l0,0
		c-3.9-3.9-10.3-3.9-14.1,0l-141,141C18.6,167.2,18.6,173.6,22.5,177.5z"/>
	<circle class="st1" cx="170" cy="170" r="10"/>
</g>
<g id="icons">
	<g id="_x2D__black">
		<g id="work" class="st0">
			<path class="st1" d="M10,200L10,200c-5.5,0-10-4.5-10-10L0,70c0-5.5,4.5-10,10-10h0c5.5,0,10,4.5,10,10v120
				C20,195.5,15.5,200,10,200z"/>
			<path class="st1" d="M200,170h-10c-5.5,0-10-4.5-10-10V70c0-5.5,4.5-10,10-10h0c5.5,0,10,4.5,10,10V170z"/>
			<path class="st1" d="M0,70L0,70c0-5.5,4.5-10,10-10h180c5.5,0,10,4.5,10,10v0c0,5.5-4.5,10-10,10H10C4.5,80,0,75.5,0,70z"/>
			<path class="st1" d="M40,30L40,30c0-5.5,4.5-10,10-10h100c5.5,0,10,4.5,10,10v0c0,5.5-4.5,10-10,10H50C44.5,40,40,35.5,40,30z"/>
			<path class="st1" d="M49.9,20L49.9,20C55.5,20,60,24.5,60,30v40c0,5.5-4.5,10-10,10h-0.1c-5.5,0-10-4.5-10-10V30
				C39.9,24.5,44.4,20,49.9,20z"/>
			<path class="st1" d="M70,60L70,60c5.6,0,10.1,4.5,10.1,10v40c0,5.5-4.5,10-10,10H70c-5.5,0-10-4.5-10-10V70
				C60,64.5,64.5,60,70,60z"/>
			<path class="st1" d="M130,60L130,60c5.6,0,10.1,4.5,10.1,10v40c0,5.5-4.5,10-10,10H130c-5.5,0-10-4.5-10-10V70
				C120,64.5,124.5,60,130,60z"/>
			<path class="st1" d="M140,110L140,110c0,5.5-4.5,10-10,10H70c-5.5,0-10-4.5-10-10v0c0-5.5,4.5-10,10-10H130
				C135.5,100,140,104.5,140,110z"/>
			<path class="st1" d="M150,20L150,20c5.5,0,10,4.5,10,10v40c0,5.5-4.5,10-10,10h0c-5.5,0-10-4.5-10-10V30
				C140,24.5,144.5,20,150,20z"/>
			<path class="st1" d="M0,190L0,190c0-5.5,4.5-10,10-10h150c5.5,0,10,4.5,10,10v10H10C4.5,200,0,195.5,0,190z"/>
			<circle class="st1" cx="190" cy="190" r="10"/>
		</g>
		<g id="home_1_">
			<path class="st2" d="M10,200L10,200c-5.5,0-10-4.5-10-10L0,90c0-5.5,4.5-10,10-10h0c5.5,0,10,4.5,10,10v100
				C20,195.5,15.5,200,10,200z"/>
			<path class="st2" d="M92.1,3.8L92.1,3.8c3.6-4.4,10-5,14.2-1.3l90.1,79c4.2,3.7,4.8,10.4,1.2,14.8l0,0c-3.6,4.4-10,5-14.2,1.3
				l-90.1-79C89.1,14.9,88.6,8.2,92.1,3.8z"/>
			<path class="st2" d="M107.9,3.8L107.9,3.8c-3.6-4.4-10-5-14.2-1.3L3.6,81.6C-0.7,85.3-1.2,92,2.3,96.4l0,0c3.6,4.4,10,5,14.2,1.3
				l90.1-79.1C110.9,14.9,111.5,8.3,107.9,3.8z"/>
			<path class="st2" d="M200,170h-10c-5.5,0-10-4.5-10-10V90c0-5.5,4.5-10,10-10h0c5.5,0,10,4.5,10,10V170z"/>
			<path class="st2" d="M0,190L0,190c0-5.5,4.5-10,10-10h150c5.5,0,10,4.5,10,10v10H10C4.5,200,0,195.5,0,190z"/>
			<circle class="st2" cx="190" cy="190" r="10"/>
		</g>
	</g>
	<g id="Gold">
		<g id="home">
			<path class="st3" d="M10,200L10,200c-5.5,0-10-4.5-10-10L0,90c0-5.5,4.5-10,10-10h0c5.5,0,10,4.5,10,10v100
				C20,195.5,15.5,200,10,200z"/>
			<path class="st3" d="M92.1,3.8L92.1,3.8c3.6-4.4,10-5,14.2-1.3l90.1,79c4.2,3.7,4.8,10.4,1.2,14.8l0,0c-3.6,4.4-10,5-14.2,1.3
				l-90.1-79C89.1,14.9,88.6,8.2,92.1,3.8z"/>
			<path class="st3" d="M107.9,3.8L107.9,3.8c-3.6-4.4-10-5-14.2-1.3L3.6,81.6C-0.7,85.3-1.2,92,2.3,96.4l0,0c3.6,4.4,10,5,14.2,1.3
				l90.1-79.1C110.9,14.9,111.5,8.3,107.9,3.8z"/>
			<path class="st3" d="M200,170h-10c-5.5,0-10-4.5-10-10V90c0-5.5,4.5-10,10-10h0c5.5,0,10,4.5,10,10V170z"/>
			<path class="st3" d="M0,190L0,190c0-5.5,4.5-10,10-10h150c5.5,0,10,4.5,10,10v10H10C4.5,200,0,195.5,0,190z"/>
			<circle class="st3" cx="190" cy="190" r="10"/>
			<path class="st3" d="M10,200L10,200c-5.5,0-10-4.5-10-10L0,90c0-5.5,4.5-10,10-10h0c5.5,0,10,4.5,10,10v100
				C20,195.5,15.5,200,10,200z"/>
			<path class="st3" d="M92.1,3.8L92.1,3.8c3.6-4.4,10-5,14.2-1.3l90.1,79c4.2,3.7,4.8,10.4,1.2,14.8l0,0c-3.6,4.4-10,5-14.2,1.3
				l-90.1-79C89.1,14.9,88.6,8.2,92.1,3.8z"/>
			<path class="st3" d="M107.9,3.8L107.9,3.8c-3.6-4.4-10-5-14.2-1.3L3.6,81.6C-0.7,85.3-1.2,92,2.3,96.4l0,0c3.6,4.4,10,5,14.2,1.3
				l90.1-79.1C110.9,14.9,111.5,8.3,107.9,3.8z"/>
			<path class="st3" d="M200,170h-10c-5.5,0-10-4.5-10-10V90c0-5.5,4.5-10,10-10h0c5.5,0,10,4.5,10,10V170z"/>
			<path class="st3" d="M0,190L0,190c0-5.5,4.5-10,10-10h150c5.5,0,10,4.5,10,10v10H10C4.5,200,0,195.5,0,190z"/>
			<circle class="st3" cx="190" cy="190" r="10"/>
		</g>
	</g>
</g>
<g id="Guide" class="st0">
</g>
</svg>
