<?xml version="1.0" standalone="no"?>
<!DOCTYPE svg PUBLIC "-//W3C//DTD SVG 20010904//EN"
 "http://www.w3.org/TR/2001/REC-SVG-20010904/DTD/svg10.dtd">
<svg version="1.0" xmlns="http://www.w3.org/2000/svg"
 width="260.000000pt" height="260.000000pt" viewBox="0 0 260.000000 260.000000"
 preserveAspectRatio="xMidYMid meet">
<metadata>
Created by potrace 1.14, written by Peter Selinger 2001-2017
</metadata>
<g transform="translate(0.000000,260.000000) scale(0.100000,-0.100000)"
fill="#000000" stroke="none">
<path d="M1045 2564 c-16 -13 -34 -28 -40 -32 -5 -4 -99 -74 -207 -156 l-198
-149 0 -743 0 -742 147 -75 c82 -41 182 -92 223 -113 41 -22 86 -44 100 -50
l26 -12 -2 184 c-2 213 -14 198 116 138 141 -66 243 -168 297 -299 50 -120 43
-302 -18 -458 -11 -26 -19 -49 -19 -51 0 -7 474 233 488 247 8 8 20 41 28 73
82 348 -229 724 -827 1004 l-65 31 0 121 c1 121 1 122 26 128 40 10 131 2 177
-15 90 -35 109 -108 58 -227 -4 -11 -3 -18 4 -18 18 0 222 -125 309 -189 83
-61 102 -71 102 -49 0 6 6 19 14 27 8 9 29 59 47 111 43 131 51 262 20 373
-38 139 -111 256 -204 327 -29 22 -57 44 -63 49 -22 18 -79 44 -148 68 -71 24
-138 33 -271 36 l-70 2 0 243 c0 159 -3 242 -10 242 -5 0 -23 -12 -40 -26z"/>
<path d="M600 432 l0 -187 238 -118 c130 -65 242 -117 247 -117 11 0 15 354 5
363 -3 2 -114 59 -247 126 l-243 121 0 -188z"/>
</g>
</svg>
