<svg width="800" height="800" viewBox="0 0 800 800" fill="none" xmlns="http://www.w3.org/2000/svg">
<rect width="800" height="800" fill="#1F1F1F"/>
<path d="M446.675 487.109H523.083C524.321 487.11 525.324 488.113 525.324 489.351V565.759C525.324 566.996 524.321 568 523.083 568H446.675C445.437 568 444.434 566.997 444.434 565.759V489.351C444.434 488.113 445.437 487.109 446.675 487.109ZM440.445 402V480.867C440.445 482.105 439.442 483.109 438.204 483.109H361.796C360.558 483.109 359.555 482.105 359.555 480.867V402H440.445ZM523.313 317.109C524.551 317.109 525.555 318.113 525.555 319.351V395.759C525.555 396.997 524.55 398 523.313 398H444.445V317.109H523.313ZM276.687 317.109H355.555V398H276.687C275.449 398 274.446 396.997 274.445 395.759V319.351L274.457 319.121C274.572 317.991 275.526 317.11 276.687 317.109ZM440.445 317.109V398H359.555V317.109H440.445ZM361.796 232H438.204C439.442 232 440.445 233.003 440.445 234.241V313.109H359.555V234.241C359.555 233.081 360.436 232.127 361.567 232.012L361.796 232Z" stroke="white" stroke-width="4"/>
</svg>
