<svg width="800" height="800" viewBox="0 0 800 800" fill="none" xmlns="http://www.w3.org/2000/svg">
<rect width="800" height="800" fill="#1F1F1F"/>
<path d="M458.779 487L421.254 562.062V562.062C419.437 565.705 415.712 568 411.643 568H304.766C298.826 568 294.016 563.19 294.016 557.25V487H458.779ZM375.016 402V483H294.016V402H375.016ZM463.208 390.873C463.208 386.6 468.374 384.451 471.407 387.474V387.475L504.578 420.646C506.453 422.521 506.453 425.557 504.578 427.433L471.407 460.604C468.384 463.627 463.208 461.488 463.208 457.205V390.873ZM458.779 317L419.607 395.345L419.605 395.348C418.797 396.972 417.133 398 415.318 398H379.016V317H458.779ZM375.016 317V398H294.016V317H375.016ZM375.016 313H294.016V280.384L294.022 280.003C294.161 276.077 296.431 272.534 299.954 270.772L299.955 270.771L375.016 233.236V313Z" stroke="white" stroke-width="4"/>
</svg>
