<svg width="800" height="800" viewBox="0 0 800 800" fill="none" xmlns="http://www.w3.org/2000/svg">
<rect width="800" height="800" fill="#1F1F1F"/>
<mask id="mask0_1_1468" style="mask-type:alpha" maskUnits="userSpaceOnUse" x="230" y="237" width="340" height="327">
<path d="M433.959 305.942V237.31H230V305.942H297.986V494.731H365.973V305.942H433.959Z" fill="#EF3E3A"/>
<path d="M476.493 323.117C424.84 323.117 382.986 365.368 382.986 417.512V563.363H450.973V508.334C459.071 510.67 467.646 511.907 476.493 511.907C528.147 511.907 570 469.656 570 417.512C570 365.368 528.078 323.117 476.493 323.117ZM476.493 443.206C462.406 443.206 450.973 431.664 450.973 417.443C450.973 403.222 462.406 391.68 476.493 391.68C490.58 391.68 502.014 403.222 502.014 417.443C501.946 431.733 490.58 443.206 476.493 443.206Z" fill="#EF3E3A"/>
</mask>
<g mask="url(#mask0_1_1468)">
<rect x="230" y="228.385" width="340" height="343.229" fill="url(#paint0_linear_1_1468)"/>
</g>
<defs>
<linearGradient id="paint0_linear_1_1468" x1="230" y1="228.385" x2="630.441" y2="327.554" gradientUnits="userSpaceOnUse">
<stop stop-color="#E34248"/>
<stop offset="1" stop-color="#9E55A0"/>
</linearGradient>
</defs>
</svg>
