<svg width="1080" height="481" viewBox="0 0 1080 481" fill="none" xmlns="http://www.w3.org/2000/svg">
<rect width="1080" height="480" transform="translate(0 0.319824)" fill="#1F1F1F"/>
<path d="M334.887 162.225C334.887 167.942 333.564 173.147 330.919 177.841C328.274 182.449 324.348 186.118 319.143 188.849C314.023 191.579 307.794 192.945 300.455 192.945H289.191V221.745H260.775V131.121H300.455C311.548 131.121 320.039 133.937 325.927 139.569C331.9 145.201 334.887 152.753 334.887 162.225ZM297.255 170.545C303.143 170.545 306.087 167.771 306.087 162.225C306.087 156.678 303.143 153.905 297.255 153.905H289.191V170.545H297.255ZM388.06 222.641C379.527 222.641 371.676 220.635 364.508 216.625C357.425 212.614 351.793 207.067 347.612 199.985C343.431 192.902 341.34 184.923 341.34 176.049C341.34 167.174 343.431 159.195 347.612 152.113C351.793 145.03 357.425 139.526 364.508 135.601C371.676 131.59 379.527 129.585 388.06 129.585C396.593 129.585 404.401 131.59 411.484 135.601C418.567 139.526 424.156 145.03 428.252 152.113C432.433 159.195 434.524 167.174 434.524 176.049C434.524 184.923 432.433 192.902 428.252 199.985C424.156 207.067 418.524 212.614 411.356 216.625C404.273 220.635 396.508 222.641 388.06 222.641ZM388.06 196.145C393.692 196.145 398.044 194.353 401.116 190.769C404.188 187.099 405.724 182.193 405.724 176.049C405.724 169.819 404.188 164.913 401.116 161.329C398.044 157.659 393.692 155.825 388.06 155.825C382.343 155.825 377.948 157.659 374.876 161.329C371.804 164.913 370.268 169.819 370.268 176.049C370.268 182.193 371.804 187.099 374.876 190.769C377.948 194.353 382.343 196.145 388.06 196.145ZM518.887 162.225C518.887 167.942 517.564 173.147 514.919 177.841C512.274 182.449 508.348 186.118 503.143 188.849C498.023 191.579 491.794 192.945 484.455 192.945H473.191V221.745H444.775V131.121H484.455C495.548 131.121 504.039 133.937 509.927 139.569C515.9 145.201 518.887 152.753 518.887 162.225ZM481.255 170.545C487.143 170.545 490.087 167.771 490.087 162.225C490.087 156.678 487.143 153.905 481.255 153.905H473.191V170.545H481.255ZM602.012 162.225C602.012 167.942 600.689 173.147 598.044 177.841C595.399 182.449 591.473 186.118 586.268 188.849C581.148 191.579 574.919 192.945 567.58 192.945H556.316V221.745H527.9V131.121H567.58C578.673 131.121 587.164 133.937 593.052 139.569C599.025 145.201 602.012 152.753 602.012 162.225ZM564.38 170.545C570.268 170.545 573.212 167.771 573.212 162.225C573.212 156.678 570.268 153.905 564.38 153.905H556.316V170.545H564.38ZM639.441 131.121V221.745H611.025V131.121H639.441ZM739.187 221.745H710.771L680.691 176.177V221.745H652.275V131.121H680.691L710.771 177.457V131.121H739.187V221.745ZM787.481 222.641C776.644 222.641 767.684 220.123 760.601 215.089C753.604 209.969 749.806 202.502 749.209 192.689H779.417C779.844 197.894 782.148 200.497 786.329 200.497C787.865 200.497 789.145 200.155 790.169 199.473C791.278 198.705 791.833 197.553 791.833 196.017C791.833 193.883 790.681 192.177 788.377 190.897C786.073 189.531 782.489 187.995 777.625 186.289C771.822 184.241 767.001 182.235 763.161 180.273C759.406 178.31 756.164 175.451 753.433 171.697C750.702 167.942 749.38 163.121 749.465 157.233C749.465 151.345 750.958 146.353 753.945 142.257C757.017 138.075 761.156 134.918 766.361 132.785C771.652 130.651 777.582 129.585 784.153 129.585C795.246 129.585 804.036 132.145 810.521 137.265C817.092 142.385 820.548 149.595 820.889 158.897H790.297C790.212 156.337 789.572 154.502 788.377 153.393C787.182 152.283 785.732 151.729 784.025 151.729C782.83 151.729 781.849 152.155 781.081 153.009C780.313 153.777 779.929 154.886 779.929 156.337C779.929 158.385 781.038 160.091 783.257 161.457C785.561 162.737 789.188 164.315 794.137 166.193C799.854 168.326 804.548 170.374 808.217 172.337C811.972 174.299 815.214 177.03 817.945 180.529C820.676 184.027 822.041 188.422 822.041 193.713C822.041 199.259 820.676 204.251 817.945 208.689C815.214 213.041 811.246 216.454 806.041 218.929C800.836 221.403 794.649 222.641 787.481 222.641Z" fill="white"/>
<mask id="path-2-outside-1_5_1419" maskUnits="userSpaceOnUse" x="259" y="259.745" width="565" height="96" fill="black">
<rect fill="white" x="259" y="259.745" width="565" height="96"/>
<path d="M334.887 294.225C334.887 299.942 333.564 305.147 330.919 309.841C328.274 314.449 324.348 318.118 319.143 320.849C314.023 323.579 307.794 324.945 300.455 324.945H289.191V353.745H260.775V263.121H300.455C311.548 263.121 320.039 265.937 325.927 271.569C331.9 277.201 334.887 284.753 334.887 294.225ZM297.255 302.545C303.143 302.545 306.087 299.771 306.087 294.225C306.087 288.678 303.143 285.905 297.255 285.905H289.191V302.545H297.255ZM388.06 354.641C379.527 354.641 371.676 352.635 364.508 348.625C357.425 344.614 351.793 339.067 347.612 331.985C343.431 324.902 341.34 316.923 341.34 308.049C341.34 299.174 343.431 291.195 347.612 284.113C351.793 277.03 357.425 271.526 364.508 267.601C371.676 263.59 379.527 261.585 388.06 261.585C396.593 261.585 404.401 263.59 411.484 267.601C418.567 271.526 424.156 277.03 428.252 284.113C432.433 291.195 434.524 299.174 434.524 308.049C434.524 316.923 432.433 324.902 428.252 331.985C424.156 339.067 418.524 344.614 411.356 348.625C404.273 352.635 396.508 354.641 388.06 354.641ZM388.06 328.145C393.692 328.145 398.044 326.353 401.116 322.769C404.188 319.099 405.724 314.193 405.724 308.049C405.724 301.819 404.188 296.913 401.116 293.329C398.044 289.659 393.692 287.825 388.06 287.825C382.343 287.825 377.948 289.659 374.876 293.329C371.804 296.913 370.268 301.819 370.268 308.049C370.268 314.193 371.804 319.099 374.876 322.769C377.948 326.353 382.343 328.145 388.06 328.145ZM518.887 294.225C518.887 299.942 517.564 305.147 514.919 309.841C512.274 314.449 508.348 318.118 503.143 320.849C498.023 323.579 491.794 324.945 484.455 324.945H473.191V353.745H444.775V263.121H484.455C495.548 263.121 504.039 265.937 509.927 271.569C515.9 277.201 518.887 284.753 518.887 294.225ZM481.255 302.545C487.143 302.545 490.087 299.771 490.087 294.225C490.087 288.678 487.143 285.905 481.255 285.905H473.191V302.545H481.255ZM602.012 294.225C602.012 299.942 600.689 305.147 598.044 309.841C595.399 314.449 591.473 318.118 586.268 320.849C581.148 323.579 574.919 324.945 567.58 324.945H556.316V353.745H527.9V263.121H567.58C578.673 263.121 587.164 265.937 593.052 271.569C599.025 277.201 602.012 284.753 602.012 294.225ZM564.38 302.545C570.268 302.545 573.212 299.771 573.212 294.225C573.212 288.678 570.268 285.905 564.38 285.905H556.316V302.545H564.38ZM639.441 263.121V353.745H611.025V263.121H639.441ZM739.187 353.745H710.771L680.691 308.177V353.745H652.275V263.121H680.691L710.771 309.457V263.121H739.187V353.745ZM787.481 354.641C776.644 354.641 767.684 352.123 760.601 347.089C753.604 341.969 749.806 334.502 749.209 324.689H779.417C779.844 329.894 782.148 332.497 786.329 332.497C787.865 332.497 789.145 332.155 790.169 331.473C791.278 330.705 791.833 329.553 791.833 328.017C791.833 325.883 790.681 324.177 788.377 322.897C786.073 321.531 782.489 319.995 777.625 318.289C771.822 316.241 767.001 314.235 763.161 312.273C759.406 310.31 756.164 307.451 753.433 303.697C750.702 299.942 749.38 295.121 749.465 289.233C749.465 283.345 750.958 278.353 753.945 274.257C757.017 270.075 761.156 266.918 766.361 264.785C771.652 262.651 777.582 261.585 784.153 261.585C795.246 261.585 804.036 264.145 810.521 269.265C817.092 274.385 820.548 281.595 820.889 290.897H790.297C790.212 288.337 789.572 286.502 788.377 285.393C787.182 284.283 785.732 283.729 784.025 283.729C782.83 283.729 781.849 284.155 781.081 285.009C780.313 285.777 779.929 286.886 779.929 288.337C779.929 290.385 781.038 292.091 783.257 293.457C785.561 294.737 789.188 296.315 794.137 298.193C799.854 300.326 804.548 302.374 808.217 304.337C811.972 306.299 815.214 309.03 817.945 312.529C820.676 316.027 822.041 320.422 822.041 325.713C822.041 331.259 820.676 336.251 817.945 340.689C815.214 345.041 811.246 348.454 806.041 350.929C800.836 353.403 794.649 354.641 787.481 354.641Z"/>
</mask>
<path d="M330.919 309.841L331.786 310.339L331.79 310.332L330.919 309.841ZM319.143 320.849L318.678 319.963L318.672 319.966L319.143 320.849ZM289.191 324.945V323.945H288.191V324.945H289.191ZM289.191 353.745V354.745H290.191V353.745H289.191ZM260.775 353.745H259.775V354.745H260.775V353.745ZM260.775 263.121V262.121H259.775V263.121H260.775ZM325.927 271.569L325.236 272.291L325.241 272.296L325.927 271.569ZM289.191 285.905V284.905H288.191V285.905H289.191ZM289.191 302.545H288.191V303.545H289.191V302.545ZM334.887 294.225H333.887C333.887 299.781 332.604 304.815 330.048 309.35L330.919 309.841L331.79 310.332C334.525 305.479 335.887 300.103 335.887 294.225H334.887ZM330.919 309.841L330.052 309.343C327.511 313.769 323.734 317.311 318.678 319.963L319.143 320.849L319.608 321.734C324.963 318.925 329.036 315.129 331.786 310.338L330.919 309.841ZM319.143 320.849L318.672 319.966C313.731 322.602 307.672 323.945 300.455 323.945V324.945V325.945C307.915 325.945 314.315 324.557 319.614 321.731L319.143 320.849ZM300.455 324.945V323.945H289.191V324.945V325.945H300.455V324.945ZM289.191 324.945H288.191V353.745H289.191H290.191V324.945H289.191ZM289.191 353.745V352.745H260.775V353.745V354.745H289.191V353.745ZM260.775 353.745H261.775V263.121H260.775H259.775V353.745H260.775ZM260.775 263.121V264.121H300.455V263.121V262.121H260.775V263.121ZM300.455 263.121V264.121C311.386 264.121 319.593 266.894 325.236 272.291L325.927 271.569L326.618 270.846C320.485 264.98 311.711 262.121 300.455 262.121V263.121ZM325.927 271.569L325.241 272.296C330.983 277.71 333.887 284.982 333.887 294.225H334.887H335.887C335.887 284.524 332.818 276.692 326.613 270.841L325.927 271.569ZM297.255 302.545V303.545C300.339 303.545 302.838 302.82 304.565 301.193C306.303 299.555 307.087 297.168 307.087 294.225H306.087H305.087C305.087 296.828 304.399 298.601 303.193 299.737C301.976 300.883 300.059 301.545 297.255 301.545V302.545ZM306.087 294.225H307.087C307.087 291.281 306.303 288.894 304.565 287.257C302.838 285.63 300.339 284.905 297.255 284.905V285.905V286.905C300.059 286.905 301.976 287.566 303.193 288.713C304.399 289.848 305.087 291.621 305.087 294.225H306.087ZM297.255 285.905V284.905H289.191V285.905V286.905H297.255V285.905ZM289.191 285.905H288.191V302.545H289.191H290.191V285.905H289.191ZM289.191 302.545V303.545H297.255V302.545V301.545H289.191V302.545ZM364.508 348.625L364.015 349.495L364.02 349.497L364.508 348.625ZM347.612 331.985L346.751 332.493L346.751 332.493L347.612 331.985ZM364.508 267.601L364.993 268.475L364.996 268.473L364.508 267.601ZM411.484 267.601L410.991 268.471L410.999 268.475L411.484 267.601ZM428.252 284.113L427.386 284.613L427.391 284.621L428.252 284.113ZM428.252 331.985L427.391 331.476L427.386 331.484L428.252 331.985ZM411.356 348.625L410.868 347.752L410.863 347.754L411.356 348.625ZM401.116 322.769L401.875 323.419L401.883 323.411L401.116 322.769ZM401.116 293.329L400.349 293.971L400.357 293.979L401.116 293.329ZM374.876 293.329L375.635 293.979L375.643 293.971L374.876 293.329ZM374.876 322.769L374.109 323.411L374.117 323.419L374.876 322.769ZM388.06 354.641V353.641C379.691 353.641 372.009 351.676 364.996 347.752L364.508 348.625L364.02 349.497C371.343 353.595 379.363 355.641 388.06 355.641V354.641ZM364.508 348.625L365.001 347.754C358.072 343.831 352.566 338.41 348.473 331.476L347.612 331.985L346.751 332.493C351.02 339.725 356.779 345.397 364.015 349.495L364.508 348.625ZM347.612 331.985L348.473 331.476C344.39 324.56 342.34 316.759 342.34 308.049H341.34H340.34C340.34 317.088 342.471 325.244 346.751 332.493L347.612 331.985ZM341.34 308.049H342.34C342.34 299.338 344.39 291.538 348.473 284.621L347.612 284.113L346.751 283.604C342.471 290.853 340.34 299.01 340.34 308.049H341.34ZM347.612 284.113L348.473 284.621C352.565 277.689 358.068 272.313 364.993 268.475L364.508 267.601L364.023 266.726C356.782 270.739 351.021 276.371 346.751 283.604L347.612 284.113ZM364.508 267.601L364.996 268.473C372.009 264.549 379.691 262.585 388.06 262.585V261.585V260.585C379.363 260.585 371.343 262.63 364.02 266.728L364.508 267.601ZM388.06 261.585V262.585C396.429 262.585 404.066 264.549 410.991 268.471L411.484 267.601L411.977 266.73C404.736 262.631 396.757 260.585 388.06 260.585V261.585ZM411.484 267.601L410.999 268.475C417.922 272.312 423.38 277.686 427.386 284.613L428.252 284.113L429.118 283.612C424.932 276.374 419.212 270.74 411.969 266.726L411.484 267.601ZM428.252 284.113L427.391 284.621C431.474 291.538 433.524 299.338 433.524 308.049H434.524H435.524C435.524 299.01 433.393 290.853 429.113 283.604L428.252 284.113ZM434.524 308.049H433.524C433.524 316.759 431.474 324.56 427.391 331.476L428.252 331.985L429.113 332.493C433.393 325.244 435.524 317.088 435.524 308.049H434.524ZM428.252 331.985L427.386 331.484C423.381 338.41 417.879 343.829 410.868 347.752L411.356 348.625L411.844 349.497C419.169 345.399 424.931 339.724 429.118 332.485L428.252 331.985ZM411.356 348.625L410.863 347.754C403.937 351.677 396.342 353.641 388.06 353.641V354.641V355.641C396.674 355.641 404.61 353.594 411.849 349.495L411.356 348.625ZM388.06 328.145V329.145C393.922 329.145 398.576 327.268 401.875 323.419L401.116 322.769L400.357 322.118C397.512 325.437 393.462 327.145 388.06 327.145V328.145ZM401.116 322.769L401.883 323.411C405.144 319.515 406.724 314.359 406.724 308.049H405.724H404.724C404.724 314.026 403.232 318.683 400.349 322.127L401.116 322.769ZM405.724 308.049H406.724C406.724 301.658 405.146 296.494 401.875 292.678L401.116 293.329L400.357 293.979C403.23 297.331 404.724 301.981 404.724 308.049H405.724ZM401.116 293.329L401.883 292.687C398.586 288.749 393.93 286.825 388.06 286.825V287.825V288.825C393.454 288.825 397.502 290.569 400.349 293.971L401.116 293.329ZM388.06 287.825V286.825C382.11 286.825 377.409 288.746 374.109 292.687L374.876 293.329L375.643 293.971C378.487 290.573 382.575 288.825 388.06 288.825V287.825ZM374.876 293.329L374.117 292.678C370.846 296.494 369.268 301.658 369.268 308.049H370.268H371.268C371.268 301.981 372.762 297.331 375.635 293.979L374.876 293.329ZM370.268 308.049H369.268C369.268 314.359 370.848 319.515 374.109 323.411L374.876 322.769L375.643 322.127C372.76 318.683 371.268 314.026 371.268 308.049H370.268ZM374.876 322.769L374.117 323.419C377.419 327.272 382.118 329.145 388.06 329.145V328.145V327.145C382.567 327.145 378.477 325.434 375.635 322.118L374.876 322.769ZM514.919 309.841L515.786 310.339L515.79 310.332L514.919 309.841ZM503.143 320.849L502.678 319.963L502.672 319.966L503.143 320.849ZM473.191 324.945V323.945H472.191V324.945H473.191ZM473.191 353.745V354.745H474.191V353.745H473.191ZM444.775 353.745H443.775V354.745H444.775V353.745ZM444.775 263.121V262.121H443.775V263.121H444.775ZM509.927 271.569L509.236 272.291L509.241 272.296L509.927 271.569ZM473.191 285.905V284.905H472.191V285.905H473.191ZM473.191 302.545H472.191V303.545H473.191V302.545ZM518.887 294.225H517.887C517.887 299.781 516.604 304.815 514.048 309.35L514.919 309.841L515.79 310.332C518.525 305.479 519.887 300.103 519.887 294.225H518.887ZM514.919 309.841L514.052 309.343C511.511 313.769 507.734 317.311 502.678 319.963L503.143 320.849L503.608 321.734C508.963 318.925 513.036 315.129 515.786 310.338L514.919 309.841ZM503.143 320.849L502.672 319.966C497.731 322.602 491.672 323.945 484.455 323.945V324.945V325.945C491.915 325.945 498.315 324.557 503.614 321.731L503.143 320.849ZM484.455 324.945V323.945H473.191V324.945V325.945H484.455V324.945ZM473.191 324.945H472.191V353.745H473.191H474.191V324.945H473.191ZM473.191 353.745V352.745H444.775V353.745V354.745H473.191V353.745ZM444.775 353.745H445.775V263.121H444.775H443.775V353.745H444.775ZM444.775 263.121V264.121H484.455V263.121V262.121H444.775V263.121ZM484.455 263.121V264.121C495.386 264.121 503.593 266.894 509.236 272.291L509.927 271.569L510.618 270.846C504.485 264.98 495.711 262.121 484.455 262.121V263.121ZM509.927 271.569L509.241 272.296C514.983 277.71 517.887 284.982 517.887 294.225H518.887H519.887C519.887 284.524 516.818 276.692 510.613 270.841L509.927 271.569ZM481.255 302.545V303.545C484.339 303.545 486.838 302.82 488.565 301.193C490.303 299.555 491.087 297.168 491.087 294.225H490.087H489.087C489.087 296.828 488.399 298.601 487.193 299.737C485.976 300.883 484.059 301.545 481.255 301.545V302.545ZM490.087 294.225H491.087C491.087 291.281 490.303 288.894 488.565 287.257C486.838 285.63 484.339 284.905 481.255 284.905V285.905V286.905C484.059 286.905 485.976 287.566 487.193 288.713C488.399 289.848 489.087 291.621 489.087 294.225H490.087ZM481.255 285.905V284.905H473.191V285.905V286.905H481.255V285.905ZM473.191 285.905H472.191V302.545H473.191H474.191V285.905H473.191ZM473.191 302.545V303.545H481.255V302.545V301.545H473.191V302.545ZM598.044 309.841L598.911 310.339L598.915 310.332L598.044 309.841ZM586.268 320.849L585.803 319.963L585.797 319.966L586.268 320.849ZM556.316 324.945V323.945H555.316V324.945H556.316ZM556.316 353.745V354.745H557.316V353.745H556.316ZM527.9 353.745H526.9V354.745H527.9V353.745ZM527.9 263.121V262.121H526.9V263.121H527.9ZM593.052 271.569L592.361 272.291L592.366 272.296L593.052 271.569ZM556.316 285.905V284.905H555.316V285.905H556.316ZM556.316 302.545H555.316V303.545H556.316V302.545ZM602.012 294.225H601.012C601.012 299.781 599.729 304.815 597.173 309.35L598.044 309.841L598.915 310.332C601.65 305.479 603.012 300.103 603.012 294.225H602.012ZM598.044 309.841L597.177 309.343C594.636 313.769 590.859 317.311 585.803 319.963L586.268 320.849L586.733 321.734C592.088 318.925 596.161 315.129 598.911 310.338L598.044 309.841ZM586.268 320.849L585.797 319.966C580.856 322.602 574.797 323.945 567.58 323.945V324.945V325.945C575.04 325.945 581.44 324.557 586.739 321.731L586.268 320.849ZM567.58 324.945V323.945H556.316V324.945V325.945H567.58V324.945ZM556.316 324.945H555.316V353.745H556.316H557.316V324.945H556.316ZM556.316 353.745V352.745H527.9V353.745V354.745H556.316V353.745ZM527.9 353.745H528.9V263.121H527.9H526.9V353.745H527.9ZM527.9 263.121V264.121H567.58V263.121V262.121H527.9V263.121ZM567.58 263.121V264.121C578.511 264.121 586.718 266.894 592.361 272.291L593.052 271.569L593.743 270.846C587.61 264.98 578.836 262.121 567.58 262.121V263.121ZM593.052 271.569L592.366 272.296C598.108 277.71 601.012 284.982 601.012 294.225H602.012H603.012C603.012 284.524 599.943 276.692 593.738 270.841L593.052 271.569ZM564.38 302.545V303.545C567.464 303.545 569.963 302.82 571.69 301.193C573.428 299.555 574.212 297.168 574.212 294.225H573.212H572.212C572.212 296.828 571.524 298.601 570.318 299.737C569.101 300.883 567.184 301.545 564.38 301.545V302.545ZM573.212 294.225H574.212C574.212 291.281 573.428 288.894 571.69 287.257C569.963 285.63 567.464 284.905 564.38 284.905V285.905V286.905C567.184 286.905 569.101 287.566 570.318 288.713C571.524 289.848 572.212 291.621 572.212 294.225H573.212ZM564.38 285.905V284.905H556.316V285.905V286.905H564.38V285.905ZM556.316 285.905H555.316V302.545H556.316H557.316V285.905H556.316ZM556.316 302.545V303.545H564.38V302.545V301.545H556.316V302.545ZM639.441 263.121H640.441V262.121H639.441V263.121ZM639.441 353.745V354.745H640.441V353.745H639.441ZM611.025 353.745H610.025V354.745H611.025V353.745ZM611.025 263.121V262.121H610.025V263.121H611.025ZM639.441 263.121H638.441V353.745H639.441H640.441V263.121H639.441ZM639.441 353.745V352.745H611.025V353.745V354.745H639.441V353.745ZM611.025 353.745H612.025V263.121H611.025H610.025V353.745H611.025ZM611.025 263.121V264.121H639.441V263.121V262.121H611.025V263.121ZM739.187 353.745V354.745H740.187V353.745H739.187ZM710.771 353.745L709.936 354.296L710.233 354.745H710.771V353.745ZM680.691 308.177L681.526 307.626L679.691 304.847V308.177H680.691ZM680.691 353.745V354.745H681.691V353.745H680.691ZM652.275 353.745H651.275V354.745H652.275V353.745ZM652.275 263.121V262.121H651.275V263.121H652.275ZM680.691 263.121L681.53 262.576L681.234 262.121H680.691V263.121ZM710.771 309.457L709.932 310.001L711.771 312.834V309.457H710.771ZM710.771 263.121V262.121H709.771V263.121H710.771ZM739.187 263.121H740.187V262.121H739.187V263.121ZM739.187 353.745V352.745H710.771V353.745V354.745H739.187V353.745ZM710.771 353.745L711.606 353.194L681.526 307.626L680.691 308.177L679.856 308.728L709.936 354.296L710.771 353.745ZM680.691 308.177H679.691V353.745H680.691H681.691V308.177H680.691ZM680.691 353.745V352.745H652.275V353.745V354.745H680.691V353.745ZM652.275 353.745H653.275V263.121H652.275H651.275V353.745H652.275ZM652.275 263.121V264.121H680.691V263.121V262.121H652.275V263.121ZM680.691 263.121L679.852 263.665L709.932 310.001L710.771 309.457L711.61 308.912L681.53 262.576L680.691 263.121ZM710.771 309.457H711.771V263.121H710.771H709.771V309.457H710.771ZM710.771 263.121V264.121H739.187V263.121V262.121H710.771V263.121ZM739.187 263.121H738.187V353.745H739.187H740.187V263.121H739.187ZM760.601 347.089L760.01 347.896L760.022 347.904L760.601 347.089ZM749.209 324.689V323.689H748.146L748.211 324.749L749.209 324.689ZM779.417 324.689L780.414 324.607L780.338 323.689H779.417V324.689ZM790.169 331.473L790.724 332.305L790.731 332.3L790.738 332.295L790.169 331.473ZM788.377 322.897L787.867 323.757L787.879 323.764L787.891 323.771L788.377 322.897ZM777.625 318.289L777.292 319.232L777.294 319.232L777.625 318.289ZM763.161 312.273L762.698 313.159L762.706 313.163L763.161 312.273ZM753.433 303.697L754.242 303.108L754.242 303.108L753.433 303.697ZM749.465 289.233L750.465 289.247L750.465 289.24V289.233H749.465ZM753.945 274.257L753.139 273.665L753.137 273.667L753.945 274.257ZM766.361 264.785L765.987 263.857L765.982 263.859L766.361 264.785ZM810.521 269.265L809.901 270.05L809.906 270.053L810.521 269.265ZM820.889 290.897V291.897H821.926L821.888 290.86L820.889 290.897ZM790.297 290.897L789.298 290.93L789.33 291.897H790.297V290.897ZM781.081 285.009L781.788 285.716L781.807 285.697L781.824 285.678L781.081 285.009ZM783.257 293.457L782.733 294.308L782.752 294.32L782.771 294.331L783.257 293.457ZM794.137 298.193L793.782 299.128L793.787 299.13L794.137 298.193ZM808.217 304.337L807.745 305.218L807.754 305.223L808.217 304.337ZM817.945 312.529L817.157 313.144L817.157 313.144L817.945 312.529ZM817.945 340.689L818.792 341.22L818.797 341.213L817.945 340.689ZM806.041 350.929L805.612 350.025L806.041 350.929ZM787.481 354.641V353.641C776.8 353.641 768.056 351.161 761.18 346.274L760.601 347.089L760.022 347.904C767.311 353.086 776.488 355.641 787.481 355.641V354.641ZM760.601 347.089L761.192 346.282C754.468 341.362 750.789 334.189 750.207 324.628L749.209 324.689L748.211 324.749C748.824 334.815 752.739 342.575 760.01 347.896L760.601 347.089ZM749.209 324.689V325.689H779.417V324.689V323.689H749.209V324.689ZM779.417 324.689L778.42 324.77C778.643 327.486 779.365 329.681 780.716 331.207C782.096 332.766 784.015 333.497 786.329 333.497V332.497V331.497C784.461 331.497 783.138 330.925 782.214 329.882C781.261 328.805 780.618 327.097 780.414 324.607L779.417 324.689ZM786.329 332.497V333.497C788.013 333.497 789.499 333.121 790.724 332.305L790.169 331.473L789.614 330.641C788.791 331.189 787.717 331.497 786.329 331.497V332.497ZM790.169 331.473L790.738 332.295C792.158 331.312 792.833 329.828 792.833 328.017H791.833H790.833C790.833 329.277 790.399 330.097 789.6 330.65L790.169 331.473ZM791.833 328.017H792.833C792.833 325.429 791.396 323.43 788.863 322.022L788.377 322.897L787.891 323.771C789.966 324.923 790.833 326.337 790.833 328.017H791.833ZM788.377 322.897L788.887 322.036C786.496 320.619 782.836 319.057 777.956 317.345L777.625 318.289L777.294 319.232C782.142 320.933 785.65 322.443 787.867 323.757L788.377 322.897ZM777.625 318.289L777.958 317.346C772.181 315.307 767.404 313.318 763.616 311.382L763.161 312.273L762.706 313.163C766.598 315.152 771.464 317.175 777.292 319.232L777.625 318.289ZM763.161 312.273L763.624 311.386C760.019 309.502 756.891 306.751 754.242 303.108L753.433 303.697L752.624 304.285C755.437 308.152 758.794 311.118 762.698 313.159L763.161 312.273ZM753.433 303.697L754.242 303.108C751.669 299.571 750.382 294.977 750.465 289.247L749.465 289.233L748.465 289.218C748.377 295.264 749.736 300.313 752.624 304.285L753.433 303.697ZM749.465 289.233H750.465C750.465 283.521 751.91 278.744 754.753 274.846L753.945 274.257L753.137 273.667C750.006 277.961 748.465 283.168 748.465 289.233H749.465ZM753.945 274.257L754.751 274.849C757.705 270.828 761.69 267.78 766.74 265.71L766.361 264.785L765.982 263.859C760.621 266.056 756.329 269.323 753.139 273.665L753.945 274.257ZM766.361 264.785L766.735 265.712C771.89 263.633 777.691 262.585 784.153 262.585V261.585V260.585C777.473 260.585 771.413 261.669 765.987 263.857L766.361 264.785ZM784.153 261.585V262.585C795.098 262.585 803.645 265.11 809.901 270.05L810.521 269.265L811.141 268.48C804.427 263.179 795.394 260.585 784.153 260.585V261.585ZM810.521 269.265L809.906 270.053C816.215 274.969 819.558 281.888 819.89 290.933L820.889 290.897L821.888 290.86C821.538 281.302 817.968 273.8 811.136 268.476L810.521 269.265ZM820.889 290.897V289.897H790.297V290.897V291.897H820.889V290.897ZM790.297 290.897L791.296 290.863C791.207 288.185 790.534 286.031 789.057 284.66L788.377 285.393L787.697 286.125C788.609 286.973 789.216 288.489 789.298 290.93L790.297 290.897ZM788.377 285.393L789.057 284.66C787.668 283.37 785.971 282.729 784.025 282.729V283.729V284.729C785.492 284.729 786.696 285.196 787.697 286.125L788.377 285.393ZM784.025 283.729V282.729C782.56 282.729 781.304 283.266 780.338 284.34L781.081 285.009L781.824 285.678C782.394 285.044 783.101 284.729 784.025 284.729V283.729ZM781.081 285.009L780.374 284.302C779.362 285.313 778.929 286.713 778.929 288.337H779.929H780.929C780.929 287.059 781.264 286.24 781.788 285.716L781.081 285.009ZM779.929 288.337H778.929C778.929 290.828 780.311 292.818 782.733 294.308L783.257 293.457L783.781 292.605C781.766 291.365 780.929 289.942 780.929 288.337H779.929ZM783.257 293.457L782.771 294.331C785.141 295.647 788.823 297.247 793.782 299.128L794.137 298.193L794.492 297.258C789.552 295.384 785.981 293.826 783.743 292.582L783.257 293.457ZM794.137 298.193L793.787 299.13C799.48 301.254 804.129 303.284 807.745 305.218L808.217 304.337L808.689 303.455C804.966 301.464 800.228 299.398 794.487 297.256L794.137 298.193ZM808.217 304.337L807.754 305.223C811.376 307.116 814.51 309.752 817.157 313.144L817.945 312.529L818.733 311.913C815.919 308.308 812.567 305.482 808.68 303.45L808.217 304.337ZM817.945 312.529L817.157 313.144C819.725 316.435 821.041 320.601 821.041 325.713H822.041H823.041C823.041 320.243 821.626 315.62 818.733 311.913L817.945 312.529ZM822.041 325.713H821.041C821.041 331.087 819.721 335.895 817.093 340.165L817.945 340.689L818.797 341.213C821.631 336.608 823.041 331.432 823.041 325.713H822.041ZM817.945 340.689L817.098 340.157C814.48 344.329 810.667 347.622 805.612 350.025L806.041 350.929L806.47 351.832C811.826 349.286 815.948 345.752 818.792 341.22L817.945 340.689ZM806.041 350.929L805.612 350.025C800.569 352.423 794.536 353.641 787.481 353.641V354.641V355.641C794.762 355.641 801.102 354.384 806.47 351.832L806.041 350.929Z" fill="white" mask="url(#path-2-outside-1_5_1419)"/>
</svg>
