<?xml version="1.0" encoding="utf-8"?>
<!-- Generator: Adobe Illustrator 24.1.1, SVG Export Plug-In . SVG Version: 6.00 Build 0)  -->
<svg version="1.1" id="Layer_1" xmlns="http://www.w3.org/2000/svg" xmlns:xlink="http://www.w3.org/1999/xlink" x="0px" y="0px"
	 viewBox="0 0 3416.8 1527" style="enable-background:new 0 0 3416.8 1527;" xml:space="preserve">
<style type="text/css">
	.st0{enable-background:new    ;}
	.st1{fill:#424365;}
	.st2{fill-rule:evenodd;clip-rule:evenodd;fill:url(#Rectangle-2-Copy-20_1_);}
	.st3{fill:#FFFFFF;}
	.st4{fill-rule:evenodd;clip-rule:evenodd;fill:url(#Rectangle-Copy-5_1_);}
	.st5{fill-rule:evenodd;clip-rule:evenodd;fill:#E3385A;}
	.st6{fill-rule:evenodd;clip-rule:evenodd;fill:#EB6A66;}
	.st7{fill-rule:evenodd;clip-rule:evenodd;fill:#23AABC;}
	.st8{fill-rule:evenodd;clip-rule:evenodd;fill:#336CD6;}
	.st9{fill-rule:evenodd;clip-rule:evenodd;fill:#424365;}
	.st10{fill-rule:evenodd;clip-rule:evenodd;fill:#FFC782;}
	.st11{fill-rule:evenodd;clip-rule:evenodd;fill:#3A3A3A;}
	.st12{fill-rule:evenodd;clip-rule:evenodd;fill:#505050;}
	.st13{fill-rule:evenodd;clip-rule:evenodd;fill:#FF0092;}
	.st14{fill-rule:evenodd;clip-rule:evenodd;fill:#FBFCFD;stroke:#BABABA;stroke-width:1.8442;stroke-miterlimit:10;}
	.st15{fill-rule:evenodd;clip-rule:evenodd;fill:#9292A0;}
	.st16{fill-rule:evenodd;clip-rule:evenodd;fill:#797896;}
	.st17{fill-rule:evenodd;clip-rule:evenodd;fill:#BFBFD1;}
	.st18{fill-rule:evenodd;clip-rule:evenodd;fill:url(#Rectangle-15-Copy-3_3_);}
	.st19{fill-rule:evenodd;clip-rule:evenodd;fill:#828282;}
	.st20{fill-rule:evenodd;clip-rule:evenodd;fill:#A5A5A5;}
	.st21{fill-rule:evenodd;clip-rule:evenodd;fill:#D8D8D8;}
	.st22{fill:#3A3A3A;}
	.st23{fill:none;stroke:#A5A5A5;stroke-width:2;stroke-miterlimit:10;}
	.st24{fill:#9292A0;}
	.st25{fill:#797896;}
	.st26{fill:#FF0092;}
	.st27{fill:#FBFCFD;stroke:#BABABA;stroke-width:1.8442;stroke-miterlimit:10;}
	.st28{fill:#BFBFD1;}
	.st29{fill:url(#SVGID_1_);}
	.st30{fill:url(#SVGID_2_);}
	.st31{fill:url(#SVGID_3_);}
	.st32{fill:url(#SVGID_4_);}
</style>
<desc>Created with Sketch.</desc>
<g class="st0">
	<path class="st1" d="M26.7,1120.2v-5l18.2,0v15.9c-2.8,2.2-5.7,3.9-8.6,5c-3,1.1-6,1.7-9.1,1.7c-4.2,0-8.1-0.9-11.5-2.7
		c-3.4-1.8-6-4.4-7.8-7.8s-2.6-7.2-2.6-11.5c0-4.2,0.9-8.1,2.6-11.7c1.7-3.6,4.3-6.3,7.5-8.1s7.1-2.6,11.3-2.6
		c3.1,0,5.9,0.5,8.4,1.5c2.5,1,4.5,2.4,5.9,4.2c1.4,1.8,2.5,4.1,3.3,7l-5.1,1.4c-0.6-2.2-1.4-3.9-2.4-5.2c-1-1.3-2.3-2.3-4.1-3
		c-1.8-0.8-3.8-1.1-5.9-1.1c-2.6,0-4.8,0.4-6.7,1.2c-1.9,0.8-3.4,1.8-4.6,3.1c-1.2,1.3-2.1,2.7-2.7,4.2c-1.1,2.7-1.6,5.5-1.6,8.6
		c0,3.8,0.7,7,2,9.6s3.2,4.5,5.8,5.7s5.2,1.9,8,1.9c2.5,0,4.9-0.5,7.2-1.4s4.1-2,5.3-3v-8H26.7z"/>
	<path class="st1" d="M52.6,1137v-31.1h4.7v4.7c1.2-2.2,2.3-3.7,3.4-4.4s2.2-1.1,3.4-1.1c1.8,0,3.6,0.6,5.4,1.7l-1.8,4.9
		c-1.3-0.8-2.6-1.1-3.9-1.1c-1.2,0-2.2,0.3-3.1,1c-0.9,0.7-1.6,1.7-2,2.9c-0.6,1.9-0.9,3.9-0.9,6.2v16.3H52.6z"/>
	<path class="st1" d="M92.9,1133.2c-2,1.7-3.8,2.8-5.6,3.5c-1.8,0.7-3.7,1-5.8,1c-3.4,0-6-0.8-7.9-2.5c-1.8-1.7-2.8-3.8-2.8-6.4
		c0-1.5,0.3-2.9,1-4.2c0.7-1.3,1.6-2.3,2.7-3c1.1-0.8,2.4-1.3,3.8-1.7c1-0.3,2.6-0.5,4.7-0.8c4.3-0.5,7.4-1.1,9.4-1.8
		c0-0.7,0-1.2,0-1.4c0-2.1-0.5-3.7-1.5-4.5c-1.3-1.2-3.4-1.8-6-1.8c-2.5,0-4.3,0.4-5.5,1.3c-1.2,0.9-2.1,2.4-2.6,4.6l-5.2-0.7
		c0.5-2.2,1.2-4,2.3-5.3c1.1-1.4,2.6-2.4,4.7-3.1c2-0.7,4.4-1.1,7.1-1.1c2.7,0,4.8,0.3,6.5,0.9c1.7,0.6,2.9,1.4,3.7,2.4
		c0.8,0.9,1.3,2.1,1.6,3.6c0.2,0.9,0.3,2.5,0.3,4.9v7c0,4.9,0.1,8,0.3,9.3c0.2,1.3,0.7,2.5,1.3,3.7H94
		C93.4,1135.9,93.1,1134.6,92.9,1133.2z M92.5,1121.4c-1.9,0.8-4.8,1.4-8.6,2c-2.2,0.3-3.7,0.7-4.6,1.1c-0.9,0.4-1.6,1-2.1,1.7
		c-0.5,0.8-0.7,1.6-0.7,2.5c0,1.4,0.5,2.6,1.6,3.5c1.1,0.9,2.6,1.4,4.7,1.4c2,0,3.8-0.4,5.4-1.3s2.7-2.1,3.5-3.6
		c0.6-1.2,0.8-2.9,0.8-5.3V1121.4z"/>
	<path class="st1" d="M126.2,1137v-3.9c-2,3.1-4.9,4.6-8.7,4.6c-2.5,0-4.8-0.7-6.8-2.1s-3.7-3.3-4.8-5.7s-1.7-5.3-1.7-8.5
		c0-3.1,0.5-5.9,1.6-8.5c1-2.5,2.6-4.5,4.7-5.8c2.1-1.3,4.4-2,6.9-2c1.9,0,3.5,0.4,5,1.2s2.7,1.8,3.6,3.1v-15.4h5.2v42.9H126.2z
		 M109.5,1121.5c0,4,0.8,7,2.5,8.9c1.7,2,3.7,3,5.9,3c2.3,0,4.3-0.9,5.9-2.8s2.4-4.8,2.4-8.6c0-4.3-0.8-7.4-2.5-9.4s-3.7-3-6.1-3
		c-2.3,0-4.3,1-5.9,2.9C110.3,1114.3,109.5,1117.4,109.5,1121.5z"/>
	<path class="st1" d="M139.4,1100.1v-6.1h5.3v6.1H139.4z M139.4,1137v-31.1h5.3v31.1H139.4z"/>
	<path class="st1" d="M174,1127l5.4,0.7c-0.9,3.2-2.5,5.7-4.8,7.4c-2.3,1.8-5.3,2.6-8.9,2.6c-4.6,0-8.2-1.4-10.8-4.2s-4-6.7-4-11.8
		c0-5.2,1.3-9.3,4-12.2s6.2-4.3,10.5-4.3c4.2,0,7.6,1.4,10.2,4.2s4,6.8,4,12c0,0.3,0,0.8,0,1.4h-23.2c0.2,3.4,1.2,6,2.9,7.9
		c1.7,1.8,3.9,2.7,6.5,2.7c1.9,0,3.6-0.5,5-1.5C172.1,1130.8,173.2,1129.2,174,1127z M156.7,1118.5H174c-0.2-2.6-0.9-4.6-2-5.9
		c-1.7-2-3.9-3-6.5-3c-2.4,0-4.5,0.8-6.1,2.4C157.7,1113.6,156.8,1115.7,156.7,1118.5z"/>
	<path class="st1" d="M186,1137v-31.1h4.7v4.4c2.3-3.4,5.6-5.1,9.9-5.1c1.9,0,3.6,0.3,5.2,1c1.6,0.7,2.7,1.6,3.5,2.7
		c0.8,1.1,1.3,2.4,1.6,3.9c0.2,1,0.3,2.7,0.3,5.1v19.1h-5.3v-18.9c0-2.1-0.2-3.8-0.6-4.8s-1.1-1.9-2.2-2.5c-1-0.6-2.3-1-3.7-1
		c-2.2,0-4.2,0.7-5.8,2.1c-1.6,1.4-2.4,4.1-2.4,8.1v17H186z"/>
	<path class="st1" d="M230.9,1132.3l0.8,4.7c-1.5,0.3-2.8,0.5-4,0.5c-1.9,0-3.4-0.3-4.5-0.9s-1.8-1.4-2.2-2.4
		c-0.4-1-0.6-3.1-0.6-6.2V1110h-3.9v-4.1h3.9v-7.7l5.2-3.2v10.9h5.3v4.1h-5.3v18.2c0,1.5,0.1,2.5,0.3,2.9c0.2,0.4,0.5,0.8,0.9,1
		c0.4,0.3,1,0.4,1.8,0.4C229.2,1132.5,230,1132.4,230.9,1132.3z"/>
	<path class="st1" d="M234,1127.7l5.2-0.8c0.3,2.1,1.1,3.7,2.4,4.8c1.3,1.1,3.2,1.7,5.6,1.7c2.4,0,4.2-0.5,5.4-1.5s1.8-2.1,1.8-3.5
		c0-1.2-0.5-2.1-1.6-2.8c-0.7-0.5-2.5-1.1-5.4-1.8c-3.9-1-6.5-1.8-8-2.5s-2.6-1.7-3.4-3c-0.8-1.3-1.2-2.7-1.2-4.2
		c0-1.4,0.3-2.7,1-3.9c0.6-1.2,1.5-2.2,2.6-2.9c0.8-0.6,1.9-1.1,3.4-1.5c1.4-0.4,2.9-0.6,4.6-0.6c2.4,0,4.6,0.4,6.4,1.1
		s3.2,1.7,4.1,2.9s1.5,2.8,1.8,4.8l-5.2,0.7c-0.2-1.6-0.9-2.9-2-3.8c-1.1-0.9-2.7-1.3-4.8-1.3c-2.4,0-4.2,0.4-5.2,1.2
		c-1,0.8-1.6,1.7-1.6,2.8c0,0.7,0.2,1.3,0.6,1.8c0.4,0.6,1.1,1,2,1.4c0.5,0.2,2.1,0.6,4.7,1.3c3.7,1,6.3,1.8,7.8,2.4
		c1.5,0.6,2.6,1.6,3.5,2.8c0.8,1.2,1.3,2.7,1.3,4.5c0,1.8-0.5,3.4-1.5,5s-2.5,2.8-4.4,3.6s-4.1,1.3-6.6,1.3c-4,0-7.1-0.8-9.2-2.5
		C235.9,1133.5,234.6,1131,234,1127.7z"/>
</g>
<linearGradient id="Rectangle-2-Copy-20_1_" gradientUnits="userSpaceOnUse" x1="623.01" y1="1165.13" x2="623.01" y2="1164.63" gradientTransform="matrix(300 0 0 -300 -186753 350918)">
	<stop  offset="0" style="stop-color:#E3385B"/>
	<stop  offset="1" style="stop-color:#EB6A66"/>
</linearGradient>
<rect id="Rectangle-2-Copy-20" y="1229" class="st2" width="300" height="300"/>
<g class="st0">
	<path class="st3" d="M70,1308.5l1.7-8.3h-3.3v-2.9h3.9l1.4-7.1h-5.3v-2.9h5.9l1.7-8.4H79l-1.7,8.4h6.2l1.7-8.4h2.9l-1.7,8.4h3.4
		v2.9h-4l-1.5,7.1h5.4v2.9h-6l-1.7,8.3h-2.9l1.7-8.3h-6.1l-1.7,8.3H70z M75.2,1297.3h6.1l1.5-7.1h-6.2L75.2,1297.3z"/>
	<path class="st3" d="M93.4,1308v-28.6h20.7v3.4H97.2v8.8H113v3.4H97.2v9.7h17.6v3.4H93.4z"/>
	<path class="st3" d="M118.6,1300.4l3.5-0.5c0.4,2,1.1,3.4,2.1,4.3c1,0.9,2.2,1.3,3.5,1.3c1.7,0,3-0.6,4.2-1.7
		c1.1-1.1,1.7-2.6,1.7-4.3c0-1.6-0.5-2.9-1.6-4s-2.4-1.6-4-1.6c-0.7,0-1.5,0.1-2.5,0.4l0.4-3.1c0.2,0,0.4,0,0.6,0
		c1.5,0,2.8-0.4,4-1.2c1.2-0.8,1.8-2,1.8-3.6c0-1.3-0.4-2.4-1.3-3.2c-0.9-0.8-2-1.3-3.4-1.3c-1.4,0-2.5,0.4-3.4,1.3
		c-0.9,0.9-1.5,2.1-1.8,3.9l-3.5-0.6c0.4-2.4,1.4-4.2,2.9-5.5s3.4-1.9,5.7-1.9c1.6,0,3,0.3,4.3,1c1.3,0.7,2.3,1.6,3,2.7
		c0.7,1.2,1,2.4,1,3.7c0,1.2-0.3,2.4-1,3.4s-1.6,1.8-2.9,2.4c1.7,0.4,3,1.2,3.9,2.4s1.4,2.8,1.4,4.6c0,2.5-0.9,4.6-2.7,6.4
		c-1.8,1.7-4.1,2.6-6.9,2.6c-2.5,0-4.6-0.7-6.3-2.2S118.8,1302.8,118.6,1300.4z"/>
	<path class="st3" d="M140.9,1300.4l3.5-0.5c0.4,2,1.1,3.4,2.1,4.3c1,0.9,2.2,1.3,3.5,1.3c1.7,0,3-0.6,4.2-1.7
		c1.1-1.1,1.7-2.6,1.7-4.3c0-1.6-0.5-2.9-1.6-4s-2.4-1.6-4-1.6c-0.7,0-1.5,0.1-2.5,0.4l0.4-3.1c0.2,0,0.4,0,0.6,0
		c1.5,0,2.8-0.4,4-1.2c1.2-0.8,1.8-2,1.8-3.6c0-1.3-0.4-2.4-1.3-3.2c-0.9-0.8-2-1.3-3.4-1.3c-1.4,0-2.5,0.4-3.4,1.3
		c-0.9,0.9-1.5,2.1-1.8,3.9l-3.5-0.6c0.4-2.4,1.4-4.2,2.9-5.5s3.4-1.9,5.7-1.9c1.6,0,3,0.3,4.3,1c1.3,0.7,2.3,1.6,3,2.7
		c0.7,1.2,1,2.4,1,3.7c0,1.2-0.3,2.4-1,3.4s-1.6,1.8-2.9,2.4c1.7,0.4,3,1.2,3.9,2.4s1.4,2.8,1.4,4.6c0,2.5-0.9,4.6-2.7,6.4
		c-1.8,1.7-4.1,2.6-6.9,2.6c-2.5,0-4.6-0.7-6.3-2.2S141.1,1302.8,140.9,1300.4z"/>
	<path class="st3" d="M168.5,1292.5c-1.5-0.5-2.5-1.3-3.2-2.3s-1.1-2.2-1.1-3.6c0-2.1,0.7-3.8,2.2-5.3c1.5-1.4,3.5-2.1,6-2.1
		c2.5,0,4.5,0.7,6,2.2s2.3,3.2,2.3,5.3c0,1.3-0.3,2.5-1,3.5c-0.7,1-1.8,1.7-3.2,2.3c1.8,0.6,3.1,1.5,4,2.8s1.4,2.8,1.4,4.6
		c0,2.4-0.9,4.5-2.6,6.2c-1.7,1.7-4,2.5-6.8,2.5c-2.8,0-5.1-0.8-6.8-2.5c-1.7-1.7-2.6-3.8-2.6-6.3c0-1.9,0.5-3.4,1.4-4.7
		C165.4,1293.8,166.7,1292.9,168.5,1292.5z M166.7,1299.7c0,1,0.2,2,0.7,2.9c0.5,0.9,1.2,1.7,2.1,2.2s1.9,0.8,3,0.8
		c1.7,0,3.1-0.5,4.2-1.6s1.6-2.5,1.6-4.1c0-1.7-0.6-3.1-1.7-4.2c-1.1-1.1-2.5-1.7-4.2-1.7c-1.7,0-3,0.5-4.1,1.6
		C167.2,1296.7,166.7,1298.1,166.7,1299.7z M167.8,1286.5c0,1.4,0.4,2.5,1.3,3.3c0.9,0.9,2,1.3,3.4,1.3c1.4,0,2.5-0.4,3.3-1.3
		c0.9-0.9,1.3-1.9,1.3-3.1c0-1.3-0.4-2.4-1.3-3.3c-0.9-0.9-2-1.3-3.3-1.3c-1.3,0-2.5,0.4-3.3,1.3
		C168.2,1284.3,167.8,1285.3,167.8,1286.5z"/>
	<path class="st3" d="M185.3,1300.5l3.7-0.3c0.3,1.8,0.9,3.1,1.9,4.1s2.2,1.4,3.6,1.4c1.7,0,3.1-0.6,4.3-1.9s1.8-3,1.8-5.1
		c0-2-0.6-3.6-1.7-4.7c-1.1-1.2-2.6-1.7-4.4-1.7c-1.1,0-2.2,0.3-3.1,0.8c-0.9,0.5-1.6,1.2-2.1,2l-3.3-0.4l2.8-14.7H203v3.4h-11.4
		l-1.5,7.7c1.7-1.2,3.5-1.8,5.4-1.8c2.5,0,4.6,0.9,6.3,2.6s2.6,4,2.6,6.7c0,2.6-0.8,4.8-2.3,6.7c-1.8,2.3-4.3,3.5-7.5,3.5
		c-2.6,0-4.7-0.7-6.4-2.2C186.5,1304.8,185.6,1302.9,185.3,1300.5z"/>
	<path class="st3" d="M205.9,1308l11-28.6h4.1l11.7,28.6h-4.3l-3.3-8.7h-12l-3.1,8.7H205.9z M214.1,1296.2h9.7l-3-7.9
		c-0.9-2.4-1.6-4.4-2-5.9c-0.4,1.8-0.9,3.7-1.5,5.5L214.1,1296.2z"/>
</g>
<g class="st0">
	<path class="st3" d="M68,1481.5l1.7-8.3h-3.3v-2.9h3.9l1.4-7.1h-5.3v-2.9h5.9l1.7-8.4H77l-1.7,8.4h6.2l1.7-8.4h2.9l-1.7,8.4h3.4
		v2.9h-4l-1.5,7.1h5.4v2.9h-6l-1.7,8.3h-2.9l1.7-8.3h-6.1l-1.7,8.3H68z M73.2,1470.3h6.1l1.5-7.1h-6.2L73.2,1470.3z"/>
	<path class="st3" d="M91.4,1481v-28.6h20.7v3.4H95.2v8.8H111v3.4H95.2v9.7h17.6v3.4H91.4z"/>
	<path class="st3" d="M117.9,1481v-28.6h10.7c2.2,0,3.9,0.3,5.3,0.9c1.3,0.6,2.4,1.5,3.1,2.7c0.7,1.2,1.1,2.5,1.1,3.8
		c0,1.2-0.3,2.4-1,3.5s-1.7,2-3,2.6c1.7,0.5,3.1,1.4,4,2.6c0.9,1.2,1.4,2.7,1.4,4.3c0,1.3-0.3,2.6-0.8,3.7s-1.3,2-2.1,2.7
		c-0.8,0.6-1.9,1.1-3.1,1.4c-1.3,0.3-2.8,0.5-4.6,0.5H117.9z M121.6,1464.4h6.2c1.7,0,2.9-0.1,3.6-0.3c1-0.3,1.7-0.8,2.2-1.4
		s0.7-1.5,0.7-2.5c0-1-0.2-1.8-0.7-2.5c-0.5-0.7-1.1-1.2-2-1.5c-0.8-0.3-2.3-0.4-4.4-0.4h-5.7V1464.4z M121.6,1477.6h7.1
		c1.2,0,2.1,0,2.6-0.1c0.9-0.2,1.6-0.4,2.2-0.8s1.1-0.9,1.4-1.6c0.4-0.7,0.6-1.5,0.6-2.4c0-1.1-0.3-2-0.8-2.8s-1.3-1.3-2.3-1.7
		c-1-0.3-2.4-0.5-4.2-0.5h-6.6V1477.6z"/>
	<path class="st3" d="M161.5,1459.4l-3.5,0.3c-0.3-1.4-0.8-2.4-1.3-3c-1-1-2.1-1.5-3.5-1.5c-1.1,0-2.1,0.3-2.9,0.9
		c-1.1,0.8-2,2-2.6,3.5c-0.6,1.5-1,3.8-1,6.6c0.8-1.3,1.9-2.2,3.1-2.9c1.2-0.6,2.5-0.9,3.8-0.9c2.3,0,4.3,0.9,6,2.6
		c1.6,1.7,2.5,4,2.5,6.7c0,1.8-0.4,3.5-1.2,5c-0.8,1.5-1.8,2.7-3.2,3.5c-1.4,0.8-2.9,1.2-4.6,1.2c-2.9,0-5.3-1.1-7.2-3.2
		c-1.8-2.2-2.8-5.7-2.8-10.7c0-5.5,1-9.6,3.1-12.1c1.8-2.2,4.2-3.3,7.2-3.3c2.3,0,4.1,0.6,5.5,1.9
		C160.4,1455.4,161.2,1457.2,161.5,1459.4z M147.2,1471.7c0,1.2,0.3,2.4,0.8,3.5c0.5,1.1,1.2,2,2.2,2.5c0.9,0.6,1.9,0.9,2.9,0.9
		c1.5,0,2.8-0.6,3.8-1.8c1.1-1.2,1.6-2.8,1.6-4.9c0-2-0.5-3.5-1.6-4.7s-2.4-1.7-4-1.7c-1.6,0-2.9,0.6-4,1.7
		C147.7,1468.4,147.2,1469.9,147.2,1471.7z"/>
	<path class="st3" d="M163.8,1481l11-28.6h4.1l11.7,28.6h-4.3l-3.3-8.7h-12l-3.1,8.7H163.8z M172.1,1469.2h9.7l-3-7.9
		c-0.9-2.4-1.6-4.4-2-5.9c-0.4,1.8-0.9,3.7-1.5,5.5L172.1,1469.2z"/>
	<path class="st3" d="M210.4,1459.4l-3.5,0.3c-0.3-1.4-0.8-2.4-1.3-3c-1-1-2.1-1.5-3.5-1.5c-1.1,0-2.1,0.3-2.9,0.9
		c-1.1,0.8-2,2-2.6,3.5c-0.6,1.5-1,3.8-1,6.6c0.8-1.3,1.9-2.2,3.1-2.9c1.2-0.6,2.5-0.9,3.8-0.9c2.3,0,4.3,0.9,6,2.6
		c1.6,1.7,2.5,4,2.5,6.7c0,1.8-0.4,3.5-1.2,5c-0.8,1.5-1.8,2.7-3.2,3.5c-1.4,0.8-2.9,1.2-4.6,1.2c-2.9,0-5.3-1.1-7.2-3.2
		c-1.8-2.2-2.8-5.7-2.8-10.7c0-5.5,1-9.6,3.1-12.1c1.8-2.2,4.2-3.3,7.2-3.3c2.3,0,4.1,0.6,5.5,1.9
		C209.3,1455.4,210.1,1457.2,210.4,1459.4z M196.1,1471.7c0,1.2,0.3,2.4,0.8,3.5c0.5,1.1,1.2,2,2.2,2.5c0.9,0.6,1.9,0.9,2.9,0.9
		c1.5,0,2.8-0.6,3.8-1.8c1.1-1.2,1.6-2.8,1.6-4.9c0-2-0.5-3.5-1.6-4.7s-2.4-1.7-4-1.7c-1.6,0-2.9,0.6-4,1.7
		C196.6,1468.4,196.1,1469.9,196.1,1471.7z"/>
	<path class="st3" d="M232.7,1459.4l-3.5,0.3c-0.3-1.4-0.8-2.4-1.3-3c-1-1-2.1-1.5-3.5-1.5c-1.1,0-2.1,0.3-2.9,0.9
		c-1.1,0.8-2,2-2.6,3.5c-0.6,1.5-1,3.8-1,6.6c0.8-1.3,1.9-2.2,3.1-2.9c1.2-0.6,2.5-0.9,3.8-0.9c2.3,0,4.3,0.9,6,2.6
		c1.6,1.7,2.5,4,2.5,6.7c0,1.8-0.4,3.5-1.2,5c-0.8,1.5-1.8,2.7-3.2,3.5c-1.4,0.8-2.9,1.2-4.6,1.2c-2.9,0-5.3-1.1-7.2-3.2
		c-1.8-2.2-2.8-5.7-2.8-10.7c0-5.5,1-9.6,3.1-12.1c1.8-2.2,4.2-3.3,7.2-3.3c2.3,0,4.1,0.6,5.5,1.9
		C231.5,1455.4,232.4,1457.2,232.7,1459.4z M218.3,1471.7c0,1.2,0.3,2.4,0.8,3.5c0.5,1.1,1.2,2,2.2,2.5c0.9,0.6,1.9,0.9,2.9,0.9
		c1.5,0,2.8-0.6,3.8-1.8c1.1-1.2,1.6-2.8,1.6-4.9c0-2-0.5-3.5-1.6-4.7s-2.4-1.7-4-1.7c-1.6,0-2.9,0.6-4,1.7
		C218.9,1468.4,218.3,1469.9,218.3,1471.7z"/>
</g>
<linearGradient id="Rectangle-Copy-5_1_" gradientUnits="userSpaceOnUse" x1="623.01" y1="1165.63" x2="623.01" y2="1164.63" gradientTransform="matrix(300 0 0 -300 -186403 350918)">
	<stop  offset="0" style="stop-color:#336CD6"/>
	<stop  offset="1" style="stop-color:#58AEE8"/>
</linearGradient>
<rect id="Rectangle-Copy-5" x="350" y="1229" class="st4" width="300" height="300"/>
<g class="st0">
	<path class="st3" d="M416,1308.5l1.7-8.3h-3.3v-2.9h3.9l1.4-7.1h-5.3v-2.9h5.9l1.7-8.4h2.9l-1.7,8.4h6.2l1.7-8.4h2.9l-1.7,8.4h3.4
		v2.9h-4l-1.5,7.1h5.4v2.9h-6l-1.7,8.3h-2.9l1.7-8.3h-6.1l-1.7,8.3H416z M421.2,1297.3h6.1l1.5-7.1h-6.2L421.2,1297.3z"/>
	<path class="st3" d="M437.9,1300.4l3.5-0.5c0.4,2,1.1,3.4,2.1,4.3c1,0.9,2.2,1.3,3.5,1.3c1.7,0,3-0.6,4.2-1.7
		c1.1-1.1,1.7-2.6,1.7-4.3c0-1.6-0.5-2.9-1.6-4s-2.4-1.6-4-1.6c-0.7,0-1.5,0.1-2.5,0.4l0.4-3.1c0.2,0,0.4,0,0.6,0
		c1.5,0,2.8-0.4,4-1.2c1.2-0.8,1.8-2,1.8-3.6c0-1.3-0.4-2.4-1.3-3.2c-0.9-0.8-2-1.3-3.4-1.3c-1.4,0-2.5,0.4-3.4,1.3
		c-0.9,0.9-1.5,2.1-1.8,3.9l-3.5-0.6c0.4-2.4,1.4-4.2,2.9-5.5s3.4-1.9,5.7-1.9c1.6,0,3,0.3,4.3,1c1.3,0.7,2.3,1.6,3,2.7
		c0.7,1.2,1,2.4,1,3.7c0,1.2-0.3,2.4-1,3.4s-1.6,1.8-2.9,2.4c1.7,0.4,3,1.2,3.9,2.4s1.4,2.8,1.4,4.6c0,2.5-0.9,4.6-2.7,6.4
		c-1.8,1.7-4.1,2.6-6.9,2.6c-2.5,0-4.6-0.7-6.3-2.2S438.2,1302.8,437.9,1300.4z"/>
	<path class="st3" d="M460.2,1300.4l3.5-0.5c0.4,2,1.1,3.4,2.1,4.3c1,0.9,2.2,1.3,3.5,1.3c1.7,0,3-0.6,4.2-1.7
		c1.1-1.1,1.7-2.6,1.7-4.3c0-1.6-0.5-2.9-1.6-4s-2.4-1.6-4-1.6c-0.7,0-1.5,0.1-2.5,0.4l0.4-3.1c0.2,0,0.4,0,0.6,0
		c1.5,0,2.8-0.4,4-1.2c1.2-0.8,1.8-2,1.8-3.6c0-1.3-0.4-2.4-1.3-3.2c-0.9-0.8-2-1.3-3.4-1.3c-1.4,0-2.5,0.4-3.4,1.3
		c-0.9,0.9-1.5,2.1-1.8,3.9l-3.5-0.6c0.4-2.4,1.4-4.2,2.9-5.5s3.4-1.9,5.7-1.9c1.6,0,3,0.3,4.3,1c1.3,0.7,2.3,1.6,3,2.7
		c0.7,1.2,1,2.4,1,3.7c0,1.2-0.3,2.4-1,3.4s-1.6,1.8-2.9,2.4c1.7,0.4,3,1.2,3.9,2.4s1.4,2.8,1.4,4.6c0,2.5-0.9,4.6-2.7,6.4
		c-1.8,1.7-4.1,2.6-6.9,2.6c-2.5,0-4.6-0.7-6.3-2.2S460.4,1302.8,460.2,1300.4z"/>
	<path class="st3" d="M500.6,1286.4l-3.5,0.3c-0.3-1.4-0.8-2.4-1.3-3c-1-1-2.1-1.5-3.5-1.5c-1.1,0-2.1,0.3-2.9,0.9
		c-1.1,0.8-2,2-2.6,3.5c-0.6,1.5-1,3.8-1,6.6c0.8-1.3,1.9-2.2,3.1-2.9c1.2-0.6,2.5-0.9,3.8-0.9c2.3,0,4.3,0.9,6,2.6
		c1.6,1.7,2.5,4,2.5,6.7c0,1.8-0.4,3.5-1.2,5c-0.8,1.5-1.8,2.7-3.2,3.5c-1.4,0.8-2.9,1.2-4.6,1.2c-2.9,0-5.3-1.1-7.2-3.2
		c-1.8-2.2-2.8-5.7-2.8-10.7c0-5.5,1-9.6,3.1-12.1c1.8-2.2,4.2-3.3,7.2-3.3c2.3,0,4.1,0.6,5.5,1.9
		C499.5,1282.4,500.4,1284.2,500.6,1286.4z M486.3,1298.7c0,1.2,0.3,2.4,0.8,3.5c0.5,1.1,1.2,2,2.2,2.5c0.9,0.6,1.9,0.9,2.9,0.9
		c1.5,0,2.8-0.6,3.8-1.8c1.1-1.2,1.6-2.8,1.6-4.9c0-2-0.5-3.5-1.6-4.7s-2.4-1.7-4-1.7c-1.6,0-2.9,0.6-4,1.7
		C486.8,1295.4,486.3,1296.9,486.3,1298.7z"/>
	<path class="st3" d="M526.5,1298l3.8,1c-0.8,3.1-2.2,5.5-4.3,7.1c-2.1,1.6-4.6,2.5-7.6,2.5c-3.1,0-5.6-0.6-7.5-1.9
		s-3.4-3.1-4.4-5.5c-1-2.4-1.5-4.9-1.5-7.7c0-3,0.6-5.6,1.7-7.8c1.1-2.2,2.8-3.9,4.9-5.1c2.1-1.2,4.4-1.7,6.9-1.7
		c2.9,0,5.3,0.7,7.2,2.2s3.3,3.5,4.1,6.2l-3.7,0.9c-0.7-2.1-1.6-3.6-2.9-4.6c-1.3-1-2.9-1.4-4.8-1.4c-2.2,0-4,0.5-5.5,1.6
		c-1.5,1.1-2.5,2.5-3.1,4.2c-0.6,1.8-0.9,3.6-0.9,5.5c0,2.4,0.4,4.6,1.1,6.4c0.7,1.8,1.8,3.2,3.3,4.1c1.5,0.9,3.1,1.3,4.9,1.3
		c2.1,0,3.9-0.6,5.4-1.8C525,1302.2,526,1300.4,526.5,1298z"/>
	<path class="st3" d="M535,1308v-28.6h9.9c2.2,0,3.9,0.1,5.1,0.4c1.6,0.4,3,1.1,4.2,2.1c1.5,1.3,2.6,2.9,3.4,4.9
		c0.7,2,1.1,4.3,1.1,6.8c0,2.2-0.3,4.1-0.8,5.8s-1.2,3.1-2,4.2c-0.8,1.1-1.7,2-2.6,2.6c-0.9,0.6-2.1,1.1-3.4,1.4
		c-1.3,0.3-2.9,0.5-4.6,0.5H535z M538.7,1304.6h6.1c1.9,0,3.4-0.2,4.4-0.5s1.9-0.8,2.6-1.5c0.9-0.9,1.6-2.1,2.1-3.6
		c0.5-1.5,0.8-3.4,0.8-5.5c0-3-0.5-5.3-1.5-6.9c-1-1.6-2.2-2.7-3.6-3.2c-1-0.4-2.6-0.6-4.9-0.6h-6V1304.6z"/>
	<path class="st3" d="M580.7,1286.4l-3.5,0.3c-0.3-1.4-0.8-2.4-1.3-3c-1-1-2.1-1.5-3.5-1.5c-1.1,0-2.1,0.3-2.9,0.9
		c-1.1,0.8-2,2-2.6,3.5c-0.6,1.5-1,3.8-1,6.6c0.8-1.3,1.9-2.2,3.1-2.9c1.2-0.6,2.5-0.9,3.8-0.9c2.3,0,4.3,0.9,6,2.6
		c1.6,1.7,2.5,4,2.5,6.7c0,1.8-0.4,3.5-1.2,5c-0.8,1.5-1.8,2.7-3.2,3.5c-1.4,0.8-2.9,1.2-4.6,1.2c-2.9,0-5.3-1.1-7.2-3.2
		c-1.8-2.2-2.8-5.7-2.8-10.7c0-5.5,1-9.6,3.1-12.1c1.8-2.2,4.2-3.3,7.2-3.3c2.3,0,4.1,0.6,5.5,1.9
		C579.5,1282.4,580.4,1284.2,580.7,1286.4z M566.3,1298.7c0,1.2,0.3,2.4,0.8,3.5c0.5,1.1,1.2,2,2.2,2.5c0.9,0.6,1.9,0.9,2.9,0.9
		c1.5,0,2.8-0.6,3.8-1.8c1.1-1.2,1.6-2.8,1.6-4.9c0-2-0.5-3.5-1.6-4.7s-2.4-1.7-4-1.7c-1.6,0-2.9,0.6-4,1.7
		C566.9,1295.4,566.3,1296.9,566.3,1298.7z"/>
</g>
<g class="st0">
	<path class="st3" d="M420,1481.5l1.7-8.3h-3.3v-2.9h3.9l1.4-7.1h-5.3v-2.9h5.9l1.7-8.4h2.9l-1.7,8.4h6.2l1.7-8.4h2.9l-1.7,8.4h3.4
		v2.9h-4l-1.5,7.1h5.4v2.9h-6l-1.7,8.3h-2.9l1.7-8.3h-6.1l-1.7,8.3H420z M425.2,1470.3h6.1l1.5-7.1h-6.2L425.2,1470.3z"/>
	<path class="st3" d="M441.9,1473.5l3.7-0.3c0.3,1.8,0.9,3.1,1.9,4.1s2.2,1.4,3.6,1.4c1.7,0,3.1-0.6,4.3-1.9s1.8-3,1.8-5.1
		c0-2-0.6-3.6-1.7-4.7c-1.1-1.2-2.6-1.7-4.4-1.7c-1.1,0-2.2,0.3-3.1,0.8c-0.9,0.5-1.6,1.2-2.1,2l-3.3-0.4l2.8-14.7h14.2v3.4h-11.4
		l-1.5,7.7c1.7-1.2,3.5-1.8,5.4-1.8c2.5,0,4.6,0.9,6.3,2.6s2.6,4,2.6,6.7c0,2.6-0.8,4.8-2.3,6.7c-1.8,2.3-4.3,3.5-7.5,3.5
		c-2.6,0-4.7-0.7-6.4-2.2C443.1,1477.8,442.1,1475.9,441.9,1473.5z"/>
	<path class="st3" d="M469.6,1465.5c-1.5-0.5-2.5-1.3-3.2-2.3s-1.1-2.2-1.1-3.6c0-2.1,0.7-3.8,2.2-5.3c1.5-1.4,3.5-2.1,6-2.1
		c2.5,0,4.5,0.7,6,2.2s2.3,3.2,2.3,5.3c0,1.3-0.3,2.5-1,3.5c-0.7,1-1.8,1.7-3.2,2.3c1.8,0.6,3.1,1.5,4,2.8s1.4,2.8,1.4,4.6
		c0,2.4-0.9,4.5-2.6,6.2c-1.7,1.7-4,2.5-6.8,2.5c-2.8,0-5.1-0.8-6.8-2.5c-1.7-1.7-2.6-3.8-2.6-6.3c0-1.9,0.5-3.4,1.4-4.7
		C466.5,1466.8,467.8,1465.9,469.6,1465.5z M467.7,1472.7c0,1,0.2,2,0.7,2.9c0.5,0.9,1.2,1.7,2.1,2.2s1.9,0.8,3,0.8
		c1.7,0,3.1-0.5,4.2-1.6s1.6-2.5,1.6-4.1c0-1.7-0.6-3.1-1.7-4.2c-1.1-1.1-2.5-1.7-4.2-1.7c-1.7,0-3,0.5-4.1,1.6
		C468.3,1469.7,467.7,1471.1,467.7,1472.7z M468.9,1459.5c0,1.4,0.4,2.5,1.3,3.3c0.9,0.9,2,1.3,3.4,1.3c1.4,0,2.5-0.4,3.3-1.3
		c0.9-0.9,1.3-1.9,1.3-3.1c0-1.3-0.4-2.4-1.3-3.3c-0.9-0.9-2-1.3-3.3-1.3c-1.3,0-2.5,0.4-3.3,1.3
		C469.3,1457.3,468.9,1458.3,468.9,1459.5z"/>
	<path class="st3" d="M484.7,1481l11-28.6h4.1l11.7,28.6h-4.3l-3.3-8.7h-12l-3.1,8.7H484.7z M492.9,1469.2h9.7l-3-7.9
		c-0.9-2.4-1.6-4.4-2-5.9c-0.4,1.8-0.9,3.7-1.5,5.5L492.9,1469.2z"/>
	<path class="st3" d="M514.6,1481v-28.6h20.7v3.4h-16.9v8.8h15.8v3.4h-15.8v9.7h17.6v3.4H514.6z"/>
	<path class="st3" d="M541.3,1481v-28.6H562v3.4h-16.9v8.8h15.8v3.4h-15.8v9.7h17.6v3.4H541.3z"/>
	<path class="st3" d="M571.8,1465.5c-1.5-0.5-2.5-1.3-3.2-2.3s-1.1-2.2-1.1-3.6c0-2.1,0.7-3.8,2.2-5.3c1.5-1.4,3.5-2.1,6-2.1
		c2.5,0,4.5,0.7,6,2.2s2.3,3.2,2.3,5.3c0,1.3-0.3,2.5-1,3.5c-0.7,1-1.8,1.7-3.2,2.3c1.8,0.6,3.1,1.5,4,2.8s1.4,2.8,1.4,4.6
		c0,2.4-0.9,4.5-2.6,6.2c-1.7,1.7-4,2.5-6.8,2.5c-2.8,0-5.1-0.8-6.8-2.5c-1.7-1.7-2.6-3.8-2.6-6.3c0-1.9,0.5-3.4,1.4-4.7
		C568.8,1466.8,570.1,1465.9,571.8,1465.5z M570,1472.7c0,1,0.2,2,0.7,2.9c0.5,0.9,1.2,1.7,2.1,2.2s1.9,0.8,3,0.8
		c1.7,0,3.1-0.5,4.2-1.6s1.6-2.5,1.6-4.1c0-1.7-0.6-3.1-1.7-4.2c-1.1-1.1-2.5-1.7-4.2-1.7c-1.7,0-3,0.5-4.1,1.6
		C570.6,1469.7,570,1471.1,570,1472.7z M571.1,1459.5c0,1.4,0.4,2.5,1.3,3.3c0.9,0.9,2,1.3,3.4,1.3c1.4,0,2.5-0.4,3.3-1.3
		c0.9-0.9,1.3-1.9,1.3-3.1c0-1.3-0.4-2.4-1.3-3.3c-0.9-0.9-2-1.3-3.3-1.3c-1.3,0-2.5,0.4-3.3,1.3
		C571.6,1457.3,571.1,1458.3,571.1,1459.5z"/>
</g>
<g class="st0">
	<path class="st1" d="M35.3,41.9l5.7,1.4c-1.2,4.7-3.3,8.2-6.4,10.7c-3.1,2.5-6.9,3.7-11.4,3.7c-4.6,0-8.4-0.9-11.3-2.8
		s-5.1-4.6-6.6-8.2C3.7,43.1,3,39.3,3,35.2c0-4.5,0.9-8.4,2.6-11.7c1.7-3.3,4.1-5.9,7.3-7.6c3.2-1.7,6.6-2.6,10.4-2.6
		c4.3,0,7.9,1.1,10.8,3.3s5,5.3,6.1,9.2l-5.6,1.3c-1-3.1-2.4-5.4-4.3-6.8c-1.9-1.4-4.3-2.1-7.1-2.1c-3.3,0-6.1,0.8-8.3,2.4
		c-2.2,1.6-3.8,3.7-4.7,6.4c-0.9,2.7-1.3,5.4-1.3,8.2c0,3.7,0.5,6.8,1.6,9.6c1.1,2.7,2.7,4.8,5,6.1c2.2,1.3,4.7,2,7.3,2
		c3.2,0,5.9-0.9,8.1-2.8C33,48.3,34.5,45.6,35.3,41.9z"/>
	<path class="st1" d="M45.3,41.4c0-5.8,1.6-10,4.8-12.8c2.7-2.3,5.9-3.5,9.8-3.5c4.3,0,7.8,1.4,10.5,4.2c2.7,2.8,4.1,6.7,4.1,11.6
		c0,4-0.6,7.2-1.8,9.4s-2.9,4.1-5.2,5.3c-2.3,1.3-4.8,1.9-7.5,1.9c-4.4,0-7.9-1.4-10.6-4.2C46.7,50.7,45.3,46.7,45.3,41.4z
		 M50.7,41.4c0,4,0.9,7,2.6,9c1.7,2,3.9,3,6.6,3c2.6,0,4.8-1,6.5-3c1.7-2,2.6-5,2.6-9.1c0-3.8-0.9-6.8-2.6-8.7c-1.7-2-3.9-3-6.5-3
		c-2.6,0-4.8,1-6.6,3C51.6,34.5,50.7,37.5,50.7,41.4z"/>
	<path class="st1" d="M80.5,57V14.1h5.3V57H80.5z"/>
	<path class="st1" d="M92,41.4c0-5.8,1.6-10,4.8-12.8c2.7-2.3,5.9-3.5,9.8-3.5c4.3,0,7.8,1.4,10.5,4.2c2.7,2.8,4.1,6.7,4.1,11.6
		c0,4-0.6,7.2-1.8,9.4s-2.9,4.1-5.2,5.3c-2.3,1.3-4.8,1.9-7.5,1.9c-4.4,0-7.9-1.4-10.6-4.2C93.4,50.7,92,46.7,92,41.4z M97.4,41.4
		c0,4,0.9,7,2.6,9c1.7,2,3.9,3,6.6,3c2.6,0,4.8-1,6.5-3c1.7-2,2.6-5,2.6-9.1c0-3.8-0.9-6.8-2.6-8.7c-1.7-2-3.9-3-6.5-3
		c-2.6,0-4.8,1-6.6,3C98.3,34.5,97.4,37.5,97.4,41.4z"/>
	<path class="st1" d="M127.3,57V25.9h4.7v4.7c1.2-2.2,2.3-3.7,3.4-4.4s2.2-1.1,3.4-1.1c1.8,0,3.6,0.6,5.4,1.7l-1.8,4.9
		c-1.3-0.8-2.6-1.1-3.9-1.1c-1.2,0-2.2,0.3-3.1,1c-0.9,0.7-1.6,1.7-2,2.9c-0.6,1.9-0.9,3.9-0.9,6.2V57H127.3z"/>
	<path class="st1" d="M164.7,57V14.1h16.2c2.9,0,5,0.1,6.5,0.4c2.1,0.4,3.9,1,5.3,2c1.4,1,2.6,2.4,3.4,4.1c0.9,1.8,1.3,3.7,1.3,5.9
		c0,3.7-1.2,6.7-3.5,9.3c-2.3,2.5-6.5,3.8-12.6,3.8h-11V57H164.7z M170.4,34.5h11.1c3.7,0,6.3-0.7,7.8-2.1c1.5-1.4,2.3-3.3,2.3-5.8
		c0-1.8-0.5-3.3-1.4-4.6s-2.1-2.1-3.6-2.5c-1-0.3-2.7-0.4-5.3-0.4h-11V34.5z"/>
	<path class="st1" d="M224.3,53.2c-2,1.7-3.8,2.8-5.6,3.5c-1.8,0.7-3.7,1-5.8,1c-3.4,0-6-0.8-7.9-2.5c-1.8-1.7-2.8-3.8-2.8-6.4
		c0-1.5,0.3-2.9,1-4.2c0.7-1.3,1.6-2.3,2.7-3c1.1-0.8,2.4-1.3,3.8-1.7c1-0.3,2.6-0.5,4.7-0.8c4.3-0.5,7.4-1.1,9.4-1.8
		c0-0.7,0-1.2,0-1.4c0-2.1-0.5-3.7-1.5-4.5c-1.3-1.2-3.4-1.8-6-1.8c-2.5,0-4.3,0.4-5.5,1.3c-1.2,0.9-2.1,2.4-2.6,4.6l-5.2-0.7
		c0.5-2.2,1.2-4,2.3-5.3c1.1-1.4,2.6-2.4,4.7-3.1c2-0.7,4.4-1.1,7.1-1.1c2.7,0,4.8,0.3,6.5,0.9c1.7,0.6,2.9,1.4,3.7,2.4
		c0.8,0.9,1.3,2.1,1.6,3.6c0.2,0.9,0.3,2.5,0.3,4.9v7c0,4.9,0.1,8,0.3,9.3c0.2,1.3,0.7,2.5,1.3,3.7h-5.5
		C224.8,55.9,224.5,54.6,224.3,53.2z M223.9,41.4c-1.9,0.8-4.8,1.4-8.6,2c-2.2,0.3-3.7,0.7-4.6,1.1c-0.9,0.4-1.6,1-2.1,1.7
		c-0.5,0.8-0.7,1.6-0.7,2.5c0,1.4,0.5,2.6,1.6,3.5c1.1,0.9,2.6,1.4,4.7,1.4c2,0,3.8-0.4,5.4-1.3s2.7-2.1,3.5-3.6
		c0.6-1.2,0.8-2.9,0.8-5.3V41.4z"/>
	<path class="st1" d="M237.3,57V14.1h5.3V57H237.3z"/>
	<path class="st1" d="M272,47l5.4,0.7c-0.9,3.2-2.5,5.7-4.8,7.4c-2.3,1.8-5.3,2.6-8.9,2.6c-4.6,0-8.2-1.4-10.8-4.2s-4-6.7-4-11.8
		c0-5.2,1.3-9.3,4-12.2s6.2-4.3,10.5-4.3c4.2,0,7.6,1.4,10.2,4.2s4,6.8,4,12c0,0.3,0,0.8,0,1.4h-23.2c0.2,3.4,1.2,6,2.9,7.9
		c1.7,1.8,3.9,2.7,6.5,2.7c1.9,0,3.6-0.5,5-1.5C270.1,50.8,271.2,49.2,272,47z M254.7,38.5h17.4c-0.2-2.6-0.9-4.6-2-5.9
		c-1.7-2-3.9-3-6.5-3c-2.4,0-4.5,0.8-6.1,2.4C255.8,33.6,254.9,35.7,254.7,38.5z"/>
	<path class="st1" d="M295.6,52.3l0.8,4.7c-1.5,0.3-2.8,0.5-4,0.5c-1.9,0-3.4-0.3-4.5-0.9s-1.8-1.4-2.2-2.4c-0.4-1-0.6-3.1-0.6-6.2
		V30h-3.9v-4.1h3.9v-7.7l5.2-3.2v10.9h5.3V30h-5.3v18.2c0,1.5,0.1,2.5,0.3,2.9c0.2,0.4,0.5,0.8,0.9,1c0.4,0.3,1,0.4,1.8,0.4
		C293.9,52.5,294.6,52.4,295.6,52.3z"/>
	<path class="st1" d="M312.3,52.3l0.8,4.7c-1.5,0.3-2.8,0.5-4,0.5c-1.9,0-3.4-0.3-4.5-0.9s-1.8-1.4-2.2-2.4c-0.4-1-0.6-3.1-0.6-6.2
		V30h-3.9v-4.1h3.9v-7.7L307,15v10.9h5.3V30H307v18.2c0,1.5,0.1,2.5,0.3,2.9c0.2,0.4,0.5,0.8,0.9,1c0.4,0.3,1,0.4,1.8,0.4
		C310.5,52.5,311.3,52.4,312.3,52.3z"/>
	<path class="st1" d="M338.7,47l5.4,0.7c-0.9,3.2-2.5,5.7-4.8,7.4c-2.3,1.8-5.3,2.6-8.9,2.6c-4.6,0-8.2-1.4-10.8-4.2s-4-6.7-4-11.8
		c0-5.2,1.3-9.3,4-12.2s6.2-4.3,10.5-4.3c4.2,0,7.6,1.4,10.2,4.2s4,6.8,4,12c0,0.3,0,0.8,0,1.4h-23.2c0.2,3.4,1.2,6,2.9,7.9
		c1.7,1.8,3.9,2.7,6.5,2.7c1.9,0,3.6-0.5,5-1.5C336.8,50.8,337.9,49.2,338.7,47z M321.4,38.5h17.4c-0.2-2.6-0.9-4.6-2-5.9
		c-1.7-2-3.9-3-6.5-3c-2.4,0-4.5,0.8-6.1,2.4C322.5,33.6,321.6,35.7,321.4,38.5z"/>
</g>
<rect id="Rectangle-Copy-59" y="149" class="st5" width="300" height="300"/>
<g class="st0">
	<path class="st3" d="M70,401.5l1.7-8.3h-3.3v-2.9h3.9l1.4-7.1h-5.3v-2.9h5.9l1.7-8.4H79l-1.7,8.4h6.2l1.7-8.4h2.9l-1.7,8.4h3.4v2.9
		h-4l-1.5,7.1h5.4v2.9h-6l-1.7,8.3h-2.9l1.7-8.3h-6.1l-1.7,8.3H70z M75.2,390.3h6.1l1.5-7.1h-6.2L75.2,390.3z"/>
	<path class="st3" d="M93.4,401v-28.6h20.7v3.4H97.2v8.8H113v3.4H97.2v9.7h17.6v3.4H93.4z"/>
	<path class="st3" d="M118.6,393.4l3.5-0.5c0.4,2,1.1,3.4,2.1,4.3c1,0.9,2.2,1.3,3.5,1.3c1.7,0,3-0.6,4.2-1.7
		c1.1-1.1,1.7-2.6,1.7-4.3c0-1.6-0.5-2.9-1.6-4s-2.4-1.6-4-1.6c-0.7,0-1.5,0.1-2.5,0.4l0.4-3.1c0.2,0,0.4,0,0.6,0
		c1.5,0,2.8-0.4,4-1.2c1.2-0.8,1.8-2,1.8-3.6c0-1.3-0.4-2.4-1.3-3.2c-0.9-0.8-2-1.3-3.4-1.3c-1.4,0-2.5,0.4-3.4,1.3
		c-0.9,0.9-1.5,2.1-1.8,3.9l-3.5-0.6c0.4-2.4,1.4-4.2,2.9-5.5s3.4-1.9,5.7-1.9c1.6,0,3,0.3,4.3,1c1.3,0.7,2.3,1.6,3,2.7
		c0.7,1.2,1,2.4,1,3.7c0,1.2-0.3,2.4-1,3.4s-1.6,1.8-2.9,2.4c1.7,0.4,3,1.2,3.9,2.4s1.4,2.8,1.4,4.6c0,2.5-0.9,4.6-2.7,6.4
		c-1.8,1.7-4.1,2.6-6.9,2.6c-2.5,0-4.6-0.7-6.3-2.2S118.8,395.8,118.6,393.4z"/>
	<path class="st3" d="M140.9,393.4l3.5-0.5c0.4,2,1.1,3.4,2.1,4.3c1,0.9,2.2,1.3,3.5,1.3c1.7,0,3-0.6,4.2-1.7
		c1.1-1.1,1.7-2.6,1.7-4.3c0-1.6-0.5-2.9-1.6-4s-2.4-1.6-4-1.6c-0.7,0-1.5,0.1-2.5,0.4l0.4-3.1c0.2,0,0.4,0,0.6,0
		c1.5,0,2.8-0.4,4-1.2c1.2-0.8,1.8-2,1.8-3.6c0-1.3-0.4-2.4-1.3-3.2c-0.9-0.8-2-1.3-3.4-1.3c-1.4,0-2.5,0.4-3.4,1.3
		c-0.9,0.9-1.5,2.1-1.8,3.9l-3.5-0.6c0.4-2.4,1.4-4.2,2.9-5.5s3.4-1.9,5.7-1.9c1.6,0,3,0.3,4.3,1c1.3,0.7,2.3,1.6,3,2.7
		c0.7,1.2,1,2.4,1,3.7c0,1.2-0.3,2.4-1,3.4s-1.6,1.8-2.9,2.4c1.7,0.4,3,1.2,3.9,2.4s1.4,2.8,1.4,4.6c0,2.5-0.9,4.6-2.7,6.4
		c-1.8,1.7-4.1,2.6-6.9,2.6c-2.5,0-4.6-0.7-6.3-2.2S141.1,395.8,140.9,393.4z"/>
	<path class="st3" d="M168.5,385.5c-1.5-0.5-2.5-1.3-3.2-2.3s-1.1-2.2-1.1-3.6c0-2.1,0.7-3.8,2.2-5.3c1.5-1.4,3.5-2.1,6-2.1
		c2.5,0,4.5,0.7,6,2.2s2.3,3.2,2.3,5.3c0,1.3-0.3,2.5-1,3.5c-0.7,1-1.8,1.7-3.2,2.3c1.8,0.6,3.1,1.5,4,2.8s1.4,2.8,1.4,4.6
		c0,2.4-0.9,4.5-2.6,6.2c-1.7,1.7-4,2.5-6.8,2.5c-2.8,0-5.1-0.8-6.8-2.5c-1.7-1.7-2.6-3.8-2.6-6.3c0-1.9,0.5-3.4,1.4-4.7
		C165.4,386.8,166.7,385.9,168.5,385.5z M166.7,392.7c0,1,0.2,2,0.7,2.9c0.5,0.9,1.2,1.7,2.1,2.2s1.9,0.8,3,0.8
		c1.7,0,3.1-0.5,4.2-1.6s1.6-2.5,1.6-4.1c0-1.7-0.6-3.1-1.7-4.2c-1.1-1.1-2.5-1.7-4.2-1.7c-1.7,0-3,0.5-4.1,1.6
		C167.2,389.7,166.7,391.1,166.7,392.7z M167.8,379.5c0,1.4,0.4,2.5,1.3,3.3c0.9,0.9,2,1.3,3.4,1.3c1.4,0,2.5-0.4,3.3-1.3
		c0.9-0.9,1.3-1.9,1.3-3.1c0-1.3-0.4-2.4-1.3-3.3c-0.9-0.9-2-1.3-3.3-1.3c-1.3,0-2.5,0.4-3.3,1.3
		C168.2,377.3,167.8,378.3,167.8,379.5z"/>
	<path class="st3" d="M185.3,393.5l3.7-0.3c0.3,1.8,0.9,3.1,1.9,4.1s2.2,1.4,3.6,1.4c1.7,0,3.1-0.6,4.3-1.9s1.8-3,1.8-5.1
		c0-2-0.6-3.6-1.7-4.7c-1.1-1.2-2.6-1.7-4.4-1.7c-1.1,0-2.2,0.3-3.1,0.8c-0.9,0.5-1.6,1.2-2.1,2l-3.3-0.4l2.8-14.7H203v3.4h-11.4
		l-1.5,7.7c1.7-1.2,3.5-1.8,5.4-1.8c2.5,0,4.6,0.9,6.3,2.6s2.6,4,2.6,6.7c0,2.6-0.8,4.8-2.3,6.7c-1.8,2.3-4.3,3.5-7.5,3.5
		c-2.6,0-4.7-0.7-6.4-2.2C186.5,397.8,185.6,395.9,185.3,393.5z"/>
	<path class="st3" d="M205.9,401l11-28.6h4.1l11.7,28.6h-4.3l-3.3-8.7h-12l-3.1,8.7H205.9z M214.1,389.2h9.7l-3-7.9
		c-0.9-2.4-1.6-4.4-2-5.9c-0.4,1.8-0.9,3.7-1.5,5.5L214.1,389.2z"/>
</g>
<rect id="Rectangle-Copy-59_1_" x="350" y="149" class="st6" width="300" height="300"/>
<g class="st0">
	<path class="st3" d="M420,401.5l1.7-8.3h-3.3v-2.9h3.9l1.4-7.1h-5.3v-2.9h5.9l1.7-8.4h2.9l-1.7,8.4h6.2l1.7-8.4h2.9l-1.7,8.4h3.4
		v2.9h-4l-1.5,7.1h5.4v2.9h-6l-1.7,8.3h-2.9l1.7-8.3h-6.1l-1.7,8.3H420z M425.2,390.3h6.1l1.5-7.1h-6.2L425.2,390.3z"/>
	<path class="st3" d="M443.4,401v-28.6h20.7v3.4h-16.9v8.8H463v3.4h-15.8v9.7h17.6v3.4H443.4z"/>
	<path class="st3" d="M469.9,401v-28.6h10.7c2.2,0,3.9,0.3,5.3,0.9c1.3,0.6,2.4,1.5,3.1,2.7c0.7,1.2,1.1,2.5,1.1,3.8
		c0,1.2-0.3,2.4-1,3.5s-1.7,2-3,2.6c1.7,0.5,3.1,1.4,4,2.6c0.9,1.2,1.4,2.7,1.4,4.3c0,1.3-0.3,2.6-0.8,3.7s-1.3,2-2.1,2.7
		c-0.8,0.6-1.9,1.1-3.1,1.4c-1.3,0.3-2.8,0.5-4.6,0.5H469.9z M473.6,384.4h6.2c1.7,0,2.9-0.1,3.6-0.3c1-0.3,1.7-0.8,2.2-1.4
		s0.7-1.5,0.7-2.5c0-1-0.2-1.8-0.7-2.5c-0.5-0.7-1.1-1.2-2-1.5c-0.8-0.3-2.3-0.4-4.4-0.4h-5.7V384.4z M473.6,397.6h7.1
		c1.2,0,2.1,0,2.6-0.1c0.9-0.2,1.6-0.4,2.2-0.8s1.1-0.9,1.4-1.6c0.4-0.7,0.6-1.5,0.6-2.4c0-1.1-0.3-2-0.8-2.8s-1.3-1.3-2.3-1.7
		c-1-0.3-2.4-0.5-4.2-0.5h-6.6V397.6z"/>
	<path class="st3" d="M513.5,379.4l-3.5,0.3c-0.3-1.4-0.8-2.4-1.3-3c-1-1-2.1-1.5-3.5-1.5c-1.1,0-2.1,0.3-2.9,0.9
		c-1.1,0.8-2,2-2.6,3.5c-0.6,1.5-1,3.8-1,6.6c0.8-1.3,1.9-2.2,3.1-2.9c1.2-0.6,2.5-0.9,3.8-0.9c2.3,0,4.3,0.9,6,2.6
		c1.6,1.7,2.5,4,2.5,6.7c0,1.8-0.4,3.5-1.2,5c-0.8,1.5-1.8,2.7-3.2,3.5c-1.4,0.8-2.9,1.2-4.6,1.2c-2.9,0-5.3-1.1-7.2-3.2
		c-1.8-2.2-2.8-5.7-2.8-10.7c0-5.5,1-9.6,3.1-12.1c1.8-2.2,4.2-3.3,7.2-3.3c2.3,0,4.1,0.6,5.5,1.9
		C512.4,375.4,513.2,377.2,513.5,379.4z M499.2,391.7c0,1.2,0.3,2.4,0.8,3.5c0.5,1.1,1.2,2,2.2,2.5c0.9,0.6,1.9,0.9,2.9,0.9
		c1.5,0,2.8-0.6,3.8-1.8c1.1-1.2,1.6-2.8,1.6-4.9c0-2-0.5-3.5-1.6-4.7s-2.4-1.7-4-1.7c-1.6,0-2.9,0.6-4,1.7
		C499.7,388.4,499.2,389.9,499.2,391.7z"/>
	<path class="st3" d="M515.8,401l11-28.6h4.1l11.7,28.6h-4.3l-3.3-8.7h-12l-3.1,8.7H515.8z M524.1,389.2h9.7l-3-7.9
		c-0.9-2.4-1.6-4.4-2-5.9c-0.4,1.8-0.9,3.7-1.5,5.5L524.1,389.2z"/>
	<path class="st3" d="M562.4,379.4l-3.5,0.3c-0.3-1.4-0.8-2.4-1.3-3c-1-1-2.1-1.5-3.5-1.5c-1.1,0-2.1,0.3-2.9,0.9
		c-1.1,0.8-2,2-2.6,3.5c-0.6,1.5-1,3.8-1,6.6c0.8-1.3,1.9-2.2,3.1-2.9c1.2-0.6,2.5-0.9,3.8-0.9c2.3,0,4.3,0.9,6,2.6
		c1.6,1.7,2.5,4,2.5,6.7c0,1.8-0.4,3.5-1.2,5c-0.8,1.5-1.8,2.7-3.2,3.5c-1.4,0.8-2.9,1.2-4.6,1.2c-2.9,0-5.3-1.1-7.2-3.2
		c-1.8-2.2-2.8-5.7-2.8-10.7c0-5.5,1-9.6,3.1-12.1c1.8-2.2,4.2-3.3,7.2-3.3c2.3,0,4.1,0.6,5.5,1.9
		C561.3,375.4,562.1,377.2,562.4,379.4z M548.1,391.7c0,1.2,0.3,2.4,0.8,3.5c0.5,1.1,1.2,2,2.2,2.5c0.9,0.6,1.9,0.9,2.9,0.9
		c1.5,0,2.8-0.6,3.8-1.8c1.1-1.2,1.6-2.8,1.6-4.9c0-2-0.5-3.5-1.6-4.7s-2.4-1.7-4-1.7c-1.6,0-2.9,0.6-4,1.7
		C548.6,388.4,548.1,389.9,548.1,391.7z"/>
	<path class="st3" d="M584.7,379.4l-3.5,0.3c-0.3-1.4-0.8-2.4-1.3-3c-1-1-2.1-1.5-3.5-1.5c-1.1,0-2.1,0.3-2.9,0.9
		c-1.1,0.8-2,2-2.6,3.5c-0.6,1.5-1,3.8-1,6.6c0.8-1.3,1.9-2.2,3.1-2.9c1.2-0.6,2.5-0.9,3.8-0.9c2.3,0,4.3,0.9,6,2.6
		c1.6,1.7,2.5,4,2.5,6.7c0,1.8-0.4,3.5-1.2,5c-0.8,1.5-1.8,2.7-3.2,3.5c-1.4,0.8-2.9,1.2-4.6,1.2c-2.9,0-5.3-1.1-7.2-3.2
		c-1.8-2.2-2.8-5.7-2.8-10.7c0-5.5,1-9.6,3.1-12.1c1.8-2.2,4.2-3.3,7.2-3.3c2.3,0,4.1,0.6,5.5,1.9
		C583.5,375.4,584.4,377.2,584.7,379.4z M570.3,391.7c0,1.2,0.3,2.4,0.8,3.5c0.5,1.1,1.2,2,2.2,2.5c0.9,0.6,1.9,0.9,2.9,0.9
		c1.5,0,2.8-0.6,3.8-1.8c1.1-1.2,1.6-2.8,1.6-4.9c0-2-0.5-3.5-1.6-4.7s-2.4-1.7-4-1.7c-1.6,0-2.9,0.6-4,1.7
		C570.9,388.4,570.3,389.9,570.3,391.7z"/>
</g>
<rect id="Rectangle-Copy-65" x="1050" y="149" class="st7" width="300" height="300"/>
<g class="st0">
	<path class="st3" d="M1115,401.5l1.7-8.3h-3.3v-2.9h3.9l1.4-7.1h-5.3v-2.9h5.9l1.7-8.4h2.9l-1.7,8.4h6.2l1.7-8.4h2.9l-1.7,8.4h3.4
		v2.9h-4l-1.5,7.1h5.4v2.9h-6l-1.7,8.3h-2.9l1.7-8.3h-6.1l-1.7,8.3H1115z M1120.2,390.3h6.1l1.5-7.1h-6.2L1120.2,390.3z"/>
	<path class="st3" d="M1155.4,397.6v3.4h-18.9c0-0.8,0.1-1.7,0.4-2.4c0.5-1.3,1.3-2.6,2.3-3.8c1.1-1.3,2.6-2.7,4.6-4.3
		c3.1-2.6,5.2-4.6,6.3-6.1s1.6-2.9,1.6-4.2c0-1.4-0.5-2.6-1.5-3.5s-2.3-1.4-3.9-1.4c-1.7,0-3,0.5-4.1,1.5s-1.5,2.4-1.5,4.2l-3.6-0.4
		c0.2-2.7,1.2-4.7,2.8-6.2c1.6-1.4,3.8-2.1,6.5-2.1c2.7,0,4.9,0.8,6.5,2.3s2.4,3.4,2.4,5.7c0,1.1-0.2,2.3-0.7,3.4s-1.2,2.3-2.3,3.5
		c-1.1,1.2-2.9,2.9-5.4,5c-2.1,1.8-3.5,3-4.1,3.6c-0.6,0.6-1.1,1.3-1.5,1.9H1155.4z"/>
	<path class="st3" d="M1177.6,397.6v3.4h-18.9c0-0.8,0.1-1.7,0.4-2.4c0.5-1.3,1.3-2.6,2.3-3.8c1.1-1.3,2.6-2.7,4.6-4.3
		c3.1-2.6,5.2-4.6,6.3-6.1s1.6-2.9,1.6-4.2c0-1.4-0.5-2.6-1.5-3.5s-2.3-1.4-3.9-1.4c-1.7,0-3,0.5-4.1,1.5s-1.5,2.4-1.5,4.2l-3.6-0.4
		c0.2-2.7,1.2-4.7,2.8-6.2c1.6-1.4,3.8-2.1,6.5-2.1c2.7,0,4.9,0.8,6.5,2.3s2.4,3.4,2.4,5.7c0,1.1-0.2,2.3-0.7,3.4s-1.2,2.3-2.3,3.5
		c-1.1,1.2-2.9,2.9-5.4,5c-2.1,1.8-3.5,3-4.1,3.6c-0.6,0.6-1.1,1.3-1.5,1.9H1177.6z"/>
	<path class="st3" d="M1179.7,401l11-28.6h4.1l11.7,28.6h-4.3l-3.3-8.7h-12l-3.1,8.7H1179.7z M1187.9,389.2h9.7l-3-7.9
		c-0.9-2.4-1.6-4.4-2-5.9c-0.4,1.8-0.9,3.7-1.5,5.5L1187.9,389.2z"/>
	<path class="st3" d="M1206.4,401l11-28.6h4.1l11.7,28.6h-4.3l-3.3-8.7h-12l-3.1,8.7H1206.4z M1214.6,389.2h9.7l-3-7.9
		c-0.9-2.4-1.6-4.4-2-5.9c-0.4,1.8-0.9,3.7-1.5,5.5L1214.6,389.2z"/>
	<path class="st3" d="M1236,401v-28.6h10.7c2.2,0,3.9,0.3,5.3,0.9c1.3,0.6,2.4,1.5,3.1,2.7c0.7,1.2,1.1,2.5,1.1,3.8
		c0,1.2-0.3,2.4-1,3.5s-1.7,2-3,2.6c1.7,0.5,3.1,1.4,4,2.6c0.9,1.2,1.4,2.7,1.4,4.3c0,1.3-0.3,2.6-0.8,3.7s-1.3,2-2.1,2.7
		c-0.8,0.6-1.9,1.1-3.1,1.4c-1.3,0.3-2.8,0.5-4.6,0.5H1236z M1239.8,384.4h6.2c1.7,0,2.9-0.1,3.6-0.3c1-0.3,1.7-0.8,2.2-1.4
		s0.7-1.5,0.7-2.5c0-1-0.2-1.8-0.7-2.5c-0.5-0.7-1.1-1.2-2-1.5c-0.8-0.3-2.3-0.4-4.4-0.4h-5.7V384.4z M1239.8,397.6h7.1
		c1.2,0,2.1,0,2.6-0.1c0.9-0.2,1.6-0.4,2.2-0.8s1.1-0.9,1.4-1.6c0.4-0.7,0.6-1.5,0.6-2.4c0-1.1-0.3-2-0.8-2.8s-1.3-1.3-2.3-1.7
		c-1-0.3-2.4-0.5-4.2-0.5h-6.6V397.6z"/>
	<path class="st3" d="M1283.3,391l3.8,1c-0.8,3.1-2.2,5.5-4.3,7.1c-2.1,1.6-4.6,2.5-7.6,2.5c-3.1,0-5.6-0.6-7.5-1.9
		s-3.4-3.1-4.4-5.5c-1-2.4-1.5-4.9-1.5-7.7c0-3,0.6-5.6,1.7-7.8c1.1-2.2,2.8-3.9,4.9-5.1c2.1-1.2,4.4-1.7,6.9-1.7
		c2.9,0,5.3,0.7,7.2,2.2s3.3,3.5,4.1,6.2l-3.7,0.9c-0.7-2.1-1.6-3.6-2.9-4.6c-1.3-1-2.9-1.4-4.8-1.4c-2.2,0-4,0.5-5.5,1.6
		c-1.5,1.1-2.5,2.5-3.1,4.2c-0.6,1.8-0.9,3.6-0.9,5.5c0,2.4,0.4,4.6,1.1,6.4c0.7,1.8,1.8,3.2,3.3,4.1c1.5,0.9,3.1,1.3,4.9,1.3
		c2.1,0,3.9-0.6,5.4-1.8C1281.8,395.2,1282.8,393.4,1283.3,391z"/>
</g>
<rect id="Rectangle-Copy-66" x="1400" y="149" class="st8" width="300" height="300"/>
<g class="st0">
	<path class="st3" d="M1466,401.5l1.7-8.3h-3.3v-2.9h3.9l1.4-7.1h-5.3v-2.9h5.9l1.7-8.4h2.9l-1.7,8.4h6.2l1.7-8.4h2.9l-1.7,8.4h3.4
		v2.9h-4l-1.5,7.1h5.4v2.9h-6l-1.7,8.3h-2.9l1.7-8.3h-6.1l-1.7,8.3H1466z M1471.2,390.3h6.1l1.5-7.1h-6.2L1471.2,390.3z"/>
	<path class="st3" d="M1487.9,393.4l3.5-0.5c0.4,2,1.1,3.4,2.1,4.3c1,0.9,2.2,1.3,3.5,1.3c1.7,0,3-0.6,4.2-1.7
		c1.1-1.1,1.7-2.6,1.7-4.3c0-1.6-0.5-2.9-1.6-4s-2.4-1.6-4-1.6c-0.7,0-1.5,0.1-2.5,0.4l0.4-3.1c0.2,0,0.4,0,0.6,0
		c1.5,0,2.8-0.4,4-1.2c1.2-0.8,1.8-2,1.8-3.6c0-1.3-0.4-2.4-1.3-3.2c-0.9-0.8-2-1.3-3.4-1.3c-1.4,0-2.5,0.4-3.4,1.3
		c-0.9,0.9-1.5,2.1-1.8,3.9l-3.5-0.6c0.4-2.4,1.4-4.2,2.9-5.5s3.4-1.9,5.7-1.9c1.6,0,3,0.3,4.3,1c1.3,0.7,2.3,1.6,3,2.7
		c0.7,1.2,1,2.4,1,3.7c0,1.2-0.3,2.4-1,3.4s-1.6,1.8-2.9,2.4c1.7,0.4,3,1.2,3.9,2.4s1.4,2.8,1.4,4.6c0,2.5-0.9,4.6-2.7,6.4
		c-1.8,1.7-4.1,2.6-6.9,2.6c-2.5,0-4.6-0.7-6.3-2.2S1488.2,395.8,1487.9,393.4z"/>
	<path class="st3" d="M1510.2,393.4l3.5-0.5c0.4,2,1.1,3.4,2.1,4.3c1,0.9,2.2,1.3,3.5,1.3c1.7,0,3-0.6,4.2-1.7
		c1.1-1.1,1.7-2.6,1.7-4.3c0-1.6-0.5-2.9-1.6-4s-2.4-1.6-4-1.6c-0.7,0-1.5,0.1-2.5,0.4l0.4-3.1c0.2,0,0.4,0,0.6,0
		c1.5,0,2.8-0.4,4-1.2c1.2-0.8,1.8-2,1.8-3.6c0-1.3-0.4-2.4-1.3-3.2c-0.9-0.8-2-1.3-3.4-1.3c-1.4,0-2.5,0.4-3.4,1.3
		c-0.9,0.9-1.5,2.1-1.8,3.9l-3.5-0.6c0.4-2.4,1.4-4.2,2.9-5.5s3.4-1.9,5.7-1.9c1.6,0,3,0.3,4.3,1c1.3,0.7,2.3,1.6,3,2.7
		c0.7,1.2,1,2.4,1,3.7c0,1.2-0.3,2.4-1,3.4s-1.6,1.8-2.9,2.4c1.7,0.4,3,1.2,3.9,2.4s1.4,2.8,1.4,4.6c0,2.5-0.9,4.6-2.7,6.4
		c-1.8,1.7-4.1,2.6-6.9,2.6c-2.5,0-4.6-0.7-6.3-2.2S1510.4,395.8,1510.2,393.4z"/>
	<path class="st3" d="M1550.6,379.4l-3.5,0.3c-0.3-1.4-0.8-2.4-1.3-3c-1-1-2.1-1.5-3.5-1.5c-1.1,0-2.1,0.3-2.9,0.9
		c-1.1,0.8-2,2-2.6,3.5c-0.6,1.5-1,3.8-1,6.6c0.8-1.3,1.9-2.2,3.1-2.9c1.2-0.6,2.5-0.9,3.8-0.9c2.3,0,4.3,0.9,6,2.6
		c1.6,1.7,2.5,4,2.5,6.7c0,1.8-0.4,3.5-1.2,5c-0.8,1.5-1.8,2.7-3.2,3.5c-1.4,0.8-2.9,1.2-4.6,1.2c-2.9,0-5.3-1.1-7.2-3.2
		c-1.8-2.2-2.8-5.7-2.8-10.7c0-5.5,1-9.6,3.1-12.1c1.8-2.2,4.2-3.3,7.2-3.3c2.3,0,4.1,0.6,5.5,1.9
		C1549.5,375.4,1550.4,377.2,1550.6,379.4z M1536.3,391.7c0,1.2,0.3,2.4,0.8,3.5c0.5,1.1,1.2,2,2.2,2.5c0.9,0.6,1.9,0.9,2.9,0.9
		c1.5,0,2.8-0.6,3.8-1.8c1.1-1.2,1.6-2.8,1.6-4.9c0-2-0.5-3.5-1.6-4.7s-2.4-1.7-4-1.7c-1.6,0-2.9,0.6-4,1.7
		C1536.8,388.4,1536.3,389.9,1536.3,391.7z"/>
	<path class="st3" d="M1576.5,391l3.8,1c-0.8,3.1-2.2,5.5-4.3,7.1c-2.1,1.6-4.6,2.5-7.6,2.5c-3.1,0-5.6-0.6-7.5-1.9
		s-3.4-3.1-4.4-5.5c-1-2.4-1.5-4.9-1.5-7.7c0-3,0.6-5.6,1.7-7.8c1.1-2.2,2.8-3.9,4.9-5.1c2.1-1.2,4.4-1.7,6.9-1.7
		c2.9,0,5.3,0.7,7.2,2.2s3.3,3.5,4.1,6.2l-3.7,0.9c-0.7-2.1-1.6-3.6-2.9-4.6c-1.3-1-2.9-1.4-4.8-1.4c-2.2,0-4,0.5-5.5,1.6
		c-1.5,1.1-2.5,2.5-3.1,4.2c-0.6,1.8-0.9,3.6-0.9,5.5c0,2.4,0.4,4.6,1.1,6.4c0.7,1.8,1.8,3.2,3.3,4.1c1.5,0.9,3.1,1.3,4.9,1.3
		c2.1,0,3.9-0.6,5.4-1.8C1575,395.2,1576,393.4,1576.5,391z"/>
	<path class="st3" d="M1585,401v-28.6h9.9c2.2,0,3.9,0.1,5.1,0.4c1.6,0.4,3,1.1,4.2,2.1c1.5,1.3,2.6,2.9,3.4,4.9
		c0.7,2,1.1,4.3,1.1,6.8c0,2.2-0.3,4.1-0.8,5.8s-1.2,3.1-2,4.2c-0.8,1.1-1.7,2-2.6,2.6c-0.9,0.6-2.1,1.1-3.4,1.4
		c-1.3,0.3-2.9,0.5-4.6,0.5H1585z M1588.7,397.6h6.1c1.9,0,3.4-0.2,4.4-0.5s1.9-0.8,2.6-1.5c0.9-0.9,1.6-2.1,2.1-3.6
		c0.5-1.5,0.8-3.4,0.8-5.5c0-3-0.5-5.3-1.5-6.9c-1-1.6-2.2-2.7-3.6-3.2c-1-0.4-2.7-0.6-4.9-0.6h-6V397.6z"/>
	<path class="st3" d="M1630.7,379.4l-3.5,0.3c-0.3-1.4-0.8-2.4-1.3-3c-1-1-2.1-1.5-3.5-1.5c-1.1,0-2.1,0.3-2.9,0.9
		c-1.1,0.8-2,2-2.6,3.5c-0.6,1.5-1,3.8-1,6.6c0.8-1.3,1.9-2.2,3.1-2.9c1.2-0.6,2.5-0.9,3.8-0.9c2.3,0,4.3,0.9,6,2.6
		c1.6,1.7,2.5,4,2.5,6.7c0,1.8-0.4,3.5-1.2,5c-0.8,1.5-1.8,2.7-3.2,3.5c-1.4,0.8-2.9,1.2-4.6,1.2c-2.9,0-5.3-1.1-7.2-3.2
		c-1.8-2.2-2.8-5.7-2.8-10.7c0-5.5,1-9.6,3.1-12.1c1.8-2.2,4.2-3.3,7.2-3.3c2.3,0,4.1,0.6,5.5,1.9
		C1629.5,375.4,1630.4,377.2,1630.7,379.4z M1616.3,391.7c0,1.2,0.3,2.4,0.8,3.5c0.5,1.1,1.2,2,2.2,2.5c0.9,0.6,1.9,0.9,2.9,0.9
		c1.5,0,2.8-0.6,3.8-1.8c1.1-1.2,1.6-2.8,1.6-4.9c0-2-0.5-3.5-1.6-4.7s-2.4-1.7-4-1.7c-1.6,0-2.9,0.6-4,1.7
		C1616.9,388.4,1616.3,389.9,1616.3,391.7z"/>
</g>
<rect id="Rectangle-Copy-44" x="1750" y="149" class="st9" width="300" height="300"/>
<g class="st0">
	<path class="st3" d="M1820,401.5l1.7-8.3h-3.3v-2.9h3.9l1.4-7.1h-5.3v-2.9h5.9l1.7-8.4h2.9l-1.7,8.4h6.2l1.7-8.4h2.9l-1.7,8.4h3.4
		v2.9h-4l-1.5,7.1h5.4v2.9h-6l-1.7,8.3h-2.9l1.7-8.3h-6.1l-1.7,8.3H1820z M1825.2,390.3h6.1l1.5-7.1h-6.2L1825.2,390.3z"/>
	<path class="st3" d="M1853.2,401v-6.9h-12.4v-3.2l13.1-18.6h2.9v18.6h3.9v3.2h-3.9v6.9H1853.2z M1853.2,390.9V378l-9,12.9H1853.2z"
		/>
	<path class="st3" d="M1882.6,397.6v3.4h-18.9c0-0.8,0.1-1.7,0.4-2.4c0.5-1.3,1.3-2.6,2.3-3.8c1.1-1.3,2.6-2.7,4.6-4.3
		c3.1-2.6,5.2-4.6,6.3-6.1s1.6-2.9,1.6-4.2c0-1.4-0.5-2.6-1.5-3.5s-2.3-1.4-3.9-1.4c-1.7,0-3,0.5-4.1,1.5s-1.5,2.4-1.5,4.2l-3.6-0.4
		c0.2-2.7,1.2-4.7,2.8-6.2c1.6-1.4,3.8-2.1,6.5-2.1c2.7,0,4.9,0.8,6.5,2.3s2.4,3.4,2.4,5.7c0,1.1-0.2,2.3-0.7,3.4s-1.2,2.3-2.3,3.5
		c-1.1,1.2-2.9,2.9-5.4,5c-2.1,1.8-3.5,3-4.1,3.6c-0.6,0.6-1.1,1.3-1.5,1.9H1882.6z"/>
	<path class="st3" d="M1897.7,401v-6.9h-12.4v-3.2l13.1-18.6h2.9v18.6h3.9v3.2h-3.9v6.9H1897.7z M1897.7,390.9V378l-9,12.9H1897.7z"
		/>
	<path class="st3" d="M1908.7,393.4l3.5-0.5c0.4,2,1.1,3.4,2.1,4.3c1,0.9,2.2,1.3,3.5,1.3c1.7,0,3-0.6,4.2-1.7
		c1.1-1.1,1.7-2.6,1.7-4.3c0-1.6-0.5-2.9-1.6-4s-2.4-1.6-4-1.6c-0.7,0-1.5,0.1-2.5,0.4l0.4-3.1c0.2,0,0.4,0,0.6,0
		c1.5,0,2.8-0.4,4-1.2c1.2-0.8,1.8-2,1.8-3.6c0-1.3-0.4-2.4-1.3-3.2c-0.9-0.8-2-1.3-3.4-1.3c-1.4,0-2.5,0.4-3.4,1.3
		c-0.9,0.9-1.5,2.1-1.8,3.9l-3.5-0.6c0.4-2.4,1.4-4.2,2.9-5.5s3.4-1.9,5.7-1.9c1.6,0,3,0.3,4.3,1c1.3,0.7,2.3,1.6,3,2.7
		c0.7,1.2,1,2.4,1,3.7c0,1.2-0.3,2.4-1,3.4s-1.6,1.8-2.9,2.4c1.7,0.4,3,1.2,3.9,2.4s1.4,2.8,1.4,4.6c0,2.5-0.9,4.6-2.7,6.4
		c-1.8,1.7-4.1,2.6-6.9,2.6c-2.5,0-4.6-0.7-6.3-2.2S1908.9,395.8,1908.7,393.4z"/>
	<path class="st3" d="M1949.1,379.4l-3.5,0.3c-0.3-1.4-0.8-2.4-1.3-3c-1-1-2.1-1.5-3.5-1.5c-1.1,0-2.1,0.3-2.9,0.9
		c-1.1,0.8-2,2-2.6,3.5c-0.6,1.5-1,3.8-1,6.6c0.8-1.3,1.9-2.2,3.1-2.9c1.2-0.6,2.5-0.9,3.8-0.9c2.3,0,4.3,0.9,6,2.6
		c1.6,1.7,2.5,4,2.5,6.7c0,1.8-0.4,3.5-1.2,5c-0.8,1.5-1.8,2.7-3.2,3.5c-1.4,0.8-2.9,1.2-4.6,1.2c-2.9,0-5.3-1.1-7.2-3.2
		c-1.8-2.2-2.8-5.7-2.8-10.7c0-5.5,1-9.6,3.1-12.1c1.8-2.2,4.2-3.3,7.2-3.3c2.3,0,4.1,0.6,5.5,1.9
		C1948,375.4,1948.8,377.2,1949.1,379.4z M1934.8,391.7c0,1.2,0.3,2.4,0.8,3.5c0.5,1.1,1.2,2,2.2,2.5c0.9,0.6,1.9,0.9,2.9,0.9
		c1.5,0,2.8-0.6,3.8-1.8c1.1-1.2,1.6-2.8,1.6-4.9c0-2-0.5-3.5-1.6-4.7s-2.4-1.7-4-1.7c-1.6,0-2.9,0.6-4,1.7
		C1935.3,388.4,1934.8,389.9,1934.8,391.7z"/>
	<path class="st3" d="M1953.1,393.5l3.7-0.3c0.3,1.8,0.9,3.1,1.9,4.1s2.2,1.4,3.6,1.4c1.7,0,3.1-0.6,4.3-1.9s1.8-3,1.8-5.1
		c0-2-0.6-3.6-1.7-4.7c-1.1-1.2-2.6-1.7-4.4-1.7c-1.1,0-2.2,0.3-3.1,0.8c-0.9,0.5-1.6,1.2-2.1,2l-3.3-0.4l2.8-14.7h14.2v3.4h-11.4
		l-1.5,7.7c1.7-1.2,3.5-1.8,5.4-1.8c2.5,0,4.6,0.9,6.3,2.6s2.6,4,2.6,6.7c0,2.6-0.8,4.8-2.3,6.7c-1.8,2.3-4.3,3.5-7.5,3.5
		c-2.6,0-4.7-0.7-6.4-2.2C1954.3,397.8,1953.4,395.9,1953.1,393.5z"/>
</g>
<rect id="Rectangle-Copy-64" x="700" y="149" class="st10" width="300" height="300"/>
<g class="st0">
	<path class="st1" d="M772,401.5l1.7-8.3h-3.3v-2.9h3.9l1.4-7.1h-5.3v-2.9h5.9l1.7-8.4h2.9l-1.7,8.4h6.2l1.7-8.4h2.9l-1.7,8.4h3.4
		v2.9h-4l-1.5,7.1h5.4v2.9h-6l-1.7,8.3h-2.9l1.7-8.3h-6.1l-1.7,8.3H772z M777.2,390.3h6.1l1.5-7.1h-6.2L777.2,390.3z"/>
	<path class="st1" d="M795.5,401v-28.6h19.3v3.4h-15.5v8.9h13.4v3.4h-13.4v13H795.5z"/>
	<path class="st1" d="M820,401v-28.6h19.3v3.4h-15.5v8.9h13.4v3.4h-13.4v13H820z"/>
	<path class="st1" d="M864.6,391l3.8,1c-0.8,3.1-2.2,5.5-4.3,7.1c-2.1,1.6-4.6,2.5-7.6,2.5c-3.1,0-5.6-0.6-7.5-1.9s-3.4-3.1-4.4-5.5
		c-1-2.4-1.5-4.9-1.5-7.7c0-3,0.6-5.6,1.7-7.8c1.1-2.2,2.8-3.9,4.9-5.1c2.1-1.2,4.4-1.7,6.9-1.7c2.9,0,5.3,0.7,7.2,2.2
		s3.3,3.5,4.1,6.2l-3.7,0.9c-0.7-2.1-1.6-3.6-2.9-4.6c-1.3-1-2.9-1.4-4.8-1.4c-2.2,0-4,0.5-5.5,1.6c-1.5,1.1-2.5,2.5-3.1,4.2
		c-0.6,1.8-0.9,3.6-0.9,5.5c0,2.4,0.4,4.6,1.1,6.4c0.7,1.8,1.8,3.2,3.3,4.1c1.5,0.9,3.1,1.3,4.9,1.3c2.1,0,3.9-0.6,5.4-1.8
		C863.1,395.2,864.1,393.4,864.6,391z"/>
	<path class="st1" d="M871.9,376.1v-3.4h18.5v2.7c-1.8,1.9-3.6,4.5-5.4,7.7c-1.8,3.2-3.2,6.5-4.2,9.9c-0.7,2.4-1.2,5-1.3,7.9h-3.6
		c0-2.3,0.5-5,1.3-8.2c0.8-3.2,2.1-6.3,3.6-9.2s3.3-5.5,5-7.5H871.9z"/>
	<path class="st1" d="M899.3,385.5c-1.5-0.5-2.5-1.3-3.2-2.3s-1.1-2.2-1.1-3.6c0-2.1,0.7-3.8,2.2-5.3c1.5-1.4,3.5-2.1,6-2.1
		c2.5,0,4.5,0.7,6,2.2s2.3,3.2,2.3,5.3c0,1.3-0.3,2.5-1,3.5c-0.7,1-1.8,1.7-3.2,2.3c1.8,0.6,3.1,1.5,4,2.8s1.4,2.8,1.4,4.6
		c0,2.4-0.9,4.5-2.6,6.2c-1.7,1.7-4,2.5-6.8,2.5c-2.8,0-5.1-0.8-6.8-2.5c-1.7-1.7-2.6-3.8-2.6-6.3c0-1.9,0.5-3.4,1.4-4.7
		C896.2,386.8,897.6,385.9,899.3,385.5z M897.5,392.7c0,1,0.2,2,0.7,2.9c0.5,0.9,1.2,1.7,2.1,2.2s1.9,0.8,3,0.8
		c1.7,0,3.1-0.5,4.2-1.6s1.6-2.5,1.6-4.1c0-1.7-0.6-3.1-1.7-4.2c-1.1-1.1-2.5-1.7-4.2-1.7c-1.7,0-3,0.5-4.1,1.6
		C898,389.7,897.5,391.1,897.5,392.7z M898.6,379.5c0,1.4,0.4,2.5,1.3,3.3c0.9,0.9,2,1.3,3.4,1.3c1.4,0,2.5-0.4,3.3-1.3
		c0.9-0.9,1.3-1.9,1.3-3.1c0-1.3-0.4-2.4-1.3-3.3c-0.9-0.9-2-1.3-3.3-1.3c-1.3,0-2.5,0.4-3.3,1.3
		C899.1,377.3,898.6,378.3,898.6,379.5z"/>
	<path class="st1" d="M934.6,397.6v3.4h-18.9c0-0.8,0.1-1.7,0.4-2.4c0.5-1.3,1.3-2.6,2.3-3.8c1.1-1.3,2.6-2.7,4.6-4.3
		c3.1-2.6,5.2-4.6,6.3-6.1s1.6-2.9,1.6-4.2c0-1.4-0.5-2.6-1.5-3.5s-2.3-1.4-3.9-1.4c-1.7,0-3,0.5-4.1,1.5s-1.5,2.4-1.5,4.2l-3.6-0.4
		c0.2-2.7,1.2-4.7,2.8-6.2c1.6-1.4,3.8-2.1,6.5-2.1c2.7,0,4.9,0.8,6.5,2.3s2.4,3.4,2.4,5.7c0,1.1-0.2,2.3-0.7,3.4s-1.2,2.3-2.3,3.5
		c-1.1,1.2-2.9,2.9-5.4,5c-2.1,1.8-3.5,3-4.1,3.6c-0.6,0.6-1.1,1.3-1.5,1.9H934.6z"/>
</g>
<rect id="Rectangle-15-Copy" y="544" class="st11" width="300" height="300"/>
<g class="st0">
	<path class="st3" d="M67,796.5l1.7-8.3h-3.3v-2.9h3.9l1.4-7.1h-5.3v-2.9h5.9l1.7-8.4H76l-1.7,8.4h6.2l1.7-8.4h2.9l-1.7,8.4h3.4v2.9
		h-4l-1.5,7.1h5.4v2.9h-6l-1.7,8.3h-2.9l1.7-8.3h-6.1l-1.7,8.3H67z M72.2,785.3h6.1l1.5-7.1h-6.2L72.2,785.3z"/>
	<path class="st3" d="M88.9,788.4l3.5-0.5c0.4,2,1.1,3.4,2.1,4.3c1,0.9,2.2,1.3,3.5,1.3c1.7,0,3-0.6,4.2-1.7
		c1.1-1.1,1.7-2.6,1.7-4.3c0-1.6-0.5-2.9-1.6-4s-2.4-1.6-4-1.6c-0.7,0-1.5,0.1-2.5,0.4l0.4-3.1c0.2,0,0.4,0,0.6,0
		c1.5,0,2.8-0.4,4-1.2c1.2-0.8,1.8-2,1.8-3.6c0-1.3-0.4-2.4-1.3-3.2c-0.9-0.8-2-1.3-3.4-1.3c-1.4,0-2.5,0.4-3.4,1.3
		c-0.9,0.9-1.5,2.1-1.8,3.9l-3.5-0.6c0.4-2.4,1.4-4.2,2.9-5.5s3.4-1.9,5.7-1.9c1.6,0,3,0.3,4.3,1c1.3,0.7,2.3,1.6,3,2.7
		c0.7,1.2,1,2.4,1,3.7c0,1.2-0.3,2.4-1,3.4s-1.6,1.8-2.9,2.4c1.7,0.4,3,1.2,3.9,2.4s1.4,2.8,1.4,4.6c0,2.5-0.9,4.6-2.7,6.4
		c-1.8,1.7-4.1,2.6-6.9,2.6c-2.5,0-4.6-0.7-6.3-2.2S89.2,790.8,88.9,788.4z"/>
	<path class="st3" d="M109.4,796l11-28.6h4.1l11.7,28.6h-4.3l-3.3-8.7h-12l-3.1,8.7H109.4z M117.7,784.2h9.7l-3-7.9
		c-0.9-2.4-1.6-4.4-2-5.9c-0.4,1.8-0.9,3.7-1.5,5.5L117.7,784.2z"/>
	<path class="st3" d="M137.9,788.4l3.5-0.5c0.4,2,1.1,3.4,2.1,4.3c1,0.9,2.2,1.3,3.5,1.3c1.7,0,3-0.6,4.2-1.7
		c1.1-1.1,1.7-2.6,1.7-4.3c0-1.6-0.5-2.9-1.6-4s-2.4-1.6-4-1.6c-0.7,0-1.5,0.1-2.5,0.4l0.4-3.1c0.2,0,0.4,0,0.6,0
		c1.5,0,2.8-0.4,4-1.2c1.2-0.8,1.8-2,1.8-3.6c0-1.3-0.4-2.4-1.3-3.2c-0.9-0.8-2-1.3-3.4-1.3c-1.4,0-2.5,0.4-3.4,1.3
		c-0.9,0.9-1.5,2.1-1.8,3.9l-3.5-0.6c0.4-2.4,1.4-4.2,2.9-5.5s3.4-1.9,5.7-1.9c1.6,0,3,0.3,4.3,1c1.3,0.7,2.3,1.6,3,2.7
		c0.7,1.2,1,2.4,1,3.7c0,1.2-0.3,2.4-1,3.4s-1.6,1.8-2.9,2.4c1.7,0.4,3,1.2,3.9,2.4s1.4,2.8,1.4,4.6c0,2.5-0.9,4.6-2.7,6.4
		c-1.8,1.7-4.1,2.6-6.9,2.6c-2.5,0-4.6-0.7-6.3-2.2S138.1,790.8,137.9,788.4z"/>
	<path class="st3" d="M158.4,796l11-28.6h4.1l11.7,28.6h-4.3l-3.3-8.7h-12l-3.1,8.7H158.4z M166.6,784.2h9.7l-3-7.9
		c-0.9-2.4-1.6-4.4-2-5.9c-0.4,1.8-0.9,3.7-1.5,5.5L166.6,784.2z"/>
	<path class="st3" d="M186.8,788.4l3.5-0.5c0.4,2,1.1,3.4,2.1,4.3c1,0.9,2.2,1.3,3.5,1.3c1.7,0,3-0.6,4.2-1.7
		c1.1-1.1,1.7-2.6,1.7-4.3c0-1.6-0.5-2.9-1.6-4s-2.4-1.6-4-1.6c-0.7,0-1.5,0.1-2.5,0.4l0.4-3.1c0.2,0,0.4,0,0.6,0
		c1.5,0,2.8-0.4,4-1.2c1.2-0.8,1.8-2,1.8-3.6c0-1.3-0.4-2.4-1.3-3.2c-0.9-0.8-2-1.3-3.4-1.3c-1.4,0-2.5,0.4-3.4,1.3
		c-0.9,0.9-1.5,2.1-1.8,3.9l-3.5-0.6c0.4-2.4,1.4-4.2,2.9-5.5s3.4-1.9,5.7-1.9c1.6,0,3,0.3,4.3,1c1.3,0.7,2.3,1.6,3,2.7
		c0.7,1.2,1,2.4,1,3.7c0,1.2-0.3,2.4-1,3.4s-1.6,1.8-2.9,2.4c1.7,0.4,3,1.2,3.9,2.4s1.4,2.8,1.4,4.6c0,2.5-0.9,4.6-2.7,6.4
		c-1.8,1.7-4.1,2.6-6.9,2.6c-2.5,0-4.6-0.7-6.3-2.2S187,790.8,186.8,788.4z"/>
	<path class="st3" d="M207.3,796l11-28.6h4.1l11.7,28.6h-4.3l-3.3-8.7h-12l-3.1,8.7H207.3z M215.5,784.2h9.7l-3-7.9
		c-0.9-2.4-1.6-4.4-2-5.9c-0.4,1.8-0.9,3.7-1.5,5.5L215.5,784.2z"/>
</g>
<rect id="Rectangle-15-Copy-3" x="350" y="544" class="st12" width="300" height="300"/>
<g class="st0">
	<path class="st3" d="M420,796.5l1.7-8.3h-3.3v-2.9h3.9l1.4-7.1h-5.3v-2.9h5.9l1.7-8.4h2.9l-1.7,8.4h6.2l1.7-8.4h2.9l-1.7,8.4h3.4
		v2.9h-4l-1.5,7.1h5.4v2.9h-6l-1.7,8.3h-2.9l1.7-8.3h-6.1l-1.7,8.3H420z M425.2,785.3h6.1l1.5-7.1h-6.2L425.2,785.3z"/>
	<path class="st3" d="M441.9,788.5l3.7-0.3c0.3,1.8,0.9,3.1,1.9,4.1s2.2,1.4,3.6,1.4c1.7,0,3.1-0.6,4.3-1.9s1.8-3,1.8-5.1
		c0-2-0.6-3.6-1.7-4.7c-1.1-1.2-2.6-1.7-4.4-1.7c-1.1,0-2.2,0.3-3.1,0.8c-0.9,0.5-1.6,1.2-2.1,2l-3.3-0.4l2.8-14.7h14.2v3.4h-11.4
		l-1.5,7.7c1.7-1.2,3.5-1.8,5.4-1.8c2.5,0,4.6,0.9,6.3,2.6s2.6,4,2.6,6.7c0,2.6-0.8,4.8-2.3,6.7c-1.8,2.3-4.3,3.5-7.5,3.5
		c-2.6,0-4.7-0.7-6.4-2.2C443.1,792.8,442.1,790.9,441.9,788.5z"/>
	<path class="st3" d="M464.2,781.9c0-3.4,0.3-6.1,1-8.2c0.7-2.1,1.7-3.7,3.1-4.8c1.4-1.1,3.1-1.7,5.2-1.7c1.5,0,2.9,0.3,4,0.9
		c1.2,0.6,2.1,1.5,2.9,2.7c0.8,1.2,1.3,2.6,1.8,4.3s0.6,3.9,0.6,6.8c0,3.4-0.3,6.1-1,8.1c-0.7,2.1-1.7,3.7-3.1,4.8
		c-1.4,1.1-3.1,1.7-5.2,1.7c-2.8,0-4.9-1-6.5-3C465.1,791.1,464.2,787.3,464.2,781.9z M467.8,781.9c0,4.7,0.5,7.8,1.7,9.4
		c1.1,1.6,2.5,2.3,4.1,2.3c1.6,0,3-0.8,4.1-2.3c1.1-1.6,1.7-4.7,1.7-9.4c0-4.7-0.6-7.8-1.7-9.4c-1.1-1.5-2.5-2.3-4.1-2.3
		c-1.6,0-2.9,0.7-3.9,2.1C468.4,774,467.8,777.2,467.8,781.9z"/>
	<path class="st3" d="M486.4,788.5l3.7-0.3c0.3,1.8,0.9,3.1,1.9,4.1s2.2,1.4,3.6,1.4c1.7,0,3.1-0.6,4.3-1.9s1.8-3,1.8-5.1
		c0-2-0.6-3.6-1.7-4.7c-1.1-1.2-2.6-1.7-4.4-1.7c-1.1,0-2.2,0.3-3.1,0.8c-0.9,0.5-1.6,1.2-2.1,2l-3.3-0.4l2.8-14.7H504v3.4h-11.4
		l-1.5,7.7c1.7-1.2,3.5-1.8,5.4-1.8c2.5,0,4.6,0.9,6.3,2.6s2.6,4,2.6,6.7c0,2.6-0.8,4.8-2.3,6.7c-1.8,2.3-4.3,3.5-7.5,3.5
		c-2.6,0-4.7-0.7-6.4-2.2C487.6,792.8,486.6,790.9,486.4,788.5z"/>
	<path class="st3" d="M508.6,781.9c0-3.4,0.3-6.1,1-8.2c0.7-2.1,1.7-3.7,3.1-4.8c1.4-1.1,3.1-1.7,5.2-1.7c1.5,0,2.9,0.3,4,0.9
		c1.2,0.6,2.1,1.5,2.9,2.7c0.8,1.2,1.3,2.6,1.8,4.3s0.6,3.9,0.6,6.8c0,3.4-0.3,6.1-1,8.1c-0.7,2.1-1.7,3.7-3.1,4.8
		c-1.4,1.1-3.1,1.7-5.2,1.7c-2.8,0-4.9-1-6.5-3C509.6,791.1,508.6,787.3,508.6,781.9z M512.3,781.9c0,4.7,0.5,7.8,1.7,9.4
		c1.1,1.6,2.5,2.3,4.1,2.3c1.6,0,3-0.8,4.1-2.3c1.1-1.6,1.7-4.7,1.7-9.4c0-4.7-0.6-7.8-1.7-9.4c-1.1-1.5-2.5-2.3-4.1-2.3
		c-1.6,0-2.9,0.7-3.9,2.1C512.9,774,512.3,777.2,512.3,781.9z"/>
	<path class="st3" d="M530.9,788.5l3.7-0.3c0.3,1.8,0.9,3.1,1.9,4.1s2.2,1.4,3.6,1.4c1.7,0,3.1-0.6,4.3-1.9s1.8-3,1.8-5.1
		c0-2-0.6-3.6-1.7-4.7c-1.1-1.2-2.6-1.7-4.4-1.7c-1.1,0-2.2,0.3-3.1,0.8c-0.9,0.5-1.6,1.2-2.1,2l-3.3-0.4l2.8-14.7h14.2v3.4h-11.4
		l-1.5,7.7c1.7-1.2,3.5-1.8,5.4-1.8c2.5,0,4.6,0.9,6.3,2.6s2.6,4,2.6,6.7c0,2.6-0.8,4.8-2.3,6.7c-1.8,2.3-4.3,3.5-7.5,3.5
		c-2.6,0-4.7-0.7-6.4-2.2C532.1,792.8,531.1,790.9,530.9,788.5z"/>
	<path class="st3" d="M553.1,781.9c0-3.4,0.3-6.1,1-8.2c0.7-2.1,1.7-3.7,3.1-4.8c1.4-1.1,3.1-1.7,5.2-1.7c1.5,0,2.9,0.3,4,0.9
		c1.2,0.6,2.1,1.5,2.9,2.7c0.8,1.2,1.3,2.6,1.8,4.3s0.6,3.9,0.6,6.8c0,3.4-0.3,6.1-1,8.1c-0.7,2.1-1.7,3.7-3.1,4.8
		c-1.4,1.1-3.1,1.7-5.2,1.7c-2.8,0-4.9-1-6.5-3C554.1,791.1,553.1,787.3,553.1,781.9z M556.8,781.9c0,4.7,0.5,7.8,1.7,9.4
		c1.1,1.6,2.5,2.3,4.1,2.3c1.6,0,3-0.8,4.1-2.3c1.1-1.6,1.7-4.7,1.7-9.4c0-4.7-0.6-7.8-1.7-9.4c-1.1-1.5-2.5-2.3-4.1-2.3
		c-1.6,0-2.9,0.7-3.9,2.1C557.4,774,556.8,777.2,556.8,781.9z"/>
</g>
<rect id="Rectangle-Copy-59_3_" x="2423.7" y="149" class="st13" width="300" height="300"/>
<g>
	<g>
		<path class="st3" d="M2493.7,401.5l1.7-8.3h-3.3v-2.9h3.9l1.4-7.1h-5.3v-2.9h5.9l1.7-8.4h2.9l-1.7,8.4h6.2l1.7-8.4h2.9l-1.7,8.4
			h3.4v2.9h-4l-1.5,7.1h5.4v2.9h-6l-1.7,8.3h-2.9l1.7-8.3h-6.1l-1.7,8.3H2493.7z M2498.9,390.3h6.1l1.5-7.1h-6.2L2498.9,390.3z"/>
		<path class="st3" d="M2517.2,401v-28.6h19.3v3.4H2521v8.9h13.4v3.4H2521v13H2517.2z"/>
		<path class="st3" d="M2541.6,401v-28.6h19.3v3.4h-15.5v8.9h13.4v3.4h-13.4v13H2541.6z"/>
		<path class="st3" d="M2564.4,386.9c0-3.4,0.3-6.1,1-8.2c0.7-2.1,1.7-3.7,3.1-4.8c1.4-1.1,3.1-1.7,5.2-1.7c1.5,0,2.9,0.3,4,0.9
			c1.2,0.6,2.1,1.5,2.9,2.7c0.8,1.2,1.3,2.6,1.8,4.3s0.6,3.9,0.6,6.8c0,3.4-0.3,6.1-1,8.1c-0.7,2.1-1.7,3.7-3.1,4.8
			c-1.4,1.1-3.1,1.7-5.2,1.7c-2.8,0-4.9-1-6.5-3C2565.4,396.1,2564.4,392.3,2564.4,386.9z M2568.1,386.9c0,4.7,0.5,7.8,1.7,9.4
			c1.1,1.6,2.5,2.3,4.1,2.3c1.6,0,3-0.8,4.1-2.3c1.1-1.6,1.7-4.7,1.7-9.4c0-4.7-0.6-7.8-1.7-9.4c-1.1-1.5-2.5-2.3-4.1-2.3
			c-1.6,0-2.9,0.7-3.9,2.1C2568.7,379,2568.1,382.2,2568.1,386.9z"/>
		<path class="st3" d="M2586.7,386.9c0-3.4,0.3-6.1,1-8.2c0.7-2.1,1.7-3.7,3.1-4.8c1.4-1.1,3.1-1.7,5.2-1.7c1.5,0,2.9,0.3,4,0.9
			c1.2,0.6,2.1,1.5,2.9,2.7c0.8,1.2,1.3,2.6,1.8,4.3s0.6,3.9,0.6,6.8c0,3.4-0.3,6.1-1,8.1c-0.7,2.1-1.7,3.7-3.1,4.8
			c-1.4,1.1-3.1,1.7-5.2,1.7c-2.8,0-4.9-1-6.5-3C2587.6,396.1,2586.7,392.3,2586.7,386.9z M2590.3,386.9c0,4.7,0.5,7.8,1.7,9.4
			c1.1,1.6,2.5,2.3,4.1,2.3c1.6,0,3-0.8,4.1-2.3c1.1-1.6,1.7-4.7,1.7-9.4c0-4.7-0.6-7.8-1.7-9.4c-1.1-1.5-2.5-2.3-4.1-2.3
			c-1.6,0-2.9,0.7-3.9,2.1C2590.9,379,2590.3,382.2,2590.3,386.9z"/>
		<path class="st3" d="M2609.5,394.4l3.4-0.3c0.3,1.6,0.8,2.7,1.6,3.5c0.8,0.7,1.8,1.1,3.1,1.1c1.1,0,2-0.2,2.8-0.7
			c0.8-0.5,1.5-1.2,2-2c0.5-0.8,1-1.9,1.3-3.3s0.5-2.8,0.5-4.3c0-0.2,0-0.4,0-0.7c-0.7,1.1-1.7,2-2.9,2.7c-1.2,0.7-2.5,1-4,1
			c-2.4,0-4.4-0.9-6-2.6s-2.5-4-2.5-6.8c0-2.9,0.9-5.2,2.6-7c1.7-1.8,3.9-2.7,6.4-2.7c1.9,0,3.6,0.5,5.1,1.5s2.7,2.4,3.5,4.3
			s1.2,4.5,1.2,8.1c0,3.7-0.4,6.6-1.2,8.7c-0.8,2.2-2,3.8-3.5,5c-1.6,1.1-3.4,1.7-5.5,1.7c-2.2,0-4.1-0.6-5.5-1.9
			C2610.6,398.4,2609.7,396.6,2609.5,394.4z M2623.9,381.7c0-2-0.5-3.6-1.6-4.8s-2.4-1.8-3.9-1.8c-1.6,0-2.9,0.6-4.1,1.9
			c-1.2,1.3-1.7,2.9-1.7,5c0,1.8,0.5,3.3,1.7,4.4c1.1,1.1,2.5,1.7,4.1,1.7c1.6,0,3-0.6,4-1.7
			C2623.3,385.3,2623.9,383.8,2623.9,381.7z"/>
		<path class="st3" d="M2649.7,397.6v3.4h-18.9c0-0.8,0.1-1.7,0.4-2.4c0.5-1.3,1.3-2.6,2.3-3.8c1.1-1.3,2.6-2.7,4.6-4.3
			c3.1-2.6,5.2-4.6,6.3-6.1s1.6-2.9,1.6-4.2c0-1.4-0.5-2.6-1.5-3.5s-2.3-1.4-3.9-1.4c-1.7,0-3,0.5-4.1,1.5s-1.5,2.4-1.5,4.2
			l-3.6-0.4c0.2-2.7,1.2-4.7,2.8-6.2c1.6-1.4,3.8-2.1,6.5-2.1c2.7,0,4.9,0.8,6.5,2.3s2.4,3.4,2.4,5.7c0,1.1-0.2,2.3-0.7,3.4
			s-1.2,2.3-2.3,3.5c-1.1,1.2-2.9,2.9-5.4,5c-2.1,1.8-3.5,3-4.1,3.6c-0.6,0.6-1.1,1.3-1.5,1.9H2649.7z"/>
	</g>
</g>
<rect id="Rectangle-Copy-59_2_" x="2773.7" y="149" class="st14" width="300" height="300"/>
<g class="st0">
	<path d="M2865.5,384.6l-1.2,5.5h4.9v3.8h-5.8l-1.5,7h-3.9l1.5-7h-7.3l-1.5,7h-3.9l1.5-7h-5.6v-3.8h6.5l1.2-5.5h-5.5v-3.9h6.3l1.5-7
		h3.9l-1.5,7h7.3l1.5-7h3.9l-1.5,7h5.1v3.9H2865.5z M2861.5,384.6h-7.3l-1.2,5.5h7.3L2861.5,384.6z"/>
	<path d="M2890.3,375v3.4h-11.2v8.1h9.2v3.2h-9.2V401h-4.2v-26H2890.3z"/>
	<path d="M2911.4,389.8c1,1.2,1.5,2.6,1.5,4.1c0,2.2-0.7,3.9-2.2,5.1s-3.6,1.9-6.3,1.9H2894v-26h10.2c2.6,0,4.6,0.6,6,1.8
		c1.4,1.2,2.1,2.8,2.1,4.8c0,1.6-0.4,3-1.3,4c-0.9,1-2,1.7-3.4,2C2909.2,387.9,2910.5,388.6,2911.4,389.8z M2898.2,386.2h5.2
		c1.5,0,2.6-0.3,3.4-1c0.8-0.7,1.2-1.6,1.2-2.9c0-1.2-0.4-2.2-1.2-2.8c-0.8-0.7-1.9-1-3.5-1h-5.1V386.2z M2907.3,396.4
		c0.9-0.7,1.3-1.7,1.3-3s-0.4-2.3-1.3-3.1c-0.9-0.7-2.1-1.1-3.7-1.1h-5.3v8.3h5.3C2905.2,397.5,2906.4,397.2,2907.3,396.4z"/>
	<path d="M2932.2,375v3.4H2921v8.1h9.2v3.2h-9.2V401h-4.2v-26H2932.2z"/>
	<path d="M2955.6,377.1c2.1,1.6,3.5,3.8,4.3,6.6h-4.5c-0.6-1.6-1.6-2.8-2.9-3.7c-1.3-0.9-3-1.4-4.9-1.4c-1.5,0-2.9,0.4-4.1,1.1
		c-1.2,0.8-2.2,1.9-2.9,3.3c-0.7,1.4-1.1,3.1-1.1,5c0,1.9,0.4,3.5,1.1,4.9c0.7,1.4,1.7,2.5,2.9,3.3c1.2,0.8,2.6,1.1,4.1,1.1
		c1.9,0,3.6-0.5,4.9-1.4c1.3-0.9,2.3-2.2,2.9-3.7h4.5c-0.7,2.8-2.2,5-4.3,6.6c-2.1,1.6-4.8,2.4-8,2.4c-2.5,0-4.6-0.6-6.5-1.7
		c-1.9-1.1-3.4-2.7-4.4-4.7c-1-2-1.5-4.3-1.5-6.9c0-2.6,0.5-4.9,1.5-6.9c1-2,2.5-3.6,4.4-4.7c1.9-1.1,4.1-1.7,6.5-1.7
		C2950.8,374.7,2953.4,375.5,2955.6,377.1z"/>
	<path d="M2979.4,375v3.4h-11.2v8.1h9.2v3.2h-9.2V401h-4.2v-26H2979.4z"/>
	<path d="M3003.9,394.8c-1.1,2-2.6,3.5-4.7,4.6c-2.1,1.1-4.5,1.6-7.4,1.6h-8.7v-26h8.7c2.9,0,5.3,0.5,7.4,1.6
		c2.1,1.1,3.6,2.6,4.7,4.5c1.1,1.9,1.6,4.2,1.6,6.9S3005,392.9,3003.9,394.8z M2998.8,394.8c1.7-1.6,2.5-3.9,2.5-6.8
		c0-2.9-0.8-5.2-2.5-6.8c-1.7-1.6-4.1-2.4-7.2-2.4h-4.2v18.5h4.2C2994.7,397.2,2997.1,396.4,2998.8,394.8z"/>
</g>
<rect id="Rectangle-15-Copy_1_" x="2423.7" y="544" class="st15" width="300" height="300"/>
<g>
	<g>
		<path class="st3" d="M2490.7,796.5l1.7-8.3h-3.3v-2.9h3.9l1.4-7.1h-5.3v-2.9h5.9l1.7-8.4h2.9l-1.7,8.4h6.2l1.7-8.4h2.9l-1.7,8.4
			h3.4v2.9h-4l-1.5,7.1h5.4v2.9h-6l-1.7,8.3h-2.9l1.7-8.3h-6.1l-1.7,8.3H2490.7z M2495.9,785.3h6.1l1.5-7.1h-6.2L2495.9,785.3z"/>
		<path class="st3" d="M2513.1,789.4l3.4-0.3c0.3,1.6,0.8,2.7,1.6,3.5c0.8,0.7,1.8,1.1,3.1,1.1c1.1,0,2-0.2,2.8-0.7
			c0.8-0.5,1.5-1.2,2-2c0.5-0.8,1-1.9,1.3-3.3s0.5-2.8,0.5-4.3c0-0.2,0-0.4,0-0.7c-0.7,1.1-1.7,2-2.9,2.7c-1.2,0.7-2.5,1-4,1
			c-2.4,0-4.4-0.9-6-2.6s-2.5-4-2.5-6.8c0-2.9,0.9-5.2,2.6-7c1.7-1.8,3.9-2.7,6.4-2.7c1.9,0,3.6,0.5,5.1,1.5s2.7,2.4,3.5,4.3
			s1.2,4.5,1.2,8.1c0,3.7-0.4,6.6-1.2,8.7c-0.8,2.2-2,3.8-3.5,5c-1.6,1.1-3.4,1.7-5.5,1.7c-2.2,0-4.1-0.6-5.5-1.9
			C2514.2,793.4,2513.4,791.6,2513.1,789.4z M2527.5,776.7c0-2-0.5-3.6-1.6-4.8s-2.4-1.8-3.9-1.8c-1.6,0-2.9,0.6-4.1,1.9
			c-1.2,1.3-1.7,2.9-1.7,5c0,1.8,0.5,3.3,1.7,4.4c1.1,1.1,2.5,1.7,4.1,1.7c1.6,0,3-0.6,4-1.7C2527,780.3,2527.5,778.8,2527.5,776.7z
			"/>
		<path class="st3" d="M2553.3,792.6v3.4h-18.9c0-0.8,0.1-1.7,0.4-2.4c0.5-1.3,1.3-2.6,2.3-3.8c1.1-1.3,2.6-2.7,4.6-4.3
			c3.1-2.6,5.2-4.6,6.3-6.1s1.6-2.9,1.6-4.2c0-1.4-0.5-2.6-1.5-3.5s-2.3-1.4-3.9-1.4c-1.7,0-3,0.5-4.1,1.5s-1.5,2.4-1.5,4.2
			l-3.6-0.4c0.2-2.7,1.2-4.7,2.8-6.2c1.6-1.4,3.8-2.1,6.5-2.1c2.7,0,4.9,0.8,6.5,2.3s2.4,3.4,2.4,5.7c0,1.1-0.2,2.3-0.7,3.4
			s-1.2,2.3-2.3,3.5c-1.1,1.2-2.9,2.9-5.4,5c-2.1,1.8-3.5,3-4.1,3.6c-0.6,0.6-1.1,1.3-1.5,1.9H2553.3z"/>
		<path class="st3" d="M2557.6,789.4l3.4-0.3c0.3,1.6,0.8,2.7,1.6,3.5c0.8,0.7,1.8,1.1,3.1,1.1c1.1,0,2-0.2,2.8-0.7
			c0.8-0.5,1.5-1.2,2-2c0.5-0.8,1-1.9,1.3-3.3s0.5-2.8,0.5-4.3c0-0.2,0-0.4,0-0.7c-0.7,1.1-1.7,2-2.9,2.7c-1.2,0.7-2.5,1-4,1
			c-2.4,0-4.4-0.9-6-2.6s-2.5-4-2.5-6.8c0-2.9,0.9-5.2,2.6-7c1.7-1.8,3.9-2.7,6.4-2.7c1.9,0,3.6,0.5,5.1,1.5s2.7,2.4,3.5,4.3
			s1.2,4.5,1.2,8.1c0,3.7-0.4,6.6-1.2,8.7c-0.8,2.2-2,3.8-3.5,5c-1.6,1.1-3.4,1.7-5.5,1.7c-2.2,0-4.1-0.6-5.5-1.9
			C2558.7,793.4,2557.9,791.6,2557.6,789.4z M2572,776.7c0-2-0.5-3.6-1.6-4.8s-2.4-1.8-3.9-1.8c-1.6,0-2.9,0.6-4.1,1.9
			c-1.2,1.3-1.7,2.9-1.7,5c0,1.8,0.5,3.3,1.7,4.4c1.1,1.1,2.5,1.7,4.1,1.7c1.6,0,3-0.6,4-1.7C2571.5,780.3,2572,778.8,2572,776.7z"
			/>
		<path class="st3" d="M2597.8,792.6v3.4h-18.9c0-0.8,0.1-1.7,0.4-2.4c0.5-1.3,1.3-2.6,2.3-3.8c1.1-1.3,2.6-2.7,4.6-4.3
			c3.1-2.6,5.2-4.6,6.3-6.1s1.6-2.9,1.6-4.2c0-1.4-0.5-2.6-1.5-3.5s-2.3-1.4-3.9-1.4c-1.7,0-3,0.5-4.1,1.5s-1.5,2.4-1.5,4.2
			l-3.6-0.4c0.2-2.7,1.2-4.7,2.8-6.2c1.6-1.4,3.8-2.1,6.5-2.1c2.7,0,4.9,0.8,6.5,2.3s2.4,3.4,2.4,5.7c0,1.1-0.2,2.3-0.7,3.4
			s-1.2,2.3-2.3,3.5c-1.1,1.2-2.9,2.9-5.4,5c-2.1,1.8-3.5,3-4.1,3.6c-0.6,0.6-1.1,1.3-1.5,1.9H2597.8z"/>
		<path class="st3" d="M2599.8,796l11-28.6h4.1l11.7,28.6h-4.3l-3.3-8.7h-12l-3.1,8.7H2599.8z M2608.1,784.2h9.7l-3-7.9
			c-0.9-2.4-1.6-4.4-2-5.9c-0.4,1.8-0.9,3.7-1.5,5.5L2608.1,784.2z"/>
		<path class="st3" d="M2628.2,781.9c0-3.4,0.3-6.1,1-8.2c0.7-2.1,1.7-3.7,3.1-4.8c1.4-1.1,3.1-1.7,5.2-1.7c1.5,0,2.9,0.3,4,0.9
			c1.2,0.6,2.1,1.5,2.9,2.7c0.8,1.2,1.3,2.6,1.8,4.3s0.6,3.9,0.6,6.8c0,3.4-0.3,6.1-1,8.1c-0.7,2.1-1.7,3.7-3.1,4.8
			c-1.4,1.1-3.1,1.7-5.2,1.7c-2.8,0-4.9-1-6.5-3C2629.2,791.1,2628.2,787.3,2628.2,781.9z M2631.9,781.9c0,4.7,0.5,7.8,1.7,9.4
			c1.1,1.6,2.5,2.3,4.1,2.3c1.6,0,3-0.8,4.1-2.3c1.1-1.6,1.7-4.7,1.7-9.4c0-4.7-0.6-7.8-1.7-9.4c-1.1-1.5-2.5-2.3-4.1-2.3
			c-1.6,0-2.9,0.7-3.9,2.1C2632.5,774,2631.9,777.2,2631.9,781.9z"/>
	</g>
</g>
<rect id="Rectangle-15-Copy-3_1_" x="2773.7" y="544" class="st16" width="300" height="300"/>
<g>
	<g>
		<path class="st3" d="M2843.7,796.5l1.7-8.3h-3.3v-2.9h3.9l1.4-7.1h-5.3v-2.9h5.9l1.7-8.4h2.9l-1.7,8.4h6.2l1.7-8.4h2.9l-1.7,8.4
			h3.4v2.9h-4l-1.5,7.1h5.4v2.9h-6l-1.7,8.3h-2.9l1.7-8.3h-6.1l-1.7,8.3H2843.7z M2848.9,785.3h6.1l1.5-7.1h-6.2L2848.9,785.3z"/>
		<path class="st3" d="M2865.8,771.1v-3.4h18.5v2.7c-1.8,1.9-3.6,4.5-5.4,7.7c-1.8,3.2-3.2,6.5-4.2,9.9c-0.7,2.4-1.2,5-1.3,7.9h-3.6
			c0-2.3,0.5-5,1.3-8.2c0.8-3.2,2.1-6.3,3.6-9.2s3.3-5.5,5-7.5H2865.8z"/>
		<path class="st3" d="M2888.3,789.4l3.4-0.3c0.3,1.6,0.8,2.7,1.6,3.5c0.8,0.7,1.8,1.1,3.1,1.1c1.1,0,2-0.2,2.8-0.7
			c0.8-0.5,1.5-1.2,2-2c0.5-0.8,1-1.9,1.3-3.3s0.5-2.8,0.5-4.3c0-0.2,0-0.4,0-0.7c-0.7,1.1-1.7,2-2.9,2.7c-1.2,0.7-2.5,1-4,1
			c-2.4,0-4.4-0.9-6-2.6s-2.5-4-2.5-6.8c0-2.9,0.9-5.2,2.6-7c1.7-1.8,3.9-2.7,6.4-2.7c1.9,0,3.6,0.5,5.1,1.5s2.7,2.4,3.5,4.3
			s1.2,4.5,1.2,8.1c0,3.7-0.4,6.6-1.2,8.7c-0.8,2.2-2,3.8-3.5,5c-1.6,1.1-3.4,1.7-5.5,1.7c-2.2,0-4.1-0.6-5.5-1.9
			C2889.5,793.4,2888.6,791.6,2888.3,789.4z M2902.7,776.7c0-2-0.5-3.6-1.6-4.8s-2.4-1.8-3.9-1.8c-1.6,0-2.9,0.6-4.1,1.9
			c-1.2,1.3-1.7,2.9-1.7,5c0,1.8,0.5,3.3,1.7,4.4c1.1,1.1,2.5,1.7,4.1,1.7c1.6,0,3-0.6,4-1.7
			C2902.2,780.3,2902.7,778.8,2902.7,776.7z"/>
		<path class="st3" d="M2910.3,771.1v-3.4h18.5v2.7c-1.8,1.9-3.6,4.5-5.4,7.7c-1.8,3.2-3.2,6.5-4.2,9.9c-0.7,2.4-1.2,5-1.3,7.9h-3.6
			c0-2.3,0.5-5,1.3-8.2c0.8-3.2,2.1-6.3,3.6-9.2s3.3-5.5,5-7.5H2910.3z"/>
		<path class="st3" d="M2937.7,780.5c-1.5-0.5-2.5-1.3-3.2-2.3s-1.1-2.2-1.1-3.6c0-2.1,0.7-3.8,2.2-5.3c1.5-1.4,3.5-2.1,6-2.1
			c2.5,0,4.5,0.7,6,2.2s2.3,3.2,2.3,5.3c0,1.3-0.3,2.5-1,3.5c-0.7,1-1.8,1.7-3.2,2.3c1.8,0.6,3.1,1.5,4,2.8s1.4,2.8,1.4,4.6
			c0,2.4-0.9,4.5-2.6,6.2c-1.7,1.7-4,2.5-6.8,2.5c-2.8,0-5.1-0.8-6.8-2.5c-1.7-1.7-2.6-3.8-2.6-6.3c0-1.9,0.5-3.4,1.4-4.7
			C2934.6,781.8,2936,780.9,2937.7,780.5z M2935.9,787.7c0,1,0.2,2,0.7,2.9c0.5,0.9,1.2,1.7,2.1,2.2s1.9,0.8,3,0.8
			c1.7,0,3.1-0.5,4.2-1.6s1.6-2.5,1.6-4.1c0-1.7-0.6-3.1-1.7-4.2c-1.1-1.1-2.5-1.7-4.2-1.7c-1.7,0-3,0.5-4.1,1.6
			C2936.4,784.7,2935.9,786.1,2935.9,787.7z M2937,774.5c0,1.4,0.4,2.5,1.3,3.3c0.9,0.9,2,1.3,3.4,1.3c1.4,0,2.5-0.4,3.3-1.3
			c0.9-0.9,1.3-1.9,1.3-3.1c0-1.3-0.4-2.4-1.3-3.3c-0.9-0.9-2-1.3-3.3-1.3c-1.3,0-2.5,0.4-3.3,1.3
			C2937.5,772.3,2937,773.3,2937,774.5z"/>
		<path class="st3" d="M2955.1,789.4l3.4-0.3c0.3,1.6,0.8,2.7,1.6,3.5c0.8,0.7,1.8,1.1,3.1,1.1c1.1,0,2-0.2,2.8-0.7
			c0.8-0.5,1.5-1.2,2-2c0.5-0.8,1-1.9,1.3-3.3s0.5-2.8,0.5-4.3c0-0.2,0-0.4,0-0.7c-0.7,1.1-1.7,2-2.9,2.7c-1.2,0.7-2.5,1-4,1
			c-2.4,0-4.4-0.9-6-2.6s-2.5-4-2.5-6.8c0-2.9,0.9-5.2,2.6-7c1.7-1.8,3.9-2.7,6.4-2.7c1.9,0,3.6,0.5,5.1,1.5s2.7,2.4,3.5,4.3
			s1.2,4.5,1.2,8.1c0,3.7-0.4,6.6-1.2,8.7c-0.8,2.2-2,3.8-3.5,5c-1.6,1.1-3.4,1.7-5.5,1.7c-2.2,0-4.1-0.6-5.5-1.9
			C2956.2,793.4,2955.4,791.6,2955.1,789.4z M2969.5,776.7c0-2-0.5-3.6-1.6-4.8s-2.4-1.8-3.9-1.8c-1.6,0-2.9,0.6-4.1,1.9
			c-1.2,1.3-1.7,2.9-1.7,5c0,1.8,0.5,3.3,1.7,4.4c1.1,1.1,2.5,1.7,4.1,1.7c1.6,0,3-0.6,4-1.7C2969,780.3,2969.5,778.8,2969.5,776.7z
			"/>
		<path class="st3" d="M2995,774.4l-3.5,0.3c-0.3-1.4-0.8-2.4-1.3-3c-1-1-2.1-1.5-3.5-1.5c-1.1,0-2.1,0.3-2.9,0.9
			c-1.1,0.8-2,2-2.6,3.5c-0.6,1.5-1,3.8-1,6.6c0.8-1.3,1.9-2.2,3.1-2.9c1.2-0.6,2.5-0.9,3.8-0.9c2.3,0,4.3,0.9,6,2.6
			c1.6,1.7,2.5,4,2.5,6.7c0,1.8-0.4,3.5-1.2,5c-0.8,1.5-1.8,2.7-3.2,3.5c-1.4,0.8-2.9,1.2-4.6,1.2c-2.9,0-5.3-1.1-7.2-3.2
			c-1.8-2.2-2.8-5.7-2.8-10.7c0-5.5,1-9.6,3.1-12.1c1.8-2.2,4.2-3.3,7.2-3.3c2.3,0,4.1,0.6,5.5,1.9
			C2993.9,770.4,2994.8,772.2,2995,774.4z M2980.7,786.7c0,1.2,0.3,2.4,0.8,3.5c0.5,1.1,1.2,2,2.2,2.5c0.9,0.6,1.9,0.9,2.9,0.9
			c1.5,0,2.8-0.6,3.8-1.8c1.1-1.2,1.6-2.8,1.6-4.9c0-2-0.5-3.5-1.6-4.7s-2.4-1.7-4-1.7c-1.6,0-2.9,0.6-4,1.7
			C2981.2,783.4,2980.7,784.9,2980.7,786.7z"/>
	</g>
</g>
<rect id="Rectangle-Copy-59_4_" x="3116.8" y="149" class="st17" width="300" height="300"/>
<g>
	<g>
		<path d="M3208.6,384.6l-1.2,5.5h4.9v3.8h-5.8l-1.5,7h-3.9l1.5-7h-7.3l-1.5,7h-3.9l1.5-7h-5.6v-3.8h6.5l1.2-5.5h-5.5v-3.9h6.3
			l1.5-7h3.9l-1.5,7h7.3l1.5-7h3.9l-1.5,7h5.1v3.9H3208.6z M3204.6,384.6h-7.3l-1.2,5.5h7.3L3204.6,384.6z"/>
		<path d="M3235.4,389.8c1,1.2,1.5,2.6,1.5,4.1c0,2.2-0.7,3.9-2.2,5.1c-1.5,1.3-3.6,1.9-6.3,1.9H3218v-26h10.2c2.6,0,4.6,0.6,6,1.8
			c1.4,1.2,2.1,2.8,2.1,4.8c0,1.6-0.4,3-1.3,4c-0.9,1-2,1.7-3.4,2C3233.1,387.9,3234.4,388.6,3235.4,389.8z M3222.2,386.2h5.2
			c1.5,0,2.6-0.3,3.4-1c0.8-0.7,1.2-1.6,1.2-2.9c0-1.2-0.4-2.2-1.2-2.8c-0.8-0.7-1.9-1-3.5-1h-5.1V386.2z M3231.2,396.4
			c0.9-0.7,1.3-1.7,1.3-3s-0.4-2.3-1.3-3.1c-0.9-0.7-2.1-1.1-3.7-1.1h-5.3v8.3h5.3C3229.1,397.5,3230.3,397.2,3231.2,396.4z"/>
		<path d="M3256.2,375v3.4H3245v8.1h9.2v3.2h-9.2V401h-4.2v-26H3256.2z"/>
		<path d="M3277.3,389.8c1,1.2,1.5,2.6,1.5,4.1c0,2.2-0.7,3.9-2.2,5.1c-1.5,1.3-3.6,1.9-6.3,1.9h-10.4v-26h10.2c2.6,0,4.6,0.6,6,1.8
			c1.4,1.2,2.1,2.8,2.1,4.8c0,1.6-0.4,3-1.3,4c-0.9,1-2,1.7-3.4,2C3275.1,387.9,3276.3,388.6,3277.3,389.8z M3264.1,386.2h5.2
			c1.5,0,2.6-0.3,3.4-1c0.8-0.7,1.2-1.6,1.2-2.9c0-1.2-0.4-2.2-1.2-2.8c-0.8-0.7-1.9-1-3.5-1h-5.1V386.2z M3273.1,396.4
			c0.9-0.7,1.3-1.7,1.3-3s-0.4-2.3-1.3-3.1c-0.9-0.7-2.1-1.1-3.7-1.1h-5.3v8.3h5.3C3271,397.5,3272.3,397.2,3273.1,396.4z"/>
		<path d="M3298.1,375v3.4h-11.2v8.1h9.2v3.2h-9.2V401h-4.2v-26H3298.1z"/>
		<path d="M3322.6,394.8c-1.1,2-2.6,3.5-4.7,4.6c-2.1,1.1-4.5,1.6-7.4,1.6h-8.7v-26h8.7c2.9,0,5.3,0.5,7.4,1.6
			c2.1,1.1,3.6,2.6,4.7,4.5c1.1,1.9,1.6,4.2,1.6,6.9S3323.7,392.9,3322.6,394.8z M3317.4,394.8c1.7-1.6,2.5-3.9,2.5-6.8
			c0-2.9-0.8-5.2-2.5-6.8c-1.7-1.6-4.1-2.4-7.2-2.4h-4.2v18.5h4.2C3313.3,397.2,3315.7,396.4,3317.4,394.8z"/>
		<path d="M3326.4,378.9V375h8.3v26h-4.4v-22.1H3326.4z"/>
	</g>
</g>
<linearGradient id="Rectangle-15-Copy-3_3_" gradientUnits="userSpaceOnUse" x1="3266.7502" y1="545.3333" x2="3266.7502" y2="845.8337">
	<stop  offset="0" style="stop-color:#45385E"/>
	<stop  offset="0.5335" style="stop-color:#7F519E"/>
	<stop  offset="1" style="stop-color:#A761A5"/>
</linearGradient>
<rect id="Rectangle-15-Copy-3_2_" x="3116.8" y="544" class="st18" width="300" height="300"/>
<g>
	<g>
		<path class="st3" d="M3186.8,796.5l1.7-8.3h-3.3v-2.9h3.9l1.4-7.1h-5.3v-2.9h5.9l1.7-8.4h2.9l-1.7,8.4h6.2l1.7-8.4h2.9l-1.7,8.4
			h3.4v2.9h-4l-1.5,7.1h5.4v2.9h-6l-1.7,8.3h-2.9l1.7-8.3h-6.1l-1.7,8.3H3186.8z M3192,785.3h6.1l1.5-7.1h-6.2L3192,785.3z"/>
		<path class="st3" d="M3223.2,793.4c-1.3,1.1-2.6,1.9-3.8,2.3s-2.5,0.7-3.9,0.7c-2.3,0-4-0.6-5.3-1.7s-1.8-2.5-1.8-4.3
			c0-1,0.2-1.9,0.7-2.8s1.1-1.5,1.8-2s1.6-0.9,2.5-1.2c0.7-0.2,1.7-0.4,3.1-0.5c2.8-0.3,4.9-0.7,6.3-1.2c0-0.5,0-0.8,0-0.9
			c0-1.4-0.3-2.4-1-3c-0.9-0.8-2.2-1.2-4-1.2c-1.7,0-2.9,0.3-3.7,0.9s-1.4,1.6-1.7,3.1l-3.4-0.5c0.3-1.5,0.8-2.7,1.5-3.6
			s1.8-1.6,3.1-2.1s2.9-0.7,4.7-0.7c1.8,0,3.2,0.2,4.3,0.6s1.9,0.9,2.4,1.6s0.9,1.4,1.1,2.4c0.1,0.6,0.2,1.7,0.2,3.2v4.7
			c0,3.3,0.1,5.3,0.2,6.2s0.4,1.7,0.9,2.5h-3.7C3223.5,795.3,3223.3,794.4,3223.2,793.4z M3222.9,785.6c-1.3,0.5-3.2,1-5.7,1.3
			c-1.4,0.2-2.5,0.4-3.1,0.7s-1.1,0.6-1.4,1.1s-0.5,1.1-0.5,1.7c0,0.9,0.4,1.7,1.1,2.3s1.7,0.9,3.1,0.9c1.4,0,2.6-0.3,3.6-0.9
			s1.8-1.4,2.3-2.4c0.4-0.8,0.6-2,0.6-3.5V785.6z"/>
		<path class="st3" d="M3231.1,771.1v-3.4h18.5v2.7c-1.8,1.9-3.6,4.5-5.4,7.7s-3.2,6.5-4.2,9.9c-0.7,2.4-1.2,5-1.3,7.9h-3.6
			c0-2.3,0.5-5,1.3-8.2s2.1-6.3,3.6-9.2s3.3-5.5,5-7.5H3231.1z"/>
		<path class="st3" d="M3271.4,774.4l-3.5,0.3c-0.3-1.4-0.8-2.4-1.3-3c-1-1-2.1-1.5-3.5-1.5c-1.1,0-2.1,0.3-2.9,0.9
			c-1.1,0.8-2,2-2.6,3.5s-1,3.8-1,6.6c0.8-1.3,1.9-2.2,3.1-2.9s2.5-0.9,3.8-0.9c2.3,0,4.3,0.9,6,2.6s2.5,4,2.5,6.7
			c0,1.8-0.4,3.5-1.2,5s-1.8,2.7-3.2,3.5s-2.9,1.2-4.6,1.2c-2.9,0-5.3-1.1-7.2-3.2s-2.8-5.7-2.8-10.7c0-5.5,1-9.6,3.1-12.1
			c1.8-2.2,4.2-3.3,7.2-3.3c2.3,0,4.1,0.6,5.5,1.9S3271.1,772.2,3271.4,774.4z M3257,786.7c0,1.2,0.3,2.4,0.8,3.5s1.2,2,2.2,2.5
			s1.9,0.9,2.9,0.9c1.5,0,2.8-0.6,3.8-1.8s1.6-2.8,1.6-4.9c0-2-0.5-3.5-1.6-4.7s-2.4-1.7-4-1.7c-1.6,0-2.9,0.6-4,1.7
			S3257,784.9,3257,786.7z"/>
		<path class="st3" d="M3288.6,796h-3.5v-22.4c-0.8,0.8-2,1.6-3.3,2.4s-2.6,1.4-3.7,1.8v-3.4c2-0.9,3.7-2,5.2-3.4s2.5-2.6,3.1-3.8
			h2.3V796z"/>
		<path class="st3" d="M3312.2,793.4c-1.3,1.1-2.6,1.9-3.8,2.3s-2.5,0.7-3.9,0.7c-2.3,0-4-0.6-5.3-1.7s-1.8-2.5-1.8-4.3
			c0-1,0.2-1.9,0.7-2.8s1.1-1.5,1.8-2s1.6-0.9,2.5-1.2c0.7-0.2,1.7-0.4,3.1-0.5c2.8-0.3,4.9-0.7,6.3-1.2c0-0.5,0-0.8,0-0.9
			c0-1.4-0.3-2.4-1-3c-0.9-0.8-2.2-1.2-4-1.2c-1.7,0-2.9,0.3-3.7,0.9s-1.4,1.6-1.7,3.1l-3.4-0.5c0.3-1.5,0.8-2.7,1.5-3.6
			s1.8-1.6,3.1-2.1s2.9-0.7,4.7-0.7c1.8,0,3.2,0.2,4.3,0.6s1.9,0.9,2.4,1.6s0.9,1.4,1.1,2.4c0.1,0.6,0.2,1.7,0.2,3.2v4.7
			c0,3.3,0.1,5.3,0.2,6.2s0.4,1.7,0.9,2.5h-3.7C3312.5,795.3,3312.3,794.4,3312.2,793.4z M3311.9,785.6c-1.3,0.5-3.2,1-5.7,1.3
			c-1.4,0.2-2.5,0.4-3.1,0.7s-1.1,0.6-1.4,1.1s-0.5,1.1-0.5,1.7c0,0.9,0.4,1.7,1.1,2.3s1.7,0.9,3.1,0.9c1.4,0,2.6-0.3,3.6-0.9
			s1.8-1.4,2.3-2.4c0.4-0.8,0.6-2,0.6-3.5V785.6z"/>
		<path class="st3" d="M3319.9,788.5l3.7-0.3c0.3,1.8,0.9,3.1,1.9,4.1s2.2,1.4,3.6,1.4c1.7,0,3.1-0.6,4.3-1.9s1.8-3,1.8-5.1
			c0-2-0.6-3.6-1.7-4.7s-2.6-1.7-4.4-1.7c-1.1,0-2.2,0.3-3.1,0.8s-1.6,1.2-2.1,2l-3.3-0.4l2.8-14.7h14.2v3.4h-11.4l-1.5,7.7
			c1.7-1.2,3.5-1.8,5.4-1.8c2.5,0,4.6,0.9,6.3,2.6s2.6,4,2.6,6.7c0,2.6-0.8,4.8-2.3,6.7c-1.8,2.3-4.3,3.5-7.5,3.5
			c-2.6,0-4.7-0.7-6.4-2.2S3320.1,790.9,3319.9,788.5z"/>
	</g>
</g>
<g>
	<g>
		<path class="st3" d="M3186.8,603.6l1.7-8.3h-3.3v-2.9h3.9l1.4-7.1h-5.3v-2.9h5.9l1.7-8.4h2.9l-1.7,8.4h6.2l1.7-8.4h2.9l-1.7,8.4
			h3.4v2.9h-4l-1.5,7.1h5.4v2.9h-6l-1.7,8.3h-2.9l1.7-8.3h-6.1l-1.7,8.3H3186.8z M3192,592.4h6.1l1.5-7.1h-6.2L3192,592.4z"/>
		<path class="st3" d="M3219.9,603.1v-6.9h-12.4V593l13.1-18.6h2.9V593h3.9v3.2h-3.9v6.9H3219.9z M3219.9,593v-12.9l-9,12.9H3219.9z
			"/>
		<path class="st3" d="M3230.9,595.6l3.7-0.3c0.3,1.8,0.9,3.1,1.9,4.1s2.2,1.4,3.6,1.4c1.7,0,3.1-0.6,4.3-1.9s1.8-3,1.8-5.1
			c0-2-0.6-3.6-1.7-4.7s-2.6-1.7-4.4-1.7c-1.1,0-2.2,0.3-3.1,0.8s-1.6,1.2-2.1,2l-3.3-0.4l2.8-14.7h14.2v3.4h-11.4l-1.5,7.7
			c1.7-1.2,3.5-1.8,5.4-1.8c2.5,0,4.6,0.9,6.3,2.6s2.6,4,2.6,6.7c0,2.6-0.8,4.8-2.3,6.7c-1.8,2.3-4.3,3.5-7.5,3.5
			c-2.6,0-4.7-0.7-6.4-2.2S3231.1,598,3230.9,595.6z"/>
		<path class="st3" d="M3253.2,595.6l3.5-0.5c0.4,2,1.1,3.4,2.1,4.3s2.2,1.3,3.5,1.3c1.7,0,3-0.6,4.2-1.7s1.7-2.6,1.7-4.3
			c0-1.6-0.5-2.9-1.6-4s-2.4-1.6-4-1.6c-0.7,0-1.5,0.1-2.5,0.4l0.4-3.1c0.2,0,0.4,0,0.6,0c1.5,0,2.8-0.4,4-1.2s1.8-2,1.8-3.6
			c0-1.3-0.4-2.4-1.3-3.2s-2-1.3-3.4-1.3c-1.4,0-2.5,0.4-3.4,1.3s-1.5,2.1-1.8,3.9l-3.5-0.6c0.4-2.4,1.4-4.2,2.9-5.5
			s3.4-1.9,5.7-1.9c1.6,0,3,0.3,4.3,1s2.3,1.6,3,2.7s1,2.4,1,3.7c0,1.2-0.3,2.4-1,3.4s-1.6,1.8-2.9,2.4c1.7,0.4,3,1.2,3.9,2.4
			s1.4,2.8,1.4,4.6c0,2.5-0.9,4.6-2.7,6.4s-4.1,2.6-6.9,2.6c-2.5,0-4.6-0.7-6.3-2.2S3253.4,597.9,3253.2,595.6z"/>
		<path class="st3" d="M3280.8,587.6c-1.5-0.5-2.5-1.3-3.2-2.3s-1.1-2.2-1.1-3.6c0-2.1,0.7-3.8,2.2-5.3s3.5-2.1,6-2.1
			c2.5,0,4.5,0.7,6,2.2s2.3,3.2,2.3,5.3c0,1.3-0.3,2.5-1,3.5s-1.8,1.7-3.2,2.3c1.8,0.6,3.1,1.5,4,2.8s1.4,2.8,1.4,4.6
			c0,2.4-0.9,4.5-2.6,6.2s-4,2.5-6.8,2.5s-5.1-0.8-6.8-2.5s-2.6-3.8-2.6-6.3c0-1.9,0.5-3.4,1.4-4.7S3279.1,588,3280.8,587.6z
			 M3279,594.8c0,1,0.2,2,0.7,2.9s1.2,1.7,2.1,2.2s1.9,0.8,3,0.8c1.7,0,3.1-0.5,4.2-1.6s1.6-2.5,1.6-4.1c0-1.7-0.6-3.1-1.7-4.2
			s-2.5-1.7-4.2-1.7c-1.7,0-3,0.5-4.1,1.6S3279,593.2,3279,594.8z M3280.1,581.6c0,1.4,0.4,2.5,1.3,3.3s2,1.3,3.4,1.3
			c1.4,0,2.5-0.4,3.3-1.3s1.3-1.9,1.3-3.1c0-1.3-0.4-2.4-1.3-3.3s-2-1.3-3.3-1.3c-1.3,0-2.5,0.4-3.3,1.3S3280.1,580.4,3280.1,581.6z
			"/>
		<path class="st3" d="M3297.6,595.6l3.7-0.3c0.3,1.8,0.9,3.1,1.9,4.1s2.2,1.4,3.6,1.4c1.7,0,3.1-0.6,4.3-1.9s1.8-3,1.8-5.1
			c0-2-0.6-3.6-1.7-4.7s-2.6-1.7-4.4-1.7c-1.1,0-2.2,0.3-3.1,0.8s-1.6,1.2-2.1,2l-3.3-0.4l2.8-14.7h14.2v3.4h-11.4l-1.5,7.7
			c1.7-1.2,3.5-1.8,5.4-1.8c2.5,0,4.6,0.9,6.3,2.6s2.6,4,2.6,6.7c0,2.6-0.8,4.8-2.3,6.7c-1.8,2.3-4.3,3.5-7.5,3.5
			c-2.6,0-4.7-0.7-6.4-2.2S3297.9,598,3297.6,595.6z"/>
		<path class="st3" d="M3335.1,596.4l3.6,0.4c-0.6,2.1-1.6,3.8-3.2,4.9s-3.5,1.8-5.9,1.8c-3,0-5.4-0.9-7.2-2.8s-2.7-4.5-2.7-7.9
			c0-3.5,0.9-6.2,2.7-8.1s4.1-2.9,7-2.9c2.8,0,5,0.9,6.8,2.8s2.6,4.5,2.6,8c0,0.2,0,0.5,0,0.9h-15.5c0.1,2.3,0.8,4,1.9,5.2
			s2.6,1.8,4.3,1.8c1.3,0,2.4-0.3,3.3-1S3334.5,597.9,3335.1,596.4z M3323.5,590.7h11.6c-0.2-1.7-0.6-3.1-1.3-3.9
			c-1.1-1.4-2.6-2-4.4-2c-1.6,0-3,0.5-4.1,1.6S3323.6,588.9,3323.5,590.7z"/>
	</g>
</g>
<g>
	<g>
		<path class="st3" d="M3186.8,700l1.7-8.3h-3.3v-2.9h3.9l1.4-7.1h-5.3v-2.9h5.9l1.7-8.4h2.9l-1.7,8.4h6.2l1.7-8.4h2.9l-1.7,8.4h3.4
			v2.9h-4l-1.5,7.1h5.4v2.9h-6l-1.7,8.3h-2.9l1.7-8.3h-6.1l-1.7,8.3H3186.8z M3192,688.8h6.1l1.5-7.1h-6.2L3192,688.8z"/>
		<path class="st3" d="M3208.9,674.7v-3.4h18.5v2.7c-1.8,1.9-3.6,4.5-5.4,7.7s-3.2,6.5-4.2,9.9c-0.7,2.4-1.2,5-1.3,7.9h-3.6
			c0-2.3,0.5-5,1.3-8.2s2.1-6.3,3.6-9.2s3.3-5.5,5-7.5H3208.9z"/>
		<path class="st3" d="M3232.7,699.6v-18h-3.1v-2.7h3.1v-2.2c0-1.4,0.1-2.4,0.4-3.1c0.3-0.9,0.9-1.7,1.8-2.2s2-0.8,3.6-0.8
			c1,0,2.1,0.1,3.3,0.4l-0.5,3.1c-0.7-0.1-1.4-0.2-2.1-0.2c-1.1,0-1.8,0.2-2.3,0.7s-0.7,1.3-0.7,2.6v1.9h4v2.7h-4v18H3232.7z"/>
		<path class="st3" d="M3242,692.1l3.7-0.3c0.3,1.8,0.9,3.1,1.9,4.1s2.2,1.4,3.6,1.4c1.7,0,3.1-0.6,4.3-1.9s1.8-3,1.8-5.1
			c0-2-0.6-3.6-1.7-4.7s-2.6-1.7-4.4-1.7c-1.1,0-2.2,0.3-3.1,0.8s-1.6,1.2-2.1,2l-3.3-0.4l2.8-14.7h14.2v3.4h-11.4l-1.5,7.7
			c1.7-1.2,3.5-1.8,5.4-1.8c2.5,0,4.6,0.9,6.3,2.6s2.6,4,2.6,6.7c0,2.6-0.8,4.8-2.3,6.7c-1.8,2.3-4.3,3.5-7.5,3.5
			c-2.6,0-4.7-0.7-6.4-2.2S3242.3,694.5,3242,692.1z"/>
		<path class="st3" d="M3277.5,699.6h-3.5v-22.4c-0.8,0.8-2,1.6-3.3,2.4s-2.6,1.4-3.7,1.8V678c2-0.9,3.7-2,5.2-3.4s2.5-2.6,3.1-3.8
			h2.3V699.6z"/>
		<path class="st3" d="M3287,692.9l3.4-0.3c0.3,1.6,0.8,2.7,1.6,3.5s1.8,1.1,3.1,1.1c1.1,0,2-0.2,2.8-0.7s1.5-1.2,2-2s1-1.9,1.3-3.3
			s0.5-2.8,0.5-4.3c0-0.2,0-0.4,0-0.7c-0.7,1.1-1.7,2-2.9,2.7s-2.5,1-4,1c-2.4,0-4.4-0.9-6-2.6s-2.5-4-2.5-6.8c0-2.9,0.9-5.2,2.6-7
			s3.9-2.7,6.4-2.7c1.9,0,3.6,0.5,5.1,1.5s2.7,2.4,3.5,4.3s1.2,4.5,1.2,8.1c0,3.7-0.4,6.6-1.2,8.7s-2,3.8-3.5,5s-3.4,1.7-5.5,1.7
			c-2.2,0-4.1-0.6-5.5-1.9S3287.3,695.2,3287,692.9z M3301.4,680.3c0-2-0.5-3.6-1.6-4.8s-2.4-1.8-3.9-1.8c-1.6,0-2.9,0.6-4.1,1.9
			s-1.7,2.9-1.7,5c0,1.8,0.5,3.3,1.7,4.4s2.5,1.7,4.1,1.7c1.6,0,3-0.6,4-1.7S3301.4,682.3,3301.4,680.3z"/>
		<path class="st3" d="M3323.9,692.9l3.6,0.4c-0.6,2.1-1.6,3.8-3.2,4.9s-3.5,1.8-5.9,1.8c-3,0-5.4-0.9-7.2-2.8s-2.7-4.5-2.7-7.9
			c0-3.5,0.9-6.2,2.7-8.1s4.1-2.9,7-2.9c2.8,0,5,0.9,6.8,2.8s2.6,4.5,2.6,8c0,0.2,0,0.5,0,0.9h-15.5c0.1,2.3,0.8,4,1.9,5.2
			s2.6,1.8,4.3,1.8c1.3,0,2.4-0.3,3.3-1S3323.4,694.4,3323.9,692.9z M3312.4,687.2h11.6c-0.2-1.7-0.6-3.1-1.3-3.9
			c-1.1-1.4-2.6-2-4.4-2c-1.6,0-3,0.5-4.1,1.6S3312.5,685.4,3312.4,687.2z"/>
	</g>
</g>
<rect id="Rectangle-15-Copy-2" x="700" y="544" class="st19" width="300" height="300"/>
<g class="st0">
	<path class="st3" d="M770,796.5l1.7-8.3h-3.3v-2.9h3.9l1.4-7.1h-5.3v-2.9h5.9l1.7-8.4h2.9l-1.7,8.4h6.2l1.7-8.4h2.9l-1.7,8.4h3.4
		v2.9h-4l-1.5,7.1h5.4v2.9h-6l-1.7,8.3h-2.9l1.7-8.3h-6.1l-1.7,8.3H770z M775.2,785.3h6.1l1.5-7.1h-6.2L775.2,785.3z"/>
	<path class="st3" d="M797.3,780.5c-1.5-0.5-2.5-1.3-3.2-2.3s-1.1-2.2-1.1-3.6c0-2.1,0.7-3.8,2.2-5.3c1.5-1.4,3.5-2.1,6-2.1
		c2.5,0,4.5,0.7,6,2.2s2.3,3.2,2.3,5.3c0,1.3-0.3,2.5-1,3.5c-0.7,1-1.8,1.7-3.2,2.3c1.8,0.6,3.1,1.5,4,2.8s1.4,2.8,1.4,4.6
		c0,2.4-0.9,4.5-2.6,6.2c-1.7,1.7-4,2.5-6.8,2.5c-2.8,0-5.1-0.8-6.8-2.5c-1.7-1.7-2.6-3.8-2.6-6.3c0-1.9,0.5-3.4,1.4-4.7
		C794.2,781.8,795.6,780.9,797.3,780.5z M795.5,787.7c0,1,0.2,2,0.7,2.9c0.5,0.9,1.2,1.7,2.1,2.2s1.9,0.8,3,0.8
		c1.7,0,3.1-0.5,4.2-1.6s1.6-2.5,1.6-4.1c0-1.7-0.6-3.1-1.7-4.2c-1.1-1.1-2.5-1.7-4.2-1.7c-1.7,0-3,0.5-4.1,1.6
		C796,784.7,795.5,786.1,795.5,787.7z M796.6,774.5c0,1.4,0.4,2.5,1.3,3.3c0.9,0.9,2,1.3,3.4,1.3c1.4,0,2.5-0.4,3.3-1.3
		c0.9-0.9,1.3-1.9,1.3-3.1c0-1.3-0.4-2.4-1.3-3.3c-0.9-0.9-2-1.3-3.3-1.3c-1.3,0-2.5,0.4-3.3,1.3
		C797.1,772.3,796.6,773.3,796.6,774.5z"/>
	<path class="st3" d="M832.6,792.6v3.4h-18.9c0-0.8,0.1-1.7,0.4-2.4c0.5-1.3,1.3-2.6,2.3-3.8c1.1-1.3,2.6-2.7,4.6-4.3
		c3.1-2.6,5.2-4.6,6.3-6.1s1.6-2.9,1.6-4.2c0-1.4-0.5-2.6-1.5-3.5s-2.3-1.4-3.9-1.4c-1.7,0-3,0.5-4.1,1.5s-1.5,2.4-1.5,4.2l-3.6-0.4
		c0.2-2.7,1.2-4.7,2.8-6.2c1.6-1.4,3.8-2.1,6.5-2.1c2.7,0,4.9,0.8,6.5,2.3s2.4,3.4,2.4,5.7c0,1.1-0.2,2.3-0.7,3.4s-1.2,2.3-2.3,3.5
		c-1.1,1.2-2.9,2.9-5.4,5c-2.1,1.8-3.5,3-4.1,3.6c-0.6,0.6-1.1,1.3-1.5,1.9H832.6z"/>
	<path class="st3" d="M841.8,780.5c-1.5-0.5-2.5-1.3-3.2-2.3s-1.1-2.2-1.1-3.6c0-2.1,0.7-3.8,2.2-5.3c1.5-1.4,3.5-2.1,6-2.1
		c2.5,0,4.5,0.7,6,2.2s2.3,3.2,2.3,5.3c0,1.3-0.3,2.5-1,3.5c-0.7,1-1.8,1.7-3.2,2.3c1.8,0.6,3.1,1.5,4,2.8s1.4,2.8,1.4,4.6
		c0,2.4-0.9,4.5-2.6,6.2c-1.7,1.7-4,2.5-6.8,2.5c-2.8,0-5.1-0.8-6.8-2.5c-1.7-1.7-2.6-3.8-2.6-6.3c0-1.9,0.5-3.4,1.4-4.7
		C838.7,781.8,840.1,780.9,841.8,780.5z M840,787.7c0,1,0.2,2,0.7,2.9c0.5,0.9,1.2,1.7,2.1,2.2s1.9,0.8,3,0.8c1.7,0,3.1-0.5,4.2-1.6
		s1.6-2.5,1.6-4.1c0-1.7-0.6-3.1-1.7-4.2c-1.1-1.1-2.5-1.7-4.2-1.7c-1.7,0-3,0.5-4.1,1.6C840.5,784.7,840,786.1,840,787.7z
		 M841.1,774.5c0,1.4,0.4,2.5,1.3,3.3c0.9,0.9,2,1.3,3.4,1.3c1.4,0,2.5-0.4,3.3-1.3c0.9-0.9,1.3-1.9,1.3-3.1c0-1.3-0.4-2.4-1.3-3.3
		c-0.9-0.9-2-1.3-3.3-1.3c-1.3,0-2.5,0.4-3.3,1.3C841.5,772.3,841.1,773.3,841.1,774.5z"/>
	<path class="st3" d="M877.1,792.6v3.4h-18.9c0-0.8,0.1-1.7,0.4-2.4c0.5-1.3,1.3-2.6,2.3-3.8c1.1-1.3,2.6-2.7,4.6-4.3
		c3.1-2.6,5.2-4.6,6.3-6.1s1.6-2.9,1.6-4.2c0-1.4-0.5-2.6-1.5-3.5s-2.3-1.4-3.9-1.4c-1.7,0-3,0.5-4.1,1.5s-1.5,2.4-1.5,4.2l-3.6-0.4
		c0.2-2.7,1.2-4.7,2.8-6.2c1.6-1.4,3.8-2.1,6.5-2.1c2.7,0,4.9,0.8,6.5,2.3s2.4,3.4,2.4,5.7c0,1.1-0.2,2.3-0.7,3.4s-1.2,2.3-2.3,3.5
		c-1.1,1.2-2.9,2.9-5.4,5c-2.1,1.8-3.5,3-4.1,3.6c-0.6,0.6-1.1,1.3-1.5,1.9H877.1z"/>
	<path class="st3" d="M886.3,780.5c-1.5-0.5-2.5-1.3-3.2-2.3s-1.1-2.2-1.1-3.6c0-2.1,0.7-3.8,2.2-5.3c1.5-1.4,3.5-2.1,6-2.1
		c2.5,0,4.5,0.7,6,2.2s2.3,3.2,2.3,5.3c0,1.3-0.3,2.5-1,3.5c-0.7,1-1.8,1.7-3.2,2.3c1.8,0.6,3.1,1.5,4,2.8s1.4,2.8,1.4,4.6
		c0,2.4-0.9,4.5-2.6,6.2c-1.7,1.7-4,2.5-6.8,2.5c-2.8,0-5.1-0.8-6.8-2.5c-1.7-1.7-2.6-3.8-2.6-6.3c0-1.9,0.5-3.4,1.4-4.7
		C883.2,781.8,884.6,780.9,886.3,780.5z M884.5,787.7c0,1,0.2,2,0.7,2.9c0.5,0.9,1.2,1.7,2.1,2.2s1.9,0.8,3,0.8
		c1.7,0,3.1-0.5,4.2-1.6s1.6-2.5,1.6-4.1c0-1.7-0.6-3.1-1.7-4.2c-1.1-1.1-2.5-1.7-4.2-1.7c-1.7,0-3,0.5-4.1,1.6
		C885,784.7,884.5,786.1,884.5,787.7z M885.6,774.5c0,1.4,0.4,2.5,1.3,3.3c0.9,0.9,2,1.3,3.4,1.3c1.4,0,2.5-0.4,3.3-1.3
		c0.9-0.9,1.3-1.9,1.3-3.1c0-1.3-0.4-2.4-1.3-3.3c-0.9-0.9-2-1.3-3.3-1.3c-1.3,0-2.5,0.4-3.3,1.3C886,772.3,885.6,773.3,885.6,774.5
		z"/>
	<path class="st3" d="M921.6,792.6v3.4h-18.9c0-0.8,0.1-1.7,0.4-2.4c0.5-1.3,1.3-2.6,2.3-3.8c1.1-1.3,2.6-2.7,4.6-4.3
		c3.1-2.6,5.2-4.6,6.3-6.1s1.6-2.9,1.6-4.2c0-1.4-0.5-2.6-1.5-3.5s-2.3-1.4-3.9-1.4c-1.7,0-3,0.5-4.1,1.5s-1.5,2.4-1.5,4.2l-3.6-0.4
		c0.2-2.7,1.2-4.7,2.8-6.2c1.6-1.4,3.8-2.1,6.5-2.1c2.7,0,4.9,0.8,6.5,2.3s2.4,3.4,2.4,5.7c0,1.1-0.2,2.3-0.7,3.4s-1.2,2.3-2.3,3.5
		c-1.1,1.2-2.9,2.9-5.4,5c-2.1,1.8-3.5,3-4.1,3.6c-0.6,0.6-1.1,1.3-1.5,1.9H921.6z"/>
</g>
<rect id="Rectangle-15-Copy-5" x="1050" y="544" class="st20" width="300" height="300"/>
<g class="st0">
	<path class="st3" d="M1117,796.5l1.7-8.3h-3.3v-2.9h3.9l1.4-7.1h-5.3v-2.9h5.9l1.7-8.4h2.9l-1.7,8.4h6.2l1.7-8.4h2.9l-1.7,8.4h3.4
		v2.9h-4l-1.5,7.1h5.4v2.9h-6l-1.7,8.3h-2.9l1.7-8.3h-6.1l-1.7,8.3H1117z M1122.2,785.3h6.1l1.5-7.1h-6.2L1122.2,785.3z"/>
	<path class="st3" d="M1137.2,796l11-28.6h4.1L1164,796h-4.3l-3.3-8.7h-12l-3.1,8.7H1137.2z M1145.4,784.2h9.7l-3-7.9
		c-0.9-2.4-1.6-4.4-2-5.9c-0.4,1.8-0.9,3.7-1.5,5.5L1145.4,784.2z"/>
	<path class="st3" d="M1165.6,788.5l3.7-0.3c0.3,1.8,0.9,3.1,1.9,4.1s2.2,1.4,3.6,1.4c1.7,0,3.1-0.6,4.3-1.9s1.8-3,1.8-5.1
		c0-2-0.6-3.6-1.7-4.7c-1.1-1.2-2.6-1.7-4.4-1.7c-1.1,0-2.2,0.3-3.1,0.8c-0.9,0.5-1.6,1.2-2.1,2l-3.3-0.4l2.8-14.7h14.2v3.4h-11.4
		l-1.5,7.7c1.7-1.2,3.5-1.8,5.4-1.8c2.5,0,4.6,0.9,6.3,2.6s2.6,4,2.6,6.7c0,2.6-0.8,4.8-2.3,6.7c-1.8,2.3-4.3,3.5-7.5,3.5
		c-2.6,0-4.7-0.7-6.4-2.2C1166.8,792.8,1165.8,790.9,1165.6,788.5z"/>
	<path class="st3" d="M1186.1,796l11-28.6h4.1l11.7,28.6h-4.3l-3.3-8.7h-12l-3.1,8.7H1186.1z M1194.4,784.2h9.7l-3-7.9
		c-0.9-2.4-1.6-4.4-2-5.9c-0.4,1.8-0.9,3.7-1.5,5.5L1194.4,784.2z"/>
	<path class="st3" d="M1214.5,788.5l3.7-0.3c0.3,1.8,0.9,3.1,1.9,4.1s2.2,1.4,3.6,1.4c1.7,0,3.1-0.6,4.3-1.9s1.8-3,1.8-5.1
		c0-2-0.6-3.6-1.7-4.7c-1.1-1.2-2.6-1.7-4.4-1.7c-1.1,0-2.2,0.3-3.1,0.8c-0.9,0.5-1.6,1.2-2.1,2l-3.3-0.4l2.8-14.7h14.2v3.4h-11.4
		l-1.5,7.7c1.7-1.2,3.5-1.8,5.4-1.8c2.5,0,4.6,0.9,6.3,2.6s2.6,4,2.6,6.7c0,2.6-0.8,4.8-2.3,6.7c-1.8,2.3-4.3,3.5-7.5,3.5
		c-2.6,0-4.7-0.7-6.4-2.2C1215.7,792.8,1214.7,790.9,1214.5,788.5z"/>
	<path class="st3" d="M1235,796l11-28.6h4.1l11.7,28.6h-4.3l-3.3-8.7h-12l-3.1,8.7H1235z M1243.3,784.2h9.7l-3-7.9
		c-0.9-2.4-1.6-4.4-2-5.9c-0.4,1.8-0.9,3.7-1.5,5.5L1243.3,784.2z"/>
	<path class="st3" d="M1263.4,788.5l3.7-0.3c0.3,1.8,0.9,3.1,1.9,4.1s2.2,1.4,3.6,1.4c1.7,0,3.1-0.6,4.3-1.9s1.8-3,1.8-5.1
		c0-2-0.6-3.6-1.7-4.7c-1.1-1.2-2.6-1.7-4.4-1.7c-1.1,0-2.2,0.3-3.1,0.8c-0.9,0.5-1.6,1.2-2.1,2l-3.3-0.4l2.8-14.7h14.2v3.4h-11.4
		l-1.5,7.7c1.7-1.2,3.5-1.8,5.4-1.8c2.5,0,4.6,0.9,6.3,2.6s2.6,4,2.6,6.7c0,2.6-0.8,4.8-2.3,6.7c-1.8,2.3-4.3,3.5-7.5,3.5
		c-2.6,0-4.7-0.7-6.4-2.2C1264.6,792.8,1263.7,790.9,1263.4,788.5z"/>
</g>
<rect id="Rectangle-15-Copy-4" x="1400" y="544" class="st21" width="300" height="300"/>
<g class="st0">
	<path class="st22" d="M1461,796.5l1.7-8.3h-3.3v-2.9h3.9l1.4-7.1h-5.3v-2.9h5.9l1.7-8.4h2.9l-1.7,8.4h6.2l1.7-8.4h2.9l-1.7,8.4h3.4
		v2.9h-4l-1.5,7.1h5.4v2.9h-6l-1.7,8.3h-2.9l1.7-8.3h-6.1l-1.7,8.3H1461z M1466.2,785.3h6.1l1.5-7.1h-6.2L1466.2,785.3z"/>
	<path class="st22" d="M1484.3,796v-28.6h9.9c2.2,0,3.9,0.1,5.1,0.4c1.6,0.4,3,1.1,4.2,2.1c1.5,1.3,2.6,2.9,3.4,4.9
		c0.7,2,1.1,4.3,1.1,6.8c0,2.2-0.3,4.1-0.8,5.8s-1.2,3.1-2,4.2c-0.8,1.1-1.7,2-2.6,2.6c-0.9,0.6-2.1,1.1-3.4,1.4
		c-1.3,0.3-2.9,0.5-4.6,0.5H1484.3z M1488.1,792.6h6.1c1.9,0,3.4-0.2,4.4-0.5s1.9-0.8,2.6-1.5c0.9-0.9,1.6-2.1,2.1-3.6
		c0.5-1.5,0.8-3.4,0.8-5.5c0-3-0.5-5.3-1.5-6.9c-1-1.6-2.2-2.7-3.6-3.2c-1-0.4-2.7-0.6-4.9-0.6h-6V792.6z"/>
	<path class="st22" d="M1517.2,780.5c-1.5-0.5-2.5-1.3-3.2-2.3s-1.1-2.2-1.1-3.6c0-2.1,0.7-3.8,2.2-5.3c1.5-1.4,3.5-2.1,6-2.1
		c2.5,0,4.5,0.7,6,2.2s2.3,3.2,2.3,5.3c0,1.3-0.3,2.5-1,3.5c-0.7,1-1.8,1.7-3.2,2.3c1.8,0.6,3.1,1.5,4,2.8s1.4,2.8,1.4,4.6
		c0,2.4-0.9,4.5-2.6,6.2c-1.7,1.7-4,2.5-6.8,2.5c-2.8,0-5.1-0.8-6.8-2.5c-1.7-1.7-2.6-3.8-2.6-6.3c0-1.9,0.5-3.4,1.4-4.7
		C1514.1,781.8,1515.5,780.9,1517.2,780.5z M1515.4,787.7c0,1,0.2,2,0.7,2.9c0.5,0.9,1.2,1.7,2.1,2.2s1.9,0.8,3,0.8
		c1.7,0,3.1-0.5,4.2-1.6s1.6-2.5,1.6-4.1c0-1.7-0.6-3.1-1.7-4.2c-1.1-1.1-2.5-1.7-4.2-1.7c-1.7,0-3,0.5-4.1,1.6
		C1515.9,784.7,1515.4,786.1,1515.4,787.7z M1516.5,774.5c0,1.4,0.4,2.5,1.3,3.3c0.9,0.9,2,1.3,3.4,1.3c1.4,0,2.5-0.4,3.3-1.3
		c0.9-0.9,1.3-1.9,1.3-3.1c0-1.3-0.4-2.4-1.3-3.3c-0.9-0.9-2-1.3-3.3-1.3c-1.3,0-2.5,0.4-3.3,1.3
		C1516.9,772.3,1516.5,773.3,1516.5,774.5z"/>
	<path class="st22" d="M1535.5,796v-28.6h9.9c2.2,0,3.9,0.1,5.1,0.4c1.6,0.4,3,1.1,4.2,2.1c1.5,1.3,2.6,2.9,3.4,4.9
		c0.7,2,1.1,4.3,1.1,6.8c0,2.2-0.3,4.1-0.8,5.8s-1.2,3.1-2,4.2c-0.8,1.1-1.7,2-2.6,2.6c-0.9,0.6-2.1,1.1-3.4,1.4
		c-1.3,0.3-2.9,0.5-4.6,0.5H1535.5z M1539.3,792.6h6.1c1.9,0,3.4-0.2,4.4-0.5s1.9-0.8,2.6-1.5c0.9-0.9,1.6-2.1,2.1-3.6
		c0.5-1.5,0.8-3.4,0.8-5.5c0-3-0.5-5.3-1.5-6.9c-1-1.6-2.2-2.7-3.6-3.2c-1-0.4-2.7-0.6-4.9-0.6h-6V792.6z"/>
	<path class="st22" d="M1568.3,780.5c-1.5-0.5-2.5-1.3-3.2-2.3s-1.1-2.2-1.1-3.6c0-2.1,0.7-3.8,2.2-5.3c1.5-1.4,3.5-2.1,6-2.1
		c2.5,0,4.5,0.7,6,2.2s2.3,3.2,2.3,5.3c0,1.3-0.3,2.5-1,3.5c-0.7,1-1.8,1.7-3.2,2.3c1.8,0.6,3.1,1.5,4,2.8s1.4,2.8,1.4,4.6
		c0,2.4-0.9,4.5-2.6,6.2c-1.7,1.7-4,2.5-6.8,2.5c-2.8,0-5.1-0.8-6.8-2.5c-1.7-1.7-2.6-3.8-2.6-6.3c0-1.9,0.5-3.4,1.4-4.7
		C1565.2,781.8,1566.6,780.9,1568.3,780.5z M1566.5,787.7c0,1,0.2,2,0.7,2.9c0.5,0.9,1.2,1.7,2.1,2.2s1.9,0.8,3,0.8
		c1.7,0,3.1-0.5,4.2-1.6s1.6-2.5,1.6-4.1c0-1.7-0.6-3.1-1.7-4.2c-1.1-1.1-2.5-1.7-4.2-1.7c-1.7,0-3,0.5-4.1,1.6
		C1567,784.7,1566.5,786.1,1566.5,787.7z M1567.6,774.5c0,1.4,0.4,2.5,1.3,3.3c0.9,0.9,2,1.3,3.4,1.3c1.4,0,2.5-0.4,3.3-1.3
		c0.9-0.9,1.3-1.9,1.3-3.1c0-1.3-0.4-2.4-1.3-3.3c-0.9-0.9-2-1.3-3.3-1.3c-1.3,0-2.5,0.4-3.3,1.3
		C1568.1,772.3,1567.6,773.3,1567.6,774.5z"/>
	<path class="st22" d="M1586.6,796v-28.6h9.9c2.2,0,3.9,0.1,5.1,0.4c1.6,0.4,3,1.1,4.2,2.1c1.5,1.3,2.6,2.9,3.4,4.9
		c0.7,2,1.1,4.3,1.1,6.8c0,2.2-0.3,4.1-0.8,5.8s-1.2,3.1-2,4.2c-0.8,1.1-1.7,2-2.6,2.6c-0.9,0.6-2.1,1.1-3.4,1.4
		c-1.3,0.3-2.9,0.5-4.6,0.5H1586.6z M1590.4,792.6h6.1c1.9,0,3.4-0.2,4.4-0.5s1.9-0.8,2.6-1.5c0.9-0.9,1.6-2.1,2.1-3.6
		c0.5-1.5,0.8-3.4,0.8-5.5c0-3-0.5-5.3-1.5-6.9c-1-1.6-2.2-2.7-3.6-3.2c-1-0.4-2.7-0.6-4.9-0.6h-6V792.6z"/>
	<path class="st22" d="M1619.5,780.5c-1.5-0.5-2.5-1.3-3.2-2.3s-1.1-2.2-1.1-3.6c0-2.1,0.7-3.8,2.2-5.3c1.5-1.4,3.5-2.1,6-2.1
		c2.5,0,4.5,0.7,6,2.2s2.3,3.2,2.3,5.3c0,1.3-0.3,2.5-1,3.5c-0.7,1-1.8,1.7-3.2,2.3c1.8,0.6,3.1,1.5,4,2.8s1.4,2.8,1.4,4.6
		c0,2.4-0.9,4.5-2.6,6.2c-1.7,1.7-4,2.5-6.8,2.5c-2.8,0-5.1-0.8-6.8-2.5c-1.7-1.7-2.6-3.8-2.6-6.3c0-1.9,0.5-3.4,1.4-4.7
		C1616.4,781.8,1617.7,780.9,1619.5,780.5z M1617.6,787.7c0,1,0.2,2,0.7,2.9c0.5,0.9,1.2,1.7,2.1,2.2s1.9,0.8,3,0.8
		c1.7,0,3.1-0.5,4.2-1.6s1.6-2.5,1.6-4.1c0-1.7-0.6-3.1-1.7-4.2c-1.1-1.1-2.5-1.7-4.2-1.7c-1.7,0-3,0.5-4.1,1.6
		C1618.2,784.7,1617.6,786.1,1617.6,787.7z M1618.8,774.5c0,1.4,0.4,2.5,1.3,3.3c0.9,0.9,2,1.3,3.4,1.3c1.4,0,2.5-0.4,3.3-1.3
		c0.9-0.9,1.3-1.9,1.3-3.1c0-1.3-0.4-2.4-1.3-3.3c-0.9-0.9-2-1.3-3.3-1.3c-1.3,0-2.5,0.4-3.3,1.3
		C1619.2,772.3,1618.8,773.3,1618.8,774.5z"/>
</g>
<line class="st23" x1="2236.8" y1="0" x2="2236.8" y2="1527"/>
<g>
	<rect x="3184.5" y="-432.1" class="st24" width="69.5" height="69.5"/>
	<rect x="3266.8" y="-348.8" class="st24" width="69.5" height="69.5"/>
	<path class="st24" d="M3336.3-432.1h-69.5v69.5h69.5h69.5C3405.8-401,3374.7-432.1,3336.3-432.1z"/>
	<path class="st24" d="M3184.5-279.3c0,39.3,31.1,71.2,69.5,71.2v-71.2v-69.5h-69.5V-279.3z"/>
</g>
<g>
	<rect x="3567.6" y="-432.1" class="st25" width="69.5" height="69.5"/>
	<rect x="3649.8" y="-348.8" class="st25" width="69.5" height="69.5"/>
	<path class="st25" d="M3719.3-432.1h-69.5v69.5h69.5h69.5C3788.9-401,3757.7-432.1,3719.3-432.1z"/>
	<path class="st25" d="M3567.6-279.3c0,39.3,31.1,71.2,69.5,71.2v-71.2v-69.5h-69.5V-279.3z"/>
</g>
<g>
	<g>
		<rect x="3184.5" y="-833.3" class="st26" width="69.5" height="69.5"/>
		<rect x="3266.8" y="-750" class="st26" width="69.5" height="69.5"/>
		<path class="st26" d="M3336.3-833.3h-69.5v69.5h69.5h69.5C3405.8-802.2,3374.7-833.3,3336.3-833.3z"/>
		<path class="st26" d="M3184.5-680.5c0,39.3,31.1,71.2,69.5,71.2v-71.2V-750h-69.5V-680.5z"/>
	</g>
	<rect x="3184.5" y="-572.8" style="fill:none;" width="221.3" height="33.9"/>
	<text transform="matrix(1 0 0 1 3184.4922 -545.5347)" style="font-family:'Poppins-Medium'; font-size:36.8836px;">#FF0092</text>
</g>
<g>
	<g>
		<rect x="3567.6" y="-833.3" class="st27" width="69.5" height="69.5"/>
		<rect x="3649.8" y="-750" class="st27" width="69.5" height="69.5"/>
		<path class="st27" d="M3719.3-833.3h-69.5v69.5h69.5h69.5C3788.9-802.2,3757.7-833.3,3719.3-833.3z"/>
		<path class="st27" d="M3567.6-680.5c0,39.3,31.1,71.2,69.5,71.2v-71.2V-750h-69.5V-680.5z"/>
	</g>
	<rect x="3567.6" y="-572.8" style="fill:none;" width="221.3" height="33.9"/>
	<text transform="matrix(1 0 0 1 3567.5488 -545.5347)" style="font-family:'Poppins-Medium'; font-size:36.8836px;">#FBFCFD</text>
</g>
<g>
	<g>
		<rect x="3950.6" y="-833.3" class="st28" width="69.5" height="69.5"/>
		<rect x="4032.9" y="-750" class="st28" width="69.5" height="69.5"/>
		<path class="st28" d="M4102.4-833.3h-69.5v69.5h69.5h69.5C4171.9-802.2,4140.8-833.3,4102.4-833.3z"/>
		<path class="st28" d="M3950.6-680.5c0,39.3,31.1,71.2,69.5,71.2v-71.2V-750h-69.5V-680.5z"/>
	</g>
	<rect x="3950.6" y="-572.8" style="fill:none;" width="221.3" height="33.9"/>
	<text transform="matrix(1 0 0 1 3950.6055 -545.5347)" style="font-family:'Poppins-Medium'; font-size:36.8836px;">#BFBFD1</text>
</g>
<g>
	<linearGradient id="SVGID_1_" gradientUnits="userSpaceOnUse" x1="3912.3613" y1="-467.5199" x2="4082.8457" y2="-303.5928">
		<stop  offset="0" style="stop-color:#45385E"/>
		<stop  offset="0.5335" style="stop-color:#7F519E"/>
		<stop  offset="1" style="stop-color:#A761A5"/>
	</linearGradient>
	<rect x="3950.6" y="-432.1" class="st29" width="69.5" height="69.5"/>
	<linearGradient id="SVGID_2_" gradientUnits="userSpaceOnUse" x1="3910.2649" y1="-465.3396" x2="4080.7493" y2="-301.4124">
		<stop  offset="0" style="stop-color:#45385E"/>
		<stop  offset="0.5335" style="stop-color:#7F519E"/>
		<stop  offset="1" style="stop-color:#A761A5"/>
	</linearGradient>
	<rect x="4032.9" y="-348.8" class="st30" width="69.5" height="69.5"/>
	<linearGradient id="SVGID_3_" gradientUnits="userSpaceOnUse" x1="3958.6038" y1="-515.6118" x2="4129.0879" y2="-351.6847">
		<stop  offset="0" style="stop-color:#45385E"/>
		<stop  offset="0.5335" style="stop-color:#7F519E"/>
		<stop  offset="1" style="stop-color:#A761A5"/>
	</linearGradient>
	<path class="st31" d="M4102.4-432.1h-69.5v69.5h69.5h69.5C4171.9-401,4140.8-432.1,4102.4-432.1z"/>
	<linearGradient id="SVGID_4_" gradientUnits="userSpaceOnUse" x1="3863.043" y1="-416.2288" x2="4033.5273" y2="-252.3016">
		<stop  offset="0" style="stop-color:#45385E"/>
		<stop  offset="0.5335" style="stop-color:#7F519E"/>
		<stop  offset="1" style="stop-color:#A761A5"/>
	</linearGradient>
	<path class="st32" d="M3950.6-279.3c0,39.3,31.1,71.2,69.5,71.2v-71.2v-69.5h-69.5V-279.3z"/>
</g>
<rect x="3184.5" y="-171.6" style="fill:none;" width="221.3" height="33.9"/>
<text transform="matrix(1 0 0 1 3184.4922 -144.2847)" style="font-family:'Poppins-Medium'; font-size:36.8836px;">#9292A0</text>
<rect x="3567.6" y="-171.6" style="fill:none;" width="221.3" height="33.9"/>
<text transform="matrix(1 0 0 1 3567.5488 -144.2847)" style="font-family:'Poppins-Medium'; font-size:36.8836px;">#797896</text>
</svg>
