<?xml version="1.0" encoding="utf-8"?>
<!-- Generator: Adobe Illustrator 24.1.1, SVG Export Plug-In . SVG Version: 6.00 Build 0)  -->
<svg version="1.1" id="Layer_1" xmlns="http://www.w3.org/2000/svg" xmlns:xlink="http://www.w3.org/1999/xlink" x="0px" y="0px"
	 viewBox="0 0 171.9 317.7" style="enable-background:new 0 0 171.9 317.7;" xml:space="preserve">
<style type="text/css">
	.st0{clip-path:url(#SVGID_2_);}
	.st1{fill:#F4E9CE;stroke:#EAA720;stroke-width:8;stroke-miterlimit:10;}
	.st2{fill:#E2D4B5;stroke:#EAA720;stroke-width:8;stroke-linecap:round;stroke-linejoin:round;stroke-miterlimit:10;}
	.st3{fill:#1A1A1A;}
	
		.st4{clip-path:url(#SVGID_4_);fill:#F4E9CE;stroke:#EAA720;stroke-width:8;stroke-linecap:round;stroke-linejoin:round;stroke-miterlimit:10;}
	
		.st5{clip-path:url(#SVGID_4_);fill:#F4E9CE;stroke:#EAA720;stroke-width:4;stroke-linecap:round;stroke-linejoin:round;stroke-miterlimit:10;}
	
		.st6{clip-path:url(#SVGID_4_);fill:#1A1A1A;stroke:#EAA720;stroke-width:4;stroke-linecap:round;stroke-linejoin:round;stroke-miterlimit:10;}
	
		.st7{opacity:0.2;clip-path:url(#SVGID_4_);fill:#1A1A1A;stroke:#EAA720;stroke-width:4;stroke-linecap:round;stroke-linejoin:round;stroke-miterlimit:10;enable-background:new    ;}
	
		.st8{clip-path:url(#SVGID_4_);fill:#E2D4B5;stroke:#EAA720;stroke-width:8;stroke-linecap:round;stroke-linejoin:round;stroke-miterlimit:10;}
	.st9{fill:#E2D4B5;stroke:#1A1A1A;stroke-width:4;stroke-miterlimit:10;}
	.st10{clip-path:url(#SVGID_6_);}
	.st11{fill:#F4E9CE;stroke:#1A1A1A;stroke-width:4;stroke-miterlimit:10;}
	.st12{fill:#F4E9CE;stroke:#FF0000;stroke-miterlimit:10;}
	.st13{opacity:0.2;fill:#1A1A1A;enable-background:new    ;}
	.st14{clip-path:url(#SVGID_8_);}
</style>
<g>
	<g>
		<g>
			<g>
				<defs>
					<rect id="SVGID_1_" x="109.8" y="-8.3" width="62" height="326"/>
				</defs>
				<clipPath id="SVGID_2_">
					<use xlink:href="#SVGID_1_"  style="overflow:visible;"/>
				</clipPath>
				<g class="st0">
					<path class="st1" d="M153.8,278.3c0-3.6,2.9-6.5,6.5-6.5l0,0h23.2c3.6,0,6.5,2.9,6.5,6.5l0,0c0,3.6-2.9,6.5-6.5,6.5l0,0h-23.2
						C156.7,284.7,153.8,281.8,153.8,278.3L153.8,278.3z"/>
					<path class="st1" d="M160.3,284.7h14.4c3.6,0,6.5,2.9,6.5,6.5l0,0c0,3.6-2.9,6.5-6.5,6.5h-14.4c-3.6,0-6.5-2.9-6.5-6.5l0,0
						C153.8,287.6,156.7,284.7,160.3,284.7z"/>
					<path class="st1" d="M153.8,304.2c0-3.6,2.9-6.5,6.5-6.5l0,0h4.2c3.6,0,6.5,2.9,6.5,6.5l0,0c0,3.6-2.9,6.5-6.5,6.5l0,0h-4.2
						C156.7,310.6,153.8,307.7,153.8,304.2L153.8,304.2z"/>
					<path class="st1" d="M153.8,265.3c0-3.6,2.9-6.5,6.5-6.5l0,0h18.3c3.6,0,6.5,2.9,6.5,6.5l0,0c0,3.6-2.9,6.5-6.5,6.5l0,0h-18.3
						C156.7,271.8,153.8,268.9,153.8,265.3L153.8,265.3z"/>
					<path class="st1" d="M189.9,39.8c0,3.6-2.9,6.5-6.5,6.5l0,0h-23.2c-3.6,0-6.5-2.9-6.5-6.5l0,0c0-3.6,2.9-6.5,6.5-6.5l0,0h23.2
						C187,33.3,189.9,36.2,189.9,39.8L189.9,39.8z"/>
					<path class="st1" d="M181.1,26.9c0,3.6-2.9,6.5-6.5,6.5h-14.4c-3.6,0-6.5-2.9-6.5-6.5s2.9-6.5,6.5-6.5l0,0h14.4
						C178.2,20.4,181.1,23.3,181.1,26.9L181.1,26.9z"/>
					<path class="st1" d="M170.9,13.9c0,3.6-2.9,6.5-6.5,6.5l0,0h-4.2c-3.6,0-6.5-2.9-6.5-6.5l0,0c0-3.6,2.9-6.5,6.5-6.5l0,0h4.2
						C168,7.4,170.9,10.3,170.9,13.9L170.9,13.9z"/>
					<path class="st1" d="M185.1,52.8c0,3.6-2.9,6.5-6.5,6.5h-18.3c-3.6,0-6.5-2.9-6.5-6.5s2.9-6.5,6.5-6.5l0,0h18.3
						C182.2,46.3,185.1,49.2,185.1,52.8L185.1,52.8z"/>
				</g>
			</g>
		</g>
	</g>
</g>
<g>
	<path class="st2" d="M125.8,76.1c-0.1,0.4-0.2,0.9-0.2,1.3c13.6,1.5,26.9,5.6,39,12.1c0.6-0.9,1.1-1.9,1.4-3
		c1.2-4.8-1.6-9.7-6.4-11l-22.7-5.9C132,68.4,127.1,71.3,125.8,76.1L125.8,76.1z"/>
	<circle class="st3" cx="160.5" cy="81.7" r="2.3"/>
	<g>
		<defs>
			<rect id="SVGID_3_" x="-8.6" y="57.3" width="180.5" height="200.4"/>
		</defs>
		<clipPath id="SVGID_4_">
			<use xlink:href="#SVGID_3_"  style="overflow:visible;"/>
		</clipPath>
		<ellipse class="st4" cx="113.2" cy="156.7" rx="94.7" ry="80"/>
		<path class="st5" d="M134.1,242l23.8-5.8c0,0,6.8-0.8,2.7-10.2"/>
		<path class="st6" d="M101.8,243.4c-0.3,0-0.7,0-1,0c-49.2-0.5-89-39.1-89-86.7c0-45.8,36.9-83.3,83.6-86.4
			c0.8-0.1,1.6-0.1,2.4-0.1h0.1c26.5,1.6,59-3.1,59-3.1c-26,4.8-26,19.3-26,19.3c10.3-10.8,18.8-9.6,18.8-9.6
			C127.1,87.1,101.8,243.4,101.8,243.4z"/>
		<path class="st7" d="M103.6,243.4c-0.3,0-0.7,0-1,0c-49.2-0.5-89-39.1-89-86.7c0-45.8,36.9-83.3,83.6-86.4
			c0.8-0.1,1.6-0.1,2.4-0.1h0.1c26.5,1.6,59-3.1,59-3.1c-26,4.8-26,19.3-26,19.3c10.3-10.8,18.8-9.6,18.8-9.6
			C128.9,87.1,103.6,243.4,103.6,243.4L103.6,243.4z"/>
		<path class="st6" d="M104.4,228c0,0,13.2-54.1,20-62c0,0-15.3,23.8-17.6,35"/>
		<path class="st7" d="M105.8,226.3c0,0,13.1-51.1,19.9-59c0,0-15.3,23.8-17.6,35"/>
		<path class="st6" d="M113.6,164.8c0,0,12.2-41.2,21.6-52.8c0,0-13.3,9.4-23.7,31.2"/>
		<path class="st7" d="M115.9,165c0,0,12.2-41.2,21.6-52.8c0,0-13.3,9.4-23.7,31.2"/>
		<path class="st6" d="M102.6,235.4c0,0,6-18.1,11.7-23.9c0,0-8.9,7.7-14.3,15.7"/>
		<path class="st7" d="M102.5,236.1c0,0,8.1-18.8,13.8-24.6c0,0-8.9,7.7-14.3,15.7"/>
		<path class="st6" d="M19,134.8L7.4,123.2h15.9L19,134.8z"/>
		<path class="st6" d="M16.5,130.8c0,0-6.6,4.5-9.1,3c0,0,7.4,5.9,10.4,3"/>
		<path class="st6" d="M101.2,243.4l33.7-0.5c0,0-3.4-3-1.9-6.8c0,0-24.4,2.2-31.6-1L101.2,243.4z"/>
		<path class="st6" d="M121.7,209.9l30.6-29.2l8.2,8.6l-30.6,29.2L121.7,209.9z"/>
		<path class="st6" d="M122.2,188.3l8.6-8.2l29.2,30.6l-8.6,8.2L122.2,188.3z"/>
		<path class="st6" d="M121.7,123.8l30.6-29.2l8.2,8.6l-30.6,29.2L121.7,123.8z"/>
		<path class="st6" d="M122.2,102.2l8.6-8.2l29.2,30.6l-8.6,8.2L122.2,102.2z"/>
		<path class="st8" d="M125.6,236c-0.2,1.2-0.1,2.4,0.2,3.5c1.3,4.8,6.2,7.7,11,6.4l22.7-5.9c4.8-1.3,7.7-6.2,6.4-11
			c-0.4-1.7-1.4-3.3-2.7-4.4C151.5,230.7,138.8,234.6,125.6,236z"/>
		<circle class="st6" cx="160.5" cy="231.6" r="2.3"/>
	</g>
</g>
<g>
	<path class="st9" d="M125.8,76.1c-0.1,0.4-0.2,0.9-0.2,1.3c13.6,1.5,26.9,5.6,39,12.1c0.6-0.9,1.1-1.9,1.4-3
		c1.2-4.8-1.6-9.7-6.4-11l-22.7-5.9C132,68.4,127.1,71.3,125.8,76.1L125.8,76.1z"/>
	<circle class="st3" cx="160.5" cy="81.7" r="2.3"/>
	<g>
		<g>
			<g>
				<g>
					<defs>
						<rect id="SVGID_5_" x="6.1" y="67" width="165.8" height="184"/>
					</defs>
					<clipPath id="SVGID_6_">
						<use xlink:href="#SVGID_5_"  style="overflow:visible;"/>
					</clipPath>
					<g class="st10">
						<ellipse class="st11" cx="113.2" cy="156.7" rx="94.7" ry="80"/>
						<path class="st12" d="M134.1,242l23.8-5.8c0,0,6.8-0.8,2.7-10.2"/>
						<g>
							<path class="st3" d="M101.8,243.4c-0.3,0-0.7,0-1,0c-49.2-0.5-89-39.1-89-86.7c0-45.8,36.9-83.3,83.6-86.4
								c0.8-0.1,1.6-0.1,2.4-0.1h0.1c26.5,1.6,59-3.1,59-3.1c-26,4.8-26,19.3-26,19.3c10.3-10.8,18.8-9.6,18.8-9.6
								C127.1,87.1,101.8,243.4,101.8,243.4z"/>
							<path class="st13" d="M103.6,243.4c-0.3,0-0.7,0-1,0c-49.2-0.5-89-39.1-89-86.7c0-45.8,36.9-83.3,83.6-86.4
								c0.8-0.1,1.6-0.1,2.4-0.1h0.1c26.5,1.6,59-3.1,59-3.1c-26,4.8-26,19.3-26,19.3c10.3-10.8,18.8-9.6,18.8-9.6
								C128.9,87.1,103.6,243.4,103.6,243.4L103.6,243.4z"/>
							<path class="st3" d="M104.4,228c0,0,13.2-54.1,20-62c0,0-15.3,23.8-17.6,35"/>
							<path class="st13" d="M105.8,226.3c0,0,13.1-51.1,19.9-59c0,0-15.3,23.8-17.6,35"/>
							<path class="st3" d="M113.6,164.8c0,0,12.2-41.2,21.6-52.8c0,0-13.3,9.4-23.7,31.2"/>
							<path class="st13" d="M115.9,165c0,0,12.2-41.2,21.6-52.8c0,0-13.3,9.4-23.7,31.2"/>
							<path class="st3" d="M102.6,235.4c0,0,6-18.1,11.7-23.9c0,0-8.9,7.7-14.3,15.7"/>
							<path class="st13" d="M102.5,236.1c0,0,8.1-18.8,13.8-24.6c0,0-8.9,7.7-14.3,15.7"/>
							<path class="st3" d="M19,134.8L7.4,123.2h15.9L19,134.8z"/>
							<path class="st3" d="M16.5,130.8c0,0-6.6,4.5-9.1,3c0,0,7.4,5.9,10.4,3"/>
							<path class="st3" d="M101.2,243.4l33.7-0.5c0,0-3.4-3-1.9-6.8c0,0-24.4,2.2-31.6-1L101.2,243.4z"/>
							<path class="st3" d="M121.7,209.9l30.6-29.2l8.2,8.6l-30.6,29.2L121.7,209.9z"/>
							<path class="st3" d="M122.2,188.3l8.6-8.2l29.2,30.6l-8.6,8.2L122.2,188.3z"/>
							<path class="st3" d="M121.7,123.8l30.6-29.2l8.2,8.6l-30.6,29.2L121.7,123.8z"/>
							<path class="st3" d="M122.2,102.2l8.6-8.2l29.2,30.6l-8.6,8.2L122.2,102.2z"/>
						</g>
						<path class="st9" d="M125.6,236c-0.2,1.2-0.1,2.4,0.2,3.5c1.3,4.8,6.2,7.7,11,6.4l22.7-5.9c4.8-1.3,7.7-6.2,6.4-11
							c-0.4-1.7-1.4-3.3-2.7-4.4C151.5,230.7,138.8,234.6,125.6,236z"/>
						<circle class="st3" cx="160.5" cy="231.6" r="2.3"/>
					</g>
				</g>
			</g>
		</g>
	</g>
	<g>
		<g>
			<g>
				<g>
					<defs>
						<rect id="SVGID_7_" x="109.8" y="-8.3" width="62" height="321"/>
					</defs>
					<clipPath id="SVGID_8_">
						<use xlink:href="#SVGID_7_"  style="overflow:visible;"/>
					</clipPath>
					<g class="st14">
						<path class="st11" d="M153.8,278.3c0-3.6,2.9-6.5,6.5-6.5l0,0h23.2c3.6,0,6.5,2.9,6.5,6.5l0,0c0,3.6-2.9,6.5-6.5,6.5l0,0
							h-23.2C156.7,284.7,153.8,281.8,153.8,278.3L153.8,278.3z"/>
						<path class="st11" d="M160.3,284.7h14.4c3.6,0,6.5,2.9,6.5,6.5l0,0c0,3.6-2.9,6.5-6.5,6.5h-14.4c-3.6,0-6.5-2.9-6.5-6.5l0,0
							C153.8,287.6,156.7,284.7,160.3,284.7z"/>
						<path class="st11" d="M153.8,304.2c0-3.6,2.9-6.5,6.5-6.5l0,0h4.2c3.6,0,6.5,2.9,6.5,6.5l0,0c0,3.6-2.9,6.5-6.5,6.5l0,0h-4.2
							C156.7,310.6,153.8,307.7,153.8,304.2L153.8,304.2z"/>
						<path class="st11" d="M153.8,265.3c0-3.6,2.9-6.5,6.5-6.5l0,0h18.3c3.6,0,6.5,2.9,6.5,6.5l0,0c0,3.6-2.9,6.5-6.5,6.5l0,0
							h-18.3C156.7,271.8,153.8,268.9,153.8,265.3L153.8,265.3z"/>
						<path class="st11" d="M189.9,39.8c0,3.6-2.9,6.5-6.5,6.5l0,0h-23.2c-3.6,0-6.5-2.9-6.5-6.5l0,0c0-3.6,2.9-6.5,6.5-6.5l0,0
							h23.2C187,33.3,189.9,36.2,189.9,39.8L189.9,39.8z"/>
						<path class="st11" d="M181.1,26.9c0,3.6-2.9,6.5-6.5,6.5h-14.4c-3.6,0-6.5-2.9-6.5-6.5s2.9-6.5,6.5-6.5l0,0h14.4
							C178.2,20.4,181.1,23.3,181.1,26.9L181.1,26.9z"/>
						<path class="st11" d="M170.9,13.9c0,3.6-2.9,6.5-6.5,6.5l0,0h-4.2c-3.6,0-6.5-2.9-6.5-6.5l0,0c0-3.6,2.9-6.5,6.5-6.5l0,0h4.2
							C168,7.4,170.9,10.3,170.9,13.9L170.9,13.9z"/>
						<path class="st11" d="M185.1,52.8c0,3.6-2.9,6.5-6.5,6.5h-18.3c-3.6,0-6.5-2.9-6.5-6.5s2.9-6.5,6.5-6.5l0,0h18.3
							C182.2,46.3,185.1,49.2,185.1,52.8L185.1,52.8z"/>
					</g>
				</g>
			</g>
		</g>
	</g>
</g>
</svg>
